<svg width="379" height="195" viewBox="0 0 379 195" fill="none" xmlns="http://www.w3.org/2000/svg">
<g clip-path="url(#clip0)">
<rect width="379" height="195" fill="white"/>
<mask id="path-1-outside-1" maskUnits="userSpaceOnUse" x="15.8989" y="9.85706" width="215" height="161" fill="black">
<rect fill="white" x="15.8989" y="9.85706" width="215" height="161"/>
<path d="M97.3011 23.7034C92.5094 22.298 84.0569 18.5239 79.6947 11.8571C70.7942 13.1089 62.8311 15.8917 55.6524 19.8847C54.5037 20.5236 53.375 21.1935 52.2658 21.8931C51.5528 22.3428 50.8479 22.8049 50.1507 23.2788C48.3315 24.5155 46.5658 25.8334 44.8508 27.2262C34.9549 35.2631 26.7462 45.7947 19.6553 57.6277L20.7855 60.8803C21.2516 60.4478 21.7119 60.0204 22.1667 59.5982C39.2498 43.7375 48.5466 35.1059 63.7902 32.6524C64.7743 29.0869 68.496 26.2484 73.1395 25.8802C78.7994 25.4314 83.6853 28.8227 84.0526 33.4547C84.1172 34.2685 84.0379 35.0663 83.8328 35.8312C83.819 35.8828 83.8046 35.9341 83.7897 35.9854C83.6781 36.3676 83.5349 36.7413 83.3626 37.1041C82.9836 37.9019 82.4631 38.6475 81.8254 39.3178C80.9701 40.2169 79.9037 40.9806 78.6843 41.5531C77.4219 42.1457 75.9954 42.5334 74.4696 42.6544C72.033 42.8476 69.7398 42.3292 67.8888 41.3064C66.0379 40.2836 64.6291 38.7565 63.9614 36.9324C62.6687 37.1849 61.4177 37.4663 60.2024 37.7771C44.9574 41.6769 35.3356 50.2061 19.6077 64.1477L18.8989 64.7761L22.0871 68.1236C34.0486 57.4033 66.265 46.6633 87.8095 60.2737C87.8552 59.8828 87.9021 59.4604 87.9522 59.0099C88.0236 58.3679 88.1014 57.6687 88.1907 56.9225C88.4794 54.5095 88.8888 51.6036 89.5949 48.5408C89.9079 47.1833 90.2792 45.7951 90.724 44.4052C91.1097 43.1999 91.5508 41.9935 92.0572 40.8049C93.5881 37.2118 95.7159 33.7823 98.7167 31.0434C98.7637 31.0005 98.8088 30.956 98.852 30.91C99.0517 31.1065 99.2676 31.3032 99.5001 31.5C101.124 32.8739 105.459 32.6835 111.327 32.0697C112.052 34.5924 114.319 36.4797 117.215 37.2164C118.528 38.2227 120.366 38.415 121.903 37.5587C122.029 37.4882 122.151 37.4122 122.268 37.3312C126.503 36.5064 129.655 33.5562 130.163 30.2078C150.203 29.046 173.407 32.0412 178.779 59.4999C179.681 64.1075 180.224 68.7782 180.516 73.4344C179.687 74.1739 179.14 75.2306 179.075 76.4279L167.178 105.578C162.504 111.734 154.27 127.465 158.721 141.149C159.058 142.185 159.41 143.105 159.775 143.917L157.644 149.857L157.576 149.864L157.566 150.074L157.548 150.123L157.563 150.129L157.336 154.893C157.304 155.557 157.873 156.092 158.533 156.021L160.986 155.756C161.596 155.69 162.03 155.131 161.941 154.523L161.333 150.372L162.08 148.288L162.732 153.373L162.675 153.41L162.762 153.602L162.769 153.654L162.785 153.652L164.748 157.999C165.022 158.605 165.771 158.823 166.327 158.459L168.392 157.108C168.905 156.772 169.037 156.077 168.681 155.576L166.252 152.155L165.861 149.103C166.162 149.054 166.46 148.969 166.751 148.851L168.179 151.369L168.141 151.425L168.293 151.569L168.319 151.615L168.333 151.607L171.797 154.887C172.279 155.344 173.056 155.262 173.432 154.715L174.832 152.682C175.18 152.177 175.038 151.483 174.52 151.155L170.976 148.908L169.607 146.495C171.653 143.827 172.811 139.73 171.954 136.999C171.145 134.419 171.355 130.536 171.584 126.291L171.585 126.288C171.944 119.646 172.351 112.116 168.979 107.303C171.637 100.144 177.009 87.2272 180.796 82.6495C180.806 91.0967 180.207 99.3223 179.66 106.847L179.66 106.851C179.214 112.975 178.802 118.635 178.779 123.572C178.777 123.847 178.77 124.331 178.762 124.948C178.722 127.707 178.645 133.128 178.779 134.407C178.78 146.891 182.158 153.2 186.702 156.084L187.241 159.049C187.334 159.561 187.334 160.085 187.241 160.597L186.497 164.692H185.218C184.023 164.692 183.054 165.662 183.054 166.857V166.908C183.054 167.845 183.653 168.694 184.567 168.905C186.699 169.397 188.382 169.287 190.614 168.839C191.577 168.646 192.252 167.785 192.252 166.803C192.252 166.011 191.815 165.32 191.17 164.96V157.853C193.096 158.247 195.093 158.266 197.037 158.062C197.811 157.981 198.561 157.81 199.286 157.556V164.96C198.64 165.321 198.204 166.011 198.204 166.803C198.204 167.785 198.879 168.646 199.842 168.839C202.073 169.287 203.756 169.397 205.889 168.905C206.802 168.694 207.402 167.845 207.402 166.908V166.857C207.402 165.662 206.433 164.693 205.237 164.693H203.93L202.883 159.668C202.83 159.413 202.823 159.15 202.863 158.892L203.485 154.912C208.322 150.295 211.047 141.212 209.99 131.134C209.577 127.193 208.836 123.262 208.101 119.361C207.649 116.964 207.199 114.578 206.829 112.21C206.065 107.317 205.685 102.775 205.303 98.2056C205.041 95.0729 204.778 91.9269 204.39 88.6453C207.87 94.2977 211.685 102.191 213.915 107.205C210.853 112.221 211.732 119.71 212.509 126.317L212.509 126.32C213.005 130.542 213.459 134.404 212.814 137.03C212.131 139.809 213.543 143.826 215.753 146.36L214.539 148.854L211.143 151.319C210.646 151.679 210.549 152.381 210.928 152.863L212.452 154.804C212.863 155.326 213.643 155.359 214.095 154.873L217.346 151.382L217.36 151.389L217.384 151.341L217.526 151.187L217.485 151.134L218.751 148.531C219.05 148.631 219.352 148.698 219.656 148.727L219.457 151.797L217.248 155.365C216.925 155.887 217.1 156.572 217.634 156.875L219.779 158.094C220.357 158.422 221.091 158.157 221.326 157.536L223.012 153.074L223.028 153.075L223.032 153.022L223.106 152.826L223.047 152.792L223.378 147.676L224.255 149.709L223.909 153.89C223.858 154.502 224.326 155.033 224.939 155.061L227.404 155.17C228.068 155.2 228.601 154.63 228.528 153.97L228.002 149.229L228.016 149.223L227.995 149.175L227.972 148.965L227.904 148.963L225.404 143.168C225.716 142.335 226.01 141.395 226.281 140.339C229.863 126.403 220.656 111.22 215.605 105.371L202.883 79.0631C201.412 71.7235 198.958 63.3704 194.5 52.9999C174.865 7.32668 131.907 15.9503 114.47 19.4507C111.482 20.0506 109.244 20.5 108 20.5C103.671 20.4999 99.86 21.9268 98.0219 24.0539C97.8064 23.8997 97.563 23.7803 97.3011 23.7034Z"/>
</mask>
<path d="M97.3011 23.7034C92.5094 22.298 84.0569 18.5239 79.6947 11.8571C70.7942 13.1089 62.8311 15.8917 55.6524 19.8847C54.5037 20.5236 53.375 21.1935 52.2658 21.8931C51.5528 22.3428 50.8479 22.8049 50.1507 23.2788C48.3315 24.5155 46.5658 25.8334 44.8508 27.2262C34.9549 35.2631 26.7462 45.7947 19.6553 57.6277L20.7855 60.8803C21.2516 60.4478 21.7119 60.0204 22.1667 59.5982C39.2498 43.7375 48.5466 35.1059 63.7902 32.6524C64.7743 29.0869 68.496 26.2484 73.1395 25.8802C78.7994 25.4314 83.6853 28.8227 84.0526 33.4547C84.1172 34.2685 84.0379 35.0663 83.8328 35.8312C83.819 35.8828 83.8046 35.9341 83.7897 35.9854C83.6781 36.3676 83.5349 36.7413 83.3626 37.1041C82.9836 37.9019 82.4631 38.6475 81.8254 39.3178C80.9701 40.2169 79.9037 40.9806 78.6843 41.5531C77.4219 42.1457 75.9954 42.5334 74.4696 42.6544C72.033 42.8476 69.7398 42.3292 67.8888 41.3064C66.0379 40.2836 64.6291 38.7565 63.9614 36.9324C62.6687 37.1849 61.4177 37.4663 60.2024 37.7771C44.9574 41.6769 35.3356 50.2061 19.6077 64.1477L18.8989 64.7761L22.0871 68.1236C34.0486 57.4033 66.265 46.6633 87.8095 60.2737C87.8552 59.8828 87.9021 59.4604 87.9522 59.0099C88.0236 58.3679 88.1014 57.6687 88.1907 56.9225C88.4794 54.5095 88.8888 51.6036 89.5949 48.5408C89.9079 47.1833 90.2792 45.7951 90.724 44.4052C91.1097 43.1999 91.5508 41.9935 92.0572 40.8049C93.5881 37.2118 95.7159 33.7823 98.7167 31.0434C98.7637 31.0005 98.8088 30.956 98.852 30.91C99.0517 31.1065 99.2676 31.3032 99.5001 31.5C101.124 32.8739 105.459 32.6835 111.327 32.0697C112.052 34.5924 114.319 36.4797 117.215 37.2164C118.528 38.2227 120.366 38.415 121.903 37.5587C122.029 37.4882 122.151 37.4122 122.268 37.3312C126.503 36.5064 129.655 33.5562 130.163 30.2078C150.203 29.046 173.407 32.0412 178.779 59.4999C179.681 64.1075 180.224 68.7782 180.516 73.4344C179.687 74.1739 179.14 75.2306 179.075 76.4279L167.178 105.578C162.504 111.734 154.27 127.465 158.721 141.149C159.058 142.185 159.41 143.105 159.775 143.917L157.644 149.857L157.576 149.864L157.566 150.074L157.548 150.123L157.563 150.129L157.336 154.893C157.304 155.557 157.873 156.092 158.533 156.021L160.986 155.756C161.596 155.69 162.03 155.131 161.941 154.523L161.333 150.372L162.08 148.288L162.732 153.373L162.675 153.41L162.762 153.602L162.769 153.654L162.785 153.652L164.748 157.999C165.022 158.605 165.771 158.823 166.327 158.459L168.392 157.108C168.905 156.772 169.037 156.077 168.681 155.576L166.252 152.155L165.861 149.103C166.162 149.054 166.46 148.969 166.751 148.851L168.179 151.369L168.141 151.425L168.293 151.569L168.319 151.615L168.333 151.607L171.797 154.887C172.279 155.344 173.056 155.262 173.432 154.715L174.832 152.682C175.18 152.177 175.038 151.483 174.52 151.155L170.976 148.908L169.607 146.495C171.653 143.827 172.811 139.73 171.954 136.999C171.145 134.419 171.355 130.536 171.584 126.291L171.585 126.288C171.944 119.646 172.351 112.116 168.979 107.303C171.637 100.144 177.009 87.2272 180.796 82.6495C180.806 91.0967 180.207 99.3223 179.66 106.847L179.66 106.851C179.214 112.975 178.802 118.635 178.779 123.572C178.777 123.847 178.77 124.331 178.762 124.948C178.722 127.707 178.645 133.128 178.779 134.407C178.78 146.891 182.158 153.2 186.702 156.084L187.241 159.049C187.334 159.561 187.334 160.085 187.241 160.597L186.497 164.692H185.218C184.023 164.692 183.054 165.662 183.054 166.857V166.908C183.054 167.845 183.653 168.694 184.567 168.905C186.699 169.397 188.382 169.287 190.614 168.839C191.577 168.646 192.252 167.785 192.252 166.803C192.252 166.011 191.815 165.32 191.17 164.96V157.853C193.096 158.247 195.093 158.266 197.037 158.062C197.811 157.981 198.561 157.81 199.286 157.556V164.96C198.64 165.321 198.204 166.011 198.204 166.803C198.204 167.785 198.879 168.646 199.842 168.839C202.073 169.287 203.756 169.397 205.889 168.905C206.802 168.694 207.402 167.845 207.402 166.908V166.857C207.402 165.662 206.433 164.693 205.237 164.693H203.93L202.883 159.668C202.83 159.413 202.823 159.15 202.863 158.892L203.485 154.912C208.322 150.295 211.047 141.212 209.99 131.134C209.577 127.193 208.836 123.262 208.101 119.361C207.649 116.964 207.199 114.578 206.829 112.21C206.065 107.317 205.685 102.775 205.303 98.2056C205.041 95.0729 204.778 91.9269 204.39 88.6453C207.87 94.2977 211.685 102.191 213.915 107.205C210.853 112.221 211.732 119.71 212.509 126.317L212.509 126.32C213.005 130.542 213.459 134.404 212.814 137.03C212.131 139.809 213.543 143.826 215.753 146.36L214.539 148.854L211.143 151.319C210.646 151.679 210.549 152.381 210.928 152.863L212.452 154.804C212.863 155.326 213.643 155.359 214.095 154.873L217.346 151.382L217.36 151.389L217.384 151.341L217.526 151.187L217.485 151.134L218.751 148.531C219.05 148.631 219.352 148.698 219.656 148.727L219.457 151.797L217.248 155.365C216.925 155.887 217.1 156.572 217.634 156.875L219.779 158.094C220.357 158.422 221.091 158.157 221.326 157.536L223.012 153.074L223.028 153.075L223.032 153.022L223.106 152.826L223.047 152.792L223.378 147.676L224.255 149.709L223.909 153.89C223.858 154.502 224.326 155.033 224.939 155.061L227.404 155.17C228.068 155.2 228.601 154.63 228.528 153.97L228.002 149.229L228.016 149.223L227.995 149.175L227.972 148.965L227.904 148.963L225.404 143.168C225.716 142.335 226.01 141.395 226.281 140.339C229.863 126.403 220.656 111.22 215.605 105.371L202.883 79.0631C201.412 71.7235 198.958 63.3704 194.5 52.9999C174.865 7.32668 131.907 15.9503 114.47 19.4507C111.482 20.0506 109.244 20.5 108 20.5C103.671 20.4999 99.86 21.9268 98.0219 24.0539C97.8064 23.8997 97.563 23.7803 97.3011 23.7034Z" fill="#1D1D1D"/>
<path d="M97.3011 23.7034C92.5094 22.298 84.0569 18.5239 79.6947 11.8571C70.7942 13.1089 62.8311 15.8917 55.6524 19.8847C54.5037 20.5236 53.375 21.1935 52.2658 21.8931C51.5528 22.3428 50.8479 22.8049 50.1507 23.2788C48.3315 24.5155 46.5658 25.8334 44.8508 27.2262C34.9549 35.2631 26.7462 45.7947 19.6553 57.6277L20.7855 60.8803C21.2516 60.4478 21.7119 60.0204 22.1667 59.5982C39.2498 43.7375 48.5466 35.1059 63.7902 32.6524C64.7743 29.0869 68.496 26.2484 73.1395 25.8802C78.7994 25.4314 83.6853 28.8227 84.0526 33.4547C84.1172 34.2685 84.0379 35.0663 83.8328 35.8312C83.819 35.8828 83.8046 35.9341 83.7897 35.9854C83.6781 36.3676 83.5349 36.7413 83.3626 37.1041C82.9836 37.9019 82.4631 38.6475 81.8254 39.3178C80.9701 40.2169 79.9037 40.9806 78.6843 41.5531C77.4219 42.1457 75.9954 42.5334 74.4696 42.6544C72.033 42.8476 69.7398 42.3292 67.8888 41.3064C66.0379 40.2836 64.6291 38.7565 63.9614 36.9324C62.6687 37.1849 61.4177 37.4663 60.2024 37.7771C44.9574 41.6769 35.3356 50.2061 19.6077 64.1477L18.8989 64.7761L22.0871 68.1236C34.0486 57.4033 66.265 46.6633 87.8095 60.2737C87.8552 59.8828 87.9021 59.4604 87.9522 59.0099C88.0236 58.3679 88.1014 57.6687 88.1907 56.9225C88.4794 54.5095 88.8888 51.6036 89.5949 48.5408C89.9079 47.1833 90.2792 45.7951 90.724 44.4052C91.1097 43.1999 91.5508 41.9935 92.0572 40.8049C93.5881 37.2118 95.7159 33.7823 98.7167 31.0434C98.7637 31.0005 98.8088 30.956 98.852 30.91C99.0517 31.1065 99.2676 31.3032 99.5001 31.5C101.124 32.8739 105.459 32.6835 111.327 32.0697C112.052 34.5924 114.319 36.4797 117.215 37.2164C118.528 38.2227 120.366 38.415 121.903 37.5587C122.029 37.4882 122.151 37.4122 122.268 37.3312C126.503 36.5064 129.655 33.5562 130.163 30.2078C150.203 29.046 173.407 32.0412 178.779 59.4999C179.681 64.1075 180.224 68.7782 180.516 73.4344C179.687 74.1739 179.14 75.2306 179.075 76.4279L167.178 105.578C162.504 111.734 154.27 127.465 158.721 141.149C159.058 142.185 159.41 143.105 159.775 143.917L157.644 149.857L157.576 149.864L157.566 150.074L157.548 150.123L157.563 150.129L157.336 154.893C157.304 155.557 157.873 156.092 158.533 156.021L160.986 155.756C161.596 155.69 162.03 155.131 161.941 154.523L161.333 150.372L162.08 148.288L162.732 153.373L162.675 153.41L162.762 153.602L162.769 153.654L162.785 153.652L164.748 157.999C165.022 158.605 165.771 158.823 166.327 158.459L168.392 157.108C168.905 156.772 169.037 156.077 168.681 155.576L166.252 152.155L165.861 149.103C166.162 149.054 166.46 148.969 166.751 148.851L168.179 151.369L168.141 151.425L168.293 151.569L168.319 151.615L168.333 151.607L171.797 154.887C172.279 155.344 173.056 155.262 173.432 154.715L174.832 152.682C175.18 152.177 175.038 151.483 174.52 151.155L170.976 148.908L169.607 146.495C171.653 143.827 172.811 139.73 171.954 136.999C171.145 134.419 171.355 130.536 171.584 126.291L171.585 126.288C171.944 119.646 172.351 112.116 168.979 107.303C171.637 100.144 177.009 87.2272 180.796 82.6495C180.806 91.0967 180.207 99.3223 179.66 106.847L179.66 106.851C179.214 112.975 178.802 118.635 178.779 123.572C178.777 123.847 178.77 124.331 178.762 124.948C178.722 127.707 178.645 133.128 178.779 134.407C178.78 146.891 182.158 153.2 186.702 156.084L187.241 159.049C187.334 159.561 187.334 160.085 187.241 160.597L186.497 164.692H185.218C184.023 164.692 183.054 165.662 183.054 166.857V166.908C183.054 167.845 183.653 168.694 184.567 168.905C186.699 169.397 188.382 169.287 190.614 168.839C191.577 168.646 192.252 167.785 192.252 166.803C192.252 166.011 191.815 165.32 191.17 164.96V157.853C193.096 158.247 195.093 158.266 197.037 158.062C197.811 157.981 198.561 157.81 199.286 157.556V164.96C198.64 165.321 198.204 166.011 198.204 166.803C198.204 167.785 198.879 168.646 199.842 168.839C202.073 169.287 203.756 169.397 205.889 168.905C206.802 168.694 207.402 167.845 207.402 166.908V166.857C207.402 165.662 206.433 164.693 205.237 164.693H203.93L202.883 159.668C202.83 159.413 202.823 159.15 202.863 158.892L203.485 154.912C208.322 150.295 211.047 141.212 209.99 131.134C209.577 127.193 208.836 123.262 208.101 119.361C207.649 116.964 207.199 114.578 206.829 112.21C206.065 107.317 205.685 102.775 205.303 98.2056C205.041 95.0729 204.778 91.9269 204.39 88.6453C207.87 94.2977 211.685 102.191 213.915 107.205C210.853 112.221 211.732 119.71 212.509 126.317L212.509 126.32C213.005 130.542 213.459 134.404 212.814 137.03C212.131 139.809 213.543 143.826 215.753 146.36L214.539 148.854L211.143 151.319C210.646 151.679 210.549 152.381 210.928 152.863L212.452 154.804C212.863 155.326 213.643 155.359 214.095 154.873L217.346 151.382L217.36 151.389L217.384 151.341L217.526 151.187L217.485 151.134L218.751 148.531C219.05 148.631 219.352 148.698 219.656 148.727L219.457 151.797L217.248 155.365C216.925 155.887 217.1 156.572 217.634 156.875L219.779 158.094C220.357 158.422 221.091 158.157 221.326 157.536L223.012 153.074L223.028 153.075L223.032 153.022L223.106 152.826L223.047 152.792L223.378 147.676L224.255 149.709L223.909 153.89C223.858 154.502 224.326 155.033 224.939 155.061L227.404 155.17C228.068 155.2 228.601 154.63 228.528 153.97L228.002 149.229L228.016 149.223L227.995 149.175L227.972 148.965L227.904 148.963L225.404 143.168C225.716 142.335 226.01 141.395 226.281 140.339C229.863 126.403 220.656 111.22 215.605 105.371L202.883 79.0631C201.412 71.7235 198.958 63.3704 194.5 52.9999C174.865 7.32668 131.907 15.9503 114.47 19.4507C111.482 20.0506 109.244 20.5 108 20.5C103.671 20.4999 99.86 21.9268 98.0219 24.0539C97.8064 23.8997 97.563 23.7803 97.3011 23.7034Z" stroke="#1D1D1D" stroke-width="3" mask="url(#path-1-outside-1)"/>
<path d="M191.17 153.871H186.3L187.241 159.048C187.334 159.56 187.334 160.085 187.241 160.597L186.497 164.692H185.218C184.023 164.692 183.054 165.661 183.054 166.857V166.908C183.054 167.845 183.653 168.694 184.567 168.905C186.699 169.397 188.382 169.287 190.614 168.839C191.577 168.646 192.252 167.785 192.252 166.803C192.252 166.011 191.815 165.32 191.17 164.96V153.871Z" fill="#2C2424"/>
<path d="M204.155 150.625H199.286V164.96C198.64 165.32 198.203 166.011 198.203 166.803C198.203 167.785 198.879 168.646 199.841 168.839C202.073 169.287 203.756 169.397 205.889 168.905C206.802 168.694 207.402 167.845 207.402 166.908V166.857C207.402 165.662 206.433 164.692 205.237 164.692H203.93L202.883 159.668C202.83 159.413 202.823 159.15 202.863 158.892L204.155 150.625Z" fill="#2C2424"/>
<path d="M183.159 80.9873C185.546 81.1185 187.587 79.2898 187.719 76.9027C187.85 74.5156 186.021 72.4744 183.634 72.3433C181.247 72.2122 179.206 74.0408 179.075 76.4279L167.177 105.578C162.504 111.734 154.27 127.465 158.721 141.149C159.058 142.185 159.41 143.105 159.775 143.917L157.644 149.857L157.576 149.864L157.566 150.074L157.548 150.123L157.563 150.129L157.336 154.893C157.304 155.557 157.873 156.092 158.533 156.021L160.986 155.756C161.596 155.69 162.03 155.131 161.941 154.523L161.333 150.372L162.08 148.288L162.732 153.373L162.675 153.41L162.762 153.602L162.769 153.654L162.785 153.652L164.748 157.999C165.022 158.605 165.771 158.823 166.327 158.459L168.392 157.108C168.905 156.772 169.037 156.077 168.681 155.576L166.252 152.155L165.861 149.103C166.162 149.054 166.46 148.969 166.751 148.851L168.179 151.369L168.141 151.425L168.293 151.569L168.319 151.615L168.333 151.607L171.797 154.887C172.279 155.344 173.056 155.262 173.432 154.715L174.832 152.682C175.18 152.177 175.038 151.483 174.52 151.155L170.976 148.908L169.607 146.495C171.653 143.827 172.811 139.73 171.954 136.999C171.145 134.419 171.355 130.536 171.584 126.291L171.585 126.288C171.944 119.646 172.351 112.116 168.979 107.303C172.265 98.4518 179.702 80.7974 183.159 80.9873Z" fill="#C6C6C6"/>
<path d="M97.3011 23.7034C92.5094 22.298 84.0568 18.5239 79.6947 11.857C52.2775 15.7131 33.7559 34.097 19.6553 57.6277L20.7855 60.8803C21.2516 60.4477 21.7119 60.0203 22.1668 59.5981C39.2498 43.7374 48.5465 35.1059 63.7901 32.6523C64.7743 29.0869 68.496 26.2484 73.1395 25.8802C78.7993 25.4314 83.6853 28.8226 84.0526 33.4547C84.4199 38.0868 80.1294 42.2057 74.4696 42.6545C69.5963 43.0409 65.2968 40.5805 63.9614 36.9324C46.4527 40.3516 36.5893 49.0947 19.6077 64.1477C19.3728 64.3559 19.1365 64.5654 18.8988 64.776L22.0871 68.1236C34.0486 57.4033 66.265 46.6633 87.8095 60.2736C87.8551 59.8828 87.9021 59.4604 87.9522 59.0099C88.7138 52.1614 90.1975 38.8191 98.7167 31.0433C99.2811 30.5282 99.5802 29.7744 99.4667 29.0188L98.9438 25.5366C98.8117 24.657 98.1546 23.9538 97.3011 23.7034Z" fill="#C6C6C6"/>
<path d="M60.2024 37.7771L88.1806 57.0062C88.4699 54.5768 88.8806 51.6391 89.5949 48.5408L78.6842 41.553C77.4218 42.1457 75.9954 42.5334 74.4695 42.6544C69.5963 43.0408 65.2968 40.5804 63.9613 36.9324C62.6687 37.1848 61.4177 37.4663 60.2024 37.7771Z" fill="url(#paint0_linear)"/>
<path d="M44.8508 27.2262L55.7257 34.7004C58.2643 33.7943 60.9219 33.1139 63.7901 32.6523C63.8394 32.4736 63.8956 32.2967 63.9584 32.1219L50.1506 23.2787C48.3314 24.5155 46.5657 25.8334 44.8508 27.2262Z" fill="url(#paint1_linear)"/>
<path d="M81.8254 39.3178L90.6815 44.5383C91.1048 43.2018 91.5957 41.8629 92.1678 40.5478L83.8327 35.8312C83.4891 37.1127 82.792 38.3017 81.8254 39.3178Z" fill="url(#paint2_linear)"/>
<path d="M52.2658 21.8931L65.4059 29.6389C66.2306 28.6576 67.2954 27.8148 68.5341 27.1741L55.6523 19.8846C54.5036 20.5235 53.3749 21.1935 52.2658 21.8931Z" fill="url(#paint3_linear)"/>
<path d="M209.99 131.134C211.455 145.102 205.656 157.158 197.037 158.062C188.419 158.966 178.78 155.494 178.779 134.407C178.615 132.841 178.767 125.077 178.779 123.572C178.875 111.654 185.278 106.658 192.931 105.856C197.623 105.364 205.676 105.856 206.829 112.21C207.801 118.432 209.323 124.771 209.99 131.134Z" fill="#352F2F"/>
<path d="M192.931 105.856C197.623 105.364 205.676 105.856 206.829 112.21C203.998 94.0843 206.443 80.7811 194.5 52.9999C171.5 -0.49988 116.5 20.5001 108 20.4999C99.5001 20.4997 93.0001 26 99.5001 31.4999C106.834 37.7053 169.486 12.0001 178.779 59.4999C183.279 82.4999 178.854 107.07 178.779 123.572C178.875 111.654 185.278 106.658 192.931 105.856Z" fill="#352F2F"/>
<path d="M130.692 28.1664C129.943 23.5681 124.756 20.7841 119.333 21.6682C113.911 22.5523 109.877 26.8396 110.627 31.4379C111.376 36.0362 116.563 38.8202 121.986 37.9361C127.408 37.052 131.442 32.7647 130.692 28.1664Z" fill="url(#paint4_radial)" stroke="#1D1D1D" stroke-width="1.09205"/>
<circle cx="119.82" cy="33.8204" r="4.27901" transform="rotate(-119.119 119.82 33.8204)" fill="#636363"/>
<path d="M198.109 81.8338C195.734 82.1148 193.582 80.4182 193.301 78.044C193.02 75.6699 194.717 73.5178 197.091 73.2368C199.465 72.9558 201.617 74.6525 201.898 77.0266L215.605 105.371C220.656 111.22 229.863 126.403 226.281 140.339C226.01 141.395 225.716 142.335 225.404 143.168L227.904 148.963L227.972 148.965L227.995 149.174L228.016 149.223L228.002 149.229L228.528 153.97C228.601 154.63 228.068 155.2 227.404 155.17L224.939 155.06C224.326 155.033 223.858 154.502 223.909 153.89L224.255 149.709L223.378 147.676L223.047 152.792L223.106 152.826L223.032 153.022L223.028 153.075L223.012 153.074L221.326 157.536C221.091 158.157 220.357 158.422 219.779 158.094L217.633 156.875C217.1 156.572 216.925 155.887 217.248 155.365L219.457 151.797L219.656 148.727C219.352 148.697 219.05 148.631 218.751 148.531L217.484 151.134L217.526 151.187L217.384 151.341L217.36 151.389L217.346 151.382L214.095 154.873C213.642 155.359 212.863 155.326 212.452 154.804L210.928 152.863C210.549 152.381 210.646 151.679 211.143 151.319L214.539 148.854L215.753 146.36C213.543 143.826 212.13 139.809 212.814 137.03C213.459 134.404 213.005 130.542 212.509 126.32L212.509 126.317C211.732 119.71 210.852 112.221 213.915 107.205C210.079 98.5787 201.547 81.4269 198.109 81.8338Z" fill="#D0D0D0"/>
<path d="M129.731 49.8586L129.949 49.7185C132.894 47.8236 135.31 46.6972 137.849 46.1131C140.384 45.53 143 45.4971 146.324 45.7306L146.792 45.7634L146.877 46.2246L152.885 78.8761C154.46 79.1713 155.821 79.5173 156.902 79.9058C158.046 80.3172 158.981 80.8115 159.475 81.4277L159.605 81.5907L159.607 81.7994L159.855 104.699C160.701 104.532 161.595 105.147 161.595 106.106V110.939C161.595 111.537 161.224 112.051 160.699 112.273C160.453 112.377 160.173 112.503 159.865 112.645V123.453C162.218 123.512 164.335 125.126 164.932 127.517C165.609 129.659 166.367 134.86 164.59 140.053C164.84 140.294 165.106 140.591 165.333 140.924C165.655 141.396 165.946 142.01 165.92 142.673C165.901 143.152 165.591 143.485 165.321 143.664C165.153 143.775 164.976 143.845 164.798 143.882C164.801 143.941 164.801 144 164.799 144.061C164.78 144.54 164.47 144.872 164.2 145.051C163.722 145.368 163.175 145.351 162.734 145.185C162.594 145.132 162.459 145.062 162.332 144.979C162.253 145.121 162.16 145.257 162.049 145.383C161.731 145.743 161.281 145.805 160.959 145.773C160.479 145.726 160.111 145.465 159.865 145.141V150.154V150.506L159.558 150.68C156.317 152.514 152.586 153.715 148.637 154.409L147.441 156.719C148.741 155.24 150.647 154.307 152.771 154.307C156.688 154.307 159.864 157.483 159.864 161.401C159.864 165.31 156.701 168.481 152.795 168.494C150.359 168.683 144.999 168.543 140.601 166.771C139.834 166.463 139.271 165.9 138.928 165.223C138.585 165.9 138.022 166.463 137.256 166.771C132.857 168.543 127.497 168.683 125.061 168.494C121.155 168.481 117.992 165.31 117.992 161.401C117.992 157.483 121.168 154.307 125.086 154.307C127.209 154.307 129.115 155.24 130.415 156.719L129.206 154.384C125.031 153.754 121.045 152.782 117.537 151.592L117.127 151.452V151.019V138.042C115.543 137.267 114.019 136.364 112.583 135.316C111.236 135.736 109.876 136.062 108.638 136.237C108.618 136.545 108.573 136.88 108.49 137.212C108.355 137.747 108.1 138.343 107.613 138.754C107.246 139.064 106.792 139.06 106.478 138.981C105.922 138.842 105.565 138.427 105.39 137.989C105.217 137.557 105.195 137.049 105.339 136.596C105.354 136.549 105.368 136.501 105.38 136.454C105.263 136.533 105.149 136.631 105.039 136.745C104.711 137.089 104.255 137.314 103.793 137.369C103.325 137.425 102.789 137.311 102.401 136.889L102.846 136.479L102.401 136.889C102.181 136.651 101.96 136.254 102.056 135.784C102.089 135.619 102.142 135.463 102.209 135.315C102.065 135.264 101.928 135.198 101.802 135.117C101.404 134.865 101.061 134.439 101.026 133.867C101.006 133.543 101.085 133.096 101.456 132.792C101.502 132.754 101.55 132.718 101.599 132.685C101.521 132.521 101.471 132.338 101.458 132.136C101.438 131.813 101.517 131.366 101.888 131.062M129.731 49.8586L102.272 131.53M129.731 49.8586L129.682 50.1126L124.129 78.8718L129.731 49.8586ZM101.888 131.062L102.272 131.53M101.888 131.062C101.888 131.062 101.888 131.062 101.888 131.062L102.272 131.53M101.888 131.062C102.402 130.641 103.068 130.504 103.638 130.477C104.041 130.458 104.438 130.491 104.781 130.546M102.272 131.53C103.009 130.926 104.325 131.042 105.062 131.217M104.781 130.546C104.704 130.659 104.628 130.774 104.554 130.89L105.062 131.217M104.781 130.546C106.301 128.298 108.194 126.548 109.965 125.265M104.781 130.546C104.934 130.57 105.076 130.599 105.203 130.629L105.062 131.217M105.062 131.217L109.965 125.265M109.965 125.265V125.576H110.57L110.222 125.081C110.137 125.141 110.051 125.203 109.965 125.265ZM117.745 93.4176L117.732 94.049C117.529 93.9841 117.329 93.9189 117.131 93.8537L117.144 93.2208C117.342 93.2866 117.543 93.3522 117.745 93.4176ZM102.138 132.409C102.23 132.614 102.396 132.782 102.599 132.9C102.366 132.958 102.147 133.046 101.958 133.172L102.138 132.409ZM131.988 159.755L132.723 161.175C132.601 161.185 132.418 161.167 132.171 161.048C132.149 160.605 132.087 160.173 131.988 159.755ZM145.869 159.755C145.769 160.173 145.707 160.605 145.685 161.048C145.438 161.167 145.255 161.185 145.133 161.175L145.869 159.755Z" fill="#1D1D1D" stroke="#1D1D1D" stroke-width="1.21007"/>
<path d="M146.282 46.3344C146.501 47.2646 142.888 48.8911 138.578 49.9042C134.268 50.9173 130.495 51.1577 130.277 50.2274C130.058 49.2971 133.476 47.5484 137.786 46.5353C142.096 45.5223 146.063 45.4041 146.282 46.3344Z" fill="#E9E588"/>
<path d="M112.307 129.537C113.344 131.952 116.142 133.069 118.557 132.032C120.971 130.996 122.089 128.198 121.052 125.783C120.015 123.368 117.217 122.251 114.802 123.287C112.388 124.324 111.27 127.122 112.307 129.537Z" fill="#D3D3D3"/>
<path d="M112.307 129.537C113.344 131.952 116.142 133.069 118.557 132.032C113.296 135.323 100.89 138.474 104.567 132.032C107.509 126.879 112.616 124.055 114.802 123.287C112.388 124.324 111.27 127.122 112.307 129.537Z" fill="#D3D3D3"/>
<path d="M107.223 138.292C108.005 137.632 108.093 136.163 108.028 135.446L105.865 135.23C106.115 135.73 106.074 136.284 105.916 136.78C105.713 137.415 105.977 138.232 106.624 138.394C106.832 138.446 107.059 138.43 107.223 138.292Z" fill="#D3D3D3"/>
<path d="M102.649 135.905C102.853 134.902 104.1 134.121 104.76 133.835L105.987 135.629C105.428 135.65 104.962 135.951 104.602 136.327C104.141 136.81 103.298 136.969 102.846 136.479C102.701 136.322 102.606 136.115 102.649 135.905Z" fill="#D3D3D3"/>
<path d="M101.839 133.26C102.631 132.611 104.091 132.793 104.784 132.988L104.602 135.154C104.155 134.817 103.604 134.756 103.087 134.821C102.425 134.904 101.67 134.495 101.63 133.83C101.616 133.616 101.673 133.396 101.839 133.26Z" fill="#D3D3D3"/>
<path d="M102.272 131.529C103.064 130.881 104.524 131.063 105.217 131.257L105.034 133.423C104.588 133.086 104.036 133.025 103.52 133.09C102.858 133.173 102.103 132.765 102.062 132.099C102.049 131.885 102.106 131.665 102.272 131.529Z" fill="#D3D3D3"/>
<path d="M127.248 149.289H138.496V161.401C136.553 161.985 135.464 162.086 133.521 161.401L127.248 149.289Z" fill="#E1DD76"/>
<path d="M150.608 149.289H139.361V161.401C141.303 161.985 142.392 162.086 144.335 161.401L150.608 149.289Z" fill="#E1DD76"/>
<rect x="117.732" y="81.8059" width="41.5278" height="23.3594" fill="#F3F0A7"/>
<path d="M117.732 127.659H159.26V150.153C147.796 156.642 129.844 155.128 117.732 151.019V127.659Z" fill="#F3F0A7"/>
<ellipse cx="138.496" cy="82.4545" rx="20.7639" ry="4.10952" fill="#E9E588"/>
<path d="M152.771 81.5895C152.771 82.9035 146.379 83.9687 138.495 83.9687C130.611 83.9687 124.22 82.9035 124.22 81.5895C124.22 81.5376 124.23 81.4861 124.25 81.435C124.727 80.193 130.923 79.2103 138.495 79.2103C146.068 79.2103 152.264 80.193 152.741 81.435C152.761 81.4861 152.771 81.5376 152.771 81.5895Z" fill="#F3F0A7"/>
<path d="M124.25 81.435C124.727 80.193 130.923 79.2103 138.495 79.2103C146.068 79.2103 152.264 80.193 152.741 81.435L146.282 46.3341L130.276 50.2273L124.25 81.435Z" fill="#F3F0A7"/>
<path d="M117.732 90.0249C127.897 95.2159 149.31 94.567 159.26 90.0249V143.487C143.445 148.535 134.321 148.138 117.732 143.487V90.0249Z" fill="white"/>
<path d="M117.732 98.6765C127.897 103.867 149.31 103.219 159.26 98.6765V101.094C143.445 106.142 134.321 105.745 117.732 101.094V98.6765Z" fill="#D3D3D3"/>
<path d="M117.732 136.311C127.897 141.502 149.31 140.853 159.26 136.311V138.728C143.445 143.777 134.321 143.38 117.732 138.728V136.311Z" fill="#D3D3D3"/>
<path d="M150.282 121.536C153.88 121.776 156.881 118.355 157.164 114.123C157.447 109.89 154.928 106.1 151.33 105.859C147.732 105.619 144.73 109.04 144.447 113.272C144.164 117.505 146.684 121.295 150.282 121.536Z" fill="url(#paint5_radial)" stroke="#1D1D1D" stroke-width="0.880973"/>
<circle cx="148.633" cy="116.168" r="3.29862" transform="rotate(-16.0335 148.633 116.168)" fill="#636363"/>
<path d="M120.434 119.805C124.032 120.045 127.033 116.624 127.316 112.392C127.599 108.159 125.08 104.369 121.482 104.128C117.884 103.888 114.882 107.309 114.599 111.541C114.316 115.774 116.836 119.564 120.434 119.805Z" fill="url(#paint6_radial)" stroke="#1D1D1D" stroke-width="0.880973"/>
<circle cx="123.111" cy="112.274" r="3.29862" transform="rotate(-16.0335 123.111 112.274)" fill="#636363"/>
<path d="M131.574 161.401C131.574 164.984 128.669 167.889 125.086 167.889C121.502 167.889 118.597 164.984 118.597 161.401C118.597 157.817 121.502 154.912 125.086 154.912C128.669 154.912 131.574 157.817 131.574 161.401Z" fill="#E1DD76"/>
<path d="M131.574 161.401C131.574 164.984 128.669 167.889 125.086 167.889C127.46 168.077 132.736 167.939 137.03 166.21C138.219 165.731 138.837 164.471 138.695 163.197L138.496 161.401H133.521C133.305 161.689 132.612 162.093 131.574 161.401Z" fill="#E1DD76"/>
<path d="M146.282 161.401C146.282 164.984 149.187 167.889 152.771 167.889C156.354 167.889 159.259 164.984 159.259 161.401C159.259 157.817 156.354 154.912 152.771 154.912C149.187 154.912 146.282 157.817 146.282 161.401Z" fill="#E1DD76"/>
<path d="M146.282 161.401C146.282 164.984 149.187 167.889 152.771 167.889C150.396 168.077 145.12 167.939 140.827 166.21C139.638 165.731 139.019 164.471 139.161 163.197L139.361 161.401H144.335C144.552 161.689 145.244 162.093 146.282 161.401Z" fill="#E1DD76"/>
<path d="M159.732 105.379C156.978 106.876 152.921 108.569 151.309 108.684V115.138C153.679 115.138 158.271 112.644 160.464 111.716C160.777 111.583 160.99 111.28 160.99 110.939V106.106C160.99 105.472 160.288 105.076 159.732 105.379Z" fill="#352F2F"/>
<path d="M160.863 133.437C158.31 134.064 155.734 132.503 155.107 129.951C154.48 127.399 156.041 124.822 158.593 124.195C161.146 123.568 163.723 125.129 164.349 127.682C164.976 130.234 163.415 132.811 160.863 133.437Z" fill="#D3D3D3"/>
<path d="M160.863 133.437C158.31 134.064 155.734 132.503 155.107 129.951C155.647 136.132 160.603 147.934 163.532 141.119C165.874 135.667 165.053 129.889 164.349 127.682C164.976 130.234 163.415 132.811 160.863 133.437Z" fill="#D3D3D3"/>
<path d="M156.935 142.769C156.991 141.747 158.111 140.792 158.722 140.412L160.197 142.009C159.647 142.11 159.23 142.477 158.929 142.902C158.544 143.446 157.733 143.727 157.214 143.308C157.047 143.173 156.924 142.983 156.935 142.769Z" fill="#D3D3D3"/>
<path d="M161.595 144.983C162.273 144.215 162.145 142.749 161.976 142.05L159.805 142.152C160.126 142.61 160.166 143.164 160.082 143.678C159.974 144.336 160.355 145.106 161.018 145.171C161.231 145.192 161.453 145.143 161.595 144.983Z" fill="#D3D3D3"/>
<path d="M164.194 144.036C164.235 143.013 163.211 141.957 162.638 141.522L161.019 142.971C161.557 143.125 161.937 143.529 162.197 143.98C162.529 144.558 163.31 144.915 163.866 144.547C164.044 144.428 164.186 144.25 164.194 144.036Z" fill="#D3D3D3"/>
<path d="M165.315 142.649C165.356 141.626 164.332 140.57 163.759 140.134L162.14 141.584C162.678 141.737 163.058 142.141 163.318 142.593C163.65 143.171 164.431 143.527 164.987 143.159C165.165 143.041 165.307 142.863 165.315 142.649Z" fill="#D3D3D3"/>
<path d="M151.066 96.1846C138.276 100.176 121.672 95.8154 112.866 92.3103C111.777 91.877 110.57 92.6668 110.57 93.8386V132.178C110.57 132.629 110.759 133.062 111.098 133.358C122.918 143.669 142.573 142.273 152.128 140.04C152.841 139.874 153.326 139.232 153.326 138.5V97.7764C153.326 96.6296 152.16 95.843 151.066 96.1846Z" fill="#676767"/>
<g opacity="0.67">
<mask id="mask0" mask-type="alpha" maskUnits="userSpaceOnUse" x="110" y="92" width="44" height="50">
<path d="M151.066 96.1846C138.276 100.176 121.672 95.8154 112.866 92.3103C111.777 91.877 110.57 92.6668 110.57 93.8386V132.178C110.57 132.629 110.759 133.062 111.098 133.358C122.918 143.669 142.573 142.273 152.128 140.04C152.841 139.874 153.326 139.232 153.326 138.5V97.7764C153.326 96.6296 152.16 95.843 151.066 96.1846Z" fill="#676767"/>
</mask>
<g mask="url(#mask0)">
<ellipse cx="128.721" cy="116.833" rx="30.655" ry="30.2517" fill="url(#paint7_radial)"/>
</g>
</g>
<g clip-path="url(#clip1)">
<path d="M141.073 113.278C131.678 114.613 120.745 110.151 115.361 107.625C114.821 107.372 114.201 107.764 114.201 108.36V116.375C114.201 116.613 114.305 116.84 114.491 116.99C122.282 123.282 135.143 123.834 141.319 123.277C141.728 123.24 142.032 122.895 142.032 122.484V114.093C142.032 113.588 141.573 113.207 141.073 113.278Z" fill="url(#paint8_linear)"/>
<path d="M123.075 122.398L119.041 109.087L121.864 110.701L125.898 122.398H123.075Z" fill="#CFFCF9"/>
<path d="M127.511 122.801L124.285 111.104H125.495L128.721 122.801H127.511Z" fill="#CFFCF9"/>
</g>
<path d="M140.67 113.278C131.275 114.613 120.342 110.151 114.957 107.625C114.418 107.372 113.797 107.764 113.797 108.36V116.375C113.797 116.613 113.902 116.84 114.087 116.99C121.879 123.282 134.739 123.834 140.916 123.277C141.325 123.24 141.629 122.895 141.629 122.484V114.093C141.629 113.588 141.17 113.207 140.67 113.278Z" stroke="#4F4F4F" stroke-width="1.61342"/>
<circle cx="102.1" cy="132.564" r="44.3691" fill="url(#paint9_radial)"/>
<mask id="path-47-outside-2" maskUnits="userSpaceOnUse" x="41" y="94.4551" width="77" height="92" fill="black">
<rect fill="white" x="41" y="94.4551" width="77" height="92"/>
<path fill-rule="evenodd" clip-rule="evenodd" d="M58.2265 96.3845C57.9252 96.5032 57.7309 96.7977 57.7309 97.1215V102.543L42 105.539V159.992L88.3859 185L116.217 172.899V137.001L101.697 117.236L69.0248 105.832V104.889C69.0248 104.493 68.7358 104.155 68.3444 104.094C68.3021 104.087 68.26 104.08 68.2181 104.074V97.1827C68.2181 96.8288 67.9863 96.5153 67.6475 96.4132C64.0624 95.3324 61.8305 94.9641 58.2265 96.3845Z"/>
</mask>
<path fill-rule="evenodd" clip-rule="evenodd" d="M58.2265 96.3845C57.9252 96.5032 57.7309 96.7977 57.7309 97.1215V102.543L42 105.539V159.992L88.3859 185L116.217 172.899V137.001L101.697 117.236L69.0248 105.832V104.889C69.0248 104.493 68.7358 104.155 68.3444 104.094C68.3021 104.087 68.26 104.08 68.2181 104.074V97.1827C68.2181 96.8288 67.9863 96.5153 67.6475 96.4132C64.0624 95.3324 61.8305 94.9641 58.2265 96.3845Z" fill="#1D1D1D"/>
<path d="M58.2265 96.3845L58.5223 97.135V97.135L58.2265 96.3845ZM57.7309 102.543L57.8818 103.335L58.5376 103.21V102.543H57.7309ZM42 105.539L41.8491 104.747L41.1933 104.871V105.539H42ZM42 159.992H41.1933V160.474L41.6172 160.702L42 159.992ZM88.3859 185L88.0031 185.71L88.3481 185.896L88.7076 185.74L88.3859 185ZM116.217 172.899L116.539 173.639L117.024 173.428V172.899H116.217ZM116.217 137.001H117.024V136.736L116.868 136.523L116.217 137.001ZM101.697 117.236L102.347 116.759L102.199 116.557L101.963 116.475L101.697 117.236ZM69.0248 105.832H68.2181V106.405L68.759 106.594L69.0248 105.832ZM68.3444 104.094L68.4692 103.297L68.4692 103.297L68.3444 104.094ZM68.2181 104.074H67.4114V104.765L68.094 104.871L68.2181 104.074ZM67.6475 96.4132L67.4146 97.1856L67.4146 97.1856L67.6475 96.4132ZM58.5376 97.1215C58.5376 97.1214 58.5376 97.1226 58.5362 97.1246C58.5355 97.1257 58.534 97.1275 58.5315 97.1296C58.5288 97.1318 58.5256 97.1337 58.5223 97.135L57.9307 95.634C57.3114 95.878 56.9242 96.477 56.9242 97.1215H58.5376ZM58.5376 102.543V97.1215H56.9242V102.543H58.5376ZM57.5799 101.75L41.8491 104.747L42.1509 106.331L57.8818 103.335L57.5799 101.75ZM41.1933 105.539V159.992H42.8067V105.539H41.1933ZM41.6172 160.702L88.0031 185.71L88.7687 184.29L42.3828 159.282L41.6172 160.702ZM88.7076 185.74L116.539 173.639L115.896 172.16L88.0643 184.26L88.7076 185.74ZM117.024 172.899V137.001H115.411V172.899H117.024ZM116.868 136.523L102.347 116.759L101.047 117.714L115.567 137.478L116.868 136.523ZM101.963 116.475L69.2907 105.07L68.759 106.594L101.431 117.998L101.963 116.475ZM69.8315 105.832V104.889H68.2181V105.832H69.8315ZM69.8315 104.889C69.8315 104.096 69.2535 103.419 68.4692 103.297L68.2196 104.891C68.2199 104.891 68.2192 104.891 68.2184 104.89C68.2179 104.89 68.218 104.89 68.2183 104.89C68.2186 104.891 68.2186 104.891 68.2184 104.89C68.2181 104.889 68.2181 104.889 68.2181 104.889H69.8315ZM68.4692 103.297C68.4267 103.29 68.3844 103.283 68.3422 103.277L68.094 104.871C68.1357 104.878 68.1776 104.884 68.2196 104.891L68.4692 103.297ZM67.4114 97.1827V104.074H69.0248V97.1827H67.4114ZM67.4146 97.1856C67.4142 97.1854 67.4133 97.185 67.4124 97.1844C67.4118 97.184 67.4116 97.1837 67.4117 97.1838C67.4118 97.1839 67.4117 97.1839 67.4116 97.1835C67.4114 97.1831 67.4114 97.1826 67.4114 97.1827H69.0248C69.0248 96.4748 68.5616 95.8462 67.8803 95.6408L67.4146 97.1856ZM58.5223 97.135C60.2419 96.4573 61.5904 96.222 62.9166 96.2672C64.2619 96.313 65.6313 96.648 67.4146 97.1856L67.8803 95.6408C66.0785 95.0976 64.5394 94.7081 62.9715 94.6547C61.3845 94.6006 59.815 94.8913 57.9307 95.634L58.5223 97.135Z" fill="#1D1D1D" mask="url(#path-47-outside-2)"/>
<path d="M116.217 137.001V172.899L88.3859 185L42 159.992V105.539L58.9409 102.312L101.697 117.236L116.217 137.001Z" fill="#C6C6C6"/>
<path d="M88.3859 122.076L101.697 117.236L58.9409 102.312L42 105.539L88.3859 122.076Z" fill="#EAEAEA"/>
<path opacity="0.7" d="M88.3859 185V122.076L42 105.539V159.992L88.3859 185Z" fill="#EAEAEA"/>
<path d="M56.9241 104.85C56.9241 104.471 57.1887 104.142 57.5597 104.067C61.6735 103.231 64.2417 103.451 68.3443 104.094C68.7358 104.155 69.0248 104.493 69.0248 104.889V109.457C69.0248 109.837 68.7593 110.166 68.3874 110.241C64.2745 111.067 61.7065 110.858 57.6043 110.215C57.213 110.154 56.9241 109.816 56.9241 109.42V104.85Z" fill="#C6C6C6"/>
<path d="M57.7309 97.1214C57.7309 96.7976 57.9253 96.5032 58.2265 96.3844C61.8305 94.9641 64.0624 95.3324 67.6475 96.4131C67.9864 96.5153 68.2181 96.8288 68.2181 97.1827V105.894C68.2181 106.218 68.0224 106.514 67.7196 106.632C64.1171 108.036 61.8854 107.686 58.301 106.604C57.9624 106.502 57.7309 106.189 57.7309 105.835V97.1214Z" fill="#F08181"/>
<path d="M48.6524 146.684L48.2523 146.633L48.2012 147.033L44.4234 176.642L44.3723 177.042L44.7724 177.093L104.789 184.751L105.189 184.802L105.24 184.402L109.018 154.793L109.069 154.393L108.669 154.342L48.6524 146.684Z" fill="#1D1D1D" stroke="#1D1D1D" stroke-width="0.806711"/>
<rect x="48.6013" y="147.084" width="60.5034" height="29.8483" transform="rotate(7.27131 48.6013 147.084)" fill="white"/>
<path d="M57.1391 168.225C56.7151 168.171 56.3418 168.035 56.0192 167.817C55.7011 167.596 55.4627 167.318 55.3041 166.984C55.1499 166.645 55.0979 166.28 55.148 165.887C55.1981 165.495 55.34 165.156 55.5737 164.871C55.8118 164.583 56.1123 164.374 56.4752 164.243C56.8426 164.11 57.2403 164.07 57.6682 164.125C58.0288 164.171 58.346 164.273 58.6199 164.431C58.8977 164.589 59.1212 164.794 59.2904 165.046L58.6029 165.511C58.361 165.165 58.0321 164.966 57.616 164.913C57.3585 164.88 57.1217 164.905 56.9056 164.989C56.69 165.069 56.5125 165.198 56.373 165.376C56.2375 165.554 56.1541 165.766 56.1228 166.012C56.0914 166.257 56.119 166.483 56.2054 166.69C56.2957 166.897 56.4349 167.068 56.623 167.204C56.8116 167.335 57.0347 167.417 57.2923 167.45C57.7083 167.503 58.077 167.391 58.3983 167.114L58.9471 167.736C58.7196 167.941 58.4515 168.085 58.1429 168.169C57.8342 168.252 57.4996 168.271 57.1391 168.225Z" fill="#352F2F"/>
<path d="M60.8558 168.676C60.519 168.633 60.2243 168.528 59.9717 168.362C59.7236 168.192 59.5394 167.979 59.4192 167.722C59.299 167.464 59.2581 167.185 59.2967 166.883C59.3352 166.581 59.445 166.32 59.6259 166.102C59.8068 165.883 60.0384 165.725 60.3208 165.626C60.6076 165.525 60.9194 165.495 61.2562 165.538C61.593 165.581 61.8855 165.688 62.1336 165.858C62.3822 166.024 62.5667 166.235 62.6869 166.492C62.8071 166.749 62.8479 167.029 62.8094 167.331C62.7709 167.633 62.6611 167.893 62.4802 168.112C62.2993 168.331 62.0674 168.491 61.7846 168.593C61.5022 168.692 61.1926 168.719 60.8558 168.676ZM60.9483 167.951C61.1861 167.982 61.3899 167.931 61.5597 167.799C61.734 167.664 61.8375 167.468 61.8703 167.211C61.9031 166.954 61.8518 166.741 61.7165 166.57C61.5857 166.396 61.4014 166.294 61.1637 166.263C60.9259 166.233 60.7199 166.285 60.5456 166.421C60.3718 166.552 60.2685 166.746 60.2358 167.003C60.203 167.259 60.254 167.475 60.3888 167.65C60.5241 167.82 60.7106 167.921 60.9483 167.951Z" fill="#352F2F"/>
<path d="M67.7246 166.364C68.1248 166.415 68.4273 166.569 68.6322 166.825C68.8415 167.078 68.9175 167.429 68.8602 167.879L68.6376 169.623L67.7104 169.505L67.9156 167.896C67.9465 167.655 67.9159 167.468 67.8238 167.338C67.7362 167.204 67.5953 167.124 67.4011 167.1C67.1832 167.072 67.0022 167.118 66.858 167.237C66.7144 167.353 66.6257 167.544 66.5919 167.808L66.3968 169.337L65.4696 169.219L65.6748 167.61C65.736 167.131 65.5645 166.865 65.1604 166.814C64.9464 166.786 64.7673 166.833 64.6232 166.952C64.4795 167.068 64.3908 167.258 64.3571 167.523L64.162 169.052L63.2348 168.934L63.6236 165.887L64.5092 166L64.4644 166.351C64.5996 166.237 64.7568 166.158 64.9359 166.112C65.1189 166.066 65.3134 166.056 65.5195 166.082C65.7453 166.111 65.9438 166.181 66.115 166.291C66.2867 166.397 66.4177 166.538 66.5079 166.715C66.6589 166.573 66.839 166.471 67.0482 166.41C67.2614 166.349 67.4868 166.333 67.7246 166.364Z" fill="#352F2F"/>
<path d="M69.8575 166.682L70.7847 166.8L70.3959 169.847L69.4687 169.729L69.8575 166.682ZM70.3753 166.316C70.2049 166.295 70.0723 166.23 69.9773 166.122C69.8824 166.014 69.8438 165.89 69.8616 165.75C69.8795 165.61 69.9479 165.5 70.0669 165.419C70.186 165.339 70.3307 165.309 70.5011 165.331C70.6714 165.353 70.8043 165.416 70.8998 165.52C70.9952 165.624 71.0342 165.744 71.0169 165.88C70.9981 166.027 70.9289 166.143 70.8094 166.228C70.6904 166.309 70.5457 166.338 70.3753 166.316Z" fill="#352F2F"/>
<path d="M73.5946 167.113C73.9909 167.163 74.2954 167.317 74.5082 167.575C74.725 167.833 74.8049 168.184 74.7481 168.63L74.5255 170.374L73.5983 170.256L73.8035 168.647C73.8343 168.406 73.8018 168.219 73.7057 168.088C73.6102 167.953 73.4574 167.872 73.2474 167.845C73.0136 167.816 72.8185 167.862 72.662 167.984C72.506 168.102 72.4106 168.297 72.3759 168.569L72.1837 170.075L71.2565 169.957L71.6453 166.91L72.5309 167.023L72.4853 167.38C72.6246 167.267 72.7896 167.188 72.9806 167.144C73.172 167.095 73.3767 167.085 73.5946 167.113Z" fill="#352F2F"/>
<path d="M79.0884 167.86L78.7646 170.397C78.6933 170.956 78.4877 171.352 78.1479 171.585C77.8081 171.818 77.345 171.897 76.7586 171.822C76.4495 171.783 76.1609 171.709 75.8926 171.602C75.6244 171.495 75.4078 171.362 75.2429 171.203L75.6924 170.615C75.8136 170.738 75.9734 170.843 76.1717 170.93C76.3696 171.02 76.5715 171.079 76.7776 171.105C77.0985 171.146 77.3432 171.106 77.5116 170.986C77.6835 170.869 77.7873 170.672 77.8229 170.392L77.8395 170.262C77.5656 170.484 77.2126 170.568 76.7807 170.512C76.4875 170.475 76.2257 170.38 75.9955 170.228C75.7697 170.073 75.5996 169.874 75.4854 169.633C75.3712 169.392 75.3326 169.127 75.3697 168.836C75.4068 168.545 75.5109 168.297 75.682 168.093C75.8531 167.888 76.0672 167.741 76.3243 167.651C76.5859 167.558 76.8633 167.53 77.1565 167.567C77.6201 167.626 77.9542 167.817 78.1588 168.138L78.2087 167.747L79.0884 167.86ZM77.0575 169.811C77.3031 169.842 77.5119 169.8 77.6838 169.684C77.8601 169.564 77.9625 169.393 77.9909 169.17C78.0193 168.947 77.963 168.758 77.8218 168.602C77.6851 168.442 77.4939 168.347 77.2482 168.316C77.0026 168.284 76.7916 168.328 76.6152 168.448C76.4394 168.564 76.3373 168.733 76.3088 168.956C76.2804 169.178 76.3365 169.37 76.4772 169.53C76.6184 169.686 76.8118 169.78 77.0575 169.811Z" fill="#352F2F"/>
<path d="M82.3159 171.414C82.0504 171.38 81.7947 171.317 81.5488 171.224C81.3034 171.128 81.1114 171.023 80.9729 170.909L81.3629 170.314C81.4945 170.419 81.6577 170.513 81.8525 170.595C82.0479 170.674 82.2426 170.726 82.4368 170.751C82.8291 170.801 83.037 170.733 83.0606 170.548C83.0717 170.461 83.0262 170.392 82.924 170.341C82.8218 170.289 82.6615 170.236 82.443 170.182C82.1863 170.11 81.9758 170.039 81.8117 169.969C81.6476 169.898 81.5101 169.792 81.3992 169.651C81.2922 169.511 81.2535 169.326 81.2829 169.095C81.3074 168.903 81.3866 168.74 81.5203 168.607C81.6584 168.472 81.8437 168.376 82.0762 168.322C82.3127 168.267 82.5835 168.26 82.8886 168.299C83.1144 168.327 83.3352 168.38 83.5508 168.458C83.7709 168.532 83.949 168.62 84.085 168.722L83.6957 169.311C83.4336 169.124 83.1362 169.009 82.8033 168.967C82.6052 168.942 82.4532 168.949 82.3474 168.989C82.2416 169.03 82.1834 169.091 82.1728 169.174C82.1608 169.269 82.2058 169.342 82.308 169.393C82.4102 169.444 82.576 169.502 82.8054 169.566C83.0616 169.641 83.2698 169.713 83.43 169.784C83.5906 169.85 83.7244 169.954 83.8314 170.094C83.9383 170.234 83.9776 170.416 83.9491 170.638C83.925 170.827 83.8442 170.988 83.7065 171.12C83.5688 171.252 83.3798 171.345 83.1394 171.399C82.9034 171.449 82.6289 171.454 82.3159 171.414Z" fill="#352F2F"/>
<path d="M85.9192 171.874C85.5824 171.831 85.2877 171.726 85.0351 171.56C84.787 171.39 84.6028 171.177 84.4826 170.92C84.3624 170.662 84.3215 170.383 84.3601 170.081C84.3986 169.779 84.5084 169.518 84.6893 169.3C84.8702 169.081 85.1018 168.922 85.3842 168.824C85.671 168.723 85.9828 168.693 86.3196 168.736C86.6564 168.779 86.9489 168.886 87.197 169.056C87.4456 169.222 87.6301 169.433 87.7503 169.69C87.8705 169.947 87.9113 170.227 87.8728 170.529C87.8343 170.831 87.7245 171.091 87.5436 171.31C87.3627 171.529 87.1308 171.689 86.848 171.791C86.5656 171.889 86.256 171.917 85.9192 171.874ZM86.0117 171.149C86.2495 171.179 86.4533 171.129 86.6231 170.997C86.7974 170.862 86.9009 170.666 86.9337 170.409C86.9665 170.152 86.9152 169.939 86.7799 169.768C86.6491 169.594 86.4648 169.492 86.2271 169.461C85.9893 169.431 85.7833 169.483 85.609 169.618C85.4352 169.75 85.3319 169.944 85.2992 170.201C85.2664 170.457 85.3174 170.673 85.4522 170.848C85.5875 171.018 85.774 171.119 86.0117 171.149Z" fill="#352F2F"/>
<path d="M89.814 172.371C89.4772 172.328 89.1825 172.223 88.9299 172.057C88.6817 171.887 88.4976 171.674 88.3773 171.416C88.2571 171.159 88.2163 170.88 88.2548 170.578C88.2934 170.276 88.4031 170.015 88.584 169.797C88.765 169.578 88.9966 169.419 89.2789 169.321C89.5657 169.22 89.8775 169.19 90.2143 169.233C90.5512 169.276 90.8436 169.383 91.0918 169.552C91.3404 169.718 91.5248 169.93 91.645 170.187C91.7653 170.444 91.8061 170.724 91.7676 171.026C91.729 171.328 91.6193 171.588 91.4384 171.807C91.2574 172.026 91.0255 172.186 90.7427 172.288C90.4604 172.386 90.1508 172.414 89.814 172.371ZM89.9065 171.646C90.1442 171.676 90.348 171.626 90.5179 171.494C90.6922 171.359 90.7957 171.163 90.8284 170.906C90.8612 170.649 90.81 170.436 90.6747 170.265C90.5439 170.091 90.3596 169.989 90.1218 169.958C89.8841 169.928 89.6781 169.98 89.5038 170.115C89.33 170.247 89.2267 170.441 89.1939 170.698C89.1612 170.954 89.2122 171.17 89.347 171.344C89.4822 171.515 89.6687 171.616 89.9065 171.646Z" fill="#352F2F"/>
<path d="M94.5311 169.784C94.9273 169.835 95.2319 169.989 95.4447 170.246C95.6614 170.504 95.7414 170.856 95.6845 171.301L95.462 173.046L94.5347 172.927L94.74 171.319C94.7708 171.077 94.7382 170.891 94.6422 170.76C94.5467 170.625 94.3939 170.544 94.1839 170.517C93.9501 170.487 93.755 170.533 93.5985 170.655C93.4424 170.773 93.3471 170.968 93.3124 171.24L93.1201 172.747L92.1929 172.629L92.5817 169.581L93.4673 169.694L93.4218 170.051C93.561 169.939 93.7261 169.86 93.917 169.815C94.1085 169.767 94.3132 169.756 94.5311 169.784Z" fill="#352F2F"/>
<path d="M96.6894 169.173L97.795 169.314L97.2804 171.879L96.5434 171.785L96.6894 169.173ZM96.7305 173.254C96.5681 173.233 96.4376 173.166 96.3392 173.054C96.2452 172.938 96.2074 172.809 96.2257 172.665C96.244 172.522 96.3127 172.41 96.4317 172.329C96.5512 172.244 96.6942 172.213 96.8606 172.234C97.0271 172.255 97.1575 172.322 97.252 172.434C97.3469 172.542 97.3852 172.667 97.3669 172.811C97.3486 172.954 97.2775 173.07 97.1535 173.158C97.034 173.242 96.893 173.274 96.7305 173.254Z" fill="#352F2F"/>
<g clip-path="url(#clip2)">
<rect x="48.6013" y="147.084" width="60.5034" height="8.06711" transform="rotate(7.27131 48.6013 147.084)" fill="#E9E588"/>
<path d="M54.0152 142.896L58.8166 143.508L48.5681 160.092L43.7667 159.48L54.0152 142.896Z" fill="#4F4F4F"/>
<path d="M63.618 144.121L68.4193 144.734L58.1708 161.318L53.3694 160.705L63.618 144.121Z" fill="#4F4F4F"/>
<path d="M73.2206 145.346L78.022 145.959L67.7734 162.543L62.9721 161.93L73.2206 145.346Z" fill="#4F4F4F"/>
<path d="M82.8233 146.572L87.6247 147.184L77.3762 163.768L72.5748 163.155L82.8233 146.572Z" fill="#4F4F4F"/>
<path d="M92.426 147.797L97.2273 148.409L86.9788 164.993L82.1775 164.381L92.426 147.797Z" fill="#4F4F4F"/>
<path d="M102.029 149.022L106.83 149.635L96.5815 166.219L91.7802 165.606L102.029 149.022Z" fill="#4F4F4F"/>
<path d="M111.631 150.247L116.433 150.86L106.184 167.444L101.383 166.831L111.631 150.247Z" fill="#4F4F4F"/>
</g>
<ellipse cx="62.9745" cy="103.522" rx="2.82349" ry="2.42013" fill="#FFBBBB"/>
<path d="M112.184 124.093L115.007 122.48" stroke="#8199F0" stroke-width="0.806711"/>
<path d="M106.94 122.077L109.764 120.463" stroke="#8199F0" stroke-width="0.806711"/>
<path d="M97.2424 111.478L98.4872 108.474" stroke="#8199F0" stroke-width="0.806711"/>
<path d="M101.682 109.801L104.034 107.556" stroke="#8199F0" stroke-width="0.806711"/>
<path d="M104.102 115.448L106.454 113.203" stroke="#8199F0" stroke-width="0.806711"/>
<path d="M106.522 109.801L108.874 107.556" stroke="#8199F0" stroke-width="0.806711"/>
<path d="M109.749 116.255L112.101 114.009" stroke="#8199F0" stroke-width="0.806711"/>
<path d="M111.781 127.724L114.604 126.11" stroke="#8199F0" stroke-width="0.806711"/>
<path d="M120.654 128.53L123.074 127.723" stroke="#8199F0" stroke-width="0.806711"/>
<path d="M118.234 125.303L120.654 124.497" stroke="#8199F0" stroke-width="0.806711"/>
<path d="M117.427 132.564L119.848 131.757" stroke="#8199F0" stroke-width="0.806711"/>
</g>
<defs>
<linearGradient id="paint0_linear" x1="45.5914" y1="25.6969" x2="90.6011" y2="51.4054" gradientUnits="userSpaceOnUse">
<stop stop-color="white" stop-opacity="0.4"/>
<stop offset="1" stop-color="#EDEDED" stop-opacity="0"/>
</linearGradient>
<linearGradient id="paint1_linear" x1="45.5914" y1="25.6969" x2="90.6011" y2="51.4054" gradientUnits="userSpaceOnUse">
<stop stop-color="white" stop-opacity="0.4"/>
<stop offset="1" stop-color="#EDEDED" stop-opacity="0"/>
</linearGradient>
<linearGradient id="paint2_linear" x1="45.5914" y1="25.6969" x2="90.6011" y2="51.4054" gradientUnits="userSpaceOnUse">
<stop stop-color="white" stop-opacity="0.4"/>
<stop offset="1" stop-color="#EDEDED" stop-opacity="0"/>
</linearGradient>
<linearGradient id="paint3_linear" x1="45.5914" y1="25.6969" x2="90.6011" y2="51.4054" gradientUnits="userSpaceOnUse">
<stop stop-color="white" stop-opacity="0.4"/>
<stop offset="1" stop-color="#EDEDED" stop-opacity="0"/>
</linearGradient>
<radialGradient id="paint4_radial" cx="0" cy="0" r="1" gradientUnits="userSpaceOnUse" gradientTransform="translate(120.679 33.3748) rotate(-58.4101) scale(15.0734 12.0587)">
<stop stop-color="white"/>
<stop offset="1" stop-color="#E7E7E7"/>
</radialGradient>
<radialGradient id="paint5_radial" cx="0" cy="0" r="1" gradientUnits="userSpaceOnUse" gradientTransform="translate(148.12 113.089) rotate(44.6752) scale(11.6199 9.29589)">
<stop stop-color="white"/>
<stop offset="1" stop-color="#E7E7E7"/>
</radialGradient>
<radialGradient id="paint6_radial" cx="0" cy="0" r="1" gradientUnits="userSpaceOnUse" gradientTransform="translate(118.272 111.358) rotate(44.6752) scale(11.6199 9.29589)">
<stop stop-color="white"/>
<stop offset="1" stop-color="#E7E7E7"/>
</radialGradient>
<radialGradient id="paint7_radial" cx="0" cy="0" r="1" gradientUnits="userSpaceOnUse" gradientTransform="translate(128.721 116.833) rotate(90) scale(30.2517 30.655)">
<stop stop-color="#76DEF5"/>
<stop offset="1" stop-color="#9AEBFD" stop-opacity="0"/>
</radialGradient>
<linearGradient id="paint8_linear" x1="128.116" y1="107.07" x2="128.116" y2="123.443" gradientUnits="userSpaceOnUse">
<stop stop-color="#8199F0"/>
<stop offset="1" stop-color="#8199F0" stop-opacity="0"/>
</linearGradient>
<radialGradient id="paint9_radial" cx="0" cy="0" r="1" gradientUnits="userSpaceOnUse" gradientTransform="translate(102.1 132.564) rotate(90) scale(44.3691)">
<stop stop-color="#77FFF7"/>
<stop offset="1" stop-color="#78FFF7" stop-opacity="0"/>
</radialGradient>
<clipPath id="clip0">
<rect width="379" height="195" fill="white"/>
</clipPath>
<clipPath id="clip1">
<rect width="27.8315" height="16.3725" fill="white" transform="translate(114.201 107.07)"/>
</clipPath>
<clipPath id="clip2">
<rect width="60.5034" height="8.06711" fill="white" transform="translate(48.6013 147.084) rotate(7.27131)"/>
</clipPath>
</defs>
</svg>
