<svg width="518" height="200" viewBox="0 0 518 200" fill="none" xmlns="http://www.w3.org/2000/svg">
<g clip-path="url(#clip0_1259_395)">
<rect width="518" height="200" fill="white"/>
<path d="M521.673 -7.27808H292.168C279.458 2.88139 269.44 15.1203 265.056 30.7277C258.553 53.8811 270.83 75.1962 283.366 96.9604C290.298 108.996 297.31 121.169 301.268 133.867C304.456 144.093 305.696 154.925 306.923 165.644C308.668 180.892 310.387 195.912 317.65 208.639H521.673V-7.27808Z" fill="#CFC8FF"/>
<rect x="445.286" y="15.3682" width="83.7143" height="138.154" fill="#B1A5FA"/>
<g filter="url(#filter0_f_1259_395)">
<ellipse cx="464.151" cy="166.738" rx="39.7686" ry="3.52976" fill="#434343" fill-opacity="0.2"/>
</g>
<path d="M483.554 125.3L483.438 125.248C490.189 120.352 504.211 107.053 510.875 100.521L511.104 100.296L510.911 100.039C507.496 95.4931 502.141 88.5186 497.175 82.3675C494.692 79.2922 492.304 76.42 490.302 74.1591C488.314 71.9129 486.675 70.2317 485.699 69.5771L485.573 69.4924L485.424 69.5218C485.342 69.5382 485.145 69.5423 484.808 69.4782C484.479 69.4158 484.043 69.2936 483.494 69.0815C482.395 68.6574 480.863 67.8804 478.871 66.5304L478.43 66.2313L478.309 66.7507C476.842 73.0521 471.021 87.274 459.223 96.1315L459.167 96.0596L458.927 95.7492L458.634 96.0098L449.284 104.32L449.028 104.547L449.237 104.818L453.396 110.196C454.009 111.371 454.722 113.309 454.88 115.318C455.027 117.202 454.685 119.096 453.377 120.507C453.307 120.389 453.221 120.282 453.129 120.184C452.916 119.954 452.627 119.727 452.334 119.496L452.318 119.483C451.728 119.018 451.05 118.482 450.516 117.69C450.852 116.75 451.056 115.412 450.886 113.599L450.884 113.584L450.882 113.569C450.846 113.37 450.743 113.109 450.65 112.874L450.638 112.844L450.638 112.844L450.637 112.843C450.637 112.843 450.637 112.843 450.637 112.843C450.542 112.602 450.45 112.367 450.388 112.155C450.844 111.905 451.154 111.42 451.153 110.862L451.152 110.099C451.15 109.007 450.264 108.123 449.172 108.125C448.081 108.127 447.197 109.013 447.199 110.104L447.201 111.427C447.201 111.76 447.381 112.051 447.648 112.21C447.318 113.108 446.945 114.211 446.674 115.205C446.52 115.772 446.397 116.313 446.336 116.766C446.305 116.992 446.288 117.205 446.294 117.393C446.297 117.517 446.31 117.646 446.343 117.767C446.215 118.192 446.262 118.742 446.385 119.211C446.456 119.483 446.56 119.753 446.692 119.988C446.791 120.163 446.914 120.333 447.063 120.467C447.167 121.288 447.63 121.767 448.059 122.213L448.078 122.233C448.281 122.443 448.477 122.647 448.657 122.889C448.694 123.163 448.754 123.411 448.838 123.637C446.949 124.523 445.29 124.887 444.44 124.958L444.038 124.992L444.047 125.041C442.032 125.37 439.957 126.346 438.171 127.933C436.132 129.746 434.838 132.029 434.408 134.269C433.977 136.508 434.408 138.725 435.853 140.35C437.398 142.089 439.749 142.755 442.198 142.453L445.802 142.829L445.894 142.839L445.98 142.803C446.89 142.428 448.246 141.711 449.588 140.708C449.503 140.868 449.422 141.071 449.348 141.257L449.336 141.286L449.336 141.287L449.336 141.287C449.336 141.287 449.336 141.288 449.336 141.288C449.24 141.528 449.145 141.762 449.045 141.959C448.541 141.827 447.984 141.968 447.602 142.374L447.078 142.93C446.33 143.725 446.368 144.976 447.164 145.724L447.415 145.457L447.164 145.724C447.959 146.472 449.209 146.434 449.957 145.639L450.863 144.676C451.092 144.433 451.161 144.098 451.076 143.799C451.932 143.372 452.96 142.827 453.839 142.289C454.34 141.983 454.801 141.674 455.157 141.386C455.334 141.243 455.493 141.099 455.618 140.959C455.7 140.866 455.779 140.764 455.838 140.653C456.223 140.431 456.567 140 456.799 139.574C456.934 139.327 457.044 139.06 457.109 138.798C457.157 138.603 457.184 138.395 457.168 138.195C457.655 137.527 457.648 136.86 457.642 136.241L457.641 136.214C457.638 135.921 457.636 135.639 457.67 135.339C458.069 134.783 458.247 134.263 458.264 133.7C458.28 133.131 458.129 132.544 457.938 131.885C457.697 131.052 457.152 130.483 456.469 130.21C458.533 127.396 461.345 125.375 464.551 126.078C465.69 126.63 466.764 127.484 467.668 128.653L470.988 132.947L471.071 133.054L471.205 133.081L473.949 133.64L474.128 133.676L474.265 133.555L483.128 125.679L483.554 125.3ZM452.316 138.09C452.487 137.869 452.651 137.642 452.804 137.408C452.792 137.552 452.775 137.698 452.751 137.846C452.61 137.917 452.465 137.998 452.316 138.09ZM441.841 136.692L441.586 136.877L441.841 136.692C440.948 135.461 441.181 133.818 442.294 133.011C443.407 132.204 445.04 132.493 445.933 133.724C446.826 134.955 446.594 136.598 445.481 137.405C444.368 138.212 442.734 137.923 441.841 136.692Z" fill="#2AAC89" stroke="black" stroke-width="0.732749"/>
<path d="M449.009 122.749C449.16 124.079 449.829 124.568 451.019 125.269C452.208 125.971 453.472 125.495 454.134 124.374C454.795 123.252 454.367 121.774 453.178 121.073C453.164 120.16 451.267 119.586 450.107 117.734C450.458 116.852 450.698 115.519 450.521 113.633C450.492 113.472 450.4 113.238 450.297 112.979C450.163 112.639 450.011 112.256 449.962 111.933C450.437 111.809 450.787 111.377 450.786 110.863L450.785 110.099C450.784 109.21 450.062 108.49 449.173 108.491C448.284 108.493 447.564 109.215 447.565 110.104L447.567 111.426C447.568 111.728 447.812 111.971 448.113 111.971L448.127 111.971C447.413 113.864 446.374 117.026 446.732 117.767C446.448 118.424 446.808 119.876 447.412 120.277C447.487 121.44 448.348 121.819 449.009 122.749Z" fill="#45D7B0"/>
<path d="M436.515 130.144L427.832 132.74C427.44 133.751 426.46 135.943 425.278 137.758C425.013 137.502 424.719 137.277 424.402 137.087L421.699 135.465C421.207 135.17 420.568 135.386 420.355 135.918C420.224 136.246 420.289 136.62 420.524 136.884C421.801 138.805 422.649 139.832 424.61 141.482C424.95 141.865 425.536 141.899 425.919 141.559C426.058 141.435 426.157 141.272 426.202 141.091L426.653 139.284L426.636 139.264C427.922 137.595 429.555 135.234 429.382 134.485C430.209 134.666 432.559 134.884 435.344 134.307L436.515 130.144Z" fill="#45D7B0"/>
<path d="M446.375 141.24L442.777 149.558C441.728 149.828 439.436 150.544 437.494 151.505C437.718 151.798 437.907 152.116 438.058 152.453L439.351 155.328C439.586 155.851 439.297 156.461 438.743 156.61C438.402 156.702 438.039 156.593 437.804 156.329C435.773 154.73 434.777 153.767 433.717 151.73C433.377 151.348 433.412 150.762 433.794 150.422C433.934 150.298 434.108 150.219 434.293 150.195L436.141 149.96L436.158 149.98C437.967 148.898 440.503 147.553 441.227 147.813C441.144 146.971 441.204 144.612 442.103 141.914L446.375 141.24Z" fill="#45D7B0"/>
<path d="M478.892 125.831L457.327 97.9115C470.644 89.1742 477.101 73.5524 478.666 66.8336C482.684 69.5568 484.893 70 485.495 69.8812C489.21 72.3748 503.792 91.1719 510.618 100.259C503.343 107.39 487.352 122.534 481.589 126.056L478.892 125.831Z" fill="#D5C797"/>
<path fill-rule="evenodd" clip-rule="evenodd" d="M457.327 97.9115L478.892 125.831L481.589 126.056C487.352 122.534 503.343 107.39 510.618 100.259C508.454 99.2848 505.209 99.2787 503.858 99.3975L491.378 83.3869L490.401 84.2551L490.448 82.3402L478.666 66.8336C477.101 73.5524 470.644 89.1742 457.327 97.9115Z" fill="#C7B883"/>
<path d="M491.378 83.3869L503.858 99.3975C505.209 99.2787 508.454 99.2848 510.618 100.259C503.792 91.1719 489.21 72.3748 485.495 69.8812C484.893 70 482.684 69.5568 478.666 66.8336L490.448 82.3402L490.401 84.2551L491.378 83.3869Z" fill="#DECF9B"/>
<path fill-rule="evenodd" clip-rule="evenodd" d="M478.892 125.831L457.327 97.9115C470.644 89.1742 477.101 73.5524 478.666 66.8336L490.448 82.3402L490.401 84.2551L491.378 83.3869L503.858 99.3975C501.798 105.624 486.355 119.614 478.892 125.831Z" fill="#DECF9B"/>
<path fill-rule="evenodd" clip-rule="evenodd" d="M485.495 69.8812C489.21 72.3748 503.792 91.1719 510.618 100.259C508.454 99.2848 505.209 99.2787 503.858 99.3975L491.378 83.3869L490.401 84.2551L490.448 82.3402L478.666 66.8336C482.684 69.5568 484.893 70 485.495 69.8812Z" fill="#F2DF9A"/>
<path d="M490.461 102.311C494.177 98.5095 496.755 92.763 497.579 90.365L499.502 92.5282C498.248 96.7393 492.952 100.805 490.461 102.311Z" fill="#F2DF9A"/>
<path d="M478.532 83.6878C482.142 79.8801 483.365 74.2301 483.526 71.8811L485.2 73.7652C483.637 79.6508 480.103 82.8326 478.532 83.6878Z" fill="#F2DF9A"/>
<path fill-rule="evenodd" clip-rule="evenodd" d="M480.628 124.413L458.878 96.2837L449.527 104.593L453.705 109.997C454.974 112.408 456.672 118.002 453.316 121.084C449.961 124.166 446.021 125.194 444.47 125.323L444.475 125.35C442.421 125.603 440.262 126.565 438.415 128.207C434.445 131.734 433.421 137.062 436.127 140.107C437.582 141.744 439.82 142.388 442.195 142.084L445.84 142.465C447.851 141.635 452.177 139.055 453.4 135.372C454.928 130.768 459.181 124.489 464.672 125.729C465.878 126.306 467.01 127.203 467.958 128.429L471.278 132.722L474.022 133.281L482.884 125.405L480.628 124.413ZM441.545 136.907C442.544 138.284 444.402 138.64 445.696 137.702C446.99 136.763 447.229 134.886 446.23 133.509C445.231 132.131 443.373 131.776 442.079 132.714C440.785 133.652 440.546 135.53 441.545 136.907Z" fill="#45D7B0"/>
<path fill-rule="evenodd" clip-rule="evenodd" d="M458.878 96.2837L480.628 124.413L471.278 132.722L467.958 128.429C465.096 124.728 460.549 124.023 457.386 126.085C454.929 127.686 452.531 132.092 451.554 134.274C450.97 136.042 449.838 137.788 448.213 139.232C444.243 142.76 438.832 143.151 436.127 140.107C433.421 137.062 434.445 131.734 438.415 128.207C440.262 126.565 442.421 125.603 444.475 125.35L444.47 125.323C446.021 125.194 449.961 124.166 453.316 121.084C456.672 118.002 454.974 112.408 453.705 109.997L449.527 104.593L458.878 96.2837ZM439.467 136.256C440.466 137.633 442.325 137.989 443.619 137.05C444.912 136.112 445.151 134.235 444.153 132.857C443.154 131.48 441.295 131.124 440.001 132.063C438.707 133.001 438.468 134.878 439.467 136.256Z" fill="#2AAC89"/>
<path d="M468.307 126.555C469.556 128.676 472.342 129.32 474.516 128.04C476.69 126.759 477.477 124.011 476.228 121.89C474.978 119.768 472.193 119.125 470.019 120.405C467.845 121.685 467.057 124.433 468.307 126.555Z" fill="url(#paint0_radial_1259_395)" stroke="#1D1D1D" stroke-width="0.808339"/>
<path d="M454.159 107.655C455.409 109.777 458.194 110.42 460.368 109.14C462.542 107.86 463.33 105.112 462.08 102.99C460.831 100.869 458.046 100.225 455.872 101.505C453.698 102.786 452.91 105.534 454.159 107.655Z" fill="url(#paint1_radial_1259_395)" stroke="#1D1D1D" stroke-width="0.808339"/>
<circle cx="472.618" cy="125.149" r="2.21577" transform="rotate(39.6448 472.618 125.149)" fill="#636363"/>
<circle cx="457.846" cy="105.9" r="2.21577" transform="rotate(39.6448 457.846 105.9)" fill="#636363"/>
<path d="M487.134 116.998C487.134 118.18 486.175 119.139 484.993 119.139C483.81 119.139 482.851 118.18 482.851 116.998C482.851 116.608 482.955 116.242 483.138 115.927C483.508 115.287 484.2 114.856 484.993 114.856C486.081 114.856 486.979 115.668 487.116 116.719C487.128 116.81 487.134 116.903 487.134 116.998Z" fill="#91BBE1"/>
<path d="M484.993 114.856C486.081 114.856 486.979 115.668 487.116 116.719L486.731 110.745C486.695 110.194 485.952 110.051 485.713 110.548L483.138 115.927C483.508 115.287 484.2 114.856 484.993 114.856Z" fill="#91BBE1"/>
<path d="M483.466 109.793C483.466 110.406 482.969 110.903 482.355 110.903C481.742 110.903 481.245 110.406 481.245 109.793C481.245 109.591 481.299 109.401 481.393 109.238C481.585 108.906 481.944 108.682 482.355 108.682C482.92 108.682 483.386 109.103 483.456 109.648C483.463 109.696 483.466 109.744 483.466 109.793Z" fill="#91BBE1"/>
<path d="M482.355 108.682C482.92 108.682 483.386 109.103 483.456 109.648L483.257 106.55C483.238 106.265 482.853 106.19 482.729 106.448L481.393 109.238C481.585 108.906 481.944 108.682 482.355 108.682Z" fill="#91BBE1"/>
<path d="M477.497 127.17C476.962 125.028 476.373 119.514 478.3 114.588" stroke="black" stroke-width="1.07074" stroke-linecap="round"/>
<path d="M466.763 102.831C464.556 102.793 459.078 101.933 454.82 98.7949" stroke="black" stroke-width="1.07074" stroke-linecap="round"/>
<rect x="360.468" y="-8.25513" width="88.4184" height="185.63" fill="#CFC8FF"/>
<rect x="330.181" y="-8.25513" width="216.405" height="30.7755" fill="#CFC8FF"/>
<path d="M457.319 135.199C458.122 134.128 457.97 133.313 457.586 131.987C457.203 130.66 455.957 130.139 454.706 130.501C453.455 130.863 452.752 132.231 453.136 133.558C452.52 134.231 453.505 135.95 453.078 138.093C452.218 138.495 451.128 139.299 449.963 140.792C449.873 140.929 449.78 141.163 449.677 141.422C449.541 141.761 449.389 142.144 449.203 142.412C448.772 142.176 448.221 142.251 447.869 142.625L447.345 143.181C446.736 143.829 446.767 144.848 447.415 145.457C448.062 146.066 449.081 146.035 449.691 145.388L450.597 144.424C450.803 144.205 450.793 143.86 450.573 143.653L450.563 143.644C452.382 142.756 455.307 141.17 455.556 140.386C456.213 140.103 456.948 138.8 456.783 138.093C457.528 137.196 457.161 136.329 457.319 135.199Z" fill="#2AAC89"/>
<rect x="308.198" y="175.42" width="140.688" height="1.4655" fill="url(#paint2_linear_1259_395)"/>
<g opacity="0.7">
<rect opacity="0.4" x="364.864" y="30.3364" width="63.9934" height="93.7919" fill="white"/>
<rect opacity="0.67" x="370.238" y="35.2212" width="53.2464" height="84.0219" fill="white"/>
</g>
<g opacity="0.7">
<rect opacity="0.78" x="280.842" y="30.3364" width="63.9934" height="39.5685" fill="white"/>
<rect opacity="0.78" x="286.216" y="35.2212" width="53.2464" height="29.7985" fill="white"/>
</g>
<g opacity="0.7">
<rect opacity="0.67" x="296.474" y="90.4219" width="43.965" height="39.5685" fill="url(#paint3_linear_1259_395)"/>
<rect opacity="0.8" x="299.894" y="94.8181" width="37.126" height="30.7755" fill="url(#paint4_linear_1259_395)"/>
</g>
<g filter="url(#filter1_f_1259_395)">
<ellipse cx="388.988" cy="189.33" rx="41.3541" ry="3.31718" fill="#434343" fill-opacity="0.2"/>
</g>
<path d="M372.372 150.268L366.547 160.43L355.642 155.844H350.881C349.804 155.844 349.039 156.894 349.369 157.92C349.622 158.708 350.438 159.169 351.243 158.98L355.642 157.951C358.12 158.571 363.145 161.422 366.547 163.528C368.347 164.642 368.784 162.971 369.209 161.343C369.4 160.616 369.587 159.897 369.893 159.438C370.687 158.249 372.868 155.225 373.859 153.862L372.372 150.268Z" fill="#7C7C7C"/>
<path d="M376.338 177.16L381.171 170.592L385.137 173.814C381.964 174.112 379.601 176.169 378.816 177.16C379.808 177.16 381.171 180.754 381.171 181.746C381.171 182.737 381.791 184.472 383.03 186.207C384.269 187.942 381.915 187.818 378.816 188.066C375.718 188.314 373.364 187.075 374.479 186.207C375.594 185.34 380.18 186.455 380.18 183.605C380.18 181.324 377.618 178.358 376.338 177.16Z" fill="#7C7C7C"/>
<path d="M419.714 106.392C419.515 107.086 419.297 107.768 419.06 108.438C418.087 111.452 416.844 115.176 415.453 119.161H404.965L414.233 122.612C410.748 132.352 406.619 142.842 403.478 148.037C402.773 149.203 402.274 150.479 401.96 151.814L394.06 152.622L401.593 154.248C401.406 156.809 401.807 159.471 402.663 161.917C405.307 169.476 412.294 174.979 419.714 169.104C416.822 173.896 408.435 182.588 398.025 179.019C396.602 178.531 395.049 178.16 393.431 177.773C383.51 175.403 371.138 172.446 371.034 138.297L375.346 138.99L371.056 135.245C371.211 126.287 372.152 115.341 374.107 101.935C374.154 100.129 374.775 98.4496 375.419 96.705C375.742 95.8305 376.071 94.9397 376.337 94.0085C376.81 92.3491 377.398 90.7606 378.085 89.2532L385.756 91.4011L380.007 85.6516C385.917 76.0847 396.119 70.9156 405.612 73.6256C417.59 77.045 423.904 91.7148 419.714 106.392Z" fill="#EAEAEA"/>
<path fill-rule="evenodd" clip-rule="evenodd" d="M413.452 107.818C413.831 107.851 414.111 108.185 414.078 108.563C413.657 113.406 410.485 116.218 408.874 117.047C408.536 117.221 408.121 117.088 407.948 116.75C407.774 116.412 407.907 115.997 408.245 115.823C409.525 115.165 412.335 112.723 412.707 108.444C412.74 108.066 413.074 107.785 413.452 107.818Z" fill="#CFCFCF"/>
<path fill-rule="evenodd" clip-rule="evenodd" d="M402.13 116.699C401.984 117.05 401.582 117.216 401.231 117.07C398.968 116.128 397.782 114.8 397.147 113.446C396.649 112.386 396.502 111.311 396.4 110.563C396.376 110.392 396.355 110.238 396.333 110.105C396.269 109.73 396.522 109.375 396.896 109.312C397.271 109.249 397.626 109.501 397.689 109.876C397.721 110.064 397.748 110.259 397.776 110.458C397.88 111.199 397.993 112.012 398.393 112.862C398.875 113.89 399.797 114.982 401.76 115.8C402.111 115.946 402.276 116.349 402.13 116.699Z" fill="#CFCFCF"/>
<path fill-rule="evenodd" clip-rule="evenodd" d="M384.149 111.793C384.253 112.159 384.042 112.539 383.676 112.643C381.319 113.315 379.564 113.013 378.224 112.35C377.175 111.83 376.39 111.08 375.844 110.559C375.719 110.439 375.607 110.332 375.507 110.242C375.224 109.988 375.2 109.553 375.454 109.27C375.708 108.988 376.143 108.964 376.426 109.218C376.568 109.346 376.71 109.481 376.856 109.619C377.399 110.135 377.993 110.7 378.835 111.117C379.853 111.621 381.254 111.902 383.299 111.32C383.665 111.216 384.045 111.428 384.149 111.793Z" fill="#CFCFCF"/>
<path d="M410.899 108.628C410.168 112.793 406.875 115.697 403.542 115.112C400.209 114.528 398.1 110.677 398.831 106.511C399.561 102.345 402.855 99.442 406.188 100.026C409.52 100.611 411.63 104.462 410.899 108.628Z" fill="url(#paint5_radial_1259_395)"/>
<path fill-rule="evenodd" clip-rule="evenodd" d="M411.392 108.714C410.633 113.044 407.157 116.255 403.455 115.605C399.753 114.956 397.578 110.754 398.337 106.425C399.096 102.095 402.572 98.8839 406.274 99.5332C409.976 100.182 412.151 104.384 411.392 108.714ZM403.542 115.112C406.874 115.697 410.168 112.793 410.899 108.628C411.629 104.462 409.52 100.611 406.187 100.026C402.855 99.442 399.561 102.345 398.83 106.511C398.1 110.677 400.209 114.528 403.542 115.112Z" fill="#1D1D1D"/>
<path d="M410.397 107.536C410.721 109.389 409.481 111.154 407.628 111.478C405.775 111.802 404.01 110.562 403.686 108.709C403.362 106.855 404.602 105.09 406.455 104.766C408.308 104.443 410.073 105.682 410.397 107.536Z" fill="#636363"/>
<path d="M388.096 103.423C387.366 107.588 384.072 110.492 380.739 109.907C377.406 109.323 375.297 105.472 376.028 101.306C376.758 97.1405 380.052 94.2372 383.385 94.8217C386.717 95.4061 388.827 99.2569 388.096 103.423Z" fill="url(#paint6_radial_1259_395)"/>
<path fill-rule="evenodd" clip-rule="evenodd" d="M388.589 103.509C387.83 107.839 384.355 111.05 380.653 110.401C376.95 109.751 374.775 105.55 375.534 101.22C376.294 96.8899 379.769 93.6791 383.471 94.3283C387.173 94.9776 389.349 99.1794 388.589 103.509ZM380.739 109.907C384.072 110.492 387.366 107.588 388.096 103.423C388.827 99.2569 386.717 95.4061 383.385 94.8216C380.052 94.2372 376.758 97.1404 376.028 101.306C375.297 105.472 377.406 109.323 380.739 109.907Z" fill="#1D1D1D"/>
<path d="M384.751 105.663C385.075 107.516 383.835 109.281 381.982 109.605C380.129 109.929 378.364 108.689 378.04 106.836C377.716 104.982 378.956 103.217 380.809 102.894C382.662 102.57 384.427 103.81 384.751 105.663Z" fill="#636363"/>
<path fill-rule="evenodd" clip-rule="evenodd" d="M419.714 106.392C419.516 107.087 419.297 107.769 419.06 108.438C419.294 107.713 419.513 107.029 419.714 106.392ZM419.714 169.105C421.098 166.681 423.295 160.484 422.803 152.704L419.465 151.383L422.47 149.615C422.39 149.094 422.298 148.568 422.192 148.037C420.21 138.123 422.605 131.017 424.05 128.704C420.167 132.463 412.525 142.138 413.021 150.763C413.295 155.534 411.216 158.402 408.685 160.033L409.799 163.032L406.552 161.105C405.14 161.644 403.747 161.88 402.663 161.917C405.307 169.476 412.294 174.979 419.714 169.105Z" fill="#9F9F9F"/>
<path fill-rule="evenodd" clip-rule="evenodd" d="M419.714 106.392C419.516 107.087 419.298 107.769 419.06 108.438C419.295 107.713 419.513 107.029 419.714 106.392ZM419.714 169.105C421.099 166.681 423.295 160.484 422.803 152.704L419.465 151.383L422.47 149.616C422.39 149.094 422.298 148.568 422.192 148.037C420.21 138.122 422.605 131.017 424.051 128.704C420.168 132.463 412.525 142.138 413.021 150.763C413.295 155.534 411.217 158.402 408.685 160.033L409.799 163.032L406.552 161.105C405.14 161.644 403.747 161.88 402.663 161.917C405.307 169.476 412.295 174.979 419.714 169.105Z" fill="#CFCFCF"/>
<path d="M390.59 105.529C385.502 117.87 380.887 137.114 385.252 158.965C385.471 160.059 386.747 159.817 386.641 158.706C384.843 139.764 385.036 120.489 392.944 106.149C396.535 99.6377 402.239 78.141 408.188 59.6756C412.002 47.8364 410.18 36.7985 408.286 30.2238C407.841 28.681 405.803 28.5779 405.102 30.0226L401.676 37.0906C401.285 37.8952 401.52 38.9016 401.972 39.6735C403.099 41.6019 404.373 45.7647 404.222 53.2313C403.974 65.5002 398.707 85.841 390.59 105.529Z" fill="#4F4F4F"/>
<path d="M403.012 42.1304C403.014 42.1309 403.016 42.1313 403.019 42.1318C403.511 42.2302 404.016 42.4174 404.521 42.6042C405.656 43.0244 406.784 43.4423 407.74 42.8408C408.703 42.2348 408.812 41.0224 408.922 39.807C408.969 39.2839 409.016 38.7603 409.131 38.2843C409.219 37.924 409.334 37.566 409.449 37.2093C409.534 36.948 409.618 36.6874 409.69 36.427C410.752 42.7947 410.976 51.0211 408.188 59.6757C406.255 65.6759 404.348 71.9962 402.53 78.0183C398.755 90.5292 395.368 101.754 392.944 106.149C384.401 121.641 384.862 142.893 387.11 163.262C387.176 163.861 386.411 164.013 386.263 163.429C380.265 139.746 385.158 118.704 390.59 105.529C398.707 85.8411 403.974 65.5003 404.222 53.2314C404.327 48.0702 403.75 44.4876 403.012 42.1304Z" fill="white"/>
<path d="M404.841 178.771L400.917 173.438C400.422 172.766 399.466 172.644 398.818 173.17C397.802 173.995 398.283 175.853 399.442 176.462C400.867 177.211 401.895 178.181 402.363 178.771C401.371 178.771 400.008 182.365 400.008 183.357C400.008 184.348 399.388 186.083 398.149 187.818C396.91 189.553 399.264 189.429 402.363 189.677C405.461 189.925 407.815 188.686 406.7 187.818C405.585 186.951 400.999 188.066 400.999 185.216C400.999 182.935 403.56 179.969 404.841 178.771Z" fill="#7C7C7C"/>
<path d="M402.142 146.505C400.991 146.978 400.886 148.566 401.964 149.188L409.469 153.514L402.738 164.761L403.974 166.998C403.971 168.075 405.019 168.843 406.046 168.516C406.834 168.265 407.298 167.45 407.111 166.644L404.845 164.767C405.471 162.289 410.452 156.918 412.567 153.521C413.685 151.725 412.016 151.284 410.388 150.854C409.662 150.662 408.944 150.472 408.485 150.165C407.468 149.483 405.107 147.779 403.595 146.68C403.174 146.373 402.624 146.307 402.142 146.505V146.505Z" fill="#7C7C7C"/>
<path fill-rule="evenodd" clip-rule="evenodd" d="M389.633 101.307L365.689 92.2246C364.313 101.307 369.713 110.569 378.36 112.614C383.449 113.818 388.482 110.417 389.262 105.245L389.632 102.797C390.199 102.516 391.08 102.263 392.053 102.346C393.067 102.432 394.215 102.885 395.246 104.13L394.732 106.934C393.791 112.079 397.445 116.93 402.65 117.445C411.492 118.32 420.493 111.945 422.328 102.797L396.181 103.105C394.938 101.678 393.501 101.088 392.169 100.975C391.219 100.894 390.338 101.057 389.633 101.307ZM368.111 96.1068L368.102 96.1834C367.287 103.168 371.833 109.656 378.677 111.275C382.983 112.294 387.241 109.416 387.902 105.04L388.31 102.338L368.111 96.1068ZM417.706 105.163L417.689 105.238C416.19 112.109 409.783 116.768 402.785 116.076C398.381 115.64 395.289 111.535 396.086 107.182L396.578 104.494L417.706 105.163Z" fill="#D63131"/>
<path d="M419.806 89.9317C411.734 84.9787 410.633 79.0014 411.092 76.6319L411.963 76.1963C412.595 75.8804 413.348 76.3713 413.429 77.073C413.966 81.7343 417.973 85.5276 420.781 87.4208C421.303 87.7727 421.38 88.5324 420.91 88.9506L419.806 89.9317Z" fill="#DBC75C"/>
<path d="M412.475 75.8418C412.108 81.8955 417.978 86.7722 420.959 88.4537C422.106 91.2054 431.736 93.9571 431.966 88.4537C432.195 82.9504 423.711 77.9056 421.876 75.8418C420.042 73.7781 421.876 68.7333 416.373 67.3574C411.97 66.2568 411.94 72.5551 412.475 75.8418Z" fill="#FFE767"/>
<path d="M425.309 74.1094L420.952 77.0904L421.64 77.7783L426.685 77.0904L425.309 74.1094Z" fill="#DBC75C"/>
<path d="M349.933 144.323C349.887 143.839 350.226 143.403 350.707 143.329L351.262 143.243C351.742 143.169 352.197 143.483 352.298 143.958L356.933 165.636C357.048 166.177 356.975 166.74 356.727 167.233C356.018 168.637 354.181 169.004 352.988 167.98L352.895 167.901C352.401 167.477 352.091 166.878 352.029 166.23L349.933 144.323Z" fill="#C7B883"/>
<rect x="349.408" y="141.566" width="2.75169" height="3.66892" transform="rotate(-9 349.408 141.566)" fill="#EAEAEA"/>
<path d="M349.867 142.443C353.413 142.443 356.288 139.568 356.288 136.022C356.18 135.285 356.043 134.528 355.879 133.763C353.943 124.769 348.068 114.436 337.714 116.761C328.725 118.779 331.064 126.162 333.357 129.602C332.134 127.615 331.293 123.319 337.714 122.035C343.548 120.868 344.144 129.08 343.63 134.49C343.579 135.033 343.516 135.548 343.446 136.022C343.446 139.568 346.321 142.443 349.867 142.443Z" fill="#F2EEC7"/>
<mask id="path-60-outside-1_1259_395" maskUnits="userSpaceOnUse" x="329.805" y="28" width="104" height="163" fill="black">
<rect fill="white" x="329.805" y="28" width="104" height="163"/>
<path fill-rule="evenodd" clip-rule="evenodd" d="M401.271 72.9248C393.129 72.5799 385.021 77.5318 380.005 85.6518L385.755 91.4013L378.083 89.2534C377.396 90.7608 376.808 92.3493 376.335 94.0087C376.139 94.6948 375.909 95.359 375.672 96.011L365.69 92.2246C364.628 99.2346 367.602 106.352 372.991 110.175C371.785 119.916 371.176 128.196 371.054 135.245L375.345 138.99L371.032 138.297C371.047 143.241 371.319 147.531 371.804 151.26L366.548 160.43L355.642 155.844H354.84L352.478 144.795L352.701 144.76L352.261 141.982C354.621 141.033 356.288 138.722 356.288 136.022C356.18 135.285 356.044 134.528 355.879 133.763C353.944 124.769 348.069 114.436 337.714 116.761C330.127 118.464 329.807 123.851 331.948 127.675C332.092 127.932 332.59 127.659 332.55 127.367C332.273 125.334 333.195 122.938 337.714 122.035C343.549 120.868 344.144 129.08 343.631 134.49C343.579 135.033 343.517 135.548 343.447 136.022C343.447 139.461 346.15 142.268 349.546 142.435L349.983 145.19L350.016 145.185L351.036 155.844H350.882C349.805 155.844 349.039 156.894 349.369 157.92C349.622 158.708 350.438 159.169 351.244 158.981L351.334 158.96L352.029 166.23C352.091 166.878 352.402 167.477 352.896 167.9L352.988 167.98C354.182 169.004 356.019 168.637 356.727 167.233C356.976 166.74 357.049 166.177 356.933 165.636L355.307 158.03L355.642 157.951C358.121 158.571 363.146 161.422 366.548 163.528C368.347 164.642 368.784 162.972 369.21 161.343C369.4 160.616 369.588 159.897 369.894 159.438C370.416 158.655 371.54 157.077 372.53 155.701C374.154 163.792 376.962 168.692 380.279 171.806L376.338 177.16C377.619 178.358 380.18 181.324 380.18 183.605C380.18 185.477 378.201 185.638 376.527 185.774C375.653 185.845 374.862 185.909 374.479 186.207C373.364 187.075 375.719 188.314 378.817 188.066C379.23 188.033 379.629 188.007 380.009 187.981L380.01 187.981C382.479 187.818 384.105 187.711 383.031 186.207C381.791 184.472 381.172 182.737 381.172 181.746C381.172 180.754 379.808 177.16 378.817 177.16C379.449 176.361 381.106 174.871 383.386 174.166C386.65 176.154 390.172 176.995 393.429 177.773L393.431 177.774C395.048 178.16 396.6 178.531 398.023 179.019C399.139 179.402 400.232 179.643 401.297 179.764C400.606 180.904 400.009 182.7 400.009 183.357C400.009 184.348 399.389 186.083 398.15 187.818C397.076 189.322 398.701 189.429 401.17 189.592L401.171 189.592C401.551 189.618 401.951 189.644 402.363 189.677C405.462 189.925 407.816 188.686 406.701 187.818C406.318 187.521 405.528 187.456 404.654 187.385C402.979 187.249 401 187.088 401 185.216C401 183.452 402.531 181.279 403.818 179.831C411.472 179.368 417.375 172.974 419.709 169.109L419.715 169.105C421.099 166.681 423.296 160.484 422.803 152.704L419.466 151.383L422.47 149.616C422.391 149.095 422.298 148.568 422.192 148.037C420.21 138.123 422.606 131.017 424.051 128.704C420.168 132.463 412.526 142.138 413.022 150.763C413.296 155.534 411.217 158.402 408.685 160.033L409.799 163.032L406.825 161.266C407.55 160.254 408.395 159.164 409.236 158.079L409.237 158.078C410.497 156.451 411.748 154.838 412.567 153.521C413.686 151.725 412.016 151.284 410.389 150.854C409.662 150.662 408.944 150.472 408.486 150.165C407.569 149.55 405.56 148.106 404.066 147.021C407.122 141.556 410.96 131.754 414.231 122.612L404.964 119.161H415.451C416.462 116.264 417.396 113.504 418.204 111.055C420.225 108.749 421.699 105.936 422.329 102.797L420.528 102.818C421.316 98.2411 421.111 93.7547 420.061 89.7051L420.91 88.9504C420.987 88.8821 421.049 88.8047 421.097 88.7214C422.721 91.3754 431.744 93.7787 431.966 88.4538C432.14 84.2826 427.308 80.3748 424.16 77.8288C424.017 77.7135 423.878 77.6011 423.743 77.4915L426.686 77.0903L425.31 74.1093L422.239 76.2106C422.099 76.0789 421.978 75.9559 421.877 75.8419C421.244 75.1303 421.048 74.0641 420.836 72.9162C420.435 70.7352 419.979 68.259 416.373 67.3576C411.971 66.2569 411.94 72.5552 412.475 75.8419C412.47 75.929 412.466 76.0159 412.463 76.1025C412.298 76.0869 412.127 76.1147 411.964 76.1961L411.441 76.4578C409.695 75.1996 407.742 74.2344 405.61 73.6258C405.067 73.4708 404.522 73.3417 403.976 73.2376C405.349 68.7083 406.761 64.1047 408.188 59.6756C410.976 51.021 410.753 42.7946 409.691 36.4269L409.691 36.4276C409.3 34.0842 408.795 31.9925 408.286 30.2238C407.841 28.681 405.803 28.5779 405.103 30.0226L401.676 37.0906C401.286 37.8952 401.521 38.9016 401.972 39.6735C403.099 41.6019 404.373 45.7647 404.222 53.2313C404.116 58.5262 403.074 65.3244 401.271 72.9248ZM374.881 98.1953C374.464 99.424 374.139 100.648 374.105 101.935C373.771 104.227 373.466 106.447 373.19 108.597C369.577 105.693 367.534 101.059 368.103 96.1834L368.112 96.1068L374.881 98.1953ZM402.679 149.6C402.376 150.312 402.137 151.054 401.958 151.814L394.058 152.622L401.591 154.249C401.404 156.809 401.805 159.471 402.661 161.917C403.23 161.897 403.885 161.823 404.583 161.678L409.469 153.514L402.679 149.6Z"/>
</mask>
<path d="M422.668 147.941C420.71 138.145 423.086 131.173 424.458 128.97L423.629 128.453C422.11 130.892 419.709 138.121 421.71 148.132L422.668 147.941ZM393.44 178.264C395.016 178.65 396.504 179.014 397.868 179.481L398.185 178.557C396.771 178.072 395.239 177.698 393.672 177.315L393.44 178.264ZM376.132 96.1792C376.363 95.5466 376.595 94.8817 376.8 94.1671L375.861 93.8977C375.666 94.5795 375.443 95.2193 375.214 95.8434L376.132 96.1792ZM355.422 133.935C355.666 134.583 355.8 135.287 355.8 136.022H356.777C356.777 135.167 356.621 134.348 356.336 133.591L355.422 133.935ZM343.935 136.022C343.935 135.534 343.994 135.059 344.105 134.606L343.157 134.373C343.027 134.902 342.958 135.455 342.958 136.022H343.935ZM380.005 85.6518L379.174 85.1383L378.768 85.796L379.314 86.3427L380.005 85.6518ZM401.271 72.9248L401.23 73.9009L402.036 73.9351L402.222 73.1503L401.271 72.9248ZM385.755 91.4013L385.491 92.3422L389.083 93.3478L386.445 90.7105L385.755 91.4013ZM378.083 89.2534L378.347 88.3126L377.541 88.0871L377.194 88.8481L378.083 89.2534ZM376.335 94.0087L375.395 93.7405L375.395 93.7405L376.335 94.0087ZM375.672 96.011L375.325 96.9245L376.252 97.2759L376.59 96.3445L375.672 96.011ZM365.69 92.2246L366.036 91.3111L364.905 90.882L364.724 92.0783L365.69 92.2246ZM372.991 110.175L373.961 110.295L374.033 109.716L373.557 109.378L372.991 110.175ZM371.054 135.245L370.078 135.228L370.07 135.682L370.412 135.981L371.054 135.245ZM375.345 138.99L375.189 139.955L378.554 140.495L375.987 138.254L375.345 138.99ZM371.032 138.297L371.187 137.332L370.052 137.15L370.055 138.3L371.032 138.297ZM371.804 151.26L372.651 151.746L372.815 151.46L372.773 151.134L371.804 151.26ZM366.548 160.43L366.169 161.33L366.966 161.665L367.396 160.916L366.548 160.43ZM355.642 155.844L356.021 154.944L355.839 154.867H355.642V155.844ZM354.84 155.844L353.884 156.049L354.05 156.821H354.84V155.844ZM352.478 144.795L352.325 143.83L351.307 143.991L351.522 144.999L352.478 144.795ZM352.701 144.76L352.853 145.725L353.818 145.572L353.666 144.607L352.701 144.76ZM352.261 141.982L351.896 141.076L351.174 141.366L351.296 142.135L352.261 141.982ZM356.288 136.022H357.265V135.951L357.255 135.881L356.288 136.022ZM355.879 133.763L356.834 133.557L356.834 133.557L355.879 133.763ZM337.714 116.761L337.5 115.807L337.5 115.807L337.714 116.761ZM337.714 122.035L337.906 122.993L337.906 122.993L337.714 122.035ZM343.631 134.49L344.604 134.582L344.604 134.582L343.631 134.49ZM343.447 136.022L342.48 135.88L342.47 135.951V136.022H343.447ZM349.546 142.435L350.511 142.282L350.387 141.498L349.594 141.459L349.546 142.435ZM349.983 145.19L349.018 145.343L349.171 146.308L350.136 146.155L349.983 145.19ZM350.016 145.185L350.989 145.092L350.89 144.057L349.864 144.22L350.016 145.185ZM351.036 155.844V156.821H352.111L352.008 155.751L351.036 155.844ZM349.369 157.92L350.299 157.621L350.299 157.621L349.369 157.92ZM351.244 158.981L351.021 158.029L351.021 158.029L351.244 158.981ZM351.334 158.96L352.306 158.867L352.2 157.754L351.111 158.008L351.334 158.96ZM352.029 166.23L351.057 166.323L351.057 166.323L352.029 166.23ZM352.896 167.9L353.532 167.159L353.532 167.159L352.896 167.9ZM352.988 167.98L352.352 168.721L352.352 168.722L352.988 167.98ZM356.727 167.233L357.599 167.673L357.599 167.673L356.727 167.233ZM356.933 165.636L355.978 165.841L355.978 165.841L356.933 165.636ZM355.307 158.03L355.084 157.078L354.151 157.297L354.352 158.234L355.307 158.03ZM355.642 157.951L355.879 157.003L355.65 156.946L355.42 157L355.642 157.951ZM366.548 163.528L367.062 162.697L367.062 162.697L366.548 163.528ZM369.21 161.343L368.265 161.096L368.265 161.096L369.21 161.343ZM369.894 159.438L369.081 158.896L369.081 158.896L369.894 159.438ZM372.53 155.701L373.488 155.509L373.046 153.31L371.737 155.13L372.53 155.701ZM380.279 171.806L381.065 172.385L381.579 171.687L380.947 171.093L380.279 171.806ZM376.338 177.16L375.552 176.581L375.037 177.28L375.671 177.874L376.338 177.16ZM376.527 185.774L376.448 184.8L376.448 184.8L376.527 185.774ZM374.479 186.207L375.079 186.978L375.079 186.978L374.479 186.207ZM378.817 188.066L378.895 189.04L378.895 189.04L378.817 188.066ZM380.009 187.981L380.073 188.956L380.083 188.956L380.093 188.955L380.009 187.981ZM380.01 187.981L379.946 187.006L379.936 187.007L379.926 187.008L380.01 187.981ZM383.031 186.207L382.236 186.775L382.236 186.775L383.031 186.207ZM378.817 177.16L378.051 176.554L376.797 178.137H378.817V177.16ZM383.386 174.166L383.894 173.331L383.518 173.103L383.097 173.233L383.386 174.166ZM393.429 177.773L393.667 176.826L393.656 176.823L393.429 177.773ZM393.431 177.774L393.193 178.721L393.204 178.724L393.431 177.774ZM398.023 179.019L398.34 178.095L398.34 178.095L398.023 179.019ZM401.297 179.764L402.133 180.271L402.925 178.965L401.407 178.793L401.297 179.764ZM398.15 187.818L397.355 187.25L397.355 187.25L398.15 187.818ZM401.17 189.592L401.246 188.618L401.235 188.618L401.17 189.592ZM401.171 189.592L401.096 190.567L401.107 190.567L401.171 189.592ZM402.363 189.677L402.285 190.651L402.285 190.651L402.363 189.677ZM406.701 187.818L406.101 188.589L406.101 188.589L406.701 187.818ZM404.654 187.385L404.733 186.411L404.733 186.411L404.654 187.385ZM403.818 179.831L403.759 178.855L403.356 178.88L403.087 179.182L403.818 179.831ZM419.709 169.109L419.104 168.342L418.965 168.452L418.873 168.604L419.709 169.109ZM419.715 169.105L420.32 169.872L420.469 169.754L420.563 169.589L419.715 169.105ZM422.803 152.704L423.778 152.642L423.739 152.024L423.163 151.796L422.803 152.704ZM419.466 151.383L418.971 150.541L417.246 151.555L419.106 152.291L419.466 151.383ZM422.47 149.616L422.966 150.458L423.536 150.122L423.436 149.468L422.47 149.616ZM422.192 148.037L421.234 148.228L421.234 148.228L422.192 148.037ZM424.051 128.704L424.88 129.222L423.372 128.002L424.051 128.704ZM413.022 150.763L413.997 150.707L413.997 150.707L413.022 150.763ZM408.685 160.033L408.156 159.212L407.496 159.637L407.77 160.373L408.685 160.033ZM409.799 163.032L409.301 163.872L411.678 165.284L410.715 162.692L409.799 163.032ZM406.825 161.266L406.031 160.698L405.411 161.563L406.327 162.107L406.825 161.266ZM409.236 158.079L410.008 158.677L410.009 158.677L409.236 158.079ZM409.237 158.078L408.465 157.479L408.465 157.479L409.237 158.078ZM412.567 153.521L411.738 153.005L411.738 153.005L412.567 153.521ZM410.389 150.854L410.139 151.798L410.139 151.798L410.389 150.854ZM408.486 150.165L407.942 150.977L407.942 150.977L408.486 150.165ZM404.066 147.021L403.213 146.544L402.789 147.302L403.492 147.812L404.066 147.021ZM414.231 122.612L415.151 122.941L415.476 122.033L414.572 121.697L414.231 122.612ZM404.964 119.161V118.184L404.623 120.077L404.964 119.161ZM415.451 119.161V120.138H416.144L416.373 119.483L415.451 119.161ZM418.204 111.055L417.469 110.41L417.338 110.56L417.276 110.749L418.204 111.055ZM422.329 102.797L423.287 102.989L423.524 101.805L422.317 101.82L422.329 102.797ZM420.528 102.818L419.565 102.652L419.366 103.809L420.54 103.795L420.528 102.818ZM420.061 89.7051L419.412 88.9749L418.965 89.3719L419.115 89.9503L420.061 89.7051ZM420.91 88.9504L421.559 89.6807L421.559 89.6806L420.91 88.9504ZM421.097 88.7214L421.931 88.2115L421.073 86.8095L420.251 88.233L421.097 88.7214ZM431.966 88.4538L432.942 88.4945L432.942 88.4945L431.966 88.4538ZM424.16 77.8288L424.774 77.0691L424.774 77.0691L424.16 77.8288ZM423.743 77.4915L423.611 76.5235L421.376 76.8283L423.128 78.2501L423.743 77.4915ZM426.686 77.0903L426.818 78.0584L428.126 77.8799L427.573 76.6809L426.686 77.0903ZM425.31 74.1093L426.197 73.6999L425.712 72.6501L424.758 73.303L425.31 74.1093ZM422.239 76.2106L421.567 76.9204L422.14 77.4619L422.79 77.0169L422.239 76.2106ZM421.877 75.8419L421.146 76.491L421.146 76.491L421.877 75.8419ZM420.836 72.9162L421.797 72.7393L421.797 72.7392L420.836 72.9162ZM416.373 67.3576L416.136 68.3054L416.136 68.3054L416.373 67.3576ZM412.475 75.8419L413.45 75.901L413.457 75.7924L413.439 75.685L412.475 75.8419ZM412.463 76.1025L412.371 77.0752L413.407 77.1728L413.44 76.1332L412.463 76.1025ZM411.964 76.1961L412.401 77.07L412.401 77.07L411.964 76.1961ZM411.441 76.4578L410.869 77.2504L411.349 77.5959L411.877 77.3316L411.441 76.4578ZM405.61 73.6258L405.342 74.5652L405.342 74.5652L405.61 73.6258ZM403.976 73.2376L403.041 72.9542L402.725 73.994L403.793 74.1973L403.976 73.2376ZM408.188 59.6756L409.118 59.9752L409.118 59.9752L408.188 59.6756ZM409.691 36.4269L410.654 36.2662L408.752 36.1546L409.691 36.4269ZM409.691 36.4276L408.727 36.5883L410.629 36.6999L409.691 36.4276ZM408.286 30.2238L409.225 29.9533L409.225 29.9533L408.286 30.2238ZM405.103 30.0226L404.224 29.5964L404.224 29.5964L405.103 30.0226ZM401.676 37.0906L402.555 37.5168L402.555 37.5168L401.676 37.0906ZM401.972 39.6735L401.128 40.1667L401.128 40.1667L401.972 39.6735ZM404.222 53.2313L405.199 53.251L405.199 53.251L404.222 53.2313ZM374.105 101.935L375.072 102.076L375.08 102.019L375.082 101.961L374.105 101.935ZM374.881 98.1953L375.806 98.5095L376.13 97.558L375.169 97.2617L374.881 98.1953ZM373.19 108.597L372.578 109.358L373.937 110.451L374.159 108.721L373.19 108.597ZM368.103 96.1834L367.132 96.0701L367.132 96.0702L368.103 96.1834ZM368.112 96.1068L368.4 95.1732L367.277 94.8269L367.141 95.9935L368.112 96.1068ZM401.958 151.814L402.058 152.786L402.75 152.715L402.91 152.038L401.958 151.814ZM402.679 149.6L403.167 148.753L402.211 148.202L401.779 149.218L402.679 149.6ZM394.058 152.622L393.958 151.65L393.852 153.577L394.058 152.622ZM401.591 154.249L402.565 154.32L402.627 153.473L401.797 153.294L401.591 154.249ZM402.661 161.917L401.739 162.239L401.976 162.918L402.694 162.893L402.661 161.917ZM404.583 161.678L404.782 162.635L405.202 162.548L405.422 162.18L404.583 161.678ZM409.469 153.514L410.307 154.015L410.817 153.163L409.957 152.667L409.469 153.514ZM331.948 127.675L332.801 127.198L331.948 127.675ZM332.55 127.367L331.582 127.499L332.55 127.367ZM380.836 86.1653C385.712 78.2731 393.519 73.5743 401.23 73.9009L401.313 71.9487C392.74 71.5856 384.331 76.7905 379.174 85.1383L380.836 86.1653ZM386.445 90.7105L380.696 84.961L379.314 86.3427L385.064 92.0922L386.445 90.7105ZM377.82 90.1942L385.491 92.3422L386.018 90.4605L378.347 88.3126L377.82 90.1942ZM377.274 94.2769C377.735 92.6644 378.305 91.1216 378.972 89.6587L377.194 88.8481C376.487 90.3999 375.882 92.0343 375.395 93.7405L377.274 94.2769ZM376.59 96.3445C376.83 95.6849 377.069 94.9956 377.274 94.2768L375.395 93.7405C375.209 94.394 374.988 95.0332 374.754 95.6774L376.59 96.3445ZM365.343 93.1381L375.325 96.9245L376.018 95.0975L366.036 91.3111L365.343 93.1381ZM373.557 109.378C368.484 105.78 365.646 99.0355 366.656 92.371L364.724 92.0783C363.609 99.4338 366.721 106.924 372.426 110.972L373.557 109.378ZM372.031 135.262C372.152 128.254 372.758 120.01 373.961 110.295L372.022 110.055C370.812 119.822 370.2 128.137 370.078 135.228L372.031 135.262ZM375.987 138.254L371.697 134.509L370.412 135.981L374.702 139.726L375.987 138.254ZM370.877 139.262L375.189 139.955L375.5 138.025L371.187 137.332L370.877 139.262ZM372.773 151.134C372.294 147.453 372.024 143.204 372.009 138.294L370.055 138.3C370.07 143.277 370.344 147.609 370.835 151.386L372.773 151.134ZM367.396 160.916L372.651 151.746L370.956 150.774L365.7 159.944L367.396 160.916ZM355.264 156.745L366.169 161.33L366.927 159.529L356.021 154.944L355.264 156.745ZM354.84 156.821H355.642V154.867H354.84V156.821ZM351.522 144.999L353.884 156.049L355.795 155.64L353.433 144.591L351.522 144.999ZM352.548 143.795L352.325 143.83L352.631 145.76L352.853 145.725L352.548 143.795ZM351.296 142.135L351.736 144.913L353.666 144.607L353.226 141.829L351.296 142.135ZM355.311 136.022C355.311 138.31 353.9 140.27 351.896 141.076L352.625 142.889C355.343 141.796 357.265 139.135 357.265 136.022H355.311ZM354.924 133.968C355.084 134.713 355.217 135.448 355.321 136.164L357.255 135.881C357.144 135.121 357.004 134.344 356.834 133.557L354.924 133.968ZM337.928 117.714C342.683 116.646 346.396 118.452 349.22 121.663C352.078 124.912 353.978 129.57 354.924 133.968L356.834 133.557C355.846 128.962 353.839 123.956 350.688 120.372C347.501 116.749 343.1 114.55 337.5 115.807L337.928 117.714ZM332.801 127.198C331.821 125.449 331.468 123.451 332.098 121.764C332.71 120.126 334.35 118.517 337.928 117.714L337.5 115.807C333.492 116.707 331.178 118.643 330.268 121.081C329.376 123.469 329.934 126.077 331.096 128.152L332.801 127.198ZM337.523 121.077C335.123 121.557 333.518 122.465 332.566 123.673C331.605 124.894 331.417 126.286 331.582 127.499L333.518 127.235C333.406 126.416 333.541 125.593 334.101 124.882C334.671 124.158 335.786 123.417 337.906 122.993L337.523 121.077ZM344.604 134.582C344.865 131.831 344.857 128.272 343.985 125.502C343.548 124.115 342.861 122.822 341.78 121.963C340.659 121.072 339.227 120.736 337.523 121.077L337.906 122.993C339.119 122.75 339.949 123.003 340.564 123.492C341.22 124.014 341.744 124.894 342.121 126.09C342.877 128.487 342.911 131.739 342.658 134.397L344.604 134.582ZM344.413 136.165C344.486 135.673 344.55 135.141 344.604 134.582L342.658 134.397C342.608 134.924 342.548 135.423 342.48 135.88L344.413 136.165ZM349.594 141.459C346.715 141.317 344.424 138.937 344.424 136.022H342.47C342.47 139.984 345.584 143.218 349.498 143.411L349.594 141.459ZM350.948 145.037L350.511 142.282L348.581 142.588L349.018 145.343L350.948 145.037ZM349.864 144.22L349.83 144.225L350.136 146.155L350.169 146.15L349.864 144.22ZM352.008 155.751L350.989 145.092L349.044 145.278L350.063 155.937L352.008 155.751ZM350.882 156.821H351.036V154.867H350.882V156.821ZM350.299 157.621C350.172 157.226 350.467 156.821 350.882 156.821V154.867C349.142 154.867 347.907 156.562 348.439 158.219L350.299 157.621ZM351.021 158.029C350.711 158.102 350.397 157.924 350.299 157.621L348.439 158.218C348.848 159.491 350.165 160.236 351.467 159.932L351.021 158.029ZM351.111 158.008L351.021 158.029L351.467 159.932L351.556 159.911L351.111 158.008ZM353.002 166.137L352.306 158.867L350.361 159.053L351.057 166.323L353.002 166.137ZM353.532 167.159C353.23 166.9 353.04 166.533 353.002 166.137L351.057 166.323C351.143 167.222 351.574 168.054 352.259 168.642L353.532 167.159ZM353.625 167.239L353.532 167.159L352.259 168.642L352.352 168.721L353.625 167.239ZM355.855 166.793C355.432 167.63 354.336 167.849 353.625 167.239L352.352 168.722C354.027 170.158 356.605 169.643 357.599 167.673L355.855 166.793ZM355.978 165.841C356.047 166.163 356.003 166.499 355.855 166.793L357.599 167.673C357.949 166.981 358.051 166.19 357.889 165.432L355.978 165.841ZM354.352 158.234L355.978 165.841L357.889 165.432L356.262 157.825L354.352 158.234ZM355.42 157L355.084 157.078L355.53 158.981L355.865 158.903L355.42 157ZM367.062 162.697C365.348 161.636 363.222 160.385 361.206 159.319C359.218 158.267 357.247 157.345 355.879 157.003L355.405 158.899C356.516 159.177 358.297 159.991 360.292 161.046C362.258 162.086 364.345 163.313 366.034 164.359L367.062 162.697ZM368.265 161.096C368.156 161.512 368.059 161.881 367.945 162.205C367.829 162.536 367.723 162.74 367.632 162.852C367.592 162.902 367.569 162.916 367.568 162.916C367.568 162.917 367.571 162.915 367.575 162.914C367.58 162.912 367.583 162.912 367.581 162.912C367.572 162.913 367.421 162.919 367.062 162.697L366.034 164.359C366.575 164.694 367.153 164.909 367.745 164.859C368.377 164.806 368.84 164.469 369.156 164.076C369.453 163.706 369.648 163.256 369.789 162.851C369.934 162.438 370.051 161.989 370.155 161.59L368.265 161.096ZM369.081 158.896C368.663 159.523 368.439 160.431 368.265 161.096L370.155 161.59C370.362 160.8 370.513 160.272 370.707 159.98L369.081 158.896ZM371.737 155.13C370.75 156.503 369.615 158.096 369.081 158.896L370.707 159.98C371.218 159.214 372.33 157.651 373.323 156.271L371.737 155.13ZM380.947 171.093C377.818 168.155 375.084 163.46 373.488 155.509L371.572 155.893C373.224 164.124 376.106 169.228 379.61 172.518L380.947 171.093ZM377.125 177.739L381.065 172.385L379.492 171.227L375.552 176.581L377.125 177.739ZM381.157 183.605C381.157 182.154 380.369 180.634 379.547 179.427C378.7 178.182 377.69 177.087 377.006 176.447L375.671 177.874C376.267 178.432 377.178 179.419 377.932 180.526C378.711 181.671 379.203 182.774 379.203 183.605H381.157ZM376.606 186.748C377.398 186.684 378.48 186.605 379.355 186.243C379.813 186.054 380.277 185.763 380.625 185.303C380.981 184.831 381.157 184.256 381.157 183.605H379.203C379.203 183.89 379.132 184.037 379.065 184.126C378.989 184.227 378.853 184.336 378.608 184.438C378.074 184.659 377.329 184.729 376.448 184.8L376.606 186.748ZM375.079 186.978C375.071 186.985 375.16 186.925 375.487 186.868C375.789 186.815 376.156 186.785 376.606 186.748L376.448 184.8C376.024 184.835 375.559 184.872 375.15 184.943C374.768 185.01 374.271 185.131 373.88 185.436L375.079 186.978ZM378.739 187.092C377.316 187.206 376.129 186.969 375.479 186.668C375.119 186.502 375.094 186.396 375.132 186.476C375.168 186.552 375.198 186.688 375.151 186.837C375.111 186.966 375.044 187.006 375.079 186.978L373.88 185.436C373.636 185.625 373.399 185.893 373.286 186.255C373.167 186.637 373.221 187.011 373.37 187.321C373.633 187.869 374.181 188.221 374.658 188.441C375.681 188.915 377.22 189.174 378.895 189.04L378.739 187.092ZM379.944 187.007C379.566 187.032 379.159 187.058 378.739 187.092L378.895 189.04C379.3 189.007 379.693 188.981 380.073 188.956L379.944 187.007ZM379.926 187.008L379.924 187.008L380.093 188.955L380.095 188.955L379.926 187.008ZM382.236 186.775C382.471 187.104 382.364 187.108 382.397 186.924C382.445 186.655 382.654 186.622 382.482 186.691C382.32 186.757 382.029 186.822 381.561 186.876C381.108 186.929 380.57 186.965 379.946 187.006L380.075 188.956C380.685 188.916 381.276 188.877 381.788 188.817C382.286 188.759 382.797 188.672 383.216 188.502C383.625 188.337 384.193 187.985 384.321 187.267C384.433 186.635 384.127 186.061 383.826 185.639L382.236 186.775ZM380.195 181.746C380.195 183.026 380.94 184.961 382.236 186.775L383.826 185.639C382.643 183.983 382.149 182.448 382.149 181.746H380.195ZM378.817 178.137C378.645 178.137 378.57 178.063 378.613 178.095C378.648 178.122 378.721 178.191 378.825 178.328C379.03 178.599 379.259 179.007 379.477 179.485C379.691 179.957 379.877 180.458 380.008 180.892C380.148 181.358 380.195 181.651 380.195 181.746H382.149C382.149 181.344 382.025 180.816 381.879 180.329C381.723 179.811 381.506 179.228 381.256 178.677C381.008 178.133 380.71 177.58 380.382 177.147C380.218 176.931 380.022 176.712 379.793 176.538C379.571 176.37 379.236 176.183 378.817 176.183V178.137ZM383.097 173.233C380.599 174.005 378.785 175.627 378.051 176.554L379.583 177.767C380.114 177.096 381.613 175.737 383.674 175.099L383.097 173.233ZM393.656 176.823C390.381 176.041 387.008 175.227 383.894 173.331L382.878 175C386.293 177.08 389.963 177.95 393.202 178.724L393.656 176.823ZM393.669 176.826L393.667 176.826L393.191 178.721L393.193 178.721L393.669 176.826ZM398.34 178.095C396.865 177.589 395.265 177.208 393.658 176.824L393.204 178.724C394.831 179.113 396.336 179.473 397.706 179.943L398.34 178.095ZM401.407 178.793C400.413 178.681 399.39 178.455 398.34 178.095L397.706 179.943C398.889 180.349 400.051 180.606 401.187 180.735L401.407 178.793ZM400.986 183.357C400.986 183.209 401.081 182.734 401.316 182.064C401.537 181.433 401.832 180.766 402.133 180.271L400.462 179.257C400.071 179.902 399.722 180.703 399.472 181.419C399.235 182.096 399.032 182.848 399.032 183.357H400.986ZM398.945 188.386C400.24 186.572 400.986 184.637 400.986 183.357H399.032C399.032 184.059 398.538 185.594 397.355 187.25L398.945 188.386ZM401.235 188.618C400.61 188.576 400.072 188.54 399.619 188.487C399.151 188.433 398.86 188.368 398.698 188.302C398.527 188.233 398.735 188.266 398.783 188.535C398.816 188.72 398.709 188.715 398.945 188.386L397.355 187.25C397.053 187.673 396.747 188.246 396.859 188.878C396.987 189.596 397.555 189.948 397.964 190.113C398.383 190.283 398.894 190.37 399.392 190.428C399.904 190.488 400.496 190.527 401.106 190.567L401.235 188.618ZM401.247 188.618L401.246 188.618L401.095 190.566L401.096 190.567L401.247 188.618ZM402.441 188.703C402.021 188.669 401.614 188.643 401.236 188.618L401.107 190.567C401.487 190.592 401.881 190.619 402.285 190.651L402.441 188.703ZM406.101 188.589C406.136 188.617 406.069 188.578 406.029 188.448C405.983 188.299 406.012 188.163 406.048 188.087C406.087 188.007 406.061 188.113 405.702 188.279C405.052 188.58 403.864 188.817 402.441 188.703L402.285 190.651C403.96 190.785 405.5 190.526 406.523 190.052C406.999 189.832 407.547 189.481 407.81 188.932C407.959 188.622 408.014 188.248 407.894 187.866C407.781 187.504 407.544 187.236 407.301 187.047L406.101 188.589ZM404.574 188.359C405.024 188.396 405.392 188.426 405.693 188.479C406.02 188.536 406.11 188.596 406.101 188.589L407.301 187.047C406.909 186.743 406.412 186.621 406.03 186.554C405.622 186.483 405.157 186.446 404.733 186.411L404.574 188.359ZM400.023 185.216C400.023 185.867 400.199 186.442 400.556 186.914C400.903 187.374 401.367 187.665 401.826 187.854C402.7 188.216 403.782 188.295 404.574 188.359L404.733 186.411C403.851 186.34 403.106 186.27 402.573 186.049C402.327 185.947 402.191 185.838 402.115 185.737C402.048 185.648 401.977 185.501 401.977 185.216H400.023ZM403.087 179.182C402.416 179.938 401.666 180.898 401.08 181.918C400.505 182.917 400.023 184.08 400.023 185.216H401.977C401.977 184.588 402.261 183.783 402.773 182.892C403.274 182.023 403.934 181.172 404.548 180.479L403.087 179.182ZM418.873 168.604C417.762 170.444 415.779 172.917 413.155 174.977C410.533 177.037 407.328 178.64 403.759 178.855L403.877 180.806C407.962 180.559 411.536 178.733 414.362 176.514C417.187 174.295 419.323 171.638 420.546 169.614L418.873 168.604ZM419.109 168.338L419.104 168.342L420.315 169.876L420.32 169.872L419.109 168.338ZM421.828 152.766C422.309 160.353 420.157 166.36 418.866 168.62L420.563 169.589C422.041 167.002 424.283 160.616 423.778 152.642L421.828 152.766ZM419.106 152.291L422.444 153.612L423.163 151.796L419.826 150.475L419.106 152.291ZM421.975 148.774L418.971 150.541L419.961 152.225L422.966 150.458L421.975 148.774ZM421.234 148.228C421.337 148.745 421.427 149.257 421.505 149.763L423.436 149.468C423.354 148.932 423.259 148.391 423.15 147.845L421.234 148.228ZM423.223 128.186C421.63 130.735 419.209 138.1 421.234 148.228L423.15 147.845C421.211 138.146 423.581 131.299 424.88 129.222L423.223 128.186ZM413.997 150.707C413.765 146.679 415.441 142.306 417.736 138.404C420.021 134.522 422.845 131.231 424.731 129.406L423.372 128.002C421.374 129.936 418.436 133.363 416.052 137.413C413.68 141.445 411.782 146.223 412.046 150.819L413.997 150.707ZM409.215 160.854C412.022 159.045 414.293 155.853 413.997 150.707L412.046 150.819C412.299 155.216 410.412 157.758 408.156 159.212L409.215 160.854ZM410.715 162.692L409.601 159.693L407.77 160.373L408.884 163.373L410.715 162.692ZM406.327 162.107L409.301 163.872L410.298 162.192L407.324 160.426L406.327 162.107ZM408.464 157.48C407.626 158.562 406.769 159.667 406.031 160.698L407.62 161.835C408.332 160.841 409.165 159.766 410.008 158.677L408.464 157.48ZM408.465 157.479L408.464 157.48L410.009 158.677L410.009 158.676L408.465 157.479ZM411.738 153.005C410.951 154.27 409.737 155.838 408.465 157.479L410.009 158.676C411.258 157.064 412.545 155.406 413.397 154.038L411.738 153.005ZM410.139 151.798C410.555 151.908 410.924 152.006 411.248 152.121C411.579 152.238 411.782 152.345 411.894 152.435C411.944 152.475 411.958 152.498 411.958 152.499C411.958 152.5 411.957 152.497 411.955 152.492C411.954 152.487 411.954 152.485 411.954 152.487C411.955 152.496 411.961 152.647 411.738 153.005L413.397 154.038C413.733 153.497 413.95 152.92 413.901 152.327C413.849 151.695 413.513 151.232 413.122 150.915C412.753 150.617 412.303 150.421 411.898 150.278C411.486 150.133 411.036 150.014 410.638 149.909L410.139 151.798ZM407.942 150.977C408.567 151.396 409.475 151.623 410.139 151.798L410.638 149.909C409.849 149.701 409.321 149.549 409.03 149.354L407.942 150.977ZM403.492 147.812C404.981 148.893 407.006 150.35 407.942 150.977L409.03 149.354C408.131 148.751 406.139 147.318 404.64 146.23L403.492 147.812ZM413.311 122.283C410.038 131.432 406.224 141.16 403.213 146.544L404.918 147.498C408.02 141.952 411.882 132.076 415.151 122.941L413.311 122.283ZM404.623 120.077L413.89 123.528L414.572 121.697L405.304 118.246L404.623 120.077ZM415.451 118.184H404.964V120.138H415.451V118.184ZM417.276 110.749C416.47 113.193 415.538 115.947 414.528 118.839L416.373 119.483C417.387 116.58 418.322 113.815 419.132 111.361L417.276 110.749ZM421.371 102.605C420.777 105.564 419.387 108.224 417.469 110.41L418.938 111.699C421.064 109.274 422.621 106.308 423.287 102.989L421.371 102.605ZM420.54 103.795L422.34 103.774L422.317 101.82L420.517 101.841L420.54 103.795ZM419.115 89.9503C420.129 93.8613 420.331 98.2075 419.565 102.652L421.491 102.984C422.302 98.2747 422.092 93.6481 421.007 89.46L419.115 89.9503ZM420.261 88.2202L419.412 88.9749L420.71 90.4354L421.559 89.6807L420.261 88.2202ZM420.251 88.233C420.253 88.23 420.255 88.2272 420.257 88.2248C420.259 88.2224 420.26 88.2209 420.261 88.2203L421.559 89.6806C421.715 89.5422 421.843 89.383 421.943 89.2099L420.251 88.233ZM430.99 88.4132C430.948 89.4097 430.53 89.9397 429.942 90.2535C429.282 90.606 428.307 90.7312 427.162 90.6083C426.035 90.4873 424.854 90.137 423.871 89.6667C422.854 89.1806 422.19 88.635 421.931 88.2115L420.264 89.2313C420.817 90.1349 421.889 90.885 423.028 91.4295C424.2 91.9898 425.594 92.4052 426.953 92.5511C428.294 92.6951 429.718 92.5887 430.863 91.9771C432.08 91.3268 432.873 90.1604 432.942 88.4945L430.99 88.4132ZM423.545 78.5884C425.13 79.8702 427.057 81.4317 428.571 83.173C430.104 84.9354 431.061 86.711 430.99 88.4132L432.942 88.4945C433.045 86.0255 431.673 83.7615 430.046 81.8907C428.401 79.9988 426.337 78.3333 424.774 77.0691L423.545 78.5884ZM423.128 78.2501C423.263 78.3603 423.403 78.4733 423.545 78.5884L424.774 77.0691C424.631 76.9538 424.493 76.8419 424.359 76.733L423.128 78.2501ZM426.554 76.1223L423.611 76.5235L423.875 78.4596L426.818 78.0584L426.554 76.1223ZM424.423 74.5187L425.798 77.4997L427.573 76.6809L426.197 73.6999L424.423 74.5187ZM422.79 77.0169L425.861 74.9156L424.758 73.303L421.687 75.4042L422.79 77.0169ZM421.146 76.491C421.272 76.6324 421.415 76.7763 421.567 76.9204L422.91 75.5008C422.784 75.3815 422.684 75.2793 422.607 75.1928L421.146 76.491ZM419.876 73.0931C419.979 73.6538 420.09 74.2671 420.265 74.8317C420.442 75.4026 420.703 75.9919 421.146 76.491L422.607 75.1929C422.418 74.9803 422.264 74.6807 422.132 74.2536C421.998 73.8202 421.905 73.3265 421.797 72.7393L419.876 73.0931ZM416.136 68.3054C417.716 68.7002 418.505 69.4023 418.973 70.1671C419.478 70.9914 419.669 71.9722 419.876 73.0931L421.797 72.7392C421.602 71.6792 421.365 70.3313 420.64 69.1469C419.878 67.903 418.636 66.9163 416.61 66.4097L416.136 68.3054ZM413.439 75.685C413.181 74.0997 413.077 71.8608 413.517 70.2054C413.737 69.3781 414.059 68.8232 414.439 68.522C414.77 68.2588 415.271 68.089 416.136 68.3054L416.61 66.4097C415.275 66.0758 414.12 66.2805 413.224 66.9914C412.376 67.6643 411.899 68.683 411.628 69.7035C411.086 71.7438 411.234 74.2974 411.511 75.9989L413.439 75.685ZM413.44 76.1332C413.442 76.056 413.446 75.9786 413.45 75.901L411.5 75.7829C411.494 75.8794 411.49 75.9757 411.487 76.0718L413.44 76.1332ZM412.401 77.07C412.399 77.0709 412.394 77.0729 412.387 77.0743C412.38 77.0755 412.374 77.0754 412.371 77.0752L412.555 75.1298C412.215 75.0977 411.86 75.1558 411.527 75.3223L412.401 77.07ZM411.877 77.3316L412.401 77.07L411.527 75.3223L411.004 75.5839L411.877 77.3316ZM405.342 74.5652C407.362 75.1419 409.212 76.0563 410.869 77.2504L412.012 75.6651C410.177 74.3429 408.122 73.327 405.878 72.6863L405.342 74.5652ZM403.793 74.1973C404.311 74.2959 404.827 74.4184 405.342 74.5652L405.878 72.6863C405.307 72.5233 404.734 72.3874 404.158 72.2778L403.793 74.1973ZM407.258 59.376C405.829 63.8133 404.414 68.4233 403.041 72.9542L404.911 73.521C406.283 68.9932 407.694 64.3961 409.118 59.9752L407.258 59.376ZM408.727 36.5877C409.771 42.8474 409.986 50.9088 407.258 59.376L409.118 59.9752C411.966 51.1333 411.734 42.7419 410.654 36.2662L408.727 36.5877ZM410.629 36.6999L410.629 36.6993L408.752 36.1546L408.752 36.1552L410.629 36.6999ZM410.654 36.2669C410.257 33.8823 409.743 31.7538 409.225 29.9533L407.347 30.4944C407.847 32.2312 408.343 34.2861 408.727 36.5883L410.654 36.2669ZM409.225 29.9533C408.505 27.4551 405.271 27.4352 404.224 29.5964L405.982 30.4488C406.152 30.098 406.457 29.9621 406.733 29.9782C407 29.9938 407.247 30.1472 407.347 30.4944L409.225 29.9533ZM404.224 29.5964L400.797 36.6643L402.555 37.5168L405.982 30.4488L404.224 29.5964ZM400.797 36.6643C400.202 37.891 400.601 39.2648 401.128 40.1667L402.815 39.1804C402.44 38.5383 402.369 37.8994 402.555 37.5168L400.797 36.6643ZM401.128 40.1667C402.13 41.8788 403.395 45.8383 403.246 53.2116L405.199 53.251C405.352 45.6912 404.069 41.3251 402.815 39.1804L401.128 40.1667ZM403.246 53.2116C403.141 58.4102 402.115 65.1338 400.321 72.6994L402.222 73.1503C404.033 65.515 405.09 58.6422 405.199 53.251L403.246 53.2116ZM375.082 101.961C375.112 100.819 375.401 99.7041 375.806 98.5095L373.956 97.8811C373.527 99.144 373.166 100.477 373.129 101.91L375.082 101.961ZM374.159 108.721C374.435 106.577 374.739 104.363 375.072 102.076L373.138 101.794C372.803 104.091 372.498 106.317 372.221 108.473L374.159 108.721ZM367.132 96.0702C366.523 101.29 368.712 106.25 372.578 109.358L373.802 107.835C370.442 105.135 368.544 100.828 369.073 96.2966L367.132 96.0702ZM367.141 95.9935L367.132 96.0701L369.073 96.2966L369.082 96.22L367.141 95.9935ZM375.169 97.2617L368.4 95.1732L367.824 97.0403L374.593 99.1289L375.169 97.2617ZM402.91 152.038C403.076 151.328 403.298 150.64 403.578 149.981L401.779 149.218C401.454 149.985 401.198 150.779 401.007 151.591L402.91 152.038ZM394.157 153.594L402.058 152.786L401.859 150.842L393.958 151.65L394.157 153.594ZM401.797 153.294L394.264 151.667L393.852 153.577L401.385 155.204L401.797 153.294ZM403.583 161.594C402.767 159.262 402.389 156.735 402.565 154.32L400.616 154.178C400.419 156.884 400.843 159.679 401.739 162.239L403.583 161.594ZM404.385 160.722C403.739 160.856 403.14 160.923 402.628 160.94L402.694 162.893C403.321 162.872 404.031 162.79 404.782 162.635L404.385 160.722ZM408.631 153.012L403.745 161.177L405.422 162.18L410.307 154.015L408.631 153.012ZM402.191 150.446L408.981 154.36L409.957 152.667L403.167 148.753L402.191 150.446ZM331.096 128.152C331.311 128.536 331.68 128.719 332.021 128.749C332.325 128.776 332.589 128.688 332.774 128.59C332.966 128.489 333.154 128.336 333.296 128.13C333.439 127.924 333.569 127.611 333.518 127.235L331.582 127.499C331.551 127.269 331.633 127.099 331.69 127.018C331.745 126.938 331.807 126.891 331.862 126.863C331.909 126.837 332.025 126.788 332.196 126.803C332.405 126.822 332.658 126.943 332.801 127.198L331.096 128.152Z" fill="black" mask="url(#path-60-outside-1_1259_395)"/>
<path d="M343.774 131.846C344.755 131.808 345.568 131.462 345.74 130.519C345.808 130.143 345.871 129.737 345.935 129.324C346.302 126.967 346.701 124.406 348.262 126.162C348.484 126.412 348.703 126.669 348.919 126.923C350.486 128.76 351.896 130.415 353.307 127.997C353.462 127.731 353.629 127.489 353.806 127.27C350.876 120.55 345.591 114.992 337.714 116.761C329.988 118.495 329.797 124.192 332.068 127.943C332.218 128.191 332.651 127.935 332.596 127.65C332.194 125.562 332.983 122.981 337.714 122.035C342.653 121.047 343.838 126.781 343.774 131.846Z" fill="#FFC149"/>
<path fill-rule="evenodd" clip-rule="evenodd" d="M346.618 190.133C347.076 189.473 349.113 188.79 348.017 188.205C346.944 187.632 343.983 187.744 341.816 187.57C339.725 187.403 337.643 186.989 335.586 187.208C333.535 187.426 332.682 188.112 331.563 188.658C330.546 189.155 329.372 189.653 329.406 190.226C329.44 190.795 330.416 191.324 331.744 191.735C332.973 192.116 334.741 192.258 336.464 192.413C338.189 192.567 339.971 192.788 341.709 192.628C343.465 192.466 344.771 192.028 345.688 191.562C346.54 191.129 346.28 190.62 346.618 190.133Z" fill="#FFC149"/>
<g filter="url(#filter2_d_1259_395)">
<path d="M98.1312 70.5594H104.718V75H92.2601V53.8998H98.1312V70.5594ZM123.678 71.4833H116.197L115.035 75H108.866L116.585 53.9892H123.35L131.039 75H124.84L123.678 71.4833ZM122.217 67.0725L119.952 60.2179L117.657 67.0725H122.217ZM148.055 53.8998V58.5788H142.362V75H136.521V58.5788H130.888V53.8998H148.055ZM158.684 58.5788V62.0657H165.509V66.5063H158.684V70.321H166.403V75H152.813V53.8998H166.403V58.5788H158.684Z" fill="#FFCD6B"/>
<path d="M98.1312 70.5594H96.7209V71.9697H98.1312V70.5594ZM104.718 70.5594H106.128V69.1491H104.718V70.5594ZM104.718 75V76.4103H106.128V75H104.718ZM92.2601 75H90.8498V76.4103H92.2601V75ZM92.2601 53.8998V52.4894H90.8498V53.8998H92.2601ZM98.1312 53.8998H99.5415V52.4894H98.1312V53.8998ZM98.1312 71.9697H104.718V69.1491H98.1312V71.9697ZM103.307 70.5594V75H106.128V70.5594H103.307ZM104.718 73.5897H92.2601V76.4103H104.718V73.5897ZM93.6704 75V53.8998H90.8498V75H93.6704ZM92.2601 55.3101H98.1312V52.4894H92.2601V55.3101ZM96.7209 53.8998V70.5594H99.5415V53.8998H96.7209ZM123.678 71.4833L125.017 71.0407L124.697 70.073H123.678V71.4833ZM116.197 71.4833V70.073H115.178L114.858 71.0407L116.197 71.4833ZM115.035 75V76.4103H116.054L116.374 75.4426L115.035 75ZM108.866 75L107.542 74.5137L106.845 76.4103H108.866V75ZM116.585 53.9892V52.5789H115.6L115.261 53.5028L116.585 53.9892ZM123.35 53.9892L124.674 53.5045L124.335 52.5789H123.35V53.9892ZM131.039 75V76.4103H133.057L132.363 74.5153L131.039 75ZM124.84 75L123.501 75.4426L123.821 76.4103H124.84V75ZM122.217 67.0725V68.4828H124.169L123.556 66.63L122.217 67.0725ZM119.952 60.2179L121.291 59.7754L119.961 55.7494L118.615 59.7702L119.952 60.2179ZM117.657 67.0725L116.32 66.6248L115.698 68.4828H117.657V67.0725ZM123.678 70.073H116.197V72.8936H123.678V70.073ZM114.858 71.0407L113.696 74.5574L116.374 75.4426L117.536 71.9259L114.858 71.0407ZM115.035 73.5897H108.866V76.4103H115.035V73.5897ZM110.19 75.4863L117.908 54.4755L115.261 53.5028L107.542 74.5137L110.19 75.4863ZM116.585 55.3995H123.35V52.5789H116.585V55.3995ZM122.025 54.4738L129.714 75.4847L132.363 74.5153L124.674 53.5045L122.025 54.4738ZM131.039 73.5897H124.84V76.4103H131.039V73.5897ZM126.179 74.5574L125.017 71.0407L122.339 71.9259L123.501 75.4426L126.179 74.5574ZM123.556 66.63L121.291 59.7754L118.613 60.6604L120.878 67.515L123.556 66.63ZM118.615 59.7702L116.32 66.6248L118.995 67.5202L121.29 60.6656L118.615 59.7702ZM117.657 68.4828H122.217V65.6622H117.657V68.4828ZM148.055 53.8998H149.465V52.4894H148.055V53.8998ZM148.055 58.5788V59.9891H149.465V58.5788H148.055ZM142.362 58.5788V57.1685H140.952V58.5788H142.362ZM142.362 75V76.4103H143.773V75H142.362ZM136.521 75H135.111V76.4103H136.521V75ZM136.521 58.5788H137.931V57.1685H136.521V58.5788ZM130.888 58.5788H129.478V59.9891H130.888V58.5788ZM130.888 53.8998V52.4894H129.478V53.8998H130.888ZM146.644 53.8998V58.5788H149.465V53.8998H146.644ZM148.055 57.1685H142.362V59.9891H148.055V57.1685ZM140.952 58.5788V75H143.773V58.5788H140.952ZM142.362 73.5897H136.521V76.4103H142.362V73.5897ZM137.931 75V58.5788H135.111V75H137.931ZM136.521 57.1685H130.888V59.9891H136.521V57.1685ZM132.299 58.5788V53.8998H129.478V58.5788H132.299ZM130.888 55.3101H148.055V52.4894H130.888V55.3101ZM158.684 58.5788V57.1685H157.274V58.5788H158.684ZM158.684 62.0657H157.274V63.476H158.684V62.0657ZM165.509 62.0657H166.919V60.6554H165.509V62.0657ZM165.509 66.5063V67.9166H166.919V66.5063H165.509ZM158.684 66.5063V65.0959H157.274V66.5063H158.684ZM158.684 70.321H157.274V71.7313H158.684V70.321ZM166.403 70.321H167.813V68.9107H166.403V70.321ZM166.403 75V76.4103H167.813V75H166.403ZM152.813 75H151.403V76.4103H152.813V75ZM152.813 53.8998V52.4894H151.403V53.8998H152.813ZM166.403 53.8998H167.813V52.4894H166.403V53.8998ZM166.403 58.5788V59.9891H167.813V58.5788H166.403ZM157.274 58.5788V62.0657H160.094V58.5788H157.274ZM158.684 63.476H165.509V60.6554H158.684V63.476ZM164.099 62.0657V66.5063H166.919V62.0657H164.099ZM165.509 65.0959H158.684V67.9166H165.509V65.0959ZM157.274 66.5063V70.321H160.094V66.5063H157.274ZM158.684 71.7313H166.403V68.9107H158.684V71.7313ZM164.993 70.321V75H167.813V70.321H164.993ZM166.403 73.5897H152.813V76.4103H166.403V73.5897ZM154.223 75V53.8998H151.403V75H154.223ZM152.813 55.3101H166.403V52.4894H152.813V55.3101ZM164.993 53.8998V58.5788H167.813V53.8998H164.993ZM166.403 57.1685H158.684V59.9891H166.403V57.1685Z" fill="black"/>
</g>
<g filter="url(#filter3_d_1259_395)">
<path d="M126.695 84.025V88.704H121.003V105.125H115.162V88.704H109.529V84.025H126.695ZM140.424 83.6972C142.411 83.6972 144.219 84.1641 145.848 85.0979C147.497 86.0118 148.789 87.2933 149.722 88.9424C150.676 90.5915 151.153 92.4492 151.153 94.5155C151.153 96.5818 150.676 98.4395 149.722 100.089C148.769 101.738 147.467 103.029 145.818 103.963C144.189 104.877 142.391 105.334 140.424 105.334C138.457 105.334 136.649 104.877 135 103.963C133.351 103.029 132.049 101.738 131.096 100.089C130.142 98.4395 129.665 96.5818 129.665 94.5155C129.665 92.4492 130.142 90.5915 131.096 88.9424C132.049 87.2933 133.351 86.0118 135 85.0979C136.649 84.1641 138.457 83.6972 140.424 83.6972ZM140.424 89.1212C138.934 89.1212 137.762 89.608 136.907 90.5816C136.053 91.5353 135.626 92.8466 135.626 94.5155C135.626 96.1447 136.053 97.4461 136.907 98.4197C137.762 99.3932 138.934 99.88 140.424 99.88C141.894 99.88 143.057 99.3932 143.911 98.4197C144.765 97.4461 145.192 96.1447 145.192 94.5155C145.192 92.8466 144.765 91.5353 143.911 90.5816C143.076 89.608 141.914 89.1212 140.424 89.1212Z" fill="#FFCD6B"/>
<path d="M126.695 84.025H128.106V82.6147H126.695V84.025ZM126.695 88.704V90.1143H128.106V88.704H126.695ZM121.003 88.704V87.2937H119.593V88.704H121.003ZM121.003 105.125V106.536H122.413V105.125H121.003ZM115.162 105.125H113.751V106.536H115.162V105.125ZM115.162 88.704H116.572V87.2937H115.162V88.704ZM109.529 88.704H108.119V90.1143H109.529V88.704ZM109.529 84.025V82.6147H108.119V84.025H109.529ZM125.285 84.025V88.704H128.106V84.025H125.285ZM126.695 87.2937H121.003V90.1143H126.695V87.2937ZM119.593 88.704V105.125H122.413V88.704H119.593ZM121.003 103.715H115.162V106.536H121.003V103.715ZM116.572 105.125V88.704H113.751V105.125H116.572ZM115.162 87.2937H109.529V90.1143H115.162V87.2937ZM110.939 88.704V84.025H108.119V88.704H110.939ZM109.529 85.4353H126.695V82.6147H109.529V85.4353ZM145.848 85.0979L145.147 86.3215L145.156 86.3265L145.164 86.3314L145.848 85.0979ZM149.722 88.9424L148.495 89.6374L148.502 89.6485L149.722 88.9424ZM149.722 100.089L148.502 99.3826L148.502 99.3826L149.722 100.089ZM145.818 103.963L146.508 105.193L146.513 105.19L145.818 103.963ZM135 103.963L134.305 105.19L134.316 105.196L135 103.963ZM131.096 100.089L132.317 99.3826L132.317 99.3826L131.096 100.089ZM131.096 88.9424L129.875 88.2364L129.875 88.2364L131.096 88.9424ZM135 85.0979L135.684 86.3315L135.695 86.3251L135 85.0979ZM136.907 90.5816L137.958 91.5226L137.963 91.5172L137.967 91.5118L136.907 90.5816ZM136.907 98.4197L135.847 99.3499L135.847 99.3499L136.907 98.4197ZM143.911 98.4197L144.971 99.3499L144.971 99.3499L143.911 98.4197ZM143.911 90.5816L142.84 91.4994L142.85 91.5111L142.86 91.5226L143.911 90.5816ZM140.424 85.1075C142.18 85.1075 143.743 85.5172 145.147 86.3215L146.549 83.8743C144.694 82.811 142.642 82.2869 140.424 82.2869V85.1075ZM145.164 86.3314C146.585 87.1187 147.689 88.2132 148.495 89.6374L150.95 88.2475C149.888 86.3735 148.409 84.905 146.532 83.8644L145.164 86.3314ZM148.502 89.6485C149.321 91.0649 149.743 92.6755 149.743 94.5155H152.563C152.563 92.2229 152.031 90.1181 150.943 88.2364L148.502 89.6485ZM149.743 94.5155C149.743 96.3556 149.321 97.9661 148.502 99.3826L150.943 100.795C152.031 98.913 152.563 96.8081 152.563 94.5155H149.743ZM148.502 99.3826C147.673 100.815 146.553 101.926 145.123 102.736L146.513 105.19C148.382 104.132 149.864 102.66 150.943 100.795L148.502 99.3826ZM145.128 102.733C143.721 103.522 142.163 103.924 140.424 103.924V106.744C142.619 106.744 144.657 106.231 146.508 105.193L145.128 102.733ZM140.424 103.924C138.685 103.924 137.114 103.522 135.684 102.729L134.316 105.196C136.184 106.231 138.229 106.744 140.424 106.744V103.924ZM135.695 102.736C134.266 101.926 133.145 100.815 132.317 99.3826L129.875 100.795C130.954 102.66 132.436 104.132 134.305 105.19L135.695 102.736ZM132.317 99.3826C131.497 97.9661 131.076 96.3556 131.076 94.5155H128.255C128.255 96.8081 128.787 98.913 129.875 100.795L132.317 99.3826ZM131.076 94.5155C131.076 92.6755 131.497 91.0649 132.317 89.6485L129.875 88.2364C128.787 90.1181 128.255 92.2229 128.255 94.5155H131.076ZM132.317 89.6485C133.144 88.2182 134.26 87.1201 135.684 86.3314L134.316 83.8644C132.441 84.9036 130.955 86.3685 129.875 88.2364L132.317 89.6485ZM135.695 86.3251C137.124 85.516 138.691 85.1075 140.424 85.1075V82.2869C138.223 82.2869 136.174 82.8122 134.305 83.8707L135.695 86.3251ZM140.424 87.7109C138.596 87.7109 137.011 88.3252 135.847 89.6513L137.967 91.5118C138.512 90.8908 139.272 90.5316 140.424 90.5316V87.7109ZM135.857 89.6405C134.708 90.9234 134.215 92.6073 134.215 94.5155H137.036C137.036 93.0859 137.398 92.1471 137.958 91.5226L135.857 89.6405ZM134.215 94.5155C134.215 96.3958 134.713 98.0579 135.847 99.3499L137.967 97.4894C137.392 96.8343 137.036 95.8937 137.036 94.5155H134.215ZM135.847 99.3499C137.011 100.676 138.596 101.29 140.424 101.29V98.4697C139.272 98.4697 138.512 98.1104 137.967 97.4894L135.847 99.3499ZM140.424 101.29C142.239 101.29 143.811 100.672 144.971 99.3499L142.851 97.4894C142.302 98.1148 141.549 98.4697 140.424 98.4697V101.29ZM144.971 99.3499C146.105 98.0579 146.603 96.3958 146.603 94.5155H143.782C143.782 95.8937 143.426 96.8343 142.851 97.4894L144.971 99.3499ZM146.603 94.5155C146.603 92.6073 146.111 90.9234 144.961 89.6405L142.86 91.5226C143.42 92.1471 143.782 93.0859 143.782 94.5155H146.603ZM144.982 89.6638C143.835 88.3255 142.252 87.7109 140.424 87.7109V90.5316C141.576 90.5316 142.318 90.8906 142.84 91.4994L144.982 89.6638Z" fill="black"/>
</g>
<path d="M104.718 95.4016C104.881 95.5106 104.963 95.6742 104.963 95.8923C104.963 96.0559 104.799 96.3012 104.472 96.6284C102.673 98.5912 101.065 100.854 99.647 103.416C98.2294 105.924 97.0299 108.678 96.0485 111.677C95.0671 114.675 94.3038 117.838 93.7585 121.164C93.2133 124.49 92.9407 127.897 92.9407 131.387C92.9407 134.004 93.2406 136.048 93.8403 137.52C94.4946 138.938 95.6123 139.647 97.1935 139.647C99.3744 139.647 101.446 138.12 103.409 135.067C103.573 134.958 103.736 134.958 103.9 135.067C104.063 135.176 104.118 135.34 104.063 135.558C102.646 137.848 101.065 139.701 99.3199 141.119C97.6297 142.537 96.0485 143.245 94.5764 143.245C92.3955 143.245 90.7325 142.4 89.5875 140.71C88.4971 139.02 87.9519 136.621 87.9519 133.513C87.9519 129.151 88.4426 124.708 89.424 120.182C86.8614 120.182 84.3261 120.209 81.818 120.264C79.3645 120.319 76.9655 120.4 74.621 120.509C72.8218 122.418 71.077 124.217 69.3868 125.907C67.7512 127.597 66.1427 129.151 64.5616 130.569C60.1997 134.549 55.7016 137.657 51.0672 139.892C46.4873 142.128 41.4439 143.245 35.9371 143.245C32.9929 143.245 30.6211 142.591 28.8219 141.283C27.0771 139.974 25.9049 138.311 25.3051 136.294C24.7599 134.276 24.7872 132.068 25.3869 129.669C25.9867 127.27 27.1862 124.953 28.9854 122.718C29.149 122.608 29.3398 122.636 29.5579 122.799C29.776 122.908 29.8578 123.154 29.8033 123.535C28.5493 124.898 27.8405 126.48 27.6769 128.279C27.5678 130.024 27.9495 131.687 28.8219 133.268C29.7488 134.794 31.1664 136.103 33.0746 137.193C34.9829 138.229 37.382 138.747 40.2717 138.747C44.9061 138.747 49.2407 137.793 53.2754 135.885C57.3646 133.976 61.2084 131.387 64.8069 128.115C66.061 127.025 67.315 125.853 68.569 124.599C69.823 123.345 71.1316 122.036 72.4946 120.673C70.5863 120.782 68.7871 120.918 67.0969 121.082C65.4067 121.191 63.8255 121.354 62.3534 121.573C62.0808 121.518 62.0263 121.382 62.1898 121.164C62.3534 120.946 62.5988 120.727 62.9259 120.509C63.253 120.237 63.6347 120.019 64.0709 119.855C64.5616 119.637 65.025 119.501 65.4612 119.446C66.17 119.392 67.2605 119.364 68.7326 119.364C70.2592 119.31 71.9767 119.255 73.885 119.201C76.9383 116.038 80.3187 112.631 84.0262 108.978C87.7883 105.27 92.2319 101.399 97.357 97.3644C93.704 96.1649 89.9147 95.1835 85.989 94.4202C82.1179 93.6023 78.3831 93.1934 74.7846 93.1934C70.6954 93.1934 67.3422 94.3384 64.7251 96.6284C62.108 98.8638 60.4996 102.408 59.8999 107.26C59.7908 107.533 59.6273 107.642 59.4092 107.587C59.2456 107.533 59.1366 107.369 59.082 107.097C59.7363 101.754 61.7264 97.6643 65.0523 94.8291C68.3782 91.9939 72.6855 90.5763 77.9742 90.5763C80.2096 90.5763 82.5541 90.7399 85.0076 91.067C87.4612 91.3396 89.8602 91.7213 92.2046 92.212C94.6036 92.6482 96.8663 93.1662 98.9927 93.7659C101.174 94.3111 103.082 94.8564 104.718 95.4016ZM89.6693 119.119C90.5417 115.193 91.7685 111.377 93.3496 107.669C94.9308 103.962 96.8663 100.554 99.1563 97.4462C94.3583 101.317 90.0782 105.079 86.3162 108.732C82.5541 112.385 79.0919 115.875 75.9296 119.201C78.5467 119.146 81.1092 119.119 83.6173 119.119C86.1799 119.119 88.1972 119.119 89.6693 119.119ZM115.321 124.68C115.321 125.498 115.239 126.425 115.075 127.461C114.912 128.497 114.694 129.56 114.421 130.651C115.512 128.033 116.711 125.989 118.02 124.517C119.328 123.045 120.746 122.309 122.272 122.309C123.09 122.309 123.717 122.499 124.154 122.881C124.59 123.263 124.808 123.753 124.808 124.353C124.808 124.898 124.59 125.607 124.154 126.48C123.772 127.352 123.445 127.952 123.172 128.279C123.063 128.333 122.954 128.333 122.845 128.279C122.736 128.17 122.681 128.061 122.681 127.952C122.681 127.57 122.518 127.243 122.191 126.97C121.918 126.698 121.482 126.561 120.882 126.561C118.974 126.561 117.229 127.87 115.648 130.487C114.121 133.05 112.704 136.757 111.395 141.61C111.341 141.882 111.15 142.128 110.823 142.346C110.496 142.509 110.114 142.673 109.678 142.836C109.296 142.945 108.887 143.055 108.451 143.164C108.015 143.218 107.633 143.245 107.306 143.245C106.706 143.245 106.543 142.918 106.815 142.264C107.306 141.119 107.769 139.892 108.206 138.584C108.696 137.221 109.132 135.858 109.514 134.494C109.896 133.131 110.223 131.823 110.496 130.569C110.768 129.26 110.986 128.061 111.15 126.97C111.259 126.152 111.286 125.525 111.232 125.089C111.232 124.653 111.014 124.435 110.577 124.435C110.032 124.435 109.46 124.68 108.86 125.171C108.315 125.607 107.797 126.18 107.306 126.889C107.088 127.052 106.87 127.079 106.652 126.97C106.488 126.807 106.461 126.616 106.57 126.398C106.897 125.962 107.279 125.525 107.715 125.089C108.206 124.599 108.724 124.162 109.269 123.781C109.869 123.345 110.468 122.99 111.068 122.718C111.722 122.445 112.377 122.309 113.031 122.309C113.903 122.309 114.503 122.527 114.83 122.963C115.157 123.345 115.321 123.917 115.321 124.68ZM139.685 122.718C139.958 122.827 140.067 122.99 140.013 123.208C139.958 123.372 139.713 123.508 139.277 123.617C138.459 123.617 137.505 123.644 136.414 123.699C135.378 123.753 134.26 123.835 133.061 123.944C131.971 126.616 131.071 129.233 130.362 131.796C129.653 134.304 129.299 136.348 129.299 137.929C129.299 139.783 130.008 140.71 131.425 140.71C132.843 140.71 134.424 139.483 136.169 137.03C136.332 136.921 136.469 136.921 136.578 137.03C136.741 137.139 136.796 137.33 136.741 137.602C135.814 139.129 134.642 140.465 133.225 141.61C131.807 142.7 130.417 143.245 129.054 143.245C127.636 143.245 126.573 142.918 125.864 142.264C125.21 141.555 124.883 140.601 124.883 139.402C124.883 137.82 125.264 135.639 126.028 132.859C126.791 130.078 127.772 127.243 128.972 124.353C127.554 124.517 126.246 124.735 125.046 125.007C124.773 124.953 124.692 124.817 124.801 124.599C124.964 124.38 125.21 124.162 125.537 123.944C125.918 123.672 126.355 123.454 126.845 123.29C127.336 123.072 127.8 122.963 128.236 122.963C128.454 122.963 128.672 122.963 128.89 122.963C129.108 122.963 129.326 122.936 129.544 122.881C130.253 121.3 130.989 119.773 131.752 118.301C132.516 116.829 133.279 115.493 134.042 114.294C134.37 113.912 134.806 113.585 135.351 113.312C135.951 112.985 136.523 112.74 137.068 112.576C137.614 112.413 138.05 112.331 138.377 112.331C138.759 112.276 138.922 112.358 138.868 112.576C137.941 113.994 137.014 115.575 136.087 117.32C135.215 119.064 134.37 120.891 133.552 122.799C134.588 122.745 135.624 122.718 136.659 122.718C137.75 122.718 138.759 122.718 139.685 122.718Z" fill="black"/>
<path d="M187.609 90.5763C189.572 90.5763 191.372 90.6854 193.007 90.9035C194.643 91.067 196.061 91.3396 197.26 91.7213C198.46 92.103 199.386 92.5664 200.041 93.1116C200.749 93.6023 201.104 94.1748 201.104 94.8291C201.104 95.2653 200.995 95.865 200.777 96.6284C200.559 97.3372 200.286 98.1005 199.959 98.9183C199.686 99.6816 199.359 100.445 198.977 101.208C198.596 101.972 198.241 102.571 197.914 103.008C197.751 103.117 197.533 103.117 197.26 103.008C197.042 102.844 196.987 102.626 197.096 102.353C198.241 100.336 198.487 98.782 197.833 97.6916C197.124 96.5466 195.624 95.4561 193.334 94.4202C191.044 93.3843 188.209 92.8663 184.829 92.8663C180.576 92.8663 176.841 93.5206 173.624 94.8291C170.462 96.1377 167.818 97.9914 165.691 100.39C163.565 102.789 161.957 105.706 160.866 109.141C159.83 112.576 159.312 116.42 159.312 120.673C159.312 123.726 159.721 126.561 160.539 129.178C161.357 131.741 162.556 133.976 164.137 135.885C165.719 137.739 167.654 139.211 169.944 140.301C172.234 141.337 174.851 141.855 177.795 141.855C181.721 141.855 184.992 140.656 187.609 138.257C190.227 135.803 192.08 132.559 193.171 128.524C193.28 128.252 193.471 128.143 193.743 128.197C194.016 128.252 194.152 128.415 194.152 128.688C193.934 129.833 193.607 131.114 193.171 132.532C192.789 133.895 192.353 135.203 191.862 136.457C191.372 137.657 190.881 138.72 190.39 139.647C189.899 140.519 189.491 141.01 189.163 141.119C187.419 141.773 185.456 142.291 183.275 142.673C181.149 143.055 178.886 143.245 176.487 143.245C168.854 143.245 163.129 141.473 159.312 137.929C155.496 134.385 153.587 129.478 153.587 123.208C153.587 118.574 154.405 114.266 156.041 110.286C157.731 106.252 160.075 102.789 163.074 99.8997C166.128 97.01 169.726 94.7473 173.87 93.1116C178.013 91.4214 182.593 90.5763 187.609 90.5763ZM232.603 82.4797C233.421 82.4797 234.075 82.6978 234.566 83.134C235.111 83.5156 235.465 84.0609 235.629 84.7696C235.847 85.4239 235.874 86.1872 235.711 87.0596C235.602 87.932 235.302 88.8043 234.811 89.6767C234.702 89.7857 234.566 89.7857 234.402 89.6767C234.239 89.5677 234.13 89.4314 234.075 89.2678C234.184 88.6135 233.939 88.0683 233.339 87.6321C232.794 87.1959 231.921 86.9778 230.722 86.9778C228.486 86.9778 226.224 87.8229 223.934 89.5131C221.698 91.1488 219.517 93.3297 217.391 96.0559C215.265 98.782 213.275 101.917 211.421 105.461C209.567 109.005 207.959 112.658 206.596 116.42C205.232 120.182 204.142 123.917 203.324 127.625C202.561 131.332 202.179 134.713 202.179 137.766C202.179 139.402 202.643 140.219 203.57 140.219C204.224 140.219 204.851 139.947 205.451 139.402C206.105 138.856 206.841 138.038 207.659 136.948C207.822 136.839 207.959 136.866 208.068 137.03C208.231 137.139 208.286 137.302 208.231 137.52C207.141 139.156 205.86 140.519 204.387 141.61C202.915 142.7 201.579 143.245 200.38 143.245C199.344 143.245 198.608 142.945 198.172 142.346C197.79 141.746 197.599 140.983 197.599 140.056C197.599 137.493 198.145 134.304 199.235 130.487C200.325 126.616 201.77 122.554 203.57 118.301C205.423 113.994 207.55 109.714 209.949 105.461C212.348 101.208 214.829 97.3917 217.391 94.0113C220.008 90.5763 222.625 87.7957 225.242 85.6693C227.859 83.5429 230.313 82.4797 232.603 82.4797ZM232.308 138.093C232.417 137.984 232.553 137.984 232.717 138.093C232.88 138.202 232.935 138.366 232.88 138.584C231.899 140.001 230.808 141.146 229.609 142.019C228.409 142.836 227.264 143.245 226.174 143.245C224.92 143.245 224.102 142.373 223.72 140.628C223.393 138.829 223.584 136.703 224.293 134.249C222.821 136.594 221.212 138.611 219.468 140.301C217.777 141.937 215.978 142.918 214.07 143.245C212.761 143.245 211.753 142.646 211.044 141.446C210.335 140.247 209.981 138.856 209.981 137.275C209.981 135.476 210.417 133.704 211.289 131.959C212.162 130.16 213.307 128.551 214.724 127.134C216.196 125.716 217.805 124.571 219.549 123.699C221.349 122.772 223.148 122.309 224.947 122.309C226.855 122.309 228.355 122.772 229.445 123.699C229.991 123.317 230.672 122.99 231.49 122.718C232.362 122.445 233.126 122.309 233.78 122.309C233.998 122.309 234.107 122.445 234.107 122.718C232.853 124.244 231.763 125.934 230.836 127.788C229.963 129.587 229.282 131.332 228.791 133.022C228.3 134.658 228 136.13 227.891 137.439C227.782 138.747 227.891 139.647 228.219 140.138C228.491 140.465 228.955 140.574 229.609 140.465C230.263 140.301 231.163 139.511 232.308 138.093ZM216.605 140.219C217.259 140.219 218.05 139.81 218.977 138.993C219.958 138.175 220.967 137.084 222.003 135.721C223.039 134.358 224.048 132.832 225.029 131.141C226.065 129.451 226.965 127.734 227.728 125.989C227.51 125.28 226.992 124.708 226.174 124.271C225.411 123.835 224.511 123.617 223.475 123.617C222.221 123.617 221.049 123.944 219.958 124.599C218.868 125.198 217.914 126.071 217.096 127.216C216.333 128.306 215.706 129.642 215.215 131.223C214.779 132.75 214.561 134.44 214.561 136.294C214.561 137.493 214.751 138.447 215.133 139.156C215.569 139.865 216.06 140.219 216.605 140.219ZM246.877 122.309C248.077 122.309 249.031 122.472 249.74 122.799C250.503 123.126 250.885 123.535 250.885 124.026C250.885 124.626 250.721 125.307 250.394 126.071C250.122 126.834 249.849 127.461 249.576 127.952C249.467 128.061 249.331 128.088 249.167 128.033C249.004 127.924 248.922 127.761 248.922 127.543C249.086 127.161 249.167 126.616 249.167 125.907C249.167 125.144 248.949 124.517 248.513 124.026C248.132 123.535 247.586 123.29 246.877 123.29C245.951 123.29 245.187 123.59 244.588 124.19C244.042 124.735 243.77 125.525 243.77 126.561C243.77 127.434 243.988 128.279 244.424 129.097C244.915 129.86 245.433 130.651 245.978 131.468C246.578 132.232 247.123 133.077 247.614 134.004C248.104 134.876 248.35 135.885 248.35 137.03C248.35 138.993 247.559 140.519 245.978 141.61C244.397 142.7 242.325 143.245 239.762 143.245C237.908 143.245 236.436 142.945 235.346 142.346C234.31 141.746 233.792 141.092 233.792 140.383C233.792 140.165 233.874 139.865 234.037 139.483C234.201 139.102 234.419 138.693 234.692 138.257C234.964 137.82 235.264 137.384 235.591 136.948C235.918 136.512 236.273 136.157 236.654 135.885C236.818 135.776 236.954 135.803 237.063 135.967C237.227 136.13 237.254 136.294 237.145 136.457C236.818 136.784 236.573 137.139 236.409 137.52C236.246 137.848 236.164 138.311 236.164 138.911C236.164 139.892 236.491 140.71 237.145 141.364C237.799 141.964 238.645 142.264 239.68 142.264C241.098 142.264 242.189 141.882 242.952 141.119C243.77 140.301 244.179 139.32 244.179 138.175C244.179 137.139 243.933 136.185 243.443 135.312C243.006 134.385 242.516 133.513 241.97 132.695C241.425 131.823 240.907 130.95 240.417 130.078C239.98 129.206 239.762 128.279 239.762 127.297C239.762 125.88 240.362 124.708 241.562 123.781C242.761 122.799 244.533 122.309 246.877 122.309ZM263.73 122.309C264.929 122.309 265.883 122.472 266.592 122.799C267.355 123.126 267.737 123.535 267.737 124.026C267.737 124.626 267.573 125.307 267.246 126.071C266.974 126.834 266.701 127.461 266.428 127.952C266.319 128.061 266.183 128.088 266.019 128.033C265.856 127.924 265.774 127.761 265.774 127.543C265.938 127.161 266.019 126.616 266.019 125.907C266.019 125.144 265.801 124.517 265.365 124.026C264.984 123.535 264.438 123.29 263.73 123.29C262.803 123.29 262.039 123.59 261.44 124.19C260.894 124.735 260.622 125.525 260.622 126.561C260.622 127.434 260.84 128.279 261.276 129.097C261.767 129.86 262.285 130.651 262.83 131.468C263.43 132.232 263.975 133.077 264.466 134.004C264.956 134.876 265.202 135.885 265.202 137.03C265.202 138.993 264.411 140.519 262.83 141.61C261.249 142.7 259.177 143.245 256.614 143.245C254.76 143.245 253.288 142.945 252.198 142.346C251.162 141.746 250.644 141.092 250.644 140.383C250.644 140.165 250.726 139.865 250.889 139.483C251.053 139.102 251.271 138.693 251.544 138.257C251.816 137.82 252.116 137.384 252.443 136.948C252.77 136.512 253.125 136.157 253.506 135.885C253.67 135.776 253.806 135.803 253.915 135.967C254.079 136.13 254.106 136.294 253.997 136.457C253.67 136.784 253.425 137.139 253.261 137.52C253.098 137.848 253.016 138.311 253.016 138.911C253.016 139.892 253.343 140.71 253.997 141.364C254.651 141.964 255.497 142.264 256.532 142.264C257.95 142.264 259.041 141.882 259.804 141.119C260.622 140.301 261.031 139.32 261.031 138.175C261.031 137.139 260.785 136.185 260.295 135.312C259.858 134.385 259.368 133.513 258.822 132.695C258.277 131.823 257.759 130.95 257.269 130.078C256.832 129.206 256.614 128.279 256.614 127.297C256.614 125.88 257.214 124.708 258.414 123.781C259.613 122.799 261.385 122.309 263.73 122.309Z" fill="black"/>
</g>
<defs>
<filter id="filter0_f_1259_395" x="421.559" y="160.384" width="85.1847" height="12.7072" filterUnits="userSpaceOnUse" color-interpolation-filters="sRGB">
<feFlood flood-opacity="0" result="BackgroundImageFix"/>
<feBlend mode="normal" in="SourceGraphic" in2="BackgroundImageFix" result="shape"/>
<feGaussianBlur stdDeviation="1.4119" result="effect1_foregroundBlur_1259_395"/>
</filter>
<filter id="filter1_f_1259_395" x="344.981" y="183.359" width="88.0157" height="11.9418" filterUnits="userSpaceOnUse" color-interpolation-filters="sRGB">
<feFlood flood-opacity="0" result="BackgroundImageFix"/>
<feBlend mode="normal" in="SourceGraphic" in2="BackgroundImageFix" result="shape"/>
<feGaussianBlur stdDeviation="1.32687" result="effect1_foregroundBlur_1259_395"/>
</filter>
<filter id="filter2_d_1259_395" x="87.8782" y="51.7087" width="82.9065" height="29.864" filterUnits="userSpaceOnUse" color-interpolation-filters="sRGB">
<feFlood flood-opacity="0" result="BackgroundImageFix"/>
<feColorMatrix in="SourceAlpha" type="matrix" values="0 0 0 0 0 0 0 0 0 0 0 0 0 0 0 0 0 0 127 0" result="hardAlpha"/>
<feOffset dy="2.19092"/>
<feGaussianBlur stdDeviation="2.19092"/>
<feComposite in2="hardAlpha" operator="out"/>
<feColorMatrix type="matrix" values="0 0 0 0 0 0 0 0 0 0 0 0 0 0 0 0 0 0 0.1 0"/>
<feBlend mode="normal" in2="BackgroundImageFix" result="effect1_dropShadow_1259_395"/>
<feBlend mode="normal" in="SourceGraphic" in2="effect1_dropShadow_1259_395" result="shape"/>
</filter>
<filter id="filter3_d_1259_395" x="105.147" y="81.5063" width="50.3877" height="30.4004" filterUnits="userSpaceOnUse" color-interpolation-filters="sRGB">
<feFlood flood-opacity="0" result="BackgroundImageFix"/>
<feColorMatrix in="SourceAlpha" type="matrix" values="0 0 0 0 0 0 0 0 0 0 0 0 0 0 0 0 0 0 127 0" result="hardAlpha"/>
<feOffset dy="2.19092"/>
<feGaussianBlur stdDeviation="2.19092"/>
<feComposite in2="hardAlpha" operator="out"/>
<feColorMatrix type="matrix" values="0 0 0 0 0 0 0 0 0 0 0 0 0 0 0 0 0 0 0.1 0"/>
<feBlend mode="normal" in2="BackgroundImageFix" result="effect1_dropShadow_1259_395"/>
<feBlend mode="normal" in="SourceGraphic" in2="effect1_dropShadow_1259_395" result="shape"/>
</filter>
<radialGradient id="paint0_radial_1259_395" cx="0" cy="0" r="1" gradientUnits="userSpaceOnUse" gradientTransform="translate(471.539 122.508) rotate(95.2683) scale(7.35173 5.63747)">
<stop stop-color="white"/>
<stop offset="1" stop-color="#E7E7E7"/>
</radialGradient>
<radialGradient id="paint1_radial_1259_395" cx="0" cy="0" r="1" gradientUnits="userSpaceOnUse" gradientTransform="translate(457.392 103.609) rotate(95.2683) scale(7.35173 5.63747)">
<stop stop-color="white"/>
<stop offset="1" stop-color="#E7E7E7"/>
</radialGradient>
<linearGradient id="paint2_linear_1259_395" x1="439.723" y1="176.398" x2="312.145" y2="176.398" gradientUnits="userSpaceOnUse">
<stop offset="0.528394" stop-color="#B1A5FA"/>
<stop offset="1" stop-color="#DBAEEB" stop-opacity="0"/>
</linearGradient>
<linearGradient id="paint3_linear_1259_395" x1="340.439" y1="115.091" x2="304.046" y2="115.091" gradientUnits="userSpaceOnUse">
<stop stop-color="white"/>
<stop offset="1" stop-color="white" stop-opacity="0"/>
</linearGradient>
<linearGradient id="paint4_linear_1259_395" x1="337.02" y1="114.005" x2="306.288" y2="114.005" gradientUnits="userSpaceOnUse">
<stop stop-color="white"/>
<stop offset="1" stop-color="white" stop-opacity="0"/>
</linearGradient>
<radialGradient id="paint5_radial_1259_395" cx="0" cy="0" r="1" gradientUnits="userSpaceOnUse" gradientTransform="translate(402.174 106.648) rotate(50.7968) scale(12.0001 9.60011)">
<stop stop-color="white"/>
<stop offset="1" stop-color="#E7E7E7"/>
</radialGradient>
<radialGradient id="paint6_radial_1259_395" cx="0" cy="0" r="1" gradientUnits="userSpaceOnUse" gradientTransform="translate(379.371 101.443) rotate(50.7968) scale(12.0001 9.60011)">
<stop stop-color="white"/>
<stop offset="1" stop-color="#E7E7E7"/>
</radialGradient>
<clipPath id="clip0_1259_395">
<rect width="518" height="200" fill="white"/>
</clipPath>
</defs>
</svg>
