<svg width="518" height="200" viewBox="0 0 518 200" fill="none" xmlns="http://www.w3.org/2000/svg">
<g clip-path="url(#clip0_1353_2129)">
<rect width="518" height="200" fill="white"/>
<ellipse cx="356.631" cy="184.062" rx="26.394" ry="4.84788" fill="#1D1D1D" fill-opacity="0.2"/>
<ellipse cx="455.204" cy="185.14" rx="31.2419" ry="7.00249" fill="#1D1D1D" fill-opacity="0.2"/>
<path opacity="0.34" d="M282.827 198.456C283.358 198.971 283.888 199.486 284.417 200L518 200V0L315.655 6.10352e-05C305.844 11.7894 304.655 28.3335 303.438 45.2649C302.479 58.6058 301.503 72.1871 296.278 83.8722C291.728 94.0484 283.262 102.316 274.948 110.436C263.32 121.791 251.99 132.857 252.085 148.445C252.208 168.728 267.615 183.686 282.824 198.453L282.827 198.456Z" fill="#FDC17B"/>
<mask id="path-4-outside-1_1353_2129" maskUnits="userSpaceOnUse" x="319.453" y="8" width="84" height="179" fill="black">
<rect fill="white" x="319.453" y="8" width="84" height="179"/>
<path fill-rule="evenodd" clip-rule="evenodd" d="M343.364 155.34C343.238 155.331 342.757 155.21 343.165 155.514C343.461 155.546 344.515 154.966 344.781 154.975C344.633 154.97 343.521 155.352 343.364 155.34Z"/>
</mask>
<path fill-rule="evenodd" clip-rule="evenodd" d="M343.364 155.34C343.238 155.331 342.757 155.21 343.165 155.514C343.461 155.546 344.515 154.966 344.781 154.975C344.633 154.97 343.521 155.352 343.364 155.34Z" fill="#1D1D1D"/>
<path d="M345.397 58.298L345.429 59.048L344.81 59.0741L344.667 58.4713L345.397 58.298ZM368.6 72.1764L369.238 71.7817L369.548 72.2836L369.134 72.7036L368.6 72.1764ZM342.177 36.8232L341.427 36.8383L342.177 36.8232ZM343.498 24.7181L342.782 24.4936L343.498 24.7181ZM345.06 21.3926L345.658 21.8459L345.06 21.3926ZM345.295 19.9205L345.97 19.5929V19.5929L345.295 19.9205ZM340.291 9.60688L339.615 9.93453V9.93453L340.291 9.60688ZM338.368 9.70843L337.655 9.47382V9.47382L338.368 9.70843ZM336.211 18.4987L335.47 18.3752V18.3752L336.211 18.4987ZM336.018 19.7346L336.76 19.8427V19.8427L336.018 19.7346ZM337.85 43.8504L338.565 43.6201L338.565 43.6202L337.85 43.8504ZM337.887 43.9636L338.601 43.7334L338.601 43.7335L337.887 43.9636ZM342.447 58.6387L343.165 58.4208L343.407 59.22L342.587 59.3761L342.447 58.6387ZM340.661 59.0625L340.867 59.7843H340.867L340.661 59.0625ZM329.923 108.717V109.468H329.39L329.214 108.965L329.923 108.717ZM341.366 108.717V107.967L341.628 109.421L341.366 108.717ZM331.253 112.48L330.547 112.733L330.297 112.035L330.992 111.777L331.253 112.48ZM342.347 139.098L343.002 138.732L343.327 139.314L342.787 139.706L342.347 139.098ZM337.525 142.526L337.943 143.149L337.943 143.149L337.525 142.526ZM335.449 143.277L335.641 144.002L335.641 144.002L335.449 143.277ZM333.072 146.185L333.709 145.788L333.709 145.788L333.072 146.185ZM336.706 151.154L336.113 151.614L336.706 151.154ZM339.337 154.631L339.947 154.194L340.418 154.851L339.728 155.272L339.337 154.631ZM336.452 156.388L336.843 157.029L335.225 158.015L335.729 156.189L336.452 156.388ZM337.308 153.286L337.714 152.655L338.178 152.954L338.031 153.486L337.308 153.286ZM332.576 143.178L331.827 143.135L332.576 143.178ZM320.541 119.123L319.905 119.521L321.063 118.583L320.541 119.123ZM325.544 143.853L325.925 143.206L327.251 143.986L325.821 144.551L325.544 143.853ZM321.903 145.294L321.154 145.247V145.247L321.903 145.294ZM325.273 163.178L324.811 163.77L324.694 163.679L324.621 163.551L325.273 163.178ZM325.274 163.179L325.736 162.587L325.845 162.673L325.916 162.791L325.274 163.179ZM342.619 174.874L342.664 174.125L342.974 174.144L343.18 174.376L342.619 174.874ZM341.707 183.112L341.646 182.364H341.646L341.707 183.112ZM339.473 183.584L339.934 184.177H339.934L339.473 183.584ZM344.206 185.611L344.146 184.863L344.206 185.611ZM345.508 185.519L345.557 186.268H345.557L345.508 185.519ZM348.804 183.584L348.193 184.021L348.804 183.584ZM345.369 174.801L344.727 175.191L344.118 174.188L345.284 174.056L345.369 174.801ZM348.939 173.989L348.696 173.279H348.696L348.939 173.989ZM353.949 172.632L353.775 171.901L353.785 171.899L353.949 172.632ZM353.952 172.631L354.126 173.361L354.116 173.364L353.952 172.631ZM364.912 168.697L364.522 168.056L364.81 167.88L365.133 167.98L364.912 168.697ZM369.899 171.962L370.487 171.496L371.451 172.713H369.899V171.962ZM365.301 181.828L364.69 181.391L365.301 181.828ZM368.597 183.762L368.547 184.511H368.547L368.597 183.762ZM369.899 183.855L369.958 183.106L369.899 183.855ZM374.632 181.828L374.171 182.42H374.171L374.632 181.828ZM372.398 181.356L372.458 180.607H372.458L372.398 181.356ZM372.603 171.962L373.208 171.517L373.603 172.055L373.116 172.511L372.603 171.962ZM368.303 166.122L367.698 166.567L367.303 166.031L367.789 165.575L368.303 166.122ZM376.757 148.559L376.021 148.411L376.36 146.723L377.366 148.12L376.757 148.559ZM379.635 152.638L380.259 152.221L380.259 152.221L379.635 152.638ZM380.381 154.714L381.108 154.524L381.108 154.524L380.381 154.714ZM383.286 157.097L382.891 156.459L382.891 156.459L383.286 157.097ZM402.416 151.671L403.167 151.671L403.167 151.915L403.024 152.112L402.416 151.671ZM401.907 149.472L402.319 148.845L402.319 148.845L401.907 149.472ZM401.728 149.361L401.347 150.008L401.23 149.939L401.144 149.833L401.728 149.361ZM395.186 148.718L394.895 148.026L395.035 147.968H395.186V148.718ZM383.286 153.719L383.577 154.411L382.965 154.668L382.635 154.092L383.286 153.719ZM377.549 143.716L376.898 144.089L376.772 143.87L376.805 143.619L377.549 143.716ZM378.391 129.584L378.272 128.843L379.144 128.702L379.141 129.586L378.391 129.584ZM373.685 130.339L373.804 131.081L371.218 131.496L373.192 129.774L373.685 130.339ZM378.366 126.255L379.117 126.242L379.123 126.591L378.86 126.821L378.366 126.255ZM375.037 89.9328L374.295 90.0412L374.288 89.9971L374.287 89.9525L375.037 89.9328ZM373.606 84.2303L374.31 83.9701L374.31 83.9701L373.606 84.2303ZM370.696 76.1038L371.379 75.7922L370.696 76.1038ZM362.326 78.446L362.528 79.1688L359.768 79.9413L361.795 77.915L362.326 78.446ZM336.452 146.177L335.808 146.563L335.416 145.908L336.078 145.526L336.452 146.177ZM341.784 155.081L341.632 155.816L341.309 155.75L341.14 155.467L341.784 155.081ZM343.86 141.91L343.485 141.26L344.219 140.837L344.551 141.616L343.86 141.91ZM344.781 154.975L345.489 155.223H345.489L344.781 154.975ZM353.399 145.279L354.142 145.175L353.399 145.279ZM345.04 146.895L345.788 146.837L345.04 146.895ZM344.616 144.202L343.887 144.379L344.616 144.202ZM345.365 57.5481C354.58 57.1591 363.657 62.7528 369.238 71.7817L367.961 72.5711C362.596 63.8924 353.981 58.6869 345.429 59.048L345.365 57.5481ZM342.927 36.808C343.043 42.5078 344.167 49.8636 346.127 58.1247L344.667 58.4713C342.694 50.1567 341.545 42.6862 341.427 36.8383L342.927 36.808ZM344.214 24.9425C343.439 27.4168 342.815 31.2391 342.927 36.808L341.427 36.8383C341.312 31.1513 341.946 27.1602 342.782 24.4936L344.214 24.9425ZM345.658 21.8459C345.226 22.4163 344.695 23.4095 344.214 24.9426L342.782 24.4936C343.297 22.8496 343.896 21.6864 344.462 20.9393L345.658 21.8459ZM345.97 19.5929C346.364 20.4048 346.083 21.2858 345.658 21.8459L344.462 20.9393C344.674 20.659 344.685 20.3847 344.619 20.2482L345.97 19.5929ZM340.966 9.27923L345.97 19.5929L344.619 20.2482L339.615 9.93453L340.966 9.27923ZM337.655 9.47382C338.176 7.89056 340.279 7.86268 340.966 9.27923L339.615 9.93453C339.549 9.79742 339.434 9.74546 339.323 9.751C339.265 9.75385 339.215 9.77244 339.178 9.79985C339.144 9.82475 339.106 9.86626 339.081 9.94305L337.655 9.47382ZM335.47 18.3752C336.065 14.8139 336.897 11.7788 337.655 9.47382L339.081 9.94305C338.343 12.1873 337.531 15.1476 336.951 18.6223L335.47 18.3752ZM335.275 19.6265C335.336 19.2026 335.402 18.7854 335.47 18.3752L336.951 18.6223C336.884 19.0224 336.821 19.4293 336.76 19.8427L335.275 19.6265ZM337.136 44.0807C334.227 35.0582 334.28 26.465 335.275 19.6265L336.76 19.8427C335.789 26.5168 335.744 34.8691 338.565 43.6201L337.136 44.0807ZM337.172 44.1939L337.136 44.0806L338.565 43.6202L338.601 43.7334L337.172 44.1939ZM341.728 58.8566C340.242 53.9575 338.715 48.9824 337.172 44.1938L338.601 43.7335C340.148 48.5345 341.678 53.5194 343.165 58.4208L341.728 58.8566ZM340.455 58.3407C341.07 58.1653 341.687 58.0191 342.306 57.9013L342.587 59.3761C342.012 59.4855 341.438 59.6213 340.867 59.7843L340.455 58.3407ZM324.551 94.9986C319.907 78.7392 326.856 62.2202 340.455 58.3407L340.867 59.7843C328.325 63.3622 321.496 78.8369 325.995 94.5863L324.551 94.9986ZM324.553 95.0036L324.551 94.999L325.995 94.5859L325.996 94.5905L324.553 95.0036ZM324.551 94.9959L324.548 94.9877L325.998 94.5972L326 94.6055L324.551 94.9959ZM325.279 97.2746C325.015 96.53 324.772 95.771 324.551 94.9986L325.995 94.5863C326.207 95.3289 326.44 96.0581 326.694 96.7727L325.279 97.2746ZM326.698 96.7857L326.701 96.7935L325.272 97.2538L325.269 97.246L326.698 96.7857ZM326.702 96.7962L326.705 96.8075L325.267 97.2398L325.264 97.2285L326.702 96.7962ZM329.214 108.965C327.694 104.614 326.335 100.547 325.272 97.2544L326.7 96.793C327.76 100.074 329.115 104.13 330.631 108.47L329.214 108.965ZM341.366 109.468H329.923V107.967H341.366V109.468ZM330.992 111.777L341.104 108.014L341.628 109.421L331.515 113.184L330.992 111.777ZM341.692 139.465C338.322 133.444 334.115 122.698 330.547 112.733L331.96 112.227C335.532 122.202 339.701 132.835 343.002 138.732L341.692 139.465ZM337.108 141.902C338.094 141.241 340.272 139.676 341.906 138.491L342.787 139.706C341.161 140.886 338.958 142.47 337.943 143.149L337.108 141.902ZM335.257 142.551C336.098 142.329 336.736 142.151 337.108 141.902L337.943 143.149C337.315 143.57 336.385 143.806 335.641 144.002L335.257 142.551ZM332.435 146.582C332.086 146.022 331.885 145.461 331.931 144.909C331.978 144.326 332.287 143.894 332.665 143.588C333.027 143.296 333.477 143.097 333.907 142.945C334.342 142.792 334.82 142.666 335.257 142.551L335.641 144.002C335.19 144.121 334.774 144.232 334.406 144.361C334.033 144.493 333.772 144.624 333.608 144.756C333.462 144.874 333.433 144.958 333.427 145.032C333.418 145.135 333.448 145.369 333.709 145.788L332.435 146.582ZM336.113 151.614C334.746 149.851 333.354 148.058 332.435 146.582L333.709 145.788C334.578 147.184 335.915 148.909 337.299 150.694L336.113 151.614ZM338.727 155.068C337.946 153.978 337.032 152.8 336.113 151.614L337.299 150.694C338.214 151.874 339.146 153.076 339.947 154.194L338.727 155.068ZM336.062 155.747L338.947 153.99L339.728 155.272L336.843 157.029L336.062 155.747ZM338.031 153.486L337.176 156.588L335.729 156.189L336.584 153.086L338.031 153.486ZM333.326 143.221C333.043 148.135 335.164 151.013 337.714 152.655L336.901 153.917C333.927 152.002 331.511 148.625 331.827 143.135L333.326 143.221ZM321.063 118.583C323.225 120.675 326.413 124.389 328.997 128.78C331.574 133.155 333.609 138.3 333.326 143.221L331.827 143.135C332.085 138.65 330.221 133.817 327.704 129.541C325.195 125.28 322.095 121.67 320.019 119.662L321.063 118.583ZM321.833 140.057C323.963 129.411 321.369 121.862 319.905 119.521L321.178 118.725C322.868 121.429 325.501 129.376 323.306 140.352L321.833 140.057ZM321.524 141.813C321.612 141.233 321.715 140.648 321.833 140.057L323.306 140.352C323.192 140.92 323.093 141.483 323.008 142.04L321.524 141.813ZM325.164 144.501L321.885 142.573L322.646 141.279L325.925 143.206L325.164 144.501ZM321.627 144.596L325.268 143.155L325.821 144.551L322.179 145.992L321.627 144.596ZM324.621 163.551C323.039 160.782 320.607 153.879 321.154 145.247L322.652 145.342C322.124 153.677 324.486 160.289 325.924 162.806L324.621 163.551ZM324.812 163.771L324.811 163.77L325.735 162.587L325.736 162.587L324.812 163.771ZM342.574 175.624C338.198 175.36 334.356 173.405 331.304 171.009C328.253 168.614 325.947 165.745 324.631 163.567L325.916 162.791C327.146 164.827 329.335 167.555 332.231 169.828C335.126 172.101 338.684 173.886 342.664 174.125L342.574 175.624ZM344.943 180.746C344.943 179.981 344.601 179.045 344.032 178.056C343.472 177.084 342.738 176.138 342.058 175.373L343.18 174.376C343.904 175.19 344.707 176.219 345.333 177.307C345.95 178.379 346.444 179.59 346.444 180.746H344.943ZM341.646 182.364C342.594 182.287 343.461 182.209 344.098 181.946C344.401 181.821 344.602 181.672 344.728 181.504C344.848 181.346 344.943 181.116 344.943 180.746H346.444C346.444 181.398 346.269 181.956 345.927 182.409C345.591 182.853 345.138 183.141 344.672 183.333C343.773 183.705 342.647 183.789 341.768 183.861L341.646 182.364ZM339.012 182.992C339.375 182.71 339.852 182.588 340.26 182.516C340.688 182.441 341.179 182.402 341.646 182.364L341.768 183.861C341.281 183.9 340.864 183.935 340.518 183.995C340.152 184.059 339.989 184.134 339.934 184.177L339.012 182.992ZM344.266 186.36C342.479 186.503 340.856 186.224 339.8 185.735C339.299 185.503 338.785 185.16 338.547 184.663C338.415 184.387 338.369 184.062 338.472 183.731C338.57 183.415 338.78 183.172 339.012 182.992L339.934 184.177C339.862 184.233 339.886 184.24 339.905 184.178C339.929 184.101 339.91 184.034 339.901 184.014C339.898 184.008 339.918 184.051 340.014 184.127C340.106 184.2 340.242 184.286 340.431 184.373C341.2 184.729 342.552 184.991 344.146 184.863L344.266 186.36ZM345.557 186.268C345.142 186.296 344.711 186.324 344.266 186.36L344.146 184.863C344.603 184.827 345.044 184.798 345.458 184.77L345.557 186.268ZM349.414 183.148C349.733 183.593 350 184.127 349.901 184.685C349.79 185.309 349.295 185.631 348.887 185.796C348.472 185.964 347.95 186.055 347.412 186.118C346.862 186.182 346.225 186.224 345.557 186.268L345.458 184.77C346.138 184.725 346.733 184.686 347.237 184.627C347.752 184.567 348.106 184.493 348.324 184.404C348.55 184.313 348.447 184.287 348.423 184.422C348.411 184.491 348.46 184.395 348.193 184.021L349.414 183.148ZM347.526 178.719C347.526 179.578 348.105 181.317 349.414 183.148L348.193 184.021C346.797 182.068 346.025 180.023 346.025 178.719H347.526ZM346.011 174.412C346.423 175.091 346.795 175.943 347.063 176.71C347.322 177.447 347.526 178.222 347.526 178.719H346.025C346.025 178.501 345.903 177.938 345.647 177.206C345.401 176.504 345.07 175.755 344.727 175.191L346.011 174.412ZM349.182 174.699C347.915 175.134 346.67 175.409 345.453 175.547L345.284 174.056C346.391 173.93 347.53 173.679 348.696 173.279L349.182 174.699ZM354.124 173.362C352.352 173.785 350.695 174.181 349.182 174.699L348.696 173.279C350.289 172.733 352.018 172.321 353.775 171.902L354.124 173.362ZM354.116 173.364L354.113 173.364L353.785 171.899L353.788 171.899L354.116 173.364ZM365.302 169.338C361.624 171.576 357.667 172.516 354.126 173.361L353.777 171.901C357.345 171.049 361.075 170.153 364.522 168.056L365.302 169.338ZM369.31 172.429C368.698 171.656 367.011 170.13 364.69 169.414L365.133 167.98C367.789 168.8 369.719 170.526 370.487 171.496L369.31 172.429ZM366.579 176.963C366.579 176.574 366.701 176.036 366.86 175.509C367.026 174.957 367.258 174.334 367.525 173.746C367.79 173.164 368.104 172.585 368.443 172.138C368.612 171.915 368.806 171.7 369.024 171.535C369.237 171.373 369.537 171.212 369.899 171.212V172.713C369.99 172.713 370.006 172.674 369.931 172.731C369.861 172.784 369.761 172.884 369.639 173.045C369.394 173.367 369.134 173.835 368.892 174.368C368.652 174.895 368.444 175.454 368.297 175.942C368.144 176.453 368.08 176.81 368.08 176.963H366.579ZM364.69 181.391C365.999 179.56 366.579 177.821 366.579 176.963H368.08C368.08 178.266 367.307 180.312 365.912 182.264L364.69 181.391ZM368.547 184.511C367.879 184.467 367.243 184.425 366.693 184.361C366.155 184.298 365.633 184.207 365.217 184.039C364.809 183.874 364.315 183.552 364.204 182.928C364.104 182.37 364.372 181.837 364.69 181.391L365.912 182.264C365.644 182.638 365.694 182.734 365.682 182.665C365.658 182.53 365.555 182.556 365.781 182.647C365.999 182.736 366.352 182.81 366.868 182.87C367.372 182.929 367.967 182.969 368.646 183.013L368.547 184.511ZM369.839 184.603C369.394 184.567 368.963 184.539 368.547 184.511L368.646 183.013C369.06 183.041 369.502 183.07 369.958 183.106L369.839 184.603ZM375.092 181.235C375.324 181.415 375.534 181.658 375.633 181.974C375.736 182.305 375.69 182.63 375.558 182.906C375.319 183.403 374.806 183.747 374.304 183.978C373.248 184.467 371.626 184.746 369.839 184.603L369.958 183.106C371.552 183.234 372.905 182.972 373.674 182.616C373.862 182.529 373.999 182.444 374.091 182.37C374.186 182.294 374.207 182.251 374.204 182.257C374.194 182.277 374.176 182.344 374.2 182.421C374.219 182.483 374.243 182.476 374.171 182.42L375.092 181.235ZM372.458 180.607C372.925 180.645 373.417 180.685 373.845 180.76C374.253 180.831 374.73 180.953 375.092 181.235L374.171 182.42C374.116 182.377 373.952 182.302 373.586 182.238C373.24 182.178 372.824 182.143 372.337 182.104L372.458 180.607ZM369.162 178.99C369.162 179.359 369.256 179.589 369.376 179.748C369.503 179.915 369.704 180.064 370.006 180.189C370.644 180.453 371.511 180.53 372.458 180.607L372.337 182.104C371.458 182.032 370.332 181.948 369.433 181.576C368.967 181.384 368.513 181.096 368.178 180.652C367.836 180.199 367.661 179.641 367.661 178.99H369.162ZM373.116 172.511C372.451 173.132 371.441 174.226 370.604 175.456C369.747 176.715 369.162 177.985 369.162 178.99H367.661C367.661 177.508 368.473 175.918 369.363 174.611C370.272 173.276 371.358 172.099 372.091 171.414L373.116 172.511ZM368.907 165.677L373.208 171.517L371.999 172.407L367.698 166.567L368.907 165.677ZM377.493 148.707C375.7 157.638 372.579 163.139 368.817 166.669L367.789 165.575C371.264 162.314 374.271 157.128 376.021 148.411L377.493 148.707ZM379.011 153.054C378.449 152.213 377.23 150.502 376.148 148.997L377.366 148.12C378.444 149.619 379.68 151.353 380.259 152.221L379.011 153.054ZM379.655 154.904C379.435 154.063 379.258 153.426 379.011 153.054L380.259 152.221C380.679 152.85 380.913 153.78 381.108 154.524L379.655 154.904ZM383.681 157.735C383.12 158.083 382.558 158.282 382.006 158.235C381.424 158.186 380.992 157.877 380.687 157.498C380.396 157.136 380.197 156.685 380.047 156.255C379.894 155.819 379.77 155.342 379.655 154.904L381.108 154.524C381.225 154.975 381.335 155.391 381.464 155.758C381.594 156.132 381.725 156.393 381.857 156.557C381.974 156.703 382.059 156.733 382.132 156.739C382.236 156.748 382.471 156.719 382.891 156.459L383.681 157.735ZM393.593 152.364C390.743 153.55 386.66 155.892 383.681 157.735L382.891 156.459C385.879 154.611 390.048 152.213 393.017 150.978L393.593 152.364ZM392.393 151.732C392.483 151.569 392.578 151.411 392.678 151.259L393.932 152.083C393.854 152.202 393.779 152.326 393.709 152.455L392.393 151.732ZM402.319 148.845C402.594 149.025 402.81 149.248 402.96 149.52C403.107 149.787 403.167 150.06 403.19 150.309C403.212 150.55 403.203 150.796 403.192 151.01C403.18 151.238 403.167 151.444 403.167 151.671L401.666 151.671C401.666 151.396 401.682 151.137 401.692 150.935C401.703 150.719 401.706 150.57 401.695 150.448C401.684 150.334 401.663 150.277 401.645 150.243C401.629 150.214 401.594 150.165 401.495 150.1L402.319 148.845ZM402.108 148.714C402.179 148.756 402.25 148.799 402.319 148.845L401.495 150.1C401.447 150.068 401.397 150.037 401.347 150.008L402.108 148.714ZM400.38 147.968C401.174 147.968 401.863 148.335 402.311 148.889L401.144 149.833C400.965 149.612 400.696 149.469 400.38 149.469V147.968ZM382.995 153.027L394.895 148.026L395.477 149.41L383.577 154.411L382.995 153.027ZM378.2 143.342L383.937 153.345L382.635 154.092L376.898 144.089L378.2 143.342ZM379.141 129.586C379.125 135.001 378.827 139.71 378.293 143.812L376.805 143.619C377.328 139.59 377.624 134.945 377.64 129.581L379.141 129.586ZM373.566 129.598L378.272 128.843L378.51 130.325L373.804 131.081L373.566 129.598ZM378.86 126.821L374.179 130.905L373.192 129.774L377.873 125.69L378.86 126.821ZM375.78 89.8244C377.917 104.465 378.947 116.434 379.117 126.242L377.616 126.268C377.448 116.54 376.425 104.638 374.295 90.0412L375.78 89.8244ZM374.31 83.9701C375.005 85.851 375.732 87.7994 375.788 89.9132L374.287 89.9525C374.239 88.1287 373.613 86.4138 372.902 84.4904L374.31 83.9701ZM373.326 81.0831C373.607 82.0667 373.956 83.0125 374.31 83.9701L372.902 84.4905C372.551 83.5408 372.182 82.5425 371.883 81.4953L373.326 81.0831ZM371.379 75.7922C372.145 77.47 372.799 79.2375 373.326 81.083L371.883 81.4954C371.376 79.7219 370.748 78.0249 370.014 76.4153L371.379 75.7922ZM362.124 77.7231L370.494 75.3809L370.899 76.8266L362.528 79.1688L362.124 77.7231ZM369.13 72.7073L362.857 78.9769L361.795 77.915L368.069 71.6455L369.13 72.7073ZM337.096 145.791L342.428 154.696L341.14 155.467L335.808 146.563L337.096 145.791ZM344.234 142.56L336.827 146.827L336.078 145.526L343.485 141.26L344.234 142.56ZM343.012 155.527C343.06 155.401 343.129 155.314 343.161 155.275C343.201 155.228 343.24 155.19 343.271 155.162C343.332 155.107 343.399 155.056 343.456 155.014C343.572 154.93 343.716 154.836 343.837 154.756C343.968 154.67 344.077 154.598 344.156 154.54C344.175 154.526 344.189 154.515 344.2 154.506C344.211 154.498 344.215 154.494 344.214 154.495C344.213 154.495 344.21 154.498 344.205 154.504C344.2 154.509 344.191 154.518 344.18 154.531C344.167 154.548 344.111 154.616 344.072 154.727L345.489 155.223C345.444 155.353 345.374 155.443 345.341 155.483C345.301 155.532 345.261 155.571 345.23 155.6C345.169 155.656 345.101 155.708 345.044 155.75C344.927 155.836 344.783 155.93 344.662 156.01C344.53 156.097 344.421 156.169 344.34 156.228C344.321 156.241 344.306 156.253 344.295 156.261C344.284 156.271 344.279 156.275 344.279 156.274C344.28 156.274 344.282 156.271 344.287 156.267C344.292 156.262 344.3 156.253 344.311 156.241C344.323 156.226 344.378 156.16 344.418 156.053L343.012 155.527ZM321.154 145.247C321.225 144.13 321.345 142.983 321.524 141.813L323.008 142.04C322.836 143.165 322.72 144.267 322.652 145.342L321.154 145.247ZM321.833 140.057C323.963 129.414 321.37 121.865 319.906 119.522L321.179 118.727C322.87 121.432 325.501 129.378 323.306 140.352L321.833 140.057ZM354.131 173.365C352.366 173.783 350.707 174.177 349.182 174.699L348.696 173.279C350.303 172.729 352.035 172.319 353.785 171.905L354.131 173.365ZM370.014 76.4153C370.105 76.6168 370.277 76.6683 370.303 76.6741C370.316 76.6769 370.27 76.667 370.132 76.6858C369.864 76.7224 369.475 76.8327 368.988 76.9977C368.087 77.3026 366.836 77.807 365.975 78.0221C365.748 78.0788 365.517 78.1243 365.3 78.1414C365.099 78.1572 364.828 78.156 364.571 78.051C364.261 77.924 364.007 77.656 363.942 77.2704C363.889 76.9575 363.979 76.6592 364.075 76.4313C364.274 75.9621 364.692 75.3645 365.316 74.6167C365.953 73.8528 366.852 72.8792 368.065 71.6492L369.134 72.7036C367.934 73.9193 367.068 74.8598 366.469 75.5785C365.856 76.3133 365.564 76.7667 365.458 77.017C365.402 77.1489 365.44 77.1275 365.422 77.0211C365.392 76.842 365.259 76.7101 365.14 76.6614C365.074 76.6346 365.066 76.6539 365.182 76.6447C365.283 76.6368 365.425 76.6121 365.611 76.5656C366.402 76.3681 367.447 75.9342 368.506 75.5757C368.999 75.4088 369.507 75.2561 369.929 75.1984C370.136 75.1701 370.385 75.1552 370.624 75.2076C370.878 75.2632 371.209 75.4191 371.379 75.7922L370.014 76.4153ZM353.994 173.378C352.271 173.799 350.659 174.193 349.182 174.699L348.696 173.279C350.249 172.747 351.929 172.337 353.637 171.92L353.994 173.378ZM372.874 84.4056C372.541 83.5087 372.184 82.5502 371.883 81.4954L373.326 81.083C373.609 82.0736 373.946 82.98 374.281 83.8821L372.874 84.4056ZM395.186 147.968H400.38V149.469H395.186V147.968ZM403.024 152.112C402.671 152.599 402.001 153.184 401.083 153.459C400.133 153.743 398.973 153.676 397.721 152.925L398.493 151.638C399.396 152.18 400.121 152.179 400.653 152.02C401.216 151.852 401.624 151.486 401.809 151.23L403.024 152.112ZM397.721 152.925C395.791 151.767 394.113 152.118 393.628 152.349L392.982 150.994C393.903 150.554 396.115 150.211 398.493 151.638L397.721 152.925ZM341.936 154.346C342.227 154.406 342.541 154.532 342.755 154.613C343.017 154.712 343.161 154.758 343.246 154.767L343.083 156.26C342.773 156.226 342.444 156.101 342.223 156.017C341.954 155.915 341.776 155.846 341.632 155.816L341.936 154.346ZM354.142 145.175C354.2 145.587 353.928 145.834 353.862 145.889C353.768 145.968 353.671 146.015 353.618 146.038C353.502 146.09 353.367 146.13 353.244 146.162C352.987 146.23 352.637 146.3 352.242 146.37C351.446 146.513 350.385 146.671 349.339 146.828C348.285 146.986 347.247 147.141 346.473 147.279C346.084 147.349 345.781 147.411 345.584 147.463C345.536 147.475 345.499 147.486 345.471 147.495C345.441 147.505 345.43 147.509 345.432 147.508C345.433 147.508 345.443 147.504 345.458 147.495C345.471 147.488 345.5 147.471 345.535 147.442C345.566 147.417 345.817 147.213 345.788 146.837L344.292 146.953C344.261 146.555 344.527 146.327 344.588 146.277C344.68 146.202 344.774 146.158 344.827 146.134C344.943 146.083 345.079 146.043 345.203 146.011C345.461 145.943 345.813 145.872 346.209 145.802C347.008 145.659 348.071 145.5 349.117 145.343C350.17 145.185 351.207 145.03 351.978 144.892C352.366 144.823 352.667 144.762 352.862 144.71C352.909 144.698 352.946 144.687 352.973 144.678C353.002 144.669 353.011 144.665 353.008 144.666C353.006 144.667 352.995 144.672 352.979 144.681C352.965 144.69 352.934 144.708 352.897 144.739C352.86 144.77 352.601 144.993 352.656 145.383L354.142 145.175ZM345.788 146.837C345.999 149.554 346.499 152.339 345.489 155.223L344.072 154.727C344.948 152.224 344.518 149.873 344.292 146.953L345.788 146.837ZM344.551 141.616C344.881 142.395 345.145 143.201 345.345 144.024L343.887 144.379C343.704 143.631 343.466 142.903 343.169 142.203L344.551 141.616ZM345.345 144.024C345.293 143.809 345.159 143.693 345.113 143.658C345.085 143.635 345.061 143.622 345.048 143.615C345.035 143.607 345.026 143.604 345.025 143.603C345.023 143.602 345.035 143.607 345.065 143.616C345.093 143.624 345.132 143.633 345.182 143.644C345.388 143.687 345.702 143.73 346.108 143.771C346.913 143.852 347.983 143.918 349.074 143.986C350.154 144.053 351.255 144.122 352.091 144.209C352.505 144.252 352.881 144.302 353.166 144.365C353.304 144.395 353.459 144.437 353.597 144.498C353.664 144.529 353.764 144.58 353.859 144.663C353.952 144.743 354.106 144.911 354.142 145.175L352.656 145.383C352.688 145.613 352.82 145.748 352.876 145.797C352.934 145.848 352.981 145.867 352.982 145.868C352.985 145.869 352.948 145.854 352.844 145.831C352.645 145.787 352.338 145.744 351.935 145.702C351.137 145.619 350.071 145.552 348.981 145.484C347.902 145.417 346.798 145.349 345.957 145.264C345.539 145.222 345.161 145.173 344.873 145.113C344.734 145.083 344.58 145.045 344.445 144.988C344.378 144.96 344.284 144.915 344.191 144.843C344.105 144.776 343.947 144.628 343.887 144.379L345.345 144.024ZM344.781 154.975L344.831 153.475L344.73 156.475L344.781 154.975ZM343.364 155.34L343.478 153.843H343.478L343.364 155.34ZM343.165 155.514L343.002 157.006L342.596 156.962L342.268 156.717L343.165 155.514ZM343.478 153.843C343.336 153.832 343.23 153.847 343.215 153.849C343.197 153.851 343.184 153.853 343.177 153.854C343.17 153.855 343.166 153.856 343.165 153.856C343.165 153.856 343.172 153.855 343.188 153.851C343.203 153.848 343.222 153.843 343.247 153.836C343.351 153.809 343.489 153.768 343.65 153.721C343.801 153.676 343.977 153.624 344.122 153.584C344.194 153.564 344.278 153.542 344.359 153.524C344.399 153.515 344.453 153.504 344.513 153.495C344.554 153.488 344.679 153.469 344.831 153.475L344.73 156.475C344.864 156.48 344.963 156.463 344.972 156.462C344.999 156.458 345.014 156.454 345.009 156.455C345 156.457 344.971 156.464 344.916 156.479C344.807 156.509 344.667 156.551 344.501 156.6C344.347 156.645 344.168 156.698 344.015 156.739C343.939 156.759 343.85 156.781 343.762 156.799C343.719 156.808 343.659 156.819 343.593 156.827C343.544 156.833 343.412 156.849 343.25 156.837L343.478 153.843ZM343.25 156.837C343.172 156.831 343.1 156.82 343.081 156.817C343.04 156.811 343.034 156.81 343.013 156.807C342.942 156.797 343.037 156.817 343.18 156.806C343.209 156.804 343.55 156.788 343.895 156.539C344.108 156.385 344.339 156.127 344.447 155.754C344.551 155.395 344.496 155.083 344.432 154.888C344.323 154.557 344.127 154.371 344.115 154.36C344.068 154.312 344.041 154.294 344.062 154.31L342.268 156.717C342.187 156.657 342.085 156.576 341.987 156.477C341.924 156.414 341.699 156.188 341.58 155.826C341.51 155.615 341.455 155.29 341.563 154.919C341.674 154.535 341.912 154.268 342.135 154.106C342.501 153.842 342.877 153.818 342.948 153.812C343.176 153.795 343.389 153.828 343.431 153.834C343.585 153.855 343.508 153.845 343.478 153.843L343.25 156.837ZM343.327 154.021C343.209 154.008 343.119 154.015 343.075 154.019C343.027 154.024 342.995 154.031 342.984 154.034C342.965 154.038 342.972 154.037 343.017 154.022C343.108 153.991 343.232 153.94 343.404 153.868C343.554 153.806 343.756 153.719 343.932 153.654C344.022 153.62 344.135 153.581 344.253 153.548C344.339 153.525 344.564 153.466 344.831 153.475L344.73 156.475C344.848 156.479 344.934 156.466 344.97 156.461C345.011 156.454 345.036 156.447 345.042 156.445C345.05 156.443 345.034 156.447 344.983 156.466C344.877 156.506 344.748 156.561 344.564 156.638C344.402 156.706 344.191 156.794 343.993 156.862C343.893 156.896 343.767 156.935 343.632 156.965C343.524 156.989 343.284 157.037 343.002 157.006L343.327 154.021Z" fill="#1D1D1D" mask="url(#path-4-outside-1_1353_2129)"/>
<path d="M376.93 142.642L383.286 153.73L395.186 148.727H400.38C401.555 148.727 402.39 149.872 402.03 150.991C401.754 151.851 400.864 152.355 399.985 152.149L395.186 151.026C392.481 151.702 386.998 154.813 383.286 157.111C381.323 158.326 380.846 156.503 380.381 154.726C380.174 153.933 379.969 153.149 379.635 152.648C378.769 151.35 376.389 148.051 375.308 146.563L376.93 142.642Z" fill="#7C7C7C"/>
<path d="M372.603 171.985L367.33 164.818L363.003 168.334C366.464 168.659 369.043 170.904 369.899 171.985C368.817 171.985 367.33 175.907 367.33 176.989C367.33 178.07 366.654 179.964 365.301 181.857C363.949 183.75 366.518 183.615 369.899 183.885C373.28 184.155 375.849 182.803 374.632 181.857C373.415 180.91 368.412 182.127 368.412 179.017C368.412 176.529 371.206 173.292 372.603 171.985Z" fill="#7C7C7C"/>
<path d="M325.273 94.7669C325.49 95.5249 325.728 96.2693 325.987 96.9994C327.049 100.288 328.405 104.352 329.923 108.7H341.366L331.254 112.466C335.057 123.094 339.562 134.539 342.989 140.208C343.758 141.48 344.303 142.872 344.645 144.329L353.266 145.211L345.046 146.986C345.25 149.78 344.812 152.684 343.878 155.353C340.993 163.601 333.369 169.606 325.273 163.196C328.429 168.424 337.58 177.908 348.939 174.014C350.492 173.481 352.186 173.076 353.952 172.654C364.777 170.068 378.277 166.842 378.39 129.58L373.685 130.336L378.366 126.25C378.197 116.475 377.17 104.532 375.037 89.9042C374.985 87.9339 374.309 86.101 373.606 84.1975C373.253 83.2432 372.894 82.2712 372.604 81.2551C372.087 79.4445 371.446 77.7112 370.696 76.0664L362.326 78.4101L368.599 72.1366C362.15 61.6977 351.019 56.0575 340.661 59.0144C327.591 62.7455 320.702 78.7524 325.273 94.7669Z" fill="#EAEAEA"/>
<path fill-rule="evenodd" clip-rule="evenodd" d="M332.107 96.3233C331.694 96.3592 331.388 96.7231 331.424 97.1361C331.883 102.42 335.344 105.489 337.102 106.393C337.471 106.583 337.923 106.437 338.113 106.069C338.302 105.7 338.157 105.248 337.789 105.058C336.391 104.339 333.325 101.675 332.919 97.0061C332.883 96.5931 332.52 96.2874 332.107 96.3233Z" fill="#CFCFCF"/>
<path fill-rule="evenodd" clip-rule="evenodd" d="M344.459 106.014C344.619 106.397 345.058 106.578 345.441 106.418C347.91 105.39 349.204 103.941 349.897 102.464C350.44 101.307 350.601 100.135 350.713 99.3182C350.738 99.1315 350.761 98.9633 350.786 98.8183C350.855 98.4095 350.579 98.0222 350.17 97.9532C349.762 97.8842 349.374 98.1597 349.305 98.5685C349.271 98.7741 349.241 98.986 349.211 99.2034C349.097 100.012 348.973 100.899 348.538 101.826C348.011 102.948 347.006 104.14 344.864 105.032C344.481 105.192 344.3 105.631 344.459 106.014Z" fill="#CFCFCF"/>
<path fill-rule="evenodd" clip-rule="evenodd" d="M364.08 100.66C363.966 101.059 364.198 101.474 364.596 101.588C367.169 102.32 369.083 101.992 370.545 101.268C371.69 100.7 372.546 99.8826 373.142 99.3133C373.278 99.1831 373.401 99.0658 373.51 98.9676C373.819 98.6906 373.844 98.2161 373.567 97.9076C373.291 97.5991 372.816 97.5736 372.507 97.8505C372.352 97.9898 372.197 98.1372 372.038 98.2884C371.446 98.8511 370.797 99.4676 369.879 99.9224C368.768 100.473 367.239 100.78 365.007 100.144C364.609 100.031 364.193 100.262 364.08 100.66Z" fill="#CFCFCF"/>
<path d="M334.892 97.2062C335.689 101.752 339.283 104.92 342.919 104.282C346.556 103.644 348.857 99.4423 348.06 94.8969C347.263 90.3514 343.669 87.1835 340.033 87.8212C336.396 88.459 334.095 92.6608 334.892 97.2062Z" fill="url(#paint0_radial_1353_2129)"/>
<path fill-rule="evenodd" clip-rule="evenodd" d="M334.353 97.3006C335.182 102.025 338.974 105.529 343.014 104.82C347.053 104.112 349.427 99.5269 348.598 94.8024C347.77 90.078 343.978 86.5745 339.938 87.2829C335.899 87.9914 333.525 92.5761 334.353 97.3006ZM342.919 104.282C339.283 104.92 335.689 101.752 334.892 97.2062C334.095 92.6607 336.396 88.4589 340.033 87.8212C343.669 87.1835 347.263 90.3514 348.06 94.8968C348.857 99.4423 346.556 103.644 342.919 104.282Z" fill="#1D1D1D"/>
<path d="M335.439 96.0151C335.086 98.0373 336.439 99.9631 338.461 100.317C340.483 100.67 342.409 99.317 342.762 97.2948C343.116 95.2725 341.763 93.3467 339.741 92.9934C337.718 92.64 335.793 93.9929 335.439 96.0151Z" fill="#636363"/>
<path d="M359.773 91.5267C360.57 96.0721 364.164 99.24 367.801 98.6023C371.437 97.9646 373.739 93.7628 372.942 89.2173C372.145 84.6718 368.551 81.504 364.914 82.1417C361.278 82.7794 358.976 86.9812 359.773 91.5267Z" fill="url(#paint1_radial_1353_2129)"/>
<path fill-rule="evenodd" clip-rule="evenodd" d="M359.235 91.6211C360.064 96.3455 363.856 99.849 367.895 99.1406C371.935 98.4322 374.309 93.8474 373.48 89.1229C372.652 84.3985 368.859 80.895 364.82 81.6034C360.78 82.3119 358.406 86.8966 359.235 91.6211ZM367.801 98.6023C364.164 99.24 360.57 96.0722 359.773 91.5267C358.976 86.9812 361.278 82.7794 364.914 82.1417C368.551 81.504 372.145 84.6719 372.942 89.2173C373.739 93.7628 371.437 97.9646 367.801 98.6023Z" fill="#1D1D1D"/>
<path d="M363.423 93.9713C363.07 95.9935 364.423 97.9193 366.445 98.2727C368.467 98.626 370.393 97.2732 370.746 95.2509C371.1 93.2287 369.747 91.3029 367.725 90.9495C365.702 90.5962 363.776 91.949 363.423 93.9713Z" fill="#636363"/>
<path fill-rule="evenodd" clip-rule="evenodd" d="M325.273 94.767C325.49 95.525 325.728 96.2695 325.987 96.9995C325.731 96.2082 325.493 95.4618 325.273 94.767ZM325.273 163.196C323.763 160.551 321.366 153.79 321.903 145.3L325.545 143.859L322.266 141.93C322.353 141.362 322.454 140.787 322.57 140.208C324.733 129.39 322.119 121.637 320.542 119.113C324.779 123.215 333.117 133.771 332.577 143.183C332.277 148.389 334.545 151.517 337.308 153.297L336.092 156.57L339.635 154.467C341.176 155.055 342.696 155.313 343.878 155.353C340.993 163.601 333.369 169.606 325.273 163.196Z" fill="#9F9F9F"/>
<path fill-rule="evenodd" clip-rule="evenodd" d="M325.273 94.767C325.489 95.525 325.727 96.2694 325.986 96.9995C325.731 96.2082 325.492 95.4618 325.273 94.767ZM325.273 163.196C323.762 160.551 321.365 153.79 321.903 145.3L325.544 143.859L322.266 141.93C322.353 141.362 322.454 140.787 322.57 140.208C324.732 129.39 322.118 121.637 320.541 119.113C324.778 123.214 333.117 133.771 332.576 143.183C332.277 148.388 334.545 151.517 337.307 153.297L336.092 156.57L339.634 154.467C341.175 155.055 342.696 155.313 343.878 155.353C340.993 163.601 333.369 169.606 325.273 163.196Z" fill="#CFCFCF"/>
<path d="M357.052 93.8257C362.604 107.291 367.64 128.289 362.876 152.132C362.638 153.325 361.246 153.062 361.361 151.85C363.323 131.181 363.112 110.149 354.483 94.5018C350.565 87.3971 344.342 63.9411 337.851 43.7927C333.689 30.8745 335.677 18.8305 337.744 11.6566C338.229 9.97321 340.453 9.86064 341.217 11.437L344.956 19.1492C345.382 20.0272 345.126 21.1253 344.633 21.9676C343.403 24.0717 342.013 28.614 342.178 36.7611C342.448 50.1483 348.195 72.343 357.052 93.8257Z" fill="#4F4F4F"/>
<path d="M343.498 24.6484C343.496 24.6489 343.493 24.6494 343.491 24.6499C342.954 24.7573 342.402 24.9616 341.852 25.1654C340.614 25.6239 339.382 26.0799 338.339 25.4235C337.289 24.7623 337.17 23.4394 337.05 22.1132C336.998 21.5425 336.947 20.9712 336.821 20.4518C336.726 20.0586 336.6 19.668 336.474 19.2788C336.382 18.9936 336.29 18.7093 336.211 18.4252C335.052 25.3733 334.809 34.3494 337.851 43.7928C339.96 50.3399 342.041 57.2362 344.024 63.8073C348.143 77.4585 351.838 89.7058 354.483 94.5019C363.806 111.406 363.302 134.594 360.849 156.82C360.777 157.474 361.612 157.64 361.774 157.003C368.318 131.161 362.979 108.201 357.052 93.8258C348.195 72.3431 342.448 50.1483 342.178 36.7611C342.064 31.1296 342.693 27.2205 343.498 24.6484Z" fill="white"/>
<path d="M341.502 173.743L345.784 167.924C346.324 167.19 347.367 167.057 348.074 167.631C349.182 168.532 348.657 170.559 347.393 171.223C345.838 172.041 344.716 173.099 344.206 173.743C345.288 173.743 346.775 177.665 346.775 178.747C346.775 179.828 347.451 181.722 348.804 183.615C350.156 185.508 347.587 185.373 344.206 185.643C340.825 185.914 338.256 184.561 339.473 183.615C340.69 182.668 345.694 183.885 345.694 180.775C345.694 178.287 342.899 175.051 341.502 173.743Z" fill="#7C7C7C"/>
<path d="M348.627 179.441C351.635 175.401 354.147 170.711 357.147 164.445L338.191 149.857C331.463 161.853 326.763 167.437 318.129 175.92L337.114 190.53C342.119 186.868 345.626 183.47 348.627 179.441Z" fill="url(#paint2_radial_1353_2129)"/>
<path d="M348.627 179.441C351.635 175.401 354.147 170.711 357.147 164.445L338.191 149.857C331.463 161.853 326.763 167.437 318.129 175.92L337.114 190.53C342.119 186.868 345.626 183.47 348.627 179.441Z" fill="url(#paint3_radial_1353_2129)"/>
<path d="M348.627 179.441C351.635 175.401 354.147 170.711 357.147 164.445L338.191 149.857C331.463 161.853 326.763 167.437 318.129 175.92L337.114 190.53C342.119 186.868 345.626 183.47 348.627 179.441Z" stroke="white" stroke-width="1.07731"/>
<path d="M342.695 179.982C346.547 176.737 350.065 172.746 354.417 167.331L339.297 148.796C330.006 158.937 324.154 163.299 313.809 169.583L328.952 188.146C334.661 185.726 338.853 183.219 342.695 179.982Z" fill="url(#paint4_radial_1353_2129)"/>
<path d="M342.695 179.982C346.547 176.737 350.065 172.746 354.417 167.331L339.297 148.796C330.006 158.937 324.154 163.299 313.809 169.583L328.952 188.146C334.661 185.726 338.853 183.219 342.695 179.982Z" fill="url(#paint5_radial_1353_2129)"/>
<path d="M342.695 179.982C346.547 176.737 350.065 172.746 354.417 167.331L339.297 148.796C330.006 158.937 324.154 163.299 313.809 169.583L328.952 188.146C334.661 185.726 338.853 183.219 342.695 179.982Z" stroke="white" stroke-width="1.07731"/>
<path d="M344.447 138.536C345.702 139.052 345.818 140.785 344.642 141.463L336.453 146.184L343.796 158.456L342.448 160.897C342.451 162.072 341.308 162.91 340.188 162.553C339.327 162.279 338.821 161.39 339.025 160.51L341.498 158.462C340.815 155.759 335.379 149.899 333.072 146.192C331.852 144.232 333.673 143.75 335.449 143.281C336.242 143.072 337.026 142.865 337.525 142.53C338.636 141.786 341.212 139.927 342.861 138.727C343.321 138.392 343.921 138.32 344.447 138.536Z" fill="#7C7C7C"/>
<path d="M402.448 94.2879L402.632 94.8054L403.146 94.611L406.916 93.1845C408.612 92.5429 409.678 90.8557 409.529 89.0486L409.149 84.4318C408.931 81.7836 406.556 79.8473 403.918 80.1673L403.5 80.2181C400.521 80.5796 398.646 83.6105 399.652 86.4374L402.448 94.2879Z" fill="#2E53D2" stroke="black" stroke-width="1.07731"/>
<path d="M448.222 111.535C452.189 112.502 456.242 110.164 457.366 106.203C458.516 102.149 456.162 97.9296 452.108 96.7792C448.151 95.6562 444.036 97.8719 442.772 101.749C438.729 101.884 429.332 104.595 420.644 114.407C420.012 111.536 417.745 105.906 412.367 100.578C409.424 97.6629 407.912 95.5725 407.208 94.1608C406.855 93.4546 406.715 92.9371 406.687 92.5835C406.659 92.2219 406.75 92.0874 406.781 92.057L407.511 91.342L406.489 91.3645L402.217 91.4585L401.745 91.4689L401.828 91.9338C402.697 96.7736 404.583 104.007 407.425 109.978C408.846 112.962 410.517 115.656 412.437 117.577C414.214 119.354 416.235 120.498 418.486 120.556L418.479 120.581L419.044 120.548L419.046 120.548L419.332 120.532L419.333 120.531C423.344 120.282 429.444 119.55 435.087 118.135C437.977 117.411 440.759 116.504 443.083 115.385C445.286 114.324 447.116 113.055 448.222 111.535Z" fill="#2E53D2" stroke="#1D1D1D" stroke-width="0.807979"/>
<path d="M403.983 80.7021C406.318 80.4188 408.42 82.1325 408.612 84.476L408.993 89.0928C409.122 90.6605 408.197 92.1241 406.726 92.6807L402.955 94.1072L400.16 86.2568C399.269 83.755 400.928 81.0727 403.565 80.7528L403.983 80.7021Z" fill="#2E53D2"/>
<path d="M461.25 153.888C460.007 155.89 457.836 156.962 455.639 156.894C454.558 156.861 453.471 156.551 452.486 155.94C449.5 154.087 448.581 150.164 450.434 147.177C452.288 144.19 456.211 143.272 459.197 145.125C462.184 146.978 463.103 150.902 461.25 153.888Z" fill="#3F3737"/>
<path d="M452.486 155.94C449.5 154.087 448.581 150.164 450.434 147.177C446.82 147.431 438.4 148.466 433.632 150.578C432.07 151.27 431.387 152.058 431.255 152.848C430.985 154.469 433.037 156.1 434.587 156.932C436.351 157.249 438.707 157.604 441.214 157.876C447.055 158.508 453.719 158.689 455.639 156.894C454.558 156.861 453.471 156.551 452.486 155.94Z" fill="#3F3737"/>
<path d="M434.587 156.932C433.037 156.1 430.985 154.469 431.255 152.848C428.806 155.458 426.759 164.347 438.161 179.026L441.768 179.248C441.28 175.393 440.849 167.731 441.465 165.809C442.004 164.131 441.685 159.896 441.214 157.876C438.707 157.604 436.351 157.249 434.587 156.932Z" fill="#3F3737"/>
<path d="M428.39 180.638C428.332 180.057 428.635 179.499 429.154 179.23C432.446 177.523 436.057 176.517 439.757 176.278L441.478 176.167L441.73 178.732C441.833 179.781 441.16 180.751 440.141 181.022L431.174 183.409C429.891 183.75 428.608 182.86 428.478 181.539L428.39 180.638Z" fill="#3F3737"/>
<path d="M443.338 144.052C455.344 142.815 462.282 141.327 475.744 134.52L479.482 147.23C480.123 149.408 479.167 151.75 477.152 152.795C467.311 157.901 460.859 159.613 451.958 160.273C449.738 160.437 447.732 158.99 447.104 156.855L443.338 144.052Z" fill="#3F3737"/>
<path d="M440.545 48.6842C429.186 71.8246 435.464 114.39 440.023 132.78C453.449 133.321 467.221 126.651 472.428 123.248C461.852 94.9251 466.913 70.0478 471.545 58.9049L469.663 22.7696L440.545 48.6842Z" fill="#3F3737"/>
<path fill-rule="evenodd" clip-rule="evenodd" d="M440.545 48.6842C429.186 71.8246 435.464 114.39 440.023 132.78C443.268 132.911 446.533 132.62 449.692 132.056C454.668 131.168 459.381 129.603 463.342 127.937C458 108.504 455.861 78.2036 461.093 62.0847L456.361 50.4102L448.045 58.9217L440.747 48.504L440.545 48.6842Z" fill="#3F3737"/>
<path d="M469.111 51.2525L461.093 62.0847C455.861 78.2036 458 108.504 463.342 127.937C467.272 126.284 470.461 124.533 472.428 123.248C464.54 94.6957 467.281 72.2875 471.545 58.9049L469.111 51.2525Z" fill="#3F3737"/>
<path d="M469.111 51.2525L461.093 62.0847C455.861 78.2036 458 108.504 463.342 127.937C467.272 126.284 470.461 124.533 472.428 123.248C464.54 94.6957 467.281 72.2875 471.545 58.9049L469.111 51.2525Z" fill="#3F3737"/>
<path fill-rule="evenodd" clip-rule="evenodd" d="M448.045 58.9217C441.122 75.7258 443.413 111.873 449.692 132.056C454.668 131.168 459.381 129.603 463.342 127.937C458 108.504 455.861 78.2036 461.093 62.0847L456.361 50.4102L448.045 58.9217Z" fill="#3F3737"/>
<path d="M440.023 132.78C435.464 114.39 429.186 71.8246 440.545 48.6842L440.747 48.504L448.045 58.9217C441.122 75.7258 443.413 111.873 449.692 132.056C446.533 132.62 443.268 132.911 440.023 132.78Z" fill="#3F3737"/>
<path d="M440.023 132.78C452.029 131.543 458.967 130.055 472.428 123.248L477.263 139.686C463.951 147.037 456.929 148.698 444.858 149.218L440.023 132.78Z" fill="#3F3737"/>
<path d="M442.811 142.5C451.143 144.512 463.014 140.001 468.988 136.977C469.647 136.644 470.454 136.964 470.687 137.664C470.873 138.222 470.617 138.836 470.087 139.093C456.363 145.755 446.732 145.96 443.583 145.205L442.811 142.5Z" fill="#3F3737"/>
<path d="M441.266 137.478C449.595 139.489 460.793 134.649 466.675 131.577C467.329 131.236 468.136 131.555 468.369 132.255C468.556 132.814 468.299 133.428 467.769 133.685C454.078 140.33 445.187 140.166 442.038 139.41L441.266 137.478Z" fill="#3F3737"/>
<path d="M474.928 155.21C473.97 157.362 471.964 158.72 469.779 158.951C468.703 159.064 467.584 158.905 466.525 158.434C463.315 157.003 461.871 153.241 463.302 150.031C464.732 146.82 468.494 145.377 471.705 146.807C474.915 148.237 476.359 151.999 474.928 155.21Z" fill="#3F3737"/>
<path d="M466.525 158.434C463.315 157.003 461.871 153.241 463.302 150.031C459.755 150.773 451.554 152.943 447.118 155.683C445.664 156.581 445.094 157.454 445.071 158.255C445.024 159.898 447.278 161.234 448.927 161.848C450.717 161.923 453.1 161.954 455.621 161.883C461.494 161.716 468.12 160.99 469.779 158.951C468.703 159.064 467.584 158.905 466.525 158.434Z" fill="#3F3737"/>
<path d="M448.927 161.848C447.278 161.234 445.024 159.898 445.071 158.255C442.999 161.173 442.179 170.258 455.47 183.252L459.073 182.982C458.066 179.228 456.598 171.697 456.947 169.709C457.253 167.973 456.362 163.821 455.621 161.883C453.1 161.954 450.717 161.923 448.927 161.848Z" fill="#3F3737"/>
<path d="M446.774 188.383C446.64 187.814 446.866 187.221 447.344 186.885C450.379 184.754 453.823 183.276 457.459 182.545L459.149 182.205L459.741 184.714C459.983 185.74 459.446 186.791 458.472 187.195L449.903 190.757C448.677 191.267 447.287 190.556 446.982 189.264L446.774 188.383Z" fill="#3F3737"/>
<path d="M470.114 31.4524L463.288 28.4431L469.663 22.7696L470.114 31.4524Z" fill="#3F3737"/>
<path d="M448.329 70.5694L458.416 72.064C458.752 73.2673 458.821 74.6235 458.558 76.0121C457.805 79.9971 454.611 82.7393 451.423 82.137C448.235 81.5347 446.261 77.8159 447.013 73.8309C447.245 72.606 447.707 71.4984 448.329 70.5694Z" fill="#3F3737"/>
<path d="M431.725 68.6683L442.012 70.1926C442.293 71.3346 442.336 72.6029 442.091 73.8993C441.339 77.8844 438.144 80.6266 434.956 80.0243C431.768 79.422 429.794 75.7032 430.547 71.7182C430.761 70.5849 431.172 69.5522 431.725 68.6683Z" fill="#3F3737"/>
<path d="M456.451 77.7945C456.722 79.4795 455.577 81.0658 453.891 81.3375C452.206 81.6093 450.62 80.4635 450.348 78.7784C450.077 77.0934 451.222 75.5071 452.908 75.2354C454.593 74.9637 456.179 76.1094 456.451 77.7945Z" fill="#3F3737"/>
<path d="M437.298 74.47C437.569 76.1551 436.424 77.7414 434.739 78.0131C433.053 78.2848 431.467 77.139 431.195 75.454C430.924 73.7689 432.07 72.1826 433.755 71.9109C435.44 71.6392 437.026 72.7849 437.298 74.47Z" fill="#3F3737"/>
<path d="M469.718 99.5412C469.063 102.581 466.068 104.514 463.028 103.859C459.989 103.204 458.056 100.209 458.711 97.1698C459.366 94.1303 462.36 92.1972 465.4 92.852C468.439 93.5069 470.373 96.5017 469.718 99.5412Z" fill="#3F3737"/>
<path d="M469.718 99.5412C469.063 102.581 466.068 104.514 463.028 103.859C463.225 106.822 465.773 114.366 474.395 120.831L478.224 121.655C477.467 115.483 474.706 102.419 469.718 99.5412Z" fill="#3F3737"/>
<path d="M478.224 121.655L474.395 120.831C472.566 121.188 467.842 123.124 463.583 128.016C459.324 132.907 457.28 133.251 456.79 132.812L457.077 136.129C464.482 134.302 479.077 128.85 478.224 121.655Z" fill="#3F3737"/>
<path d="M448.313 135.322C447.976 133.521 449.203 131.801 451.016 131.534L453.93 131.104C455.491 130.874 456.989 131.804 457.473 133.305L458.286 135.819L452.791 138.091C450.897 138.874 448.762 137.717 448.384 135.702L448.313 135.322Z" fill="#3F3737"/>
<path d="M450.434 147.177C448.581 150.164 449.5 154.087 452.486 155.94C453.471 156.551 454.558 156.861 455.639 156.894M450.434 147.177C452.288 144.19 456.211 143.272 459.197 145.125C462.184 146.978 463.103 150.902 461.25 153.888C460.007 155.89 457.836 156.962 455.639 156.894M450.434 147.177C446.82 147.431 438.4 148.466 433.632 150.578C432.07 151.27 431.387 152.058 431.255 152.848M455.639 156.894C453.719 158.689 447.055 158.508 441.214 157.876M431.255 152.848C430.985 154.469 433.037 156.1 434.587 156.932C436.351 157.249 438.707 157.604 441.214 157.876M431.255 152.848C428.806 155.458 426.759 164.347 438.161 179.026L441.768 179.248C441.28 175.393 440.849 167.731 441.465 165.809C442.004 164.131 441.685 159.896 441.214 157.876M440.023 132.78C435.464 114.39 429.186 71.8246 440.545 48.6842M440.023 132.78C453.449 133.321 467.221 126.651 472.428 123.248M440.023 132.78C443.268 132.911 446.533 132.62 449.692 132.056M440.023 132.78C452.029 131.543 458.967 130.055 472.428 123.248M440.023 132.78L444.858 149.218C456.929 148.698 463.951 147.037 477.263 139.686L472.428 123.248M440.545 48.6842L469.663 22.7696M440.545 48.6842L440.747 48.504L448.045 58.9217M469.663 22.7696L471.545 58.9049M469.663 22.7696L463.288 28.4431L470.114 31.4524L469.663 22.7696ZM471.545 58.9049C466.913 70.0478 461.852 94.9251 472.428 123.248M471.545 58.9049L469.111 51.2525L461.093 62.0847M471.545 58.9049C467.281 72.2875 464.54 94.6957 472.428 123.248M472.428 123.248C470.461 124.533 467.272 126.284 463.342 127.937M448.045 58.9217L456.361 50.4102L461.093 62.0847M448.045 58.9217C441.122 75.7258 443.413 111.873 449.692 132.056M461.093 62.0847C455.861 78.2036 458 108.504 463.342 127.937M463.342 127.937C459.381 129.603 454.668 131.168 449.692 132.056M463.302 150.031C461.871 153.241 463.315 157.003 466.525 158.434C467.584 158.905 468.703 159.064 469.779 158.951M463.302 150.031C464.732 146.82 468.494 145.377 471.705 146.807C474.915 148.237 476.359 151.999 474.928 155.21C473.97 157.362 471.964 158.72 469.779 158.951M463.302 150.031C459.755 150.773 451.554 152.943 447.118 155.683C445.664 156.581 445.094 157.454 445.071 158.255M469.779 158.951C468.12 160.99 461.494 161.716 455.621 161.883M445.071 158.255C445.024 159.898 447.278 161.234 448.927 161.848C450.717 161.923 453.1 161.954 455.621 161.883M445.071 158.255C442.999 161.173 442.179 170.258 455.47 183.252L459.073 182.982C458.066 179.228 456.598 171.697 456.947 169.709C457.253 167.973 456.362 163.821 455.621 161.883M443.46 70.4069L428.916 68.252M461.774 72.5614L447.231 70.4066M469.718 99.5412C469.063 102.581 466.068 104.514 463.028 103.859M469.718 99.5412C470.373 96.5017 468.439 93.5069 465.4 92.852C462.36 92.1971 459.366 94.1303 458.711 97.1698C458.056 100.209 459.989 103.204 463.028 103.859M469.718 99.5412C474.706 102.419 477.467 115.483 478.224 121.655M463.028 103.859C463.225 106.822 465.773 114.366 474.395 120.831M474.395 120.831L478.224 121.655M474.395 120.831C472.566 121.188 467.842 123.124 463.583 128.016C459.324 132.907 457.28 133.251 456.79 132.812L457.077 136.129C464.482 134.302 479.077 128.85 478.224 121.655M434.842 100.571C434.94 102.25 435.184 105.677 435.38 105.958L435.499 106.305M441.478 176.167L441.73 178.732C441.833 179.781 441.16 180.751 440.141 181.022L431.174 183.409C429.891 183.75 428.608 182.86 428.478 181.539L428.39 180.638C428.332 180.057 428.635 179.499 429.154 179.23C432.446 177.523 436.057 176.517 439.757 176.278L441.478 176.167ZM443.338 144.052C455.344 142.815 462.282 141.327 475.744 134.52L479.482 147.23C480.123 149.408 479.167 151.75 477.152 152.795C467.311 157.901 460.859 159.613 451.958 160.273C449.738 160.437 447.732 158.99 447.104 156.855L443.338 144.052ZM468.988 136.977C463.014 140.001 451.143 144.512 442.811 142.5L443.583 145.205C446.732 145.96 456.363 145.755 470.087 139.093C470.617 138.836 470.873 138.222 470.687 137.664C470.454 136.964 469.647 136.644 468.988 136.977ZM466.675 131.577C460.793 134.649 449.595 139.489 441.266 137.478L442.038 139.41C445.187 140.166 454.078 140.33 467.769 133.685C468.299 133.428 468.556 132.814 468.369 132.255C468.136 131.555 467.329 131.236 466.675 131.577ZM459.149 182.205L459.741 184.714C459.983 185.74 459.446 186.791 458.472 187.195L449.903 190.757C448.677 191.267 447.287 190.556 446.982 189.264L446.774 188.383C446.64 187.814 446.866 187.221 447.344 186.885C450.379 184.754 453.823 183.276 457.459 182.545L459.149 182.205ZM448.329 70.5694L458.416 72.064C458.752 73.2673 458.821 74.6235 458.558 76.0121C457.805 79.9971 454.611 82.7393 451.423 82.137C448.235 81.5347 446.261 77.8159 447.013 73.8309C447.245 72.606 447.707 71.4984 448.329 70.5694ZM431.725 68.6683L442.012 70.1926C442.293 71.3346 442.336 72.6029 442.091 73.8993C441.339 77.8844 438.144 80.6266 434.956 80.0243C431.768 79.422 429.794 75.7032 430.547 71.7182C430.761 70.5849 431.172 69.5522 431.725 68.6683ZM456.451 77.7945C456.722 79.4795 455.577 81.0658 453.891 81.3375C452.206 81.6093 450.62 80.4635 450.348 78.7784C450.077 77.0934 451.222 75.5071 452.908 75.2354C454.593 74.9637 456.179 76.1094 456.451 77.7945ZM437.298 74.47C437.569 76.1551 436.424 77.7414 434.739 78.0131C433.053 78.2848 431.467 77.139 431.195 75.454C430.924 73.7689 432.07 72.1826 433.755 71.9109C435.44 71.6392 437.026 72.7849 437.298 74.47ZM458.286 135.819L457.473 133.305C456.989 131.804 455.491 130.874 453.93 131.104L451.016 131.534C449.203 131.801 447.976 133.521 448.313 135.322L448.384 135.702C448.762 137.717 450.897 138.874 452.791 138.091L458.286 135.819Z" stroke="#1D1D1D" stroke-width="2.15461"/>
<path d="M461.249 153.888C460.007 155.89 457.836 156.962 455.639 156.894C454.558 156.861 453.471 156.551 452.486 155.94C449.5 154.087 448.581 150.164 450.434 147.177C452.287 144.19 456.211 143.272 459.197 145.125C462.184 146.978 463.103 150.902 461.249 153.888Z" fill="#D292C8"/>
<path d="M452.486 155.94C449.5 154.087 448.581 150.164 450.434 147.177C446.82 147.431 438.399 148.466 433.632 150.578C432.07 151.27 431.387 152.058 431.255 152.848C430.985 154.469 433.037 156.1 434.587 156.932C436.351 157.249 438.707 157.604 441.214 157.876C447.055 158.508 453.719 158.69 455.639 156.894C454.558 156.861 453.471 156.551 452.486 155.94Z" fill="#D292C8"/>
<path d="M434.587 156.932C433.037 156.1 430.985 154.469 431.255 152.848C428.806 155.458 426.759 164.347 438.161 179.026L441.768 179.248C441.28 175.393 440.849 167.731 441.465 165.809C442.003 164.131 441.685 159.896 441.214 157.876C438.707 157.604 436.351 157.249 434.587 156.932Z" fill="#D292C8"/>
<path d="M428.389 180.638C428.332 180.057 428.635 179.499 429.154 179.23C432.446 177.523 436.056 176.517 439.757 176.278L441.478 176.167L441.729 178.732C441.833 179.781 441.16 180.751 440.141 181.022L431.174 183.409C429.891 183.75 428.608 182.86 428.478 181.539L428.389 180.638Z" fill="#D292C8"/>
<path d="M443.338 144.052C455.344 142.815 462.282 141.327 475.743 134.52L479.482 147.23C480.123 149.408 479.167 151.75 477.152 152.795C467.311 157.901 460.859 159.613 451.958 160.273C449.738 160.437 447.732 158.99 447.104 156.855L443.338 144.052Z" fill="#EBB9E3"/>
<path d="M440.545 48.6842C429.186 71.8246 435.464 114.39 440.023 132.78C453.449 133.321 467.221 126.651 472.428 123.248C461.852 94.9251 466.913 70.0478 471.545 58.9049L469.663 22.7696L440.545 48.6842Z" fill="#EEDAB3"/>
<path fill-rule="evenodd" clip-rule="evenodd" d="M440.544 48.6841C429.185 71.8245 435.463 114.39 440.022 132.78C443.267 132.91 446.533 132.62 449.692 132.056C454.668 131.168 459.381 129.603 463.342 127.937C458 108.504 455.861 78.2037 461.093 62.0847L456.361 50.4103L448.045 58.9217L440.747 48.5041L440.544 48.6841Z" fill="#8199F0"/>
<path d="M469.111 51.2526L461.093 62.0847C455.861 78.2037 458 108.504 463.342 127.937C467.272 126.284 470.461 124.533 472.428 123.248C464.539 94.6956 467.28 72.2874 471.544 58.9048L469.111 51.2526Z" fill="#8199F0"/>
<path d="M469.111 51.2526L461.093 62.0847C455.861 78.2037 458 108.504 463.342 127.937C467.272 126.284 470.461 124.533 472.428 123.248C464.539 94.6956 467.28 72.2874 471.544 58.9048L469.111 51.2526Z" fill="#2E53D2"/>
<path fill-rule="evenodd" clip-rule="evenodd" d="M448.045 58.9217C441.122 75.7259 443.413 111.873 449.692 132.056C454.668 131.168 459.381 129.603 463.342 127.937C458 108.504 455.861 78.2037 461.093 62.0847L456.361 50.4103L448.045 58.9217Z" fill="#5372E1"/>
<path d="M440.022 132.78C452.028 131.543 458.966 130.055 472.428 123.248L477.263 139.686C463.951 147.037 456.929 148.698 444.858 149.218L440.022 132.78Z" fill="#D9D9D9"/>
<path d="M442.811 142.501C451.143 144.512 463.014 140.001 468.988 136.977C469.646 136.644 470.454 136.964 470.687 137.664C470.873 138.222 470.617 138.836 470.087 139.093C456.362 145.755 446.732 145.96 443.583 145.205L442.811 142.501Z" fill="#AEAEAE"/>
<path d="M441.266 137.479C449.595 139.489 460.793 134.649 466.675 131.578C467.329 131.236 468.136 131.555 468.369 132.255C468.556 132.814 468.299 133.428 467.769 133.685C454.078 140.33 445.187 140.166 442.038 139.41L441.266 137.479Z" fill="#AEAEAE"/>
<path d="M474.928 155.21C473.97 157.362 471.964 158.72 469.778 158.951C468.703 159.064 467.584 158.905 466.525 158.434C463.315 157.003 461.871 153.241 463.302 150.031C464.732 146.82 468.494 145.377 471.705 146.807C474.915 148.237 476.359 151.999 474.928 155.21Z" fill="#F6CAEF"/>
<path d="M466.525 158.434C463.315 157.003 461.871 153.241 463.302 150.031C459.755 150.773 451.554 152.943 447.117 155.683C445.664 156.581 445.094 157.454 445.071 158.255C445.023 159.898 447.278 161.234 448.926 161.848C450.717 161.923 453.099 161.954 455.62 161.883C461.494 161.716 468.12 160.99 469.778 158.951C468.703 159.064 467.584 158.905 466.525 158.434Z" fill="#F6CAEF"/>
<path d="M448.926 161.848C447.278 161.234 445.023 159.898 445.071 158.255C442.999 161.173 442.179 170.258 455.469 183.252L459.073 182.982C458.066 179.228 456.598 171.697 456.947 169.709C457.253 167.973 456.362 163.821 455.62 161.883C453.099 161.954 450.717 161.923 448.926 161.848Z" fill="#F6CAEF"/>
<path d="M446.774 188.383C446.64 187.814 446.866 187.221 447.344 186.885C450.379 184.754 453.823 183.276 457.459 182.545L459.149 182.205L459.741 184.714C459.983 185.74 459.446 186.791 458.472 187.196L449.903 190.757C448.677 191.267 447.287 190.556 446.982 189.264L446.774 188.383Z" fill="#F6CAEF"/>
<path d="M470.114 31.4524L463.288 28.4431L469.662 22.77L470.114 31.4524Z" fill="#2E52D2"/>
<path d="M448.105 70.4198L448.2 70.2783L448.368 70.3033L458.455 71.7979L458.628 71.8235L458.675 71.9917C459.022 73.2359 459.092 74.634 458.823 76.062C458.053 80.135 454.759 83.0411 451.373 82.4014C447.987 81.7617 445.98 77.8539 446.749 73.781C446.987 72.5211 447.463 71.3795 448.105 70.4198Z" fill="url(#paint6_radial_1353_2129)" stroke="#1D1D1D" stroke-width="0.538064"/>
<path d="M431.497 68.5256L431.59 68.3763L431.764 68.4021L442.052 69.9265L442.231 69.9529L442.274 70.1285C442.563 71.3086 442.608 72.6158 442.356 73.9493C441.586 78.0222 438.292 80.9284 434.906 80.2886C431.52 79.6489 429.513 75.7412 430.282 71.6682C430.502 70.5026 430.926 69.4383 431.497 68.5256Z" fill="url(#paint7_radial_1353_2129)" stroke="#1D1D1D" stroke-width="0.538064"/>
<circle cx="453.399" cy="78.2865" r="3.0905" transform="rotate(-9.15995 453.399 78.2865)" fill="#636363"/>
<circle cx="434.246" cy="74.962" r="3.0905" transform="rotate(-9.15995 434.246 74.962)" fill="#636363"/>
<path d="M443.459 70.4069L428.916 68.252" stroke="#1D1D1D" stroke-width="1.07731"/>
<path d="M461.774 72.5614L447.231 70.4066" stroke="#1D1D1D" stroke-width="1.07731"/>
<path d="M469.718 99.5413C469.063 102.581 466.068 104.514 463.028 103.859C459.989 103.204 458.056 100.209 458.711 97.1698C459.365 94.1303 462.36 92.1972 465.4 92.8521C468.439 93.5069 470.372 96.5018 469.718 99.5413Z" fill="#8199F0"/>
<path d="M469.718 99.5413C469.063 102.581 466.068 104.514 463.028 103.859C463.225 106.823 465.773 114.366 474.395 120.831L478.224 121.655C477.467 115.483 474.706 102.419 469.718 99.5413Z" fill="#8199F0"/>
<path d="M478.224 121.655L474.395 120.831C472.566 121.188 467.842 123.124 463.583 128.016C459.324 132.907 457.28 133.252 456.79 132.812L457.077 136.129C464.482 134.302 479.077 128.85 478.224 121.655Z" fill="#8199F0"/>
<path d="M448.313 135.322C447.976 133.521 449.203 131.801 451.015 131.534L453.93 131.104C455.49 130.874 456.988 131.804 457.473 133.305L458.286 135.819L452.791 138.091C450.897 138.874 448.762 137.717 448.384 135.702L448.313 135.322Z" fill="#8199F0"/>
<path d="M418.64 77.3181C420.334 67.2235 423.695 56.9553 428.678 43.745L477.036 51.0798C468.818 77.949 467.289 92.4709 467.012 117.197L418.617 109.857C416.915 97.3294 416.947 87.3999 418.64 77.3181Z" fill="url(#paint8_radial_1353_2129)"/>
<path d="M418.64 77.3181C420.334 67.2235 423.695 56.9553 428.678 43.745L477.036 51.0798C468.818 77.949 467.289 92.4709 467.012 117.197L418.617 109.857C416.915 97.3294 416.947 87.3999 418.64 77.3181Z" fill="url(#paint9_radial_1353_2129)"/>
<path d="M418.64 77.3181C420.334 67.2235 423.695 56.9553 428.678 43.745L477.036 51.0798C468.818 77.949 467.289 92.4709 467.012 117.197L418.617 109.857C416.915 97.3294 416.947 87.3999 418.64 77.3181Z" stroke="white" stroke-width="1.07731"/>
<path d="M445.815 52.1541C446.389 47.5053 447.634 45.4981 449.95 41.9556L451.409 44.4101L453.269 42.5577L453.99 44.8784L455.834 45.2129C452.188 48.7726 451.129 51.5661 450.207 57.3308L449.582 54.4801L447.45 55.7355L447.851 51.4287L445.815 52.1541Z" fill="#4B70EE"/>
<path d="M428.828 88.5604C429.173 90.0093 430.345 91.1127 431.044 92.42C432.482 95.1103 434.579 97.0061 436.717 99.1212C437.947 100.339 439.209 100.758 440.894 101.252C443.826 102.113 447.419 103.092 450.511 102.631C454.014 102.108 456.522 98.4143 458.167 95.6009C458.645 94.7836 459.601 93.712 459.556 92.7169C459.524 92.0083 459.088 91.4423 458.792 90.8507" stroke="black" stroke-width="3.23192" stroke-linecap="round"/>
<path d="M430.546 86.4609C428.222 86.4609 426.497 86.5158 424.375 87.5213C422.659 88.3337 422.463 90.1351 421.575 91.6141" stroke="black" stroke-width="3.23192" stroke-linecap="round"/>
<path d="M455.357 89.3239C456.511 89.3239 457.694 89.2491 458.845 89.3345C459.74 89.4007 460.231 90.5004 460.828 91.031C461.563 91.6841 462.635 92.1438 463.182 92.9926C463.443 93.3974 463.448 94.014 463.564 94.477" stroke="black" stroke-width="3.23192" stroke-linecap="round"/>
<path d="M431.5 61.4587C432.196 58.8643 436.407 58.1896 438.657 58.5216C439.642 58.667 441.037 59.266 441.615 60.1651C442.047 60.8361 441.992 62.0125 442.188 62.7947" stroke="black" stroke-width="3.23192" stroke-linecap="round"/>
<path d="M450.013 63.9398C452.293 61.0687 456.818 58.5512 459.916 61.6496C460.605 62.3385 461.396 63.265 461.655 64.2367C462.184 66.2186 463.353 67.9757 464.136 69.8564" stroke="black" stroke-width="3.23192" stroke-linecap="round"/>
<path d="M406.596 126.445L406.267 126.159L406.158 126.581L404.837 131.703C404.61 131.679 404.421 131.674 404.265 131.688C404.062 131.706 403.878 131.759 403.747 131.881C403.688 131.936 403.644 132 403.616 132.072C403.616 132.073 403.615 132.074 403.615 132.076L402.228 133.966C401.906 133.929 401.63 133.912 401.419 133.919C401.299 133.923 401.183 133.935 401.088 133.964C401.013 133.986 400.842 134.05 400.795 134.235L400.636 134.851C400.54 134.853 400.453 134.859 400.379 134.871C400.316 134.881 400.245 134.898 400.181 134.931C400.118 134.964 400.025 135.031 399.992 135.158L393.708 159.519C393.68 159.628 393.713 159.721 393.746 159.78C393.779 159.838 393.824 159.885 393.864 159.921C393.945 159.993 394.057 160.064 394.182 160.132C394.437 160.269 394.804 160.427 395.251 160.594C396.148 160.928 397.4 161.315 398.796 161.675C400.191 162.035 401.474 162.302 402.421 162.443C402.893 162.513 403.29 162.553 403.58 162.556C403.723 162.557 403.854 162.549 403.961 162.525C404.013 162.513 404.075 162.494 404.132 162.459C404.19 162.424 404.264 162.358 404.292 162.25L404.814 160.224L404.814 160.223L404.815 160.221L404.815 160.219L410.052 139.918L410.052 139.918L410.053 139.917L410.053 139.914L410.576 137.888C410.609 137.762 410.559 137.657 410.52 137.598C410.48 137.539 410.426 137.489 410.376 137.45C410.317 137.403 410.244 137.356 410.161 137.309L410.32 136.692C410.367 136.507 410.249 136.369 410.195 136.313C410.125 136.242 410.029 136.175 409.926 136.113C409.745 136.005 409.495 135.887 409.196 135.763L408.896 133.439C408.926 133.229 408.825 133.043 408.657 132.893C408.522 132.774 408.327 132.66 408.064 132.545L409.436 129.158L409.509 128.98L409.364 128.854L406.596 126.445Z" fill="#494444" stroke="black" stroke-width="0.538653"/>
<path d="M400.253 135.225L393.968 159.587C393.893 159.879 396.084 160.697 398.863 161.414C401.642 162.131 403.955 162.475 404.031 162.182L410.315 137.82C410.391 137.528 408.199 136.71 405.421 135.993C402.642 135.276 400.328 134.932 400.253 135.225Z" fill="white"/>
<path d="M401.056 134.302L400.646 135.891C400.57 136.184 402.525 136.941 405.011 137.582C407.497 138.223 409.574 138.506 409.649 138.214L410.059 136.625C410.134 136.332 408.18 135.575 405.694 134.934C403.208 134.293 401.131 134.01 401.056 134.302Z" fill="#BDBDBD"/>
<path d="M403.857 132.201L402.115 134.575C402.039 134.868 403.519 135.503 405.421 135.993C407.322 136.483 408.924 136.644 409 136.351L408.624 133.43C408.699 133.138 408.278 132.776 406.377 132.286C404.476 131.795 403.933 131.908 403.857 132.201Z" fill="#F9F9F9"/>
<path d="M403.821 132.25L403.857 132.201C403.933 131.908 404.476 131.795 406.377 132.286C408.278 132.776 408.699 133.138 408.624 133.43L408.631 133.491C408.049 133.58 407.103 133.603 406.104 133.345C405.105 133.087 404.288 132.61 403.821 132.25Z" fill="#D9D5D5"/>
<path d="M399.729 137.255L394.492 157.556C394.429 157.8 396.631 158.579 399.41 159.296C402.188 160.012 404.492 160.396 404.555 160.152L409.792 139.851C409.854 139.607 407.448 139.623 404.669 138.906C401.891 138.189 399.792 137.011 399.729 137.255Z" fill="#1D1D1D"/>
<path d="M407.633 132.892L409.187 129.057L406.419 126.648L404.985 132.209L406.505 132.884L407.633 132.892Z" fill="#1D1D1D"/>
<path d="M409.187 129.057L407.633 132.892L406.505 132.884L404.985 132.209L406.419 126.648M409.187 129.057L406.419 126.648M409.187 129.057L407.393 129.441L406.419 126.648" stroke="#1D1D1D" stroke-width="1.07731"/>
<path d="M406.419 126.648L409.187 129.057L407.393 129.441L406.419 126.648Z" fill="#494444"/>
<path d="M89.0945 91.0745C85.8545 91.0745 82.9312 90.4042 80.3243 89.0635C77.7175 87.7229 75.6692 85.8608 74.1796 83.4774C72.7272 81.094 72.001 78.3941 72.001 75.3776C72.001 72.3984 72.7272 69.717 74.1796 67.3336C75.6692 64.9502 77.6989 63.1068 80.2685 61.8034C82.8753 60.4627 85.8173 59.7924 89.0945 59.7924C92.3717 59.7924 95.3137 60.4627 97.9205 61.8034C100.527 63.1068 102.557 64.9502 104.009 67.3336C105.462 69.6798 106.188 72.3611 106.188 75.3776C106.188 78.3941 105.462 81.094 104.009 83.4774C102.557 85.8608 100.527 87.7229 97.9205 89.0635C95.3137 90.4042 92.3717 91.0745 89.0945 91.0745ZM89.0945 82.6395C90.9565 82.6395 92.4834 82.0064 93.6751 80.7403C94.8668 79.4368 95.4626 77.6493 95.4626 75.3776C95.4626 73.1432 94.8668 71.3929 93.6751 70.1267C92.4834 68.8605 90.9565 68.2274 89.0945 68.2274C87.2325 68.2274 85.7056 68.8605 84.5139 70.1267C83.3222 71.3929 82.7263 73.1432 82.7263 75.3776C82.7263 77.6493 83.3222 79.4368 84.5139 80.7403C85.7056 82.0064 87.2325 82.6395 89.0945 82.6395Z" fill="#EF9C39"/>
<path d="M142.183 60.2952L129.67 90.5718H118.721L106.264 60.2952H117.157L124.419 78.7851L132.072 60.2952H142.183Z" fill="#EF9C39"/>
<path d="M175.055 75.4893C175.055 75.5638 174.999 76.439 174.888 78.1148H152.878C153.325 79.6789 154.182 80.8892 155.448 81.7457C156.751 82.565 158.371 82.9747 160.308 82.9747C161.76 82.9747 163.008 82.7699 164.051 82.3602C165.131 81.9506 166.211 81.2802 167.291 80.3492L172.877 86.1588C169.935 89.4359 165.633 91.0745 159.973 91.0745C156.435 91.0745 153.325 90.4042 150.644 89.0635C147.963 87.7229 145.877 85.8608 144.388 83.4774C142.935 81.094 142.209 78.3941 142.209 75.3776C142.209 72.3984 142.917 69.7357 144.332 67.3895C145.784 65.0061 147.777 63.1441 150.309 61.8034C152.841 60.4627 155.69 59.7924 158.856 59.7924C161.872 59.7924 164.609 60.4255 167.067 61.6917C169.525 62.9206 171.462 64.7268 172.877 67.1102C174.329 69.4564 175.055 72.2494 175.055 75.4893ZM158.911 67.3336C157.273 67.3336 155.895 67.7991 154.778 68.7302C153.698 69.6612 153.009 70.9274 152.711 72.5287H165.112C164.814 70.9274 164.107 69.6612 162.989 68.7302C161.909 67.7991 160.55 67.3336 158.911 67.3336Z" fill="#EF9C39"/>
<path d="M190.06 63.9261C191.14 62.5482 192.536 61.5241 194.249 60.8538C195.999 60.1462 197.992 59.7924 200.226 59.7924V69.3446C199.258 69.2329 198.457 69.177 197.824 69.177C195.553 69.177 193.765 69.7915 192.462 71.0205C191.195 72.2494 190.562 74.1301 190.562 76.6624V90.5718H179.949V60.2952H190.06V63.9261Z" fill="#EF9C39"/>
<path d="M66.9773 90.5849V133.836H56.4268V130.688C54.3673 133.136 51.2779 134.36 47.1588 134.36C44.2832 134.36 41.6601 133.7 39.2897 132.379C36.9192 131.018 35.0345 129.095 33.6356 126.608C32.2755 124.121 31.5955 121.245 31.5955 117.981C31.5955 114.717 32.2755 111.861 33.6356 109.412C35.0345 106.925 36.9192 105.021 39.2897 103.7C41.6601 102.379 44.2832 101.718 47.1588 101.718C50.9282 101.718 53.8427 102.806 55.9022 104.982V90.5849H66.9773ZM49.4904 125.559C51.3945 125.559 52.9683 124.898 54.2118 123.577C55.4553 122.217 56.0771 120.351 56.0771 117.981C56.0771 115.649 55.4553 113.823 54.2118 112.502C53.0072 111.181 51.4334 110.52 49.4904 110.52C47.5474 110.52 45.9541 111.181 44.7106 112.502C43.4671 113.823 42.8454 115.649 42.8454 117.981C42.8454 120.351 43.4671 122.217 44.7106 123.577C45.9541 124.898 47.5474 125.559 49.4904 125.559Z" fill="#EF9C39"/>
<path d="M84.6531 106.032C85.7801 104.594 87.2373 103.525 89.0249 102.826C90.8513 102.087 92.9303 101.718 95.2619 101.718V111.686C94.2515 111.569 93.416 111.511 92.7554 111.511C90.385 111.511 88.5197 112.152 87.1596 113.434C85.8384 114.717 85.1777 116.679 85.1777 119.322V133.836H74.1027V102.243H84.6531V106.032Z" fill="#EF9C39"/>
<path d="M113.069 101.718C118.315 101.718 122.318 102.923 125.077 105.332C127.836 107.703 129.216 111.355 129.216 116.291V133.836H118.898V129.756C117.305 132.825 114.196 134.36 109.572 134.36C107.124 134.36 105.006 133.933 103.218 133.078C101.431 132.223 100.071 131.077 99.1381 129.639C98.2443 128.162 97.7975 126.491 97.7975 124.626C97.7975 121.634 98.9438 119.322 101.237 117.69C103.529 116.019 107.066 115.183 111.845 115.183H118.141C117.946 111.841 115.712 110.17 111.437 110.17C109.922 110.17 108.387 110.423 106.832 110.928C105.278 111.394 103.957 112.055 102.869 112.91L99.1381 105.39C100.887 104.225 103.005 103.331 105.492 102.709C108.018 102.049 110.543 101.718 113.069 101.718ZM112.661 127.366C113.944 127.366 115.071 127.055 116.042 126.433C117.014 125.811 117.713 124.898 118.141 123.693V120.954H113.361C110.135 120.954 108.523 122.022 108.523 124.16C108.523 125.131 108.892 125.908 109.63 126.491C110.369 127.074 111.379 127.366 112.661 127.366Z" fill="#EF9C39"/>
<path d="M187.981 102.243L176.731 133.836H166.006L160.06 116.64L153.882 133.836H143.156L131.906 102.243H142.399L148.869 121.362L155.572 102.243H165.015L171.543 121.537L178.247 102.243H187.981Z" fill="#EF9C39"/>
<path d="M211.941 101.718C215.866 101.718 219.014 102.884 221.384 105.216C223.794 107.547 224.998 111.064 224.998 115.766V133.836H213.923V117.573C213.923 113.26 212.194 111.103 208.735 111.103C206.831 111.103 205.296 111.725 204.131 112.968C203.004 114.212 202.44 116.077 202.44 118.564V133.836H191.365V102.243H201.916V105.682C203.159 104.4 204.636 103.428 206.346 102.767C208.055 102.068 209.921 101.718 211.941 101.718Z" fill="#EF9C39"/>
<path d="M236.615 134.36C234.749 134.36 233.176 133.739 231.893 132.495C230.611 131.252 229.97 129.678 229.97 127.774C229.97 125.831 230.591 124.257 231.835 123.052C233.117 121.848 234.711 121.245 236.615 121.245C238.558 121.245 240.151 121.848 241.394 123.052C242.638 124.257 243.26 125.831 243.26 127.774C243.26 129.678 242.619 131.252 241.336 132.495C240.093 133.739 238.519 134.36 236.615 134.36Z" fill="#EF9C39"/>
<path d="M109.411 57.7247C112.011 63.1974 116.806 67.3891 119.983 72.5516C122.892 77.2784 126.419 81.6006 129.524 86.2002C130.344 87.4154 130.621 88.6573 130.621 86.5603C130.621 83.8703 131.099 81.7039 131.783 79.0977C133.28 73.3888 134.782 67.6833 136.283 61.9796C136.625 60.6795 137.985 59.9393 137.985 58.6084" stroke="#1D1D1D" stroke-width="3.69509" stroke-linecap="round"/>
<path d="M145.644 79.2287C149.844 79.1051 153.98 78.6395 158.196 78.6395C162.199 78.6395 166.185 78.6997 170.176 78.3449C170.711 78.2974 173.733 78.3348 173.89 77.7067C174.432 75.5409 172.823 72.0048 171.845 70.1459C170.891 68.3328 168.855 66.6332 167.328 65.2855C166.366 64.437 165.599 64.2054 164.35 64.2054C162.672 64.2054 160.867 63.9816 159.309 64.7127C156.648 65.9615 154.783 67.7577 153.483 70.3587C151.828 73.6692 151.687 77.4866 151.306 81.127C151.008 83.9821 151.178 85.8801 152.059 88.6878C152.372 89.6836 152.69 91.4093 153.679 92.0099C155.007 92.8162 157.008 92.8843 158.507 93.0082C161.204 93.2311 163.766 92.8077 166.166 91.4699C168.225 90.3223 171.338 89.3407 172.156 86.8876" stroke="#1D1D1D" stroke-width="3.69509" stroke-linecap="round"/>
<path d="M191.303 91.3062C187.716 87.6243 184.732 83.6173 183.333 78.6067C182.48 75.5486 181.444 72.5167 180.338 69.5404C179.907 68.3802 176.479 60.4711 175.691 61.2595" stroke="#1D1D1D" stroke-width="3.69509" stroke-linecap="round"/>
<path d="M182.171 75.1046C181.825 71.6897 181.308 68.1246 183.35 65.1546C185.303 62.3129 188.451 59.9768 191.81 59.2303C194.533 58.6252 204.559 56.9861 204.559 62.1433" stroke="#1D1D1D" stroke-width="3.69509" stroke-linecap="round"/>
<path d="M62.7609 123.382C60.0339 120.611 57.3746 117.828 55.4289 114.432C54.7297 113.211 54.341 112.282 53.2388 111.385C50.5536 109.199 47.412 106.985 44.1214 105.862C40.1466 104.504 37.7372 104.945 34.5755 107.433C31.3003 110.01 28.1274 116.707 29.2193 120.907C30.7775 126.9 36.5088 131.914 41.36 135.356C44.1244 137.318 48.0003 139.665 51.62 138.713C54.0897 138.063 57.855 136.136 59.5233 134.309C61.9614 131.639 61.4448 128.956 61.1421 125.525C60.2678 115.616 58.003 105.485 55.2384 95.935C54.4395 93.1751 52.0047 84.9357 52.477 87.7698C53.0591 91.2622 54.6351 94.4812 55.3098 97.9584C56.1551 102.315 57.7312 106.588 58.952 110.861C59.9525 114.362 62.4814 117.271 63.0941 120.811C63.8461 125.156 65.7603 129.702 65.7603 134.095" stroke="#1D1D1D" stroke-width="3.69509" stroke-linecap="round"/>
<path d="M76.9011 110.099C76.9011 116.863 76.5489 124.868 79.6625 131.095C80.1596 132.089 80.5599 133.086 81.0908 134.095C81.6394 135.137 80.2646 130.009 80.1148 129.31C79.3916 125.935 79.0436 122.726 79.0436 119.288C79.0436 116.971 78.1397 112.722 79.7578 110.766C82.7529 107.144 86.6987 104.1 91.4699 104.1" stroke="#1D1D1D" stroke-width="3.69509" stroke-linecap="round"/>
<path d="M100.04 109.242C102.138 103.053 109.124 102.131 114.204 105.624C121.315 110.513 126.178 118.212 126.178 127.025C126.178 128.988 126.178 132.933 126.178 128.524C126.178 123.077 120.038 118.143 115.561 116.193C111.457 114.406 105.155 119.6 102.468 122.287C99.933 124.822 104.812 129.372 106.967 130C110.83 131.127 114.901 130.137 118.465 129.048C120.534 128.416 122.137 127.014 124.035 126.382" stroke="#1D1D1D" stroke-width="3.69509" stroke-linecap="round"/>
<path d="M138.604 105.814C138.688 108.046 146.337 132.798 148.65 131.476C149.337 131.083 150.381 129.296 150.816 128.667C152.673 125.985 154.251 123.124 156.172 120.478C157.426 118.752 158.526 117.323 159.339 115.336C159.674 114.515 159.409 113.883 160.124 114.812C163.325 118.974 166.594 123.088 169.837 127.215C170.497 128.055 172.983 133.639 173.55 131.857C176.028 124.069 178.334 116.149 181.025 108.433C182.076 105.418 183.684 102.462 184.453 99.3867" stroke="#1D1D1D" stroke-width="3.69509" stroke-linecap="round"/>
<path d="M193.88 101.529C193.997 109.029 195.76 116.551 196.879 123.954C197.314 126.826 197.896 129.802 198.784 132.571C198.927 133.019 199.879 137.127 199.879 135.166C199.879 126.466 195.283 116.522 201.259 109.052C203.677 106.03 215.095 102.362 217.828 106.338C222.693 113.414 221.918 122.246 225.16 129.81" stroke="#1D1D1D" stroke-width="3.69509" stroke-linecap="round"/>
<path d="M237.586 129.81C239.974 129.751 240.832 129.199 239.086 127.453C238.035 126.402 237.586 126.824 237.586 128.096" stroke="#1D1D1D" stroke-width="3.69509" stroke-linecap="round"/>
<path d="M91.7946 53.638C88.8985 53.638 85.7511 53.3068 82.8916 53.8787C79.8738 54.4822 78.2241 55.4343 75.8655 57.0067C71.3032 60.0482 70.6822 67.6679 72.7375 72.262C74.0258 75.1419 72.5239 77.5197 75.7693 79.5287C78.9679 81.5088 79.5825 83.523 83.3488 83.523C86.6201 83.523 91.3901 84.5835 94.1767 82.4162C97.1317 80.1178 97.8807 75.9745 98.965 72.6229C99.5019 70.9634 101.712 67.9945 101.227 66.1984C100.464 63.3771 98.0627 62.4751 95.9091 60.9769C94.447 59.9598 93.0939 58.9212 93.0939 57.103C93.0939 55.9178 91.8216 55.8577 91.3614 54.9374" stroke="#1D1D1D" stroke-width="3.69509" stroke-linecap="round"/>
<path d="M69.6397 62.4953C66.6903 61.917 63.6381 60.4659 61.8514 57.9484C59.7348 54.9658 60.6985 51.8852 60.2308 48.4944C59.9465 46.4338 59.5633 44.4375 60.6359 42.5069C61.8653 40.294 61.5516 42.3582 61.8514 43.8574C62.4267 46.7336 64.9829 49.1772 66.3083 51.7808C67.0692 53.2753 67.837 53.8246 69.4597 54.3018C71.3281 54.8514 73.7529 55.6074 75.7173 55.6074" stroke="#1D1D1D" stroke-width="3.69509" stroke-linecap="round"/>
<path d="M85.0362 53.1764C85.125 50.8693 85.3702 48.862 86.4093 46.7837C86.7376 46.1272 87.0621 45.5474 87.0621 44.8029C87.0621 43.0568 87.8836 40.5327 87.1972 38.9054C85.966 35.987 84.489 32.8408 82.8303 30.1267C82.6129 29.7709 81.8835 28.7749 82.2 29.0463C84.1085 30.6821 85.9026 32.5877 87.6924 34.3585C91.109 37.7388 96.092 41.7815 95.9759 47.0088C95.8998 50.4321 93.297 52.2993 92.3293 55.2023" stroke="#1D1D1D" stroke-width="3.69509" stroke-linecap="round"/>
<path d="M62.5471 157.651C69.4772 157.782 72.8159 161.508 78.4203 164.753C81.4309 166.496 84.7982 167.75 87.6771 169.67" stroke="#1D1D1D" stroke-width="3.69509" stroke-linecap="round"/>
<path d="M81.1214 151.642C80.2069 157.027 78.7022 162.377 76.751 167.484C76.0471 169.327 75.3473 173.649 73.4732 174.586" stroke="#1D1D1D" stroke-width="3.69509" stroke-linecap="round"/>
<path d="M104.066 144.54C101.562 144.54 98.9701 144.153 96.6911 145.359C94.199 146.678 93.8231 148.633 92.7152 151.095C91.8759 152.96 93.0434 156.069 93.3829 157.863C93.8551 160.359 94.1682 161.046 96.3876 162.295C100.376 164.538 104.279 163.207 108.679 161.839C112.365 160.694 112.579 156.363 111.654 153.189C110.221 148.276 108.819 144.121 103.52 142.354" stroke="#1D1D1D" stroke-width="3.69509" stroke-linecap="round"/>
<path d="M218.79 86.0851C218.79 84.0373 217.943 81.3437 220.581 80.9559C224.934 80.3156 226.386 83.277 229.413 85.4781C231.267 86.8269 226.372 78.1184 225.953 77.4049C224.386 74.7389 221.678 70.8258 222.068 67.5107C222.311 65.4418 225.868 68.5837 226.195 68.9372C229.229 72.2139 230.58 74.1146 234.936 75.7356C235.424 75.917 241.051 78.4627 239.307 76.5551C237.331 74.3941 236.272 71.5194 236.272 68.6033" stroke="#1D1D1D" stroke-width="3.69509" stroke-linecap="round"/>
</g>
<defs>
<radialGradient id="paint0_radial_1353_2129" cx="0" cy="0" r="1" gradientUnits="userSpaceOnUse" gradientTransform="translate(344.412 95.0466) rotate(129.203) scale(13.0939 10.4751)">
<stop stop-color="white"/>
<stop offset="1" stop-color="#E7E7E7"/>
</radialGradient>
<radialGradient id="paint1_radial_1353_2129" cx="0" cy="0" r="1" gradientUnits="userSpaceOnUse" gradientTransform="translate(369.294 89.367) rotate(129.203) scale(13.0939 10.4751)">
<stop stop-color="white"/>
<stop offset="1" stop-color="#E7E7E7"/>
</radialGradient>
<radialGradient id="paint2_radial_1353_2129" cx="0" cy="0" r="1" gradientUnits="userSpaceOnUse" gradientTransform="translate(321.948 175.646) rotate(18.101) scale(22.8022 19.6532)">
<stop stop-color="white" stop-opacity="0.8"/>
<stop offset="1" stop-color="white" stop-opacity="0.5"/>
</radialGradient>
<radialGradient id="paint3_radial_1353_2129" cx="0" cy="0" r="1" gradientUnits="userSpaceOnUse" gradientTransform="translate(358.105 163.989) rotate(127.817) scale(9.25335 6.80494)">
<stop stop-color="white" stop-opacity="0.8"/>
<stop offset="1" stop-color="white" stop-opacity="0.2"/>
</radialGradient>
<radialGradient id="paint4_radial_1353_2129" cx="0" cy="0" r="1" gradientUnits="userSpaceOnUse" gradientTransform="translate(317.59 170.19) rotate(31.3148) scale(22.8022 19.6532)">
<stop stop-color="white" stop-opacity="0.8"/>
<stop offset="1" stop-color="white" stop-opacity="0.5"/>
</radialGradient>
<radialGradient id="paint5_radial_1353_2129" cx="0" cy="0" r="1" gradientUnits="userSpaceOnUse" gradientTransform="translate(355.454 167.106) rotate(141.031) scale(9.25335 6.80494)">
<stop stop-color="white" stop-opacity="0.8"/>
<stop offset="1" stop-color="white" stop-opacity="0.2"/>
</radialGradient>
<radialGradient id="paint6_radial_1353_2129" cx="0" cy="0" r="1" gradientUnits="userSpaceOnUse" gradientTransform="translate(450.217 74.0044) rotate(51.5487) scale(11.5069 9.20554)">
<stop stop-color="white"/>
<stop offset="1" stop-color="#E7E7E7"/>
</radialGradient>
<radialGradient id="paint7_radial_1353_2129" cx="0" cy="0" r="1" gradientUnits="userSpaceOnUse" gradientTransform="translate(433.75 71.8918) rotate(51.5487) scale(11.5069 9.20554)">
<stop stop-color="white"/>
<stop offset="1" stop-color="#E7E7E7"/>
</radialGradient>
<radialGradient id="paint8_radial_1353_2129" cx="0" cy="0" r="1" gradientUnits="userSpaceOnUse" gradientTransform="translate(461.587 110.678) rotate(-151.896) scale(45.6154 39.3159)">
<stop stop-color="white" stop-opacity="0.8"/>
<stop offset="1" stop-color="white" stop-opacity="0.5"/>
</radialGradient>
<radialGradient id="paint9_radial_1353_2129" cx="0" cy="0" r="1" gradientUnits="userSpaceOnUse" gradientTransform="translate(428.361 42.3283) rotate(98.3878) scale(18.5111 13.6132)">
<stop stop-color="white" stop-opacity="0.8"/>
<stop offset="1" stop-color="white" stop-opacity="0.2"/>
</radialGradient>
<clipPath id="clip0_1353_2129">
<rect width="518" height="200" fill="white"/>
</clipPath>
</defs>
</svg>
