<svg width="379" height="195" viewBox="0 0 379 195" fill="none" xmlns="http://www.w3.org/2000/svg">
<g clip-path="url(#clip0)">
<rect width="379" height="195" fill="var(--background);"/>
<mask id="path-1-outside-1" maskUnits="userSpaceOnUse" x="14.8988" y="8.85706" width="213" height="161" fill="black">
<rect fill="white" x="14.8988" y="8.85706" width="213" height="161"/>
<path d="M95.301 22.7034C90.5094 21.298 82.0568 17.5239 77.6947 10.8571C68.7941 12.1089 60.831 14.8917 53.6523 18.8847C52.5036 19.5236 51.3749 20.1935 50.2658 20.8931C49.5527 21.3428 48.8478 21.8049 48.1507 22.2788C46.3314 23.5155 44.5657 24.8334 42.8508 26.2262C32.9549 34.2631 24.7461 44.7947 17.6553 56.6277L18.7854 59.8803C19.2515 59.4478 19.7118 59.0204 20.1666 58.5982C37.2497 42.7375 46.5465 34.1059 61.7901 31.6524C62.7742 28.0869 66.496 25.2484 71.1394 24.8802C76.7993 24.4314 81.6853 27.8227 82.0526 32.4547C82.1171 33.2685 82.0378 34.0663 81.8327 34.8312C81.8189 34.8828 81.8046 34.9341 81.7896 34.9854C81.678 35.3676 81.5349 35.7413 81.3625 36.1041C80.9835 36.9019 80.4631 37.6475 79.8254 38.3178C78.97 39.2169 77.9036 39.9806 76.6842 40.5531C75.4218 41.1457 73.9954 41.5334 72.4695 41.6544C70.0329 41.8476 67.7397 41.3292 65.8888 40.3064C64.0378 39.2836 62.6291 37.7565 61.9613 35.9324C60.6687 36.1849 59.4176 36.4663 58.2024 36.7771C42.9573 40.6769 33.3355 49.2061 17.6077 63.1477L16.8988 63.7761L20.0871 67.1236C32.0486 56.4033 64.265 45.6633 85.8095 59.2737C85.8551 58.8828 85.9021 58.4604 85.9522 58.0099C86.0236 57.3679 86.1013 56.6687 86.1906 55.9225C86.4793 53.5095 86.8888 50.6036 87.5949 47.5408C87.9078 46.1833 88.2791 44.7951 88.7239 43.4052C89.1096 42.1999 89.5507 40.9935 90.0571 39.8049C91.588 36.2118 93.7159 32.7823 96.7167 30.0434C96.7636 30.0005 96.8087 29.956 96.8519 29.91C97.0517 30.1065 97.2675 30.3032 97.5001 30.5C99.1238 31.8739 103.459 31.6835 109.327 31.0697C110.052 33.5924 112.319 35.4797 115.215 36.2164C116.528 37.2227 118.366 37.415 119.903 36.5587C120.029 36.4882 120.151 36.4122 120.267 36.3312C124.503 35.5064 127.655 32.5562 128.163 29.2078C148.203 28.046 171.407 31.0412 176.779 58.4999C177.681 63.1075 178.224 67.7782 178.516 72.4344C177.687 73.1739 177.14 74.2306 177.074 75.4279L165.177 104.578C160.504 110.734 152.27 126.465 156.721 140.149C157.058 141.185 157.41 142.105 157.775 142.917L155.644 148.857L155.576 148.864L155.566 149.074L155.548 149.123L155.563 149.129L155.336 153.893C155.304 154.557 155.872 155.092 156.533 155.021L158.986 154.756C159.596 154.69 160.03 154.131 159.941 153.523L159.333 149.372L160.08 147.288L160.732 152.373L160.675 152.41L160.762 152.602L160.769 152.654L160.784 152.652L162.748 156.999C163.022 157.605 163.771 157.823 164.327 157.459L166.392 156.108C166.905 155.772 167.037 155.077 166.681 154.576L164.252 151.155L163.861 148.103C164.162 148.054 164.459 147.969 164.751 147.851L166.179 150.369L166.141 150.425L166.293 150.569L166.319 150.615L166.333 150.607L169.797 153.887C170.279 154.344 171.056 154.262 171.432 153.715L172.832 151.682C173.18 151.177 173.038 150.483 172.52 150.155L168.976 147.908L167.607 145.495C169.653 142.827 170.811 138.73 169.954 135.999C169.145 133.419 169.355 129.536 169.584 125.291L169.585 125.288C169.944 118.646 170.351 111.116 166.979 106.303C169.637 99.1442 175.009 86.2272 178.796 81.6495C178.806 90.0967 178.207 98.3223 177.66 105.847L177.659 105.851C177.214 111.975 176.802 117.635 176.779 122.572C176.777 122.847 176.77 123.331 176.762 123.948C176.722 126.707 176.645 132.128 176.779 133.407C176.78 145.891 180.158 152.2 184.702 155.084L185.241 158.049C185.334 158.561 185.334 159.085 185.241 159.597L184.497 163.692H183.218C182.023 163.692 181.054 164.662 181.054 165.857V165.908C181.054 166.845 181.653 167.694 182.567 167.905C184.699 168.397 186.382 168.287 188.614 167.839C189.576 167.646 190.252 166.785 190.252 165.803C190.252 165.011 189.815 164.32 189.17 163.96V156.853C191.096 157.247 193.093 157.266 195.037 157.062C195.811 156.981 196.561 156.81 197.286 156.556V163.96C196.64 164.321 196.203 165.011 196.203 165.803C196.203 166.785 196.879 167.646 197.841 167.839C200.073 168.287 201.756 168.397 203.889 167.905C204.802 167.694 205.402 166.845 205.402 165.908V165.857C205.402 164.662 204.433 163.693 203.237 163.693H201.93L200.883 158.668C200.83 158.413 200.823 158.15 200.863 157.892L201.485 153.912C206.322 149.295 209.047 140.212 207.99 130.134C207.577 126.193 206.836 122.262 206.101 118.361C205.649 115.964 205.199 113.578 204.829 111.21C204.065 106.317 203.685 101.775 203.303 97.2056C203.041 94.0729 202.778 90.9269 202.389 87.6453C205.87 93.2977 209.685 101.191 211.915 106.205C208.852 111.221 209.732 118.71 210.509 125.317L210.509 125.32C211.005 129.542 211.459 133.404 210.814 136.03C210.13 138.809 211.543 142.826 213.753 145.36L212.539 147.854L209.143 150.319C208.646 150.679 208.549 151.381 208.928 151.863L210.452 153.804C210.863 154.326 211.642 154.359 212.095 153.873L215.346 150.382L215.36 150.389L215.384 150.341L215.526 150.187L215.484 150.134L216.751 147.531C217.05 147.631 217.352 147.698 217.656 147.727L217.457 150.797L215.248 154.365C214.925 154.887 215.1 155.572 215.633 155.875L217.779 157.094C218.357 157.422 219.091 157.157 219.326 156.536L221.012 152.074L221.028 152.075L221.032 152.022L221.106 151.826L221.047 151.792L221.378 146.676L222.255 148.709L221.909 152.89C221.858 153.502 222.326 154.033 222.939 154.061L225.404 154.17C226.068 154.2 226.601 153.63 226.528 152.97L226.002 148.229L226.016 148.223L225.995 148.175L225.972 147.965L225.904 147.963L223.404 142.168C223.716 141.335 224.01 140.395 224.281 139.339C227.863 125.403 218.656 110.22 213.605 104.371L200.883 78.0631C199.412 70.7235 196.958 62.3704 192.5 51.9999C172.865 6.32668 129.907 14.9503 112.47 18.4507C109.482 19.0506 107.244 19.5 106 19.5C101.671 19.4999 97.86 20.9268 96.0218 23.0539C95.8064 22.8997 95.563 22.7803 95.301 22.7034Z"/>
</mask>
<path d="M95.301 22.7034C90.5094 21.298 82.0568 17.5239 77.6947 10.8571C68.7941 12.1089 60.831 14.8917 53.6523 18.8847C52.5036 19.5236 51.3749 20.1935 50.2658 20.8931C49.5527 21.3428 48.8478 21.8049 48.1507 22.2788C46.3314 23.5155 44.5657 24.8334 42.8508 26.2262C32.9549 34.2631 24.7461 44.7947 17.6553 56.6277L18.7854 59.8803C19.2515 59.4478 19.7118 59.0204 20.1666 58.5982C37.2497 42.7375 46.5465 34.1059 61.7901 31.6524C62.7742 28.0869 66.496 25.2484 71.1394 24.8802C76.7993 24.4314 81.6853 27.8227 82.0526 32.4547C82.1171 33.2685 82.0378 34.0663 81.8327 34.8312C81.8189 34.8828 81.8046 34.9341 81.7896 34.9854C81.678 35.3676 81.5349 35.7413 81.3625 36.1041C80.9835 36.9019 80.4631 37.6475 79.8254 38.3178C78.97 39.2169 77.9036 39.9806 76.6842 40.5531C75.4218 41.1457 73.9954 41.5334 72.4695 41.6544C70.0329 41.8476 67.7397 41.3292 65.8888 40.3064C64.0378 39.2836 62.6291 37.7565 61.9613 35.9324C60.6687 36.1849 59.4176 36.4663 58.2024 36.7771C42.9573 40.6769 33.3355 49.2061 17.6077 63.1477L16.8988 63.7761L20.0871 67.1236C32.0486 56.4033 64.265 45.6633 85.8095 59.2737C85.8551 58.8828 85.9021 58.4604 85.9522 58.0099C86.0236 57.3679 86.1013 56.6687 86.1906 55.9225C86.4793 53.5095 86.8888 50.6036 87.5949 47.5408C87.9078 46.1833 88.2791 44.7951 88.7239 43.4052C89.1096 42.1999 89.5507 40.9935 90.0571 39.8049C91.588 36.2118 93.7159 32.7823 96.7167 30.0434C96.7636 30.0005 96.8087 29.956 96.8519 29.91C97.0517 30.1065 97.2675 30.3032 97.5001 30.5C99.1238 31.8739 103.459 31.6835 109.327 31.0697C110.052 33.5924 112.319 35.4797 115.215 36.2164C116.528 37.2227 118.366 37.415 119.903 36.5587C120.029 36.4882 120.151 36.4122 120.267 36.3312C124.503 35.5064 127.655 32.5562 128.163 29.2078C148.203 28.046 171.407 31.0412 176.779 58.4999C177.681 63.1075 178.224 67.7782 178.516 72.4344C177.687 73.1739 177.14 74.2306 177.074 75.4279L165.177 104.578C160.504 110.734 152.27 126.465 156.721 140.149C157.058 141.185 157.41 142.105 157.775 142.917L155.644 148.857L155.576 148.864L155.566 149.074L155.548 149.123L155.563 149.129L155.336 153.893C155.304 154.557 155.872 155.092 156.533 155.021L158.986 154.756C159.596 154.69 160.03 154.131 159.941 153.523L159.333 149.372L160.08 147.288L160.732 152.373L160.675 152.41L160.762 152.602L160.769 152.654L160.784 152.652L162.748 156.999C163.022 157.605 163.771 157.823 164.327 157.459L166.392 156.108C166.905 155.772 167.037 155.077 166.681 154.576L164.252 151.155L163.861 148.103C164.162 148.054 164.459 147.969 164.751 147.851L166.179 150.369L166.141 150.425L166.293 150.569L166.319 150.615L166.333 150.607L169.797 153.887C170.279 154.344 171.056 154.262 171.432 153.715L172.832 151.682C173.18 151.177 173.038 150.483 172.52 150.155L168.976 147.908L167.607 145.495C169.653 142.827 170.811 138.73 169.954 135.999C169.145 133.419 169.355 129.536 169.584 125.291L169.585 125.288C169.944 118.646 170.351 111.116 166.979 106.303C169.637 99.1442 175.009 86.2272 178.796 81.6495C178.806 90.0967 178.207 98.3223 177.66 105.847L177.659 105.851C177.214 111.975 176.802 117.635 176.779 122.572C176.777 122.847 176.77 123.331 176.762 123.948C176.722 126.707 176.645 132.128 176.779 133.407C176.78 145.891 180.158 152.2 184.702 155.084L185.241 158.049C185.334 158.561 185.334 159.085 185.241 159.597L184.497 163.692H183.218C182.023 163.692 181.054 164.662 181.054 165.857V165.908C181.054 166.845 181.653 167.694 182.567 167.905C184.699 168.397 186.382 168.287 188.614 167.839C189.576 167.646 190.252 166.785 190.252 165.803C190.252 165.011 189.815 164.32 189.17 163.96V156.853C191.096 157.247 193.093 157.266 195.037 157.062C195.811 156.981 196.561 156.81 197.286 156.556V163.96C196.64 164.321 196.203 165.011 196.203 165.803C196.203 166.785 196.879 167.646 197.841 167.839C200.073 168.287 201.756 168.397 203.889 167.905C204.802 167.694 205.402 166.845 205.402 165.908V165.857C205.402 164.662 204.433 163.693 203.237 163.693H201.93L200.883 158.668C200.83 158.413 200.823 158.15 200.863 157.892L201.485 153.912C206.322 149.295 209.047 140.212 207.99 130.134C207.577 126.193 206.836 122.262 206.101 118.361C205.649 115.964 205.199 113.578 204.829 111.21C204.065 106.317 203.685 101.775 203.303 97.2056C203.041 94.0729 202.778 90.9269 202.389 87.6453C205.87 93.2977 209.685 101.191 211.915 106.205C208.852 111.221 209.732 118.71 210.509 125.317L210.509 125.32C211.005 129.542 211.459 133.404 210.814 136.03C210.13 138.809 211.543 142.826 213.753 145.36L212.539 147.854L209.143 150.319C208.646 150.679 208.549 151.381 208.928 151.863L210.452 153.804C210.863 154.326 211.642 154.359 212.095 153.873L215.346 150.382L215.36 150.389L215.384 150.341L215.526 150.187L215.484 150.134L216.751 147.531C217.05 147.631 217.352 147.698 217.656 147.727L217.457 150.797L215.248 154.365C214.925 154.887 215.1 155.572 215.633 155.875L217.779 157.094C218.357 157.422 219.091 157.157 219.326 156.536L221.012 152.074L221.028 152.075L221.032 152.022L221.106 151.826L221.047 151.792L221.378 146.676L222.255 148.709L221.909 152.89C221.858 153.502 222.326 154.033 222.939 154.061L225.404 154.17C226.068 154.2 226.601 153.63 226.528 152.97L226.002 148.229L226.016 148.223L225.995 148.175L225.972 147.965L225.904 147.963L223.404 142.168C223.716 141.335 224.01 140.395 224.281 139.339C227.863 125.403 218.656 110.22 213.605 104.371L200.883 78.0631C199.412 70.7235 196.958 62.3704 192.5 51.9999C172.865 6.32668 129.907 14.9503 112.47 18.4507C109.482 19.0506 107.244 19.5 106 19.5C101.671 19.4999 97.86 20.9268 96.0218 23.0539C95.8064 22.8997 95.563 22.7803 95.301 22.7034Z" fill="#1D1D1D"/>
<path d="M95.301 22.7034C90.5094 21.298 82.0568 17.5239 77.6947 10.8571C68.7941 12.1089 60.831 14.8917 53.6523 18.8847C52.5036 19.5236 51.3749 20.1935 50.2658 20.8931C49.5527 21.3428 48.8478 21.8049 48.1507 22.2788C46.3314 23.5155 44.5657 24.8334 42.8508 26.2262C32.9549 34.2631 24.7461 44.7947 17.6553 56.6277L18.7854 59.8803C19.2515 59.4478 19.7118 59.0204 20.1666 58.5982C37.2497 42.7375 46.5465 34.1059 61.7901 31.6524C62.7742 28.0869 66.496 25.2484 71.1394 24.8802C76.7993 24.4314 81.6853 27.8227 82.0526 32.4547C82.1171 33.2685 82.0378 34.0663 81.8327 34.8312C81.8189 34.8828 81.8046 34.9341 81.7896 34.9854C81.678 35.3676 81.5349 35.7413 81.3625 36.1041C80.9835 36.9019 80.4631 37.6475 79.8254 38.3178C78.97 39.2169 77.9036 39.9806 76.6842 40.5531C75.4218 41.1457 73.9954 41.5334 72.4695 41.6544C70.0329 41.8476 67.7397 41.3292 65.8888 40.3064C64.0378 39.2836 62.6291 37.7565 61.9613 35.9324C60.6687 36.1849 59.4176 36.4663 58.2024 36.7771C42.9573 40.6769 33.3355 49.2061 17.6077 63.1477L16.8988 63.7761L20.0871 67.1236C32.0486 56.4033 64.265 45.6633 85.8095 59.2737C85.8551 58.8828 85.9021 58.4604 85.9522 58.0099C86.0236 57.3679 86.1013 56.6687 86.1906 55.9225C86.4793 53.5095 86.8888 50.6036 87.5949 47.5408C87.9078 46.1833 88.2791 44.7951 88.7239 43.4052C89.1096 42.1999 89.5507 40.9935 90.0571 39.8049C91.588 36.2118 93.7159 32.7823 96.7167 30.0434C96.7636 30.0005 96.8087 29.956 96.8519 29.91C97.0517 30.1065 97.2675 30.3032 97.5001 30.5C99.1238 31.8739 103.459 31.6835 109.327 31.0697C110.052 33.5924 112.319 35.4797 115.215 36.2164C116.528 37.2227 118.366 37.415 119.903 36.5587C120.029 36.4882 120.151 36.4122 120.267 36.3312C124.503 35.5064 127.655 32.5562 128.163 29.2078C148.203 28.046 171.407 31.0412 176.779 58.4999C177.681 63.1075 178.224 67.7782 178.516 72.4344C177.687 73.1739 177.14 74.2306 177.074 75.4279L165.177 104.578C160.504 110.734 152.27 126.465 156.721 140.149C157.058 141.185 157.41 142.105 157.775 142.917L155.644 148.857L155.576 148.864L155.566 149.074L155.548 149.123L155.563 149.129L155.336 153.893C155.304 154.557 155.872 155.092 156.533 155.021L158.986 154.756C159.596 154.69 160.03 154.131 159.941 153.523L159.333 149.372L160.08 147.288L160.732 152.373L160.675 152.41L160.762 152.602L160.769 152.654L160.784 152.652L162.748 156.999C163.022 157.605 163.771 157.823 164.327 157.459L166.392 156.108C166.905 155.772 167.037 155.077 166.681 154.576L164.252 151.155L163.861 148.103C164.162 148.054 164.459 147.969 164.751 147.851L166.179 150.369L166.141 150.425L166.293 150.569L166.319 150.615L166.333 150.607L169.797 153.887C170.279 154.344 171.056 154.262 171.432 153.715L172.832 151.682C173.18 151.177 173.038 150.483 172.52 150.155L168.976 147.908L167.607 145.495C169.653 142.827 170.811 138.73 169.954 135.999C169.145 133.419 169.355 129.536 169.584 125.291L169.585 125.288C169.944 118.646 170.351 111.116 166.979 106.303C169.637 99.1442 175.009 86.2272 178.796 81.6495C178.806 90.0967 178.207 98.3223 177.66 105.847L177.659 105.851C177.214 111.975 176.802 117.635 176.779 122.572C176.777 122.847 176.77 123.331 176.762 123.948C176.722 126.707 176.645 132.128 176.779 133.407C176.78 145.891 180.158 152.2 184.702 155.084L185.241 158.049C185.334 158.561 185.334 159.085 185.241 159.597L184.497 163.692H183.218C182.023 163.692 181.054 164.662 181.054 165.857V165.908C181.054 166.845 181.653 167.694 182.567 167.905C184.699 168.397 186.382 168.287 188.614 167.839C189.576 167.646 190.252 166.785 190.252 165.803C190.252 165.011 189.815 164.32 189.17 163.96V156.853C191.096 157.247 193.093 157.266 195.037 157.062C195.811 156.981 196.561 156.81 197.286 156.556V163.96C196.64 164.321 196.203 165.011 196.203 165.803C196.203 166.785 196.879 167.646 197.841 167.839C200.073 168.287 201.756 168.397 203.889 167.905C204.802 167.694 205.402 166.845 205.402 165.908V165.857C205.402 164.662 204.433 163.693 203.237 163.693H201.93L200.883 158.668C200.83 158.413 200.823 158.15 200.863 157.892L201.485 153.912C206.322 149.295 209.047 140.212 207.99 130.134C207.577 126.193 206.836 122.262 206.101 118.361C205.649 115.964 205.199 113.578 204.829 111.21C204.065 106.317 203.685 101.775 203.303 97.2056C203.041 94.0729 202.778 90.9269 202.389 87.6453C205.87 93.2977 209.685 101.191 211.915 106.205C208.852 111.221 209.732 118.71 210.509 125.317L210.509 125.32C211.005 129.542 211.459 133.404 210.814 136.03C210.13 138.809 211.543 142.826 213.753 145.36L212.539 147.854L209.143 150.319C208.646 150.679 208.549 151.381 208.928 151.863L210.452 153.804C210.863 154.326 211.642 154.359 212.095 153.873L215.346 150.382L215.36 150.389L215.384 150.341L215.526 150.187L215.484 150.134L216.751 147.531C217.05 147.631 217.352 147.698 217.656 147.727L217.457 150.797L215.248 154.365C214.925 154.887 215.1 155.572 215.633 155.875L217.779 157.094C218.357 157.422 219.091 157.157 219.326 156.536L221.012 152.074L221.028 152.075L221.032 152.022L221.106 151.826L221.047 151.792L221.378 146.676L222.255 148.709L221.909 152.89C221.858 153.502 222.326 154.033 222.939 154.061L225.404 154.17C226.068 154.2 226.601 153.63 226.528 152.97L226.002 148.229L226.016 148.223L225.995 148.175L225.972 147.965L225.904 147.963L223.404 142.168C223.716 141.335 224.01 140.395 224.281 139.339C227.863 125.403 218.656 110.22 213.605 104.371L200.883 78.0631C199.412 70.7235 196.958 62.3704 192.5 51.9999C172.865 6.32668 129.907 14.9503 112.47 18.4507C109.482 19.0506 107.244 19.5 106 19.5C101.671 19.4999 97.86 20.9268 96.0218 23.0539C95.8064 22.8997 95.563 22.7803 95.301 22.7034Z" stroke="#1D1D1D" stroke-width="2.4" mask="url(#path-1-outside-1)"/>
<path d="M189.17 152.871H184.3L185.241 158.048C185.334 158.56 185.334 159.085 185.241 159.597L184.497 163.692H183.218C182.023 163.692 181.054 164.661 181.054 165.857V165.908C181.054 166.845 181.653 167.694 182.567 167.905C184.699 168.397 186.382 168.287 188.614 167.839C189.577 167.646 190.252 166.785 190.252 165.803C190.252 165.011 189.815 164.32 189.17 163.96V152.871Z" fill="#2C2424"/>
<path d="M202.155 149.625H197.286V163.96C196.64 164.32 196.203 165.011 196.203 165.803C196.203 166.785 196.879 167.646 197.841 167.839C200.073 168.287 201.756 168.397 203.889 167.905C204.802 167.694 205.402 166.845 205.402 165.908V165.857C205.402 164.662 204.433 163.692 203.237 163.692H201.93L200.883 158.668C200.83 158.413 200.823 158.15 200.863 157.892L202.155 149.625Z" fill="#2C2424"/>
<path d="M181.159 79.9873C183.546 80.1185 185.587 78.2898 185.719 75.9027C185.85 73.5156 184.021 71.4744 181.634 71.3433C179.247 71.2122 177.206 73.0408 177.075 75.4279L165.177 104.578C160.504 110.734 152.27 126.465 156.721 140.149C157.058 141.185 157.41 142.105 157.775 142.917L155.644 148.857L155.576 148.864L155.566 149.074L155.548 149.123L155.563 149.129L155.336 153.893C155.304 154.557 155.873 155.092 156.533 155.021L158.986 154.756C159.596 154.69 160.03 154.131 159.941 153.523L159.333 149.372L160.08 147.288L160.732 152.373L160.675 152.41L160.762 152.602L160.769 152.654L160.785 152.652L162.748 156.999C163.022 157.605 163.771 157.823 164.327 157.459L166.392 156.108C166.905 155.772 167.037 155.077 166.681 154.576L164.252 151.155L163.861 148.103C164.162 148.054 164.46 147.969 164.751 147.851L166.179 150.369L166.141 150.425L166.293 150.569L166.319 150.615L166.333 150.607L169.797 153.887C170.279 154.344 171.056 154.262 171.432 153.715L172.832 151.682C173.18 151.177 173.038 150.483 172.52 150.155L168.976 147.908L167.607 145.495C169.653 142.827 170.811 138.73 169.954 135.999C169.145 133.419 169.355 129.536 169.584 125.291L169.585 125.288C169.944 118.646 170.351 111.116 166.979 106.303C170.265 97.4518 177.702 79.7974 181.159 79.9873Z" fill="#C6C6C6"/>
<path d="M95.3011 22.7034C90.5094 21.298 82.0568 17.5239 77.6947 10.857C50.2775 14.7131 31.7559 33.097 17.6553 56.6277L18.7855 59.8803C19.2516 59.4477 19.7119 59.0203 20.1668 58.5981C37.2498 42.7374 46.5465 34.1059 61.7901 31.6523C62.7743 28.0869 66.496 25.2484 71.1395 24.8802C76.7993 24.4314 81.6853 27.8226 82.0526 32.4547C82.4199 37.0868 78.1294 41.2057 72.4696 41.6545C67.5963 42.0409 63.2968 39.5805 61.9614 35.9324C44.4527 39.3516 34.5893 48.0947 17.6077 63.1477C17.3728 63.3559 17.1365 63.5654 16.8988 63.776L20.0871 67.1236C32.0486 56.4033 64.265 45.6633 85.8095 59.2736C85.8551 58.8828 85.9021 58.4604 85.9522 58.0099C86.7138 51.1614 88.1975 37.8191 96.7167 30.0433C97.2811 29.5282 97.5802 28.7744 97.4667 28.0188L96.9438 24.5366C96.8117 23.657 96.1546 22.9538 95.3011 22.7034Z" fill="#C6C6C6"/>
<path d="M58.2025 36.7771L86.1807 56.0062C86.4699 53.5768 86.8807 50.6391 87.5949 47.5408L76.6842 40.553C75.4218 41.1457 73.9955 41.5334 72.4696 41.6544C67.5963 42.0408 63.2968 39.5804 61.9614 35.9324C60.6687 36.1848 59.4177 36.4663 58.2025 36.7771Z" fill="url(#paint0_linear)"/>
<path d="M42.8509 26.2262L53.7258 33.7004C56.2644 32.7943 58.922 32.1139 61.7901 31.6523C61.8395 31.4736 61.8957 31.2967 61.9585 31.1219L48.1507 22.2787C46.3314 23.5155 44.5658 24.8334 42.8509 26.2262Z" fill="url(#paint1_linear)"/>
<path d="M79.8254 38.3178L88.6816 43.5383C89.1048 42.2018 89.5957 40.8629 90.1678 39.5478L81.8328 34.8312C81.4891 36.1127 80.7921 37.3017 79.8254 38.3178Z" fill="url(#paint2_linear)"/>
<path d="M50.2658 20.8931L63.4059 28.6389C64.2307 27.6576 65.2955 26.8148 66.5342 26.1741L53.6523 18.8846C52.5036 19.5235 51.375 20.1935 50.2658 20.8931Z" fill="url(#paint3_linear)"/>
<path d="M207.99 130.134C209.455 144.102 203.656 156.158 195.037 157.062C186.419 157.966 176.78 154.494 176.779 133.407C176.615 131.841 176.767 124.077 176.779 122.572C176.875 110.654 183.278 105.658 190.931 104.856C195.623 104.364 203.676 104.856 204.829 111.21C205.801 117.432 207.323 123.771 207.99 130.134Z" fill="#352F2F"/>
<path d="M190.931 104.856C195.623 104.364 203.676 104.856 204.829 111.21C201.998 93.0843 204.443 79.7811 192.5 51.9999C169.5 -1.49988 114.5 19.5001 106 19.4999C97.5001 19.4997 91.0001 25 97.5001 30.4999C104.834 36.7053 167.486 11.0001 176.779 58.4999C181.279 81.4999 176.854 106.07 176.779 122.572C176.875 110.654 183.278 105.658 190.931 104.856Z" fill="#352F2F"/>
<path d="M128.692 27.1664C127.943 22.5681 122.756 19.7841 117.333 20.6682C111.911 21.5523 107.877 25.8396 108.627 30.4379C109.377 35.0362 114.563 37.8202 119.986 36.9361C125.408 36.052 129.442 31.7647 128.692 27.1664Z" fill="url(#paint4_radial)" stroke="#1D1D1D" stroke-width="1.09205"/>
<circle cx="117.82" cy="32.8204" r="4.27901" transform="rotate(-119.119 117.82 32.8204)" fill="#636363"/>
<path d="M196.108 80.8338C193.734 81.1148 191.582 79.4182 191.301 77.044C191.02 74.6699 192.717 72.5178 195.091 72.2368C197.465 71.9558 199.617 73.6525 199.898 76.0266L213.605 104.371C218.656 110.22 227.863 125.403 224.281 139.339C224.01 140.395 223.716 141.335 223.404 142.168L225.904 147.963L225.972 147.965L225.995 148.174L226.016 148.223L226.002 148.229L226.528 152.97C226.601 153.63 226.068 154.2 225.404 154.17L222.939 154.06C222.326 154.033 221.858 153.502 221.909 152.89L222.255 148.709L221.378 146.676L221.047 151.792L221.106 151.826L221.032 152.022L221.028 152.075L221.012 152.074L219.326 156.536C219.091 157.157 218.357 157.422 217.779 157.094L215.633 155.875C215.1 155.572 214.925 154.887 215.248 154.365L217.457 150.797L217.656 147.727C217.352 147.697 217.05 147.631 216.751 147.531L215.484 150.134L215.526 150.187L215.384 150.341L215.36 150.389L215.346 150.382L212.095 153.873C211.642 154.359 210.863 154.326 210.452 153.804L208.928 151.863C208.549 151.381 208.646 150.679 209.143 150.319L212.539 147.854L213.753 145.36C211.543 142.826 210.13 138.809 210.814 136.03C211.459 133.404 211.005 129.542 210.509 125.32L210.509 125.317C209.732 118.71 208.852 111.221 211.915 106.205C208.079 97.5787 199.547 80.4269 196.108 80.8338Z" fill="#D0D0D0"/>
<path d="M129.731 49.8586L129.949 49.7185C132.894 47.8236 135.31 46.6972 137.849 46.1131C140.384 45.53 143 45.4971 146.324 45.7306L146.792 45.7634L146.877 46.2246L152.885 78.8761C154.46 79.1713 155.821 79.5173 156.902 79.9058C158.046 80.3172 158.981 80.8115 159.475 81.4277L159.605 81.5907L159.608 81.7994L159.855 104.699C160.701 104.532 161.595 105.147 161.595 106.106V110.939C161.595 111.537 161.224 112.051 160.7 112.273C160.453 112.377 160.173 112.503 159.865 112.645V123.453C162.218 123.512 164.335 125.126 164.932 127.517C165.609 129.659 166.367 134.86 164.59 140.053C164.84 140.294 165.106 140.591 165.333 140.924C165.655 141.396 165.946 142.01 165.92 142.673C165.901 143.152 165.591 143.485 165.321 143.664C165.153 143.775 164.976 143.845 164.799 143.882C164.801 143.941 164.801 144 164.799 144.061C164.78 144.54 164.47 144.872 164.2 145.051C163.722 145.368 163.175 145.351 162.734 145.185C162.594 145.132 162.459 145.062 162.332 144.979C162.254 145.121 162.16 145.257 162.049 145.383C161.731 145.743 161.281 145.805 160.959 145.773C160.479 145.726 160.111 145.465 159.865 145.141V150.154V150.506L159.558 150.68C156.317 152.514 152.586 153.715 148.637 154.409L147.441 156.719C148.741 155.24 150.647 154.307 152.771 154.307C156.688 154.307 159.864 157.483 159.864 161.401C159.864 165.31 156.702 168.481 152.795 168.494C150.359 168.683 144.999 168.543 140.601 166.771C139.834 166.463 139.271 165.9 138.928 165.223C138.585 165.9 138.022 166.463 137.256 166.771C132.857 168.543 127.497 168.683 125.061 168.494C121.155 168.481 117.992 165.31 117.992 161.401C117.992 157.483 121.168 154.307 125.086 154.307C127.209 154.307 129.115 155.24 130.415 156.719L129.206 154.384C125.031 153.754 121.045 152.782 117.537 151.592L117.127 151.452V151.019V138.042C115.543 137.267 114.02 136.364 112.583 135.316C111.236 135.736 109.877 136.062 108.638 136.237C108.618 136.545 108.574 136.88 108.49 137.212C108.355 137.747 108.1 138.343 107.613 138.754C107.246 139.064 106.792 139.06 106.478 138.981C105.922 138.842 105.565 138.427 105.39 137.989C105.217 137.557 105.195 137.049 105.339 136.596C105.355 136.549 105.368 136.501 105.38 136.454C105.263 136.533 105.149 136.631 105.04 136.745C104.711 137.089 104.255 137.314 103.793 137.369C103.325 137.425 102.789 137.311 102.401 136.889L102.846 136.479L102.401 136.889C102.181 136.651 101.96 136.254 102.056 135.784C102.089 135.619 102.142 135.463 102.209 135.315C102.065 135.264 101.929 135.198 101.802 135.117C101.404 134.865 101.061 134.439 101.026 133.867C101.006 133.543 101.085 133.096 101.456 132.792C101.502 132.754 101.55 132.718 101.599 132.685C101.521 132.521 101.471 132.338 101.458 132.136C101.439 131.813 101.517 131.366 101.889 131.062M129.731 49.8586L102.272 131.53M129.731 49.8586L129.682 50.1126L124.129 78.8718L129.731 49.8586ZM101.889 131.062L102.272 131.53M101.889 131.062C101.889 131.062 101.889 131.062 101.889 131.062L102.272 131.53M101.889 131.062C102.402 130.641 103.068 130.504 103.638 130.477C104.041 130.458 104.438 130.491 104.781 130.546M102.272 131.53C103.009 130.926 104.325 131.042 105.062 131.217M104.781 130.546C104.704 130.659 104.628 130.774 104.554 130.89L105.062 131.217M104.781 130.546C106.301 128.298 108.194 126.548 109.966 125.265M104.781 130.546C104.934 130.57 105.076 130.599 105.203 130.629L105.062 131.217M105.062 131.217L109.966 125.265M109.966 125.265V125.576H110.571L110.222 125.081C110.137 125.141 110.051 125.203 109.966 125.265ZM117.745 93.4176L117.732 94.049C117.529 93.9841 117.329 93.9189 117.131 93.8537L117.144 93.2208C117.342 93.2866 117.543 93.3522 117.745 93.4176ZM102.138 132.409C102.23 132.614 102.396 132.782 102.599 132.9C102.366 132.958 102.147 133.046 101.958 133.172L102.138 132.409ZM131.988 159.755L132.723 161.175C132.602 161.185 132.418 161.167 132.171 161.048C132.149 160.605 132.087 160.173 131.988 159.755ZM145.869 159.755C145.77 160.173 145.707 160.605 145.686 161.048C145.438 161.167 145.255 161.185 145.133 161.175L145.869 159.755Z" fill="#1D1D1D" stroke="#1D1D1D" stroke-width="1.21007"/>
<path d="M146.282 46.3344C146.501 47.2646 142.888 48.8911 138.578 49.9042C134.268 50.9173 130.495 51.1577 130.277 50.2274C130.058 49.2971 133.476 47.5484 137.786 46.5353C142.096 45.5223 146.063 45.4041 146.282 46.3344Z" fill="#E9E588"/>
<path d="M112.307 129.537C113.344 131.952 116.142 133.069 118.557 132.032C120.972 130.996 122.089 128.198 121.052 125.783C120.015 123.368 117.217 122.251 114.802 123.287C112.388 124.324 111.27 127.122 112.307 129.537Z" fill="#D3D3D3"/>
<path d="M112.307 129.537C113.344 131.952 116.142 133.069 118.557 132.032C113.296 135.323 100.89 138.474 104.567 132.032C107.509 126.879 112.616 124.055 114.802 123.287C112.388 124.324 111.27 127.122 112.307 129.537Z" fill="#D3D3D3"/>
<path d="M107.223 138.292C108.005 137.632 108.093 136.163 108.028 135.446L105.865 135.23C106.115 135.73 106.074 136.284 105.916 136.78C105.713 137.415 105.977 138.232 106.624 138.394C106.832 138.446 107.059 138.43 107.223 138.292Z" fill="#D3D3D3"/>
<path d="M102.649 135.905C102.853 134.902 104.101 134.121 104.76 133.835L105.987 135.629C105.428 135.65 104.962 135.951 104.602 136.328C104.141 136.81 103.298 136.97 102.846 136.479C102.701 136.322 102.606 136.115 102.649 135.905Z" fill="#D3D3D3"/>
<path d="M101.839 133.26C102.631 132.611 104.092 132.793 104.784 132.988L104.602 135.154C104.156 134.817 103.604 134.756 103.087 134.821C102.425 134.904 101.671 134.495 101.63 133.83C101.617 133.616 101.674 133.396 101.839 133.26Z" fill="#D3D3D3"/>
<path d="M102.272 131.529C103.064 130.881 104.524 131.063 105.217 131.257L105.034 133.423C104.588 133.086 104.036 133.025 103.52 133.09C102.858 133.173 102.103 132.765 102.062 132.099C102.049 131.885 102.106 131.665 102.272 131.529Z" fill="#D3D3D3"/>
<path d="M127.249 149.288H138.496V161.401C136.553 161.985 135.464 162.086 133.521 161.401L127.249 149.288Z" fill="#E1DD76"/>
<path d="M150.608 149.288H139.361V161.401C141.303 161.985 142.392 162.086 144.335 161.401L150.608 149.288Z" fill="#E1DD76"/>
<rect x="117.732" y="81.8059" width="41.5278" height="23.3594" fill="#F3F0A7"/>
<path d="M117.732 127.659H159.26V150.154C147.796 156.642 129.844 155.128 117.732 151.019V127.659Z" fill="#F3F0A7"/>
<ellipse cx="138.496" cy="82.4545" rx="20.7639" ry="4.10952" fill="#E9E588"/>
<path d="M152.771 81.5895C152.771 82.9035 146.379 83.9687 138.496 83.9687C130.612 83.9687 124.22 82.9035 124.22 81.5895C124.22 81.5376 124.23 81.4861 124.25 81.435C124.727 80.193 130.923 79.2103 138.496 79.2103C146.068 79.2103 152.264 80.193 152.741 81.435C152.761 81.4861 152.771 81.5376 152.771 81.5895Z" fill="#F3F0A7"/>
<path d="M124.25 81.435C124.727 80.193 130.923 79.2103 138.496 79.2103C146.068 79.2103 152.264 80.193 152.741 81.435L146.282 46.3341L130.276 50.2273L124.25 81.435Z" fill="#F3F0A7"/>
<path d="M117.732 90.0248C127.897 95.2158 149.31 94.5669 159.26 90.0248V143.486C143.445 148.535 134.321 148.138 117.732 143.486V90.0248Z" fill="white"/>
<path d="M117.732 98.6765C127.897 103.867 149.31 103.219 159.26 98.6765V101.094C143.445 106.142 134.321 105.745 117.732 101.094V98.6765Z" fill="#D3D3D3"/>
<path d="M117.732 136.311C127.897 141.502 149.31 140.853 159.26 136.311V138.728C143.445 143.776 134.321 143.38 117.732 138.728V136.311Z" fill="#D3D3D3"/>
<path d="M150.282 121.536C153.88 121.776 156.882 118.355 157.165 114.123C157.447 109.89 154.928 106.1 151.33 105.859C147.732 105.619 144.73 109.04 144.448 113.272C144.165 117.505 146.684 121.295 150.282 121.536Z" fill="url(#paint5_radial)" stroke="#1D1D1D" stroke-width="0.880973"/>
<circle cx="148.633" cy="116.168" r="3.29862" transform="rotate(-16.0335 148.633 116.168)" fill="#636363"/>
<path d="M120.434 119.805C124.032 120.045 127.034 116.624 127.316 112.392C127.599 108.159 125.08 104.369 121.482 104.128C117.884 103.888 114.882 107.309 114.599 111.541C114.317 115.774 116.836 119.564 120.434 119.805Z" fill="url(#paint6_radial)" stroke="#1D1D1D" stroke-width="0.880973"/>
<circle cx="123.111" cy="112.274" r="3.29862" transform="rotate(-16.0335 123.111 112.274)" fill="#636363"/>
<path d="M131.574 161.401C131.574 164.984 128.669 167.889 125.086 167.889C121.502 167.889 118.597 164.984 118.597 161.401C118.597 157.817 121.502 154.912 125.086 154.912C128.669 154.912 131.574 157.817 131.574 161.401Z" fill="#E1DD76"/>
<path d="M131.574 161.401C131.574 164.984 128.669 167.889 125.086 167.889C127.46 168.077 132.736 167.939 137.03 166.21C138.219 165.731 138.837 164.471 138.695 163.197L138.496 161.401H133.521C133.305 161.689 132.613 162.093 131.574 161.401Z" fill="#E1DD76"/>
<path d="M146.282 161.401C146.282 164.984 149.187 167.889 152.771 167.889C156.354 167.889 159.259 164.984 159.259 161.401C159.259 157.817 156.354 154.912 152.771 154.912C149.187 154.912 146.282 157.817 146.282 161.401Z" fill="#E1DD76"/>
<path d="M146.282 161.401C146.282 164.984 149.187 167.889 152.771 167.889C150.396 168.077 145.12 167.939 140.827 166.21C139.638 165.731 139.02 164.471 139.161 163.197L139.361 161.401H144.335C144.552 161.689 145.244 162.093 146.282 161.401Z" fill="#E1DD76"/>
<path d="M159.732 105.379C156.978 106.876 152.921 108.569 151.309 108.684V115.138C153.679 115.138 158.271 112.644 160.464 111.716C160.778 111.583 160.99 111.28 160.99 110.939V106.106C160.99 105.472 160.288 105.076 159.732 105.379Z" fill="#352F2F"/>
<path d="M160.863 133.437C158.311 134.064 155.734 132.503 155.107 129.951C154.48 127.399 156.041 124.822 158.594 124.195C161.146 123.568 163.723 125.129 164.349 127.682C164.976 130.234 163.415 132.811 160.863 133.437Z" fill="#D3D3D3"/>
<path d="M160.863 133.437C158.311 134.064 155.734 132.503 155.107 129.951C155.648 136.132 160.603 147.934 163.532 141.119C165.875 135.667 165.053 129.889 164.349 127.682C164.976 130.234 163.415 132.811 160.863 133.437Z" fill="#D3D3D3"/>
<path d="M156.935 142.769C156.991 141.747 158.111 140.792 158.722 140.412L160.197 142.009C159.647 142.11 159.23 142.477 158.929 142.902C158.544 143.446 157.733 143.727 157.214 143.308C157.048 143.173 156.924 142.983 156.935 142.769Z" fill="#D3D3D3"/>
<path d="M161.595 144.983C162.273 144.216 162.146 142.749 161.977 142.05L159.805 142.152C160.126 142.61 160.166 143.164 160.082 143.678C159.974 144.336 160.355 145.106 161.018 145.171C161.232 145.192 161.454 145.143 161.595 144.983Z" fill="#D3D3D3"/>
<path d="M164.195 144.036C164.235 143.013 163.211 141.957 162.638 141.522L161.019 142.971C161.557 143.125 161.938 143.529 162.197 143.98C162.529 144.558 163.31 144.915 163.866 144.547C164.045 144.428 164.186 144.25 164.195 144.036Z" fill="#D3D3D3"/>
<path d="M165.315 142.649C165.356 141.626 164.332 140.569 163.759 140.134L162.14 141.584C162.678 141.737 163.058 142.141 163.318 142.592C163.65 143.171 164.431 143.527 164.987 143.159C165.165 143.041 165.307 142.863 165.315 142.649Z" fill="#D3D3D3"/>
<path d="M151.066 96.1846C138.277 100.176 121.672 95.8154 112.866 92.3103C111.777 91.877 110.571 92.6668 110.571 93.8386V132.178C110.571 132.629 110.759 133.062 111.098 133.358C122.918 143.669 142.573 142.273 152.128 140.04C152.841 139.874 153.326 139.232 153.326 138.5V97.7764C153.326 96.6296 152.16 95.843 151.066 96.1846Z" fill="#676767"/>
<g opacity="0.67">
<mask id="mask0" mask-type="alpha" maskUnits="userSpaceOnUse" x="110" y="92" width="44" height="50">
<path d="M151.066 96.1846C138.277 100.176 121.672 95.8154 112.866 92.3103C111.777 91.877 110.571 92.6668 110.571 93.8386V132.178C110.571 132.629 110.759 133.062 111.098 133.358C122.918 143.669 142.573 142.273 152.128 140.04C152.841 139.874 153.326 139.232 153.326 138.5V97.7764C153.326 96.6296 152.16 95.843 151.066 96.1846Z" fill="#676767"/>
</mask>
<g mask="url(#mask0)">
<ellipse cx="128.722" cy="116.833" rx="30.655" ry="30.2517" fill="url(#paint7_radial)"/>
</g>
</g>
<g clip-path="url(#clip1)">
<path d="M141.073 113.278C131.678 114.613 120.745 110.151 115.361 107.625C114.821 107.372 114.201 107.764 114.201 108.36V116.375C114.201 116.613 114.305 116.84 114.491 116.99C122.282 123.282 135.143 123.834 141.319 123.277C141.728 123.24 142.032 122.895 142.032 122.484V114.093C142.032 113.588 141.573 113.207 141.073 113.278Z" fill="url(#paint8_linear)"/>
<path d="M123.074 122.398L119.041 109.087L121.864 110.701L125.898 122.398H123.074Z" fill="#CFFCF9"/>
<path d="M127.511 122.801L124.285 111.104H125.495L128.721 122.801H127.511Z" fill="#CFFCF9"/>
</g>
<path d="M140.67 113.278C131.275 114.613 120.342 110.151 114.957 107.625C114.418 107.372 113.797 107.764 113.797 108.36V116.375C113.797 116.613 113.902 116.84 114.087 116.99C121.879 123.282 134.739 123.834 140.916 123.277C141.325 123.24 141.629 122.895 141.629 122.484V114.093C141.629 113.588 141.17 113.207 140.67 113.278Z" stroke="#4F4F4F" stroke-width="1.61342"/>
<circle cx="102.1" cy="132.564" r="44.3691" fill="url(#paint9_radial)"/>
<mask id="path-47-outside-2" maskUnits="userSpaceOnUse" x="41" y="94.4551" width="77" height="92" fill="black">
<rect fill="white" x="41" y="94.4551" width="77" height="92"/>
<path fill-rule="evenodd" clip-rule="evenodd" d="M58.2265 96.3845C57.9252 96.5032 57.7309 96.7977 57.7309 97.1215V102.543L42 105.539V159.992L88.3859 185L116.217 172.899V137.001L101.697 117.236L69.0248 105.832V104.889C69.0248 104.493 68.7358 104.155 68.3444 104.094C68.3021 104.087 68.26 104.08 68.2181 104.074V97.1827C68.2181 96.8288 67.9863 96.5153 67.6475 96.4132C64.0624 95.3324 61.8305 94.9641 58.2265 96.3845Z"/>
</mask>
<path fill-rule="evenodd" clip-rule="evenodd" d="M58.2265 96.3845C57.9252 96.5032 57.7309 96.7977 57.7309 97.1215V102.543L42 105.539V159.992L88.3859 185L116.217 172.899V137.001L101.697 117.236L69.0248 105.832V104.889C69.0248 104.493 68.7358 104.155 68.3444 104.094C68.3021 104.087 68.26 104.08 68.2181 104.074V97.1827C68.2181 96.8288 67.9863 96.5153 67.6475 96.4132C64.0624 95.3324 61.8305 94.9641 58.2265 96.3845Z" fill="#1D1D1D"/>
<path d="M58.2265 96.3845L58.5223 97.135V97.135L58.2265 96.3845ZM57.7309 102.543L57.8818 103.335L58.5376 103.21V102.543H57.7309ZM42 105.539L41.8491 104.747L41.1933 104.871V105.539H42ZM42 159.992H41.1933V160.474L41.6172 160.702L42 159.992ZM88.3859 185L88.0031 185.71L88.3481 185.896L88.7076 185.74L88.3859 185ZM116.217 172.899L116.539 173.639L117.024 173.428V172.899H116.217ZM116.217 137.001H117.024V136.736L116.868 136.523L116.217 137.001ZM101.697 117.236L102.347 116.759L102.199 116.557L101.963 116.475L101.697 117.236ZM69.0248 105.832H68.2181V106.405L68.759 106.594L69.0248 105.832ZM68.3444 104.094L68.4692 103.297L68.4692 103.297L68.3444 104.094ZM68.2181 104.074H67.4114V104.765L68.094 104.871L68.2181 104.074ZM67.6475 96.4132L67.4146 97.1856L67.4146 97.1856L67.6475 96.4132ZM58.5376 97.1215C58.5376 97.1214 58.5376 97.1226 58.5362 97.1246C58.5355 97.1257 58.534 97.1275 58.5315 97.1296C58.5288 97.1318 58.5256 97.1337 58.5223 97.135L57.9307 95.634C57.3114 95.878 56.9242 96.477 56.9242 97.1215H58.5376ZM58.5376 102.543V97.1215H56.9242V102.543H58.5376ZM57.5799 101.75L41.8491 104.747L42.1509 106.331L57.8818 103.335L57.5799 101.75ZM41.1933 105.539V159.992H42.8067V105.539H41.1933ZM41.6172 160.702L88.0031 185.71L88.7687 184.29L42.3828 159.282L41.6172 160.702ZM88.7076 185.74L116.539 173.639L115.896 172.16L88.0643 184.26L88.7076 185.74ZM117.024 172.899V137.001H115.411V172.899H117.024ZM116.868 136.523L102.347 116.759L101.047 117.714L115.567 137.478L116.868 136.523ZM101.963 116.475L69.2907 105.07L68.759 106.594L101.431 117.998L101.963 116.475ZM69.8315 105.832V104.889H68.2181V105.832H69.8315ZM69.8315 104.889C69.8315 104.096 69.2535 103.419 68.4692 103.297L68.2196 104.891C68.2199 104.891 68.2192 104.891 68.2184 104.89C68.2179 104.89 68.218 104.89 68.2183 104.89C68.2186 104.891 68.2186 104.891 68.2184 104.89C68.2181 104.889 68.2181 104.889 68.2181 104.889H69.8315ZM68.4692 103.297C68.4267 103.29 68.3844 103.283 68.3422 103.277L68.094 104.871C68.1357 104.878 68.1776 104.884 68.2196 104.891L68.4692 103.297ZM67.4114 97.1827V104.074H69.0248V97.1827H67.4114ZM67.4146 97.1856C67.4142 97.1854 67.4133 97.185 67.4124 97.1844C67.4118 97.184 67.4116 97.1837 67.4117 97.1838C67.4118 97.1839 67.4117 97.1839 67.4116 97.1835C67.4114 97.1831 67.4114 97.1826 67.4114 97.1827H69.0248C69.0248 96.4748 68.5616 95.8462 67.8803 95.6408L67.4146 97.1856ZM58.5223 97.135C60.2419 96.4573 61.5904 96.222 62.9166 96.2672C64.2619 96.313 65.6313 96.648 67.4146 97.1856L67.8803 95.6408C66.0785 95.0976 64.5394 94.7081 62.9715 94.6547C61.3845 94.6006 59.815 94.8913 57.9307 95.634L58.5223 97.135Z" fill="#1D1D1D" mask="url(#path-47-outside-2)"/>
<path d="M116.217 137.001V172.899L88.3859 185L42 159.992V105.539L58.9409 102.312L101.697 117.236L116.217 137.001Z" fill="#C6C6C6"/>
<path d="M88.3859 122.077L101.697 117.236L58.9409 102.312L42 105.539L88.3859 122.077Z" fill="#EAEAEA"/>
<path opacity="0.7" d="M88.3859 185V122.077L42 105.539V159.992L88.3859 185Z" fill="#EAEAEA"/>
<path d="M56.9242 104.85C56.9242 104.471 57.1887 104.142 57.5597 104.067C61.6735 103.231 64.2418 103.451 68.3444 104.093C68.7358 104.155 69.0249 104.493 69.0249 104.889V109.457C69.0249 109.837 68.7593 110.166 68.3875 110.241C64.2746 111.067 61.7065 110.858 57.6043 110.215C57.213 110.154 56.9242 109.816 56.9242 109.42V104.85Z" fill="#C6C6C6"/>
<path d="M57.7308 97.1214C57.7308 96.7976 57.9252 96.5032 58.2264 96.3844C61.8304 94.9641 64.0623 95.3324 67.6474 96.4131C67.9863 96.5153 68.2181 96.8288 68.2181 97.1827V105.894C68.2181 106.218 68.0223 106.514 67.7195 106.632C64.117 108.036 61.8853 107.686 58.3009 106.604C57.9623 106.502 57.7308 106.189 57.7308 105.835V97.1214Z" fill="#F08181"/>
<path d="M48.6524 146.684L48.2523 146.633L48.2012 147.034L44.4234 176.642L44.3723 177.042L44.7724 177.093L104.789 184.751L105.189 184.802L105.24 184.402L109.018 154.793L109.069 154.393L108.669 154.342L48.6524 146.684Z" fill="#1D1D1D" stroke="#1D1D1D" stroke-width="0.806711"/>
<rect x="48.6013" y="147.085" width="60.5034" height="29.8483" transform="rotate(7.27131 48.6013 147.085)" fill="white"/>
<path d="M57.1391 168.225C56.7151 168.171 56.3419 168.035 56.0193 167.817C55.7011 167.596 55.4628 167.318 55.3042 166.984C55.15 166.645 55.098 166.28 55.1481 165.887C55.1982 165.495 55.34 165.156 55.5737 164.871C55.8118 164.583 56.1124 164.374 56.4753 164.243C56.8427 164.11 57.2403 164.07 57.6683 164.125C58.0289 164.171 58.3461 164.273 58.6199 164.431C58.8977 164.589 59.1212 164.794 59.2904 165.046L58.6029 165.511C58.3611 165.165 58.0322 164.966 57.6161 164.913C57.3585 164.88 57.1217 164.905 56.9057 164.989C56.6901 165.069 56.5126 165.198 56.3731 165.376C56.2376 165.554 56.1541 165.766 56.1228 166.012C56.0915 166.257 56.119 166.483 56.2054 166.69C56.2958 166.897 56.435 167.068 56.6231 167.204C56.8117 167.335 57.0348 167.417 57.2923 167.45C57.7084 167.503 58.0771 167.391 58.3984 167.114L58.9472 167.736C58.7197 167.941 58.4516 168.085 58.143 168.169C57.8343 168.252 57.4997 168.271 57.1391 168.225Z" fill="#352F2F"/>
<path d="M60.8559 168.676C60.5191 168.633 60.2244 168.528 59.9718 168.362C59.7237 168.192 59.5395 167.979 59.4193 167.722C59.299 167.464 59.2582 167.185 59.2967 166.883C59.3353 166.581 59.445 166.32 59.6259 166.102C59.8069 165.883 60.0385 165.725 60.3209 165.626C60.6076 165.525 60.9194 165.495 61.2563 165.538C61.5931 165.581 61.8855 165.688 62.1337 165.858C62.3823 166.024 62.5667 166.235 62.6869 166.492C62.8072 166.749 62.848 167.029 62.8095 167.331C62.7709 167.633 62.6612 167.893 62.4803 168.112C62.2993 168.331 62.0675 168.491 61.7846 168.593C61.5023 168.692 61.1927 168.719 60.8559 168.676ZM60.9484 167.951C61.1861 167.982 61.3899 167.931 61.5598 167.799C61.7341 167.664 61.8376 167.468 61.8704 167.211C61.9031 166.954 61.8519 166.741 61.7166 166.57C61.5858 166.396 61.4015 166.294 61.1638 166.263C60.926 166.233 60.72 166.285 60.5457 166.421C60.3719 166.552 60.2686 166.746 60.2358 167.003C60.2031 167.259 60.2541 167.475 60.3889 167.65C60.5241 167.82 60.7106 167.921 60.9484 167.951Z" fill="#352F2F"/>
<path d="M67.7246 166.364C68.1248 166.415 68.4274 166.569 68.6323 166.825C68.8416 167.078 68.9176 167.429 68.8602 167.879L68.6377 169.623L67.7104 169.505L67.9157 167.896C67.9465 167.655 67.9159 167.468 67.8239 167.338C67.7363 167.204 67.5954 167.124 67.4012 167.1C67.1833 167.072 67.0022 167.118 66.8581 167.237C66.7144 167.353 66.6257 167.544 66.592 167.808L66.3969 169.337L65.4697 169.219L65.6749 167.61C65.7361 167.131 65.5646 166.865 65.1604 166.814C64.9465 166.786 64.7674 166.833 64.6233 166.952C64.4796 167.068 64.3909 167.258 64.3572 167.523L64.1621 169.052L63.2348 168.934L63.6236 165.887L64.5092 166L64.4644 166.351C64.5997 166.237 64.7569 166.158 64.9359 166.112C65.1189 166.066 65.3135 166.056 65.5195 166.082C65.7454 166.111 65.9439 166.181 66.1151 166.291C66.2868 166.397 66.4177 166.538 66.508 166.715C66.659 166.573 66.8391 166.471 67.0483 166.41C67.2614 166.349 67.4869 166.333 67.7246 166.364Z" fill="#352F2F"/>
<path d="M69.8576 166.682L70.7848 166.8L70.396 169.847L69.4688 169.729L69.8576 166.682ZM70.3754 166.316C70.205 166.295 70.0723 166.23 69.9774 166.122C69.8824 166.014 69.8439 165.89 69.8617 165.75C69.8795 165.61 69.948 165.5 70.067 165.419C70.186 165.339 70.3307 165.309 70.5011 165.331C70.6715 165.353 70.8044 165.416 70.8998 165.52C70.9953 165.624 71.0343 165.744 71.017 165.88C70.9982 166.027 70.929 166.143 70.8095 166.228C70.6905 166.309 70.5458 166.338 70.3754 166.316Z" fill="#352F2F"/>
<path d="M73.5947 167.113C73.9909 167.163 74.2955 167.317 74.5083 167.575C74.725 167.833 74.805 168.184 74.7481 168.63L74.5256 170.374L73.5983 170.256L73.8036 168.647C73.8344 168.406 73.8018 168.219 73.7058 168.088C73.6103 167.953 73.4575 167.872 73.2475 167.845C73.0137 167.816 72.8186 167.862 72.662 167.984C72.506 168.102 72.4107 168.297 72.376 168.569L72.1837 170.075L71.2565 169.957L71.6453 166.91L72.5309 167.023L72.4854 167.38C72.6246 167.267 72.7897 167.188 72.9806 167.144C73.1721 167.095 73.3768 167.085 73.5947 167.113Z" fill="#352F2F"/>
<path d="M79.0884 167.86L78.7647 170.397C78.6934 170.956 78.4878 171.352 78.148 171.585C77.8082 171.818 77.3451 171.897 76.7586 171.822C76.4496 171.783 76.1609 171.709 75.8927 171.602C75.6245 171.495 75.4079 171.362 75.243 171.203L75.6924 170.615C75.8137 170.738 75.9734 170.843 76.1718 170.93C76.3696 171.02 76.5716 171.079 76.7776 171.105C77.0986 171.146 77.3433 171.106 77.5117 170.986C77.6836 170.869 77.7873 170.672 77.823 170.392L77.8396 170.262C77.5656 170.484 77.2127 170.568 76.7808 170.512C76.4875 170.475 76.2258 170.38 75.9955 170.228C75.7697 170.073 75.5997 169.874 75.4855 169.633C75.3713 169.392 75.3327 169.127 75.3698 168.836C75.4069 168.545 75.511 168.297 75.6821 168.093C75.8531 167.888 76.0672 167.741 76.3244 167.651C76.5859 167.558 76.8633 167.53 77.1565 167.567C77.6202 167.626 77.9543 167.817 78.1589 168.138L78.2087 167.747L79.0884 167.86ZM77.0575 169.811C77.3032 169.842 77.512 169.8 77.6838 169.684C77.8602 169.564 77.9625 169.393 77.991 169.17C78.0194 168.947 77.963 168.758 77.8219 168.602C77.6852 168.442 77.494 168.347 77.2483 168.316C77.0026 168.284 76.7916 168.328 76.6153 168.448C76.4395 168.564 76.3373 168.733 76.3089 168.956C76.2805 169.178 76.3366 169.37 76.4773 169.53C76.6184 169.686 76.8118 169.78 77.0575 169.811Z" fill="#352F2F"/>
<path d="M82.3159 171.414C82.0504 171.38 81.7947 171.317 81.5489 171.224C81.3034 171.128 81.1115 171.023 80.973 170.909L81.363 170.314C81.4945 170.419 81.6577 170.513 81.8526 170.595C82.0479 170.674 82.2427 170.726 82.4369 170.751C82.8291 170.801 83.0371 170.733 83.0607 170.548C83.0718 170.461 83.0262 170.392 82.9241 170.341C82.8219 170.289 82.6615 170.236 82.443 170.182C82.1863 170.11 81.9759 170.039 81.8118 169.969C81.6477 169.898 81.5101 169.792 81.3992 169.651C81.2923 169.511 81.2535 169.326 81.2829 169.095C81.3075 168.903 81.3866 168.74 81.5203 168.607C81.6585 168.472 81.8438 168.376 82.0763 168.322C82.3128 168.267 82.5835 168.26 82.8886 168.299C83.1145 168.327 83.3353 168.38 83.5509 168.458C83.771 168.532 83.949 168.62 84.085 168.722L83.6957 169.311C83.4337 169.124 83.1362 169.009 82.8034 168.967C82.6052 168.942 82.4533 168.949 82.3475 168.989C82.2417 169.03 82.1835 169.091 82.1729 169.174C82.1608 169.269 82.2059 169.342 82.3081 169.393C82.4102 169.444 82.576 169.502 82.8055 169.566C83.0617 169.641 83.2699 169.713 83.4301 169.784C83.5907 169.85 83.7245 169.954 83.8314 170.094C83.9384 170.234 83.9776 170.416 83.9492 170.638C83.9251 170.827 83.8442 170.988 83.7066 171.12C83.5689 171.252 83.3799 171.345 83.1394 171.399C82.9035 171.449 82.629 171.454 82.3159 171.414Z" fill="#352F2F"/>
<path d="M85.9193 171.874C85.5825 171.831 85.2878 171.726 85.0352 171.56C84.7871 171.39 84.6029 171.177 84.4827 170.92C84.3624 170.662 84.3216 170.383 84.3601 170.081C84.3987 169.779 84.5084 169.518 84.6893 169.3C84.8703 169.081 85.1019 168.922 85.3842 168.824C85.671 168.723 85.9828 168.693 86.3197 168.736C86.6565 168.779 86.9489 168.886 87.1971 169.056C87.4457 169.222 87.6301 169.433 87.7503 169.69C87.8706 169.947 87.9114 170.227 87.8729 170.529C87.8343 170.831 87.7246 171.091 87.5437 171.31C87.3627 171.529 87.1309 171.689 86.848 171.791C86.5657 171.889 86.2561 171.917 85.9193 171.874ZM86.0118 171.149C86.2495 171.179 86.4533 171.129 86.6232 170.997C86.7975 170.862 86.901 170.666 86.9338 170.409C86.9665 170.152 86.9153 169.939 86.78 169.768C86.6492 169.594 86.4649 169.492 86.2271 169.461C85.9894 169.431 85.7834 169.483 85.6091 169.618C85.4353 169.75 85.332 169.944 85.2992 170.201C85.2665 170.457 85.3175 170.673 85.4523 170.848C85.5875 171.018 85.774 171.119 86.0118 171.149Z" fill="#352F2F"/>
<path d="M89.814 172.371C89.4772 172.328 89.1825 172.223 88.9299 172.057C88.6818 171.887 88.4976 171.674 88.3774 171.416C88.2572 171.159 88.2163 170.88 88.2549 170.578C88.2934 170.276 88.4032 170.015 88.5841 169.797C88.765 169.578 88.9967 169.419 89.279 169.321C89.5658 169.22 89.8776 169.19 90.2144 169.233C90.5512 169.276 90.8437 169.383 91.0918 169.552C91.3405 169.718 91.5249 169.93 91.6451 170.187C91.7653 170.444 91.8062 170.724 91.7676 171.026C91.7291 171.328 91.6193 171.588 91.4384 171.807C91.2575 172.026 91.0256 172.186 90.7428 172.288C90.4604 172.386 90.1508 172.414 89.814 172.371ZM89.9065 171.646C90.1443 171.676 90.3481 171.626 90.5179 171.494C90.6922 171.359 90.7957 171.163 90.8285 170.906C90.8613 170.649 90.81 170.436 90.6748 170.265C90.5439 170.091 90.3596 169.989 90.1219 169.958C89.8842 169.928 89.6781 169.98 89.5038 170.115C89.33 170.247 89.2268 170.441 89.194 170.698C89.1612 170.954 89.2122 171.17 89.347 171.344C89.4823 171.515 89.6688 171.616 89.9065 171.646Z" fill="#352F2F"/>
<path d="M94.5312 169.784C94.9274 169.835 95.2319 169.989 95.4447 170.246C95.6615 170.504 95.7415 170.856 95.6846 171.301L95.462 173.046L94.5348 172.927L94.74 171.319C94.7709 171.077 94.7383 170.891 94.6423 170.76C94.5467 170.625 94.394 170.544 94.184 170.517C93.9502 170.487 93.755 170.533 93.5985 170.655C93.4425 170.773 93.3471 170.968 93.3124 171.24L93.1202 172.747L92.193 172.629L92.5818 169.581L93.4674 169.694L93.4219 170.051C93.5611 169.939 93.7262 169.86 93.9171 169.815C94.1085 169.767 94.3132 169.756 94.5312 169.784Z" fill="#352F2F"/>
<path d="M96.6895 169.173L97.795 169.314L97.2805 171.879L96.5435 171.785L96.6895 169.173ZM96.7306 173.254C96.5681 173.233 96.4377 173.166 96.3393 173.054C96.2453 172.938 96.2075 172.809 96.2258 172.665C96.2441 172.522 96.3128 172.41 96.4318 172.329C96.5513 172.244 96.6943 172.213 96.8607 172.234C97.0271 172.255 97.1576 172.322 97.252 172.434C97.347 172.542 97.3853 172.667 97.367 172.811C97.3487 172.954 97.2775 173.07 97.1536 173.158C97.0341 173.242 96.8931 173.274 96.7306 173.254Z" fill="#352F2F"/>
<g clip-path="url(#clip2)">
<rect x="48.6013" y="147.085" width="60.5034" height="8.06711" transform="rotate(7.27131 48.6013 147.085)" fill="#E9E588"/>
<path d="M54.0153 142.896L58.8166 143.509L48.5681 160.093L43.7668 159.48L54.0153 142.896Z" fill="#4F4F4F"/>
<path d="M63.618 144.121L68.4193 144.734L58.1708 161.318L53.3694 160.705L63.618 144.121Z" fill="#4F4F4F"/>
<path d="M73.2206 145.346L78.022 145.959L67.7734 162.543L62.9721 161.93L73.2206 145.346Z" fill="#4F4F4F"/>
<path d="M82.8233 146.572L87.6246 147.184L77.3761 163.768L72.5748 163.156L82.8233 146.572Z" fill="#4F4F4F"/>
<path d="M92.4261 147.797L97.2274 148.41L86.9789 164.993L82.1775 164.381L92.4261 147.797Z" fill="#4F4F4F"/>
<path d="M102.029 149.022L106.83 149.635L96.5815 166.219L91.7802 165.606L102.029 149.022Z" fill="#4F4F4F"/>
<path d="M111.631 150.247L116.433 150.86L106.184 167.444L101.383 166.831L111.631 150.247Z" fill="#4F4F4F"/>
</g>
<ellipse cx="62.9745" cy="103.522" rx="2.82349" ry="2.42013" fill="#FFBBBB"/>
<path d="M112.184 124.093L115.007 122.48" stroke="#8199F0" stroke-width="0.806711"/>
<path d="M106.94 122.077L109.764 120.463" stroke="#8199F0" stroke-width="0.806711"/>
<path d="M97.2424 111.478L98.4872 108.474" stroke="#8199F0" stroke-width="0.806711"/>
<path d="M101.682 109.801L104.034 107.556" stroke="#8199F0" stroke-width="0.806711"/>
<path d="M104.102 115.448L106.454 113.203" stroke="#8199F0" stroke-width="0.806711"/>
<path d="M106.522 109.801L108.874 107.556" stroke="#8199F0" stroke-width="0.806711"/>
<path d="M109.749 116.255L112.101 114.009" stroke="#8199F0" stroke-width="0.806711"/>
<path d="M111.781 127.724L114.604 126.11" stroke="#8199F0" stroke-width="0.806711"/>
<path d="M120.654 128.53L123.075 127.724" stroke="#8199F0" stroke-width="0.806711"/>
<path d="M118.234 125.303L120.654 124.497" stroke="#8199F0" stroke-width="0.806711"/>
<path d="M117.427 132.564L119.848 131.757" stroke="#8199F0" stroke-width="0.806711"/>
</g>
<defs>
<linearGradient id="paint0_linear" x1="43.5914" y1="24.6969" x2="88.6011" y2="50.4054" gradientUnits="userSpaceOnUse">
<stop stop-color="white" stop-opacity="0.4"/>
<stop offset="1" stop-color="#EDEDED" stop-opacity="0"/>
</linearGradient>
<linearGradient id="paint1_linear" x1="43.5914" y1="24.6969" x2="88.6011" y2="50.4054" gradientUnits="userSpaceOnUse">
<stop stop-color="white" stop-opacity="0.4"/>
<stop offset="1" stop-color="#EDEDED" stop-opacity="0"/>
</linearGradient>
<linearGradient id="paint2_linear" x1="43.5914" y1="24.6969" x2="88.6011" y2="50.4054" gradientUnits="userSpaceOnUse">
<stop stop-color="white" stop-opacity="0.4"/>
<stop offset="1" stop-color="#EDEDED" stop-opacity="0"/>
</linearGradient>
<linearGradient id="paint3_linear" x1="43.5914" y1="24.6969" x2="88.6011" y2="50.4054" gradientUnits="userSpaceOnUse">
<stop stop-color="white" stop-opacity="0.4"/>
<stop offset="1" stop-color="#EDEDED" stop-opacity="0"/>
</linearGradient>
<radialGradient id="paint4_radial" cx="0" cy="0" r="1" gradientUnits="userSpaceOnUse" gradientTransform="translate(118.679 32.3748) rotate(-58.4101) scale(15.0734 12.0587)">
<stop stop-color="white"/>
<stop offset="1" stop-color="#E7E7E7"/>
</radialGradient>
<radialGradient id="paint5_radial" cx="0" cy="0" r="1" gradientUnits="userSpaceOnUse" gradientTransform="translate(148.12 113.089) rotate(44.6752) scale(11.6199 9.29589)">
<stop stop-color="white"/>
<stop offset="1" stop-color="#E7E7E7"/>
</radialGradient>
<radialGradient id="paint6_radial" cx="0" cy="0" r="1" gradientUnits="userSpaceOnUse" gradientTransform="translate(118.272 111.358) rotate(44.6752) scale(11.6199 9.29589)">
<stop stop-color="white"/>
<stop offset="1" stop-color="#E7E7E7"/>
</radialGradient>
<radialGradient id="paint7_radial" cx="0" cy="0" r="1" gradientUnits="userSpaceOnUse" gradientTransform="translate(128.722 116.833) rotate(90) scale(30.2517 30.655)">
<stop stop-color="#76DEF5"/>
<stop offset="1" stop-color="#9AEBFD" stop-opacity="0"/>
</radialGradient>
<linearGradient id="paint8_linear" x1="128.116" y1="107.07" x2="128.116" y2="123.443" gradientUnits="userSpaceOnUse">
<stop stop-color="#8199F0"/>
<stop offset="1" stop-color="#8199F0" stop-opacity="0"/>
</linearGradient>
<radialGradient id="paint9_radial" cx="0" cy="0" r="1" gradientUnits="userSpaceOnUse" gradientTransform="translate(102.1 132.564) rotate(90) scale(44.3691)">
<stop stop-color="#77FFF7"/>
<stop offset="1" stop-color="#78FFF7" stop-opacity="0"/>
</radialGradient>
<clipPath id="clip0">
<rect width="379" height="195" fill="white"/>
</clipPath>
<clipPath id="clip1">
<rect width="27.8315" height="16.3725" fill="white" transform="translate(114.201 107.07)"/>
</clipPath>
<clipPath id="clip2">
<rect width="60.5034" height="8.06711" fill="white" transform="translate(48.6013 147.085) rotate(7.27131)"/>
</clipPath>
</defs>
</svg>
