<svg width="152" height="190" viewBox="0 0 152 190" fill="none" xmlns="http://www.w3.org/2000/svg">
<mask id="path-1-outside-1" maskUnits="userSpaceOnUse" x="49.8293" y="0" width="102" height="212" fill="black">
<rect fill="white" x="49.8293" width="102" height="212"/>
<path fill-rule="evenodd" clip-rule="evenodd" d="M93.5449 76.2146C99.9744 65.8139 110.366 59.4709 120.801 59.9114C123.112 50.1755 124.447 41.4671 124.584 34.6844C124.718 28.0731 123.979 23.4839 123.032 20.4643C122.448 18.5983 121.784 17.3317 121.197 16.5578C120.823 16.0643 120.652 15.3856 120.922 14.8286L126.8 2.71292C127.285 1.71273 128.711 1.77629 129.059 2.83221C129.938 5.50425 130.903 9.02573 131.593 13.1583C131.672 13.6343 131.748 14.1184 131.82 14.6102C132.975 22.5469 133.032 32.5 129.667 42.9395L129.624 43.0725C127.81 48.7051 126.013 54.5552 124.268 60.3116C124.969 60.445 125.669 60.6107 126.365 60.8095C141.719 65.1897 149.812 83.9815 144.441 102.782L144.439 102.792L144.442 102.782C144.188 103.672 143.908 104.546 143.604 105.403L143.608 105.39L143.603 105.403C142.356 109.264 140.763 114.035 138.979 119.14H125.537L137.416 123.56C133.223 135.272 128.303 147.829 124.385 154.829C126.3 156.218 128.873 158.068 130.049 158.855C130.636 159.249 131.556 159.492 132.488 159.737C134.574 160.288 136.714 160.853 135.28 163.154C134.23 164.841 132.627 166.908 131.011 168.991C129.933 170.381 128.85 171.779 127.92 173.076L131.732 175.338L130.304 171.496C133.549 169.406 136.214 165.733 135.862 159.621C135.227 148.572 145.023 136.179 150 131.364C148.147 134.327 145.077 143.429 147.618 156.129C147.754 156.809 147.872 157.484 147.974 158.151L144.123 160.415L148.4 162.107C149.032 172.074 146.216 180.012 144.442 183.117L144.441 183.117C141.451 188.068 133.881 196.266 124.065 196.856C122.416 198.712 120.453 201.496 120.453 203.754C120.453 206.153 122.99 206.359 125.136 206.533C126.256 206.624 127.27 206.707 127.76 207.088C129.19 208.199 126.172 209.787 122.201 209.469C121.671 209.427 121.158 209.393 120.671 209.361C117.506 209.152 115.423 209.014 116.8 207.088C118.388 204.865 119.182 202.643 119.182 201.373C119.182 200.532 119.948 198.23 120.835 196.771C119.47 196.616 118.07 196.306 116.641 195.816C114.817 195.191 112.828 194.716 110.755 194.221L110.754 194.221L110.752 194.221C106.577 193.224 102.062 192.146 97.8772 189.599C94.9543 190.502 92.8297 192.412 92.0189 193.435C93.2898 193.435 95.0371 198.039 95.0371 199.309C95.0371 200.579 95.8313 202.802 97.4198 205.024C98.7965 206.95 96.7133 207.088 93.5483 207.297C93.0612 207.329 92.5485 207.363 92.0189 207.405C88.0476 207.723 85.0294 206.135 86.4591 205.024C86.9495 204.643 87.9631 204.561 89.0834 204.47C91.2292 204.295 93.7663 204.089 93.7663 201.69C93.7663 198.769 90.4833 194.97 88.8419 193.435L93.8936 186.575C89.6427 182.585 86.0435 176.308 83.9625 165.943C82.6932 167.706 81.2512 169.73 80.5814 170.734C80.1893 171.322 79.9483 172.242 79.7046 173.174C79.1587 175.26 78.5987 177.4 76.2924 175.973C72.788 173.805 67.9407 171.021 64.523 169.599C64.6277 169.758 64.7274 169.923 64.8216 170.095C66.3656 172.905 66.1019 176.725 63.731 181.295C59.425 189.594 60.1459 193.217 61.063 195.164C61.8813 196.902 62.0823 198.993 62.0177 200.825C61.9522 202.679 61.6054 204.503 61.1334 205.824C60.7793 206.814 59.6885 207.331 58.6971 206.977C57.7056 206.623 57.1889 205.533 57.543 204.542C57.8653 203.64 58.1539 202.21 58.2076 200.691C58.262 199.149 58.0659 197.747 57.6134 196.787C55.9889 193.337 55.7567 188.387 60.3464 179.541C62.4233 175.538 62.1597 173.166 61.4797 171.929C60.7918 170.677 59.3268 169.94 57.5908 169.94L57.5796 169.94L57.5615 169.94L56.6758 170.148C56.6689 170.149 56.662 170.151 56.6552 170.152C56.6224 170.16 56.5896 170.166 56.5568 170.172C56.5404 170.181 56.5249 170.191 56.5102 170.201C56.3081 170.333 56.1304 170.536 55.9828 170.838C55.6602 171.496 55.5931 172.405 55.6707 173.045C55.7974 174.089 55.0529 175.039 54.0077 175.165C52.9626 175.292 52.0126 174.548 51.886 173.503C51.7518 172.397 51.8117 170.687 52.5588 169.162C52.9459 168.372 53.5388 167.592 54.4182 167.016C54.4873 166.97 54.5575 166.927 54.6288 166.885C54.9968 166.43 55.5596 166.13 56.2117 166.13H62.3134L76.2924 172.004L83.0319 160.253C82.4111 155.477 82.0625 149.983 82.0433 143.652L87.571 144.54L82.072 139.742C82.2701 128.267 83.4765 114.246 85.9825 97.0735C86.043 94.7607 86.838 92.6091 87.6636 90.3746L87.6639 90.3739C88.0779 89.2536 88.4996 88.1124 88.8403 86.9196C89.4474 84.794 90.2009 82.7591 91.0817 80.8282L100.915 83.5797L93.5449 76.2146ZM125.046 173.605L131.309 163.145L122.607 158.132C122.22 159.045 121.914 159.994 121.685 160.967L111.558 162.003L121.214 164.086C120.975 167.366 121.489 170.775 122.585 173.909C122.759 173.903 122.939 173.893 123.124 173.879C123.717 173.834 124.365 173.745 125.046 173.605Z"/>
</mask>
<path fill-rule="evenodd" clip-rule="evenodd" d="M93.5449 76.2146C99.9744 65.8139 110.366 59.4709 120.801 59.9114C123.112 50.1755 124.447 41.4671 124.584 34.6844C124.718 28.0731 123.979 23.4839 123.032 20.4643C122.448 18.5983 121.784 17.3317 121.197 16.5578C120.823 16.0643 120.652 15.3856 120.922 14.8286L126.8 2.71292C127.285 1.71273 128.711 1.77629 129.059 2.83221C129.938 5.50425 130.903 9.02573 131.593 13.1583C131.672 13.6343 131.748 14.1184 131.82 14.6102C132.975 22.5469 133.032 32.5 129.667 42.9395L129.624 43.0725C127.81 48.7051 126.013 54.5552 124.268 60.3116C124.969 60.445 125.669 60.6107 126.365 60.8095C141.719 65.1897 149.812 83.9815 144.441 102.782L144.439 102.792L144.442 102.782C144.188 103.672 143.908 104.546 143.604 105.403L143.608 105.39L143.603 105.403C142.356 109.264 140.763 114.035 138.979 119.14H125.537L137.416 123.56C133.223 135.272 128.303 147.829 124.385 154.829C126.3 156.218 128.873 158.068 130.049 158.855C130.636 159.249 131.556 159.492 132.488 159.737C134.574 160.288 136.714 160.853 135.28 163.154C134.23 164.841 132.627 166.908 131.011 168.991C129.933 170.381 128.85 171.779 127.92 173.076L131.732 175.338L130.304 171.496C133.549 169.406 136.214 165.733 135.862 159.621C135.227 148.572 145.023 136.179 150 131.364C148.147 134.327 145.077 143.429 147.618 156.129C147.754 156.809 147.872 157.484 147.974 158.151L144.123 160.415L148.4 162.107C149.032 172.074 146.216 180.012 144.442 183.117L144.441 183.117C141.451 188.068 133.881 196.266 124.065 196.856C122.416 198.712 120.453 201.496 120.453 203.754C120.453 206.153 122.99 206.359 125.136 206.533C126.256 206.624 127.27 206.707 127.76 207.088C129.19 208.199 126.172 209.787 122.201 209.469C121.671 209.427 121.158 209.393 120.671 209.361C117.506 209.152 115.423 209.014 116.8 207.088C118.388 204.865 119.182 202.643 119.182 201.373C119.182 200.532 119.948 198.23 120.835 196.771C119.47 196.616 118.07 196.306 116.641 195.816C114.817 195.191 112.828 194.716 110.755 194.221L110.754 194.221L110.752 194.221C106.577 193.224 102.062 192.146 97.8772 189.599C94.9543 190.502 92.8297 192.412 92.0189 193.435C93.2898 193.435 95.0371 198.039 95.0371 199.309C95.0371 200.579 95.8313 202.802 97.4198 205.024C98.7965 206.95 96.7133 207.088 93.5483 207.297C93.0612 207.329 92.5485 207.363 92.0189 207.405C88.0476 207.723 85.0294 206.135 86.4591 205.024C86.9495 204.643 87.9631 204.561 89.0834 204.47C91.2292 204.295 93.7663 204.089 93.7663 201.69C93.7663 198.769 90.4833 194.97 88.8419 193.435L93.8936 186.575C89.6427 182.585 86.0435 176.308 83.9625 165.943C82.6932 167.706 81.2512 169.73 80.5814 170.734C80.1893 171.322 79.9483 172.242 79.7046 173.174C79.1587 175.26 78.5987 177.4 76.2924 175.973C72.788 173.805 67.9407 171.021 64.523 169.599C64.6277 169.758 64.7274 169.923 64.8216 170.095C66.3656 172.905 66.1019 176.725 63.731 181.295C59.425 189.594 60.1459 193.217 61.063 195.164C61.8813 196.902 62.0823 198.993 62.0177 200.825C61.9522 202.679 61.6054 204.503 61.1334 205.824C60.7793 206.814 59.6885 207.331 58.6971 206.977C57.7056 206.623 57.1889 205.533 57.543 204.542C57.8653 203.64 58.1539 202.21 58.2076 200.691C58.262 199.149 58.0659 197.747 57.6134 196.787C55.9889 193.337 55.7567 188.387 60.3464 179.541C62.4233 175.538 62.1597 173.166 61.4797 171.929C60.7918 170.677 59.3268 169.94 57.5908 169.94L57.5796 169.94L57.5615 169.94L56.6758 170.148C56.6689 170.149 56.662 170.151 56.6552 170.152C56.6224 170.16 56.5896 170.166 56.5568 170.172C56.5404 170.181 56.5249 170.191 56.5102 170.201C56.3081 170.333 56.1304 170.536 55.9828 170.838C55.6602 171.496 55.5931 172.405 55.6707 173.045C55.7974 174.089 55.0529 175.039 54.0077 175.165C52.9626 175.292 52.0126 174.548 51.886 173.503C51.7518 172.397 51.8117 170.687 52.5588 169.162C52.9459 168.372 53.5388 167.592 54.4182 167.016C54.4873 166.97 54.5575 166.927 54.6288 166.885C54.9968 166.43 55.5596 166.13 56.2117 166.13H62.3134L76.2924 172.004L83.0319 160.253C82.4111 155.477 82.0625 149.983 82.0433 143.652L87.571 144.54L82.072 139.742C82.2701 128.267 83.4765 114.246 85.9825 97.0735C86.043 94.7607 86.838 92.6091 87.6636 90.3746L87.6639 90.3739C88.0779 89.2536 88.4996 88.1124 88.8403 86.9196C89.4474 84.794 90.2009 82.7591 91.0817 80.8282L100.915 83.5797L93.5449 76.2146ZM125.046 173.605L131.309 163.145L122.607 158.132C122.22 159.045 121.914 159.994 121.685 160.967L111.558 162.003L121.214 164.086C120.975 167.366 121.489 170.775 122.585 173.909C122.759 173.903 122.939 173.893 123.124 173.879C123.717 173.834 124.365 173.745 125.046 173.605Z" fill="#1D1D1D"/>
<path d="M122.585 173.909L121.753 174.2L122.585 173.909ZM145.288 103.03L145.289 103.024L143.594 102.54L143.592 102.545L145.288 103.03ZM142.767 105.124L142.765 105.133L144.443 105.674L144.446 105.665L142.767 105.124ZM150.749 131.829L150.749 131.828L149.251 130.899L149.25 130.9L150.749 131.829ZM123.603 174.128C123.539 173.958 123.477 173.788 123.418 173.617L121.753 174.2C121.817 174.383 121.883 174.566 121.951 174.747L123.603 174.128ZM149.281 162.052C149.197 160.74 149.055 159.393 148.845 158.018L147.102 158.284C147.304 159.607 147.441 160.902 147.52 162.163L149.281 162.052ZM148.482 155.956C145.98 143.452 149.026 134.585 150.746 131.833L149.251 130.898C147.265 134.076 144.174 143.41 146.752 156.302L148.482 155.956ZM124.868 172.741C124.021 172.916 123.232 173.005 122.556 173.028L122.615 174.79C123.396 174.764 124.284 174.662 125.225 174.468L124.868 172.741ZM110.541 195.083C112.615 195.575 114.563 196.037 116.355 196.651L116.927 194.982C115.039 194.336 113.003 193.854 110.948 193.367L110.541 195.083ZM121.796 157.787C119.641 162.858 119.911 168.936 121.753 174.2L123.418 173.617C121.683 168.661 121.476 163.051 123.419 158.477L121.796 157.787ZM91.8844 81.1943C91.7765 81.431 91.5755 81.4915 91.5443 81.4984C91.5296 81.5016 91.583 81.4899 91.7451 81.5121C92.06 81.5551 92.5172 81.6847 93.0895 81.8784C94.1478 82.2366 95.6166 82.8292 96.6287 83.082C96.8954 83.1486 97.167 83.2021 97.4216 83.2221C97.658 83.2407 97.9754 83.2393 98.2773 83.1159C98.6421 82.9668 98.9406 82.6519 99.0169 82.1989C99.0788 81.8314 98.9735 81.481 98.8601 81.2133C98.6265 80.6621 98.1356 79.9601 97.4026 79.0817C96.6539 78.1843 95.5988 77.0406 94.1729 75.5956L92.9176 76.8344C94.3269 78.2625 95.3441 79.3673 96.0486 80.2115C96.7688 81.0747 97.1117 81.6074 97.2363 81.9014C97.302 82.0562 97.2568 82.0311 97.2779 81.9061C97.3133 81.6957 97.47 81.5407 97.6099 81.4835C97.6869 81.4521 97.6964 81.4747 97.5597 81.464C97.4413 81.4547 97.2747 81.4256 97.056 81.371C96.1268 81.1389 94.8994 80.6292 93.6549 80.208C93.0759 80.012 92.48 79.8326 91.9837 79.7648C91.7402 79.7315 91.4485 79.714 91.1671 79.7756C90.8692 79.8409 90.4799 80.024 90.28 80.4624L91.8844 81.1943ZM110.703 195.098C112.726 195.593 114.62 196.056 116.355 196.651L116.927 194.982C115.103 194.357 113.128 193.875 111.122 193.385L110.703 195.098ZM88.5235 90.5805C88.9153 89.5274 89.3346 88.4013 89.6886 87.162L87.9929 86.6776C87.6605 87.8412 87.265 88.9055 86.8706 89.9656L88.5235 90.5805ZM121.796 157.788C119.642 162.859 119.911 168.936 121.754 174.2L123.418 173.618C121.683 168.661 121.476 163.051 123.419 158.477L121.796 157.788ZM120.801 59.9114L120.727 61.6734L122.181 61.7348L122.517 60.3186L120.801 59.9114ZM93.5449 76.2146L92.0448 75.2873L91.3106 76.475L92.2983 77.4621L93.5449 76.2146ZM124.584 34.6844L126.347 34.7201L124.584 34.6844ZM123.032 20.4643L124.715 19.9369L123.032 20.4643ZM121.197 16.5578L119.792 17.6228L121.197 16.5578ZM120.922 14.8286L119.335 14.0588V14.0588L120.922 14.8286ZM126.8 2.71292L128.387 3.4827L128.387 3.4827L126.8 2.71292ZM129.059 2.83221L130.734 2.28099V2.28099L129.059 2.83221ZM131.593 13.1583L133.332 12.8681V12.8681L131.593 13.1583ZM131.82 14.6102L130.075 14.8641V14.8641L131.82 14.6102ZM129.667 42.9395L127.988 42.3984L127.988 42.3986L129.667 42.9395ZM129.624 43.0725L127.946 42.5316L127.945 42.5318L129.624 43.0725ZM124.268 60.3116L122.58 59.7998L122.01 61.6774L123.938 62.0441L124.268 60.3116ZM126.365 60.8095L125.881 62.5053L125.881 62.5053L126.365 60.8095ZM144.441 102.782L142.746 102.298L142.742 102.31L142.739 102.323L144.441 102.782ZM144.439 102.792L142.736 102.333L146.12 103.324L144.439 102.792ZM144.442 102.782L146.138 103.267L142.761 102.25L144.442 102.782ZM143.604 105.403L141.915 104.895L145.266 105.993L143.604 105.403ZM143.608 105.39L145.296 105.899L141.946 104.8L143.608 105.39ZM143.603 105.403L141.941 104.814L141.933 104.837L141.925 104.861L143.603 105.403ZM138.979 119.14V120.903H140.231L140.644 119.722L138.979 119.14ZM125.537 119.14V117.376L124.922 120.793L125.537 119.14ZM137.416 123.56L139.077 124.155L139.664 122.515L138.031 121.907L137.416 123.56ZM124.385 154.829L122.846 153.968L122.08 155.336L123.35 156.257L124.385 154.829ZM130.049 158.855L129.067 160.32L129.067 160.32L130.049 158.855ZM132.488 159.737L132.038 161.443L132.038 161.443L132.488 159.737ZM135.28 163.154L133.783 162.222L133.783 162.222L135.28 163.154ZM131.011 168.991L132.405 170.072L131.011 168.991ZM127.92 173.076L126.487 172.049L125.367 173.611L127.02 174.592L127.92 173.076ZM131.732 175.338L130.832 176.854L135.123 179.401L133.385 174.723L131.732 175.338ZM130.304 171.496L129.349 170.013L128.157 170.781L128.651 172.11L130.304 171.496ZM135.862 159.621L137.623 159.52L135.862 159.621ZM150 131.364L151.495 132.299L148.774 130.096L150 131.364ZM147.618 156.129L149.347 155.783V155.783L147.618 156.129ZM147.974 158.151L148.868 159.671L149.898 159.066L149.717 157.885L147.974 158.151ZM144.123 160.415L143.229 158.895L140.114 160.726L143.474 162.055L144.123 160.415ZM148.4 162.107L150.161 161.996L150.09 160.879L149.049 160.468L148.4 162.107ZM144.442 183.117L145.533 184.502L145.803 184.289L145.973 183.992L144.442 183.117ZM144.441 183.117L143.349 181.732L143.097 181.931L142.931 182.206L144.441 183.117ZM124.065 196.856L123.959 195.096L123.231 195.14L122.747 195.685L124.065 196.856ZM125.136 206.533L125.279 204.776H125.279L125.136 206.533ZM127.76 207.088L126.678 208.48H126.678L127.76 207.088ZM120.671 209.361L120.555 211.121H120.555L120.671 209.361ZM120.835 196.771L122.342 197.686L123.773 195.329L121.033 195.018L120.835 196.771ZM116.641 195.816L117.212 194.148H117.212L116.641 195.816ZM110.755 194.221L111.165 192.506L111.134 192.499L111.103 192.493L110.755 194.221ZM110.754 194.221L110.358 195.94L110.382 195.945L110.406 195.95L110.754 194.221ZM110.752 194.221L110.343 195.936L110.356 195.939L110.752 194.221ZM97.8772 189.599L98.7939 188.093L98.1156 187.68L97.3569 187.914L97.8772 189.599ZM92.0189 193.435L90.6366 192.34L88.3721 195.199H92.0189V193.435ZM97.4198 205.024L98.8546 203.999L97.4198 205.024ZM93.5483 207.297L93.6645 209.057H93.6645L93.5483 207.297ZM92.0189 207.405L91.8784 205.648L92.0189 207.405ZM86.4591 205.024L87.5414 206.417H87.5414L86.4591 205.024ZM89.0834 204.47L88.9406 202.712H88.9406L89.0834 204.47ZM88.8419 193.435L87.4218 192.39L86.4919 193.653L87.6375 194.724L88.8419 193.435ZM93.8936 186.575L95.3137 187.62L96.2418 186.36L95.1004 185.289L93.8936 186.575ZM83.9625 165.943L85.6916 165.596L84.8951 161.629L82.5312 164.913L83.9625 165.943ZM80.5814 170.734L79.1144 169.755L79.1144 169.755L80.5814 170.734ZM79.7046 173.174L77.9985 172.727L77.9985 172.727L79.7046 173.174ZM76.2924 175.973L77.2203 174.473L77.2202 174.473L76.2924 175.973ZM64.523 169.599L65.2005 167.971L59.8919 165.762L63.0492 170.567L64.523 169.599ZM64.8216 170.095L63.276 170.944L63.276 170.944L64.8216 170.095ZM63.731 181.295L62.1656 180.483H62.1656L63.731 181.295ZM61.063 195.164L62.6585 194.413L62.6585 194.413L61.063 195.164ZM62.0177 200.825L60.2552 200.763L62.0177 200.825ZM61.1334 205.824L59.4727 205.23L59.4727 205.23L61.1334 205.824ZM57.543 204.542L55.8823 203.949H55.8823L57.543 204.542ZM58.2076 200.691L56.4451 200.628V200.628L58.2076 200.691ZM57.6134 196.787L56.0179 197.538H56.0179L57.6134 196.787ZM60.3464 179.541L61.9118 180.353H61.9118L60.3464 179.541ZM61.4797 171.929L59.934 172.778H59.934L61.4797 171.929ZM57.5908 169.94V168.177H57.5878L57.5908 169.94ZM57.5796 169.94L57.5765 168.177L57.5701 168.177L57.5796 169.94ZM57.5615 169.94L57.5521 168.177L57.3534 168.178L57.1599 168.223L57.5615 169.94ZM56.6758 170.148L57.0771 171.865L57.0775 171.865L56.6758 170.148ZM56.6552 170.152L57.0396 171.873L57.0401 171.873L56.6552 170.152ZM56.5568 170.172L56.2568 168.434L55.936 168.489L55.6561 168.656L56.5568 170.172ZM56.5102 170.201L57.4774 171.675L57.4777 171.675L56.5102 170.201ZM55.9828 170.838L54.3991 170.062L54.3991 170.062L55.9828 170.838ZM55.6707 173.045L53.92 173.257L55.6707 173.045ZM51.886 173.503L50.1352 173.716H50.1353L51.886 173.503ZM52.5588 169.162L54.1424 169.938L52.5588 169.162ZM54.4182 167.016L53.451 165.541L53.4509 165.541L54.4182 167.016ZM54.6288 166.885L55.5229 168.405L55.7986 168.243L55.9997 167.994L54.6288 166.885ZM62.3134 166.13L62.9965 164.504L62.6688 164.367H62.3134V166.13ZM76.2924 172.004L75.6092 173.63L77.0466 174.234L77.8222 172.881L76.2924 172.004ZM83.0319 160.253L84.5617 161.131L84.8573 160.615L84.7807 160.026L83.0319 160.253ZM82.0433 143.652L82.3229 141.911L80.2734 141.582L80.2797 143.658L82.0433 143.652ZM87.571 144.54L87.2913 146.281L93.368 147.257L88.7304 143.211L87.571 144.54ZM82.072 139.742L80.3087 139.712L80.2945 140.532L80.9126 141.071L82.072 139.742ZM85.9825 97.0735L87.7275 97.3281L87.7427 97.2244L87.7454 97.1196L85.9825 97.0735ZM87.6636 90.3746L86.0098 89.7623L86.0094 89.7633L87.6636 90.3746ZM87.6639 90.3739L89.3177 90.9862L89.3181 90.9852L87.6639 90.3739ZM88.8403 86.9196L87.1445 86.4353L87.1445 86.4353L88.8403 86.9196ZM91.0817 80.8282L91.5569 79.1299L90.1036 78.7232L89.4772 80.0963L91.0817 80.8282ZM100.915 83.5797L100.439 85.278L106.925 87.0927L102.161 82.3322L100.915 83.5797ZM131.309 163.145L132.822 164.051L133.743 162.512L132.189 161.616L131.309 163.145ZM125.046 173.605L125.403 175.332L126.161 175.175L126.559 174.511L125.046 173.605ZM122.607 158.132L123.488 156.604L121.763 155.61L120.984 157.442L122.607 158.132ZM121.685 160.967L121.864 162.722L123.114 162.594L123.402 161.371L121.685 160.967ZM111.558 162.003L111.378 160.248L111.186 163.726L111.558 162.003ZM121.214 164.086L122.972 164.214L123.084 162.685L121.586 162.362L121.214 164.086ZM122.585 173.909L120.921 174.491L121.349 175.715L122.645 175.671L122.585 173.909ZM123.124 173.879L122.99 172.121L123.124 173.879ZM120.876 58.1495C109.663 57.6761 98.7286 64.4752 92.0448 75.2873L95.0449 77.142C101.22 67.1526 111.069 61.2657 120.727 61.6734L120.876 58.1495ZM122.821 34.6488C122.687 41.2576 121.381 49.8313 119.085 59.5043L122.517 60.3186C124.842 50.5197 126.207 41.6766 126.347 34.7201L122.821 34.6488ZM121.35 20.9918C122.225 23.7854 122.952 28.1762 122.821 34.6488L126.347 34.7201C126.484 27.9701 125.732 23.1824 124.715 19.9369L121.35 20.9918ZM119.792 17.6228C120.221 18.1891 120.806 19.2559 121.35 20.9918L124.715 19.9369C124.09 17.9406 123.346 16.4743 122.603 15.4929L119.792 17.6228ZM119.335 14.0588C118.68 15.4093 119.169 16.8005 119.792 17.6228L122.603 15.4929C122.587 15.4717 122.573 15.4488 122.564 15.4277C122.554 15.4064 122.552 15.3946 122.552 15.3951C122.552 15.3959 122.556 15.4159 122.552 15.4526C122.548 15.4912 122.536 15.5428 122.509 15.5984L119.335 14.0588ZM125.213 1.94313L119.335 14.0588L122.509 15.5984L128.387 3.4827L125.213 1.94313ZM130.734 2.28099C129.857 -0.382857 126.343 -0.384793 125.213 1.94313L128.387 3.4827C128.3 3.66067 128.092 3.77274 127.894 3.7629C127.798 3.75817 127.689 3.72617 127.587 3.65174C127.477 3.57142 127.411 3.46699 127.383 3.38343L130.734 2.28099ZM133.332 12.8681C132.626 8.63367 131.636 5.02442 130.734 2.28099L127.383 3.38343C128.239 5.98408 129.181 9.41779 129.854 13.4486L133.332 12.8681ZM133.565 14.3563C133.492 13.8521 133.414 13.3559 133.332 12.8681L129.854 13.4486C129.931 13.9127 130.005 14.3847 130.075 14.8641L133.565 14.3563ZM131.345 43.4806C134.813 32.7222 134.748 22.486 133.565 14.3563L130.075 14.8641C131.201 22.6078 131.251 32.2778 127.988 42.3984L131.345 43.4806ZM131.303 43.6134L131.345 43.4804L127.988 42.3986L127.946 42.5316L131.303 43.6134ZM125.955 60.8235C127.7 55.0698 129.493 49.2312 131.303 43.6132L127.945 42.5318C126.126 48.179 124.327 54.0405 122.58 59.7998L125.955 60.8235ZM126.849 59.1136C126.101 58.9003 125.35 58.7224 124.597 58.5791L123.938 62.0441C124.588 62.1677 125.236 62.3211 125.881 62.5053L126.849 59.1136ZM146.137 103.267C151.679 83.8667 143.445 63.8481 126.849 59.1136L125.881 62.5053C139.993 66.5312 147.945 84.0963 142.746 102.298L146.137 103.267ZM146.142 103.251L146.144 103.241L142.739 102.323L142.736 102.333L146.142 103.251ZM142.761 102.25L142.758 102.26L146.12 103.324L146.123 103.315L142.761 102.25ZM145.266 105.993C145.582 105.101 145.873 104.192 146.138 103.267L142.746 102.298C142.502 103.152 142.233 103.991 141.942 104.814L145.266 105.993ZM141.919 104.881L141.915 104.895L145.292 105.912L145.296 105.899L141.919 104.881ZM145.265 105.993L145.27 105.979L141.946 104.8L141.941 104.814L145.265 105.993ZM140.644 119.722C142.432 114.603 144.03 109.819 145.281 105.945L141.925 104.861C140.682 108.71 139.093 113.467 137.314 118.558L140.644 119.722ZM125.537 120.903H138.979V117.376H125.537V120.903ZM138.031 121.907L126.152 117.487L124.922 120.793L136.801 125.213L138.031 121.907ZM125.924 155.691C129.923 148.544 134.888 135.854 139.077 124.155L135.756 122.966C131.558 134.69 126.682 147.114 122.846 153.968L125.924 155.691ZM131.03 157.39C129.888 156.625 127.344 154.797 125.42 153.402L123.35 156.257C125.256 157.64 127.859 159.511 129.067 160.32L131.03 157.39ZM132.938 158.032C131.893 157.757 131.315 157.581 131.03 157.39L129.067 160.32C129.956 160.916 131.22 161.227 132.038 161.443L132.938 158.032ZM136.777 164.087C137.238 163.346 137.575 162.495 137.5 161.583C137.419 160.599 136.893 159.886 136.312 159.417C135.771 158.981 135.13 158.707 134.592 158.517C134.041 158.322 133.444 158.166 132.938 158.032L132.038 161.443C132.575 161.584 133.027 161.705 133.419 161.843C133.824 161.986 134.02 162.1 134.096 162.162C134.131 162.19 134.002 162.084 133.984 161.871C133.973 161.729 134.039 161.811 133.783 162.222L136.777 164.087ZM132.405 170.072C134 168.015 135.668 165.868 136.777 164.087L133.783 162.222C132.791 163.815 131.254 165.801 129.618 167.91L132.405 170.072ZM129.354 174.103C130.26 172.838 131.322 171.468 132.405 170.072L129.618 167.91C128.545 169.294 127.439 170.719 126.487 172.049L129.354 174.103ZM132.632 173.821L128.82 171.559L127.02 174.592L130.832 176.854L132.632 173.821ZM128.651 172.11L130.079 175.952L133.385 174.723L131.957 170.881L128.651 172.11ZM134.101 159.723C134.414 165.157 132.097 168.244 129.349 170.013L131.259 172.979C135.002 170.569 138.013 166.309 137.623 159.52L134.101 159.723ZM148.774 130.096C146.184 132.602 142.388 137.027 139.307 142.26C136.245 147.459 133.754 153.685 134.101 159.723L137.623 159.52C137.335 154.509 139.424 149.013 142.346 144.05C145.248 139.12 148.839 134.941 151.226 132.631L148.774 130.096ZM149.347 155.783C146.884 143.47 149.908 134.837 151.495 132.299L148.505 130.429C146.386 133.818 143.27 143.387 145.888 156.475L149.347 155.783ZM149.717 157.885C149.611 157.191 149.488 156.49 149.347 155.783L145.888 156.475C146.019 157.128 146.133 157.776 146.231 158.418L149.717 157.885ZM145.017 161.936L148.868 159.671L147.08 156.631L143.229 158.895L145.017 161.936ZM149.049 160.468L144.772 158.775L143.474 162.055L147.752 163.747L149.049 160.468ZM145.973 183.992C147.916 180.591 150.814 172.311 150.161 161.996L146.64 162.219C147.25 171.837 144.516 179.432 142.911 182.241L145.973 183.992ZM145.532 184.503L145.533 184.502L143.35 181.731L143.349 181.732L145.532 184.503ZM124.171 198.617C129.544 198.293 134.225 195.895 137.902 193.009C141.577 190.124 144.355 186.671 145.95 184.029L142.931 182.206C141.537 184.515 139.035 187.636 135.724 190.235C132.414 192.833 128.402 194.829 123.959 195.096L124.171 198.617ZM122.217 203.754C122.217 203.084 122.528 202.147 123.169 201.034C123.788 199.959 124.61 198.898 125.383 198.028L122.747 195.685C121.871 196.67 120.887 197.929 120.112 199.274C119.359 200.582 118.69 202.166 118.69 203.754H122.217ZM125.279 204.776C124.125 204.682 123.259 204.594 122.664 204.348C122.404 204.241 122.317 204.148 122.291 204.113C122.28 204.1 122.217 204.023 122.217 203.754H118.69C118.69 204.685 118.943 205.534 119.476 206.239C119.992 206.923 120.673 207.342 121.316 207.608C122.526 208.108 124.001 208.211 124.993 208.291L125.279 204.776ZM128.843 205.696C128.237 205.224 127.492 205.053 126.989 204.965C126.437 204.868 125.816 204.819 125.279 204.776L124.993 208.291C125.577 208.339 126.022 208.376 126.38 208.439C126.553 208.469 126.662 208.498 126.725 208.52C126.792 208.543 126.756 208.541 126.678 208.48L128.843 205.696ZM122.06 211.227C124.273 211.404 126.338 211.067 127.746 210.415C128.388 210.118 129.227 209.604 129.643 208.736C129.882 208.238 129.975 207.626 129.778 206.997C129.593 206.404 129.209 205.981 128.843 205.696L126.678 208.48C126.669 208.473 126.503 208.343 126.411 208.048C126.308 207.717 126.368 207.409 126.463 207.211C126.592 206.943 126.696 207.015 126.265 207.214C125.53 207.554 124.1 207.852 122.341 207.711L122.06 211.227ZM120.555 211.121C121.044 211.153 121.544 211.186 122.06 211.227L122.341 207.711C121.798 207.668 121.273 207.633 120.788 207.601L120.555 211.121ZM115.365 206.062C114.961 206.628 114.46 207.511 114.643 208.536C114.853 209.714 115.784 210.266 116.371 210.503C116.974 210.747 117.686 210.864 118.333 210.94C119.005 211.019 119.777 211.069 120.555 211.121L120.788 207.601C119.983 207.548 119.308 207.503 118.742 207.437C118.151 207.368 117.835 207.291 117.694 207.234C117.536 207.17 118.007 207.313 118.115 207.917C118.195 208.367 117.95 208.511 118.234 208.113L115.365 206.062ZM117.419 201.373C117.419 202.12 116.852 203.982 115.365 206.062L118.234 208.113C119.925 205.749 120.946 203.165 120.946 201.373H117.419ZM119.327 195.855C118.802 196.721 118.341 197.782 118.012 198.721C117.707 199.591 117.419 200.626 117.419 201.373H120.946C120.946 201.374 120.955 201.234 121.031 200.916C121.1 200.628 121.205 200.274 121.341 199.887C121.616 199.1 121.981 198.28 122.342 197.686L119.327 195.855ZM116.069 197.485C117.618 198.015 119.143 198.354 120.636 198.523L121.033 195.018C119.797 194.878 118.522 194.597 117.212 194.148L116.069 197.485ZM110.345 195.937C112.436 196.436 114.34 196.892 116.069 197.485L117.212 194.148C115.294 193.491 113.219 192.997 111.165 192.506L110.345 195.937ZM110.406 195.95L110.407 195.95L111.103 192.493L111.103 192.493L110.406 195.95ZM110.356 195.939L110.358 195.94L111.151 192.503L111.148 192.502L110.356 195.939ZM96.9604 191.106C101.417 193.818 106.199 194.947 110.343 195.936L111.162 192.506C106.954 191.501 102.707 190.474 98.7939 188.093L96.9604 191.106ZM93.4013 194.53C94.0286 193.738 95.8687 192.065 98.3974 191.284L97.3569 187.914C94.0399 188.938 91.6308 191.085 90.6366 192.34L93.4013 194.53ZM96.8007 199.309C96.8007 198.714 96.6223 197.976 96.4329 197.347C96.2265 196.661 95.9405 195.893 95.6099 195.166C95.2854 194.452 94.8851 193.706 94.4316 193.109C94.2061 192.811 93.9227 192.491 93.5786 192.23C93.2471 191.979 92.7109 191.672 92.0189 191.672V195.199C91.8289 195.199 91.6817 195.156 91.5906 195.118C91.5023 195.082 91.4551 195.046 91.4484 195.041C91.4431 195.037 91.5047 195.086 91.6217 195.241C91.8533 195.546 92.1281 196.03 92.3993 196.626C92.6644 197.209 92.8946 197.829 93.0555 198.364C93.1358 198.631 93.1943 198.861 93.2313 199.043C93.2718 199.242 93.2736 199.321 93.2736 199.309H96.8007ZM98.8546 203.999C97.3677 201.918 96.8007 200.057 96.8007 199.309H93.2736C93.2736 201.102 94.2949 203.685 95.9851 206.05L98.8546 203.999ZM93.6645 209.057C94.4424 209.005 95.2147 208.955 95.887 208.876C96.5331 208.801 97.2453 208.684 97.8489 208.439C98.4352 208.202 99.367 207.65 99.577 206.472C99.7596 205.447 99.2586 204.564 98.8546 203.999L95.9851 206.05C96.2694 206.447 96.0243 206.303 96.1046 205.853C96.2123 205.249 96.6835 205.106 96.5255 205.17C96.3848 205.227 96.0688 205.304 95.4771 205.373C94.9116 205.439 94.2366 205.484 93.432 205.537L93.6645 209.057ZM92.1595 209.163C92.6751 209.122 93.1759 209.089 93.6645 209.057L93.432 205.537C92.9465 205.569 92.422 205.604 91.8784 205.648L92.1595 209.163ZM85.3768 203.632C85.0102 203.917 84.6262 204.34 84.4411 204.933C84.2449 205.562 84.3372 206.174 84.5761 206.672C84.9924 207.54 85.8315 208.054 86.4731 208.351C87.882 209.003 89.9469 209.34 92.1595 209.163L91.8784 205.648C90.1197 205.788 88.6898 205.49 87.9541 205.15C87.5235 204.951 87.6279 204.879 87.7563 205.147C87.8513 205.345 87.9112 205.653 87.8081 205.984C87.7161 206.279 87.5506 206.409 87.5414 206.417L85.3768 203.632ZM88.9406 202.712C88.4038 202.756 87.7822 202.805 87.2309 202.901C86.7272 202.989 85.9829 203.161 85.3768 203.632L87.5414 206.417C87.4631 206.477 87.4272 206.48 87.4947 206.456C87.5577 206.435 87.6669 206.405 87.8391 206.375C88.1973 206.313 88.6426 206.275 89.2261 206.227L88.9406 202.712ZM92.0028 201.69C92.0028 201.959 91.9393 202.036 91.929 202.049C91.9026 202.084 91.8151 202.177 91.5557 202.285C90.9605 202.531 90.0943 202.618 88.9406 202.712L89.2261 206.227C90.2183 206.147 91.6935 206.044 92.9034 205.544C93.5465 205.278 94.2273 204.859 94.7437 204.175C95.2762 203.47 95.5298 202.621 95.5298 201.69H92.0028ZM87.6375 194.724C88.3788 195.417 89.5205 196.653 90.4619 198.036C91.4494 199.486 92.0028 200.79 92.0028 201.69H95.5298C95.5298 199.67 94.4417 197.614 93.3774 196.05C92.267 194.42 90.9464 192.989 90.0462 192.147L87.6375 194.724ZM92.4735 185.529L87.4218 192.39L90.262 194.481L95.3137 187.62L92.4735 185.529ZM82.2335 166.29C84.3651 176.907 88.0982 183.554 92.6867 187.861L95.1004 185.289C91.1872 181.616 87.722 175.709 85.6916 165.596L82.2335 166.29ZM82.0484 171.713C82.6974 170.74 84.1196 168.743 85.3938 166.973L82.5312 164.913C81.2667 166.669 79.8051 168.72 79.1144 169.755L82.0484 171.713ZM81.4107 173.62C81.6841 172.576 81.8582 171.998 82.0485 171.713L79.1144 169.755C78.5203 170.646 78.2126 171.909 77.9985 172.727L81.4107 173.62ZM75.3645 177.472C76.1063 177.931 76.9582 178.265 77.8702 178.188C78.8528 178.105 79.5646 177.578 80.0329 176.996C80.4683 176.455 80.7411 175.813 80.9298 175.275C81.1232 174.723 81.2784 174.126 81.4107 173.62L77.9985 172.727C77.8579 173.265 77.7384 173.717 77.6012 174.109C77.4592 174.514 77.3455 174.709 77.2845 174.785C77.2563 174.82 77.3615 174.691 77.5734 174.673C77.7146 174.662 77.6316 174.728 77.2203 174.473L75.3645 177.472ZM63.8456 171.227C67.124 172.591 71.8698 175.311 75.3646 177.473L77.2202 174.473C73.7061 172.299 68.7574 169.45 65.2005 167.971L63.8456 171.227ZM66.3673 169.246C66.2507 169.034 66.1271 168.829 65.9969 168.63L63.0492 170.567C63.1284 170.688 63.2041 170.813 63.276 170.944L66.3673 169.246ZM65.2963 182.107C67.8017 177.278 68.3126 172.787 66.3673 169.246L63.276 170.944C64.4186 173.024 64.4022 176.172 62.1656 180.483L65.2963 182.107ZM62.6585 194.413C62.0684 193.16 61.1228 190.151 65.2963 182.107L62.1656 180.483C57.7271 189.037 58.2234 193.274 59.4675 195.916L62.6585 194.413ZM63.7801 200.887C63.8495 198.921 63.6462 196.51 62.6585 194.413L59.4675 195.916C60.1165 197.294 60.3151 199.065 60.2552 200.763L63.7801 200.887ZM62.7941 206.417C63.3354 204.902 63.7092 202.896 63.7801 200.887L60.2552 200.763C60.1952 202.462 59.8753 204.103 59.4727 205.23L62.7941 206.417ZM58.1043 208.638C60.012 209.319 62.112 208.326 62.7941 206.417L59.4727 205.23C59.4466 205.303 59.3651 205.343 59.2899 205.316L58.1043 208.638ZM55.8823 203.949C55.2001 205.858 56.196 207.957 58.1043 208.638L59.2899 205.316C59.2152 205.289 59.1778 205.208 59.2037 205.136L55.8823 203.949ZM56.4451 200.628C56.3969 201.993 56.1353 203.241 55.8823 203.949L59.2037 205.136C59.5953 204.04 59.9109 202.427 59.97 200.753L56.4451 200.628ZM56.0179 197.538C56.3009 198.139 56.4948 199.22 56.4451 200.628L59.97 200.753C60.0292 199.077 59.8309 197.356 59.2089 196.035L56.0179 197.538ZM58.781 178.729C54.0607 187.826 54.0652 193.391 56.0179 197.538L59.2089 196.035C57.9125 193.282 57.4526 188.948 61.9118 180.353L58.781 178.729ZM59.934 172.778C60.2158 173.291 60.7192 174.993 58.781 178.729L61.9118 180.353C64.1275 176.083 64.1035 173.042 63.0254 171.079L59.934 172.778ZM57.5908 171.704C58.8659 171.704 59.635 172.233 59.934 172.778L63.0254 171.079C61.9487 169.12 59.7876 168.177 57.5908 168.177V171.704ZM57.5826 171.704L57.5939 171.704L57.5878 168.177L57.5765 168.177L57.5826 171.704ZM57.571 171.704L57.5891 171.704L57.5701 168.177L57.5521 168.177L57.571 171.704ZM57.0775 171.865L57.9632 171.658L57.1599 168.223L56.2742 168.43L57.0775 171.865ZM57.0401 171.873C57.0498 171.871 57.0626 171.868 57.0771 171.865L56.2746 168.43C56.2752 168.43 56.2743 168.43 56.2703 168.431L57.0401 171.873ZM56.8567 171.91C56.918 171.899 56.979 171.887 57.0396 171.873L56.2707 168.431C56.2658 168.432 56.2611 168.433 56.2568 168.434L56.8567 171.91ZM57.4777 171.675C57.4707 171.68 57.4639 171.684 57.4575 171.688L55.6561 168.656C55.617 168.679 55.5792 168.702 55.5427 168.726L57.4777 171.675ZM57.5664 171.614C57.5862 171.573 57.5925 171.571 57.5766 171.59C57.5591 171.611 57.5263 171.643 57.4774 171.675L55.5429 168.726C55.0288 169.063 54.6585 169.532 54.3991 170.062L57.5664 171.614ZM57.4214 172.832C57.4003 172.658 57.3965 172.414 57.4273 172.161C57.4589 171.901 57.517 171.714 57.5664 171.614L54.3991 170.062C53.8804 171.12 53.8161 172.4 53.92 173.257L57.4214 172.832ZM54.2198 176.916C56.2309 176.672 57.6655 174.845 57.4214 172.832L53.92 173.257C53.9293 173.334 53.8748 173.405 53.7956 173.414L54.2198 176.916ZM50.1353 173.716C50.3793 175.728 52.2089 177.16 54.2198 176.916L53.7956 173.414C53.7163 173.424 53.646 173.368 53.6367 173.291L50.1353 173.716ZM50.9752 168.386C50.0313 170.312 49.975 172.394 50.1352 173.716L53.6367 173.291C53.5286 172.4 53.5921 171.061 54.1424 169.938L50.9752 168.386ZM53.4509 165.541C52.2578 166.324 51.4729 167.37 50.9752 168.386L54.1424 169.938C54.4189 169.374 54.8197 168.861 55.3854 168.49L53.4509 165.541ZM53.7346 165.365C53.6386 165.421 53.544 165.48 53.451 165.541L55.3854 168.49C55.4306 168.461 55.4764 168.432 55.5229 168.405L53.7346 165.365ZM56.2117 164.367C54.9979 164.367 53.9417 164.93 53.2579 165.775L55.9997 167.994C56.0268 167.961 56.0587 167.936 56.0914 167.92C56.1217 167.905 56.1598 167.894 56.2117 167.894V164.367ZM76.9756 170.378L62.9965 164.504L61.6302 167.756L75.6092 173.63L76.9756 170.378ZM81.5021 159.376L74.7626 171.127L77.8222 172.881L84.5617 161.131L81.5021 159.376ZM80.2797 143.658C80.2991 150.049 80.651 155.618 81.2831 160.481L84.7807 160.026C84.1711 155.336 83.8258 149.918 83.8068 143.647L80.2797 143.658ZM87.8507 142.799L82.3229 141.911L81.7636 145.393L87.2913 146.281L87.8507 142.799ZM80.9126 141.071L86.4116 145.869L88.7304 143.211L83.2313 138.413L80.9126 141.071ZM84.2374 96.8188C81.7239 114.044 80.5084 128.142 80.3087 139.712L83.8352 139.773C84.0317 128.393 85.2291 114.449 87.7275 97.3281L84.2374 96.8188ZM86.0094 89.7633C85.2022 91.9479 84.2889 94.3739 84.2195 97.0274L87.7454 97.1196C87.797 95.1475 88.4738 93.2702 89.3179 90.9858L86.0094 89.7633ZM86.0101 89.7616L86.0098 89.7623L89.3175 90.9869L89.3177 90.9862L86.0101 89.7616ZM87.1445 86.4353C86.8251 87.5536 86.4271 88.6331 86.0097 89.7625L89.3181 90.9852C89.7288 89.8741 90.174 88.6713 90.536 87.4039L87.1445 86.4353ZM89.4772 80.0963C88.5599 82.1073 87.7759 84.225 87.1445 86.4353L90.536 87.404C91.119 85.3631 91.8419 83.4109 92.6862 81.5601L89.4772 80.0963ZM101.39 81.8814L91.5569 79.1299L90.6065 82.5265L100.439 85.278L101.39 81.8814ZM92.2983 77.4621L99.668 84.8271L102.161 82.3322L94.7915 74.9672L92.2983 77.4621ZM129.796 162.239L123.533 172.699L126.559 174.511L132.822 164.051L129.796 162.239ZM121.727 159.66L130.429 164.673L132.189 161.616L123.488 156.604L121.727 159.66ZM123.402 161.371C123.609 160.489 123.884 159.636 124.23 158.822L120.984 157.442C120.555 158.453 120.219 159.498 119.968 160.564L123.402 161.371ZM111.737 163.757L121.864 162.722L121.506 159.213L111.378 160.248L111.737 163.757ZM121.586 162.362L111.93 160.279L111.186 163.726L120.842 165.81L121.586 162.362ZM124.25 173.326C123.225 170.399 122.753 167.231 122.972 164.214L119.455 163.958C119.197 167.501 119.752 171.152 120.921 174.491L124.25 173.326ZM122.99 172.121C122.83 172.133 122.675 172.141 122.526 172.146L122.645 175.671C122.843 175.665 123.048 175.654 123.258 175.638L122.99 172.121ZM124.689 171.877C124.081 172.003 123.507 172.081 122.99 172.121L123.258 175.638C123.927 175.587 124.65 175.487 125.403 175.332L124.689 171.877ZM62.3134 164.367H56.2117V167.894H62.3134V164.367Z" fill="#1D1D1D" mask="url(#path-1-outside-1)"/>
<path fill-rule="evenodd" clip-rule="evenodd" d="M56.3834 171.046C56.1104 171.603 56.0424 172.419 56.1134 173.005C56.2697 174.294 55.3513 175.466 54.0621 175.622C52.7729 175.779 51.6011 174.86 51.4448 173.571C51.3041 172.41 51.3632 170.604 52.1598 168.977C52.5749 168.13 53.2162 167.283 54.1747 166.653C55.1438 166.017 56.3006 165.694 57.5916 165.694C60.4174 165.694 63.5774 166.914 65.2125 169.893C66.8574 172.889 66.5321 176.88 64.1268 181.519C59.854 189.759 60.632 193.229 61.4665 195.002C62.3276 196.832 62.5291 199.005 62.4633 200.872C62.3964 202.766 62.0428 204.637 61.5533 206.008C61.1166 207.231 59.771 207.868 58.5481 207.431C57.3251 206.995 56.6877 205.649 57.1245 204.426C57.4293 203.573 57.7111 202.188 57.7634 200.706C57.8167 199.197 57.6211 197.876 57.2113 197.005C55.5042 193.377 55.3291 188.269 59.9519 179.354C61.9945 175.415 61.6692 173.211 61.0902 172.156C60.5014 171.083 59.2135 170.397 57.5916 170.397C57.1034 170.397 56.8676 170.511 56.7552 170.585C56.6322 170.666 56.5031 170.801 56.3834 171.046Z" fill="#C7B883"/>
<path d="M83.7589 158.992L76.2929 172.018L62.314 166.14H56.2124C54.8314 166.14 53.8507 167.485 54.2734 168.8C54.598 169.81 55.6435 170.402 56.6765 170.16L62.314 168.841C65.491 169.635 71.9318 173.289 76.2929 175.989C78.5992 177.417 79.1592 175.276 79.7051 173.188C79.9488 172.256 80.1897 171.335 80.5818 170.747C81.5986 169.222 84.3943 165.346 85.6651 163.599L83.7589 158.992Z" fill="#7C7C7C"/>
<path d="M88.8424 193.462L95.0376 185.043L100.121 189.173C96.0541 189.554 93.0254 192.191 92.0194 193.462C93.2903 193.462 95.0376 198.069 95.0376 199.34C95.0376 200.61 95.8317 202.834 97.4203 205.058C99.0088 207.282 95.9907 207.123 92.0194 207.441C88.0481 207.759 85.03 206.17 86.4596 205.058C87.8893 203.946 93.7667 205.376 93.7667 201.722C93.7667 198.8 90.4838 194.998 88.8424 193.462Z" fill="#7C7C7C"/>
<path d="M144.441 102.752C144.187 103.643 143.907 104.517 143.603 105.375C142.356 109.239 140.762 114.013 138.979 119.12H125.537L137.416 123.543C132.949 136.028 127.656 149.474 123.63 156.132C122.726 157.627 122.087 159.263 121.685 160.974L111.558 162.01L121.214 164.095C120.975 167.377 121.489 170.788 122.585 173.924C125.975 183.613 134.931 190.667 144.441 183.137C140.734 189.279 129.984 200.42 116.641 195.845C114.816 195.219 112.826 194.744 110.752 194.249C98.0352 191.21 82.1765 187.421 82.0437 143.648L87.5714 144.536L82.0724 139.736C82.2705 128.254 83.4769 114.224 85.9829 97.04C86.0434 94.7255 86.8385 92.5723 87.6643 90.3362C88.0783 89.2152 88.5 88.0733 88.8406 86.8798C89.4478 84.7528 90.2012 82.7166 91.0821 80.7845L100.915 83.5377L93.5452 76.1681C101.121 63.9052 114.197 57.2795 126.365 60.7532C141.719 65.1361 149.811 83.9398 144.441 102.752Z" fill="#EAEAEA"/>
<path fill-rule="evenodd" clip-rule="evenodd" d="M136.415 104.581C136.9 104.623 137.259 105.05 137.217 105.535C136.677 111.743 132.612 115.348 130.547 116.41C130.114 116.632 129.582 116.462 129.359 116.029C129.137 115.596 129.307 115.064 129.74 114.841C131.382 113.997 134.983 110.867 135.46 105.383C135.502 104.898 135.93 104.538 136.415 104.581Z" fill="#CFCFCF"/>
<path fill-rule="evenodd" clip-rule="evenodd" d="M121.903 115.964C121.716 116.414 121.2 116.627 120.75 116.439C117.85 115.232 116.33 113.529 115.515 111.794C114.877 110.435 114.688 109.058 114.557 108.099C114.527 107.879 114.5 107.682 114.471 107.511C114.39 107.031 114.714 106.576 115.194 106.495C115.674 106.414 116.129 106.738 116.21 107.218C116.251 107.459 116.286 107.708 116.322 107.964C116.454 108.914 116.6 109.955 117.112 111.045C117.73 112.363 118.911 113.763 121.428 114.811C121.877 114.998 122.09 115.515 121.903 115.964Z" fill="#CFCFCF"/>
<path fill-rule="evenodd" clip-rule="evenodd" d="M98.8547 109.675C98.9881 110.144 98.7166 110.632 98.2482 110.765C95.2265 111.626 92.9773 111.239 91.26 110.389C89.9145 109.722 88.9092 108.762 88.2094 108.093C88.0492 107.94 87.9051 107.802 87.7766 107.687C87.4142 107.361 87.3842 106.804 87.7095 106.442C88.0349 106.079 88.5924 106.049 88.9547 106.375C89.137 106.538 89.3192 106.711 89.5062 106.889C90.2019 107.55 90.9641 108.274 92.0428 108.808C93.3475 109.455 95.1435 109.815 97.7652 109.069C98.2336 108.936 98.7214 109.207 98.8547 109.675Z" fill="#CFCFCF"/>
<path d="M133.142 105.618C132.206 110.957 127.984 114.679 123.712 113.93C119.44 113.18 116.737 108.244 117.673 102.905C118.609 97.5651 122.831 93.8437 127.103 94.5929C131.375 95.342 134.079 100.278 133.142 105.618Z" fill="url(#paint0_radial)"/>
<path fill-rule="evenodd" clip-rule="evenodd" d="M133.775 105.729C132.801 111.278 128.346 115.394 123.601 114.562C118.856 113.73 116.067 108.344 117.041 102.794C118.014 97.244 122.469 93.1284 127.214 93.9606C131.959 94.7928 134.748 100.179 133.775 105.729ZM123.712 113.93C127.984 114.679 132.206 110.957 133.142 105.618C134.079 100.278 131.375 95.342 127.103 94.5929C122.831 93.8438 118.609 97.5651 117.673 102.905C116.737 108.244 119.44 113.18 123.712 113.93Z" fill="#1D1D1D"/>
<path d="M132.499 104.218C132.914 106.594 131.325 108.856 128.95 109.271C126.574 109.686 124.312 108.097 123.897 105.722C123.482 103.346 125.071 101.084 127.446 100.669C129.822 100.254 132.084 101.843 132.499 104.218Z" fill="#636363"/>
<path d="M103.914 98.946C102.977 104.286 98.7552 108.007 94.4835 107.258C90.2117 106.509 87.5079 101.573 88.4444 96.2331C89.3808 90.8935 93.6028 87.1721 97.8745 87.9212C102.146 88.6704 104.85 93.6063 103.914 98.946Z" fill="url(#paint1_radial)"/>
<path fill-rule="evenodd" clip-rule="evenodd" d="M104.546 99.0569C103.573 104.607 99.118 108.722 94.3727 107.89C89.6273 107.058 86.8388 101.672 87.8121 96.1223C88.7854 90.5724 93.2402 86.4568 97.9855 87.289C102.731 88.1212 105.519 93.507 104.546 99.0569ZM94.4835 107.258C98.7553 108.007 102.977 104.286 103.914 98.946C104.85 93.6064 102.146 88.6704 97.8746 87.9213C93.6029 87.1721 89.3808 90.8935 88.4444 96.2332C87.508 101.573 90.2118 106.509 94.4835 107.258Z" fill="#1D1D1D"/>
<path d="M99.6261 101.818C100.041 104.193 98.452 106.456 96.0764 106.871C93.7009 107.286 91.4386 105.697 91.0235 103.321C90.6084 100.945 92.1976 98.6831 94.5732 98.268C96.9487 97.8529 99.211 99.4422 99.6261 101.818Z" fill="#636363"/>
<path fill-rule="evenodd" clip-rule="evenodd" d="M144.441 102.752C144.187 103.643 143.907 104.517 143.603 105.375C143.903 104.445 144.183 103.568 144.441 102.752ZM144.441 183.137C146.216 180.03 149.031 172.087 148.4 162.115L144.122 160.421L147.974 158.156C147.871 157.488 147.753 156.813 147.617 156.132C145.076 143.424 148.147 134.317 150 131.352C145.022 136.17 135.227 148.571 135.862 159.627C136.213 165.743 133.549 169.418 130.304 171.509L131.732 175.353L127.57 172.883C125.761 173.573 123.974 173.877 122.586 173.924C125.975 183.613 134.931 190.667 144.441 183.137Z" fill="#9F9F9F"/>
<path fill-rule="evenodd" clip-rule="evenodd" d="M144.442 102.752C144.187 103.643 143.908 104.517 143.604 105.375C143.904 104.445 144.184 103.568 144.442 102.752ZM144.442 183.137C146.216 180.03 149.032 172.087 148.401 162.115L144.123 160.421L147.974 158.156C147.872 157.488 147.753 156.813 147.617 156.132C145.077 143.424 148.147 134.317 150 131.352C145.023 136.17 135.227 148.571 135.862 159.627C136.214 165.743 133.549 169.418 130.304 171.509L131.732 175.353L127.571 172.883C125.761 173.573 123.975 173.877 122.586 173.924C125.975 183.613 134.931 190.667 144.442 183.137Z" fill="#CFCFCF"/>
<path d="M107.11 101.646C100.588 117.465 94.6729 142.131 100.269 170.14C100.549 171.542 102.184 171.232 102.049 169.808C99.7444 145.529 99.9913 120.822 110.128 102.441C114.731 94.0947 122.042 66.5404 129.667 42.8717C134.556 27.6963 132.221 13.5481 129.792 5.12072C129.223 3.14317 126.61 3.01094 125.712 4.86276L121.32 13.9224C120.82 14.9538 121.121 16.2437 121.699 17.2332C123.145 19.705 124.777 25.0409 124.584 34.6114C124.266 50.3376 117.515 76.4103 107.11 101.646Z" fill="#4F4F4F"/>
<path d="M123.032 20.3825C123.035 20.3831 123.038 20.3836 123.041 20.3842C123.672 20.5103 124.32 20.7503 124.967 20.9898C126.421 21.5284 127.868 22.0641 129.093 21.293C130.327 20.5163 130.467 18.9622 130.608 17.4043C130.668 16.7339 130.729 16.0628 130.876 15.4526C130.988 14.9908 131.136 14.5319 131.284 14.0746C131.392 13.7397 131.5 13.4056 131.593 13.0719C132.954 21.234 133.24 31.7784 129.667 42.8718C127.189 50.5628 124.745 58.6641 122.415 66.3833C117.577 82.4195 113.235 96.8068 110.128 102.441C99.1771 122.299 99.7685 149.538 102.65 175.647C102.735 176.416 101.754 176.611 101.564 175.862C93.8762 145.505 100.148 118.534 107.11 101.647C117.515 76.4104 124.266 50.3378 124.584 34.6115C124.718 27.9961 123.979 23.4039 123.032 20.3825Z" fill="white"/>
<path d="M125.378 195.527L120.347 188.691C119.713 187.83 118.488 187.673 117.657 188.348C116.355 189.405 116.972 191.786 118.457 192.567C120.284 193.528 121.601 194.77 122.201 195.527C120.93 195.527 119.183 200.134 119.183 201.405C119.183 202.676 118.388 204.9 116.8 207.124C115.211 209.347 118.229 209.189 122.201 209.506C126.172 209.824 129.19 208.235 127.76 207.124C126.331 206.012 120.453 207.441 120.453 203.788C120.453 200.865 123.736 197.063 125.378 195.527Z" fill="#7C7C7C"/>
<path d="M121.918 154.168C120.443 154.775 120.307 156.811 121.689 157.607L131.309 163.152L122.682 177.57L124.266 180.437C124.263 181.817 125.605 182.801 126.921 182.382C127.932 182.06 128.526 181.016 128.287 179.982L125.382 177.576C126.184 174.401 132.57 167.517 135.28 163.162C136.714 160.859 134.574 160.294 132.488 159.743C131.556 159.497 130.636 159.254 130.049 158.86C128.744 157.986 125.718 155.802 123.78 154.393C123.24 154 122.536 153.915 121.918 154.168Z" fill="#7C7C7C"/>
<path d="M62.3052 117.333C57.4301 115.003 46.5099 108.192 41.8298 99.588" stroke="#C6C6C6" stroke-width="4.09508" stroke-linecap="round"/>
<path d="M16.8004 63.1914C20.6186 62.6357 23.8066 63.1834 26.3642 64.8343C28.9166 66.4492 30.4601 69.0938 30.9948 72.7679C31.4928 76.19 30.7666 79.036 28.8164 81.3062C26.9021 83.5711 24.0952 85.0095 20.3955 85.6215L21.0953 90.4303L12.3961 91.6962L10.8314 80.9439L14.4516 80.4171C17.0451 80.0396 19.0099 79.3859 20.3459 78.4558C21.6767 77.4897 22.2031 76.052 21.9253 74.1429C21.7471 72.9182 21.266 72.0134 20.482 71.4286C19.698 70.8438 18.7296 70.6353 17.577 70.803C16.2802 70.9917 15.3113 71.5373 14.6701 72.4399C14.0598 73.3012 13.8411 74.3262 14.0141 75.5149L5.31494 76.7808C4.92839 74.63 5.09297 72.6013 5.8087 70.6947C6.5552 68.7469 7.86366 67.1219 9.73408 65.8198C11.5993 64.4816 13.9547 63.6055 16.8004 63.1914ZM22.2263 94.7902L23.5708 104.03L13.9531 105.429L12.6086 96.1897L22.2263 94.7902Z" fill="#45D7B0"/>
<path d="M19.8285 92.4708L20.5039 92.3725L20.4057 91.6971L19.8008 87.5407C23.3003 86.8511 26.0461 85.3903 27.971 83.1139C30.069 80.6704 30.8266 77.6174 30.3052 74.0348C29.7492 70.2139 28.1239 67.3699 25.3668 65.6243C22.6369 63.8633 19.2724 63.3084 15.3371 63.8811C12.412 64.3067 9.94805 65.2132 7.97516 66.6275C6.00546 67.9998 4.60583 69.7296 3.80639 71.8156L3.80638 71.8156L3.80473 71.82C3.04266 73.85 2.87155 76.004 3.2782 78.2666L3.39497 78.9163L4.04823 78.8213L12.7474 77.5554L13.4228 77.4571L13.3245 76.7817C13.173 75.7407 13.3671 74.8981 13.8619 74.1998C14.3752 73.4774 15.1616 73.0107 16.3103 72.8435C17.3205 72.6965 18.0972 72.8845 18.7089 73.3408C19.3118 73.7905 19.7255 74.5107 19.8849 75.6063C20.1335 77.3142 19.6672 78.4765 18.5853 79.2647C17.3735 80.1063 15.53 80.7369 12.9883 81.1068L9.36815 81.6336L8.69275 81.7319L8.79104 82.4073L10.3557 93.1596L10.454 93.835L11.1294 93.7367L19.8285 92.4708ZM21.5367 96.057L21.4384 95.3816L20.763 95.4799L11.1453 96.8794L10.4699 96.9777L10.5682 97.6531L11.9127 106.893L12.011 107.568L12.6864 107.47L22.3041 106.07L22.9795 105.972L22.8812 105.296L21.5367 96.057Z" stroke="#352F2F" stroke-width="1.36503"/>
<defs>
<radialGradient id="paint0_radial" cx="0" cy="0" r="1" gradientUnits="userSpaceOnUse" gradientTransform="translate(121.958 103.081) rotate(50.7968) scale(15.3817 12.3053)">
<stop stop-color="white"/>
<stop offset="1" stop-color="#E7E7E7"/>
</radialGradient>
<radialGradient id="paint1_radial" cx="0" cy="0" r="1" gradientUnits="userSpaceOnUse" gradientTransform="translate(92.7297 96.409) rotate(50.7968) scale(15.3817 12.3053)">
<stop stop-color="white"/>
<stop offset="1" stop-color="#E7E7E7"/>
</radialGradient>
</defs>
</svg>
