<svg width="176" height="240" viewBox="0 0 176 240" fill="none" xmlns="http://www.w3.org/2000/svg">
<g clip-path="url(#clip0)">
<mask id="path-1-outside-1" maskUnits="userSpaceOnUse" x="-2" y="16" width="160" height="208" fill="black">
<rect fill="white" x="-2" y="16" width="160" height="208"/>
<path fill-rule="evenodd" clip-rule="evenodd" d="M55 25.4675C63.1797 37.0341 78.023 67.3369 75.0761 99.5507L74.1076 99.4844V126.436L88.7903 127.441C91.6067 128.137 95.8248 129.776 99.3907 132.441C99.0543 134.768 97.2543 138.102 91.8073 138.102C85.7407 138.102 83.0702 136.849 82.4146 136.16C85.4186 139.553 93.7788 144.37 105.125 139.351C105.712 140.751 106.061 142.278 106.088 143.935C106.14 147.098 105.761 150.053 105.157 152.696C104.272 151.643 102.945 150.974 101.462 150.974C99.5136 150.974 97.835 152.129 97.0723 153.79C95.2784 154.108 92.1115 154.91 89.0919 156.214C88.8244 156.082 88.5572 155.941 88.291 155.793L88.2151 155.751C87.3319 155.278 84.7805 154.627 80.9783 155.513C78.8403 156.011 76.6484 155.957 74.8447 155.711C74.3577 155.147 73.7364 154.723 73.0485 154.47L55.0744 71.6803C56.253 70.6716 57 69.173 57 67.5C57 64.4624 54.5376 62 51.5 62C48.4624 62 46 64.4624 46 67.5C46 70.0938 47.7955 72.2683 50.2114 72.8482L50.4916 74.1387C34.6035 76.3555 10.8702 81.1199 14.1986 85.9668C15.2349 88.4691 16.9098 93.5143 17.3761 99.4138C14.1897 102.713 9.04097 105.943 1 108C4.16667 112.167 12.8 120.5 22 120.5L22 115.5C30.0253 114.026 48.5444 111.973 59.4319 115.318L68.1335 155.398C67.0961 156.293 66.6585 157.765 67.1448 159.133C67.4536 160.002 68.0778 160.668 68.8428 161.049C69.0281 161.189 69.2266 161.299 69.4311 161.375L82.0569 219.53C82.3499 220.88 83.6811 221.736 85.0304 221.443C85.9735 221.238 86.6758 220.526 86.9131 219.655C90.552 220.062 93.302 220.024 97.8556 219.36C98.9585 219.36 99.8526 218.466 99.8526 217.363C99.8526 216.96 99.731 216.567 99.5038 216.235L97.2379 212.923H97.1821C96.3346 208.463 94.8708 202.453 93.4164 201.66C94.7855 200.664 98.0844 197.6 100.996 192.918C103.862 196.584 107.79 198.844 112.122 198.844C112.41 198.844 112.697 198.834 112.982 198.814C117.255 198.517 121.08 196.019 123.802 192.173C126.816 197.275 130.392 200.612 131.833 201.66C130.378 202.453 128.915 208.463 128.067 212.923H128.011L125.745 216.235C125.518 216.567 125.397 216.96 125.397 217.363C125.397 218.466 126.291 219.36 127.394 219.36C132.191 220.568 135.166 220.342 140.648 219.36C141.409 219.36 142.104 218.93 142.444 218.25C142.997 217.144 142.429 215.806 141.25 215.436L134.77 213.403C134.011 213.165 133.228 213.014 132.436 212.954C133.667 208.452 135.795 203.736 136.861 201.66L129.826 186.561C131.367 182.127 133.396 171.482 129.218 164.249C129.192 164.205 129.167 164.16 129.141 164.115C130.557 165.905 133.005 168.334 136.239 170.012C136.554 172.032 137.566 174.768 139.959 178.075C140.189 178.343 140.616 178.675 141.09 179.044L141.092 179.045C141.712 179.528 142.413 180.073 142.857 180.618C142.111 181.368 141.934 182.554 142.498 183.507L143.335 184.923C144.311 186.572 146.439 187.117 148.088 186.142C149.736 185.166 150.282 183.039 149.307 181.39L147.856 178.938C147.525 178.379 146.804 178.194 146.246 178.525L146.22 178.54C145.473 174.245 143.942 167.24 142.467 166.256C142.274 164.727 141.009 163.532 139.449 163.449C138.037 161.371 135.8 158.666 133.556 157.663C133.556 154.858 131.144 152.583 128.169 152.583C126.936 152.583 125.799 152.974 124.892 153.631C123.897 149.777 123.474 145.748 124.06 142.08C130.912 143.037 136.176 140.289 138.567 138.034C137.853 138.661 135.08 139.669 129.038 139.124C127.447 138.98 126.195 138.58 125.215 138.025C126.176 135.805 127.667 133.841 129.821 132.296C132.476 131.18 135.542 130.64 138.872 130.867L150.538 131.666L155.365 128.045V102.501L154.971 102.682C156.961 85.7447 155.571 42.4902 154.561 21.8471C130.157 19.8358 79.0153 16.4165 69.6827 18.8301C69.0123 19.9699 65.1371 22.893 55 25.4675ZM86.1388 214.765L74.2966 160.219L74.6596 160.09C74.9505 159.987 75.2013 159.821 75.4023 159.613C80.3704 161.535 86.7839 163.284 89.796 161.666C93.2341 161.472 97.2903 160.95 100.255 160.477C100.641 160.576 101.045 160.629 101.462 160.629C101.795 160.629 102.12 160.595 102.434 160.531C101.64 162.177 100.859 163.444 100.255 164.249L100.304 164.279C97.7726 167.949 96.2322 172.803 96.2322 178.127C96.2322 180.367 96.5049 182.524 97.0094 184.545L96.6345 183.96L88.388 201.66C89.4542 203.736 91.582 208.452 92.8134 212.954C92.0216 213.014 91.2385 213.165 90.4789 213.403L86.1388 214.765ZM116.7 185.458C116.066 185.575 115.402 185.606 114.723 185.539C111.075 185.176 108.395 182.104 108.735 178.678C108.849 177.53 109.287 176.489 109.957 175.624C110.591 175.507 111.255 175.476 111.934 175.543C115.581 175.906 118.262 178.977 117.922 182.404C117.808 183.551 117.37 184.593 116.7 185.458Z"/>
</mask>
<path fill-rule="evenodd" clip-rule="evenodd" d="M55 25.4675C63.1797 37.0341 78.023 67.3369 75.0761 99.5507L74.1076 99.4844V126.436L88.7903 127.441C91.6067 128.137 95.8248 129.776 99.3907 132.441C99.0543 134.768 97.2543 138.102 91.8073 138.102C85.7407 138.102 83.0702 136.849 82.4146 136.16C85.4186 139.553 93.7788 144.37 105.125 139.351C105.712 140.751 106.061 142.278 106.088 143.935C106.14 147.098 105.761 150.053 105.157 152.696C104.272 151.643 102.945 150.974 101.462 150.974C99.5136 150.974 97.835 152.129 97.0723 153.79C95.2784 154.108 92.1115 154.91 89.0919 156.214C88.8244 156.082 88.5572 155.941 88.291 155.793L88.2151 155.751C87.3319 155.278 84.7805 154.627 80.9783 155.513C78.8403 156.011 76.6484 155.957 74.8447 155.711C74.3577 155.147 73.7364 154.723 73.0485 154.47L55.0744 71.6803C56.253 70.6716 57 69.173 57 67.5C57 64.4624 54.5376 62 51.5 62C48.4624 62 46 64.4624 46 67.5C46 70.0938 47.7955 72.2683 50.2114 72.8482L50.4916 74.1387C34.6035 76.3555 10.8702 81.1199 14.1986 85.9668C15.2349 88.4691 16.9098 93.5143 17.3761 99.4138C14.1897 102.713 9.04097 105.943 1 108C4.16667 112.167 12.8 120.5 22 120.5L22 115.5C30.0253 114.026 48.5444 111.973 59.4319 115.318L68.1335 155.398C67.0961 156.293 66.6585 157.765 67.1448 159.133C67.4536 160.002 68.0778 160.668 68.8428 161.049C69.0281 161.189 69.2266 161.299 69.4311 161.375L82.0569 219.53C82.3499 220.88 83.6811 221.736 85.0304 221.443C85.9735 221.238 86.6758 220.526 86.9131 219.655C90.552 220.062 93.302 220.024 97.8556 219.36C98.9585 219.36 99.8526 218.466 99.8526 217.363C99.8526 216.96 99.731 216.567 99.5038 216.235L97.2379 212.923H97.1821C96.3346 208.463 94.8708 202.453 93.4164 201.66C94.7855 200.664 98.0844 197.6 100.996 192.918C103.862 196.584 107.79 198.844 112.122 198.844C112.41 198.844 112.697 198.834 112.982 198.814C117.255 198.517 121.08 196.019 123.802 192.173C126.816 197.275 130.392 200.612 131.833 201.66C130.378 202.453 128.915 208.463 128.067 212.923H128.011L125.745 216.235C125.518 216.567 125.397 216.96 125.397 217.363C125.397 218.466 126.291 219.36 127.394 219.36C132.191 220.568 135.166 220.342 140.648 219.36C141.409 219.36 142.104 218.93 142.444 218.25C142.997 217.144 142.429 215.806 141.25 215.436L134.77 213.403C134.011 213.165 133.228 213.014 132.436 212.954C133.667 208.452 135.795 203.736 136.861 201.66L129.826 186.561C131.367 182.127 133.396 171.482 129.218 164.249C129.192 164.205 129.167 164.16 129.141 164.115C130.557 165.905 133.005 168.334 136.239 170.012C136.554 172.032 137.566 174.768 139.959 178.075C140.189 178.343 140.616 178.675 141.09 179.044L141.092 179.045C141.712 179.528 142.413 180.073 142.857 180.618C142.111 181.368 141.934 182.554 142.498 183.507L143.335 184.923C144.311 186.572 146.439 187.117 148.088 186.142C149.736 185.166 150.282 183.039 149.307 181.39L147.856 178.938C147.525 178.379 146.804 178.194 146.246 178.525L146.22 178.54C145.473 174.245 143.942 167.24 142.467 166.256C142.274 164.727 141.009 163.532 139.449 163.449C138.037 161.371 135.8 158.666 133.556 157.663C133.556 154.858 131.144 152.583 128.169 152.583C126.936 152.583 125.799 152.974 124.892 153.631C123.897 149.777 123.474 145.748 124.06 142.08C130.912 143.037 136.176 140.289 138.567 138.034C137.853 138.661 135.08 139.669 129.038 139.124C127.447 138.98 126.195 138.58 125.215 138.025C126.176 135.805 127.667 133.841 129.821 132.296C132.476 131.18 135.542 130.64 138.872 130.867L150.538 131.666L155.365 128.045V102.501L154.971 102.682C156.961 85.7447 155.571 42.4902 154.561 21.8471C130.157 19.8358 79.0153 16.4165 69.6827 18.8301C69.0123 19.9699 65.1371 22.893 55 25.4675ZM86.1388 214.765L74.2966 160.219L74.6596 160.09C74.9505 159.987 75.2013 159.821 75.4023 159.613C80.3704 161.535 86.7839 163.284 89.796 161.666C93.2341 161.472 97.2903 160.95 100.255 160.477C100.641 160.576 101.045 160.629 101.462 160.629C101.795 160.629 102.12 160.595 102.434 160.531C101.64 162.177 100.859 163.444 100.255 164.249L100.304 164.279C97.7726 167.949 96.2322 172.803 96.2322 178.127C96.2322 180.367 96.5049 182.524 97.0094 184.545L96.6345 183.96L88.388 201.66C89.4542 203.736 91.582 208.452 92.8134 212.954C92.0216 213.014 91.2385 213.165 90.4789 213.403L86.1388 214.765ZM116.7 185.458C116.066 185.575 115.402 185.606 114.723 185.539C111.075 185.176 108.395 182.104 108.735 178.678C108.849 177.53 109.287 176.489 109.957 175.624C110.591 175.507 111.255 175.476 111.934 175.543C115.581 175.906 118.262 178.977 117.922 182.404C117.808 183.551 117.37 184.593 116.7 185.458Z" fill="#1D1D1D"/>
<path d="M55 25.4675L54.8154 24.7406L53.7574 25.0093L54.3876 25.9006L55 25.4675ZM82.3541 136.091L82.9194 135.598L81.7685 136.559L82.3541 136.091ZM82.3738 136.113L81.8084 136.606L81.8107 136.609L82.3738 136.113ZM82.4146 136.16L81.8713 136.677L82.9777 135.664L82.4146 136.16ZM82.388 136.131L81.8277 136.629L81.8278 136.629L82.388 136.131ZM138.634 137.97L139.175 138.49L138.116 137.428L138.634 137.97ZM138.59 138.013L139.105 138.558L139.108 138.555L138.59 138.013ZM138.567 138.034L138.052 137.489L139.062 138.598L138.567 138.034ZM88.2535 155.772L87.8869 156.426L87.8875 156.426L88.2535 155.772ZM69.0363 18.4499C68.9404 18.6128 68.6607 18.9395 68.0735 19.3919C67.5009 19.833 66.677 20.3624 65.5479 20.9441C63.2901 22.1072 59.843 23.4638 54.8154 24.7406L55.1846 26.1945C60.2941 24.8968 63.8531 23.5045 66.2348 22.2775C67.4254 21.6642 68.3296 21.0881 68.9889 20.5802C69.6337 20.0834 70.0898 19.6173 70.3292 19.2104L69.0363 18.4499ZM54.3876 25.9006C62.5046 37.3785 77.2545 67.5054 74.3293 99.4823L75.823 99.619C78.7916 67.1683 63.8548 36.6898 55.6124 25.0345L54.3876 25.9006ZM81.7887 136.583L81.8084 136.606L82.9391 135.62L82.9194 135.598L81.7887 136.583ZM81.8107 136.609L81.8516 136.655L82.9777 135.664L82.9368 135.618L81.8107 136.609ZM82.958 135.643C82.9543 135.639 82.951 135.635 82.9481 135.632L81.8278 136.629C81.8419 136.645 81.8564 136.661 81.8713 136.677L82.958 135.643ZM82.9482 135.632C82.9443 135.628 82.9415 135.624 82.9396 135.622L81.7685 136.559C81.7876 136.583 81.8074 136.606 81.8277 136.629L82.9482 135.632ZM138.116 137.428L138.072 137.47L139.108 138.555L139.152 138.513L138.116 137.428ZM138.074 137.468L138.052 137.489L139.083 138.579L139.105 138.558L138.074 137.468ZM139.062 138.598C139.101 138.563 139.139 138.527 139.175 138.49L138.093 137.451C138.089 137.455 138.083 137.461 138.073 137.47L139.062 138.598ZM87.8616 156.412C87.8705 156.417 87.8789 156.421 87.8869 156.426L88.6202 155.117C88.6033 155.108 88.586 155.098 88.5686 155.089L87.8616 156.412ZM87.8875 156.426C87.8958 156.431 87.9035 156.435 87.9104 156.439L88.6715 155.147C88.6543 155.137 88.637 155.127 88.6196 155.117L87.8875 156.426ZM75.0761 99.5507L74.9737 101.047L76.4363 101.147L76.5699 99.6873L75.0761 99.5507ZM55 25.4675L54.6308 24.0137L52.5147 24.5511L53.7753 26.3336L55 25.4675ZM74.1076 99.4844L74.21 97.9879L72.6076 97.8783V99.4844H74.1076ZM74.1076 126.436H72.6076V127.837L74.0052 127.933L74.1076 126.436ZM88.7903 127.441L89.1502 125.985L89.0232 125.953L88.8927 125.944L88.7903 127.441ZM99.3907 132.441L100.875 132.656L101.003 131.773L100.289 131.24L99.3907 132.441ZM82.4146 136.16L83.5014 135.126L81.2915 137.154L82.4146 136.16ZM105.125 139.351L106.508 138.77L105.916 137.36L104.518 137.979L105.125 139.351ZM106.088 143.935L104.588 143.959L106.088 143.935ZM105.157 152.696L104.009 153.661L105.948 155.966L106.62 153.03L105.157 152.696ZM97.0723 153.79L97.3338 155.267L98.1077 155.13L98.4355 154.416L97.0723 153.79ZM89.0919 156.214L88.4297 157.559L89.0508 157.865L89.6863 157.591L89.0919 156.214ZM88.291 155.793L87.5579 157.102L87.5609 157.103L88.291 155.793ZM88.2151 155.751L88.9481 154.442L88.9352 154.435L88.9222 154.428L88.2151 155.751ZM80.9783 155.513L81.3186 156.974L80.9783 155.513ZM74.8447 155.711L73.7094 156.691L74.08 157.121L74.6418 157.197L74.8447 155.711ZM73.0485 154.47L71.5826 154.789L71.7576 155.594L72.5316 155.878L73.0485 154.47ZM55.0744 71.6803L54.099 70.5407L53.4185 71.1232L53.6085 71.9986L55.0744 71.6803ZM50.2114 72.8482L51.6773 72.53L51.4775 71.6095L50.5616 71.3897L50.2114 72.8482ZM50.4916 74.1387L50.6989 75.6243L52.3006 75.4009L51.9575 73.8205L50.4916 74.1387ZM14.1986 85.9668L15.5844 85.3929L15.5242 85.2475L15.4351 85.1177L14.1986 85.9668ZM17.3761 99.4138L18.455 100.456L18.9247 99.9695L18.8714 99.2956L17.3761 99.4138ZM1 108L0.62825 106.547L-1.56254 107.107L-0.194243 108.908L1 108ZM22 120.5V122H23.5L23.5 120.5H22ZM22 115.5L21.729 114.025L20.5 114.25V115.5H22ZM59.4319 115.318L60.8977 115L60.7115 114.142L59.8725 113.884L59.4319 115.318ZM68.1335 155.398L69.113 156.534L69.7886 155.952L69.5993 155.08L68.1335 155.398ZM67.1448 159.133L68.5582 158.631L67.1448 159.133ZM68.8428 161.049L69.7489 159.853L69.6369 159.768L69.511 159.706L68.8428 161.049ZM69.4311 161.375L70.8969 161.057L70.7227 160.254L69.9526 159.969L69.4311 161.375ZM82.0569 219.53L80.5911 219.849V219.849L82.0569 219.53ZM85.0304 221.443L85.3487 222.909H85.3487L85.0304 221.443ZM86.9131 219.655L87.0795 218.165L85.8034 218.022L85.4659 219.261L86.9131 219.655ZM97.8556 219.36V217.86H97.7468L97.6392 217.875L97.8556 219.36ZM99.5038 216.235L98.2658 217.082L99.5038 216.235ZM97.2379 212.923L98.4758 212.076L98.0291 211.423H97.2379V212.923ZM97.1821 212.923L95.7085 213.203L95.9403 214.423H97.1821V212.923ZM93.4164 201.66L92.5341 200.447L90.6165 201.841L92.6981 202.977L93.4164 201.66ZM100.996 192.918L102.178 191.994L100.856 190.304L99.7223 192.126L100.996 192.918ZM112.982 198.814L112.878 197.318H112.878L112.982 198.814ZM123.802 192.173L125.093 191.41L123.915 189.417L122.577 191.307L123.802 192.173ZM131.833 201.66L132.551 202.977L134.633 201.841L132.715 200.447L131.833 201.66ZM128.067 212.923V214.423H129.309L129.541 213.203L128.067 212.923ZM128.011 212.923V211.423H127.22L126.773 212.076L128.011 212.923ZM125.745 216.235L126.983 217.082L125.745 216.235ZM127.394 219.36L127.76 217.905L127.58 217.86H127.394V219.36ZM140.648 219.36V217.86H140.515L140.384 217.883L140.648 219.36ZM142.444 218.25L141.103 217.579L141.103 217.579L142.444 218.25ZM141.25 215.436L141.699 214.005H141.699L141.25 215.436ZM134.77 213.403L135.219 211.972L135.219 211.972L134.77 213.403ZM132.436 212.954L130.989 212.558L130.509 214.311L132.322 214.449L132.436 212.954ZM136.861 201.66L138.196 202.345L138.531 201.692L138.221 201.026L136.861 201.66ZM129.826 186.561L128.409 186.068L128.21 186.643L128.467 187.194L129.826 186.561ZM129.218 164.249L130.517 163.499L130.517 163.499L129.218 164.249ZM129.141 164.115L130.317 163.184L127.839 164.86L129.141 164.115ZM136.239 170.012L137.721 169.78L137.604 169.03L136.93 168.68L136.239 170.012ZM139.959 178.075L138.743 178.954L138.78 179.005L138.821 179.052L139.959 178.075ZM141.09 179.044L140.169 180.228L140.176 180.233L141.09 179.044ZM141.092 179.045L142.013 177.861L142.007 177.856L141.092 179.045ZM142.857 180.618L143.92 181.676L144.874 180.718L144.02 179.67L142.857 180.618ZM142.498 183.507L143.789 182.743L143.788 182.743L142.498 183.507ZM143.335 184.923L142.044 185.687L142.045 185.687L143.335 184.923ZM148.088 186.142L148.851 187.433L148.852 187.433L148.088 186.142ZM149.307 181.39L148.016 182.154L149.307 181.39ZM147.856 178.938L146.565 179.702L146.565 179.702L147.856 178.938ZM146.246 178.525L147.009 179.816L147.01 179.816L146.246 178.525ZM146.22 178.54L144.742 178.797L145.114 180.936L146.983 179.831L146.22 178.54ZM142.467 166.256L140.979 166.444L141.065 167.124L141.635 167.504L142.467 166.256ZM139.449 163.449L138.208 164.292L138.626 164.908L139.369 164.947L139.449 163.449ZM133.556 157.663H132.056V158.636L132.944 159.033L133.556 157.663ZM124.892 153.631L123.439 154.006L123.989 156.136L125.771 154.846L124.892 153.631ZM124.06 142.08L124.268 140.594L122.811 140.391L122.579 141.843L124.06 142.08ZM138.567 138.034L139.597 139.125L137.578 136.906L138.567 138.034ZM129.038 139.124L128.903 140.618L129.038 139.124ZM125.215 138.025L123.839 137.43L123.304 138.667L124.477 139.331L125.215 138.025ZM129.821 132.296L129.24 130.913L129.085 130.979L128.947 131.077L129.821 132.296ZM138.872 130.867L138.975 129.371H138.975L138.872 130.867ZM150.538 131.666L150.436 133.162L150.992 133.2L151.438 132.866L150.538 131.666ZM155.365 128.045L156.265 129.245L156.865 128.795V128.045H155.365ZM155.365 102.501H156.865V100.164L154.74 101.138L155.365 102.501ZM154.971 102.682L153.481 102.507L153.17 105.158L155.596 104.046L154.971 102.682ZM154.561 21.8471L156.059 21.7738L155.995 20.4602L154.684 20.3522L154.561 21.8471ZM69.6827 18.8301L69.3071 17.3779L68.7051 17.5336L68.3898 18.0696L69.6827 18.8301ZM74.2966 160.219L73.7942 158.806L72.5507 159.248L72.8307 160.537L74.2966 160.219ZM86.1388 214.765L84.6729 215.083L85.0212 216.688L86.5878 216.196L86.1388 214.765ZM74.6596 160.09L75.162 161.503H75.162L74.6596 160.09ZM75.4023 159.613L75.9434 158.214L75.0152 157.855L74.3237 158.57L75.4023 159.613ZM89.796 161.666L89.7114 160.169L89.3793 160.188L89.0863 160.345L89.796 161.666ZM100.255 160.477L100.629 159.024L100.327 158.946L100.019 158.996L100.255 160.477ZM102.434 160.531L103.785 161.183L105.1 158.455L102.133 159.061L102.434 160.531ZM100.255 164.249L99.0549 163.349L98.0647 164.669L99.4733 165.529L100.255 164.249ZM100.304 164.279L101.539 165.131L102.439 163.825L101.085 162.999L100.304 164.279ZM97.0094 184.545L95.7466 185.355L98.4647 184.182L97.0094 184.545ZM96.6345 183.96L97.8973 183.151L96.4261 180.856L95.2748 183.327L96.6345 183.96ZM88.388 201.66L87.0284 201.026L86.7183 201.692L87.0537 202.345L88.388 201.66ZM92.8134 212.954L92.9276 214.449L94.7397 214.311L94.2602 212.558L92.8134 212.954ZM90.4789 213.403L90.0299 211.972L90.0299 211.972L90.4789 213.403ZM114.723 185.539L114.872 184.046H114.872L114.723 185.539ZM116.7 185.458L116.973 186.933L117.535 186.829L117.886 186.376L116.7 185.458ZM108.735 178.678L107.242 178.529L107.242 178.529L108.735 178.678ZM109.957 175.624L109.684 174.149L109.121 174.253L108.771 174.706L109.957 175.624ZM111.934 175.543L112.082 174.05H112.082L111.934 175.543ZM117.922 182.404L119.415 182.552L119.415 182.552L117.922 182.404ZM76.5699 99.6873C79.5601 66.9998 64.5298 36.3454 56.2247 24.6014L53.7753 26.3336C61.8296 37.7229 76.4859 67.674 73.5824 99.414L76.5699 99.6873ZM74.0052 100.981L74.9737 101.047L75.1785 98.0542L74.21 97.9879L74.0052 100.981ZM75.6076 126.436V99.4844H72.6076V126.436H75.6076ZM88.8927 125.944L74.21 124.94L74.0052 127.933L88.6879 128.937L88.8927 125.944ZM100.289 131.24C96.53 128.43 92.1178 126.718 89.1502 125.985L88.4305 128.897C91.0956 129.556 95.1197 131.122 98.4928 133.643L100.289 131.24ZM91.8073 139.602C94.8582 139.602 97.0611 138.658 98.5535 137.227C100.019 135.822 100.67 134.073 100.875 132.656L97.9062 132.226C97.7747 133.136 97.358 134.217 96.4775 135.061C95.624 135.879 94.2034 136.602 91.8073 136.602V139.602ZM81.3278 137.193C81.944 137.841 83.102 138.416 84.6977 138.839C86.3582 139.279 88.676 139.602 91.8073 139.602V136.602C88.8721 136.602 86.8212 136.298 85.4659 135.939C84.7882 135.76 84.2988 135.57 83.9659 135.407C83.6146 135.235 83.4968 135.121 83.5014 135.126L81.3278 137.193ZM104.518 137.979C93.8518 142.697 86.1717 138.141 83.5378 135.165L81.2915 137.154C84.6655 140.965 93.7057 146.042 105.731 140.722L104.518 137.979ZM107.588 143.91C107.557 142.054 107.166 140.339 106.508 138.77L103.741 139.931C104.259 141.164 104.564 142.503 104.588 143.959L107.588 143.91ZM106.62 153.03C107.247 150.284 107.642 147.208 107.588 143.91L104.588 143.959C104.638 146.988 104.275 149.822 103.695 152.362L106.62 153.03ZM101.462 152.474C102.484 152.474 103.397 152.933 104.009 153.661L106.305 151.73C105.147 150.353 103.406 149.474 101.462 149.474V152.474ZM98.4355 154.416C98.9628 153.267 100.121 152.474 101.462 152.474V149.474C98.9059 149.474 96.7072 150.99 95.709 153.165L98.4355 154.416ZM89.6863 157.591C92.582 156.341 95.6343 155.568 97.3338 155.267L96.8107 152.313C94.9224 152.648 91.641 153.479 88.4974 154.836L89.6863 157.591ZM87.5609 157.103C87.848 157.263 88.1378 157.416 88.4297 157.559L89.754 154.868C89.511 154.748 89.2664 154.619 89.021 154.483L87.5609 157.103ZM87.482 157.059L87.5579 157.102L89.024 154.484L88.9481 154.442L87.482 157.059ZM81.3186 156.974C84.8552 156.15 87.0177 156.811 87.5079 157.073L88.9222 154.428C87.646 153.745 84.7058 153.104 80.638 154.052L81.3186 156.974ZM74.6418 157.197C76.5631 157.46 78.9493 157.526 81.3186 156.974L80.638 154.052C78.7313 154.496 76.7338 154.455 75.0477 154.225L74.6418 157.197ZM72.5316 155.878C72.9842 156.045 73.3916 156.323 73.7094 156.691L75.98 154.731C75.3239 153.971 74.4885 153.401 73.5654 153.062L72.5316 155.878ZM53.6085 71.9986L71.5826 154.789L74.5144 154.152L56.5402 71.3621L53.6085 71.9986ZM55.5 67.5C55.5 68.7164 54.9589 69.8048 54.099 70.5407L56.0497 72.8199C57.5471 71.5384 58.5 69.6297 58.5 67.5H55.5ZM51.5 63.5C53.7091 63.5 55.5 65.2909 55.5 67.5H58.5C58.5 63.634 55.366 60.5 51.5 60.5V63.5ZM47.5 67.5C47.5 65.2909 49.2909 63.5 51.5 63.5V60.5C47.634 60.5 44.5 63.634 44.5 67.5H47.5ZM50.5616 71.3897C48.8045 70.9679 47.5 69.3844 47.5 67.5H44.5C44.5 70.8032 46.7865 73.5686 49.8613 74.3068L50.5616 71.3897ZM51.9575 73.8205L51.6773 72.53L48.7456 73.1665L49.0258 74.457L51.9575 73.8205ZM15.4351 85.1177C15.3654 85.0162 15.3822 84.9949 15.3829 85.0341C15.3835 85.0689 15.3688 85.0426 15.4347 84.9334C15.5978 84.6634 16.0467 84.2265 16.9834 83.6832C18.8131 82.6221 21.8078 81.5435 25.5385 80.5122C32.9499 78.4636 42.7813 76.729 50.6989 75.6243L50.2843 72.6531C42.3137 73.7652 32.3345 75.5212 24.7392 77.6207C20.9667 78.6635 17.6591 79.8234 15.4784 81.0881C14.4099 81.7077 13.4266 82.4555 12.8668 83.3824C12.5713 83.8717 12.3725 84.4469 12.3833 85.0851C12.3942 85.7277 12.6157 86.3116 12.962 86.816L15.4351 85.1177ZM18.8714 99.2956C18.3896 93.2001 16.6637 87.9988 15.5844 85.3929L12.8127 86.5408C13.8061 88.9394 15.43 93.8286 15.8807 99.532L18.8714 99.2956ZM1.37175 109.453C9.63033 107.341 15.0416 103.99 18.455 100.456L16.2971 98.3718C13.3378 101.436 8.4516 104.545 0.62825 106.547L1.37175 109.453ZM22 119C17.8364 119 13.6814 117.103 10.1002 114.585C6.53406 112.078 3.69325 109.065 2.19424 107.092L-0.194243 108.908C1.47341 111.102 4.53261 114.338 8.37481 117.04C12.202 119.73 16.9636 122 22 122V119ZM20.5 115.5L20.5 120.5H23.5L23.5 115.5H20.5ZM59.8725 113.884C54.1785 112.135 46.6189 111.822 39.5827 112.103C32.5117 112.385 25.8049 113.276 21.729 114.025L22.271 116.975C26.2204 116.25 32.7858 115.377 39.7025 115.101C46.6541 114.823 53.7977 115.156 58.9913 116.752L59.8725 113.884ZM69.5993 155.08L60.8977 115L57.966 115.636L66.6676 155.716L69.5993 155.08ZM68.5582 158.631C68.2861 157.865 68.5288 157.038 69.113 156.534L67.1539 154.262C65.6634 155.547 65.031 157.665 65.7314 159.635L68.5582 158.631ZM69.511 159.706C69.0798 159.491 68.7317 159.119 68.5582 158.631L65.7314 159.635C66.1755 160.885 67.0757 161.845 68.1747 162.392L69.511 159.706ZM69.9526 159.969C69.895 159.947 69.8251 159.911 69.7489 159.853L67.9368 162.244C68.2312 162.467 68.5581 162.651 68.9096 162.782L69.9526 159.969ZM83.5228 219.212L70.8969 161.057L67.9652 161.693L80.5911 219.849L83.5228 219.212ZM84.7122 219.977C84.1725 220.094 83.6399 219.752 83.5228 219.212L80.5911 219.849C81.0598 222.007 83.1898 223.378 85.3487 222.909L84.7122 219.977ZM85.4659 219.261C85.3698 219.613 85.0873 219.896 84.7122 219.977L85.3487 222.909C86.8597 222.581 87.9818 221.439 88.3603 220.05L85.4659 219.261ZM97.6392 217.875C93.1969 218.523 90.5764 218.555 87.0795 218.165L86.7467 221.146C90.5276 221.568 93.4071 221.524 98.0721 220.844L97.6392 217.875ZM98.3526 217.363C98.3526 217.637 98.1301 217.86 97.8556 217.86V220.86C99.7869 220.86 101.353 219.294 101.353 217.363H98.3526ZM98.2658 217.082C98.3224 217.165 98.3526 217.262 98.3526 217.363H101.353C101.353 216.658 101.14 215.97 100.742 215.388L98.2658 217.082ZM95.9999 213.77L98.2658 217.082L100.742 215.388L98.4758 212.076L95.9999 213.77ZM97.1821 214.423H97.2379V211.423H97.1821V214.423ZM92.6981 202.977C92.6011 202.924 92.6267 202.904 92.7475 203.07C92.856 203.22 92.9909 203.449 93.1452 203.773C93.4536 204.42 93.774 205.303 94.0912 206.351C94.7229 208.438 95.2892 210.997 95.7085 213.203L98.6557 212.643C98.2274 210.389 97.6381 207.713 96.9625 205.482C96.626 204.37 96.2548 203.324 95.8532 202.482C95.6524 202.061 95.4278 201.656 95.1745 201.307C94.9336 200.975 94.5953 200.594 94.1346 200.343L92.6981 202.977ZM99.7223 192.126C96.9077 196.652 93.7393 199.57 92.5341 200.447L94.2986 202.873C95.8317 201.758 99.261 198.548 102.27 193.71L99.7223 192.126ZM112.122 197.344C108.346 197.344 104.823 195.378 102.178 191.994L99.8144 193.842C102.901 197.79 107.234 200.344 112.122 200.344V197.344ZM112.878 197.318C112.628 197.335 112.376 197.344 112.122 197.344V200.344C112.445 200.344 112.767 200.333 113.086 200.311L112.878 197.318ZM122.577 191.307C120.054 194.871 116.606 197.059 112.878 197.318L113.086 200.311C117.904 199.975 122.105 197.166 125.026 193.04L122.577 191.307ZM132.715 200.447C131.444 199.522 128.005 196.34 125.093 191.41L122.51 192.936C125.626 198.211 129.341 201.702 130.951 202.873L132.715 200.447ZM129.541 213.203C129.96 210.997 130.526 208.438 131.158 206.351C131.475 205.303 131.796 204.42 132.104 203.773C132.258 203.449 132.393 203.22 132.502 203.07C132.622 202.904 132.648 202.924 132.551 202.977L131.115 200.343C130.654 200.594 130.316 200.975 130.075 201.307C129.821 201.656 129.597 202.061 129.396 202.482C128.994 203.324 128.623 204.37 128.287 205.482C127.611 207.713 127.022 210.389 126.593 212.643L129.541 213.203ZM128.011 214.423H128.067V211.423H128.011V214.423ZM126.983 217.082L129.249 213.77L126.773 212.076L124.507 215.388L126.983 217.082ZM126.897 217.363C126.897 217.262 126.927 217.165 126.983 217.082L124.507 215.388C124.109 215.97 123.897 216.658 123.897 217.363H126.897ZM127.394 217.86C127.119 217.86 126.897 217.637 126.897 217.363H123.897C123.897 219.294 125.462 220.86 127.394 220.86V217.86ZM140.384 217.883C135.002 218.848 132.266 219.04 127.76 217.905L127.027 220.814C132.117 222.096 135.33 221.837 140.913 220.836L140.384 217.883ZM141.103 217.579C141.017 217.751 140.841 217.86 140.648 217.86V220.86C141.977 220.86 143.192 220.109 143.786 218.92L141.103 217.579ZM140.801 216.867C141.099 216.961 141.243 217.299 141.103 217.579L143.786 218.921C144.752 216.989 143.759 214.651 141.699 214.005L140.801 216.867ZM134.321 214.834L140.801 216.867L141.699 214.005L135.219 211.972L134.321 214.834ZM132.322 214.449C133 214.501 133.67 214.63 134.321 214.834L135.219 211.972C134.351 211.7 133.456 211.527 132.55 211.458L132.322 214.449ZM135.527 200.975C134.431 203.109 132.256 207.925 130.989 212.558L133.883 213.35C135.078 208.98 137.159 204.364 138.196 202.345L135.527 200.975ZM128.467 187.194L135.501 202.293L138.221 201.026L131.186 185.927L128.467 187.194ZM127.919 164.999C129.807 168.267 130.339 172.41 130.168 176.39C129.997 180.353 129.136 183.979 128.409 186.068L131.243 187.053C132.058 184.71 132.981 180.796 133.165 176.52C133.349 172.26 132.807 167.464 130.517 163.499L127.919 164.999ZM127.839 164.86C127.866 164.906 127.892 164.953 127.919 164.999L130.517 163.499C130.492 163.456 130.468 163.413 130.443 163.37L127.839 164.86ZM136.93 168.68C133.93 167.124 131.639 164.855 130.317 163.184L127.965 165.046C129.476 166.956 132.079 169.544 135.548 171.343L136.93 168.68ZM141.174 177.195C138.892 174.042 137.993 171.523 137.721 169.78L134.757 170.243C135.115 172.54 136.24 175.494 138.743 178.954L141.174 177.195ZM142.011 177.86C141.479 177.446 141.204 177.222 141.096 177.097L138.821 179.052C139.174 179.463 139.754 179.904 140.169 180.228L142.011 177.86ZM142.007 177.856L142.005 177.855L140.176 180.233L140.178 180.234L142.007 177.856ZM144.02 179.67C143.446 178.966 142.592 178.311 142.013 177.861L140.171 180.229C140.833 180.745 141.38 181.18 141.694 181.566L144.02 179.67ZM143.788 182.743C143.581 182.393 143.644 181.953 143.92 181.676L141.794 179.56C140.577 180.783 140.286 182.715 141.207 184.27L143.788 182.743ZM144.626 184.159L143.789 182.743L141.207 184.27L142.044 185.687L144.626 184.159ZM147.324 184.851C146.388 185.405 145.18 185.095 144.626 184.159L142.045 185.687C143.442 188.049 146.49 188.83 148.851 187.433L147.324 184.851ZM148.016 182.154C148.569 183.089 148.26 184.297 147.324 184.851L148.852 187.433C151.213 186.035 151.995 182.988 150.598 180.626L148.016 182.154ZM146.565 179.702L148.016 182.154L150.598 180.626L149.147 178.174L146.565 179.702ZM147.01 179.816C146.855 179.907 146.656 179.856 146.565 179.702L149.147 178.174C148.394 176.902 146.753 176.481 145.482 177.234L147.01 179.816ZM146.983 179.831L147.009 179.816L145.483 177.233L145.457 177.249L146.983 179.831ZM141.635 167.504C141.56 167.454 141.61 167.462 141.751 167.687C141.877 167.888 142.025 168.179 142.188 168.568C142.514 169.343 142.847 170.375 143.17 171.553C143.813 173.9 144.373 176.674 144.742 178.797L147.698 178.283C147.32 176.11 146.741 173.234 146.063 170.76C145.725 169.527 145.352 168.354 144.953 167.405C144.754 166.931 144.535 166.48 144.292 166.093C144.064 165.73 143.744 165.304 143.3 165.008L141.635 167.504ZM139.369 164.947C140.199 164.991 140.876 165.629 140.979 166.444L143.956 166.068C143.673 163.825 141.819 162.073 139.528 161.951L139.369 164.947ZM132.944 159.033C133.809 159.419 134.771 160.188 135.731 161.19C136.674 162.175 137.534 163.301 138.208 164.292L140.689 162.606C139.951 161.519 138.987 160.253 137.898 159.115C136.825 157.995 135.546 156.91 134.167 156.294L132.944 159.033ZM128.169 154.083C130.4 154.083 132.056 155.768 132.056 157.663H135.056C135.056 153.947 131.888 151.083 128.169 151.083V154.083ZM125.771 154.846C126.426 154.372 127.255 154.083 128.169 154.083V151.083C126.616 151.083 125.173 151.576 124.012 152.416L125.771 154.846ZM122.579 141.843C121.951 145.776 122.412 150.023 123.439 154.006L126.344 153.257C125.383 149.531 124.998 145.719 125.541 142.317L122.579 141.843ZM137.538 136.943C135.441 138.92 130.621 141.482 124.268 140.594L123.853 143.566C131.203 144.592 136.911 141.658 139.597 139.125L137.538 136.943ZM128.903 140.618C132.022 140.899 134.359 140.786 136.053 140.497C137.68 140.22 138.885 139.751 139.557 139.161L137.578 136.906C137.583 136.902 137.455 137.005 137.09 137.145C136.744 137.277 136.239 137.422 135.548 137.54C134.166 137.776 132.096 137.894 129.173 137.63L128.903 140.618ZM124.477 139.331C125.668 140.005 127.132 140.458 128.903 140.618L129.173 137.63C127.763 137.503 126.722 137.154 125.954 136.72L124.477 139.331ZM128.947 131.077C126.558 132.79 124.9 134.976 123.839 137.43L126.592 138.621C127.451 136.634 128.776 134.892 130.696 133.515L128.947 131.077ZM138.975 129.371C135.419 129.128 132.118 129.703 129.24 130.913L130.403 133.679C132.835 132.656 135.665 132.152 138.77 132.364L138.975 129.371ZM150.641 130.169L138.975 129.371L138.77 132.364L150.436 133.162L150.641 130.169ZM154.465 126.845L149.638 130.466L151.438 132.866L156.265 129.245L154.465 126.845ZM153.865 102.501V128.045H156.865V102.501H153.865ZM155.596 104.046L155.99 103.865L154.74 101.138L154.346 101.318L155.596 104.046ZM153.063 21.9204C154.075 42.6063 155.454 85.7205 153.481 102.507L156.461 102.857C158.469 85.7689 157.067 42.374 156.059 21.7738L153.063 21.9204ZM70.0583 20.2824C72.1699 19.7363 76.9118 19.4878 83.4473 19.5005C89.9029 19.513 97.9075 19.7758 106.399 20.1776C123.379 20.9811 142.247 22.3374 154.438 23.3421L154.684 20.3522C142.47 19.3456 123.566 17.9866 106.541 17.181C98.0299 16.7782 89.9741 16.5131 83.4532 16.5005C77.0123 16.488 71.8618 16.7172 69.3071 17.3779L70.0583 20.2824ZM55.3692 26.9214C60.5197 25.6133 64.1346 24.2032 66.5783 22.9443C67.7997 22.3151 68.744 21.7156 69.4467 21.1743C70.1202 20.6554 70.6645 20.1196 70.9756 19.5907L68.3898 18.0696C68.3911 18.0674 68.3798 18.0867 68.3472 18.1274C68.3153 18.1673 68.2685 18.2209 68.2031 18.2877C68.0715 18.4222 67.8802 18.5941 67.6158 18.7978C67.0865 19.2055 66.3028 19.7115 65.2044 20.2774C63.0086 21.4086 59.6174 22.7472 54.6308 24.0137L55.3692 26.9214ZM72.8307 160.537L84.6729 215.083L87.6046 214.447L75.7624 159.901L72.8307 160.537ZM74.1572 158.677L73.7942 158.806L74.799 161.632L75.162 161.503L74.1572 158.677ZM74.3237 158.57C74.28 158.616 74.2252 158.652 74.1572 158.677L75.162 161.503C75.6759 161.321 76.1227 161.026 76.4809 160.655L74.3237 158.57ZM89.0863 160.345C88.6143 160.598 87.9055 160.769 86.9294 160.799C85.9663 160.828 84.8384 160.717 83.6023 160.491C81.1292 160.039 78.3807 159.157 75.9434 158.214L74.8611 161.012C77.392 161.991 80.3343 162.944 83.063 163.442C84.4278 163.692 85.7785 163.835 87.0203 163.797C88.2492 163.76 89.4716 163.543 90.5056 162.988L89.0863 160.345ZM100.019 158.996C97.0823 159.464 93.0806 159.979 89.7114 160.169L89.8805 163.164C93.3877 162.966 97.4984 162.436 100.491 161.958L100.019 158.996ZM101.462 159.129C101.172 159.129 100.893 159.092 100.629 159.024L99.8811 161.929C100.388 162.06 100.918 162.129 101.462 162.129V159.129ZM102.133 159.061C101.918 159.105 101.693 159.129 101.462 159.129V162.129C101.896 162.129 102.322 162.085 102.734 162.001L102.133 159.061ZM101.455 165.149C102.129 164.25 102.959 162.895 103.785 161.183L101.082 159.879C100.321 161.458 99.5882 162.638 99.0549 163.349L101.455 165.149ZM101.085 162.999L101.037 162.969L99.4733 165.529L99.5222 165.559L101.085 162.999ZM97.7322 178.127C97.7322 173.085 99.1922 168.532 101.539 165.131L99.0691 163.427C96.3529 167.365 94.7322 172.521 94.7322 178.127H97.7322ZM98.4647 184.182C97.9902 182.281 97.7322 180.246 97.7322 178.127H94.7322C94.7322 180.489 95.0197 182.768 95.554 184.908L98.4647 184.182ZM95.3717 184.77L95.7466 185.355L98.2722 183.736L97.8973 183.151L95.3717 184.77ZM89.7477 202.293L97.9942 184.594L95.2748 183.327L87.0284 201.026L89.7477 202.293ZM94.2602 212.558C92.9928 207.925 90.8182 203.109 89.7224 200.975L87.0537 202.345C88.0902 204.364 90.1712 208.98 91.3665 213.35L94.2602 212.558ZM90.9279 214.834C91.5788 214.63 92.2496 214.501 92.9276 214.449L92.6991 211.458C91.7936 211.527 90.8982 211.7 90.0299 211.972L90.9279 214.834ZM86.5878 216.196L90.9279 214.834L90.0299 211.972L85.6898 213.334L86.5878 216.196ZM114.575 187.031C115.395 187.113 116.201 187.076 116.973 186.933L116.427 183.983C115.931 184.075 115.409 184.099 114.872 184.046L114.575 187.031ZM107.242 178.529C106.811 182.867 110.192 186.596 114.575 187.031L114.872 184.046C111.959 183.757 109.978 181.342 110.228 178.826L107.242 178.529ZM108.771 174.706C107.937 175.783 107.385 177.089 107.242 178.529L110.228 178.826C110.312 177.972 110.638 177.195 111.143 176.543L108.771 174.706ZM112.082 174.05C111.262 173.969 110.456 174.006 109.684 174.149L110.23 177.099C110.726 177.007 111.248 176.982 111.785 177.036L112.082 174.05ZM119.415 182.552C119.846 178.215 116.465 174.486 112.082 174.05L111.785 177.036C114.698 177.325 116.679 179.74 116.429 182.256L119.415 182.552ZM117.886 186.376C118.72 185.299 119.271 183.993 119.415 182.552L116.429 182.256C116.344 183.11 116.019 183.887 115.514 184.539L117.886 186.376Z" fill="#1D1D1D" mask="url(#path-1-outside-1)"/>
<path d="M106.289 155.802C106.289 158.468 104.128 160.629 101.462 160.629C101.045 160.629 100.641 160.576 100.255 160.477C98.1729 159.941 96.6346 158.051 96.6346 155.802C96.6346 155.084 96.7912 154.403 97.0723 153.79C97.835 152.129 99.5136 150.974 101.462 150.974C104.128 150.974 106.289 153.136 106.289 155.802Z" fill="#45D7B0"/>
<path d="M96.6346 155.802C96.6346 155.084 96.7912 154.403 97.0723 153.79C94.6502 154.219 89.7255 155.531 86.0393 157.768C86.0136 157.784 85.9888 157.799 85.965 157.813C85.0705 158.361 84.251 158.964 83.5609 159.623C82.3316 160.797 83.1204 161.394 84.9688 161.626C88.4429 162.062 95.66 161.21 100.255 160.477C98.1729 159.941 96.6346 158.051 96.6346 155.802Z" fill="#45D7B0"/>
<path d="M71.5106 161.209C69.7316 161.841 67.777 160.912 67.1448 159.133C66.5125 157.354 67.442 155.399 69.221 154.767L70.0966 154.456C72.3591 153.652 74.8451 154.834 75.6492 157.097L75.8348 157.619C76.1927 158.626 75.6665 159.732 74.6596 160.09L71.5106 161.209Z" fill="#45D7B0"/>
<path d="M96.6346 183.96L88.3881 201.66C89.4543 203.736 91.5821 208.452 92.8135 212.954C92.0217 213.014 91.2386 213.165 90.479 213.403L83.9997 215.436C82.8202 215.806 82.252 217.144 82.8049 218.25C83.1449 218.93 83.8402 219.36 84.6008 219.36C89.5239 220.052 92.391 220.157 97.8557 219.36C98.9586 219.36 99.8527 218.466 99.8527 217.363C99.8527 216.96 99.7311 216.567 99.5039 216.235L97.238 212.923H97.1822C96.3347 208.463 94.8709 202.453 93.4165 201.66C94.8914 200.587 98.6056 197.114 101.663 191.804L96.6346 183.96Z" fill="#45D7B0"/>
<path d="M128.615 183.96L136.861 201.66C135.795 203.736 133.667 208.452 132.436 212.954C133.228 213.014 134.011 213.165 134.77 213.403L141.25 215.436C142.429 215.806 142.997 217.144 142.444 218.25C142.104 218.93 141.409 219.36 140.648 219.36C135.166 220.342 132.191 220.568 127.394 219.36C126.291 219.36 125.397 218.466 125.397 217.363C125.397 216.96 125.518 216.567 125.745 216.235L128.011 212.923H128.067C128.915 208.463 130.378 202.453 131.833 201.66C130.358 200.587 126.644 197.114 123.586 191.804L128.615 183.96Z" fill="#45D7B0"/>
<path d="M150.337 109.541L74.5099 104.312C79.498 70.3604 63.5817 37.6026 55 25.4675C65.1371 22.893 69.0123 19.9699 69.6827 18.8301C79.0153 16.4165 130.157 19.8358 154.561 21.8471C155.634 43.7706 157.135 91.1978 154.561 105.518L150.337 109.541Z" fill="#D5C797"/>
<path fill-rule="evenodd" clip-rule="evenodd" d="M74.5099 104.312L150.337 109.541L154.561 105.518C157.135 91.1978 155.634 43.7706 154.561 21.8471C149.895 23.9389 145.242 29.155 143.499 31.5015L99.8527 28.6857V31.5015L96.8357 28.6857L55 25.4675C63.5817 37.6026 79.498 70.3604 74.5099 104.312Z" fill="#C7B883"/>
<path d="M99.8527 28.6857L143.499 31.5015C145.242 29.155 149.895 23.9389 154.561 21.8471C130.157 19.8358 79.0153 16.4165 69.6827 18.8301C69.0123 19.9699 65.1371 22.893 55 25.4675L96.8357 28.6857L99.8527 31.5015V28.6857Z" fill="#DECF9B"/>
<path fill-rule="evenodd" clip-rule="evenodd" d="M150.337 109.541L74.5099 104.312C79.498 70.3604 63.5817 37.6026 55 25.4675L96.8357 28.6857L99.8527 31.5015V28.6857L143.499 31.5015C150.578 43.7304 151.007 88.6233 150.337 109.541Z" fill="#DECF9B"/>
<path fill-rule="evenodd" clip-rule="evenodd" d="M69.6827 18.8301C79.0153 16.4165 130.157 19.8358 154.561 21.8471C149.895 23.9389 145.242 29.155 143.499 31.5015L99.8527 28.6857V31.5015L96.8357 28.6857L55 25.4675C65.1371 22.893 69.0123 19.9699 69.6827 18.8301Z" fill="#F2DF9A"/>
<path d="M129.017 57.2467C128.213 45.8223 122.648 33.4459 119.966 28.6858H126.201C131.189 36.7311 130.157 51.0786 129.017 57.2467Z" fill="#F2DF9A"/>
<path d="M81.9521 49.8047C80.9866 38.5413 73.6386 28.4846 70.0852 24.8642H75.5158C82.7566 35.8059 82.8236 46.0502 81.9521 49.8047Z" fill="#F2DF9A"/>
<path fill-rule="evenodd" clip-rule="evenodd" d="M150.538 104.714L74.1077 99.4844V126.436L88.7904 127.441C94.4891 128.849 105.927 134.12 106.088 143.935C106.249 153.75 102.266 161.568 100.255 164.249L100.304 164.279C97.7726 167.949 96.2323 172.803 96.2323 178.127C96.2323 189.569 103.346 198.844 112.122 198.844C116.842 198.844 121.08 196.161 123.991 191.901L129.821 186.575C131.363 182.15 133.4 171.49 129.218 164.249C123.991 155.198 119.966 139.363 129.821 132.296C132.476 131.18 135.542 130.64 138.872 130.867L150.538 131.666L155.365 128.045V102.501L150.538 104.714ZM114.723 185.539C118.371 185.901 121.604 183.417 121.945 179.99C122.285 176.564 119.604 173.492 115.956 173.13C112.309 172.767 109.076 175.251 108.735 178.678C108.395 182.104 111.075 185.176 114.723 185.539Z" fill="#45D7B0"/>
<path fill-rule="evenodd" clip-rule="evenodd" d="M74.1077 99.4844L150.538 104.714V131.666L138.872 130.867C128.816 130.179 121.173 136.493 119.966 144.538C119.029 150.787 122.692 160.954 124.808 165.652C126.819 169.122 128.011 173.443 128.011 178.127C128.011 189.569 120.897 198.844 112.122 198.844C103.346 198.844 96.2323 189.569 96.2323 178.127C96.2323 172.803 97.7726 167.949 100.304 164.279L100.255 164.249C102.266 161.568 106.249 153.75 106.088 143.935C105.927 134.12 94.4891 128.849 88.7904 127.441L74.1077 126.436V99.4844ZM110.701 187.952C114.348 188.315 117.581 185.831 117.922 182.404C118.262 178.977 115.582 175.906 111.934 175.543C108.286 175.181 105.053 177.665 104.712 181.091C104.372 184.518 107.053 187.59 110.701 187.952Z" fill="#2AAC89"/>
<path d="M136.329 127.75C141.609 128.788 146.696 125.173 147.758 119.774C148.82 114.375 145.482 109.102 140.203 108.063C134.923 107.024 129.836 110.64 128.773 116.039C127.711 121.437 131.05 126.711 136.329 127.75Z" fill="url(#paint0_radial)" stroke="#1D1D1D" stroke-width="2"/>
<path d="M85.6439 123.485C90.9234 124.524 96.0108 120.908 97.0729 115.509C98.1351 110.111 94.7967 104.837 89.5172 103.798C84.2377 102.759 79.1503 106.375 78.0882 111.774C77.026 117.173 80.3644 122.446 85.6439 123.485Z" fill="url(#paint1_radial)" stroke="#1D1D1D" stroke-width="2"/>
<circle cx="135.466" cy="120.214" r="4.77392" transform="rotate(-8.72807 135.466 120.214)" fill="#636363"/>
<circle cx="89.6074" cy="114.984" r="4.77392" transform="rotate(-8.72807 89.6074 114.984)" fill="#636363"/>
<path d="M112.725 131.465C112.725 134.354 110.878 136.813 108.3 137.724C107.608 137.969 106.863 138.102 106.088 138.102C102.479 138.102 99.5431 135.222 99.4525 131.635C99.451 131.579 99.4503 131.522 99.4503 131.465C99.4503 127.799 102.422 124.827 106.088 124.827C109.753 124.827 112.725 127.799 112.725 131.465Z" fill="#614B32"/>
<path d="M106.088 138.102C102.479 138.102 99.5431 135.222 99.4525 131.635C99.4422 133.897 97.9249 138.102 91.8073 138.102C85.7406 138.102 83.0701 136.849 82.4146 136.16C85.6924 139.862 95.3475 145.26 108.3 137.724C107.608 137.969 106.863 138.102 106.088 138.102Z" fill="#614B32"/>
<path d="M108.801 130.633C108.542 133.511 110.16 136.126 112.646 137.265C113.313 137.571 114.043 137.771 114.815 137.84C118.409 138.165 121.592 135.561 122.005 131.996C122.012 131.94 122.017 131.883 122.023 131.826C122.352 128.176 119.66 124.949 116.009 124.619C112.358 124.29 109.131 126.982 108.801 130.633Z" fill="#7C654A"/>
<path d="M114.815 137.84C118.409 138.165 121.592 135.561 122.005 131.996C121.812 134.249 122.945 138.574 129.038 139.124C135.08 139.669 137.852 138.661 138.567 138.034C134.97 141.427 124.869 145.934 112.646 137.265C113.313 137.571 114.043 137.771 114.815 137.84Z" fill="#7C654A"/>
<path d="M91.0475 157C90.135 156.722 89.2074 156.304 88.2908 155.793C88.2655 155.779 88.2402 155.765 88.2149 155.751C87.3317 155.278 84.7804 154.627 80.9782 155.513C77.0604 156.426 72.9617 155.486 71.4021 154.902L71.1838 157.795C76.0418 160.138 86.6604 164.132 90.2709 161.361C93.8813 158.59 95.8938 158.83 94.9999 157.795C95.7042 159.519 92.6732 157.496 91.0475 157Z" fill="#45D7B0"/>
<path d="M133.556 157.663C133.556 154.858 131.144 152.583 128.169 152.583C125.194 152.583 122.782 154.858 122.782 157.663C122.782 160.469 125.194 162.743 128.169 162.743C129.193 164.421 132.059 167.843 136.239 170.012C136.554 172.032 137.566 174.768 139.959 178.075C140.189 178.343 140.616 178.675 141.09 179.044C141.711 179.527 142.412 180.072 142.857 180.618C142.111 181.368 141.934 182.554 142.497 183.507L143.335 184.923C144.311 186.572 146.439 187.117 148.088 186.142C149.736 185.166 150.282 183.039 149.307 181.39L147.856 178.938C147.525 178.379 146.804 178.194 146.246 178.525L146.22 178.54C145.473 174.245 143.942 167.24 142.467 166.256C142.274 164.727 141.009 163.532 139.448 163.449C138.037 161.371 135.8 158.666 133.556 157.663Z" fill="#2AAC89"/>
<path d="M84.5 219L51.5 67" stroke="#C6C6C6" stroke-width="5" stroke-linecap="round"/>
<circle cx="51.5" cy="67.5" r="5.5" fill="#E9E588"/>
<path d="M17.5 102.5C17.5 94.9 15.1667 88.1667 14 85.5L22 89.5C22.4 95.9 19.1667 100.833 17.5 102.5Z" fill="#D05D5D"/>
<path d="M21.9999 89.5C-1.6001 83.5 31.8332 76.6667 51.4999 74L59.9999 115.5C49.1999 111.9 30.1666 114 21.9999 115.5V89.5Z" fill="#E47272"/>
<path d="M22 89.5C22.0065 89.6698 22.0067 89.848 22 90.0339V120.5C12.8 120.5 4.16667 112.167 1 108C17.5258 103.772 21.8354 94.5907 22 90.0339V89.5Z" fill="#F08181"/>
<ellipse cx="69.7699" cy="159.055" rx="2" ry="2.5" transform="rotate(-21.2418 69.7699 159.055)" fill="#45D7B0"/>
</g>
<defs>
<radialGradient id="paint0_radial" cx="0" cy="0" r="1" gradientUnits="userSpaceOnUse" gradientTransform="translate(134.463 116.626) rotate(46.8954) scale(15.8395 12.146)">
<stop stop-color="white"/>
<stop offset="1" stop-color="#E7E7E7"/>
</radialGradient>
<radialGradient id="paint1_radial" cx="0" cy="0" r="1" gradientUnits="userSpaceOnUse" gradientTransform="translate(83.7779 112.362) rotate(46.8954) scale(15.8395 12.146)">
<stop stop-color="white"/>
<stop offset="1" stop-color="#E7E7E7"/>
</radialGradient>
<clipPath id="clip0">
<rect width="176" height="240" fill="white"/>
</clipPath>
</defs>
</svg>
