<svg width="176" height="240" viewBox="0 0 176 240" fill="none" xmlns="http://www.w3.org/2000/svg">
<g clip-path="url(#clip0)">
<path d="M107.5 137C107.833 137 109.3 137.3 110.5 136.5C112.167 136.667 117 136.5 119.5 133" stroke="#1D1D1D" stroke-width="1.5"/>
<path d="M129.471 104.987C129.471 104.975 129.471 104.953 129.469 104.924L130.414 100.779C130.478 100.599 130.542 100.42 130.606 100.242C133.17 100.028 135.554 99.0919 136.971 97.8322C141.155 98.4562 146.877 98.093 151.939 96.331C157.079 94.5416 161.706 91.2428 163.173 85.8875C164.393 84.6667 165.793 83.2224 166.755 80.9134C167.754 78.5149 168.255 75.2558 167.746 70.4215C167.11 64.383 167.292 61.6389 167.496 60.0852C168.796 59.1013 169.587 57.517 169.508 55.7968L169.223 49.5666C169.091 46.6849 166.591 44.4902 163.716 44.7332L161.257 44.9411C158.04 45.2131 155.888 48.3755 156.816 51.4677L158.95 58.5808C153.573 64.4869 149.057 70.3017 148.765 78.6377C147.025 78.3784 145.598 78.0954 144.372 77.8521L144.231 77.8241C142.402 77.461 140.938 77.1704 139.555 77.2664C140.706 74.6654 141.604 72.8148 142.355 71.2668L142.362 71.2517C143.205 69.5148 143.874 68.1364 144.501 66.5085L144.544 66.4747L144.611 66.241L144.636 66.1533C144.671 66.0599 144.706 65.9654 144.74 65.8698L144.759 65.818L144.77 65.764L144.83 65.474L153.533 34.9844L153.547 34.9979L153.905 33.8684L157.419 22.7687L157.873 21.3348L156.455 21.835L146.577 25.3183L116.19 35.201L115.956 35.2525L115.79 35.4688C114.086 37.6843 112.427 40.1607 110.819 42.8446C108.705 45.6406 106.83 48.6724 105.135 51.9009C102.587 52.4638 100.176 54.379 98.7595 57.157C97.1023 60.4061 97.1946 64.0862 98.8946 66.5815C97.74 69.8687 96.6622 73.2724 95.6222 76.7658C95.4265 76.9168 95.2427 77.074 95.0727 77.2368C91.6076 76.8065 88.5196 76.6432 85.9502 77.5039C84.1426 78.1093 82.6377 79.2026 81.4296 80.9477C81.3095 79.9153 81.0251 78.9774 80.5988 78.0786C79.7548 76.2994 78.3655 74.709 76.7704 72.8831L76.7203 72.8257C75.6865 71.6422 74.5455 70.3357 73.3423 68.7668C73.8268 68.0507 74.1336 67.204 74.2004 66.2908L74.6556 60.0707C74.8661 57.1937 72.6433 54.7181 69.7603 54.6188L67.2935 54.5338C64.0671 54.4227 61.5556 57.3078 62.1102 60.4881L63.7089 69.6553C63.9666 72.4128 63.9878 74.9984 64.0071 77.4031L64.0073 77.4297C64.025 79.63 64.0417 81.6995 64.2492 83.5633C64.458 85.4385 64.8648 87.1625 65.6981 88.6575C67.403 91.716 70.7353 93.5574 76.8812 94.1585C79.6525 94.4295 82.1888 95.0162 84.5844 95.5712L84.6241 95.5804C86.5869 96.0351 88.4778 96.4731 90.2838 96.667L85.1918 119.011C84.4532 122.252 86.0047 125.632 89.0618 127.031C97.8792 131.064 105.174 132.9 117.122 133.343C120.542 133.47 123.506 131.089 124.26 127.781L129.026 106.868C129.034 106.841 129.046 106.8 129.061 106.749C129.118 106.552 129.22 106.204 129.302 105.892C129.356 105.686 129.41 105.467 129.441 105.293C129.454 105.216 129.472 105.101 129.471 104.988V104.987Z" fill="#1D1D1D" stroke="#1D1D1D" stroke-width="1.5"/>
<path d="M99.9182 92.498C95.414 90.4231 93.2736 82.5319 95.3485 78.0278C97.3735 75.794 102.928 74.1121 107.432 76.187C111.936 78.2619 113.905 83.5953 111.831 88.0994C109.756 92.6036 104.422 94.5729 99.9182 92.498Z" fill="#D16262"/>
<path d="M99.9182 92.498C95.414 90.4231 93.2736 82.5319 95.3485 78.0278C87.1229 76.9716 81.8111 77.3967 79.5676 87.7388L76.9541 93.4122C86.8254 94.3775 93.7062 99.2647 99.9182 92.498Z" fill="#D16262"/>
<path d="M76.9541 93.4122L79.5676 87.7388C83.0515 77.9758 78.2726 76.7403 72.137 68.4119C66.0014 60.0836 66.374 62.9466 67.228 62.337L63.7602 64.7854C66.9123 80.4347 59.8012 91.7347 76.9541 93.4122Z" fill="#D16262"/>
<path d="M69.7343 55.3685C72.192 55.4531 74.087 57.5635 73.9075 60.0161L73.4523 66.2361C73.2978 68.3474 71.6407 70.0381 69.5329 70.235L64.6507 70.6909L62.8489 60.3594C62.3761 57.6483 64.5171 55.1888 67.2675 55.2835L69.7343 55.3685Z" fill="#D16262"/>
<path d="M89.1365 105.076C101.78 110.533 109.517 112.917 126.713 113.639L123.529 127.615C122.852 130.586 120.195 132.707 117.15 132.594C105.293 132.154 98.0956 130.338 89.3736 126.349C86.6566 125.106 85.259 122.091 85.9228 119.178L89.1365 105.076Z" fill="#EBB9E3"/>
<path d="M116.385 35.9262C108.039 49.8692 97.8214 71.1553 92.115 92.0061C105.182 100.025 122.611 101.056 129.692 100.569C134.941 66.4764 133.069 74.5498 143.889 66.0354L156.178 22.9846L116.385 35.9262Z" fill="#EEDAB3"/>
<path fill-rule="evenodd" clip-rule="evenodd" d="M114.508 39.5789C102.954 52.1947 97.8216 71.1548 92.1151 92.0055C95.2736 93.9438 98.6868 95.4739 102.147 96.6729C107.596 98.5608 112.784 99.671 117.655 100.219C123.164 77.8943 117.667 76.0913 131.857 62.9568L134.026 48.6533L121.004 52.495L114.809 39.5123L114.508 39.5789Z" fill="#F08181"/>
<path d="M145.875 56.6382L131.857 62.9568C117.667 76.0913 123.164 77.8943 117.655 100.219C122.49 100.763 126.641 100.796 129.315 100.612C137.368 67.788 132.333 76.5628 144.035 65.6135L145.875 56.6382Z" fill="#F08181"/>
<path fill-rule="evenodd" clip-rule="evenodd" d="M116.385 35.926C106.401 48.9093 97.8218 71.1544 92.1154 92.0052C95.2738 93.9435 98.6871 95.4735 102.147 96.6725C107.596 98.5605 113.161 99.6277 118.033 100.176C123.541 77.8509 117.667 76.0913 131.857 62.9568L133.649 48.6963L120.627 52.538L116.686 35.8595L116.385 35.926Z" fill="#F08181"/>
<path d="M145.875 56.6382L131.857 62.9568C117.667 76.0913 123.541 77.8509 118.033 100.176C122.867 100.72 127.018 100.752 129.692 100.569C137.745 67.7447 132.333 76.5628 144.035 65.6135L145.875 56.6382Z" fill="#F08181"/>
<path d="M145.875 56.6384L131.857 62.957C123.218 75.2693 123.541 77.8515 118.032 100.176C122.867 100.72 127.018 100.753 129.692 100.569C139.382 73.4271 141.85 71.6173 144.035 65.6137L145.875 56.6384Z" fill="#D05D5D"/>
<path fill-rule="evenodd" clip-rule="evenodd" d="M120.917 52.2228C113.749 62.5923 107.14 73.078 102.147 96.673C107.596 98.5609 113.161 99.6281 118.033 100.176C123.541 77.8514 124.585 74.3493 132.146 62.6416L133.939 48.3811L120.917 52.2228Z" fill="#E47272"/>
<path d="M92.1151 92.0059C104.759 97.4631 112.496 99.8471 129.692 100.569L125.348 119.63C107.998 119.533 100.081 117.274 87.7714 111.067L92.1151 92.0059Z" fill="#D9D9D9"/>
<path d="M126.997 112.286C118.765 114.236 101.376 107.763 94.7906 104.509C94.1404 104.188 93.3448 104.501 93.1126 105.188C92.9273 105.736 93.1729 106.338 93.693 106.592C107.426 113.299 123.068 115.785 126.167 115.055L126.997 112.286Z" fill="#AEAEAE"/>
<path d="M128.908 104.891C120.675 106.842 102.865 101.102 96.2241 97.9455C95.5691 97.6341 94.7728 97.9483 94.5406 98.6354C94.3552 99.1836 94.6009 99.786 95.1221 100.037C108.875 106.674 124.996 107.555 127.991 107.587L128.908 104.891Z" fill="#AEAEAE"/>
<path d="M117.451 134.073C115.568 135.991 112.883 136.644 110.454 136.02C109.259 135.713 108.126 135.097 107.182 134.171C104.319 131.362 104.276 126.765 107.084 123.902C109.892 121.04 114.49 120.996 117.352 123.804C120.215 126.613 120.259 131.21 117.451 134.073Z" fill="#F6CAEF"/>
<path d="M107.182 134.171C104.319 131.362 104.276 126.765 107.084 123.902C102.997 123.283 93.3634 122.335 87.5288 123.497C85.6169 123.877 84.6596 124.584 84.3159 125.431C83.6107 127.168 85.4888 129.495 87.0062 130.809C88.8911 131.602 91.4254 132.585 94.1491 133.513C100.495 135.675 107.868 137.539 110.454 136.02C109.259 135.713 108.126 135.097 107.182 134.171Z" fill="#F6CAEF"/>
<path d="M87.0062 130.809C85.4888 129.495 83.6107 127.168 84.3159 125.431C80.9385 127.725 76.4415 137.111 85.4722 156.299L89.4329 157.446C89.8516 153.032 91.2832 144.395 92.4492 142.409C93.4672 140.674 94.1692 135.88 94.1491 133.513C91.4254 132.585 88.8911 131.602 87.0062 130.809Z" fill="#F6CAEF"/>
<path d="M74.132 158.319C74.2151 157.658 74.6925 157.114 75.3374 156.945C79.4314 155.876 83.7028 155.668 87.8812 156.336L89.8234 156.646L89.5026 159.198C89.3261 160.603 88.1579 161.672 86.7433 161.725L76.8317 162.093C75.1605 162.155 73.8321 160.705 74.0406 159.046L74.132 158.319Z" fill="#F6CAEF"/>
<path d="M153.189 33.6422L145.497 26.4945L156.704 22.5425L153.189 33.6422Z" fill="#636363"/>
<path d="M101.428 68.329C104.966 70.1338 109.534 67.9821 111.691 63.7531C113.848 59.5241 112.908 54.5631 109.369 52.7583C105.831 50.9535 101.263 53.1052 99.1058 57.3342C96.9489 61.5632 97.889 66.5241 101.428 68.329Z" fill="url(#paint0_radial)" stroke="#1D1D1D" stroke-width="0.722313"/>
<path d="M121.75 79.0043C125.288 80.8091 129.856 78.6575 132.013 74.4285C134.17 70.1994 133.23 65.2385 129.691 63.4337C126.153 61.6289 121.585 63.7805 119.428 68.0095C117.271 72.2386 118.211 77.1995 121.75 79.0043Z" fill="url(#paint1_radial)" stroke="#1D1D1D" stroke-width="0.722313"/>
<circle cx="102.99" cy="61.2128" r="3.72704" transform="rotate(7.16457 102.99 61.2128)" fill="#636363"/>
<circle cx="127.143" cy="73.8189" r="3.72704" transform="rotate(7.16457 127.143 73.8189)" fill="#636363"/>
<path d="M99.9184 92.4979C95.4143 90.423 93.2739 82.5318 95.3488 78.0277C97.3738 75.7939 102.928 74.112 107.432 76.1869C111.936 78.2618 113.906 83.5952 111.831 88.0993C109.756 92.6035 104.423 94.5728 99.9184 92.4979Z" fill="#D16262"/>
<path d="M99.9184 92.4979C95.4143 90.423 93.2739 82.5318 95.3488 78.0277C87.1231 76.9715 81.8114 77.3966 79.5678 87.7387L76.9543 93.412C86.8256 94.3774 93.7065 99.2645 99.9184 92.4979Z" fill="#D16262"/>
<path d="M76.9543 93.412L79.5678 87.7387C83.0517 77.9757 78.2729 76.7401 72.1373 68.4118C66.0017 60.0835 66.3743 62.9464 67.2282 62.3369L63.7605 64.7853C66.9125 80.4346 59.8015 91.7345 76.9543 93.412Z" fill="#D16262"/>
<path d="M69.7346 55.3683C72.1923 55.453 74.0872 57.5634 73.9077 60.016L73.4525 66.236C73.2981 68.3473 71.6409 70.038 69.5332 70.2348L64.6509 70.6907L62.8492 60.3593C62.3763 57.6481 64.5174 55.1886 67.2678 55.2834L69.7346 55.3683Z" fill="#D16262"/>
<path d="M89.1367 105.076C101.78 110.533 109.517 112.917 126.714 113.639L123.529 127.614C122.852 130.586 120.195 132.707 117.15 132.594C105.294 132.153 98.0958 130.338 89.3739 126.349C86.6568 125.106 85.2592 122.091 85.9231 119.178L89.1367 105.076Z" fill="#EBB9E3"/>
<path d="M116.385 35.926C108.039 49.8691 97.822 71.1552 92.1156 92.0059C105.183 100.025 122.612 101.056 129.693 100.569C134.941 66.4763 133.07 74.5496 143.89 66.0352L156.178 22.9845L116.385 35.926Z" fill="#EEDAB3"/>
<path fill-rule="evenodd" clip-rule="evenodd" d="M114.508 39.5787C102.954 52.1945 97.8221 71.1546 92.1156 92.0054C95.2741 93.9437 98.6873 95.4737 102.148 96.6727C107.596 98.5607 112.785 99.6709 117.656 100.219C123.164 77.8941 117.667 76.0911 131.857 62.9567L134.027 48.6532L121.005 52.4949L114.81 39.5122L114.508 39.5787Z" fill="#F08181"/>
<path d="M145.876 56.6381L131.857 62.9567C117.667 76.0911 123.164 77.8941 117.656 100.219C122.49 100.763 126.641 100.796 129.316 100.612C137.369 67.7879 132.334 76.5627 144.036 65.6134L145.876 56.6381Z" fill="#F08181"/>
<path fill-rule="evenodd" clip-rule="evenodd" d="M116.385 35.9259C106.401 48.9092 97.822 71.1543 92.1155 92.0051C95.274 93.9434 98.6872 95.4734 102.148 96.6724C107.596 98.5603 113.162 99.6276 118.033 100.176C123.541 77.8508 117.667 76.0911 131.857 62.9567L133.65 48.6961L120.627 52.5379L116.686 35.8594L116.385 35.9259Z" fill="#F08181"/>
<path d="M145.875 56.6381L131.857 62.9567C117.667 76.0911 123.541 77.8508 118.033 100.176C122.867 100.72 127.018 100.752 129.692 100.568C137.745 67.7446 132.333 76.5627 144.035 65.6134L145.875 56.6381Z" fill="#F08181"/>
<path d="M145.876 56.6379L131.858 62.9565C123.219 75.2687 123.541 77.8509 118.033 100.176C122.867 100.72 127.018 100.752 129.693 100.569C139.382 73.4266 141.851 71.6168 144.036 65.6132L145.876 56.6379Z" fill="#D05D5D"/>
<path fill-rule="evenodd" clip-rule="evenodd" d="M120.917 52.2227C113.749 62.5922 107.14 73.0779 102.148 96.6728C107.596 98.5608 113.162 99.628 118.033 100.176C123.541 77.8513 124.585 74.3492 132.147 62.6415L133.939 48.381L120.917 52.2227Z" fill="#E47272"/>
<path d="M92.1154 92.0058C104.759 97.463 112.496 99.847 129.692 100.569L125.349 119.63C107.999 119.533 100.081 117.274 87.7716 111.067L92.1154 92.0058Z" fill="#D9D9D9"/>
<path d="M126.998 112.285C118.766 114.236 101.377 107.763 94.7913 104.509C94.141 104.188 93.3454 104.501 93.1132 105.188C92.9279 105.736 93.1735 106.338 93.6936 106.592C107.426 113.299 123.069 115.785 126.167 115.055L126.998 112.285Z" fill="#AEAEAE"/>
<path d="M128.909 104.891C120.676 106.842 102.866 101.102 96.2246 97.9453C95.5696 97.634 94.7733 97.9481 94.541 98.6352C94.3557 99.1834 94.6014 99.7858 95.1226 100.037C108.876 106.674 124.996 107.554 127.991 107.587L128.909 104.891Z" fill="#AEAEAE"/>
<path d="M132.702 82.4016C137.125 84.6448 138.966 92.611 136.723 97.0338C134.615 99.1896 129.001 100.661 124.579 98.4178C120.156 96.1747 118.389 90.7708 120.632 86.3481C122.875 81.9253 128.279 80.1584 132.702 82.4016Z" fill="#F08181"/>
<path d="M132.702 82.4016C137.125 84.6448 138.966 92.611 136.723 97.0338C144.903 98.3992 159.868 95.7501 162.5 85.5L149.5 79.5C139.672 78.1632 139.164 75.8739 132.702 82.4016Z" fill="#F08181"/>
<path d="M149.5 79.5L162.5 85.5C165 83 168 80 167 70.5C166 61 167 59.5 167 58L160.5 58C154.5 64.5 149.5 70.5 149.5 79.5Z" fill="#F08181"/>
<path d="M163.78 45.4805C166.23 45.2734 168.362 47.1443 168.474 49.6009L168.759 55.8311C168.856 57.9458 167.411 59.821 165.341 60.2662L160.548 61.2974L157.534 51.2522C156.743 48.6162 158.578 45.9203 161.32 45.6885L163.78 45.4805Z" fill="#F08181"/>
<path d="M153.19 33.642L145.497 26.4944L156.704 22.5423L153.19 33.642Z" fill="#D05D5D"/>
<path d="M101.428 68.3285C104.966 70.1333 109.534 67.9816 111.691 63.7526C113.848 59.5236 112.908 54.5626 109.369 52.7578C105.831 50.953 101.263 53.1047 99.1059 57.3337C96.949 61.5627 97.8891 66.5237 101.428 68.3285Z" fill="url(#paint2_radial)" stroke="#1D1D1D" stroke-width="0.722313"/>
<path d="M121.75 79.0042C125.289 80.809 129.857 78.6574 132.014 74.4283C134.171 70.1993 133.23 65.2384 129.692 63.4335C126.153 61.6287 121.585 63.7804 119.428 68.0094C117.271 72.2384 118.212 77.1994 121.75 79.0042Z" fill="url(#paint3_radial)" stroke="#1D1D1D" stroke-width="0.722313"/>
<circle cx="102.99" cy="61.2127" r="3.72704" transform="rotate(7.16457 102.99 61.2127)" fill="#636363"/>
<circle cx="127.143" cy="73.8184" r="3.72704" transform="rotate(7.16457 127.143 73.8184)" fill="#636363"/>
<path d="M34.5081 131.378L34.5053 131.379C31.9741 131.806 29.578 130.916 27.4074 129.288C25.242 127.663 23.244 125.265 21.4577 122.543C17.9008 117.123 15.085 110.265 13.4208 105.166L10.1367 98.2141C8.70328 95.1798 10.4243 91.5953 13.6885 90.8164C16.6053 90.1204 19.5161 91.9881 20.0989 94.9296L20.4765 96.8353C20.9477 99.2131 20.1792 101.585 18.5749 103.227C18.5767 103.325 18.597 103.478 18.6697 103.699C18.7923 104.073 19.0475 104.587 19.5208 105.252C20.4679 106.584 22.233 108.442 25.3376 110.888C31.2356 115.534 34.2915 120.797 35.4761 123.873C38.6089 119.507 41.9742 116.268 45.1527 113.913C43.5614 105.723 42.2857 97.2043 41.5815 88.79C37.6141 87.5237 35.0553 82.9443 35.4233 77.9287C35.7315 73.7294 38.0064 70.1677 41.1345 68.6989C41.5503 60.3074 42.8335 52.3995 45.2975 45.4964L45.3454 45.3624L45.4404 45.2566L45.6824 44.9872L45.6832 44.9863L80.3353 6.26995L80.3365 6.2686L80.3373 6.2678L81.3401 5.13831L81.5891 6.62916L89.5923 54.5403L89.6193 54.7019L89.5802 54.8375C87.3344 66.2337 86.3853 82.1664 89.5246 101.393C91.9476 102.928 93.4874 105.674 93.3736 108.697C95.1393 109.607 96.7596 111.26 98.2207 113.279C99.8187 115.487 101.276 118.203 102.561 121.054C105.131 126.755 107.048 133.081 108.029 137.172L108.03 137.175C108.908 140.9 106.859 144.496 103.702 147.637L112.4 168.237C114.065 171.802 114.272 174.36 113.396 176.418C112.585 178.326 110.896 179.644 109.112 180.891C109.051 181.532 108.923 182.176 108.721 182.814C107.72 185.988 105.168 188.242 102.167 189.008C101.566 189.802 100.606 190.475 99.4771 191.056C98.2143 191.704 96.6541 192.28 94.933 192.789C91.7734 193.724 88.0001 194.457 84.3716 195.003C84.9286 196.234 85.5216 197.816 85.9995 199.38C86.5966 201.334 87.0549 203.388 86.9746 204.712C86.9425 205.24 87.0636 206.183 87.3277 207.447C87.5869 208.687 87.9684 210.168 88.4171 211.738C89.24 214.617 90.2803 217.764 91.1816 220.213L91.5328 220.099L91.7692 220.757L92.468 222.7C93.339 225.122 92.3269 227.818 90.0774 229.069L80.7181 234.272C78.609 235.445 75.9517 234.447 75.1351 232.177L74.8437 231.366C74.4783 230.35 74.7683 229.214 75.5759 228.498C78.3067 226.075 81.3777 224.079 84.6841 222.569C67.3764 208.665 65.6697 197.145 67.5632 191.908C66.5267 191.95 65.4864 191.977 64.4585 191.99C64.8431 193.285 65.2156 194.933 65.4766 196.548C65.8027 198.565 65.9777 200.661 65.7181 201.962C65.6341 202.384 65.6114 203.104 65.6585 204.081C65.7047 205.042 65.8149 206.198 65.9709 207.461C66.255 209.762 66.6877 212.393 67.148 214.802L67.1613 214.799L67.3078 215.482L67.7412 217.501C67.7883 217.721 67.821 217.941 67.8397 218.16C67.9486 218.648 68.0553 219.107 68.1583 219.529L68.3651 220.376L67.5344 220.419C67.0301 221.787 65.9633 222.929 64.5223 223.494L54.5524 227.402C52.3058 228.283 49.8053 226.94 49.299 224.581L49.1182 223.739C48.8917 222.683 49.3306 221.596 50.2266 220.993C52.8588 219.224 55.7027 217.807 58.6848 216.774C44.9424 201.051 45.8336 189.966 48.7196 185.824C48.8868 184.472 49.9336 183.216 51.8814 182.074C55.4298 179.992 60.6285 178.23 65.2851 176.942L57.3987 158.266L57.3926 158.252L57.3872 158.237C54.587 150.718 51.1993 140.039 48.2313 127.915C43.179 129.596 38.0229 130.77 34.5081 131.378ZM100.477 136.689C99.8834 136.318 99.3084 135.942 98.7516 135.562C98.9603 136.118 99.1723 136.675 99.3879 137.234C99.7735 137.027 100.138 136.845 100.477 136.689Z" fill="#1D1D1D" stroke="#1D1D1D" stroke-width="1.44463"/>
<path d="M63.4113 117.809C59.2927 117.132 56.5031 113.244 57.1805 109.125C57.858 105.007 61.7459 102.217 65.8645 102.894C69.9831 103.572 72.7727 107.46 72.0953 111.578C71.4178 115.697 67.5299 118.487 63.4113 117.809Z" fill="#2E53D2"/>
<path d="M63.4113 117.809C59.2927 117.132 56.5031 113.244 57.1805 109.125C53.22 109.584 43.2742 113.498 35.1751 125.486L34.3218 130.674C42.5478 129.252 59.8822 124.688 63.4113 117.809Z" fill="#2E53D2"/>
<path d="M34.3218 130.674L35.1751 125.486C34.5757 123.056 31.667 116.85 24.8274 111.463C17.9878 106.075 17.3914 103.358 17.9482 102.672L13.5198 103.276C16.4577 113.083 24.7312 132.293 34.3218 130.674Z" fill="#2E53D2"/>
<path d="M14.0237 91.4713C16.4157 90.9006 18.8028 92.4322 19.2808 94.8445L20.0496 98.7245C20.4611 100.801 19.3122 102.871 17.3323 103.62L14.0154 104.875L10.6061 97.6585C9.43065 95.1701 10.842 92.2305 13.5189 91.5918L14.0237 91.4713Z" fill="#2E53D2"/>
<path d="M89.5233 182.92C88.171 185.779 85.4372 187.54 82.4972 187.783C81.0504 187.903 79.5537 187.655 78.147 186.99C73.8819 184.972 72.0601 179.878 74.0779 175.613C76.0957 171.348 81.189 169.526 85.4542 171.544C89.7193 173.562 91.5411 178.655 89.5233 182.92Z" fill="#D292C8"/>
<path d="M78.147 186.99C73.8819 184.972 72.0601 179.878 74.0779 175.613C69.2957 176.501 58.2219 179.163 52.1844 182.704C50.206 183.864 49.4143 185.019 49.3589 186.093C49.245 188.296 52.2303 190.159 54.4234 191.033C56.8246 191.188 60.0207 191.303 63.4062 191.285C71.2935 191.24 80.2091 190.469 82.4972 187.783C81.0504 187.903 79.5537 187.655 78.147 186.99Z" fill="#D292C8"/>
<path d="M54.4234 191.033C52.2303 190.159 49.245 188.296 49.3589 186.093C46.4895 189.946 45.1104 202.113 62.549 219.96L67.3941 219.707C66.1569 214.639 64.4172 204.486 64.9473 201.828C65.4102 199.508 64.3415 193.908 63.4062 191.285C60.0207 191.303 56.8246 191.188 54.4234 191.033Z" fill="#D292C8"/>
<path d="M49.7612 223.594C49.5966 222.828 49.9155 222.038 50.5663 221.6C54.6978 218.823 59.361 216.933 64.2607 216.051L66.5383 215.641L67.2643 219.024C67.5613 220.408 66.8118 221.803 65.4938 222.32L53.8957 226.867C52.2367 227.517 50.3902 226.525 50.0163 224.783L49.7612 223.594Z" fill="#D292C8"/>
<path d="M64.1373 172.523C79.9628 169.048 88.9907 166.009 105.911 154.883L112.83 171.268C114.015 174.075 113.097 177.344 110.568 179.045C98.2178 187.351 89.8728 190.615 78.1005 192.848C75.1651 193.405 72.2689 191.78 71.1066 189.028L64.1373 172.523Z" fill="#EBB9E3"/>
<path d="M45.9158 45.7467C34.2821 78.3381 49.126 134.157 58.0021 157.993C75.9927 156.673 93.3474 145.683 99.7759 140.353C81.364 104.184 84.3329 70.2332 88.8169 54.6668L80.8138 6.75568L45.9158 45.7467Z" fill="#EEDAB3"/>
<path fill-rule="evenodd" clip-rule="evenodd" d="M45.9154 45.7464C34.2817 78.3377 49.1256 134.157 58.0017 157.992C62.3501 157.673 66.6614 156.79 70.7902 155.557C77.2914 153.617 83.3402 150.812 88.3694 147.989C78.2913 122.881 70.8312 82.7913 75.3597 60.4966L67.2736 45.6446L57.4757 58.2612L46.1577 45.4756L45.9154 45.7464Z" fill="#8199F0"/>
<path d="M84.4072 44.8299L75.3597 60.4966C70.8312 82.7913 78.2913 122.881 88.3694 147.989C93.3605 145.186 97.3474 142.366 99.7755 140.352C84.9141 103.469 85.1634 73.1644 88.8167 54.6664L84.4072 44.8299Z" fill="#8199F0"/>
<path d="M84.4072 44.8299L75.3597 60.4966C70.8312 82.7913 78.2913 122.881 88.3694 147.989C93.3605 145.186 97.3474 142.366 99.7755 140.352C84.9141 103.469 85.1634 73.1644 88.8167 54.6664L84.4072 44.8299Z" fill="#2E53D2"/>
<path fill-rule="evenodd" clip-rule="evenodd" d="M57.4757 58.2612C50.7966 81.7269 59.3468 129.591 70.7902 155.557C77.2914 153.617 83.3402 150.812 88.3694 147.989C78.2913 122.881 70.8312 82.7913 75.3597 60.4966L67.2736 45.6446L57.4757 58.2612Z" fill="#5372E1"/>
<path d="M58.0018 157.993C73.8273 154.518 82.8552 151.479 99.7757 140.353L108.723 161.543C92.0855 173.371 82.972 176.654 66.9496 179.183L58.0018 157.993Z" fill="#D9D9D9"/>
<path d="M63.1991 170.534C74.618 171.95 89.7658 164.13 97.2746 159.188C98.1022 158.643 99.2274 158.947 99.6451 159.846C99.9784 160.562 99.7298 161.419 99.0623 161.843C81.7691 172.815 68.9557 174.553 64.6407 174.024L63.1991 170.534Z" fill="#AEAEAE"/>
<path d="M60.3745 164.071C71.7892 165.486 85.9894 157.328 93.3681 152.338C94.1887 151.783 95.3136 152.086 95.7313 152.984C96.0646 153.701 95.8154 154.558 95.1479 154.982C77.8963 165.927 66.0136 167.059 61.6987 166.53L60.3745 164.071Z" fill="#AEAEAE"/>
<path d="M107.969 182.604C107.018 185.619 104.549 187.735 101.669 188.376C100.252 188.691 98.7356 188.649 97.2516 188.181C92.7518 186.761 90.2548 181.963 91.6744 177.463C93.094 172.963 97.8925 170.466 102.392 171.886C106.892 173.305 109.389 178.104 107.969 182.604Z" fill="#F6CAEF"/>
<path d="M97.2516 188.181C92.7518 186.761 90.2548 181.963 91.6744 177.463C87.0572 178.992 76.4477 183.134 70.9474 187.463C69.1451 188.881 68.5176 190.133 68.6086 191.204C68.7951 193.402 72.0058 194.842 74.2974 195.411C76.6974 195.238 79.8795 194.918 83.231 194.439C91.0392 193.323 99.7673 191.348 101.669 188.376C100.252 188.691 98.7356 188.649 97.2516 188.181Z" fill="#F6CAEF"/>
<path d="M74.2974 195.411C72.0058 194.842 68.7951 193.402 68.6086 191.204C66.2893 195.411 66.5762 207.653 86.2781 222.964L91.0439 222.056C89.1295 217.203 86.0263 207.38 86.1905 204.675C86.3338 202.314 84.5141 196.911 83.231 194.439C79.8795 194.918 76.6974 195.238 74.2974 195.411Z" fill="#F6CAEF"/>
<path d="M75.4605 231.129C75.1951 230.391 75.4058 229.566 75.9924 229.046C79.7164 225.742 84.0859 223.247 88.8242 221.719L91.0267 221.009L92.1974 224.265C92.6765 225.597 92.1198 227.08 90.8826 227.768L79.9946 233.821C78.4372 234.687 76.4749 233.95 75.8719 232.273L75.4605 231.129Z" fill="#F6CAEF"/>
<path d="M82.7357 18.2682L73.173 15.2921L80.8128 6.75629L82.7357 18.2682Z" fill="#2E52D2"/>
<path d="M43.1978 88.7581C47.8113 89.0966 51.7636 84.7196 52.1708 79.1702C52.5781 73.6208 49.307 68.7137 44.6935 68.3751C40.08 68.0366 36.1276 72.4136 35.7204 77.9631C35.3132 83.5125 38.5842 88.4196 43.1978 88.7581Z" fill="url(#paint4_radial)" stroke="#1D1D1D" stroke-width="0.722313"/>
<path d="M62.6891 90.1185C67.3026 90.4571 71.2549 86.0801 71.6622 80.5306C72.0694 74.9812 68.7983 70.0741 64.1848 69.7356C59.5713 69.397 55.6189 73.774 55.2117 79.3235C54.8045 84.8729 58.0756 89.78 62.6891 90.1185Z" fill="url(#paint5_radial)" stroke="#1D1D1D" stroke-width="0.722313"/>
<circle cx="64.7672" cy="84.3223" r="4.14878" transform="rotate(-15.6618 64.7672 84.3223)" fill="#636363"/>
<circle cx="41.5084" cy="81.7536" r="4.14878" transform="rotate(-15.6618 41.5084 81.7536)" fill="#636363"/>
<path d="M118.2 133.47C116.308 135.378 113.619 136.017 111.194 135.38C110 135.067 108.871 134.445 107.931 133.514C105.083 130.69 105.064 126.093 107.887 123.245C110.711 120.397 115.308 120.377 118.156 123.201C121.004 126.024 121.024 130.622 118.2 133.47Z" fill="#F6CAEF"/>
<path d="M107.931 133.514C105.083 130.69 105.064 126.093 107.887 123.245C103.803 122.604 94.1749 121.605 88.3343 122.736C86.4205 123.107 85.4594 123.809 85.1113 124.654C84.397 126.387 86.2629 128.724 87.7733 130.046C89.654 130.849 92.1831 131.845 94.902 132.787C101.236 134.983 108.6 136.886 111.194 135.38C110 135.067 108.871 134.445 107.931 133.514Z" fill="#F6CAEF"/>
<path d="M87.7733 130.046C86.2629 128.724 84.397 126.387 85.1113 124.654C81.7219 126.93 77.1757 136.292 86.1055 155.528L90.0602 156.696C90.502 152.284 91.9789 143.654 93.1553 141.674C94.1824 139.945 94.9096 135.155 94.902 132.787C92.1831 131.845 89.654 130.849 87.7733 130.046Z" fill="#F6CAEF"/>
<path d="M74.2763 146.531C74.8269 145.972 75.6621 145.805 76.3851 146.109C80.9748 148.037 85.1141 150.898 88.5409 154.509L90.1338 156.188L87.7049 158.652C86.711 159.66 85.1332 159.799 83.9778 158.981L73.8108 151.783C72.3564 150.753 72.1718 148.665 73.4228 147.396L74.2763 146.531Z" fill="#F6CAEF"/>
<path d="M92.5564 109.145C92.145 113.299 88.4443 116.333 84.2907 115.921C80.1371 115.51 77.1034 111.809 77.5148 107.656C77.9262 103.502 81.6269 100.468 85.7806 100.88C89.9342 101.291 92.9678 104.992 92.5564 109.145Z" fill="#8199F0"/>
<path d="M92.5564 109.145C92.145 113.299 88.4443 116.333 84.2907 115.921C85.0028 119.844 89.5479 129.518 102.032 136.83L107.263 137.348C105.316 129.231 99.6478 112.225 92.5564 109.145Z" fill="#8199F0"/>
<path d="M107.263 137.348L102.032 136.83C99.6455 137.584 93.6391 140.886 88.7022 148.057C83.7653 155.229 81.0915 155.999 80.3717 155.487L81.2586 159.868C90.857 156.306 109.496 146.815 107.263 137.348Z" fill="#8199F0"/>
<path d="M69.4465 160.123C68.7233 157.772 70.0984 155.292 72.475 154.66L76.2975 153.643C78.3433 153.099 80.4828 154.113 81.3577 156.04L82.8235 159.27L75.8405 163.136C73.4328 164.469 70.4086 163.249 69.5992 160.619L69.4465 160.123Z" fill="#8199F0"/>
<rect x="89" y="96" width="1" height="2" fill="#1D1D1D"/>
</g>
<defs>
<radialGradient id="paint0_radial" cx="0" cy="0" r="1" gradientUnits="userSpaceOnUse" gradientTransform="translate(102.88 58.7159) rotate(67.8732) scale(13.129 10.5032)">
<stop stop-color="white"/>
<stop offset="1" stop-color="#E7E7E7"/>
</radialGradient>
<radialGradient id="paint1_radial" cx="0" cy="0" r="1" gradientUnits="userSpaceOnUse" gradientTransform="translate(123.202 69.3912) rotate(67.8732) scale(13.129 10.5032)">
<stop stop-color="white"/>
<stop offset="1" stop-color="#E7E7E7"/>
</radialGradient>
<radialGradient id="paint2_radial" cx="0" cy="0" r="1" gradientUnits="userSpaceOnUse" gradientTransform="translate(102.88 58.7154) rotate(67.8732) scale(13.129 10.5032)">
<stop stop-color="white"/>
<stop offset="1" stop-color="#E7E7E7"/>
</radialGradient>
<radialGradient id="paint3_radial" cx="0" cy="0" r="1" gradientUnits="userSpaceOnUse" gradientTransform="translate(123.202 69.3911) rotate(67.8732) scale(13.129 10.5032)">
<stop stop-color="white"/>
<stop offset="1" stop-color="#E7E7E7"/>
</radialGradient>
<radialGradient id="paint4_radial" cx="0" cy="0" r="1" gradientUnits="userSpaceOnUse" gradientTransform="translate(40.3802 77.7341) rotate(45.0468) scale(15.4473 12.3578)">
<stop stop-color="white"/>
<stop offset="1" stop-color="#E7E7E7"/>
</radialGradient>
<radialGradient id="paint5_radial" cx="0" cy="0" r="1" gradientUnits="userSpaceOnUse" gradientTransform="translate(59.8716 79.0945) rotate(45.0468) scale(15.4473 12.3578)">
<stop stop-color="white"/>
<stop offset="1" stop-color="#E7E7E7"/>
</radialGradient>
<clipPath id="clip0">
<rect width="176" height="240" fill="white"/>
</clipPath>
</defs>
</svg>
