<svg width="583" height="71" viewBox="0 0 583 71" fill="none" xmlns="http://www.w3.org/2000/svg">
<g filter="url(#filter0_d)">
<path d="M128.786 63.2217C128.07 63.1978 127.423 62.7853 127.099 62.1455L117.081 42.344L115.51 42.2916L114.891 60.7927C114.855 61.8768 113.946 62.7264 112.862 62.6902L101.319 62.3049C100.235 62.2687 99.3858 61.3605 99.4221 60.2763L101.215 6.72745L125.635 7.54261C130.085 7.69113 133.827 8.60101 136.863 10.2722C139.954 11.8929 142.238 14.0886 143.718 16.8591C145.197 19.6296 145.88 22.7137 145.766 26.1113C145.637 29.9793 144.451 33.315 142.208 36.1183C139.968 38.8693 136.813 40.7525 132.743 41.7679L143.029 60.7379C143.753 62.0722 142.754 63.688 141.237 63.6373L128.786 63.2217ZM115.857 31.9419L123.473 32.1961C127.766 32.3394 129.977 30.477 130.106 26.609C130.168 24.7795 129.666 23.3237 128.602 22.2416C127.59 21.1612 126.011 20.5852 123.864 20.5135L116.248 20.2593L115.857 31.9419Z" fill="url(#paint0_linear)"/>
<path d="M101.256 5.50055L100.029 5.4596L99.9879 6.68649L98.1952 60.2354C98.1362 61.9971 99.5166 63.473 101.278 63.5318L112.821 63.9171C114.583 63.9759 116.059 62.5954 116.118 60.8336L116.673 44.2569L126.004 62.6998C126.53 63.7394 127.581 64.4098 128.745 64.4486L141.196 64.8642C143.661 64.9465 145.284 62.3209 144.108 60.1527L134.553 42.5306C138.127 41.3921 141.017 39.5241 143.16 36.8935L143.16 36.8935L143.167 36.8851C145.588 33.8586 146.856 30.2629 146.993 26.1522C147.114 22.5574 146.39 19.257 144.801 16.2808C143.194 13.2726 140.722 10.9122 137.445 9.19084C134.2 7.40768 130.26 6.46873 125.676 6.31571L101.256 5.50055ZM127.706 23.0808L127.716 23.0917L127.727 23.1024C128.507 23.8963 128.932 25 128.879 26.568C128.822 28.278 128.318 29.3297 127.56 29.968C126.777 30.6273 125.501 31.0356 123.514 30.9692L117.125 30.7559L117.434 21.5272L123.823 21.7404C125.791 21.8061 127 22.3269 127.706 23.0808Z" [attr.stroke]="strokeColor" stroke-width="2.45517"/>
</g>
<g filter="url(#filter1_d)">
<path d="M180.501 53.9538H160.781L158.163 61.864C157.897 62.6681 157.145 63.211 156.298 63.211H144.27C142.903 63.211 141.955 61.8508 142.426 60.5687L161.329 9.18939C161.614 8.4168 162.35 7.90344 163.173 7.90344H178.265C179.089 7.90344 179.825 8.41791 180.109 9.1917L198.939 60.571C199.409 61.8527 198.46 63.211 197.095 63.211H184.984C184.137 63.211 183.385 62.6681 183.119 61.864L180.501 53.9538ZM176.651 42.3432L170.68 24.2996L164.631 42.3432H176.651Z" fill="url(#paint1_linear)"/>
<path d="M159.328 62.2498L161.668 55.1814H179.614L181.954 62.2498C182.386 63.5564 183.608 64.4386 184.984 64.4386H197.095C199.313 64.4386 200.855 62.2314 200.092 60.1486L181.262 8.76927C180.801 7.51187 179.604 6.67586 178.265 6.67586H163.173C161.835 6.67586 160.639 7.51007 160.177 8.76552L141.274 60.1448C140.508 62.2283 142.05 64.4386 144.27 64.4386H156.298C157.675 64.4386 158.896 63.5564 159.328 62.2498ZM166.337 41.1156L170.673 28.184L174.952 41.1156H166.337Z" [attr.stroke]="strokeColor" stroke-width="2.45517"/>
</g>
<g filter="url(#filter2_d)">
<path d="M285.583 47.8312C285.583 48.9159 286.462 49.7953 287.547 49.7953H300.982C302.066 49.7953 302.946 50.6747 302.946 51.7594V59.5203C302.946 60.605 302.066 61.4844 300.982 61.4844H272.07C270.985 61.4844 270.105 60.605 270.105 59.5203V7.90564C270.105 6.82088 270.985 5.9415 272.07 5.9415H283.619C284.703 5.9415 285.583 6.82087 285.583 7.90563V47.8312Z" fill="url(#paint2_linear)"/>
<path d="M287.547 48.5677C287.14 48.5677 286.81 48.2379 286.81 47.8312V7.90563C286.81 6.1429 285.381 4.71391 283.619 4.71391H272.07C270.307 4.71391 268.878 6.1429 268.878 7.90564V59.5203C268.878 61.283 270.307 62.712 272.07 62.712H300.982C302.744 62.712 304.173 61.283 304.173 59.5203V51.7594C304.173 49.9967 302.744 48.5677 300.982 48.5677H287.547Z" [attr.stroke]="strokeColor" stroke-width="2.45517"/>
</g>
<g filter="url(#filter3_d)">
<path d="M264.5 3.21792C265.76 3.1065 266.795 4.19807 266.618 5.45058L259.177 57.925C259.049 58.8287 258.315 59.5249 257.406 59.6053L241.429 61.0179C240.514 61.0988 239.664 60.5343 239.385 59.6589L229.166 27.6852L224.732 60.9544C224.611 61.8653 223.874 62.57 222.959 62.651L206.982 64.0636C206.072 64.144 205.227 63.5874 204.942 62.7202L188.384 12.3677C187.988 11.1658 188.816 9.9095 190.076 9.79808L202.536 8.6964C203.496 8.61154 204.376 9.23534 204.613 10.1691L213.646 45.6752L218.626 8.81013C218.749 7.90083 219.485 7.19791 220.399 7.11709L234.102 5.90555C235.014 5.82486 235.862 6.3858 236.144 7.25747L247.61 42.6722L250.254 6.13383C250.323 5.1729 251.08 4.40445 252.039 4.3196L264.5 3.21792Z" fill="url(#paint3_linear)"/>
<path d="M267.833 5.62321C268.122 3.58788 266.439 1.81407 264.391 1.99513L251.931 3.09681C250.371 3.2347 249.142 4.48343 249.029 6.04494L246.84 36.3078L237.312 6.87963C236.853 5.46317 235.476 4.55164 233.993 4.68276L220.29 5.89431C218.805 6.02563 217.609 7.16787 217.409 8.64549L213.276 39.2424L205.803 9.86679C205.417 8.3494 203.988 7.33572 202.428 7.47361L189.968 8.57529C187.92 8.75635 186.575 10.7978 187.218 12.7509L203.776 63.1034C204.24 64.5126 205.613 65.417 207.09 65.2864L223.067 63.8738C224.554 63.7422 225.752 62.597 225.949 61.1169L229.661 33.2656L238.215 60.0324C238.67 61.4548 240.05 62.3722 241.538 62.2407L257.515 60.8281C258.992 60.6975 260.185 59.5662 260.393 58.0977L267.833 5.62321Z" [attr.stroke]="strokeColor" stroke-width="2.45517"/>
</g>
<g filter="url(#filter4_d)">
<path d="M74.4985 7.21744C79.2648 7.21744 83.5074 8.10654 87.2261 9.88475C90.9973 11.6107 94.0613 14.0949 96.4183 17.3375C98.3337 19.9302 99.7476 22.8682 100.66 26.1517C100.991 27.3443 100.058 28.4775 98.8201 28.4775H86.2709C85.4711 28.4775 84.7654 27.9843 84.3866 27.2798C83.5122 25.6532 82.3113 24.3527 80.7838 23.3782C78.8982 22.123 76.7246 21.4954 74.2628 21.4954C70.8583 21.4954 68.1085 22.7768 66.0135 25.3395C63.9184 27.8499 62.8709 31.2233 62.8709 35.4596C62.8709 39.6959 63.9184 43.0954 66.0135 45.6581C68.1085 48.2209 70.8583 49.5022 74.2628 49.5022C76.7246 49.5022 78.8982 48.8746 80.7838 47.6194C82.312 46.6021 83.5133 45.2756 84.3878 43.6399C84.765 42.9346 85.4711 42.4417 86.2709 42.4417H98.8294C100.064 42.4417 100.997 43.5698 100.672 44.7611C99.1981 50.1731 96.3921 54.5777 92.2543 57.9749C87.5928 61.7928 81.6742 63.7018 74.4985 63.7018C68.999 63.7018 64.1803 62.525 60.0425 60.1715C55.9571 57.7657 52.7883 54.4184 50.5361 50.1298C48.3362 45.8412 47.2363 40.9511 47.2363 35.4596C47.2363 29.9681 48.3362 25.078 50.5361 20.7894C52.7883 16.5007 55.9571 13.1797 60.0425 10.8262C64.1803 8.42034 68.999 7.21744 74.4985 7.21744Z" fill="url(#paint4_linear)"/>
<path d="M80.1035 24.4001L80.1135 24.4067L80.1236 24.4131C81.4707 25.2726 82.5283 26.4155 83.3054 27.8611C83.8611 28.8949 84.9462 29.7051 86.2709 29.7051H98.8201C100.799 29.7051 102.41 27.8647 101.843 25.823C100.893 22.4051 99.4165 19.3309 97.4084 16.6118C94.9253 13.197 91.6968 10.5825 87.7464 8.77281C83.8406 6.90707 79.4156 5.98985 74.4985 5.98985C68.8159 5.98985 63.7787 7.23438 59.4276 9.7637C55.1359 12.2365 51.8061 15.7308 49.4492 20.2186L49.4492 20.2186L49.4438 20.2291C47.1433 24.7139 46.0087 29.8006 46.0087 35.4596C46.0087 41.1186 47.1433 46.2053 49.4438 50.6901L49.4438 50.6901L49.4492 50.7006C51.8053 55.1869 55.1328 58.7049 59.4196 61.2293L59.4275 61.234L59.4356 61.2385C63.7854 63.7126 68.8196 64.9293 74.4985 64.9293C81.9013 64.9293 88.1112 62.955 93.0322 58.9246L93.0333 58.9236C97.3776 55.3569 100.319 50.729 101.857 45.0838C102.412 43.046 100.804 41.2141 98.8294 41.2141H86.2709C84.9468 41.2141 83.86 42.0236 83.3053 43.0611C82.5252 44.5201 81.4613 45.6937 80.1035 46.5975C78.437 47.7069 76.5044 48.2746 74.2628 48.2746C71.2146 48.2746 68.8182 47.1494 66.9639 44.8812C65.0932 42.593 64.0984 39.4934 64.0984 35.4596C64.0984 31.4244 65.0937 28.3574 66.956 26.126L66.956 26.1261L66.9639 26.1165C68.8182 23.8482 71.2146 22.723 74.2628 22.723C76.5044 22.723 78.437 23.2907 80.1035 24.4001Z" [attr.stroke]="strokeColor" stroke-width="2.45517"/>
</g>
<g filter="url(#filter5_d)">
<path d="M49.4284 44.6046C49.7844 47.6698 49.3267 50.5396 48.0555 53.214C46.7843 55.8885 44.7243 58.1278 41.8757 59.9319C39.027 61.736 35.4955 62.8821 31.2812 63.3701C24.8817 64.1112 19.4228 63.1901 14.9046 60.6069C10.998 58.3422 8.40906 54.9178 7.1377 50.3338C6.83452 49.2407 7.62618 48.1818 8.75301 48.0513L21.1842 46.6117C22.2005 46.494 23.1038 47.1926 23.4958 48.1378C23.9195 49.1593 24.5129 49.9406 25.276 50.4816C26.4252 51.2962 27.7542 51.6162 29.263 51.4414C30.6158 51.2848 31.6171 50.8266 32.2671 50.0669C32.969 49.3011 33.2476 48.2948 33.1028 47.048C32.9097 45.3855 32.0075 44.2 30.3961 43.4916C28.7787 42.7312 26.2677 41.9953 22.8632 41.2838C19.2386 40.4926 16.2152 39.6581 13.7932 38.7802C11.4233 37.8964 9.2731 36.4079 7.3427 34.3148C5.46434 32.2157 4.31699 29.3738 3.90066 25.7891C3.50242 22.3602 4.04599 19.3225 5.53136 16.6759C7.0107 13.9774 9.2128 11.8269 12.1377 10.2246C15.0565 8.57033 18.4669 7.51725 22.3691 7.06538C28.7165 6.33033 33.9382 7.25252 38.0342 9.83194C41.6301 12.0209 44.0388 15.2799 45.2603 19.6088C45.5691 20.7029 44.777 21.7663 43.6478 21.8971L30.9964 23.3621C30.0098 23.4764 29.1265 22.8186 28.7128 21.9155C28.3204 21.0592 27.8113 20.3986 27.1855 19.9336C26.2565 19.1988 25.0896 18.9127 23.6848 19.0754C22.4882 19.2139 21.5879 19.6341 20.9839 20.3358C20.38 21.0376 20.1504 22.0119 20.2952 23.2587C20.4762 24.8173 21.3464 25.9538 22.9058 26.6683C24.5172 27.3768 26.9731 28.0927 30.2735 28.8162C33.9042 29.6594 36.9336 30.5459 39.3616 31.4757C41.7896 32.4055 43.9688 33.9169 45.8992 36.01C47.8296 38.1031 49.006 40.968 49.4284 44.6046Z" fill="url(#paint5_linear)"/>
<path d="M49.4284 44.6046C49.7844 47.6698 49.3267 50.5396 48.0555 53.214C46.7843 55.8885 44.7243 58.1278 41.8757 59.9319C39.027 61.736 35.4955 62.8821 31.2812 63.3701C24.8817 64.1112 19.4228 63.1901 14.9046 60.6069C10.998 58.3422 8.40906 54.9178 7.1377 50.3338C6.83452 49.2407 7.62618 48.1818 8.75301 48.0513L21.1842 46.6117C22.2005 46.494 23.1038 47.1926 23.4958 48.1378C23.9195 49.1593 24.5129 49.9406 25.276 50.4816C26.4252 51.2962 27.7542 51.6162 29.263 51.4414C30.6158 51.2848 31.6171 50.8266 32.2671 50.0669C32.969 49.3011 33.2476 48.2948 33.1028 47.048C32.9097 45.3855 32.0075 44.2 30.3961 43.4916C28.7787 42.7312 26.2677 41.9953 22.8632 41.2838C19.2386 40.4926 16.2152 39.6581 13.7932 38.7802C11.4233 37.8964 9.2731 36.4079 7.3427 34.3148C5.46434 32.2157 4.31699 29.3738 3.90066 25.7891C3.50242 22.3602 4.04599 19.3225 5.53136 16.6759C7.0107 13.9774 9.2128 11.8269 12.1377 10.2246C15.0565 8.57033 18.4669 7.51725 22.3691 7.06538C28.7165 6.33033 33.9382 7.25252 38.0342 9.83194C41.6301 12.0209 44.0388 15.2799 45.2603 19.6088C45.5691 20.7029 44.777 21.7663 43.6478 21.8971L30.9964 23.3621C30.0098 23.4764 29.1265 22.8186 28.7128 21.9155C28.3204 21.0592 27.8113 20.3986 27.1855 19.9336C26.2565 19.1988 25.0896 18.9127 23.6848 19.0754C22.4882 19.2139 21.5879 19.6341 20.9839 20.3358C20.38 21.0376 20.1504 22.0119 20.2952 23.2587C20.4762 24.8173 21.3464 25.9538 22.9058 26.6683C24.5172 27.3768 26.9731 28.0927 30.2735 28.8162C33.9042 29.6594 36.9336 30.5459 39.3616 31.4757C41.7896 32.4055 43.9688 33.9169 45.8992 36.01C47.8296 38.1031 49.006 40.968 49.4284 44.6046Z" [attr.stroke]="strokeColor" stroke-width="2.45517"/>
</g>
<g filter="url(#filter6_d)">
<path d="M355.354 32.9328C358.654 33.7173 361.247 35.3386 363.132 37.7967C365.07 40.2548 366.039 43.1052 366.039 46.3478C366.039 51.1595 364.442 54.8989 361.247 57.5662C358.052 60.1813 353.469 61.4888 347.498 61.4888H321.964C320.879 61.4888 320 60.6094 320 59.5246V7.91C320 6.82524 320.879 5.94586 321.964 5.94586H346.869C352.474 5.94586 356.847 7.17492 359.99 9.63303C363.185 12.0911 364.782 15.6476 364.782 20.3023C364.782 23.5972 363.918 26.3691 362.19 28.618C360.461 30.8146 358.183 32.2529 355.354 32.9328ZM335.477 28.1473H343.255C347.131 28.1473 349.069 26.526 349.069 23.2834C349.069 19.9362 347.105 18.2626 343.177 18.2626H335.477V28.1473ZM344.198 49.0936C348.231 49.0936 350.248 47.42 350.248 44.0728C350.248 40.6209 348.231 38.895 344.198 38.895H335.477V49.0936H344.198Z" fill="url(#paint6_linear)"/>
<path d="M362.024 58.5162L362.024 58.5163L362.034 58.5086C365.553 55.5703 367.267 51.46 367.267 46.3478C367.267 42.843 366.213 39.7246 364.102 37.0432C362.721 35.2458 360.999 33.8641 358.956 32.8926C360.58 32.0379 361.983 30.8657 363.154 29.3771L363.154 29.3772L363.163 29.3661C365.082 26.8691 366.01 23.8222 366.01 20.3023C366.01 15.335 364.286 11.3913 360.742 8.66298C357.312 5.98154 352.637 4.71828 346.869 4.71828H321.964C320.201 4.71828 318.772 6.14727 318.772 7.91V59.5246C318.772 61.2874 320.201 62.7164 321.964 62.7164H347.498C353.629 62.7164 358.531 61.3758 362.024 58.5162ZM343.255 26.9197H336.705V19.4902H343.177C344.995 19.4902 346.13 19.8817 346.8 20.4522C347.432 20.9905 347.842 21.855 347.842 23.2834C347.842 24.6523 347.443 25.4753 346.828 25.9898C346.171 26.5394 345.052 26.9197 343.255 26.9197ZM349.02 44.0728C349.02 45.4907 348.604 46.3521 347.951 46.8938C347.255 47.4718 346.075 47.866 344.198 47.866H336.705V40.1226H344.198C346.068 40.1226 347.242 40.5268 347.937 41.1221C348.596 41.6861 349.02 42.5903 349.02 44.0728Z" [attr.stroke]="strokeColor" stroke-width="2.45517"/>
</g>
<g filter="url(#filter7_d)">
<path d="M396.745 61.6951C396.028 61.6717 395.382 61.2596 395.058 60.6201L385.026 40.8251L383.455 40.7737L382.848 59.2752C382.813 60.3593 381.905 61.2095 380.821 61.174L369.278 60.7962C368.194 60.7608 367.344 59.8531 367.379 58.7689L369.137 5.2189L393.557 6.01809C398.007 6.16371 401.75 7.07114 404.788 8.74038C407.879 10.3591 410.165 12.5532 411.646 15.3227C413.128 18.0923 413.812 21.1759 413.701 24.5736C413.574 28.4417 412.39 31.7782 410.149 34.5829C407.91 37.3354 404.757 39.2206 400.688 40.2387L410.987 59.202C411.711 60.5358 410.713 62.1523 409.196 62.1026L396.745 61.6951ZM383.795 30.4238L391.412 30.673C395.705 30.8135 397.914 28.9497 398.041 25.0815C398.101 23.252 397.599 21.7965 396.534 20.7151C395.521 19.6354 393.942 19.0604 391.795 18.9902L384.179 18.7409L383.795 30.4238Z" fill="url(#paint7_linear)"/>
<path d="M369.177 3.99198L367.95 3.95183L367.91 5.17875L366.152 58.7288C366.094 60.4906 367.476 61.9655 369.237 62.0232L380.78 62.4009C382.542 62.4586 384.017 61.0771 384.075 59.3153L384.619 42.7383L393.962 61.1751C394.489 62.2143 395.54 62.884 396.705 62.9221L409.156 63.3295C411.621 63.4102 413.242 60.7835 412.065 58.6161L402.499 41.0003C406.072 39.8594 408.961 37.9895 411.102 35.3575L411.102 35.3575L411.108 35.3491C413.528 32.321 414.793 28.7245 414.928 24.6138C415.046 21.0189 414.32 17.7189 412.729 14.7437C411.12 11.7366 408.647 9.37782 405.368 7.6586C402.123 5.87756 398.182 4.94119 393.598 4.79117L369.177 3.99198ZM395.638 21.5549L395.649 21.5659L395.659 21.5765C396.441 22.3699 396.866 23.4734 396.814 25.0414C396.758 26.7514 396.255 27.8034 395.497 28.4422C394.715 29.102 393.439 29.5111 391.452 29.4461L385.062 29.237L385.365 20.008L391.755 20.2171C393.723 20.2815 394.932 20.8015 395.638 21.5549Z" [attr.stroke]="strokeColor" stroke-width="2.45517"/>
</g>
<g filter="url(#filter8_d)">
<path d="M544.898 7.83946C546.161 7.90241 547.037 9.12602 546.688 10.3422L532.081 61.2933C531.829 62.1707 531.006 62.7594 530.094 62.7139L514.075 61.9158C513.157 61.8701 512.394 61.1941 512.237 60.2886L506.526 27.2142L497.546 59.5567C497.3 60.4421 496.473 61.0389 495.555 60.9931L479.536 60.195C478.624 60.1496 477.864 59.4821 477.701 58.584L468.245 6.43408C468.02 5.1893 469.012 4.05875 470.276 4.12171L482.77 4.74415C483.732 4.79209 484.517 5.53094 484.624 6.48849L488.672 42.8984L498.69 7.06952C498.937 6.18577 499.763 5.59079 500.679 5.63645L514.419 6.32097C515.334 6.36655 516.096 7.03868 516.255 7.94086L522.727 44.595L530.386 8.76841C530.587 7.82619 531.442 7.16907 532.404 7.21701L544.898 7.83946Z" fill="url(#paint8_linear)"/>
<path d="M547.868 10.6803C548.435 8.70406 547.012 6.7157 544.959 6.6134L532.466 5.99096C530.902 5.91305 529.512 6.98087 529.185 8.51197L522.842 38.1853L517.464 7.72724C517.205 6.2612 515.967 5.16899 514.48 5.09491L500.741 4.41039C499.251 4.33619 497.909 5.30304 497.508 6.73914L489.193 36.476L485.844 6.35265C485.671 4.79663 484.394 3.596 482.831 3.51809L470.337 2.89565C468.284 2.79335 466.671 4.63049 467.037 6.65326L476.493 58.8032C476.758 60.2626 477.993 61.3473 479.474 61.4211L495.494 62.2192C496.985 62.2935 498.329 61.3238 498.729 59.8849L506.246 32.8095L511.028 60.4977C511.282 61.9691 512.522 63.0676 514.014 63.1419L530.033 63.94C531.515 64.0138 532.852 63.0573 533.261 61.6314L547.868 10.6803Z" [attr.stroke]="strokeColor" stroke-width="2.45517"/>
</g>
<g filter="url(#filter9_d)">
<path d="M561.038 47.8355C561.038 48.9203 561.917 49.7997 563.002 49.7997H576.437C577.522 49.7997 578.401 50.679 578.401 51.7638V59.5246C578.401 60.6094 577.522 61.4888 576.437 61.4888H547.525C546.44 61.4888 545.561 60.6094 545.561 59.5246V7.91C545.561 6.82524 546.44 5.94586 547.525 5.94586H559.074C560.159 5.94586 561.038 6.82524 561.038 7.91V47.8355Z" fill="url(#paint9_linear)"/>
<path d="M563.002 48.5721C562.595 48.5721 562.266 48.2423 562.266 47.8355V7.91C562.266 6.14726 560.837 4.71828 559.074 4.71828H547.525C545.762 4.71828 544.333 6.14727 544.333 7.91V59.5246C544.333 61.2874 545.762 62.7164 547.525 62.7164H576.437C578.199 62.7164 579.628 61.2874 579.628 59.5246V51.7638C579.628 50.0011 578.199 48.5721 576.437 48.5721H563.002Z" [attr.stroke]="strokeColor" stroke-width="2.45517"/>
</g>
<g filter="url(#filter10_d)">
<path d="M453.504 52.2308H433.784L431.166 60.141C430.9 60.945 430.148 61.4879 429.301 61.4879H417.273C415.906 61.4879 414.957 60.1278 415.429 58.8456L434.332 7.46634C434.617 6.69375 435.352 6.18039 436.176 6.18039H451.268C452.092 6.18039 452.828 6.69486 453.112 7.46864L471.942 58.8479C472.412 60.1297 471.463 61.4879 470.098 61.4879H457.987C457.14 61.4879 456.388 60.945 456.122 60.141L453.504 52.2308ZM449.654 40.6201L443.683 22.5765L437.634 40.6201H449.654Z" fill="url(#paint10_linear)"/>
<path d="M432.331 60.5267L434.671 53.4584H452.617L454.957 60.5267C455.389 61.8333 456.611 62.7155 457.987 62.7155H470.098C472.316 62.7155 473.858 60.5084 473.095 58.4255L454.265 7.04622C453.804 5.78881 452.607 4.9528 451.268 4.9528H436.176C434.838 4.9528 433.642 5.78702 433.18 7.04247L414.277 58.4217C413.511 60.5053 415.052 62.7155 417.273 62.7155H429.301C430.678 62.7155 431.899 61.8333 432.331 60.5267ZM439.34 39.3925L443.676 26.461L447.955 39.3925H439.34Z" [attr.stroke]="strokeColor" stroke-width="2.45517"/>
</g>
<defs>
<filter id="filter0_d" x="95.0017" y="4.19174" width="55.1961" height="65.8303" filterUnits="userSpaceOnUse" color-interpolation-filters="sRGB">
<feFlood flood-opacity="0" result="BackgroundImageFix"/>
<feColorMatrix in="SourceAlpha" type="matrix" values="0 0 0 0 0 0 0 0 0 0 0 0 0 0 0 0 0 0 127 0"/>
<feOffset dy="1.96414"/>
<feGaussianBlur stdDeviation="0.982068"/>
<feColorMatrix type="matrix" values="0 0 0 0 0 0 0 0 0 0 0 0 0 0 0 0 0 0 0.25 0"/>
<feBlend mode="normal" in2="BackgroundImageFix" result="effect1_dropShadow"/>
<feBlend mode="normal" in="SourceGraphic" in2="effect1_dropShadow" result="shape"/>
</filter>
<filter id="filter1_d" x="137.882" y="5.44827" width="65.6001" height="64.1462" filterUnits="userSpaceOnUse" color-interpolation-filters="sRGB">
<feFlood flood-opacity="0" result="BackgroundImageFix"/>
<feColorMatrix in="SourceAlpha" type="matrix" values="0 0 0 0 0 0 0 0 0 0 0 0 0 0 0 0 0 0 127 0"/>
<feOffset dy="1.96414"/>
<feGaussianBlur stdDeviation="0.982068"/>
<feColorMatrix type="matrix" values="0 0 0 0 0 0 0 0 0 0 0 0 0 0 0 0 0 0 0.25 0"/>
<feBlend mode="normal" in2="BackgroundImageFix" result="effect1_dropShadow"/>
<feBlend mode="normal" in="SourceGraphic" in2="effect1_dropShadow" result="shape"/>
</filter>
<filter id="filter2_d" x="265.686" y="3.48633" width="41.6789" height="64.3815" filterUnits="userSpaceOnUse" color-interpolation-filters="sRGB">
<feFlood flood-opacity="0" result="BackgroundImageFix"/>
<feColorMatrix in="SourceAlpha" type="matrix" values="0 0 0 0 0 0 0 0 0 0 0 0 0 0 0 0 0 0 127 0"/>
<feOffset dy="1.96414"/>
<feGaussianBlur stdDeviation="0.982068"/>
<feColorMatrix type="matrix" values="0 0 0 0 0 0 0 0 0 0 0 0 0 0 0 0 0 0 0.25 0"/>
<feBlend mode="normal" in2="BackgroundImageFix" result="effect1_dropShadow"/>
<feBlend mode="normal" in="SourceGraphic" in2="effect1_dropShadow" result="shape"/>
</filter>
<filter id="filter3_d" x="183.863" y="0.7547" width="87.1942" height="69.7" filterUnits="userSpaceOnUse" color-interpolation-filters="sRGB">
<feFlood flood-opacity="0" result="BackgroundImageFix"/>
<feColorMatrix in="SourceAlpha" type="matrix" values="0 0 0 0 0 0 0 0 0 0 0 0 0 0 0 0 0 0 127 0"/>
<feOffset dy="1.96414"/>
<feGaussianBlur stdDeviation="0.982068"/>
<feColorMatrix type="matrix" values="0 0 0 0 0 0 0 0 0 0 0 0 0 0 0 0 0 0 0.25 0"/>
<feBlend mode="normal" in2="BackgroundImageFix" result="effect1_dropShadow"/>
<feBlend mode="normal" in="SourceGraphic" in2="effect1_dropShadow" result="shape"/>
</filter>
<filter id="filter4_d" x="42.817" y="4.76227" width="62.3453" height="65.3229" filterUnits="userSpaceOnUse" color-interpolation-filters="sRGB">
<feFlood flood-opacity="0" result="BackgroundImageFix"/>
<feColorMatrix in="SourceAlpha" type="matrix" values="0 0 0 0 0 0 0 0 0 0 0 0 0 0 0 0 0 0 127 0"/>
<feOffset dy="1.96414"/>
<feGaussianBlur stdDeviation="0.982068"/>
<feColorMatrix type="matrix" values="0 0 0 0 0 0 0 0 0 0 0 0 0 0 0 0 0 0 0.25 0"/>
<feBlend mode="normal" in2="BackgroundImageFix" result="effect1_dropShadow"/>
<feBlend mode="normal" in="SourceGraphic" in2="effect1_dropShadow" result="shape"/>
</filter>
<filter id="filter5_d" x="0.582617" y="5.59348" width="52.1543" height="63.1801" filterUnits="userSpaceOnUse" color-interpolation-filters="sRGB">
<feFlood flood-opacity="0" result="BackgroundImageFix"/>
<feColorMatrix in="SourceAlpha" type="matrix" values="0 0 0 0 0 0 0 0 0 0 0 0 0 0 0 0 0 0 127 0"/>
<feOffset dy="1.96414"/>
<feGaussianBlur stdDeviation="0.982068"/>
<feColorMatrix type="matrix" values="0 0 0 0 0 0 0 0 0 0 0 0 0 0 0 0 0 0 0.25 0"/>
<feBlend mode="normal" in2="BackgroundImageFix" result="effect1_dropShadow"/>
<feBlend mode="normal" in="SourceGraphic" in2="effect1_dropShadow" result="shape"/>
</filter>
<filter id="filter6_d" x="315.581" y="3.49069" width="54.878" height="64.3815" filterUnits="userSpaceOnUse" color-interpolation-filters="sRGB">
<feFlood flood-opacity="0" result="BackgroundImageFix"/>
<feColorMatrix in="SourceAlpha" type="matrix" values="0 0 0 0 0 0 0 0 0 0 0 0 0 0 0 0 0 0 127 0"/>
<feOffset dy="1.96414"/>
<feGaussianBlur stdDeviation="0.982068"/>
<feColorMatrix type="matrix" values="0 0 0 0 0 0 0 0 0 0 0 0 0 0 0 0 0 0 0.25 0"/>
<feBlend mode="normal" in2="BackgroundImageFix" result="effect1_dropShadow"/>
<feBlend mode="normal" in="SourceGraphic" in2="effect1_dropShadow" result="shape"/>
</filter>
<filter id="filter7_d" x="362.959" y="2.68475" width="55.1732" height="65.8025" filterUnits="userSpaceOnUse" color-interpolation-filters="sRGB">
<feFlood flood-opacity="0" result="BackgroundImageFix"/>
<feColorMatrix in="SourceAlpha" type="matrix" values="0 0 0 0 0 0 0 0 0 0 0 0 0 0 0 0 0 0 127 0"/>
<feOffset dy="1.96414"/>
<feGaussianBlur stdDeviation="0.982068"/>
<feColorMatrix type="matrix" values="0 0 0 0 0 0 0 0 0 0 0 0 0 0 0 0 0 0 0.25 0"/>
<feBlend mode="normal" in2="BackgroundImageFix" result="effect1_dropShadow"/>
<feBlend mode="normal" in="SourceGraphic" in2="effect1_dropShadow" result="shape"/>
</filter>
<filter id="filter8_d" x="463.793" y="1.66394" width="87.3926" height="67.4359" filterUnits="userSpaceOnUse" color-interpolation-filters="sRGB">
<feFlood flood-opacity="0" result="BackgroundImageFix"/>
<feColorMatrix in="SourceAlpha" type="matrix" values="0 0 0 0 0 0 0 0 0 0 0 0 0 0 0 0 0 0 127 0"/>
<feOffset dy="1.96414"/>
<feGaussianBlur stdDeviation="0.982068"/>
<feColorMatrix type="matrix" values="0 0 0 0 0 0 0 0 0 0 0 0 0 0 0 0 0 0 0.25 0"/>
<feBlend mode="normal" in2="BackgroundImageFix" result="effect1_dropShadow"/>
<feBlend mode="normal" in="SourceGraphic" in2="effect1_dropShadow" result="shape"/>
</filter>
<filter id="filter9_d" x="541.141" y="3.49069" width="41.679" height="64.3815" filterUnits="userSpaceOnUse" color-interpolation-filters="sRGB">
<feFlood flood-opacity="0" result="BackgroundImageFix"/>
<feColorMatrix in="SourceAlpha" type="matrix" values="0 0 0 0 0 0 0 0 0 0 0 0 0 0 0 0 0 0 127 0"/>
<feOffset dy="1.96414"/>
<feGaussianBlur stdDeviation="0.982068"/>
<feColorMatrix type="matrix" values="0 0 0 0 0 0 0 0 0 0 0 0 0 0 0 0 0 0 0.25 0"/>
<feBlend mode="normal" in2="BackgroundImageFix" result="effect1_dropShadow"/>
<feBlend mode="normal" in="SourceGraphic" in2="effect1_dropShadow" result="shape"/>
</filter>
<filter id="filter10_d" x="410.885" y="3.72522" width="65.6001" height="64.1462" filterUnits="userSpaceOnUse" color-interpolation-filters="sRGB">
<feFlood flood-opacity="0" result="BackgroundImageFix"/>
<feColorMatrix in="SourceAlpha" type="matrix" values="0 0 0 0 0 0 0 0 0 0 0 0 0 0 0 0 0 0 127 0"/>
<feOffset dy="1.96414"/>
<feGaussianBlur stdDeviation="0.982068"/>
<feColorMatrix type="matrix" values="0 0 0 0 0 0 0 0 0 0 0 0 0 0 0 0 0 0 0.25 0"/>
<feBlend mode="normal" in2="BackgroundImageFix" result="effect1_dropShadow"/>
<feBlend mode="normal" in="SourceGraphic" in2="effect1_dropShadow" result="shape"/>
</filter>
<linearGradient id="paint0_linear" x1="123.868" y1="7.48363" x2="122.015" y2="62.9957" gradientUnits="userSpaceOnUse">
<stop stop-color="white"/>
<stop offset="1" stop-color="#CFFCF9"/>
</linearGradient>
<linearGradient id="paint1_linear" x1="170.68" y1="7.90344" x2="170.68" y2="63.211" gradientUnits="userSpaceOnUse">
<stop stop-color="white"/>
<stop offset="1" stop-color="#CFFCF9"/>
</linearGradient>
<linearGradient id="paint2_linear" x1="286.526" y1="5.9415" x2="286.526" y2="61.4844" gradientUnits="userSpaceOnUse">
<stop stop-color="white"/>
<stop offset="1" stop-color="#CFFCF9"/>
</linearGradient>
<linearGradient id="paint3_linear" x1="227.288" y1="6.508" x2="232.18" y2="61.8357" gradientUnits="userSpaceOnUse">
<stop stop-color="white"/>
<stop offset="1" stop-color="#CFFCF9"/>
</linearGradient>
<linearGradient id="paint4_linear" x1="74.2236" y1="7.21744" x2="74.2236" y2="63.7018" gradientUnits="userSpaceOnUse">
<stop stop-color="white"/>
<stop offset="1" stop-color="#CFFCF9"/>
</linearGradient>
<linearGradient id="paint5_linear" x1="23.3836" y1="6.94789" x2="29.9355" y2="63.5259" gradientUnits="userSpaceOnUse">
<stop stop-color="white"/>
<stop offset="1" stop-color="#CFFCF9"/>
</linearGradient>
<linearGradient id="paint6_linear" x1="343.02" y1="5.94586" x2="343.02" y2="61.4888" gradientUnits="userSpaceOnUse">
<stop stop-color="white"/>
<stop offset="1" stop-color="#CFFCF9"/>
</linearGradient>
<linearGradient id="paint7_linear" x1="391.791" y1="5.96027" x2="389.974" y2="61.4735" gradientUnits="userSpaceOnUse">
<stop stop-color="white"/>
<stop offset="1" stop-color="#CFFCF9"/>
</linearGradient>
<linearGradient id="paint8_linear" x1="507.587" y1="5.98058" x2="504.823" y2="61.4549" gradientUnits="userSpaceOnUse">
<stop stop-color="white"/>
<stop offset="1" stop-color="#CFFCF9"/>
</linearGradient>
<linearGradient id="paint9_linear" x1="561.981" y1="5.94586" x2="561.981" y2="61.4888" gradientUnits="userSpaceOnUse">
<stop stop-color="white"/>
<stop offset="1" stop-color="#CFFCF9"/>
</linearGradient>
<linearGradient id="paint10_linear" x1="443.683" y1="6.18039" x2="443.683" y2="61.4879" gradientUnits="userSpaceOnUse">
<stop stop-color="white"/>
<stop offset="1" stop-color="#CFFCF9"/>
</linearGradient>
</defs>
</svg>
