<svg width="694" height="324" viewBox="0 0 694 324" fill="none" xmlns="http://www.w3.org/2000/svg">
<g filter="url(#filter0_d_1547_321)">
<path d="M299.205 147.82C297.745 147.772 296.427 146.931 295.768 145.626L275.365 105.24L272.167 105.133L270.905 142.872C270.831 145.08 268.981 146.81 266.774 146.736L243.267 145.95C241.059 145.877 239.329 144.027 239.403 141.819L243.054 32.6001L292.786 34.2626C301.848 34.5655 309.47 36.4212 315.653 39.8297C321.946 43.1351 326.599 47.6131 329.612 53.2636C332.625 58.9141 334.015 65.2041 333.784 72.1335C333.52 80.0224 331.104 86.8255 326.538 92.5428C321.974 98.1535 315.549 101.994 307.262 104.065L328.216 142.766C329.687 145.483 327.653 148.771 324.564 148.668L299.205 147.82ZM272.872 84.0251L288.384 84.5436C297.125 84.8358 301.628 81.0375 301.892 73.1486C302.017 69.4173 300.995 66.4482 298.828 64.2412C296.767 62.0378 293.551 60.863 289.18 60.7169L273.669 60.1984L272.872 84.0251Z" fill="url(#paint0_linear_1547_321)"/>
<path d="M243.137 30.1015L240.639 30.018L240.555 32.5166L236.904 141.736C236.784 145.323 239.595 148.329 243.183 148.449L266.69 149.235C270.278 149.355 273.284 146.544 273.404 142.956L274.534 109.14L293.537 146.754C294.608 148.873 296.748 150.24 299.121 150.319L324.481 151.167C329.499 151.335 332.805 145.991 330.414 141.576L310.946 105.618C318.227 103.296 324.113 99.4858 328.477 94.1203L328.484 94.1117L328.491 94.1031C333.421 87.9313 336.002 80.5992 336.282 72.217C336.527 64.8867 335.054 58.1566 331.818 52.0873C328.547 45.9531 323.513 41.1391 316.838 37.6282C310.23 33.9912 302.206 32.0761 292.869 31.764L243.137 30.1015ZM297.002 65.9489L297.023 65.9712L297.044 65.9929C298.635 67.6128 299.5 69.8653 299.393 73.065C299.277 76.5544 298.249 78.7007 296.705 80.0031C295.111 81.3478 292.513 82.1802 288.467 82.045L275.454 81.61L276.084 62.7805L289.097 63.2155C293.103 63.3494 295.564 64.4112 297.002 65.9489Z" stroke="#1D1D1D" stroke-width="5"/>
</g>
<g filter="url(#filter1_d_1547_321)">
<path d="M404.52 128.92H364.36L359.027 145.055C358.486 146.694 356.955 147.8 355.229 147.8H330.731C327.949 147.8 326.017 145.031 326.976 142.421L365.477 37.6206C366.056 36.0463 367.555 35 369.232 35H399.964C401.643 35 403.144 36.0486 403.721 37.6253L442.073 142.425C443.028 145.035 441.096 147.8 438.317 147.8H413.651C411.925 147.8 410.394 146.694 409.853 145.055L404.52 128.92ZM396.68 105.24L384.52 68.44L372.2 105.24H396.68Z" fill="url(#paint1_linear_1547_321)"/>
<path d="M361.401 145.84L366.167 131.42H402.713L407.479 145.84C408.359 148.502 410.847 150.3 413.651 150.3H438.317C442.833 150.3 445.973 145.807 444.421 141.566L406.068 36.7662C405.131 34.2039 402.693 32.5 399.964 32.5H369.232C366.506 32.5 364.07 34.2003 363.131 36.7585L324.63 141.559C323.071 145.801 326.211 150.3 330.731 150.3H355.229C358.033 150.3 360.521 148.502 361.401 145.84ZM375.673 102.74L384.504 76.3612L393.221 102.74H375.673Z" stroke="#1D1D1D" stroke-width="5"/>
</g>
<g filter="url(#filter2_d_1547_321)">
<path d="M618.52 116.44C618.52 118.649 620.311 120.44 622.52 120.44H649.88C652.089 120.44 653.88 122.231 653.88 124.44V140.28C653.88 142.489 652.089 144.28 649.88 144.28H591C588.791 144.28 587 142.489 587 140.28V35C587 32.7909 588.791 31 591 31H614.52C616.729 31 618.52 32.7909 618.52 35V116.44Z" fill="url(#paint2_linear_1547_321)"/>
<path d="M622.52 117.94C621.691 117.94 621.02 117.268 621.02 116.44V35C621.02 31.4101 618.11 28.5 614.52 28.5H591C587.41 28.5 584.5 31.4102 584.5 35V140.28C584.5 143.87 587.41 146.78 591 146.78H649.88C653.47 146.78 656.38 143.87 656.38 140.28V124.44C656.38 120.85 653.47 117.94 649.88 117.94H622.52Z" stroke="#1D1D1D" stroke-width="5"/>
</g>
<g filter="url(#filter3_d_1547_321)">
<path d="M575.588 25.4445C578.154 25.2173 580.262 27.4392 579.901 29.9897L564.747 137.023C564.486 138.864 562.991 140.283 561.139 140.447L528.604 143.328C526.739 143.493 525.01 142.343 524.44 140.56L503.628 75.3458L494.599 143.202C494.352 145.057 492.851 146.494 490.986 146.659L458.451 149.54C456.599 149.704 454.878 148.57 454.298 146.803L420.572 44.0974C419.769 41.6501 421.454 39.0923 424.02 38.8651L449.396 36.6181C451.351 36.445 453.143 37.7157 453.626 39.6178L472.021 112.037L482.164 36.8467C482.414 34.9942 483.913 33.5618 485.775 33.397L513.68 30.9262C515.539 30.7616 517.264 31.9044 517.838 33.6801L541.191 105.912L546.575 31.3877C546.716 29.4303 548.257 27.8646 550.211 27.6915L575.588 25.4445Z" fill="url(#paint3_linear_1547_321)"/>
<path d="M582.377 30.3402C582.963 26.1957 579.537 22.5851 575.368 22.9543L549.991 25.2012C546.814 25.4825 544.311 28.0268 544.081 31.2075L539.622 92.9325L520.217 32.9111C519.284 30.0255 516.48 28.1685 513.459 28.4359L485.555 30.9067C482.529 31.1746 480.092 33.5022 479.686 36.5124L471.268 98.9176L456.049 39.0023C455.264 35.9114 452.352 33.8466 449.176 34.1279L423.799 36.3748C419.63 36.744 416.891 40.9005 418.197 44.8774L451.923 147.583C452.865 150.454 455.662 152.296 458.671 152.03L491.207 149.149C494.237 148.881 496.676 146.547 497.077 143.532L504.636 86.7262L522.059 141.32C522.984 144.218 525.794 146.086 528.824 145.818L561.36 142.937C564.37 142.671 566.799 140.366 567.222 137.374L582.377 30.3402Z" stroke="#1D1D1D" stroke-width="5"/>
</g>
<g filter="url(#filter4_d_1547_321)">
<path d="M188.641 33.6001C198.348 33.6001 206.988 35.4134 214.561 39.0401C222.241 42.5601 228.481 47.6268 233.281 54.2401C237.183 59.5299 240.063 65.5246 241.921 72.2244C242.595 74.653 240.694 76.9601 238.174 76.9601H212.617C210.988 76.9601 209.55 75.9549 208.779 74.519C206.998 71.2008 204.552 68.5478 201.441 66.5601C197.601 64.0001 193.174 62.7201 188.161 62.7201C181.228 62.7201 175.628 65.3334 171.361 70.5601C167.094 75.6801 164.961 82.5601 164.961 91.2001C164.961 99.8401 167.094 106.773 171.361 112C175.628 117.227 181.228 119.84 188.161 119.84C193.174 119.84 197.601 118.56 201.441 116C204.554 113.925 207.001 111.219 208.782 107.882C209.549 106.445 210.988 105.44 212.617 105.44H238.193C240.707 105.44 242.606 107.737 241.947 110.163C238.945 121.204 233.23 130.19 224.801 137.12C215.308 144.907 203.254 148.8 188.641 148.8C177.441 148.8 167.628 146.4 159.201 141.6C150.881 136.693 144.428 129.867 139.841 121.12C135.361 112.373 133.121 102.4 133.121 91.2001C133.121 80.0001 135.361 70.0268 139.841 61.2801C144.428 52.5334 150.881 45.7601 159.201 40.9601C167.628 36.0534 177.441 33.6001 188.641 33.6001Z" fill="url(#paint4_linear_1547_321)"/>
<path d="M200.054 68.6402L200.075 68.6537L200.095 68.6668C202.839 70.4199 204.993 72.7514 206.576 75.7012C207.708 77.8088 209.918 79.4601 212.617 79.4601H238.174C242.203 79.4601 245.483 75.7134 244.33 71.5564C242.397 64.5829 239.389 58.3108 235.298 52.7634C230.242 45.7995 223.667 40.4673 215.622 36.7762C207.667 32.9709 198.655 31.1001 188.641 31.1001C177.068 31.1001 166.809 33.6385 157.947 38.7972C149.207 43.8406 142.426 50.967 137.627 60.1191L137.621 60.1297L137.616 60.1404C132.932 69.2863 130.621 79.6595 130.621 91.2001C130.621 102.741 132.932 113.114 137.616 122.26L137.621 122.27L137.627 122.281C142.425 131.43 149.201 138.605 157.931 143.754L157.947 143.763L157.964 143.772C166.822 148.818 177.075 151.3 188.641 151.3C203.718 151.3 216.365 147.273 226.387 139.053L226.389 139.051C235.238 131.775 241.228 122.334 244.359 110.819C245.487 106.67 242.214 102.94 238.193 102.94H212.617C209.919 102.94 207.705 104.59 206.576 106.705C204.987 109.682 202.82 112.076 200.054 113.92C196.661 116.183 192.725 117.34 188.161 117.34C181.955 117.34 177.075 115.046 173.298 110.419C169.487 105.751 167.461 99.4285 167.461 91.2001C167.461 82.9688 169.488 76.7124 173.282 72.1606L173.29 72.1508L173.298 72.141C177.075 67.5143 181.955 65.2201 188.161 65.2201C192.725 65.2201 196.661 66.3777 200.054 68.6402Z" stroke="#1D1D1D" stroke-width="5"/>
</g>
<g filter="url(#filter5_d_1547_321)">
<path d="M137.589 109.852C138.314 116.103 137.382 121.956 134.793 127.41C132.204 132.865 128.009 137.432 122.207 141.112C116.406 144.791 109.214 147.128 100.632 148.124C87.599 149.635 76.4819 147.757 67.2804 142.488C59.3229 137.868 54.0498 130.882 51.4613 121.53C50.8451 119.304 52.4575 117.147 54.7522 116.881L80.0686 113.945C82.1385 113.705 83.9781 115.128 84.7748 117.053C85.6377 119.139 86.8468 120.733 88.4021 121.838C90.7424 123.499 93.4489 124.152 96.5216 123.795C99.2765 123.476 101.316 122.541 102.639 120.992C104.069 119.43 104.636 117.378 104.341 114.835C103.948 111.444 102.111 109.026 98.8292 107.581C95.5353 106.031 90.4216 104.53 83.4883 103.079C76.1066 101.465 69.9496 99.763 65.0171 97.9727C60.1907 96.17 55.8118 93.1342 51.8805 88.8654C48.0552 84.5842 45.7186 78.7881 44.8707 71.4771C44.0597 64.484 45.1667 58.2886 48.1917 52.8908C51.2044 47.3871 55.689 43.0013 61.6455 39.7333C67.5898 36.3594 74.5352 34.2117 82.482 33.2901C95.4087 31.7909 106.043 33.6717 114.384 38.9325C121.709 43.398 126.615 50.0467 129.102 58.8788C129.73 61.107 128.116 63.2726 125.817 63.5393L100.052 66.5273C98.0428 66.7603 96.2439 65.4207 95.4028 63.5809C94.6036 61.8325 93.5662 60.4838 92.2907 59.5349C90.3988 58.0362 88.0224 57.4527 85.1616 57.7845C82.7246 58.0671 80.8911 58.924 79.6611 60.3552C78.4311 61.7865 77.9636 63.7736 78.2585 66.3165C78.6271 69.4952 80.3993 71.8132 83.575 73.2703C86.8566 74.7153 91.8581 76.1755 98.5795 77.651C105.974 79.3706 112.143 81.1786 117.088 83.075C122.032 84.9713 126.47 88.0539 130.402 92.3228C134.333 96.5916 136.729 102.435 137.589 109.852Z" fill="url(#paint5_linear_1547_321)"/>
<path d="M137.589 109.852C138.314 116.103 137.382 121.956 134.793 127.41C132.204 132.865 128.009 137.432 122.207 141.112C116.406 144.791 109.214 147.128 100.632 148.124C87.599 149.635 76.4819 147.757 67.2804 142.488C59.3229 137.868 54.0498 130.882 51.4613 121.53C50.8451 119.304 52.4575 117.147 54.7522 116.881L80.0686 113.945C82.1385 113.705 83.9781 115.128 84.7748 117.053C85.6377 119.139 86.8468 120.733 88.4021 121.838C90.7424 123.499 93.4489 124.152 96.5216 123.795C99.2765 123.476 101.316 122.541 102.639 120.992C104.069 119.43 104.636 117.378 104.341 114.835C103.948 111.444 102.111 109.026 98.8292 107.581C95.5353 106.031 90.4216 104.53 83.4883 103.079C76.1066 101.465 69.9496 99.763 65.0171 97.9727C60.1907 96.17 55.8118 93.1342 51.8805 88.8654C48.0552 84.5842 45.7186 78.7881 44.8707 71.4771C44.0597 64.484 45.1667 58.2886 48.1917 52.8908C51.2044 47.3871 55.689 43.0013 61.6455 39.7333C67.5898 36.3594 74.5352 34.2117 82.482 33.2901C95.4087 31.7909 106.043 33.6717 114.384 38.9325C121.709 43.398 126.615 50.0467 129.102 58.8788C129.73 61.107 128.116 63.2726 125.817 63.5393L100.052 66.5273C98.0428 66.7603 96.2439 65.4207 95.4028 63.5809C94.6036 61.8325 93.5662 60.4838 92.2907 59.5349C90.3988 58.0362 88.0224 57.4527 85.1616 57.7845C82.7246 58.0671 80.8911 58.924 79.6611 60.3552C78.4311 61.7865 77.9636 63.7736 78.2585 66.3165C78.6271 69.4952 80.3993 71.8132 83.575 73.2703C86.8566 74.7153 91.8581 76.1755 98.5795 77.651C105.974 79.3706 112.143 81.1786 117.088 83.075C122.032 84.9713 126.47 88.0539 130.402 92.3228C134.333 96.5916 136.729 102.435 137.589 109.852Z" stroke="#1D1D1D" stroke-width="5"/>
</g>
<g filter="url(#filter6_d_1547_321)">
<path d="M142.99 218.545C149.429 220.078 154.488 223.246 158.168 228.05C161.949 232.854 163.84 238.424 163.84 244.761C163.84 254.164 160.723 261.472 154.488 266.685C148.254 271.795 139.311 274.35 127.659 274.35H78C75.7909 274.35 74 272.559 74 270.35V169.806C74 167.597 75.7909 165.806 78 165.806H126.432C137.369 165.806 145.903 168.208 152.035 173.012C158.27 177.815 161.387 184.765 161.387 193.862C161.387 200.301 159.701 205.718 156.328 210.113C152.955 214.405 148.509 217.216 142.99 218.545ZM104.202 209.193H119.38C126.943 209.193 130.725 206.024 130.725 199.688C130.725 193.146 126.892 189.876 119.227 189.876H104.202V209.193ZM121.22 250.127C129.09 250.127 133.025 246.856 133.025 240.315C133.025 233.569 129.09 230.197 121.22 230.197H104.202V250.127H121.22Z" fill="url(#paint6_linear_1547_321)"/>
<path d="M156.073 268.618L156.083 268.61L156.092 268.603C162.987 262.838 166.34 254.775 166.34 244.761C166.34 237.891 164.278 231.775 160.142 226.517C157.479 223.044 154.165 220.362 150.243 218.462C153.35 216.793 156.041 214.524 158.294 211.657L158.303 211.646L158.311 211.635C162.072 206.735 163.887 200.758 163.887 193.862C163.887 184.13 160.513 176.392 153.569 171.037C146.85 165.778 137.702 163.306 126.432 163.306H78C74.4101 163.306 71.5 166.216 71.5 169.806V270.35C71.5 273.94 74.4102 276.85 78 276.85H127.659C139.637 276.85 149.23 274.227 156.073 268.618ZM119.38 206.693H106.702V192.376H119.227C122.763 192.376 124.948 193.138 126.228 194.23C127.431 195.258 128.225 196.915 128.225 199.688C128.225 202.343 127.454 203.92 126.283 204.9C125.028 205.952 122.874 206.693 119.38 206.693ZM130.525 240.315C130.525 243.066 129.719 244.718 128.476 245.751C127.143 246.859 124.87 247.627 121.22 247.627H106.702V232.697H121.22C124.856 232.697 127.116 233.484 128.447 234.624C129.703 235.702 130.525 237.437 130.525 240.315Z" stroke="#1D1D1D" stroke-width="5"/>
</g>
<g filter="url(#filter7_d_1547_321)">
<path d="M223.863 274.758C222.402 274.71 221.084 273.87 220.425 272.566L200.894 233.969L197.829 233.869L196.649 269.864C196.577 272.072 194.728 273.803 192.52 273.73L170.33 273.003C168.122 272.931 166.391 271.082 166.463 268.874L169.888 164.386L217.542 165.948C226.225 166.233 233.53 168.006 239.456 171.268C245.488 174.431 249.949 178.719 252.84 184.132C255.73 189.544 257.067 195.57 256.849 202.21C256.602 209.769 254.291 216.289 249.919 221.771C245.55 227.15 239.396 230.834 231.456 232.823L251.419 269.637C252.892 272.353 250.86 275.643 247.772 275.541L223.863 274.758ZM198.492 213.643L213.355 214.13C221.732 214.404 226.044 210.762 226.291 203.203C226.409 199.627 225.428 196.783 223.35 194.67C221.374 192.56 218.292 191.436 214.103 191.299L199.24 190.812L198.492 213.643Z" fill="url(#paint7_linear_1547_321)"/>
<path d="M169.97 161.888L167.471 161.806L167.389 164.304L163.965 268.792C163.847 272.38 166.66 275.384 170.248 275.502L192.439 276.229C196.026 276.347 199.03 273.533 199.148 269.946L200.191 238.118L218.194 273.695C219.266 275.813 221.408 277.179 223.781 277.256L247.69 278.04C252.709 278.204 256.011 272.859 253.617 268.445L235.139 234.37C242.075 232.132 247.691 228.479 251.86 223.347L251.867 223.338L251.873 223.33C256.609 217.394 259.084 210.344 259.348 202.292C259.579 195.251 258.159 188.785 255.045 182.954C251.896 177.058 247.054 172.434 240.64 169.066C234.288 165.575 226.581 163.743 217.624 163.449L169.97 161.888ZM221.525 196.378L221.546 196.401L221.567 196.422C223.069 197.949 223.893 200.077 223.793 203.121C223.684 206.445 222.707 208.47 221.258 209.694C219.759 210.96 217.3 211.758 213.437 211.631L201.072 211.226L201.657 193.392L214.021 193.797C217.845 193.923 220.172 194.934 221.525 196.378Z" stroke="#1D1D1D" stroke-width="5"/>
</g>
<g filter="url(#filter8_d_1547_321)">
<path d="M512.652 169.496C515.225 169.624 517.007 172.115 516.298 174.592L487.885 273.843C487.373 275.631 485.697 276.83 483.84 276.737L452.848 275.191C450.979 275.098 449.424 273.72 449.106 271.876L437.983 207.369L420.494 270.448C419.994 272.252 418.309 273.468 416.44 273.374L385.448 271.828C383.591 271.735 382.042 270.375 381.711 268.546L363.319 166.959C362.86 164.424 364.881 162.123 367.454 162.251L391.482 163.45C393.442 163.548 395.042 165.053 395.258 167.004L403.143 238.02L422.656 168.127C423.159 166.327 424.842 165.114 426.708 165.208L453.251 166.532C455.115 166.625 456.667 167.994 456.991 169.832L469.598 241.335L484.513 171.457C484.923 169.538 486.664 168.199 488.624 168.297L512.652 169.496Z" fill="url(#paint8_linear_1547_321)"/>
<path d="M518.702 175.28C519.854 171.255 516.957 167.207 512.777 166.999L488.749 165.8C485.564 165.641 482.734 167.816 482.068 170.935L469.832 228.263L459.453 169.398C458.926 166.412 456.404 164.186 453.376 164.035L426.833 162.711C423.799 162.559 421.065 164.529 420.249 167.455L404.205 224.922L397.743 166.728C397.391 163.558 394.792 161.112 391.607 160.953L367.579 159.754C363.398 159.546 360.113 163.285 360.859 167.404L379.251 268.991C379.789 271.964 382.306 274.174 385.323 274.325L416.315 275.871C419.353 276.023 422.09 274.047 422.903 271.116L437.413 218.78L446.642 272.301C447.159 275.298 449.686 277.536 452.724 277.688L483.716 279.234C486.733 279.385 489.457 277.436 490.289 274.531L518.702 175.28Z" stroke="#1D1D1D" stroke-width="5"/>
</g>
<g filter="url(#filter9_d_1547_321)">
<path d="M548.359 247.507C548.359 249.716 550.149 251.507 552.359 251.507H578.24C580.449 251.507 582.24 253.298 582.24 255.507V270.35C582.24 272.559 580.449 274.35 578.24 274.35H522.156C519.947 274.35 518.156 272.559 518.156 270.35V169.806C518.156 167.597 519.947 165.806 522.156 165.806H544.359C546.568 165.806 548.359 167.597 548.359 169.806V247.507Z" fill="url(#paint9_linear_1547_321)"/>
<path d="M552.359 249.007C551.53 249.007 550.859 248.335 550.859 247.507V169.806C550.859 166.216 547.948 163.306 544.359 163.306H522.156C518.566 163.306 515.656 166.216 515.656 169.806V270.35C515.656 273.94 518.566 276.85 522.156 276.85H578.24C581.83 276.85 584.74 273.94 584.74 270.35V255.507C584.74 251.917 581.83 249.007 578.24 249.007H552.359Z" stroke="#1D1D1D" stroke-width="5"/>
</g>
<g filter="url(#filter10_d_1547_321)">
<path d="M334.516 256.259H296.035L290.963 271.605C290.421 273.244 288.89 274.35 287.165 274.35H264.051C261.27 274.35 259.337 271.582 260.297 268.971L297.065 168.887C297.643 167.312 299.143 166.266 300.82 166.266H330.034C331.713 166.266 333.213 167.314 333.79 168.891L370.417 268.975C371.372 271.586 369.44 274.35 366.66 274.35H343.386C341.66 274.35 340.129 273.244 339.588 271.605L334.516 256.259ZM327.004 233.569L315.352 198.308L303.547 233.569H327.004Z" fill="url(#paint10_linear_1547_321)"/>
<path d="M293.337 272.39L297.842 258.759H332.709L337.214 272.39C338.094 275.052 340.582 276.85 343.386 276.85H366.66C371.177 276.85 374.317 272.358 372.765 268.116L336.138 168.032C335.2 165.47 332.762 163.766 330.034 163.766H300.82C298.094 163.766 295.658 165.466 294.718 168.024L257.95 268.109C256.391 272.351 259.531 276.85 264.051 276.85H287.165C289.969 276.85 292.457 275.052 293.337 272.39ZM307.02 231.069L315.336 206.229L323.545 231.069H307.02Z" stroke="#1D1D1D" stroke-width="5"/>
</g>
<path d="M598.564 261.763C599.58 254.341 594.386 247.5 586.963 246.484C579.54 245.468 572.7 250.662 571.684 258.085C570.668 265.508 575.862 272.349 583.285 273.364C590.708 274.38 597.549 269.186 598.564 261.763Z" fill="url(#paint11_linear_1547_321)" stroke="#1D1D1D" stroke-width="5"/>
<path d="M682.336 239.685L680.311 238.328L682.336 239.685C684.335 236.701 682.805 232.636 679.335 231.71L669.503 229.085C667.289 228.494 664.947 229.411 663.724 231.349L647.21 257.51L645.875 226.575C645.776 224.289 644.205 222.331 641.993 221.741L632.158 219.115C628.688 218.189 625.336 220.951 625.582 224.534L629.11 275.974C629.264 278.208 630.821 280.098 632.984 280.675L647.937 284.667C650.101 285.245 652.393 284.383 653.639 282.522L682.336 239.685Z" fill="url(#paint12_linear_1547_321)" stroke="#1D1D1D" stroke-width="5"/>
<path d="M629.1 205.026L629.302 207.518L629.1 205.026L582.389 208.817C579.905 209.018 578.055 211.195 578.257 213.679L579.053 223.493C579.254 225.977 581.431 227.827 583.915 227.625L583.713 225.134L583.915 227.625L596.061 226.64L599.633 270.663C599.834 273.147 602.011 274.997 604.495 274.795L617.744 273.72C620.227 273.519 622.078 271.342 621.876 268.858L618.304 224.835L622.638 224.483L625.099 224.284L624.93 221.821L624.902 221.407C624.743 219.086 626.914 217.297 629.162 217.897L631.37 218.486L634.793 219.4L634.506 215.869L633.962 209.159L631.47 209.361L633.962 209.159C633.76 206.675 631.584 204.825 629.1 205.026Z" fill="url(#paint13_linear_1547_321)" stroke="#1D1D1D" stroke-width="5"/>
<defs>
<filter id="filter0_d_1547_321" x="230.4" y="27.4358" width="112.408" height="134.235" filterUnits="userSpaceOnUse" color-interpolation-filters="sRGB">
<feFlood flood-opacity="0" result="BackgroundImageFix"/>
<feColorMatrix in="SourceAlpha" type="matrix" values="0 0 0 0 0 0 0 0 0 0 0 0 0 0 0 0 0 0 127 0" result="hardAlpha"/>
<feOffset dy="4"/>
<feGaussianBlur stdDeviation="2"/>
<feColorMatrix type="matrix" values="0 0 0 0 0 0 0 0 0 0 0 0 0 0 0 0 0 0 0.25 0"/>
<feBlend mode="normal" in2="BackgroundImageFix" result="effect1_dropShadow_1547_321"/>
<feBlend mode="normal" in="SourceGraphic" in2="effect1_dropShadow_1547_321" result="shape"/>
</filter>
<filter id="filter1_d_1547_321" x="317.723" y="30" width="133.602" height="130.8" filterUnits="userSpaceOnUse" color-interpolation-filters="sRGB">
<feFlood flood-opacity="0" result="BackgroundImageFix"/>
<feColorMatrix in="SourceAlpha" type="matrix" values="0 0 0 0 0 0 0 0 0 0 0 0 0 0 0 0 0 0 127 0" result="hardAlpha"/>
<feOffset dy="4"/>
<feGaussianBlur stdDeviation="2"/>
<feColorMatrix type="matrix" values="0 0 0 0 0 0 0 0 0 0 0 0 0 0 0 0 0 0 0.25 0"/>
<feBlend mode="normal" in2="BackgroundImageFix" result="effect1_dropShadow_1547_321"/>
<feBlend mode="normal" in="SourceGraphic" in2="effect1_dropShadow_1547_321" result="shape"/>
</filter>
<filter id="filter2_d_1547_321" x="578" y="26" width="84.8799" height="131.28" filterUnits="userSpaceOnUse" color-interpolation-filters="sRGB">
<feFlood flood-opacity="0" result="BackgroundImageFix"/>
<feColorMatrix in="SourceAlpha" type="matrix" values="0 0 0 0 0 0 0 0 0 0 0 0 0 0 0 0 0 0 127 0" result="hardAlpha"/>
<feOffset dy="4"/>
<feGaussianBlur stdDeviation="2"/>
<feColorMatrix type="matrix" values="0 0 0 0 0 0 0 0 0 0 0 0 0 0 0 0 0 0 0.25 0"/>
<feBlend mode="normal" in2="BackgroundImageFix" result="effect1_dropShadow_1547_321"/>
<feBlend mode="normal" in="SourceGraphic" in2="effect1_dropShadow_1547_321" result="shape"/>
</filter>
<filter id="filter3_d_1547_321" x="411.367" y="20.428" width="177.576" height="142.127" filterUnits="userSpaceOnUse" color-interpolation-filters="sRGB">
<feFlood flood-opacity="0" result="BackgroundImageFix"/>
<feColorMatrix in="SourceAlpha" type="matrix" values="0 0 0 0 0 0 0 0 0 0 0 0 0 0 0 0 0 0 127 0" result="hardAlpha"/>
<feOffset dy="4"/>
<feGaussianBlur stdDeviation="2"/>
<feColorMatrix type="matrix" values="0 0 0 0 0 0 0 0 0 0 0 0 0 0 0 0 0 0 0.25 0"/>
<feBlend mode="normal" in2="BackgroundImageFix" result="effect1_dropShadow_1547_321"/>
<feBlend mode="normal" in="SourceGraphic" in2="effect1_dropShadow_1547_321" result="shape"/>
</filter>
<filter id="filter4_d_1547_321" x="124.121" y="28.6001" width="126.969" height="133.2" filterUnits="userSpaceOnUse" color-interpolation-filters="sRGB">
<feFlood flood-opacity="0" result="BackgroundImageFix"/>
<feColorMatrix in="SourceAlpha" type="matrix" values="0 0 0 0 0 0 0 0 0 0 0 0 0 0 0 0 0 0 127 0" result="hardAlpha"/>
<feOffset dy="4"/>
<feGaussianBlur stdDeviation="2"/>
<feColorMatrix type="matrix" values="0 0 0 0 0 0 0 0 0 0 0 0 0 0 0 0 0 0 0.25 0"/>
<feBlend mode="normal" in2="BackgroundImageFix" result="effect1_dropShadow_1547_321"/>
<feBlend mode="normal" in="SourceGraphic" in2="effect1_dropShadow_1547_321" result="shape"/>
</filter>
<filter id="filter5_d_1547_321" x="38.1133" y="30.2917" width="106.213" height="128.837" filterUnits="userSpaceOnUse" color-interpolation-filters="sRGB">
<feFlood flood-opacity="0" result="BackgroundImageFix"/>
<feColorMatrix in="SourceAlpha" type="matrix" values="0 0 0 0 0 0 0 0 0 0 0 0 0 0 0 0 0 0 127 0" result="hardAlpha"/>
<feOffset dy="4"/>
<feGaussianBlur stdDeviation="2"/>
<feColorMatrix type="matrix" values="0 0 0 0 0 0 0 0 0 0 0 0 0 0 0 0 0 0 0.25 0"/>
<feBlend mode="normal" in2="BackgroundImageFix" result="effect1_dropShadow_1547_321"/>
<feBlend mode="normal" in="SourceGraphic" in2="effect1_dropShadow_1547_321" result="shape"/>
</filter>
<filter id="filter6_d_1547_321" x="65" y="160.806" width="107.84" height="126.544" filterUnits="userSpaceOnUse" color-interpolation-filters="sRGB">
<feFlood flood-opacity="0" result="BackgroundImageFix"/>
<feColorMatrix in="SourceAlpha" type="matrix" values="0 0 0 0 0 0 0 0 0 0 0 0 0 0 0 0 0 0 127 0" result="hardAlpha"/>
<feOffset dy="4"/>
<feGaussianBlur stdDeviation="2"/>
<feColorMatrix type="matrix" values="0 0 0 0 0 0 0 0 0 0 0 0 0 0 0 0 0 0 0.25 0"/>
<feBlend mode="normal" in2="BackgroundImageFix" result="effect1_dropShadow_1547_321"/>
<feBlend mode="normal" in="SourceGraphic" in2="effect1_dropShadow_1547_321" result="shape"/>
</filter>
<filter id="filter7_d_1547_321" x="157.461" y="159.225" width="108.411" height="129.319" filterUnits="userSpaceOnUse" color-interpolation-filters="sRGB">
<feFlood flood-opacity="0" result="BackgroundImageFix"/>
<feColorMatrix in="SourceAlpha" type="matrix" values="0 0 0 0 0 0 0 0 0 0 0 0 0 0 0 0 0 0 127 0" result="hardAlpha"/>
<feOffset dy="4"/>
<feGaussianBlur stdDeviation="2"/>
<feColorMatrix type="matrix" values="0 0 0 0 0 0 0 0 0 0 0 0 0 0 0 0 0 0 0.25 0"/>
<feBlend mode="normal" in2="BackgroundImageFix" result="effect1_dropShadow_1547_321"/>
<feBlend mode="normal" in="SourceGraphic" in2="effect1_dropShadow_1547_321" result="shape"/>
</filter>
<filter id="filter8_d_1547_321" x="354.252" y="157.246" width="171.205" height="132.497" filterUnits="userSpaceOnUse" color-interpolation-filters="sRGB">
<feFlood flood-opacity="0" result="BackgroundImageFix"/>
<feColorMatrix in="SourceAlpha" type="matrix" values="0 0 0 0 0 0 0 0 0 0 0 0 0 0 0 0 0 0 127 0" result="hardAlpha"/>
<feOffset dy="4"/>
<feGaussianBlur stdDeviation="2"/>
<feColorMatrix type="matrix" values="0 0 0 0 0 0 0 0 0 0 0 0 0 0 0 0 0 0 0.25 0"/>
<feBlend mode="normal" in2="BackgroundImageFix" result="effect1_dropShadow_1547_321"/>
<feBlend mode="normal" in="SourceGraphic" in2="effect1_dropShadow_1547_321" result="shape"/>
</filter>
<filter id="filter9_d_1547_321" x="509.156" y="160.806" width="82.084" height="126.544" filterUnits="userSpaceOnUse" color-interpolation-filters="sRGB">
<feFlood flood-opacity="0" result="BackgroundImageFix"/>
<feColorMatrix in="SourceAlpha" type="matrix" values="0 0 0 0 0 0 0 0 0 0 0 0 0 0 0 0 0 0 127 0" result="hardAlpha"/>
<feOffset dy="4"/>
<feGaussianBlur stdDeviation="2"/>
<feColorMatrix type="matrix" values="0 0 0 0 0 0 0 0 0 0 0 0 0 0 0 0 0 0 0.25 0"/>
<feBlend mode="normal" in2="BackgroundImageFix" result="effect1_dropShadow_1547_321"/>
<feBlend mode="normal" in="SourceGraphic" in2="effect1_dropShadow_1547_321" result="shape"/>
</filter>
<filter id="filter10_d_1547_321" x="251.043" y="161.266" width="128.625" height="126.084" filterUnits="userSpaceOnUse" color-interpolation-filters="sRGB">
<feFlood flood-opacity="0" result="BackgroundImageFix"/>
<feColorMatrix in="SourceAlpha" type="matrix" values="0 0 0 0 0 0 0 0 0 0 0 0 0 0 0 0 0 0 127 0" result="hardAlpha"/>
<feOffset dy="4"/>
<feGaussianBlur stdDeviation="2"/>
<feColorMatrix type="matrix" values="0 0 0 0 0 0 0 0 0 0 0 0 0 0 0 0 0 0 0.25 0"/>
<feBlend mode="normal" in2="BackgroundImageFix" result="effect1_dropShadow_1547_321"/>
<feBlend mode="normal" in="SourceGraphic" in2="effect1_dropShadow_1547_321" result="shape"/>
</filter>
<linearGradient id="paint0_linear_1547_321" x1="289.188" y1="34.1423" x2="285.403" y2="147.359" gradientUnits="userSpaceOnUse">
<stop stop-color="white"/>
<stop offset="1" stop-color="#CFFCF9"/>
</linearGradient>
<linearGradient id="paint1_linear_1547_321" x1="384.52" y1="35" x2="384.52" y2="147.8" gradientUnits="userSpaceOnUse">
<stop stop-color="white"/>
<stop offset="1" stop-color="#CFFCF9"/>
</linearGradient>
<linearGradient id="paint2_linear_1547_321" x1="620.44" y1="31" x2="620.44" y2="144.28" gradientUnits="userSpaceOnUse">
<stop stop-color="white"/>
<stop offset="1" stop-color="#CFFCF9"/>
</linearGradient>
<linearGradient id="paint3_linear_1547_321" x1="499.804" y1="32.1548" x2="509.795" y2="144.993" gradientUnits="userSpaceOnUse">
<stop stop-color="white"/>
<stop offset="1" stop-color="#CFFCF9"/>
</linearGradient>
<linearGradient id="paint4_linear_1547_321" x1="188.081" y1="33.6001" x2="188.081" y2="148.8" gradientUnits="userSpaceOnUse">
<stop stop-color="white"/>
<stop offset="1" stop-color="#CFFCF9"/>
</linearGradient>
<linearGradient id="paint5_linear_1547_321" x1="84.5481" y1="33.0505" x2="97.9298" y2="148.437" gradientUnits="userSpaceOnUse">
<stop stop-color="white"/>
<stop offset="1" stop-color="#CFFCF9"/>
</linearGradient>
<linearGradient id="paint6_linear_1547_321" x1="118.92" y1="165.806" x2="118.92" y2="274.35" gradientUnits="userSpaceOnUse">
<stop stop-color="white"/>
<stop offset="1" stop-color="#CFFCF9"/>
</linearGradient>
<linearGradient id="paint7_linear_1547_321" x1="214.094" y1="165.835" x2="210.539" y2="274.321" gradientUnits="userSpaceOnUse">
<stop stop-color="white"/>
<stop offset="1" stop-color="#CFFCF9"/>
</linearGradient>
<linearGradient id="paint8_linear_1547_321" x1="440.053" y1="165.873" x2="434.644" y2="274.283" gradientUnits="userSpaceOnUse">
<stop stop-color="white"/>
<stop offset="1" stop-color="#CFFCF9"/>
</linearGradient>
<linearGradient id="paint9_linear_1547_321" x1="550.198" y1="165.806" x2="550.198" y2="274.35" gradientUnits="userSpaceOnUse">
<stop stop-color="white"/>
<stop offset="1" stop-color="#CFFCF9"/>
</linearGradient>
<linearGradient id="paint10_linear_1547_321" x1="315.352" y1="166.266" x2="315.352" y2="274.35" gradientUnits="userSpaceOnUse">
<stop stop-color="white"/>
<stop offset="1" stop-color="#CFFCF9"/>
</linearGradient>
<linearGradient id="paint11_linear_1547_321" x1="586.624" y1="248.961" x2="583.624" y2="270.887" gradientUnits="userSpaceOnUse">
<stop stop-color="#E9E588"/>
<stop offset="1" stop-color="#E8C64D"/>
</linearGradient>
<linearGradient id="paint12_linear_1547_321" x1="655.102" y1="227.828" x2="641.106" y2="280.256" gradientUnits="userSpaceOnUse">
<stop stop-color="#E9E588"/>
<stop offset="1" stop-color="#E8C64D"/>
</linearGradient>
<linearGradient id="paint13_linear_1547_321" x1="607.76" y1="204.522" x2="598.585" y2="271.571" gradientUnits="userSpaceOnUse">
<stop stop-color="#E9E588"/>
<stop offset="1" stop-color="#E8C64D"/>
</linearGradient>
</defs>
</svg>
