<svg width="116" height="54" viewBox="0 0 116 54" fill="none" xmlns="http://www.w3.org/2000/svg">
<g filter="url(#filter0_f)">
<ellipse cx="59.5812" cy="48.4359" rx="52.6452" ry="3.56452" fill="#434343" fill-opacity="0.2"/>
</g>
<g filter="url(#filter1_d)">
<path d="M49.199 23.4514C48.9321 23.4425 48.6913 23.2888 48.5708 23.0504L44.8411 15.6679L44.2565 15.6484L44.0259 22.5469C44.0124 22.9505 43.6743 23.2668 43.2707 23.2533L38.9737 23.1096C38.5702 23.0961 38.2539 22.758 38.2674 22.3544L38.9348 2.38965L48.0257 2.69355C49.6821 2.74892 51.0754 3.08814 52.2056 3.71119C53.3559 4.31541 54.2065 5.13396 54.7572 6.16685C55.308 7.19973 55.5622 8.34951 55.5198 9.61619C55.4716 11.0583 55.0301 12.3018 54.1953 13.3469C53.3612 14.3725 52.1866 15.0746 50.6718 15.4532L54.502 22.5275C54.771 23.0242 54.3991 23.6253 53.8346 23.6064L49.199 23.4514ZM44.3855 11.7899L47.2209 11.8847C48.8189 11.9381 49.642 11.2438 49.6902 9.80173C49.713 9.11968 49.5263 8.57693 49.1301 8.17351C48.7533 7.77073 48.1655 7.55599 47.3665 7.52928L44.5311 7.43449L44.3855 11.7899Z" fill="url(#paint0_linear)"/>
<path d="M38.9501 1.93291L38.4933 1.91765L38.4781 2.37438L37.8107 22.3391C37.7887 22.995 38.3026 23.5444 38.9585 23.5664L43.2554 23.71C43.9113 23.7319 44.4607 23.218 44.4826 22.5622L44.6893 16.3808L48.1629 23.2565C48.3586 23.6438 48.75 23.8937 49.1837 23.9082L53.8193 24.0631C54.7367 24.0938 55.3409 23.1171 54.9039 22.3099L51.3452 15.737C52.6761 15.3126 53.7521 14.6161 54.5498 13.6353L54.5524 13.6321C55.4535 12.504 55.9253 11.1637 55.9766 9.63146C56.0214 8.2915 55.752 7.06126 55.1605 5.95183C54.5626 4.83051 53.6423 3.95053 52.4222 3.30876C51.2144 2.64394 49.7476 2.29387 48.0409 2.23682L38.9501 1.93291ZM48.7963 8.48567L48.7962 8.48576L48.804 8.49372C49.0948 8.78981 49.253 9.20156 49.2334 9.78647C49.2121 10.4243 49.0243 10.8166 48.742 11.0547C48.4506 11.3005 47.9757 11.4527 47.2362 11.428L44.8575 11.3484L44.9726 7.9065L47.3512 7.98601C48.0836 8.0105 48.5334 8.20458 48.7963 8.48567Z" stroke="#7C7C7C" stroke-width="0.913978"/>
</g>
<g filter="url(#filter2_d)">
<path d="M68.4495 19.9964H61.1084L60.1336 22.9459C60.0346 23.2453 59.7548 23.4476 59.4393 23.4476H54.9612C54.4527 23.4476 54.0995 22.9415 54.2748 22.4643L61.3126 3.30729C61.4184 3.01951 61.6924 2.82825 61.999 2.82825H67.6167C67.9237 2.82825 68.1979 3.01992 68.3034 3.30815L75.314 22.4651C75.4886 22.9422 75.1354 23.4476 74.6274 23.4476H70.1186C69.8031 23.4476 69.5233 23.2453 69.4243 22.9459L68.4495 19.9964ZM67.0164 15.6678L64.7936 8.94094L62.5415 15.6678H67.0164Z" fill="url(#paint1_linear)"/>
<path d="M60.5675 23.0893L61.4387 20.4534H68.1192L68.9904 23.0893C69.1512 23.5759 69.606 23.9046 70.1186 23.9046H74.6274C75.453 23.9046 76.0269 23.0834 75.7432 22.3081L68.7325 3.15109C68.5611 2.68273 68.1155 2.37126 67.6167 2.37126H61.999C61.5008 2.37126 61.0555 2.68206 60.8837 3.1497L53.8459 22.3067C53.561 23.0822 54.1349 23.9046 54.9612 23.9046H59.4393C59.9519 23.9046 60.4067 23.5759 60.5675 23.0893ZM63.1764 15.2108L64.7907 10.3889L66.3841 15.2108H63.1764Z" stroke="#7C7C7C" stroke-width="0.913978"/>
</g>
<g filter="url(#filter3_d)">
<path d="M107.569 17.7149C107.569 18.1187 107.896 18.4461 108.3 18.4461H113.301C113.705 18.4461 114.032 18.7734 114.032 19.1772V22.0727C114.032 22.4765 113.705 22.8039 113.301 22.8039H102.538C102.134 22.8039 101.807 22.4765 101.807 22.0727V2.82798C101.807 2.42416 102.134 2.0968 102.538 2.0968H106.837C107.241 2.0968 107.569 2.42416 107.569 2.82798V17.7149Z" fill="url(#paint2_linear)"/>
<path d="M108.3 17.9891C108.148 17.9891 108.026 17.8663 108.026 17.7149V2.82798C108.026 2.17178 107.494 1.63981 106.837 1.63981H102.538C101.882 1.63981 101.35 2.17177 101.35 2.82798V22.0727C101.35 22.7289 101.882 23.2609 102.538 23.2609H113.301C113.957 23.2609 114.489 22.7289 114.489 22.0727V19.1772C114.489 18.521 113.957 17.9891 113.301 17.9891H108.3Z" stroke="#7C7C7C" stroke-width="0.913978"/>
</g>
<g filter="url(#filter4_d)">
<path d="M99.7208 1.08125C100.19 1.03972 100.575 1.44587 100.509 1.91209L97.7391 21.4774C97.6914 21.8139 97.4182 22.0732 97.0796 22.1032L91.1323 22.6298C90.7914 22.66 90.4753 22.4498 90.3712 22.1238L86.5668 10.203L84.9163 22.6068C84.8711 22.946 84.5968 23.2085 84.256 23.2387L78.3086 23.7653C77.9701 23.7953 77.6555 23.588 77.5495 23.2651L71.3846 4.49092C71.2377 4.04356 71.5457 3.576 72.0148 3.53447L76.6535 3.12374C77.0108 3.0921 77.3383 3.32437 77.4267 3.67206L80.7892 16.9099L82.6433 3.16551C82.6889 2.8269 82.963 2.56506 83.3034 2.53493L88.4042 2.08328C88.744 2.05319 89.0595 2.26209 89.1644 2.58669L93.4331 15.7904L94.4173 2.16763C94.4431 1.80983 94.7247 1.52363 95.0821 1.49199L99.7208 1.08125Z" fill="url(#paint3_linear)"/>
<path d="M100.962 1.97615C101.069 1.21855 100.443 0.558559 99.6805 0.626045L95.0417 1.03678C94.4611 1.0882 94.0035 1.55328 93.9615 2.1347L93.1463 13.4178L89.5992 2.44611C89.4287 1.91863 88.9161 1.57918 88.3639 1.62807L83.2631 2.07972C82.71 2.12869 82.2646 2.55417 82.1904 3.10442L80.6516 14.5118L77.8696 3.55955C77.7261 2.99455 77.1939 2.61712 76.6132 2.66853L71.9745 3.07927C71.2123 3.14675 70.7117 3.90653 70.9504 4.63349L77.1153 23.4077C77.2876 23.9324 77.7988 24.2692 78.3489 24.2205L84.2963 23.6939C84.8501 23.6449 85.2959 23.2183 85.3693 22.6671L86.751 12.2833L89.9359 22.2627C90.1049 22.7925 90.6187 23.1341 91.1726 23.085L97.1199 22.5584C97.6701 22.5097 98.1141 22.0883 98.1916 21.5415L100.962 1.97615Z" stroke="#7C7C7C" stroke-width="0.913978"/>
</g>
<g filter="url(#filter5_d)">
<path d="M28.9884 2.5723C30.7628 2.5723 32.3421 2.90377 33.7265 3.5667C35.1304 4.21015 36.271 5.13631 37.1484 6.3452C37.8617 7.31215 38.3882 8.40796 38.7278 9.63265C38.8509 10.0766 38.5035 10.4983 38.0428 10.4983H33.3712C33.0733 10.4983 32.8104 10.3146 32.6696 10.0521C32.344 9.44554 31.8969 8.96059 31.3282 8.59724C30.6263 8.12929 29.8171 7.89531 28.9007 7.89531C27.6333 7.89531 26.6096 8.37301 25.8297 9.32843C25.0498 10.2643 24.6598 11.522 24.6598 13.1013C24.6598 14.6807 25.0498 15.9481 25.8297 16.9035C26.6096 17.8589 27.6333 18.3366 28.9007 18.3366C29.8171 18.3366 30.6263 18.1026 31.3282 17.6347C31.8972 17.2553 32.3445 16.7607 32.67 16.1508C32.8103 15.888 33.0733 15.7043 33.3712 15.7043H38.0462C38.5058 15.7043 38.853 16.1242 38.7325 16.5676C38.1837 18.5859 37.139 20.2285 35.5983 21.4953C33.863 22.9187 31.6597 23.6304 28.9884 23.6304C26.9411 23.6304 25.1473 23.1917 23.6069 22.3142C22.0861 21.4173 20.9064 20.1694 20.068 18.5706C19.2491 16.9717 18.8396 15.1486 18.8396 13.1013C18.8396 11.054 19.2491 9.23093 20.068 7.63208C20.9064 6.03323 22.0861 4.79509 23.6069 3.91767C25.1473 3.02075 26.9411 2.5723 28.9884 2.5723Z" fill="url(#paint4_linear)"/>
<path d="M31.0747 8.97748L31.0747 8.97755L31.0822 8.98235C31.5837 9.3028 31.9775 9.72899 32.2669 10.2682C32.4737 10.6535 32.8778 10.9553 33.3712 10.9553H38.0428C38.7794 10.9553 39.3789 10.2704 39.1682 9.51054C38.8147 8.23582 38.265 7.08931 37.5172 6.07528C36.5929 4.8023 35.391 3.82759 33.9204 3.15287C32.4663 2.45728 30.819 2.11531 28.9884 2.11531C26.8728 2.11531 24.9976 2.57931 23.3778 3.52229C21.7801 4.44422 20.5406 5.74689 19.6633 7.41985L19.6632 7.41984L19.6612 7.42375C18.8049 9.09558 18.3826 10.9918 18.3826 13.1013C18.3826 15.2109 18.8049 17.1071 19.6612 18.7789L19.6612 18.7789L19.6633 18.7828C20.5403 20.4552 21.7789 21.7667 23.3748 22.7079L23.3747 22.7079L23.3807 22.7113C25.0001 23.6337 26.8742 24.0874 28.9884 24.0874C31.7444 24.0874 34.0562 23.3512 35.8881 21.8486L35.8885 21.8483C37.5061 20.5183 38.6011 18.7926 39.1734 16.6875C39.3796 15.9291 38.7813 15.2474 38.0462 15.2474H33.3712C32.878 15.2474 32.4733 15.5489 32.2669 15.9356C31.9764 16.4798 31.5802 16.9174 31.0747 17.2544C30.4543 17.668 29.735 17.8796 28.9007 17.8796C27.7661 17.8796 26.8741 17.4602 26.1837 16.6145C25.4872 15.7613 25.1168 14.6054 25.1168 13.1013C25.1168 11.5967 25.4874 10.453 26.1808 9.62098L26.1808 9.621L26.1837 9.61741C26.8741 8.77167 27.7661 8.3523 28.9007 8.3523C29.735 8.3523 30.4543 8.5639 31.0747 8.97748Z" stroke="#7C7C7C" stroke-width="0.913978"/>
</g>
<g filter="url(#filter6_d)">
<path d="M19.656 16.5105C19.7885 17.6533 19.6182 18.7232 19.1449 19.7202C18.6717 20.7173 17.9049 21.5521 16.8444 22.2247C15.7839 22.8973 14.4693 23.3246 12.9004 23.5065C10.5181 23.7828 8.48594 23.4394 6.80395 22.4764C5.34934 21.6319 4.38545 20.3548 3.91228 18.6453C3.79964 18.2383 4.09439 17.8441 4.51384 17.7955L9.14157 17.2588C9.51994 17.2149 9.85622 17.475 10.0018 17.8269C10.1596 18.2082 10.3806 18.4997 10.6649 18.7015C11.0927 19.0052 11.5874 19.1245 12.1491 19.0594C12.6527 19.001 13.0255 18.8302 13.2674 18.5469C13.5287 18.2614 13.6325 17.8863 13.5785 17.4214C13.5067 16.8017 13.1708 16.3597 12.5709 16.0956C11.9688 15.8121 11.0341 15.5377 9.76669 15.2725C8.41734 14.9775 7.29186 14.6664 6.39023 14.3391C5.50797 14.0096 4.70753 13.4547 3.98891 12.6743C3.28966 11.8918 2.86254 10.8323 2.70755 9.49585C2.5593 8.21754 2.76166 7.08504 3.31461 6.09835C3.86532 5.0923 4.68509 4.29059 5.77391 3.69322C6.86049 3.07649 8.1301 2.68389 9.58273 2.51542C11.9457 2.24139 13.8895 2.58519 15.4144 3.54683C16.7533 4.3631 17.6501 5.57847 18.1047 7.19293C18.2194 7.60023 17.9245 7.9961 17.5042 8.04485L12.7945 8.59104C12.4272 8.63364 12.0983 8.38877 11.9446 8.05245C11.7985 7.73286 11.6089 7.48633 11.3757 7.31285C11.0299 7.0389 10.5955 6.93224 10.0725 6.99289C9.62707 7.04455 9.29192 7.2012 9.06708 7.46282C8.84225 7.72444 8.75679 8.08767 8.8107 8.55251C8.87808 9.13356 9.20202 9.55727 9.78252 9.82364C10.3824 10.0878 11.2966 10.3547 12.5253 10.6244C13.8769 10.9388 15.0046 11.2692 15.9085 11.6159C16.8124 11.9625 17.6236 12.526 18.3422 13.3063C19.0608 14.0867 19.4988 15.1547 19.656 16.5105Z" fill="url(#paint5_linear)"/>
<path d="M19.656 16.5105C19.7885 17.6533 19.6182 18.7232 19.1449 19.7202C18.6717 20.7173 17.9049 21.5521 16.8444 22.2247C15.7839 22.8973 14.4693 23.3246 12.9004 23.5065C10.5181 23.7828 8.48594 23.4394 6.80395 22.4764C5.34934 21.6319 4.38545 20.3548 3.91228 18.6453C3.79964 18.2383 4.09439 17.8441 4.51384 17.7955L9.14157 17.2588C9.51994 17.2149 9.85622 17.475 10.0018 17.8269C10.1596 18.2082 10.3806 18.4997 10.6649 18.7015C11.0927 19.0052 11.5874 19.1245 12.1491 19.0594C12.6527 19.001 13.0255 18.8302 13.2674 18.5469C13.5287 18.2614 13.6325 17.8863 13.5785 17.4214C13.5067 16.8017 13.1708 16.3597 12.5709 16.0956C11.9688 15.8121 11.0341 15.5377 9.76669 15.2725C8.41734 14.9775 7.29186 14.6664 6.39023 14.3391C5.50797 14.0096 4.70753 13.4547 3.98891 12.6743C3.28966 11.8918 2.86254 10.8323 2.70755 9.49585C2.5593 8.21754 2.76166 7.08504 3.31461 6.09835C3.86532 5.0923 4.68509 4.29059 5.77391 3.69322C6.86049 3.07649 8.1301 2.68389 9.58273 2.51542C11.9457 2.24139 13.8895 2.58519 15.4144 3.54683C16.7533 4.3631 17.6501 5.57847 18.1047 7.19293C18.2194 7.60023 17.9245 7.9961 17.5042 8.04485L12.7945 8.59104C12.4272 8.63364 12.0983 8.38877 11.9446 8.05245C11.7985 7.73286 11.6089 7.48633 11.3757 7.31285C11.0299 7.0389 10.5955 6.93224 10.0725 6.99289C9.62707 7.04455 9.29192 7.2012 9.06708 7.46282C8.84225 7.72444 8.75679 8.08767 8.8107 8.55251C8.87808 9.13356 9.20202 9.55727 9.78252 9.82364C10.3824 10.0878 11.2966 10.3547 12.5253 10.6244C13.8769 10.9388 15.0046 11.2692 15.9085 11.6159C16.8124 11.9625 17.6236 12.526 18.3422 13.3063C19.0608 14.0867 19.4988 15.1547 19.656 16.5105Z" stroke="#7C7C7C" stroke-width="0.913978"/>
</g>
<g filter="url(#filter7_d)">
<path d="M25.3322 37.1498C26.5606 37.4422 27.5257 38.0467 28.2277 38.9631C28.9491 39.8795 29.3098 40.9422 29.3098 42.1511C29.3098 43.9449 28.7151 45.339 27.5257 46.3334C26.3363 47.3083 24.6303 47.7958 22.4075 47.7958H12.9021C12.4983 47.7958 12.1709 47.4684 12.1709 47.0646V27.8199C12.1709 27.416 12.4983 27.0887 12.9021 27.0887H22.1735C24.2598 27.0887 25.8879 27.5469 27.0578 28.4633C28.2472 29.3797 28.8419 30.7056 28.8419 32.4409C28.8419 33.6693 28.5201 34.7027 27.8767 35.5412C27.2333 36.3601 26.3851 36.8963 25.3322 37.1498ZM17.9326 35.3657H20.8281C22.271 35.3657 22.9924 34.7612 22.9924 33.5523C22.9924 32.3045 22.2612 31.6805 20.7989 31.6805H17.9326V35.3657ZM21.1791 43.1747C22.6804 43.1747 23.4311 42.5508 23.4311 41.3029C23.4311 40.016 22.6804 39.3726 21.1791 39.3726H17.9326V43.1747H21.1791Z" fill="url(#paint6_linear)"/>
<path d="M27.8154 46.6868L27.8155 46.6869L27.8189 46.684C29.129 45.5886 29.7668 44.0565 29.7668 42.1511C29.7668 40.8447 29.3747 39.6823 28.5886 38.6828C28.0745 38.0124 27.4328 37.497 26.6717 37.1348C27.2768 36.8161 27.7997 36.3788 28.236 35.8235L28.2361 35.8235L28.2392 35.8194C28.9535 34.8886 29.2989 33.7529 29.2989 32.4409C29.2989 30.5895 28.6573 29.1195 27.3381 28.1024C26.0611 27.1027 24.3207 26.6317 22.1735 26.6317H12.9021C12.2459 26.6317 11.7139 27.1637 11.7139 27.8199V47.0646C11.7139 47.7208 12.2459 48.2528 12.9021 48.2528H22.4075C24.69 48.2528 26.5148 47.7529 27.8154 46.6868ZM20.8281 34.9087H18.3896V32.1375H20.7989C21.4758 32.1375 21.8982 32.2834 22.1474 32.4961C22.3827 32.6969 22.5354 33.0195 22.5354 33.5523C22.5354 34.063 22.3869 34.3702 22.1578 34.562C21.9133 34.7669 21.4969 34.9087 20.8281 34.9087ZM22.9741 41.3029C22.9741 41.8319 22.8191 42.1533 22.576 42.3553C22.3167 42.5708 21.8778 42.7177 21.1791 42.7177H18.3896V39.8295H21.1791C21.8751 39.8295 22.3118 39.9802 22.5707 40.2021C22.8161 40.4125 22.9741 40.7499 22.9741 41.3029Z" stroke="#7C7C7C" stroke-width="0.913978"/>
</g>
<g filter="url(#filter8_d)">
<path d="M40.7411 47.8728C40.4742 47.8641 40.2333 47.7105 40.1127 47.4722L36.3782 40.0922L35.7935 40.073L35.5674 46.9717C35.5542 47.3753 35.2163 47.6918 34.8127 47.6785L30.5156 47.5377C30.112 47.5245 29.7956 47.1866 29.8088 46.783L30.4631 26.8178L39.5542 27.1157C41.2106 27.17 42.6042 27.5083 43.7348 28.1306C44.8855 28.7341 45.7366 29.5521 46.288 30.5846C46.8394 31.6171 47.0944 32.7668 47.0529 34.0335C47.0056 35.4756 46.5649 36.7194 45.7308 37.7651C44.8973 38.7912 43.7233 39.4941 42.2087 39.8736L46.0435 46.9454C46.3128 47.442 45.9414 48.0433 45.3768 48.0248L40.7411 47.8728ZM35.92 36.2145L38.7555 36.3074C40.3534 36.3598 41.1761 35.6649 41.2233 34.2228C41.2457 33.5407 41.0586 32.9981 40.6622 32.595C40.2852 32.1924 39.6972 31.9781 38.8982 31.9519L36.0627 31.859L35.92 36.2145Z" fill="url(#paint7_linear)"/>
<path d="M30.4781 26.361L30.0214 26.3461L30.0064 26.8028L29.3521 46.768C29.3306 47.4239 29.8448 47.973 30.5007 47.9945L34.7977 48.1353C35.4536 48.1568 36.0027 47.6425 36.0242 46.9867L36.2268 40.8052L39.7049 47.6785C39.9009 48.0658 40.2924 48.3154 40.7262 48.3296L45.3619 48.4815C46.2792 48.5116 46.8828 47.5344 46.4453 46.7276L42.8822 40.157C44.2129 39.7317 45.2884 39.0345 46.0855 38.0532L46.088 38.05C46.9885 36.9213 47.4594 35.5807 47.5096 34.0484C47.5535 32.7084 47.2834 31.4784 46.6911 30.3693C46.0925 29.2484 45.1717 28.369 43.9511 27.7281C42.7428 27.064 41.2758 26.7149 39.5691 26.659L30.4781 26.361ZM40.3286 32.9073L40.3285 32.9074L40.3363 32.9154C40.6273 33.2113 40.7858 33.6229 40.7666 34.2079C40.7457 34.8457 40.5581 35.2382 40.276 35.4764C39.9848 35.7224 39.5099 35.8749 38.7704 35.8507L36.3917 35.7727L36.5045 32.3307L38.8832 32.4086C39.6156 32.4326 40.0655 32.6264 40.3286 32.9073Z" stroke="#7C7C7C" stroke-width="0.913978"/>
</g>
<g filter="url(#filter9_d)">
<path d="M95.8933 27.7948C96.3635 27.8183 96.6894 28.2736 96.5598 28.7263L91.1213 47.7236C91.0278 48.0504 90.7214 48.2696 90.3819 48.2527L84.4188 47.9552C84.077 47.9381 83.7928 47.6863 83.7347 47.3491L81.6084 35.018L78.2652 47.0762C78.1737 47.406 77.8659 47.6282 77.5241 47.6112L71.5609 47.3136C71.2215 47.2967 70.9385 47.0481 70.8779 46.7136L67.3575 27.2693C67.2736 26.806 67.6431 26.3853 68.1134 26.4088L72.7645 26.6408C73.1228 26.6587 73.4152 26.9339 73.4548 27.2904L74.9621 40.8652L78.6914 27.5072C78.7833 27.1781 79.0909 26.9565 79.4321 26.9735L84.5465 27.2287C84.8872 27.2457 85.1709 27.496 85.2302 27.832L87.6396 41.4977L90.4906 28.1404C90.5655 27.7896 90.8839 27.5449 91.2422 27.5628L95.8933 27.7948Z" fill="url(#paint8_linear)"/>
<path d="M96.9991 28.8521C97.2097 28.1165 96.6802 27.3765 95.916 27.3384L91.2649 27.1063C90.6827 27.0773 90.1654 27.4749 90.0437 28.045L87.6824 39.1083L85.6802 27.7526C85.5839 27.2067 85.123 26.7999 84.5693 26.7723L79.4549 26.5171C78.9003 26.4894 78.4006 26.8495 78.2513 27.3843L75.156 38.471L73.909 27.24C73.8446 26.6606 73.3695 26.2134 72.7873 26.1844L68.1362 25.9523C67.372 25.9142 66.7715 26.5978 66.9078 27.3507L70.4282 46.795C70.5266 47.3385 70.9865 47.7425 71.5382 47.77L77.5014 48.0676C78.0567 48.0953 78.557 47.7341 78.7055 47.1983L81.5043 37.1038L83.2843 47.4268C83.3788 47.9747 83.8407 48.3839 84.396 48.4116L90.3592 48.7091C90.9108 48.7366 91.4087 48.3804 91.5607 47.8494L96.9991 28.8521Z" stroke="#7C7C7C" stroke-width="0.913978"/>
</g>
<g filter="url(#filter10_d)">
<path d="M101.901 42.7068C101.901 43.1106 102.228 43.4379 102.632 43.4379H107.634C108.037 43.4379 108.365 43.7653 108.365 44.1691V47.0646C108.365 47.4684 108.037 47.7958 107.634 47.7958H96.8706C96.4668 47.7958 96.1394 47.4684 96.1394 47.0646V27.8199C96.1394 27.416 96.4668 27.0887 96.8706 27.0887H101.17C101.574 27.0887 101.901 27.416 101.901 27.8199V42.7068Z" fill="url(#paint9_linear)"/>
<path d="M102.632 42.9809C102.481 42.9809 102.358 42.8582 102.358 42.7068V27.8199C102.358 27.1637 101.826 26.6317 101.17 26.6317H96.8706C96.2144 26.6317 95.6824 27.1637 95.6824 27.8199V47.0646C95.6824 47.7208 96.2144 48.2528 96.8706 48.2528H107.634C108.29 48.2528 108.822 47.7208 108.822 47.0646V44.1691C108.822 43.5129 108.29 42.9809 107.634 42.9809H102.632Z" stroke="#7C7C7C" stroke-width="0.913978"/>
</g>
<g filter="url(#filter11_d)">
<path d="M61.8697 44.3447H54.5286L53.5538 47.2941C53.4548 47.5936 53.1749 47.7958 52.8595 47.7958H48.3813C47.8729 47.7958 47.5197 47.2898 47.695 46.8125L54.7328 27.6555C54.8385 27.3677 55.1126 27.1765 55.4191 27.1765H61.0369C61.3438 27.1765 61.6181 27.3682 61.7236 27.6564L68.7342 46.8134C68.9088 47.2905 68.5556 47.7958 68.0476 47.7958H63.5387C63.2233 47.7958 62.9435 47.5936 62.8445 47.2941L61.8697 44.3447ZM60.4365 40.0161L58.2137 33.2892L55.9617 40.0161H60.4365Z" fill="url(#paint10_linear)"/>
<path d="M53.9877 47.4375L54.8588 44.8016H61.5394L62.4106 47.4375C62.5714 47.9242 63.0262 48.2528 63.5387 48.2528H68.0476C68.8731 48.2528 69.4471 47.4316 69.1634 46.6563L62.1527 27.4993C61.9813 27.031 61.5357 26.7195 61.0369 26.7195H55.4191C54.9209 26.7195 54.4756 27.0303 54.3038 27.4979L47.266 46.6549C46.9811 47.4305 47.5551 48.2528 48.3813 48.2528H52.8595C53.3721 48.2528 53.8268 47.9242 53.9877 47.4375ZM56.5966 39.5591L58.2109 34.7371L59.8042 39.5591H56.5966Z" stroke="#7C7C7C" stroke-width="0.913978"/>
</g>
<defs>
<filter id="filter0_f" x="5.83926" y="43.7746" width="107.484" height="9.32258" filterUnits="userSpaceOnUse" color-interpolation-filters="sRGB">
<feFlood flood-opacity="0" result="BackgroundImageFix"/>
<feBlend mode="normal" in="SourceGraphic" in2="BackgroundImageFix" result="shape"/>
<feGaussianBlur stdDeviation="0.548387" result="effect1_foregroundBlur"/>
</filter>
<filter id="filter1_d" x="36.5679" y="1.44565" width="20.85" height="24.6078" filterUnits="userSpaceOnUse" color-interpolation-filters="sRGB">
<feFlood flood-opacity="0" result="BackgroundImageFix"/>
<feColorMatrix in="SourceAlpha" type="matrix" values="0 0 0 0 0 0 0 0 0 0 0 0 0 0 0 0 0 0 127 0"/>
<feOffset dy="0.731183"/>
<feGaussianBlur stdDeviation="0.365591"/>
<feColorMatrix type="matrix" values="0 0 0 0 0 0 0 0 0 0 0 0 0 0 0 0 0 0 0.25 0"/>
<feBlend mode="normal" in2="BackgroundImageFix" result="effect1_dropShadow"/>
<feBlend mode="normal" in="SourceGraphic" in2="effect1_dropShadow" result="shape"/>
</filter>
<filter id="filter2_d" x="52.5833" y="1.91428" width="24.4218" height="23.9097" filterUnits="userSpaceOnUse" color-interpolation-filters="sRGB">
<feFlood flood-opacity="0" result="BackgroundImageFix"/>
<feColorMatrix in="SourceAlpha" type="matrix" values="0 0 0 0 0 0 0 0 0 0 0 0 0 0 0 0 0 0 127 0"/>
<feOffset dy="0.731183"/>
<feGaussianBlur stdDeviation="0.365591"/>
<feColorMatrix type="matrix" values="0 0 0 0 0 0 0 0 0 0 0 0 0 0 0 0 0 0 0.25 0"/>
<feBlend mode="normal" in2="BackgroundImageFix" result="effect1_dropShadow"/>
<feBlend mode="normal" in="SourceGraphic" in2="effect1_dropShadow" result="shape"/>
</filter>
<filter id="filter3_d" x="100.162" y="1.18283" width="15.5157" height="23.9974" filterUnits="userSpaceOnUse" color-interpolation-filters="sRGB">
<feFlood flood-opacity="0" result="BackgroundImageFix"/>
<feColorMatrix in="SourceAlpha" type="matrix" values="0 0 0 0 0 0 0 0 0 0 0 0 0 0 0 0 0 0 127 0"/>
<feOffset dy="0.731183"/>
<feGaussianBlur stdDeviation="0.365591"/>
<feColorMatrix type="matrix" values="0 0 0 0 0 0 0 0 0 0 0 0 0 0 0 0 0 0 0.25 0"/>
<feBlend mode="normal" in2="BackgroundImageFix" result="effect1_dropShadow"/>
<feBlend mode="normal" in="SourceGraphic" in2="effect1_dropShadow" result="shape"/>
</filter>
<filter id="filter4_d" x="69.5635" y="0.0256653" width="34.4349" height="26.6532" filterUnits="userSpaceOnUse" color-interpolation-filters="sRGB">
<feFlood flood-opacity="0" result="BackgroundImageFix"/>
<feColorMatrix in="SourceAlpha" type="matrix" values="0 0 0 0 0 0 0 0 0 0 0 0 0 0 0 0 0 0 127 0"/>
<feOffset dy="0.731183"/>
<feGaussianBlur stdDeviation="0.365591"/>
<feColorMatrix type="matrix" values="0 0 0 0 0 0 0 0 0 0 0 0 0 0 0 0 0 0 0.25 0"/>
<feBlend mode="normal" in2="BackgroundImageFix" result="effect1_dropShadow"/>
<feBlend mode="normal" in="SourceGraphic" in2="effect1_dropShadow" result="shape"/>
</filter>
<filter id="filter5_d" x="17.1944" y="1.65833" width="23.2094" height="24.3484" filterUnits="userSpaceOnUse" color-interpolation-filters="sRGB">
<feFlood flood-opacity="0" result="BackgroundImageFix"/>
<feColorMatrix in="SourceAlpha" type="matrix" values="0 0 0 0 0 0 0 0 0 0 0 0 0 0 0 0 0 0 127 0"/>
<feOffset dy="0.731183"/>
<feGaussianBlur stdDeviation="0.365591"/>
<feColorMatrix type="matrix" values="0 0 0 0 0 0 0 0 0 0 0 0 0 0 0 0 0 0 0.25 0"/>
<feBlend mode="normal" in2="BackgroundImageFix" result="effect1_dropShadow"/>
<feBlend mode="normal" in="SourceGraphic" in2="effect1_dropShadow" result="shape"/>
</filter>
<filter id="filter6_d" x="0.762225" y="1.04184" width="20.8425" height="25.4141" filterUnits="userSpaceOnUse" color-interpolation-filters="sRGB">
<feFlood flood-opacity="0" result="BackgroundImageFix"/>
<feColorMatrix in="SourceAlpha" type="matrix" values="0 0 0 0 0 0 0 0 0 0 0 0 0 0 0 0 0 0 127 0"/>
<feOffset dy="0.731183"/>
<feGaussianBlur stdDeviation="0.365591"/>
<feColorMatrix type="matrix" values="0 0 0 0 0 0 0 0 0 0 0 0 0 0 0 0 0 0 0.25 0"/>
<feBlend mode="normal" in2="BackgroundImageFix" result="effect1_dropShadow"/>
<feBlend mode="normal" in="SourceGraphic" in2="effect1_dropShadow" result="shape"/>
</filter>
<filter id="filter7_d" x="10.5257" y="26.1747" width="20.4293" height="23.9974" filterUnits="userSpaceOnUse" color-interpolation-filters="sRGB">
<feFlood flood-opacity="0" result="BackgroundImageFix"/>
<feColorMatrix in="SourceAlpha" type="matrix" values="0 0 0 0 0 0 0 0 0 0 0 0 0 0 0 0 0 0 127 0"/>
<feOffset dy="0.731183"/>
<feGaussianBlur stdDeviation="0.365591"/>
<feColorMatrix type="matrix" values="0 0 0 0 0 0 0 0 0 0 0 0 0 0 0 0 0 0 0.25 0"/>
<feBlend mode="normal" in2="BackgroundImageFix" result="effect1_dropShadow"/>
<feBlend mode="normal" in="SourceGraphic" in2="effect1_dropShadow" result="shape"/>
</filter>
<filter id="filter8_d" x="28.1101" y="25.8744" width="20.8357" height="24.5961" filterUnits="userSpaceOnUse" color-interpolation-filters="sRGB">
<feFlood flood-opacity="0" result="BackgroundImageFix"/>
<feColorMatrix in="SourceAlpha" type="matrix" values="0 0 0 0 0 0 0 0 0 0 0 0 0 0 0 0 0 0 127 0"/>
<feOffset dy="0.731183"/>
<feGaussianBlur stdDeviation="0.365591"/>
<feColorMatrix type="matrix" values="0 0 0 0 0 0 0 0 0 0 0 0 0 0 0 0 0 0 0.25 0"/>
<feBlend mode="normal" in2="BackgroundImageFix" result="effect1_dropShadow"/>
<feBlend mode="normal" in="SourceGraphic" in2="effect1_dropShadow" result="shape"/>
</filter>
<filter id="filter9_d" x="64.6609" y="25.4139" width="33.6529" height="25.5195" filterUnits="userSpaceOnUse" color-interpolation-filters="sRGB">
<feFlood flood-opacity="0" result="BackgroundImageFix"/>
<feColorMatrix in="SourceAlpha" type="matrix" values="0 0 0 0 0 0 0 0 0 0 0 0 0 0 0 0 0 0 127 0"/>
<feOffset dy="0.731183"/>
<feGaussianBlur stdDeviation="0.365591"/>
<feColorMatrix type="matrix" values="0 0 0 0 0 0 0 0 0 0 0 0 0 0 0 0 0 0 0.25 0"/>
<feBlend mode="normal" in2="BackgroundImageFix" result="effect1_dropShadow"/>
<feBlend mode="normal" in="SourceGraphic" in2="effect1_dropShadow" result="shape"/>
</filter>
<filter id="filter10_d" x="94.4942" y="26.1747" width="15.5157" height="23.9974" filterUnits="userSpaceOnUse" color-interpolation-filters="sRGB">
<feFlood flood-opacity="0" result="BackgroundImageFix"/>
<feColorMatrix in="SourceAlpha" type="matrix" values="0 0 0 0 0 0 0 0 0 0 0 0 0 0 0 0 0 0 127 0"/>
<feOffset dy="0.731183"/>
<feGaussianBlur stdDeviation="0.365591"/>
<feColorMatrix type="matrix" values="0 0 0 0 0 0 0 0 0 0 0 0 0 0 0 0 0 0 0.25 0"/>
<feBlend mode="normal" in2="BackgroundImageFix" result="effect1_dropShadow"/>
<feBlend mode="normal" in="SourceGraphic" in2="effect1_dropShadow" result="shape"/>
</filter>
<filter id="filter11_d" x="46.0034" y="26.2625" width="24.4218" height="23.9097" filterUnits="userSpaceOnUse" color-interpolation-filters="sRGB">
<feFlood flood-opacity="0" result="BackgroundImageFix"/>
<feColorMatrix in="SourceAlpha" type="matrix" values="0 0 0 0 0 0 0 0 0 0 0 0 0 0 0 0 0 0 127 0"/>
<feOffset dy="0.731183"/>
<feGaussianBlur stdDeviation="0.365591"/>
<feColorMatrix type="matrix" values="0 0 0 0 0 0 0 0 0 0 0 0 0 0 0 0 0 0 0.25 0"/>
<feBlend mode="normal" in2="BackgroundImageFix" result="effect1_dropShadow"/>
<feBlend mode="normal" in="SourceGraphic" in2="effect1_dropShadow" result="shape"/>
</filter>
<linearGradient id="paint0_linear" x1="47.368" y1="2.67156" x2="46.6761" y2="23.3671" gradientUnits="userSpaceOnUse">
<stop stop-color="white"/>
<stop offset="1" stop-color="#CFFCF9"/>
</linearGradient>
<linearGradient id="paint1_linear" x1="64.7936" y1="2.82825" x2="64.7936" y2="23.4476" gradientUnits="userSpaceOnUse">
<stop stop-color="white"/>
<stop offset="1" stop-color="#CFFCF9"/>
</linearGradient>
<linearGradient id="paint2_linear" x1="107.92" y1="2.0968" x2="107.92" y2="22.8039" gradientUnits="userSpaceOnUse">
<stop stop-color="white"/>
<stop offset="1" stop-color="#CFFCF9"/>
</linearGradient>
<linearGradient id="paint3_linear" x1="85.8678" y1="2.30786" x2="87.6941" y2="22.9343" gradientUnits="userSpaceOnUse">
<stop stop-color="white"/>
<stop offset="1" stop-color="#CFFCF9"/>
</linearGradient>
<linearGradient id="paint4_linear" x1="28.8861" y1="2.5723" x2="28.8861" y2="23.6304" gradientUnits="userSpaceOnUse">
<stop stop-color="white"/>
<stop offset="1" stop-color="#CFFCF9"/>
</linearGradient>
<linearGradient id="paint5_linear" x1="9.96041" y1="2.47162" x2="12.4065" y2="23.5638" gradientUnits="userSpaceOnUse">
<stop stop-color="white"/>
<stop offset="1" stop-color="#CFFCF9"/>
</linearGradient>
<linearGradient id="paint6_linear" x1="20.7404" y1="27.0887" x2="20.7404" y2="47.7958" gradientUnits="userSpaceOnUse">
<stop stop-color="white"/>
<stop offset="1" stop-color="#CFFCF9"/>
</linearGradient>
<linearGradient id="paint7_linear" x1="38.8965" y1="27.0942" x2="38.2182" y2="47.7902" gradientUnits="userSpaceOnUse">
<stop stop-color="white"/>
<stop offset="1" stop-color="#CFFCF9"/>
</linearGradient>
<linearGradient id="paint8_linear" x1="82.0033" y1="27.1018" x2="80.9714" y2="47.7832" gradientUnits="userSpaceOnUse">
<stop stop-color="white"/>
<stop offset="1" stop-color="#CFFCF9"/>
</linearGradient>
<linearGradient id="paint9_linear" x1="102.252" y1="27.0887" x2="102.252" y2="47.7958" gradientUnits="userSpaceOnUse">
<stop stop-color="white"/>
<stop offset="1" stop-color="#CFFCF9"/>
</linearGradient>
<linearGradient id="paint10_linear" x1="58.2137" y1="27.1765" x2="58.2137" y2="47.7958" gradientUnits="userSpaceOnUse">
<stop stop-color="white"/>
<stop offset="1" stop-color="#CFFCF9"/>
</linearGradient>
</defs>
</svg>
