<svg width="1333" height="209" viewBox="0 0 1333 209" fill="none" xmlns="http://www.w3.org/2000/svg">
<g filter="url(#filter0_d_1547_340)">
<path d="M402.68 140.936L362.533 141.947L357.607 158.211C357.107 159.863 355.605 161.007 353.88 161.051L329.389 161.667C326.609 161.737 324.607 159.018 325.5 156.384L361.352 50.6482C361.89 49.0598 363.363 47.9761 365.039 47.9339L395.762 47.1605C397.44 47.1182 398.967 48.1287 399.583 49.6904L440.561 153.492C441.581 156.077 439.719 158.89 436.941 158.96L412.283 159.58C410.558 159.624 409 158.556 408.417 156.932L402.68 140.936ZM394.246 117.461L381.164 80.9786L369.774 118.077L394.246 117.461Z" fill="url(#paint0_linear_1547_340)"/>
<path d="M360 158.936L364.402 144.401L400.937 143.481L406.064 157.776C407.01 160.415 409.543 162.15 412.346 162.079L437.004 161.459C441.519 161.345 444.545 156.775 442.886 152.574L401.909 48.7724C400.907 46.2346 398.427 44.5926 395.699 44.6613L364.976 45.4347C362.252 45.5033 359.859 47.2643 358.984 49.8454L323.133 155.581C321.681 159.862 324.934 164.28 329.452 164.166L353.943 163.55C356.746 163.479 359.188 161.619 360 158.936ZM373.183 115.49L381.348 88.8977L390.725 115.049L373.183 115.49Z" stroke="#1D1D1D" stroke-width="5"/>
</g>
<g filter="url(#filter1_d_1547_340)">
<path d="M617.187 131.775C617.003 133.977 618.639 135.91 620.841 136.094L648.106 138.367C650.308 138.551 651.943 140.484 651.76 142.685L650.444 158.471C650.26 160.672 648.327 162.308 646.125 162.125L587.449 157.233C585.248 157.049 583.612 155.116 583.795 152.914L592.542 47.9984C592.725 45.7969 594.659 44.161 596.86 44.3445L620.299 46.2985C622.5 46.4821 624.136 48.4155 623.953 50.617L617.187 131.775Z" fill="url(#paint1_linear_1547_340)"/>
<path d="M621.048 133.603C620.223 133.534 619.609 132.809 619.678 131.983L626.444 50.8247C626.742 47.2473 624.084 44.1054 620.506 43.8072L597.068 41.8532C593.49 41.5549 590.349 44.2132 590.05 47.7907L581.304 152.707C581.006 156.284 583.664 159.426 587.241 159.724L645.918 164.616C649.495 164.914 652.637 162.256 652.935 158.678L654.251 142.893C654.549 139.316 651.891 136.174 648.314 135.876L621.048 133.603Z" stroke="#1D1D1D" stroke-width="5"/>
</g>
<g filter="url(#filter2_d_1547_340)">
<path d="M575.859 41.2723C578.429 41.0926 580.496 43.3532 580.087 45.8966L562.952 152.631C562.658 154.467 561.137 155.858 559.282 155.987L526.698 158.265C524.831 158.395 523.123 157.213 522.587 155.42L502.987 89.8315L492.701 157.509C492.42 159.359 490.893 160.767 489.026 160.898L456.443 163.175C454.588 163.305 452.888 162.139 452.341 160.362L420.524 57.0493C419.766 54.5875 421.499 52.0614 424.068 51.8818L449.482 50.1055C451.44 49.9686 453.208 51.2723 453.655 53.183L470.705 125.93L482.24 50.9412C482.524 49.0937 484.05 47.6893 485.914 47.559L513.86 45.6057C515.721 45.4756 517.426 46.6502 517.967 48.4363L539.976 121.088L546.741 46.6767C546.918 44.7223 548.487 43.1854 550.445 43.0486L575.859 41.2723Z" fill="url(#paint2_linear_1547_340)"/>
<path d="M582.556 46.2928C583.219 42.1599 579.86 38.4865 575.685 38.7783L550.271 40.5547C547.09 40.777 544.539 43.2744 544.251 46.4504L538.648 108.082L520.359 47.7115C519.48 44.809 516.711 42.9004 513.685 43.1118L485.74 45.0651C482.71 45.2769 480.231 47.5589 479.769 50.5611L470.196 112.8L456.089 52.6125C455.362 49.5076 452.489 47.3892 449.308 47.6115L423.894 49.3879C419.718 49.6797 416.903 53.7847 418.135 57.7851L449.952 161.098C450.841 163.986 453.603 165.88 456.617 165.669L489.2 163.392C492.234 163.18 494.716 160.892 495.173 157.884L503.784 101.229L520.192 156.136C521.063 159.05 523.838 160.971 526.873 160.759L559.456 158.481C562.47 158.271 564.942 156.011 565.421 153.027L582.556 46.2928Z" stroke="#1D1D1D" stroke-width="5"/>
</g>
<g filter="url(#filter3_d_1547_340)">
<path d="M175.471 45.0795C185.175 44.8352 193.858 46.4305 201.52 49.8654C209.286 53.1911 215.652 58.0991 220.616 64.5895C224.651 69.7794 227.681 75.6998 229.707 82.3506C230.441 84.7616 228.599 87.1157 226.079 87.1792L200.531 87.8224C198.902 87.8634 197.439 86.8947 196.633 85.4786C194.769 82.2063 192.257 79.6157 189.097 77.7069C185.193 75.2444 180.736 74.0762 175.724 74.2024C168.793 74.3769 163.261 77.1303 159.127 82.4627C154.99 87.6885 153.031 94.62 153.248 103.257C153.466 111.895 155.773 118.772 160.17 123.89C164.567 129.007 170.231 131.479 177.162 131.304C182.174 131.178 186.567 129.787 190.341 127.131C193.4 124.978 195.778 122.212 197.475 118.831C198.206 117.375 199.619 116.334 201.248 116.293L226.815 115.65C229.328 115.586 231.285 117.835 230.687 120.276C227.964 131.39 222.477 140.517 214.225 147.657C204.931 155.68 192.979 159.875 178.37 160.243C167.174 160.525 157.303 158.373 148.759 153.786C140.318 149.091 133.695 142.428 128.889 133.8C124.191 125.169 121.7 115.255 121.418 104.059C121.137 92.8621 123.125 82.8356 127.383 73.9789C131.748 65.1196 138.029 58.186 146.226 53.1781C154.526 48.0609 164.275 45.3614 175.471 45.0795Z" fill="url(#paint3_linear_1547_340)"/>
<path d="M187.763 79.8213L187.783 79.8343L187.804 79.8469C190.591 81.5303 192.804 83.8069 194.46 86.7159C195.644 88.7944 197.896 90.3895 200.594 90.3216L226.142 89.6784C230.171 89.577 233.355 85.7489 232.098 81.6222C229.989 74.6996 226.825 68.5052 222.596 63.0625C217.366 56.2281 210.659 51.063 202.523 47.5756C194.476 43.9716 185.419 42.3283 175.408 42.5803C163.838 42.8716 153.647 45.6673 144.918 51.0474C136.308 56.3092 129.708 63.604 125.141 72.874L125.135 72.8848L125.13 72.8956C120.677 82.1565 118.629 92.5846 118.919 104.121C119.21 115.658 121.78 125.97 126.694 134.995L126.699 135.006L126.705 135.016C131.732 144.042 138.686 151.044 147.543 155.971L147.56 155.98L147.576 155.989C156.559 160.811 166.871 163.033 178.433 162.742C193.505 162.363 206.047 158.019 215.859 149.549L215.861 149.547C224.524 142.051 230.275 132.462 233.115 120.871C234.138 116.695 230.772 113.049 226.752 113.15L201.185 113.794C198.488 113.862 196.316 115.567 195.24 117.71C193.727 120.726 191.62 123.174 188.902 125.087C185.566 127.434 181.662 128.69 177.099 128.805C170.894 128.961 165.958 126.791 162.066 122.26C158.139 117.69 155.955 111.42 155.748 103.194C155.54 94.9656 157.41 88.6601 161.087 84.0143L161.095 84.0044L161.103 83.9944C164.762 79.2741 169.583 76.8578 175.787 76.7016C180.35 76.5867 184.313 77.6449 187.763 79.8213Z" stroke="#1D1D1D" stroke-width="5"/>
</g>
<g filter="url(#filter4_d_1547_340)">
<path d="M126.354 124.592C127.236 130.824 126.452 136.698 124.001 142.216C121.55 147.734 117.471 152.405 111.765 156.23C106.058 160.054 98.9267 162.572 90.372 163.783C77.3815 165.622 66.2207 164.024 56.8895 158.988C48.8182 154.57 43.371 147.719 40.5479 138.435C39.8759 136.225 41.4335 134.028 43.7207 133.705L68.9552 130.132C71.0184 129.84 72.8933 131.216 73.7382 133.121C74.6533 135.184 75.9021 136.748 77.4847 137.813C79.8661 139.415 82.5882 139.999 85.651 139.565C88.397 139.177 90.4121 138.191 91.6963 136.609C93.0861 135.012 93.6016 132.946 93.2428 130.411C92.7644 127.031 90.8667 124.661 87.5497 123.299C84.2178 121.831 79.0681 120.459 72.1004 119.183C64.6805 117.756 58.4825 116.21 53.5066 114.544C48.6363 112.863 44.1824 109.939 40.1449 105.77C36.2131 101.587 33.7313 95.8511 32.6997 88.5637C31.713 81.5932 32.6637 75.3719 35.5519 69.8997C38.4251 64.3219 42.7979 59.8246 48.6703 56.4078C54.5277 52.8854 61.417 50.5635 69.338 49.4422C82.2229 47.6182 92.901 49.2308 101.372 54.2799C108.807 58.5596 113.879 65.0828 116.588 73.8495C117.271 76.0612 115.713 78.2667 113.421 78.5912L87.7393 82.2266C85.7362 82.5102 83.9042 81.2163 83.0171 79.3982C82.1741 77.6705 81.1031 76.3484 79.8041 75.4318C77.8751 73.9812 75.4848 73.4577 72.6332 73.8614C70.2041 74.2053 68.3928 75.108 67.1992 76.5698C66.0056 78.0315 65.5882 80.0297 65.9471 82.5645C66.3956 85.7329 68.2255 88.0055 71.4369 89.3823C74.7538 90.7441 79.7905 92.078 86.5469 93.3839C93.9818 94.9169 100.195 96.5691 105.186 98.3404C110.176 100.112 114.691 103.082 118.728 107.25C122.766 111.419 125.308 117.2 126.354 124.592Z" fill="url(#paint4_linear_1547_340)"/>
<path d="M126.354 124.592C127.236 130.824 126.452 136.698 124.001 142.216C121.55 147.734 117.471 152.405 111.765 156.23C106.058 160.054 98.9267 162.572 90.372 163.783C77.3815 165.622 66.2207 164.024 56.8895 158.988C48.8182 154.57 43.371 147.719 40.5479 138.435C39.8759 136.225 41.4335 134.028 43.7207 133.705L68.9552 130.132C71.0184 129.84 72.8933 131.216 73.7382 133.121C74.6533 135.184 75.9021 136.748 77.4847 137.813C79.8661 139.415 82.5882 139.999 85.651 139.565C88.397 139.177 90.4121 138.191 91.6963 136.609C93.0861 135.012 93.6016 132.946 93.2428 130.411C92.7644 127.031 90.8667 124.661 87.5497 123.299C84.2178 121.831 79.0681 120.459 72.1004 119.183C64.6805 117.756 58.4825 116.21 53.5066 114.544C48.6363 112.863 44.1824 109.939 40.1449 105.77C36.2131 101.587 33.7313 95.8511 32.6997 88.5637C31.713 81.5932 32.6637 75.3719 35.5519 69.8997C38.4251 64.3219 42.7979 59.8246 48.6703 56.4078C54.5277 52.8854 61.417 50.5635 69.338 49.4422C82.2229 47.6182 92.901 49.2308 101.372 54.2799C108.807 58.5596 113.879 65.0828 116.588 73.8495C117.271 76.0612 115.713 78.2667 113.421 78.5912L87.7393 82.2266C85.7362 82.5102 83.9042 81.2163 83.0171 79.3982C82.1741 77.6705 81.1031 76.3484 79.8041 75.4318C77.8751 73.9812 75.4848 73.4577 72.6332 73.8614C70.2041 74.2053 68.3928 75.108 67.1992 76.5698C66.0056 78.0315 65.5882 80.0297 65.9471 82.5645C66.3956 85.7329 68.2255 88.0055 71.4369 89.3823C74.7538 90.7441 79.7905 92.078 86.5469 93.3839C93.9818 94.9169 100.195 96.5691 105.186 98.3404C110.176 100.112 114.691 103.082 118.728 107.25C122.766 111.419 125.308 117.2 126.354 124.592Z" stroke="#1D1D1D" stroke-width="5"/>
</g>
<g filter="url(#filter5_d_1547_340)">
<path d="M289.219 164.644C287.769 164.463 286.533 163.505 285.995 162.147L269.337 120.078L266.161 119.681L261.484 157.15C261.21 159.342 259.211 160.898 257.019 160.624L233.68 157.711C231.488 157.437 229.933 155.438 230.207 153.246L243.743 44.8076L293.12 50.9713C302.117 52.0944 309.539 54.6334 315.388 58.5883C321.355 62.4506 325.583 67.3319 328.072 73.2322C330.56 79.1326 331.375 85.5227 330.516 92.4026C329.538 100.235 326.516 106.791 321.45 112.071C316.397 117.245 309.65 120.488 301.209 121.799L318.568 162.24C319.787 165.079 317.463 168.169 314.397 167.787L289.219 164.644ZM268.777 98.7238L284.178 100.646C292.857 101.73 297.686 98.3552 298.663 90.5226C299.126 86.818 298.378 83.7686 296.419 81.3742C294.567 78.993 291.471 77.5316 287.131 76.9899L271.73 75.0674L268.777 98.7238Z" fill="url(#paint5_linear_1547_340)"/>
<path d="M244.053 42.3269L241.572 42.0172L241.262 44.4979L227.726 152.936C227.281 156.499 229.809 159.747 233.371 160.191L256.71 163.105C260.272 163.549 263.52 161.022 263.965 157.46L268.156 123.886L283.671 163.067C284.545 165.275 286.553 166.83 288.909 167.124L314.087 170.267C319.07 170.889 322.846 165.868 320.866 161.253L304.737 123.679C312.198 122.027 318.406 118.766 323.238 113.818L323.246 113.81L323.254 113.802C328.723 108.103 331.958 101.035 332.997 92.7123C333.905 85.4343 333.048 78.5984 330.375 72.2608C327.674 65.8553 323.097 60.6048 316.767 56.5032C310.517 52.2823 302.699 49.6477 293.43 48.4906L244.053 42.3269ZM294.446 82.9094L294.465 82.9334L294.484 82.957C295.922 84.7144 296.579 87.0361 296.183 90.2129C295.75 93.6773 294.532 95.7217 292.877 96.8788C291.167 98.0735 288.504 98.6669 284.488 98.1655L271.568 96.5527L273.902 77.8578L286.821 79.4706C290.799 79.9672 293.153 81.2476 294.446 82.9094Z" stroke="#1D1D1D" stroke-width="5"/>
</g>
<g filter="url(#filter6_d_1547_340)">
<path d="M749.748 96.4039C756.567 97.5037 762.077 100.412 766.276 105.128C770.582 109.837 772.979 115.488 773.467 122.084C774.191 131.87 771.509 139.716 765.422 145.621C759.327 151.42 750.215 154.768 738.089 155.666L686.23 159.502C684.027 159.665 682.109 158.012 681.946 155.809L674.178 50.8155C674.015 48.6124 675.669 46.6943 677.872 46.5313L728.454 42.7889C739.836 41.9468 748.903 43.7894 755.656 48.3169C762.515 52.8364 766.294 59.8299 766.995 69.2974C767.49 75.9991 766.152 81.7669 762.98 86.6007C759.801 91.3283 755.39 94.596 749.748 96.4039ZM708.658 89.6573L724.455 88.4885C732.327 87.9061 736.018 84.3173 735.53 77.7219C735.027 70.9139 730.786 67.805 722.808 68.3953L707.17 69.5522L708.658 89.6573ZM729.522 130.95C737.713 130.344 741.556 126.637 741.052 119.829C740.533 112.808 736.178 109.601 727.987 110.207L710.275 111.518L711.81 132.261L729.522 130.95Z" fill="url(#paint6_linear_1547_340)"/>
<path d="M767.145 147.433L767.154 147.424L767.163 147.416C773.868 140.911 776.729 132.295 775.96 121.899C775.433 114.772 772.825 108.589 768.133 103.453C765.057 100.003 761.348 97.4506 757.05 95.7816C760.222 93.7985 762.899 91.2019 765.055 87.996L765.063 87.9842L765.071 87.9723C768.592 82.6061 770.017 76.2707 769.488 69.1129C768.741 59.0121 764.647 51.2512 757.04 46.2348C749.669 41.2962 739.984 39.429 728.269 40.2957L677.687 44.0381C674.107 44.303 671.42 47.4199 671.685 51L679.453 155.993C679.718 159.573 682.835 162.261 686.415 161.996L738.273 158.159C750.726 157.238 760.48 153.774 767.145 147.433ZM724.27 85.9953L710.967 86.9796L709.848 71.861L722.992 70.8885C726.685 70.6152 729.049 71.241 730.494 72.3005C731.859 73.3011 732.822 74.9992 733.037 77.9064C733.243 80.6925 732.557 82.4281 731.385 83.5675C730.134 84.7839 727.919 85.7254 724.27 85.9953ZM738.559 120.014C738.773 122.9 738.057 124.716 736.812 125.916C735.485 127.196 733.149 128.175 729.337 128.457L714.119 129.583L712.953 113.826L728.171 112.7C731.968 112.419 734.412 113.065 735.914 114.171C737.338 115.22 738.336 116.997 738.559 120.014Z" stroke="#1D1D1D" stroke-width="5"/>
</g>
<g filter="url(#filter7_d_1547_340)">
<path d="M835.282 162.248C833.826 162.128 832.551 161.224 831.956 159.889L813.545 118.557L810.356 118.294L807.257 155.927C807.076 158.128 805.144 159.766 802.942 159.585L779.501 157.655C777.3 157.473 775.662 155.542 775.843 153.34L784.812 44.4285L834.404 48.5122C843.44 49.2563 850.963 51.4811 856.972 55.1868C863.097 58.795 867.526 63.4943 870.26 69.2849C872.994 75.0755 874.076 81.4257 873.507 88.3357C872.86 96.2024 870.116 102.88 865.276 108.368C860.444 113.749 853.84 117.273 845.461 118.937L864.504 158.613C865.842 161.399 863.65 164.584 860.57 164.33L835.282 162.248ZM812.089 97.2452L827.557 98.5189C836.274 99.2368 840.956 95.6623 841.604 87.7956C841.91 84.0749 841.035 81.0595 838.978 78.7495C837.027 76.4483 833.872 75.1183 829.513 74.7593L814.045 73.4856L812.089 97.2452Z" fill="url(#paint7_linear_1547_340)"/>
<path d="M785.017 41.9369L782.525 41.7317L782.32 44.2233L773.352 153.135C773.057 156.712 775.718 159.852 779.296 160.146L802.737 162.076C806.315 162.371 809.454 159.71 809.748 156.132L812.525 122.411L829.673 160.906C830.639 163.075 832.711 164.545 835.077 164.739L860.365 166.822C865.369 167.234 868.931 162.058 866.758 157.531L849.065 120.668C856.451 118.703 862.516 115.184 867.136 110.038L867.143 110.03L867.151 110.021C872.375 104.097 875.311 96.8994 875.999 88.5408C876.601 81.2311 875.457 74.4372 872.521 68.2175C869.552 61.9311 864.759 56.8776 858.263 53.0456C851.84 49.0911 843.919 46.7872 834.609 46.0206L785.017 41.9369ZM837.071 80.3663L837.09 80.3895L837.111 80.4123C838.621 82.1077 839.375 84.3997 839.112 87.5904C838.826 91.0699 837.695 93.1637 836.089 94.3893C834.432 95.6547 831.796 96.3596 827.762 96.0274L814.786 94.9588L816.332 76.1824L829.308 77.2509C833.303 77.5799 835.709 78.7603 837.071 80.3663Z" stroke="#1D1D1D" stroke-width="5"/>
</g>
<g filter="url(#filter8_d_1547_340)">
<path d="M1133 53.9471C1135.57 54.0118 1137.41 56.4581 1136.77 58.9513L1109.6 163.582C1109.13 165.382 1107.48 166.622 1105.62 166.575L1072.97 165.755C1071.1 165.708 1069.51 164.37 1069.15 162.533L1055.85 95.3832L1039.2 161.781C1038.74 163.597 1037.09 164.854 1035.22 164.807L1002.57 163.987C1000.71 163.94 999.126 162.619 998.749 160.798L976.865 54.935C976.343 52.4125 978.307 50.0619 980.883 50.1265L1006.35 50.7662C1008.31 50.8155 1009.95 52.2807 1010.21 54.2253L1020.29 128.261L1038.88 54.702C1039.34 52.8897 1040.99 51.6363 1042.86 51.6832L1070.86 52.3866C1072.73 52.4334 1074.32 53.7642 1074.69 55.5935L1089.71 130.004L1103.5 56.5682C1103.86 54.6394 1105.57 53.2582 1107.53 53.3074L1133 53.9471Z" fill="url(#paint8_linear_1547_340)"/>
<path d="M1139.19 59.5796C1140.24 55.5282 1137.24 51.553 1133.06 51.4479L1107.59 50.8082C1104.4 50.7282 1101.63 52.9727 1101.04 56.107L1089.62 116.931L1077.14 55.0987C1076.54 52.126 1073.96 49.9635 1070.93 49.8874L1042.92 49.184C1039.89 49.1077 1037.2 51.1446 1036.46 54.0895L1021.03 115.141L1012.69 53.888C1012.26 50.7281 1009.6 48.3471 1006.41 48.267L980.945 47.6273C976.761 47.5222 973.569 51.342 974.417 55.4412L996.301 161.304C996.913 164.263 999.483 166.41 1002.5 166.486L1035.16 167.306C1038.2 167.383 1040.88 165.34 1041.62 162.389L1055.56 106.804L1066.7 163.019C1067.29 166.003 1069.87 168.178 1072.91 168.254L1105.56 169.075C1108.58 169.15 1111.26 167.135 1112.02 164.21L1139.19 59.5796Z" stroke="#1D1D1D" stroke-width="5"/>
</g>
<g filter="url(#filter9_d_1547_340)">
<path d="M1169.1 137.007C1168.79 139.195 1170.31 141.219 1172.5 141.527L1199.59 145.352C1201.78 145.661 1203.3 147.684 1202.99 149.872L1200.78 165.556C1200.47 167.744 1198.45 169.267 1196.26 168.958L1137.96 160.727C1135.77 160.418 1134.25 158.395 1134.56 156.207L1149.27 51.961C1149.58 49.7735 1151.6 48.2506 1153.79 48.5594L1177.08 51.8472C1179.27 52.156 1180.79 54.1796 1180.48 56.367L1169.1 137.007Z" fill="url(#paint9_linear_1547_340)"/>
<path d="M1172.85 139.052C1172.03 138.936 1171.46 138.177 1171.57 137.357L1182.96 56.7165C1183.46 53.1619 1180.98 49.8735 1177.43 49.3717L1154.14 46.0839C1150.59 45.5821 1147.3 48.0569 1146.8 51.6115L1132.08 155.858C1131.58 159.412 1134.05 162.701 1137.61 163.203L1195.91 171.433C1199.46 171.935 1202.75 169.46 1203.25 165.906L1205.47 150.221C1205.97 146.667 1203.5 143.378 1199.94 142.876L1172.85 139.052Z" stroke="#1D1D1D" stroke-width="5"/>
</g>
<g filter="url(#filter10_d_1547_340)">
<path d="M948.678 145.677L908.567 143.694L902.444 159.546C901.822 161.156 900.238 162.185 898.515 162.1L874.047 160.89C871.269 160.753 869.475 157.893 870.562 155.332L914.191 52.5612C914.846 51.0174 916.395 50.0463 918.071 50.1292L948.766 51.6467C950.443 51.7296 951.889 52.851 952.388 54.4543L985.518 161.02C986.344 163.674 984.277 166.34 981.501 166.203L956.865 164.985C955.142 164.9 953.668 163.719 953.208 162.056L948.678 145.677ZM942.017 121.639L931.689 84.2833L917.567 120.43L942.017 121.639Z" fill="url(#paint10_linear_1547_340)"/>
<path d="M904.776 160.447L910.248 146.28L946.75 148.085L950.798 162.722C951.545 165.425 953.941 167.343 956.742 167.482L981.378 168.7C985.889 168.923 989.247 164.591 987.906 160.278L954.775 53.7121C953.965 51.1067 951.614 49.2844 948.889 49.1497L918.194 47.6322C915.472 47.4976 912.955 49.0755 911.89 51.5843L868.261 154.355C866.495 158.516 869.409 163.164 873.923 163.387L898.392 164.597C901.192 164.736 903.766 163.063 904.776 160.447ZM921.159 118.105L931.282 92.1941L938.685 118.971L921.159 118.105Z" stroke="#1D1D1D" stroke-width="5"/>
</g>
<path d="M1225.41 155.248C1225.41 146.988 1218.72 140.292 1210.46 140.292C1202.2 140.292 1195.5 146.988 1195.5 155.248C1195.5 163.509 1202.2 170.205 1210.46 170.205C1218.72 170.205 1225.41 163.509 1225.41 155.248Z" fill="url(#paint11_linear_1547_340)" stroke="#1D1D1D" stroke-width="5"/>
<path d="M1271.55 107.873C1271.11 105.473 1269.17 103.633 1266.75 103.33L1255.38 101.902C1251.58 101.425 1248.44 104.826 1249.22 108.574L1261.01 165.409C1261.49 167.747 1263.41 169.517 1265.78 169.814L1283.06 171.984C1285.43 172.281 1287.73 171.04 1288.78 168.895L1314.24 116.736C1315.92 113.297 1313.72 109.226 1309.92 108.749L1298.56 107.322C1296.13 107.018 1293.79 108.325 1292.78 110.548L1277.94 143.162L1271.55 107.873Z" fill="url(#paint12_linear_1547_340)" stroke="#1D1D1D" stroke-width="5"/>
<path d="M1198.43 115.473L1198.43 115.473C1199 118.043 1201.54 119.667 1204.11 119.101L1217.81 116.08L1228.59 164.944C1229.15 167.514 1231.69 169.138 1234.26 168.572L1248.88 165.35C1251.45 164.784 1253.07 162.242 1252.51 159.672L1241.73 110.808L1246.82 109.686L1249.23 109.155L1248.73 106.737L1248.64 106.28L1246.19 106.787L1248.64 106.28C1248.06 103.504 1250.39 100.986 1253.2 101.339L1255.75 101.66L1259.27 102.101L1258.51 98.6408L1256.87 91.2397L1254.43 91.7778L1256.87 91.2397C1256.31 88.6698 1253.77 87.0457 1251.2 87.6122L1199.67 98.9689C1197.1 99.5354 1195.48 102.078 1196.05 104.648L1198.43 115.473Z" fill="url(#paint13_linear_1547_340)" stroke="#1D1D1D" stroke-width="5"/>
<defs>
<filter id="filter0_d_1547_340" x="316.281" y="42.1592" width="133.567" height="132.509" filterUnits="userSpaceOnUse" color-interpolation-filters="sRGB">
<feFlood flood-opacity="0" result="BackgroundImageFix"/>
<feColorMatrix in="SourceAlpha" type="matrix" values="0 0 0 0 0 0 0 0 0 0 0 0 0 0 0 0 0 0 127 0" result="hardAlpha"/>
<feOffset dy="4"/>
<feGaussianBlur stdDeviation="2"/>
<feColorMatrix type="matrix" values="0 0 0 0 0 0 0 0 0 0 0 0 0 0 0 0 0 0 0.25 0"/>
<feBlend mode="normal" in2="BackgroundImageFix" result="effect1_dropShadow_1547_340"/>
<feBlend mode="normal" in="SourceGraphic" in2="effect1_dropShadow_1547_340" result="shape"/>
</filter>
<filter id="filter1_d_1547_340" x="574.781" y="39.3301" width="85.9932" height="135.809" filterUnits="userSpaceOnUse" color-interpolation-filters="sRGB">
<feFlood flood-opacity="0" result="BackgroundImageFix"/>
<feColorMatrix in="SourceAlpha" type="matrix" values="0 0 0 0 0 0 0 0 0 0 0 0 0 0 0 0 0 0 127 0" result="hardAlpha"/>
<feOffset dy="4"/>
<feGaussianBlur stdDeviation="2"/>
<feColorMatrix type="matrix" values="0 0 0 0 0 0 0 0 0 0 0 0 0 0 0 0 0 0 0.25 0"/>
<feBlend mode="normal" in2="BackgroundImageFix" result="effect1_dropShadow_1547_340"/>
<feBlend mode="normal" in="SourceGraphic" in2="effect1_dropShadow_1547_340" result="shape"/>
</filter>
<filter id="filter2_d_1547_340" x="411.342" y="36.262" width="177.799" height="139.923" filterUnits="userSpaceOnUse" color-interpolation-filters="sRGB">
<feFlood flood-opacity="0" result="BackgroundImageFix"/>
<feColorMatrix in="SourceAlpha" type="matrix" values="0 0 0 0 0 0 0 0 0 0 0 0 0 0 0 0 0 0 127 0" result="hardAlpha"/>
<feOffset dy="4"/>
<feGaussianBlur stdDeviation="2"/>
<feColorMatrix type="matrix" values="0 0 0 0 0 0 0 0 0 0 0 0 0 0 0 0 0 0 0.25 0"/>
<feBlend mode="normal" in2="BackgroundImageFix" result="effect1_dropShadow_1547_340"/>
<feBlend mode="normal" in="SourceGraphic" in2="effect1_dropShadow_1547_340" result="shape"/>
</filter>
<filter id="filter3_d_1547_340" x="112.393" y="40.0552" width="127.413" height="133.212" filterUnits="userSpaceOnUse" color-interpolation-filters="sRGB">
<feFlood flood-opacity="0" result="BackgroundImageFix"/>
<feColorMatrix in="SourceAlpha" type="matrix" values="0 0 0 0 0 0 0 0 0 0 0 0 0 0 0 0 0 0 127 0" result="hardAlpha"/>
<feOffset dy="4"/>
<feGaussianBlur stdDeviation="2"/>
<feColorMatrix type="matrix" values="0 0 0 0 0 0 0 0 0 0 0 0 0 0 0 0 0 0 0.25 0"/>
<feBlend mode="normal" in2="BackgroundImageFix" result="effect1_dropShadow_1547_340"/>
<feBlend mode="normal" in="SourceGraphic" in2="effect1_dropShadow_1547_340" result="shape"/>
</filter>
<filter id="filter4_d_1547_340" x="25.8232" y="46.2166" width="107.381" height="128.804" filterUnits="userSpaceOnUse" color-interpolation-filters="sRGB">
<feFlood flood-opacity="0" result="BackgroundImageFix"/>
<feColorMatrix in="SourceAlpha" type="matrix" values="0 0 0 0 0 0 0 0 0 0 0 0 0 0 0 0 0 0 127 0" result="hardAlpha"/>
<feOffset dy="4"/>
<feGaussianBlur stdDeviation="2"/>
<feColorMatrix type="matrix" values="0 0 0 0 0 0 0 0 0 0 0 0 0 0 0 0 0 0 0.25 0"/>
<feBlend mode="normal" in2="BackgroundImageFix" result="effect1_dropShadow_1547_340"/>
<feBlend mode="normal" in="SourceGraphic" in2="effect1_dropShadow_1547_340" result="shape"/>
</filter>
<filter id="filter5_d_1547_340" x="221.175" y="39.2268" width="118.672" height="141.594" filterUnits="userSpaceOnUse" color-interpolation-filters="sRGB">
<feFlood flood-opacity="0" result="BackgroundImageFix"/>
<feColorMatrix in="SourceAlpha" type="matrix" values="0 0 0 0 0 0 0 0 0 0 0 0 0 0 0 0 0 0 127 0" result="hardAlpha"/>
<feOffset dy="4"/>
<feGaussianBlur stdDeviation="2"/>
<feColorMatrix type="matrix" values="0 0 0 0 0 0 0 0 0 0 0 0 0 0 0 0 0 0 0.25 0"/>
<feBlend mode="normal" in2="BackgroundImageFix" result="effect1_dropShadow_1547_340"/>
<feBlend mode="normal" in="SourceGraphic" in2="effect1_dropShadow_1547_340" result="shape"/>
</filter>
<filter id="filter6_d_1547_340" x="665.167" y="37.5911" width="117.415" height="134.923" filterUnits="userSpaceOnUse" color-interpolation-filters="sRGB">
<feFlood flood-opacity="0" result="BackgroundImageFix"/>
<feColorMatrix in="SourceAlpha" type="matrix" values="0 0 0 0 0 0 0 0 0 0 0 0 0 0 0 0 0 0 127 0" result="hardAlpha"/>
<feOffset dy="4"/>
<feGaussianBlur stdDeviation="2"/>
<feColorMatrix type="matrix" values="0 0 0 0 0 0 0 0 0 0 0 0 0 0 0 0 0 0 0.25 0"/>
<feBlend mode="normal" in2="BackgroundImageFix" result="effect1_dropShadow_1547_340"/>
<feBlend mode="normal" in="SourceGraphic" in2="effect1_dropShadow_1547_340" result="shape"/>
</filter>
<filter id="filter7_d_1547_340" x="766.829" y="39.0349" width="115.825" height="138.311" filterUnits="userSpaceOnUse" color-interpolation-filters="sRGB">
<feFlood flood-opacity="0" result="BackgroundImageFix"/>
<feColorMatrix in="SourceAlpha" type="matrix" values="0 0 0 0 0 0 0 0 0 0 0 0 0 0 0 0 0 0 127 0" result="hardAlpha"/>
<feOffset dy="4"/>
<feGaussianBlur stdDeviation="2"/>
<feColorMatrix type="matrix" values="0 0 0 0 0 0 0 0 0 0 0 0 0 0 0 0 0 0 0.25 0"/>
<feBlend mode="normal" in2="BackgroundImageFix" result="effect1_dropShadow_1547_340"/>
<feBlend mode="normal" in="SourceGraphic" in2="effect1_dropShadow_1547_340" result="shape"/>
</filter>
<filter id="filter8_d_1547_340" x="967.778" y="45.1252" width="178.121" height="134.451" filterUnits="userSpaceOnUse" color-interpolation-filters="sRGB">
<feFlood flood-opacity="0" result="BackgroundImageFix"/>
<feColorMatrix in="SourceAlpha" type="matrix" values="0 0 0 0 0 0 0 0 0 0 0 0 0 0 0 0 0 0 127 0" result="hardAlpha"/>
<feOffset dy="4"/>
<feGaussianBlur stdDeviation="2"/>
<feColorMatrix type="matrix" values="0 0 0 0 0 0 0 0 0 0 0 0 0 0 0 0 0 0 0.25 0"/>
<feBlend mode="normal" in2="BackgroundImageFix" result="effect1_dropShadow_1547_340"/>
<feBlend mode="normal" in="SourceGraphic" in2="effect1_dropShadow_1547_340" result="shape"/>
</filter>
<filter id="filter9_d_1547_340" x="1125.51" y="43.519" width="86.5186" height="138.479" filterUnits="userSpaceOnUse" color-interpolation-filters="sRGB">
<feFlood flood-opacity="0" result="BackgroundImageFix"/>
<feColorMatrix in="SourceAlpha" type="matrix" values="0 0 0 0 0 0 0 0 0 0 0 0 0 0 0 0 0 0 127 0" result="hardAlpha"/>
<feOffset dy="4"/>
<feGaussianBlur stdDeviation="2"/>
<feColorMatrix type="matrix" values="0 0 0 0 0 0 0 0 0 0 0 0 0 0 0 0 0 0 0.25 0"/>
<feBlend mode="normal" in2="BackgroundImageFix" result="effect1_dropShadow_1547_340"/>
<feBlend mode="normal" in="SourceGraphic" in2="effect1_dropShadow_1547_340" result="shape"/>
</filter>
<filter id="filter10_d_1547_340" x="861.236" y="45.1243" width="133.47" height="134.084" filterUnits="userSpaceOnUse" color-interpolation-filters="sRGB">
<feFlood flood-opacity="0" result="BackgroundImageFix"/>
<feColorMatrix in="SourceAlpha" type="matrix" values="0 0 0 0 0 0 0 0 0 0 0 0 0 0 0 0 0 0 127 0" result="hardAlpha"/>
<feOffset dy="4"/>
<feGaussianBlur stdDeviation="2"/>
<feColorMatrix type="matrix" values="0 0 0 0 0 0 0 0 0 0 0 0 0 0 0 0 0 0 0.25 0"/>
<feBlend mode="normal" in2="BackgroundImageFix" result="effect1_dropShadow_1547_340"/>
<feBlend mode="normal" in="SourceGraphic" in2="effect1_dropShadow_1547_340" result="shape"/>
</filter>
<linearGradient id="paint0_linear_1547_340" x1="380.322" y1="47.5492" x2="383.161" y2="160.313" gradientUnits="userSpaceOnUse">
<stop stop-color="white"/>
<stop offset="1" stop-color="#CFFCF9"/>
</linearGradient>
<linearGradient id="paint1_linear_1547_340" x1="626.198" y1="46.7904" x2="616.787" y2="159.679" gradientUnits="userSpaceOnUse">
<stop stop-color="white"/>
<stop offset="1" stop-color="#CFFCF9"/>
</linearGradient>
<linearGradient id="paint2_linear_1547_340" x1="499.964" y1="46.577" x2="507.862" y2="159.581" gradientUnits="userSpaceOnUse">
<stop stop-color="white"/>
<stop offset="1" stop-color="#CFFCF9"/>
</linearGradient>
<linearGradient id="paint3_linear_1547_340" x1="174.911" y1="45.0936" x2="177.811" y2="160.257" gradientUnits="userSpaceOnUse">
<stop stop-color="white"/>
<stop offset="1" stop-color="#CFFCF9"/>
</linearGradient>
<linearGradient id="paint4_linear_1547_340" x1="71.3975" y1="49.1506" x2="87.6788" y2="164.164" gradientUnits="userSpaceOnUse">
<stop stop-color="white"/>
<stop offset="1" stop-color="#CFFCF9"/>
</linearGradient>
<linearGradient id="paint5_linear_1547_340" x1="289.548" y1="50.5254" x2="275.516" y2="162.933" gradientUnits="userSpaceOnUse">
<stop stop-color="white"/>
<stop offset="1" stop-color="#CFFCF9"/>
</linearGradient>
<linearGradient id="paint6_linear_1547_340" x1="720.635" y1="43.3674" x2="728.993" y2="156.339" gradientUnits="userSpaceOnUse">
<stop stop-color="white"/>
<stop offset="1" stop-color="#CFFCF9"/>
</linearGradient>
<linearGradient id="paint7_linear_1547_340" x1="830.816" y1="48.2167" x2="821.519" y2="161.115" gradientUnits="userSpaceOnUse">
<stop stop-color="white"/>
<stop offset="1" stop-color="#CFFCF9"/>
</linearGradient>
<linearGradient id="paint8_linear_1547_340" x1="1056.94" y1="52.0368" x2="1054.09" y2="165.281" gradientUnits="userSpaceOnUse">
<stop stop-color="white"/>
<stop offset="1" stop-color="#CFFCF9"/>
</linearGradient>
<linearGradient id="paint9_linear_1547_340" x1="1182.94" y1="52.6747" x2="1167.11" y2="164.842" gradientUnits="userSpaceOnUse">
<stop stop-color="white"/>
<stop offset="1" stop-color="#CFFCF9"/>
</linearGradient>
<linearGradient id="paint10_linear_1547_340" x1="933.34" y1="50.8841" x2="927.77" y2="163.546" gradientUnits="userSpaceOnUse">
<stop stop-color="white"/>
<stop offset="1" stop-color="#CFFCF9"/>
</linearGradient>
<linearGradient id="paint11_linear_1547_340" x1="1210.46" y1="142.792" x2="1210.46" y2="167.705" gradientUnits="userSpaceOnUse">
<stop stop-color="#E9E588"/>
<stop offset="1" stop-color="#E8C64D"/>
</linearGradient>
<linearGradient id="paint12_linear_1547_340" x1="1282.34" y1="107.806" x2="1274.73" y2="168.419" gradientUnits="userSpaceOnUse">
<stop stop-color="#E9E588"/>
<stop offset="1" stop-color="#E8C64D"/>
</linearGradient>
<linearGradient id="paint13_linear_1547_340" x1="1227.25" y1="90" x2="1227.25" y2="166.184" gradientUnits="userSpaceOnUse">
<stop stop-color="#E9E588"/>
<stop offset="1" stop-color="#E8C64D"/>
</linearGradient>
</defs>
</svg>
