<svg width="32" height="32" viewBox="0 0 32 32" fill="none" xmlns="http://www.w3.org/2000/svg">
<path fill-rule="evenodd" clip-rule="evenodd" d="M1 23.3478C1.9375 15.1304 2.875 11.4783 4.75 8.73913C6.3125 7.82609 10 6 12.25 6V6.91304C11.3125 6.91304 8.875 7.46087 6.625 9.65217C9.0072 7.96114 12.3276 6.91304 16 6.91304C19.6724 6.91304 22.9925 7.96226 25.3747 9.6533C23.1247 7.46199 20.6875 6.91304 19.75 6.91304V6C22 6 25.6875 7.82609 27.25 8.73913C29.125 11.4783 30.0625 15.1304 31 23.3478C30.0625 24.5652 27.25 27 23.5 27L21.625 25.1739C22.5625 24.8696 24.625 23.8957 25.375 22.4348C22.9928 24.1258 19.6724 25.1739 16 25.1739C12.3276 25.1739 9.00756 24.1247 6.62537 22.4337C7.37537 23.8946 9.4375 24.8696 10.375 25.1739L8.5 27C4.75 27 1.9375 24.5652 1 23.3478ZM14.125 18.7826C14.125 20.2954 12.8658 21.5217 11.3125 21.5217C9.7592 21.5217 8.5 20.2954 8.5 18.7826C8.5 17.2698 9.7592 16.0435 11.3125 16.0435C12.8658 16.0435 14.125 17.2698 14.125 18.7826ZM20.6875 21.5217C22.2408 21.5217 23.5 20.2954 23.5 18.7826C23.5 17.2698 22.2408 16.0435 20.6875 16.0435C19.1342 16.0435 17.875 17.2698 17.875 18.7826C17.875 20.2954 19.1342 21.5217 20.6875 21.5217Z" fill="#5372E1"/>
</svg>
