<svg width="32" height="32" viewBox="0 0 32 32" fill="none" xmlns="http://www.w3.org/2000/svg">
<path fill-rule="evenodd" clip-rule="evenodd" d="M28.5 6.5C28.5 7.88071 27.3807 9 26 9C24.6193 9 23.5 7.88071 23.5 6.5C23.5 6.42058 23.5037 6.34202 23.5109 6.26449L18.9184 5.34599L17.2706 10.2895C20.1182 10.4674 22.7147 11.2373 24.7928 12.4171C25.4509 11.8458 26.3101 11.5 27.25 11.5C29.3211 11.5 31 13.1789 31 15.25C31 16.4368 30.4487 17.4949 29.5881 18.182C29.6947 18.6524 29.75 19.1343 29.75 19.625C29.75 24.8027 23.5939 29 16 29C8.40608 29 2.25 24.8027 2.25 19.625C2.25 19.1343 2.3053 18.6524 2.41187 18.182C1.55134 17.4949 1 16.4368 1 15.25C1 13.1789 2.67893 11.5 4.75 11.5C5.68991 11.5 6.54906 11.8458 7.20716 12.4171C9.58263 11.0685 12.6352 10.2555 15.9661 10.25L17.7326 4.9507C17.9319 4.35265 18.5454 3.99663 19.1636 4.12026L23.9446 5.07647C24.396 4.42595 25.1482 4 26 4C27.3807 4 28.5 5.11929 28.5 6.5ZM20.375 20.25C21.4105 20.25 22.25 19.4105 22.25 18.375C22.25 17.3395 21.4105 16.5 20.375 16.5C19.3395 16.5 18.5 17.3395 18.5 18.375C18.5 19.4105 19.3395 20.25 20.375 20.25ZM13.5 18.375C13.5 19.4105 12.6605 20.25 11.625 20.25C10.5895 20.25 9.75 19.4105 9.75 18.375C9.75 17.3395 10.5895 16.5 11.625 16.5C12.6605 16.5 13.5 17.3395 13.5 18.375ZM11.4116 23.5296C11.1518 23.3023 10.7569 23.3287 10.5296 23.5884C10.3023 23.8482 10.3287 24.2431 10.5884 24.4704C11.2136 25.0174 13.0456 25.875 16 25.875C18.9545 25.875 20.7864 25.0174 21.4116 24.4704C21.6713 24.2431 21.6977 23.8482 21.4704 23.5884C21.2431 23.3287 20.8482 23.3023 20.5884 23.5296C20.2612 23.816 18.7598 24.625 16 24.625C13.2402 24.625 11.7388 23.816 11.4116 23.5296Z" fill="#5372E1"/>
</svg>
