<svg width="32" height="32" viewBox="0 0 32 32" fill="none" xmlns="http://www.w3.org/2000/svg">
<path d="M24.3075 6.33892L24.3487 5.89733L24.6019 5.53254C24.9102 5.08822 25.4215 4.8 26 4.8C26.9389 4.8 27.7 5.56112 27.7 6.5C27.7 7.43888 26.9389 8.2 26 8.2C25.0611 8.2 24.3 7.43888 24.3 6.5C24.3 6.44547 24.3025 6.39174 24.3075 6.33892ZM16.5442 11.0457L17.2207 11.0879C19.9587 11.259 22.4352 11.9985 24.3979 13.1128L24.89 13.3922L25.3173 13.0212C25.8354 12.5714 26.51 12.3 27.25 12.3C28.8792 12.3 30.2 13.6208 30.2 15.25C30.2 16.1833 29.7675 17.015 29.0889 17.5569L28.6971 17.8697L28.8079 18.3588C28.9016 18.7721 28.95 19.1948 28.95 19.625C28.95 21.8715 27.615 23.9957 25.272 25.5931C22.9331 27.1879 19.6574 28.2 16 28.2C12.3426 28.2 9.06687 27.1879 6.72795 25.5931C4.38497 23.9957 3.05 21.8715 3.05 19.625C3.05 19.1948 3.09844 18.7721 3.19209 18.3588L3.3029 17.8697L2.91105 17.5569C2.23246 17.015 1.8 16.1833 1.8 15.25C1.8 13.6208 3.12076 12.3 4.75 12.3C5.48998 12.3 6.16458 12.5714 6.68272 13.0212L7.11003 13.3922L7.60213 13.1128C9.84646 11.8387 12.7612 11.0553 15.9674 11.05L16.543 11.0491L16.5442 11.0457Z" stroke="#5372E1" stroke-width="1.6"/>
<path d="M20.375 20.35C21.4658 20.35 22.35 19.4658 22.35 18.375C22.35 17.2842 21.4658 16.4 20.375 16.4C19.2842 16.4 18.4 17.2842 18.4 18.375C18.4 19.4658 19.2842 20.35 20.375 20.35ZM11.625 20.35C12.7158 20.35 13.6 19.4658 13.6 18.375C13.6 17.2842 12.7158 16.4 11.625 16.4C10.5342 16.4 9.65 17.2842 9.65 18.375C9.65 19.4658 10.5342 20.35 11.625 20.35Z" fill="#5372E1" stroke="#5372E1" stroke-width="0.2"/>
<path d="M11.4445 23.492C11.1639 23.2465 10.7375 23.275 10.492 23.5555C10.2465 23.8361 10.275 24.2625 10.5555 24.508C11.1926 25.0654 13.0378 25.925 16 25.925C18.9622 25.925 20.8074 25.0654 21.4445 24.508C21.7251 24.2625 21.7535 23.8361 21.508 23.5555C21.2625 23.275 20.8361 23.2465 20.5555 23.492C20.3991 23.6289 19.9492 23.9 19.1915 24.137C18.4353 24.3735 17.375 24.575 16 24.575C14.625 24.575 13.5647 24.3735 12.8085 24.137C12.0508 23.9 11.6009 23.6289 11.4445 23.492Z" fill="#5372E1" stroke="#5372E1" stroke-width="0.1"/>
</svg>
