<svg width="32" height="28" viewBox="0 0 32 28" fill="none" xmlns="http://www.w3.org/2000/svg">
<path d="M30.6667 1.99998C29.3899 2.90062 27.9762 3.58946 26.48 4.03998C25.677 3.11666 24.6098 2.46224 23.4228 2.16521C22.2357 1.86819 20.986 1.94291 19.8428 2.37925C18.6996 2.81559 17.718 3.59252 17.0307 4.60494C16.3434 5.61736 15.9836 6.81643 16 8.03998V9.37331C13.6569 9.43407 11.3351 8.9144 9.24139 7.86057C7.1477 6.80675 5.34713 5.25149 4.00004 3.33331C4.00004 3.33331 -1.33329 15.3333 10.6667 20.6666C7.92074 22.5306 4.64958 23.4652 1.33337 23.3333C13.3334 30 28 23.3333 28 7.99998C27.9988 7.62858 27.9631 7.25811 27.8934 6.89331C29.2542 5.5513 30.2145 3.85693 30.6667 1.99998V1.99998Z" stroke="#5372E1" stroke-width="2.66667" stroke-linecap="round" stroke-linejoin="round"/>
</svg>
