<svg width="32" height="32" viewBox="0 0 32 32" fill="none" xmlns="http://www.w3.org/2000/svg">
<path d="M30.0533 8.55992C29.8949 7.92713 29.5723 7.34735 29.1182 6.87913C28.664 6.41091 28.0943 6.07083 27.4666 5.89325C25.1733 5.33325 15.9999 5.33325 15.9999 5.33325C15.9999 5.33325 6.82662 5.33325 4.53328 5.94659C3.90561 6.12416 3.33592 6.46424 2.88174 6.93246C2.42757 7.40068 2.105 7.98047 1.94662 8.61325C1.5269 10.9407 1.3216 13.3017 1.33328 15.6666C1.31832 18.0493 1.52364 20.4283 1.94662 22.7733C2.12123 23.3864 2.45102 23.9441 2.90414 24.3926C3.35726 24.841 3.91838 25.165 4.53328 25.3333C6.82662 25.9466 15.9999 25.9466 15.9999 25.9466C15.9999 25.9466 25.1733 25.9466 27.4666 25.3333C28.0943 25.1557 28.664 24.8156 29.1182 24.3474C29.5723 23.8792 29.8949 23.2994 30.0533 22.6666C30.4698 20.3567 30.675 18.0137 30.6666 15.6666C30.6816 13.2839 30.4763 10.9048 30.0533 8.55992V8.55992Z" stroke="#5372E1" stroke-width="2.66667" stroke-linecap="round" stroke-linejoin="round"/>
<path d="M13 20.0266L20.6667 15.6666L13 11.3066V20.0266Z" stroke="#5372E1" stroke-width="2.66667" stroke-linecap="round" stroke-linejoin="round"/>
</svg>
