<svg width="111" height="232" viewBox="0 0 111 232" fill="none" xmlns="http://www.w3.org/2000/svg">
<g filter="url(#filter0_f)">
<ellipse cx="38.419" cy="222.323" rx="34.4098" ry="5.77682" fill="#434343" fill-opacity="0.2"/>
</g>
<mask id="path-2-outside-1" maskUnits="userSpaceOnUse" x="1.19452" y="0" width="110" height="222" fill="black">
<rect fill="white" x="1.19452" width="110" height="222"/>
<path d="M52.8969 54.3441C53.0043 54.7148 53.0975 55.1073 53.1754 55.5222C53.9055 59.4144 52.3478 62.6074 50.0232 67.3722C46.7067 74.17 41.8295 84.167 39.8084 103.958C38.6704 115.101 39.3574 125.481 40.7335 134.972C41.98 135.494 42.9172 136.654 43.0874 138.092L55.3572 163.465C59.8789 168.702 68.1207 182.293 64.9148 194.769C64.672 195.713 64.4089 196.555 64.1292 197.301L66.3673 202.488L66.4284 202.491L66.4491 202.678L66.4677 202.721L66.4546 202.726L66.9259 206.97C66.9913 207.562 66.514 208.072 65.92 208.045L63.713 207.947C63.1643 207.922 62.7456 207.447 62.7908 206.899L63.1003 203.156L62.3153 201.336L62.019 205.916L62.0721 205.946L62.0056 206.122L62.0026 206.169L61.9882 206.168L60.4787 210.163C60.2683 210.719 59.6112 210.956 59.0942 210.662L57.1732 209.571C56.6956 209.3 56.5388 208.686 56.8282 208.219L58.8058 205.026L58.9837 202.277C58.7119 202.251 58.4412 202.191 58.174 202.102L57.0399 204.432L57.0774 204.48L56.9496 204.617L56.9287 204.66L56.9156 204.654L54.0058 207.779C53.6006 208.214 52.9024 208.185 52.5351 207.717L51.1704 205.98C50.8311 205.548 50.9186 204.92 51.3631 204.597L54.4027 202.391L55.4898 200.158C53.5118 197.89 52.2471 194.294 52.8585 191.806C53.436 189.456 53.03 185.998 52.586 182.219L52.5857 182.216C51.8907 176.302 51.103 169.598 53.8445 165.108C51.1683 159.089 45.9393 148.436 42.3047 144.2C43.0969 148.313 43.9554 152.227 44.7672 155.928C45.8514 160.871 46.8524 165.434 47.5011 169.588C47.8322 171.708 48.2346 173.843 48.639 175.988L48.6392 175.989C49.2973 179.481 49.9606 183 50.3306 186.528C51.2769 195.55 48.8377 203.681 44.5078 207.814L43.951 211.377C43.9151 211.607 43.921 211.843 43.9685 212.071L44.9058 216.569H46.0762C47.1462 216.569 48.0137 217.437 48.0137 218.507V218.552C48.0137 219.392 47.4768 220.151 46.6592 220.34C44.7504 220.781 43.2437 220.682 41.2459 220.281C40.3841 220.108 39.7796 219.338 39.7796 218.459C39.7796 217.75 40.1703 217.131 40.7483 216.808V210.181C40.0996 210.408 39.4278 210.561 38.7356 210.634C36.9947 210.816 35.2073 210.799 33.483 210.447V216.808C34.061 217.131 34.4517 217.75 34.4517 218.459C34.4517 219.338 33.8472 220.108 32.9854 220.281C30.9877 220.682 29.4809 220.781 27.5721 220.34C26.7545 220.151 26.2177 219.392 26.2177 218.552V218.507C26.2177 217.437 27.0852 216.569 28.1551 216.569H29.3L29.9665 212.903C30.0497 212.445 30.0497 211.975 29.9665 211.517L29.484 208.863C25.4157 206.282 22.3916 200.633 22.3913 189.458C22.2711 188.313 22.3401 183.461 22.3753 180.991C22.3831 180.439 22.3893 180.005 22.3913 179.759C22.4278 171.724 22.742 157.527 23.3204 144.301C20.021 149.118 15.7992 159.322 13.6187 165.195C16.6371 169.503 16.2725 176.244 15.9508 182.19L15.9507 182.193C15.7453 185.993 15.5574 189.469 16.2816 191.778C17.0483 194.223 16.0121 197.891 14.1808 200.279L15.406 202.439L18.5784 204.45C19.0424 204.744 19.1691 205.365 18.8577 205.818L17.6049 207.637C17.2677 208.127 16.5728 208.2 16.1409 207.791L13.0405 204.855L13.0277 204.863L13.0042 204.821L12.868 204.692L12.9025 204.642L11.6241 202.388C11.363 202.494 11.0966 202.57 10.827 202.614L11.1774 205.346L13.3519 208.408C13.67 208.856 13.5522 209.479 13.0926 209.78L11.244 210.989C10.7465 211.315 10.0758 211.119 9.83077 210.578L8.07317 206.686L8.05886 206.688L8.0529 206.641L7.97539 206.47L8.0265 206.436L7.44281 201.884L6.77377 203.75L7.3181 207.466C7.39766 208.01 7.00964 208.511 6.46353 208.57L4.26716 208.807C3.67601 208.87 3.1675 208.391 3.19563 207.797L3.39914 203.532L3.38567 203.527L3.40159 203.483L3.4105 203.295L3.47125 203.289L5.37873 197.971C5.05271 197.244 4.73722 196.421 4.43549 195.493C0.45148 183.244 7.82229 169.161 12.0057 163.651L22.6557 137.556C22.7102 136.565 23.1326 135.681 23.7831 135.03C24.2046 127.644 24.7194 121.217 25.3248 117.278C25.7294 114.645 26.2157 111.232 26.7678 107.357C27.783 100.233 29.0206 91.5473 30.3806 83.287C28.5684 81.4229 27.7163 78.3361 28.3838 75.1292C29.0153 72.0952 30.8511 69.7024 33.0841 68.618C34.3953 62.4592 35.7531 57.6289 37.0875 55.522C39.016 52.4771 41.8426 50.3255 44.6062 49.5485C45.106 44.9266 44.9117 37.885 41.6894 32.5143C55.4935 11.9293 77.5316 4.1796 101.992 2L104.171 4.1796C103.641 4.38613 103.118 4.59003 102.601 4.79148L102.599 4.79219C86.8137 10.942 76.8694 14.8162 69.4459 22.1157C67.7254 23.8075 66.1404 25.6833 64.6494 27.814C64.4967 27.786 64.3429 27.7634 64.1883 27.7462L64.1564 27.7428C63.3141 27.6532 62.4473 27.7233 61.5911 27.9401C60.4787 28.2217 59.3842 28.7508 58.3847 29.4988C57.2908 30.3176 56.3106 31.3985 55.5452 32.7043C52.9753 37.0893 53.8012 42.349 57.3899 44.4522C58.0204 44.8217 58.6942 45.0692 59.3905 45.2024C59.809 45.2824 60.2356 45.3211 60.6659 45.3203C63.5952 45.3144 66.6939 43.4724 68.541 40.3208C70.7537 36.5452 70.449 32.1213 68.0308 29.6219C77.6169 16.8495 88.5095 12.3141 107.263 4.50557L108.046 4.1796L109.499 8.05443C96.1949 13.5089 74.972 35.2746 77.5316 57.943C77.1996 57.8275 76.8417 57.7008 76.46 57.5657L76.4577 57.5649L76.4555 57.5641C75.9315 57.3786 75.3627 57.1772 74.7544 56.9672C72.7303 56.2683 70.2694 55.4733 67.5671 54.8463C67.5056 54.832 67.444 54.8178 67.3822 54.8037C66.2052 54.5351 64.9837 54.2992 63.7335 54.1175C62.5052 53.9391 61.2493 53.813 59.981 53.7598L59.9385 53.758C57.6016 53.6629 55.2229 53.8157 52.8969 54.3441Z"/>
</mask>
<path d="M52.8969 54.3441C53.0043 54.7148 53.0975 55.1073 53.1754 55.5222C53.9055 59.4144 52.3478 62.6074 50.0232 67.3722C46.7067 74.17 41.8295 84.167 39.8084 103.958C38.6704 115.101 39.3574 125.481 40.7335 134.972C41.98 135.494 42.9172 136.654 43.0874 138.092L55.3572 163.465C59.8789 168.702 68.1207 182.293 64.9148 194.769C64.672 195.713 64.4089 196.555 64.1292 197.301L66.3673 202.488L66.4284 202.491L66.4491 202.678L66.4677 202.721L66.4546 202.726L66.9259 206.97C66.9913 207.562 66.514 208.072 65.92 208.045L63.713 207.947C63.1643 207.922 62.7456 207.447 62.7908 206.899L63.1003 203.156L62.3153 201.336L62.019 205.916L62.0721 205.946L62.0056 206.122L62.0026 206.169L61.9882 206.168L60.4787 210.163C60.2683 210.719 59.6112 210.956 59.0942 210.662L57.1732 209.571C56.6956 209.3 56.5388 208.686 56.8282 208.219L58.8058 205.026L58.9837 202.277C58.7119 202.251 58.4412 202.191 58.174 202.102L57.0399 204.432L57.0774 204.48L56.9496 204.617L56.9287 204.66L56.9156 204.654L54.0058 207.779C53.6006 208.214 52.9024 208.185 52.5351 207.717L51.1704 205.98C50.8311 205.548 50.9186 204.92 51.3631 204.597L54.4027 202.391L55.4898 200.158C53.5118 197.89 52.2471 194.294 52.8585 191.806C53.436 189.456 53.03 185.998 52.586 182.219L52.5857 182.216C51.8907 176.302 51.103 169.598 53.8445 165.108C51.1683 159.089 45.9393 148.436 42.3047 144.2C43.0969 148.313 43.9554 152.227 44.7672 155.928C45.8514 160.871 46.8524 165.434 47.5011 169.588C47.8322 171.708 48.2346 173.843 48.639 175.988L48.6392 175.989C49.2973 179.481 49.9606 183 50.3306 186.528C51.2769 195.55 48.8377 203.681 44.5078 207.814L43.951 211.377C43.9151 211.607 43.921 211.843 43.9685 212.071L44.9058 216.569H46.0762C47.1462 216.569 48.0137 217.437 48.0137 218.507V218.552C48.0137 219.392 47.4768 220.151 46.6592 220.34C44.7504 220.781 43.2437 220.682 41.2459 220.281C40.3841 220.108 39.7796 219.338 39.7796 218.459C39.7796 217.75 40.1703 217.131 40.7483 216.808V210.181C40.0996 210.408 39.4278 210.561 38.7356 210.634C36.9947 210.816 35.2073 210.799 33.483 210.447V216.808C34.061 217.131 34.4517 217.75 34.4517 218.459C34.4517 219.338 33.8472 220.108 32.9854 220.281C30.9877 220.682 29.4809 220.781 27.5721 220.34C26.7545 220.151 26.2177 219.392 26.2177 218.552V218.507C26.2177 217.437 27.0852 216.569 28.1551 216.569H29.3L29.9665 212.903C30.0497 212.445 30.0497 211.975 29.9665 211.517L29.484 208.863C25.4157 206.282 22.3916 200.633 22.3913 189.458C22.2711 188.313 22.3401 183.461 22.3753 180.991C22.3831 180.439 22.3893 180.005 22.3913 179.759C22.4278 171.724 22.742 157.527 23.3204 144.301C20.021 149.118 15.7992 159.322 13.6187 165.195C16.6371 169.503 16.2725 176.244 15.9508 182.19L15.9507 182.193C15.7453 185.993 15.5574 189.469 16.2816 191.778C17.0483 194.223 16.0121 197.891 14.1808 200.279L15.406 202.439L18.5784 204.45C19.0424 204.744 19.1691 205.365 18.8577 205.818L17.6049 207.637C17.2677 208.127 16.5728 208.2 16.1409 207.791L13.0405 204.855L13.0277 204.863L13.0042 204.821L12.868 204.692L12.9025 204.642L11.6241 202.388C11.363 202.494 11.0966 202.57 10.827 202.614L11.1774 205.346L13.3519 208.408C13.67 208.856 13.5522 209.479 13.0926 209.78L11.244 210.989C10.7465 211.315 10.0758 211.119 9.83077 210.578L8.07317 206.686L8.05886 206.688L8.0529 206.641L7.97539 206.47L8.0265 206.436L7.44281 201.884L6.77377 203.75L7.3181 207.466C7.39766 208.01 7.00964 208.511 6.46353 208.57L4.26716 208.807C3.67601 208.87 3.1675 208.391 3.19563 207.797L3.39914 203.532L3.38567 203.527L3.40159 203.483L3.4105 203.295L3.47125 203.289L5.37873 197.971C5.05271 197.244 4.73722 196.421 4.43549 195.493C0.45148 183.244 7.82229 169.161 12.0057 163.651L22.6557 137.556C22.7102 136.565 23.1326 135.681 23.7831 135.03C24.2046 127.644 24.7194 121.217 25.3248 117.278C25.7294 114.645 26.2157 111.232 26.7678 107.357C27.783 100.233 29.0206 91.5473 30.3806 83.287C28.5684 81.4229 27.7163 78.3361 28.3838 75.1292C29.0153 72.0952 30.8511 69.7024 33.0841 68.618C34.3953 62.4592 35.7531 57.6289 37.0875 55.522C39.016 52.4771 41.8426 50.3255 44.6062 49.5485C45.106 44.9266 44.9117 37.885 41.6894 32.5143C55.4935 11.9293 77.5316 4.1796 101.992 2L104.171 4.1796C103.641 4.38613 103.118 4.59003 102.601 4.79148L102.599 4.79219C86.8137 10.942 76.8694 14.8162 69.4459 22.1157C67.7254 23.8075 66.1404 25.6833 64.6494 27.814C64.4967 27.786 64.3429 27.7634 64.1883 27.7462L64.1564 27.7428C63.3141 27.6532 62.4473 27.7233 61.5911 27.9401C60.4787 28.2217 59.3842 28.7508 58.3847 29.4988C57.2908 30.3176 56.3106 31.3985 55.5452 32.7043C52.9753 37.0893 53.8012 42.349 57.3899 44.4522C58.0204 44.8217 58.6942 45.0692 59.3905 45.2024C59.809 45.2824 60.2356 45.3211 60.6659 45.3203C63.5952 45.3144 66.6939 43.4724 68.541 40.3208C70.7537 36.5452 70.449 32.1213 68.0308 29.6219C77.6169 16.8495 88.5095 12.3141 107.263 4.50557L108.046 4.1796L109.499 8.05443C96.1949 13.5089 74.972 35.2746 77.5316 57.943C77.1996 57.8275 76.8417 57.7008 76.46 57.5657L76.4577 57.5649L76.4555 57.5641C75.9315 57.3786 75.3627 57.1772 74.7544 56.9672C72.7303 56.2683 70.2694 55.4733 67.5671 54.8463C67.5056 54.832 67.444 54.8178 67.3822 54.8037C66.2052 54.5351 64.9837 54.2992 63.7335 54.1175C62.5052 53.9391 61.2493 53.813 59.981 53.7598L59.9385 53.758C57.6016 53.6629 55.2229 53.8157 52.8969 54.3441Z" fill="#1D1D1D"/>
<path d="M52.8969 54.3441C53.0043 54.7148 53.0975 55.1073 53.1754 55.5222C53.9055 59.4144 52.3478 62.6074 50.0232 67.3722C46.7067 74.17 41.8295 84.167 39.8084 103.958C38.6704 115.101 39.3574 125.481 40.7335 134.972C41.98 135.494 42.9172 136.654 43.0874 138.092L55.3572 163.465C59.8789 168.702 68.1207 182.293 64.9148 194.769C64.672 195.713 64.4089 196.555 64.1292 197.301L66.3673 202.488L66.4284 202.491L66.4491 202.678L66.4677 202.721L66.4546 202.726L66.9259 206.97C66.9913 207.562 66.514 208.072 65.92 208.045L63.713 207.947C63.1643 207.922 62.7456 207.447 62.7908 206.899L63.1003 203.156L62.3153 201.336L62.019 205.916L62.0721 205.946L62.0056 206.122L62.0026 206.169L61.9882 206.168L60.4787 210.163C60.2683 210.719 59.6112 210.956 59.0942 210.662L57.1732 209.571C56.6956 209.3 56.5388 208.686 56.8282 208.219L58.8058 205.026L58.9837 202.277C58.7119 202.251 58.4412 202.191 58.174 202.102L57.0399 204.432L57.0774 204.48L56.9496 204.617L56.9287 204.66L56.9156 204.654L54.0058 207.779C53.6006 208.214 52.9024 208.185 52.5351 207.717L51.1704 205.98C50.8311 205.548 50.9186 204.92 51.3631 204.597L54.4027 202.391L55.4898 200.158C53.5118 197.89 52.2471 194.294 52.8585 191.806C53.436 189.456 53.03 185.998 52.586 182.219L52.5857 182.216C51.8907 176.302 51.103 169.598 53.8445 165.108C51.1683 159.089 45.9393 148.436 42.3047 144.2C43.0969 148.313 43.9554 152.227 44.7672 155.928C45.8514 160.871 46.8524 165.434 47.5011 169.588C47.8322 171.708 48.2346 173.843 48.639 175.988L48.6392 175.989C49.2973 179.481 49.9606 183 50.3306 186.528C51.2769 195.55 48.8377 203.681 44.5078 207.814L43.951 211.377C43.9151 211.607 43.921 211.843 43.9685 212.071L44.9058 216.569H46.0762C47.1462 216.569 48.0137 217.437 48.0137 218.507V218.552C48.0137 219.392 47.4768 220.151 46.6592 220.34C44.7504 220.781 43.2437 220.682 41.2459 220.281C40.3841 220.108 39.7796 219.338 39.7796 218.459C39.7796 217.75 40.1703 217.131 40.7483 216.808V210.181C40.0996 210.408 39.4278 210.561 38.7356 210.634C36.9947 210.816 35.2073 210.799 33.483 210.447V216.808C34.061 217.131 34.4517 217.75 34.4517 218.459C34.4517 219.338 33.8472 220.108 32.9854 220.281C30.9877 220.682 29.4809 220.781 27.5721 220.34C26.7545 220.151 26.2177 219.392 26.2177 218.552V218.507C26.2177 217.437 27.0852 216.569 28.1551 216.569H29.3L29.9665 212.903C30.0497 212.445 30.0497 211.975 29.9665 211.517L29.484 208.863C25.4157 206.282 22.3916 200.633 22.3913 189.458C22.2711 188.313 22.3401 183.461 22.3753 180.991C22.3831 180.439 22.3893 180.005 22.3913 179.759C22.4278 171.724 22.742 157.527 23.3204 144.301C20.021 149.118 15.7992 159.322 13.6187 165.195C16.6371 169.503 16.2725 176.244 15.9508 182.19L15.9507 182.193C15.7453 185.993 15.5574 189.469 16.2816 191.778C17.0483 194.223 16.0121 197.891 14.1808 200.279L15.406 202.439L18.5784 204.45C19.0424 204.744 19.1691 205.365 18.8577 205.818L17.6049 207.637C17.2677 208.127 16.5728 208.2 16.1409 207.791L13.0405 204.855L13.0277 204.863L13.0042 204.821L12.868 204.692L12.9025 204.642L11.6241 202.388C11.363 202.494 11.0966 202.57 10.827 202.614L11.1774 205.346L13.3519 208.408C13.67 208.856 13.5522 209.479 13.0926 209.78L11.244 210.989C10.7465 211.315 10.0758 211.119 9.83077 210.578L8.07317 206.686L8.05886 206.688L8.0529 206.641L7.97539 206.47L8.0265 206.436L7.44281 201.884L6.77377 203.75L7.3181 207.466C7.39766 208.01 7.00964 208.511 6.46353 208.57L4.26716 208.807C3.67601 208.87 3.1675 208.391 3.19563 207.797L3.39914 203.532L3.38567 203.527L3.40159 203.483L3.4105 203.295L3.47125 203.289L5.37873 197.971C5.05271 197.244 4.73722 196.421 4.43549 195.493C0.45148 183.244 7.82229 169.161 12.0057 163.651L22.6557 137.556C22.7102 136.565 23.1326 135.681 23.7831 135.03C24.2046 127.644 24.7194 121.217 25.3248 117.278C25.7294 114.645 26.2157 111.232 26.7678 107.357C27.783 100.233 29.0206 91.5473 30.3806 83.287C28.5684 81.4229 27.7163 78.3361 28.3838 75.1292C29.0153 72.0952 30.8511 69.7024 33.0841 68.618C34.3953 62.4592 35.7531 57.6289 37.0875 55.522C39.016 52.4771 41.8426 50.3255 44.6062 49.5485C45.106 44.9266 44.9117 37.885 41.6894 32.5143C55.4935 11.9293 77.5316 4.1796 101.992 2L104.171 4.1796C103.641 4.38613 103.118 4.59003 102.601 4.79148L102.599 4.79219C86.8137 10.942 76.8694 14.8162 69.4459 22.1157C67.7254 23.8075 66.1404 25.6833 64.6494 27.814C64.4967 27.786 64.3429 27.7634 64.1883 27.7462L64.1564 27.7428C63.3141 27.6532 62.4473 27.7233 61.5911 27.9401C60.4787 28.2217 59.3842 28.7508 58.3847 29.4988C57.2908 30.3176 56.3106 31.3985 55.5452 32.7043C52.9753 37.0893 53.8012 42.349 57.3899 44.4522C58.0204 44.8217 58.6942 45.0692 59.3905 45.2024C59.809 45.2824 60.2356 45.3211 60.6659 45.3203C63.5952 45.3144 66.6939 43.4724 68.541 40.3208C70.7537 36.5452 70.449 32.1213 68.0308 29.6219C77.6169 16.8495 88.5095 12.3141 107.263 4.50557L108.046 4.1796L109.499 8.05443C96.1949 13.5089 74.972 35.2746 77.5316 57.943C77.1996 57.8275 76.8417 57.7008 76.46 57.5657L76.4577 57.5649L76.4555 57.5641C75.9315 57.3786 75.3627 57.1772 74.7544 56.9672C72.7303 56.2683 70.2694 55.4733 67.5671 54.8463C67.5056 54.832 67.444 54.8178 67.3822 54.8037C66.2052 54.5351 64.9837 54.2992 63.7335 54.1175C62.5052 53.9391 61.2493 53.813 59.981 53.7598L59.9385 53.758C57.6016 53.6629 55.2229 53.8157 52.8969 54.3441Z" stroke="#1D1D1D" stroke-width="2.00933" mask="url(#path-2-outside-1)"/>
<path d="M33.4831 206.882H29.1239L29.9666 211.517C30.0498 211.975 30.0498 212.445 29.9666 212.903L29.3001 216.569H28.1552C27.0853 216.569 26.2178 217.437 26.2178 218.507V218.553C26.2178 219.392 26.7546 220.151 27.5722 220.34C29.481 220.781 30.9878 220.682 32.9855 220.281C33.8473 220.108 34.4518 219.338 34.4518 218.459C34.4518 217.75 34.0611 217.131 33.4831 216.808V206.882Z" fill="#2C2424"/>
<path d="M45.1076 203.976H40.7484V216.808C40.1704 217.131 39.7797 217.75 39.7797 218.459C39.7797 219.338 40.3842 220.108 41.246 220.281C43.2437 220.682 44.7504 220.781 46.6593 220.34C47.4768 220.151 48.0137 219.392 48.0137 218.553V218.507C48.0137 217.437 47.1462 216.569 46.0763 216.569H44.9058L43.9686 212.071C43.921 211.843 43.9151 211.607 43.9511 211.377L45.1076 203.976Z" fill="#2C2424"/>
<path d="M26.3122 141.638C28.449 141.755 30.2763 140.118 30.3937 137.981C30.5111 135.844 28.8741 134.017 26.7372 133.9C24.6006 133.782 22.7731 135.419 22.6557 137.556L12.0056 163.651C7.82225 169.161 0.451438 183.244 4.43545 195.493C4.73718 196.421 5.05267 197.244 5.37869 197.971L3.47121 203.289L3.41046 203.295L3.40155 203.483L3.38563 203.527L3.3991 203.532L3.19559 207.797C3.16745 208.391 3.67597 208.87 4.26712 208.807L6.46349 208.57C7.0096 208.511 7.39762 208.01 7.31805 207.466L6.77373 203.75L7.44277 201.884L8.02646 206.436L7.97535 206.47L8.05286 206.641L8.05882 206.688L8.07313 206.686L9.83073 210.578C10.0757 211.12 10.7464 211.315 11.2439 210.99L13.0925 209.78C13.5522 209.479 13.67 208.857 13.3519 208.408L11.1774 205.346L10.827 202.614C11.0965 202.57 11.3629 202.494 11.6241 202.388L12.9024 204.642L12.868 204.692L13.0042 204.821L13.0277 204.863L13.0404 204.856L16.1409 207.791C16.5727 208.2 17.2677 208.127 17.6049 207.637L18.8576 205.818C19.1691 205.365 19.0423 204.744 18.5784 204.45L15.406 202.439L14.1807 200.279C16.0121 197.891 17.0483 194.223 16.2816 191.778C15.5574 189.469 15.7452 185.993 15.9507 182.193L15.9508 182.19C16.2725 176.244 16.6371 169.503 13.6186 165.195C16.5603 157.272 23.217 141.468 26.3122 141.638Z" fill="#C6C6C6"/>
<path d="M50.3308 186.528C51.6422 199.032 46.451 209.825 38.7357 210.634C31.0205 211.443 22.392 208.335 22.3915 189.458C22.2444 188.057 22.3806 181.106 22.3915 179.759C22.4771 169.09 28.209 164.618 35.0593 163.9C39.2602 163.459 46.4693 163.9 47.5013 169.588C48.3712 175.158 49.7334 180.832 50.3308 186.528Z" fill="#352F2F"/>
<path d="M35.0593 163.9C39.2602 163.459 46.4693 163.9 47.5013 169.588C44.9671 153.362 37.0584 130.888 39.8086 103.958C43.2463 70.2951 54.9474 64.9673 53.1755 55.5223C51.4036 46.0774 41.689 48.2568 37.0877 55.5221C32.4863 62.7874 27.6055 102.437 25.325 117.278C23.4643 129.387 22.4586 164.986 22.3915 179.759C22.4771 169.09 28.209 164.618 35.0593 163.9Z" fill="#352F2F"/>
<path d="M33.3177 85.2317C37.2435 86.0488 41.1533 82.7377 42.1409 77.9925C43.1285 73.2473 40.8645 68.6512 36.9387 67.8341C33.0128 67.017 29.103 70.3281 28.1154 75.0733C27.1278 79.8185 29.3918 84.4146 33.3177 85.2317Z" fill="url(#paint0_radial)" stroke="#1D1D1D" stroke-width="0.548575"/>
<circle cx="36.3345" cy="79.954" r="3.8305" transform="rotate(-8.10152 36.3345 79.954)" fill="#636363"/>
<path d="M44.3645 51.3217C45.1018 46.9128 45.359 38.6302 41.6896 32.5145C55.4937 11.9294 77.5318 4.17972 101.992 2.00012L104.171 4.17972C103.641 4.3865 103.117 4.59063 102.599 4.79232C83.1554 12.3675 72.5738 16.4899 64.6495 27.8141C61.3928 27.2159 57.6538 29.107 55.5454 32.7045C52.9756 37.0894 53.8014 42.3491 57.3901 44.4523C60.9788 46.5555 65.9713 44.7058 68.5412 40.3209C70.7539 36.5454 70.4492 32.1214 68.031 29.6221C77.6172 16.8497 88.5097 12.3142 107.263 4.50569C107.523 4.39767 107.784 4.28902 108.046 4.17972L109.499 8.05456C96.1951 13.509 74.9722 35.2747 77.5318 57.9431C77.1991 57.8274 76.8405 57.7004 76.4579 57.565C70.6431 55.5065 59.3146 51.4961 49.7258 55.3261C49.0906 55.5798 48.3666 55.5267 47.8021 55.1404L45.2006 53.3605C44.5434 52.9108 44.2332 52.1071 44.3645 51.3217Z" fill="#C6C6C6"/>
<path d="M70.1782 26.9231L74.7545 56.9672C72.6843 56.2524 70.1572 55.4371 67.3822 54.8038L66.0094 43.2868C66.9794 42.5009 67.8483 41.503 68.5411 40.3208C70.7539 36.5453 70.4491 32.1213 68.031 29.622C68.7387 28.679 69.4536 27.781 70.1782 26.9231Z" fill="url(#paint1_linear)"/>
<path d="M67.6672 10.438L69.446 22.1159C67.7255 23.8077 66.1404 25.6834 64.6494 27.8141C64.4862 27.7841 64.3218 27.7604 64.1564 27.7428L62.419 13.1678C64.1253 12.1846 65.8759 11.2762 67.6672 10.438Z" fill="url(#paint2_linear)"/>
<path d="M62.9829 44.9455L63.7335 54.1176C62.4916 53.9372 61.2214 53.8103 59.9386 53.7581L59.3906 45.2024C60.5572 45.4256 61.7871 45.3279 62.9829 44.9455Z" fill="url(#paint3_linear)"/>
<path d="M60.4773 14.3313L61.5911 27.9402C60.4787 28.2218 59.3843 28.7509 58.3848 29.4989L57.5378 16.2761C58.5008 15.5999 59.4809 14.9519 60.4773 14.3313Z" fill="url(#paint4_linear)"/>
<path d="M39.6947 142.396C37.5694 142.647 35.6428 141.128 35.3913 139.003C35.1398 136.878 36.6586 134.951 38.7839 134.7C40.9089 134.448 42.8357 135.967 43.0872 138.092L55.3571 163.466C59.8787 168.702 68.1205 182.294 64.9147 194.769C64.6719 195.713 64.4088 196.555 64.1291 197.301L66.3672 202.488L66.4282 202.491L66.4489 202.678L66.4676 202.721L66.4545 202.727L66.9258 206.971C66.9912 207.562 66.5138 208.072 65.9199 208.045L63.7129 207.947C63.1642 207.923 62.7454 207.447 62.7907 206.899L63.1002 203.156L62.3152 201.336L62.0189 205.916L62.072 205.946L62.0054 206.122L62.0024 206.169L61.988 206.168L60.4786 210.163C60.2682 210.719 59.6111 210.956 59.0941 210.663L57.1731 209.572C56.6954 209.3 56.5387 208.686 56.828 208.219L58.8057 205.026L58.9836 202.277C58.7118 202.251 58.4411 202.191 58.1738 202.102L57.0397 204.432L57.0773 204.48L56.9495 204.617L56.9286 204.66L56.9155 204.654L54.0057 207.779C53.6004 208.214 52.9023 208.185 52.535 207.717L51.1703 205.98C50.831 205.548 50.9184 204.92 51.363 204.598L54.4026 202.391L55.4896 200.158C53.5117 197.89 52.2469 194.294 52.8584 191.806C53.4359 189.456 53.0299 185.999 52.5859 182.219L52.5856 182.216C51.8906 176.302 51.1029 169.598 53.8444 165.108C50.4103 157.385 42.773 142.031 39.6947 142.396Z" fill="#D0D0D0"/>
<defs>
<filter id="filter0_f" x="0.995283" y="213.532" width="74.8475" height="17.5816" filterUnits="userSpaceOnUse" color-interpolation-filters="sRGB">
<feFlood flood-opacity="0" result="BackgroundImageFix"/>
<feBlend mode="normal" in="SourceGraphic" in2="BackgroundImageFix" result="shape"/>
<feGaussianBlur stdDeviation="1.507" result="effect1_foregroundBlur"/>
</filter>
<radialGradient id="paint0_radial" cx="0" cy="0" r="1" gradientUnits="userSpaceOnUse" gradientTransform="translate(32.1365 75.4022) rotate(52.6071) scale(13.4935 10.7948)">
<stop stop-color="white"/>
<stop offset="1" stop-color="#E7E7E7"/>
</radialGradient>
<linearGradient id="paint1_linear" x1="66.1462" y1="10.438" x2="69.2976" y2="56.7321" gradientUnits="userSpaceOnUse">
<stop stop-color="white" stop-opacity="0.4"/>
<stop offset="1" stop-color="#EDEDED" stop-opacity="0"/>
</linearGradient>
<linearGradient id="paint2_linear" x1="66.1462" y1="10.438" x2="69.2976" y2="56.7321" gradientUnits="userSpaceOnUse">
<stop stop-color="white" stop-opacity="0.4"/>
<stop offset="1" stop-color="#EDEDED" stop-opacity="0"/>
</linearGradient>
<linearGradient id="paint3_linear" x1="66.1462" y1="10.438" x2="69.2976" y2="56.7321" gradientUnits="userSpaceOnUse">
<stop stop-color="white" stop-opacity="0.4"/>
<stop offset="1" stop-color="#EDEDED" stop-opacity="0"/>
</linearGradient>
<linearGradient id="paint4_linear" x1="66.1462" y1="10.438" x2="69.2976" y2="56.7321" gradientUnits="userSpaceOnUse">
<stop stop-color="white" stop-opacity="0.4"/>
<stop offset="1" stop-color="#EDEDED" stop-opacity="0"/>
</linearGradient>
</defs>
</svg>
