<svg width="217" height="441" viewBox="0 0 217 441" fill="none" xmlns="http://www.w3.org/2000/svg">
<mask id="path-1-outside-1" maskUnits="userSpaceOnUse" x="-0.62207" y="0" width="218" height="441" fill="black">
<rect fill="white" x="-0.62207" width="218" height="441"/>
<path d="M101.321 107.202C101.535 107.94 101.72 108.721 101.875 109.547C103.329 117.296 100.228 123.652 95.6004 133.137C88.9983 146.67 79.2891 166.571 75.2657 205.968C73.0003 228.151 74.3679 248.816 77.1072 267.708C79.5888 268.748 81.4544 271.058 81.7932 273.92L106.219 324.431C115.22 334.856 131.627 361.913 125.245 386.747C124.762 388.628 124.238 390.303 123.682 391.788L128.137 402.114L128.258 402.119L128.3 402.492L128.337 402.578L128.311 402.589L129.249 411.038C129.379 412.214 128.429 413.23 127.246 413.177L122.853 412.981C121.761 412.933 120.927 411.986 121.017 410.896L121.633 403.444L120.071 399.822L119.481 408.938L119.586 408.998L119.454 409.349L119.448 409.442L119.419 409.441L116.414 417.392C115.996 418.499 114.687 418.972 113.658 418.387L109.834 416.215C108.883 415.676 108.571 414.453 109.147 413.523L113.084 407.166L113.438 401.694C112.897 401.642 112.358 401.523 111.826 401.346L109.569 405.984L109.643 406.079L109.389 406.352L109.347 406.438L109.321 406.425L103.529 412.646C102.722 413.513 101.332 413.454 100.601 412.524L97.8842 409.065C97.2088 408.205 97.3828 406.956 98.2678 406.314L104.319 401.921L106.483 397.476C102.545 392.96 100.027 385.802 101.245 380.849C102.394 376.17 101.586 369.288 100.702 361.765L100.702 361.759C99.3182 349.985 97.75 336.639 103.208 327.701C97.88 315.72 87.4705 294.513 80.2351 286.079C81.8122 294.268 83.5211 302.059 85.1372 309.426C87.2955 319.266 89.2882 328.35 90.5797 336.619C91.2388 340.839 92.0399 345.09 92.8449 349.361L92.8453 349.363C94.1553 356.314 95.4759 363.32 96.2124 370.342C98.0961 388.303 93.2405 404.489 84.6209 412.716L83.5125 419.81C83.4409 420.268 83.4527 420.737 83.5473 421.191L85.4131 430.146H87.7431C89.8731 430.146 91.6 431.873 91.6 434.003V434.094C91.6 435.764 90.5313 437.277 88.9037 437.652C85.1038 438.529 82.1043 438.334 78.1274 437.535C76.4118 437.191 75.2084 435.657 75.2084 433.907C75.2084 432.496 75.9862 431.265 77.1368 430.622V417.428C75.8455 417.881 74.5079 418.185 73.13 418.33C69.6644 418.693 66.1062 418.66 62.6736 417.958V430.622C63.8243 431.265 64.6021 432.496 64.6021 433.907C64.6021 435.657 63.3987 437.191 61.6831 437.535C57.7062 438.334 54.7067 438.529 50.9068 437.652C49.2792 437.277 48.2105 435.764 48.2105 434.094V434.003C48.2105 431.873 49.9374 430.146 52.0673 430.146H54.3465L55.6732 422.848C55.839 421.935 55.839 421 55.6732 420.088L54.7127 414.805C46.6139 409.667 40.5938 398.422 40.5932 376.176C40.354 373.895 40.4914 364.237 40.5614 359.32C40.577 358.22 40.5893 357.358 40.5932 356.868C40.6659 340.872 41.2914 312.611 42.4428 286.28C35.8747 295.87 27.4702 316.182 23.1294 327.874C29.1383 336.451 28.4125 349.87 27.7721 361.707L27.7718 361.713C27.3629 369.277 26.9889 376.196 28.4306 380.794C29.9569 385.661 27.8941 392.963 24.2484 397.717L26.6876 402.017L33.0029 406.021C33.9265 406.606 34.1787 407.842 33.5587 408.742L31.0649 412.365C30.3936 413.34 29.0102 413.486 28.1506 412.672L21.9784 406.827L21.9531 406.841L21.9062 406.759L21.6351 406.502L21.7037 406.402L19.1588 401.915C18.639 402.126 18.1086 402.278 17.572 402.365L18.2696 407.803L22.5984 413.9C23.2317 414.792 22.9972 416.031 22.0821 416.63L18.4021 419.038C17.4117 419.686 16.0765 419.297 15.5888 418.218L12.0899 410.471L12.0614 410.475L12.0496 410.382L11.8953 410.041L11.997 409.974L10.8351 400.912L9.5032 404.626L10.5868 412.024C10.7452 413.106 9.97275 414.104 8.8856 414.221L4.51324 414.693C3.33645 414.819 2.32413 413.866 2.38015 412.683L2.78528 404.192L2.75845 404.183L2.79015 404.095L2.80789 403.721L2.92882 403.708L6.72607 393.122C6.07705 391.675 5.449 390.036 4.84834 388.189C-3.08268 363.805 11.5905 335.77 19.9184 324.8L41.1196 272.853C41.228 270.88 42.0689 269.121 43.3638 267.825C44.2029 253.121 45.2279 240.327 46.4331 232.485C47.2384 227.244 48.2065 220.45 49.3056 212.737C51.3266 198.553 53.7903 181.263 56.4976 164.819C52.8901 161.108 51.1939 154.963 52.5226 148.579C53.7797 142.539 57.4342 137.776 61.8796 135.617C64.4897 123.357 67.1928 113.741 69.8491 109.547C73.6882 103.485 79.3151 99.2022 84.8167 97.6555C85.8116 88.4546 85.425 74.4367 79.0102 63.7453C106.49 22.7663 150.362 7.33895 199.054 3L203.393 7.33895C202.339 7.75011 201.297 8.156 200.268 8.55703L200.264 8.55846C168.84 20.801 149.044 28.5135 134.266 43.0447C130.841 46.4125 127.685 50.1467 124.717 54.3884C124.413 54.3325 124.107 54.2876 123.799 54.2533L123.736 54.2465C122.059 54.0682 120.333 54.2078 118.629 54.6392C116.414 55.1998 114.236 56.2532 112.246 57.7423C110.068 59.3721 108.117 61.5239 106.593 64.1235C101.477 72.8527 103.121 83.3233 110.265 87.5102C111.521 88.2457 112.862 88.7384 114.248 89.0036C115.081 89.1629 115.93 89.24 116.787 89.2383C122.618 89.2266 128.787 85.5598 132.464 79.2857C136.869 71.7697 136.262 62.9628 131.448 57.9874C150.532 32.5612 172.216 23.5325 209.549 7.98787L211.107 7.33895L214 15.0526C187.515 25.9109 145.266 69.2402 150.362 114.366C149.701 114.137 148.988 113.884 148.229 113.615L148.224 113.614L148.22 113.612C147.176 113.243 146.044 112.842 144.833 112.424C140.804 111.033 135.905 109.45 130.525 108.202C130.403 108.173 130.28 108.145 130.157 108.117C127.814 107.582 125.382 107.113 122.894 106.751C120.449 106.396 117.948 106.145 115.423 106.039L115.339 106.035C110.687 105.846 105.951 106.15 101.321 107.202Z"/>
</mask>
<path d="M101.321 107.202C101.535 107.94 101.72 108.721 101.875 109.547C103.329 117.296 100.228 123.652 95.6004 133.137C88.9983 146.67 79.2891 166.571 75.2657 205.968C73.0003 228.151 74.3679 248.816 77.1072 267.708C79.5888 268.748 81.4544 271.058 81.7932 273.92L106.219 324.431C115.22 334.856 131.627 361.913 125.245 386.747C124.762 388.628 124.238 390.303 123.682 391.788L128.137 402.114L128.258 402.119L128.3 402.492L128.337 402.578L128.311 402.589L129.249 411.038C129.379 412.214 128.429 413.23 127.246 413.177L122.853 412.981C121.761 412.933 120.927 411.986 121.017 410.896L121.633 403.444L120.071 399.822L119.481 408.938L119.586 408.998L119.454 409.349L119.448 409.442L119.419 409.441L116.414 417.392C115.996 418.499 114.687 418.972 113.658 418.387L109.834 416.215C108.883 415.676 108.571 414.453 109.147 413.523L113.084 407.166L113.438 401.694C112.897 401.642 112.358 401.523 111.826 401.346L109.569 405.984L109.643 406.079L109.389 406.352L109.347 406.438L109.321 406.425L103.529 412.646C102.722 413.513 101.332 413.454 100.601 412.524L97.8842 409.065C97.2088 408.205 97.3828 406.956 98.2678 406.314L104.319 401.921L106.483 397.476C102.545 392.96 100.027 385.802 101.245 380.849C102.394 376.17 101.586 369.288 100.702 361.765L100.702 361.759C99.3182 349.985 97.75 336.639 103.208 327.701C97.88 315.72 87.4705 294.513 80.2351 286.079C81.8122 294.268 83.5211 302.059 85.1372 309.426C87.2955 319.266 89.2882 328.35 90.5797 336.619C91.2388 340.839 92.0399 345.09 92.8449 349.361L92.8453 349.363C94.1553 356.314 95.4759 363.32 96.2124 370.342C98.0961 388.303 93.2405 404.489 84.6209 412.716L83.5125 419.81C83.4409 420.268 83.4527 420.737 83.5473 421.191L85.4131 430.146H87.7431C89.8731 430.146 91.6 431.873 91.6 434.003V434.094C91.6 435.764 90.5313 437.277 88.9037 437.652C85.1038 438.529 82.1043 438.334 78.1274 437.535C76.4118 437.191 75.2084 435.657 75.2084 433.907C75.2084 432.496 75.9862 431.265 77.1368 430.622V417.428C75.8455 417.881 74.5079 418.185 73.13 418.33C69.6644 418.693 66.1062 418.66 62.6736 417.958V430.622C63.8243 431.265 64.6021 432.496 64.6021 433.907C64.6021 435.657 63.3987 437.191 61.6831 437.535C57.7062 438.334 54.7067 438.529 50.9068 437.652C49.2792 437.277 48.2105 435.764 48.2105 434.094V434.003C48.2105 431.873 49.9374 430.146 52.0673 430.146H54.3465L55.6732 422.848C55.839 421.935 55.839 421 55.6732 420.088L54.7127 414.805C46.6139 409.667 40.5938 398.422 40.5932 376.176C40.354 373.895 40.4914 364.237 40.5614 359.32C40.577 358.22 40.5893 357.358 40.5932 356.868C40.6659 340.872 41.2914 312.611 42.4428 286.28C35.8747 295.87 27.4702 316.182 23.1294 327.874C29.1383 336.451 28.4125 349.87 27.7721 361.707L27.7718 361.713C27.3629 369.277 26.9889 376.196 28.4306 380.794C29.9569 385.661 27.8941 392.963 24.2484 397.717L26.6876 402.017L33.0029 406.021C33.9265 406.606 34.1787 407.842 33.5587 408.742L31.0649 412.365C30.3936 413.34 29.0102 413.486 28.1506 412.672L21.9784 406.827L21.9531 406.841L21.9062 406.759L21.6351 406.502L21.7037 406.402L19.1588 401.915C18.639 402.126 18.1086 402.278 17.572 402.365L18.2696 407.803L22.5984 413.9C23.2317 414.792 22.9972 416.031 22.0821 416.63L18.4021 419.038C17.4117 419.686 16.0765 419.297 15.5888 418.218L12.0899 410.471L12.0614 410.475L12.0496 410.382L11.8953 410.041L11.997 409.974L10.8351 400.912L9.5032 404.626L10.5868 412.024C10.7452 413.106 9.97275 414.104 8.8856 414.221L4.51324 414.693C3.33645 414.819 2.32413 413.866 2.38015 412.683L2.78528 404.192L2.75845 404.183L2.79015 404.095L2.80789 403.721L2.92882 403.708L6.72607 393.122C6.07705 391.675 5.449 390.036 4.84834 388.189C-3.08268 363.805 11.5905 335.77 19.9184 324.8L41.1196 272.853C41.228 270.88 42.0689 269.121 43.3638 267.825C44.2029 253.121 45.2279 240.327 46.4331 232.485C47.2384 227.244 48.2065 220.45 49.3056 212.737C51.3266 198.553 53.7903 181.263 56.4976 164.819C52.8901 161.108 51.1939 154.963 52.5226 148.579C53.7797 142.539 57.4342 137.776 61.8796 135.617C64.4897 123.357 67.1928 113.741 69.8491 109.547C73.6882 103.485 79.3151 99.2022 84.8167 97.6555C85.8116 88.4546 85.425 74.4367 79.0102 63.7453C106.49 22.7663 150.362 7.33895 199.054 3L203.393 7.33895C202.339 7.75011 201.297 8.156 200.268 8.55703L200.264 8.55846C168.84 20.801 149.044 28.5135 134.266 43.0447C130.841 46.4125 127.685 50.1467 124.717 54.3884C124.413 54.3325 124.107 54.2876 123.799 54.2533L123.736 54.2465C122.059 54.0682 120.333 54.2078 118.629 54.6392C116.414 55.1998 114.236 56.2532 112.246 57.7423C110.068 59.3721 108.117 61.5239 106.593 64.1235C101.477 72.8527 103.121 83.3233 110.265 87.5102C111.521 88.2457 112.862 88.7384 114.248 89.0036C115.081 89.1629 115.93 89.24 116.787 89.2383C122.618 89.2266 128.787 85.5598 132.464 79.2857C136.869 71.7697 136.262 62.9628 131.448 57.9874C150.532 32.5612 172.216 23.5325 209.549 7.98787L211.107 7.33895L214 15.0526C187.515 25.9109 145.266 69.2402 150.362 114.366C149.701 114.137 148.988 113.884 148.229 113.615L148.224 113.614L148.22 113.612C147.176 113.243 146.044 112.842 144.833 112.424C140.804 111.033 135.905 109.45 130.525 108.202C130.403 108.173 130.28 108.145 130.157 108.117C127.814 107.582 125.382 107.113 122.894 106.751C120.449 106.396 117.948 106.145 115.423 106.039L115.339 106.035C110.687 105.846 105.951 106.15 101.321 107.202Z" fill="#1D1D1D"/>
<path d="M101.321 107.202C101.535 107.94 101.72 108.721 101.875 109.547C103.329 117.296 100.228 123.652 95.6004 133.137C88.9983 146.67 79.2891 166.571 75.2657 205.968C73.0003 228.151 74.3679 248.816 77.1072 267.708C79.5888 268.748 81.4544 271.058 81.7932 273.92L106.219 324.431C115.22 334.856 131.627 361.913 125.245 386.747C124.762 388.628 124.238 390.303 123.682 391.788L128.137 402.114L128.258 402.119L128.3 402.492L128.337 402.578L128.311 402.589L129.249 411.038C129.379 412.214 128.429 413.23 127.246 413.177L122.853 412.981C121.761 412.933 120.927 411.986 121.017 410.896L121.633 403.444L120.071 399.822L119.481 408.938L119.586 408.998L119.454 409.349L119.448 409.442L119.419 409.441L116.414 417.392C115.996 418.499 114.687 418.972 113.658 418.387L109.834 416.215C108.883 415.676 108.571 414.453 109.147 413.523L113.084 407.166L113.438 401.694C112.897 401.642 112.358 401.523 111.826 401.346L109.569 405.984L109.643 406.079L109.389 406.352L109.347 406.438L109.321 406.425L103.529 412.646C102.722 413.513 101.332 413.454 100.601 412.524L97.8842 409.065C97.2088 408.205 97.3828 406.956 98.2678 406.314L104.319 401.921L106.483 397.476C102.545 392.96 100.027 385.802 101.245 380.849C102.394 376.17 101.586 369.288 100.702 361.765L100.702 361.759C99.3182 349.985 97.75 336.639 103.208 327.701C97.88 315.72 87.4705 294.513 80.2351 286.079C81.8122 294.268 83.5211 302.059 85.1372 309.426C87.2955 319.266 89.2882 328.35 90.5797 336.619C91.2388 340.839 92.0399 345.09 92.8449 349.361L92.8453 349.363C94.1553 356.314 95.4759 363.32 96.2124 370.342C98.0961 388.303 93.2405 404.489 84.6209 412.716L83.5125 419.81C83.4409 420.268 83.4527 420.737 83.5473 421.191L85.4131 430.146H87.7431C89.8731 430.146 91.6 431.873 91.6 434.003V434.094C91.6 435.764 90.5313 437.277 88.9037 437.652C85.1038 438.529 82.1043 438.334 78.1274 437.535C76.4118 437.191 75.2084 435.657 75.2084 433.907C75.2084 432.496 75.9862 431.265 77.1368 430.622V417.428C75.8455 417.881 74.5079 418.185 73.13 418.33C69.6644 418.693 66.1062 418.66 62.6736 417.958V430.622C63.8243 431.265 64.6021 432.496 64.6021 433.907C64.6021 435.657 63.3987 437.191 61.6831 437.535C57.7062 438.334 54.7067 438.529 50.9068 437.652C49.2792 437.277 48.2105 435.764 48.2105 434.094V434.003C48.2105 431.873 49.9374 430.146 52.0673 430.146H54.3465L55.6732 422.848C55.839 421.935 55.839 421 55.6732 420.088L54.7127 414.805C46.6139 409.667 40.5938 398.422 40.5932 376.176C40.354 373.895 40.4914 364.237 40.5614 359.32C40.577 358.22 40.5893 357.358 40.5932 356.868C40.6659 340.872 41.2914 312.611 42.4428 286.28C35.8747 295.87 27.4702 316.182 23.1294 327.874C29.1383 336.451 28.4125 349.87 27.7721 361.707L27.7718 361.713C27.3629 369.277 26.9889 376.196 28.4306 380.794C29.9569 385.661 27.8941 392.963 24.2484 397.717L26.6876 402.017L33.0029 406.021C33.9265 406.606 34.1787 407.842 33.5587 408.742L31.0649 412.365C30.3936 413.34 29.0102 413.486 28.1506 412.672L21.9784 406.827L21.9531 406.841L21.9062 406.759L21.6351 406.502L21.7037 406.402L19.1588 401.915C18.639 402.126 18.1086 402.278 17.572 402.365L18.2696 407.803L22.5984 413.9C23.2317 414.792 22.9972 416.031 22.0821 416.63L18.4021 419.038C17.4117 419.686 16.0765 419.297 15.5888 418.218L12.0899 410.471L12.0614 410.475L12.0496 410.382L11.8953 410.041L11.997 409.974L10.8351 400.912L9.5032 404.626L10.5868 412.024C10.7452 413.106 9.97275 414.104 8.8856 414.221L4.51324 414.693C3.33645 414.819 2.32413 413.866 2.38015 412.683L2.78528 404.192L2.75845 404.183L2.79015 404.095L2.80789 403.721L2.92882 403.708L6.72607 393.122C6.07705 391.675 5.449 390.036 4.84834 388.189C-3.08268 363.805 11.5905 335.77 19.9184 324.8L41.1196 272.853C41.228 270.88 42.0689 269.121 43.3638 267.825C44.2029 253.121 45.2279 240.327 46.4331 232.485C47.2384 227.244 48.2065 220.45 49.3056 212.737C51.3266 198.553 53.7903 181.263 56.4976 164.819C52.8901 161.108 51.1939 154.963 52.5226 148.579C53.7797 142.539 57.4342 137.776 61.8796 135.617C64.4897 123.357 67.1928 113.741 69.8491 109.547C73.6882 103.485 79.3151 99.2022 84.8167 97.6555C85.8116 88.4546 85.425 74.4367 79.0102 63.7453C106.49 22.7663 150.362 7.33895 199.054 3L203.393 7.33895C202.339 7.75011 201.297 8.156 200.268 8.55703L200.264 8.55846C168.84 20.801 149.044 28.5135 134.266 43.0447C130.841 46.4125 127.685 50.1467 124.717 54.3884C124.413 54.3325 124.107 54.2876 123.799 54.2533L123.736 54.2465C122.059 54.0682 120.333 54.2078 118.629 54.6392C116.414 55.1998 114.236 56.2532 112.246 57.7423C110.068 59.3721 108.117 61.5239 106.593 64.1235C101.477 72.8527 103.121 83.3233 110.265 87.5102C111.521 88.2457 112.862 88.7384 114.248 89.0036C115.081 89.1629 115.93 89.24 116.787 89.2383C122.618 89.2266 128.787 85.5598 132.464 79.2857C136.869 71.7697 136.262 62.9628 131.448 57.9874C150.532 32.5612 172.216 23.5325 209.549 7.98787L211.107 7.33895L214 15.0526C187.515 25.9109 145.266 69.2402 150.362 114.366C149.701 114.137 148.988 113.884 148.229 113.615L148.224 113.614L148.22 113.612C147.176 113.243 146.044 112.842 144.833 112.424C140.804 111.033 135.905 109.45 130.525 108.202C130.403 108.173 130.28 108.145 130.157 108.117C127.814 107.582 125.382 107.113 122.894 106.751C120.449 106.396 117.948 106.145 115.423 106.039L115.339 106.035C110.687 105.846 105.951 106.15 101.321 107.202Z" stroke="#1D1D1D" stroke-width="4" mask="url(#path-1-outside-1)"/>
<path d="M62.6736 410.862H53.9957L55.6732 420.088C55.8389 421.001 55.8389 421.936 55.6732 422.848L54.3465 430.146H52.0673C49.9374 430.146 48.2104 431.873 48.2104 434.003V434.094C48.2104 435.765 49.2792 437.277 50.9068 437.653C54.7066 438.53 57.7061 438.334 61.683 437.535C63.3987 437.191 64.602 435.657 64.602 433.908C64.602 432.496 63.8243 431.265 62.6736 430.622V410.862Z" fill="#2C2424"/>
<path d="M85.8148 405.077H77.1369V430.622C75.9863 431.265 75.2085 432.496 75.2085 433.908C75.2085 435.657 76.4119 437.191 78.1275 437.535C82.1044 438.334 85.1039 438.53 88.9038 437.653C90.5314 437.277 91.6001 435.765 91.6001 434.094V434.003C91.6001 431.873 89.8732 430.146 87.7432 430.146H85.4132L83.5474 421.192C83.4528 420.737 83.441 420.269 83.5126 419.81L85.8148 405.077Z" fill="#2C2424"/>
<path d="M48.3985 280.979C52.6524 281.212 56.29 277.954 56.5236 273.7C56.7573 269.446 53.4986 265.808 49.2447 265.575C44.9912 265.341 41.3532 268.6 41.1195 272.854L19.9183 324.801C11.5904 335.77 -3.0828 363.805 4.84821 388.189C5.44887 390.036 6.07693 391.675 6.72594 393.122L2.9287 403.708L2.80776 403.721L2.79003 404.095L2.75833 404.183L2.78515 404.193L2.38002 412.684C2.32401 413.866 3.33632 414.82 4.51312 414.693L8.88547 414.221C9.97262 414.104 10.745 413.107 10.5867 412.024L9.50307 404.626L10.8349 400.913L11.9969 409.974L11.8952 410.041L12.0495 410.382L12.0613 410.475L12.0898 410.472L15.5887 418.219C16.0764 419.297 17.4116 419.687 18.402 419.038L22.082 416.63C22.997 416.032 23.2316 414.792 22.5983 413.9L18.2694 407.803L17.5719 402.365C18.1085 402.278 18.6388 402.126 19.1587 401.915L21.7036 406.403L21.6349 406.502L21.9061 406.759L21.9529 406.842L21.9782 406.827L28.1504 412.672C29.0101 413.486 30.3935 413.34 31.0648 412.365L33.5586 408.743C34.1786 407.842 33.9264 406.606 33.0027 406.021L26.6875 402.017L24.2483 397.717C27.894 392.963 29.9567 385.661 28.4304 380.794C26.9888 376.197 27.3628 369.277 27.7717 361.713L27.772 361.708C28.4124 349.87 29.1382 336.451 23.1293 327.874C28.9853 312.101 42.2369 280.64 48.3985 280.979Z" fill="#C6C6C6"/>
<path d="M96.2128 370.343C98.8235 395.235 88.4891 416.719 73.1303 418.33C57.7715 419.941 40.5946 413.755 40.5936 376.176C40.3009 373.386 40.572 359.55 40.5936 356.868C40.764 335.629 52.1746 326.726 65.8117 325.296C74.1743 324.419 88.5257 325.296 90.5801 336.62C92.3119 347.708 95.0235 359.004 96.2128 370.343Z" fill="#352F2F"/>
<path d="M65.8117 325.296C74.1743 324.419 88.5257 325.296 90.5801 336.62C85.5352 304.319 69.7912 259.579 75.266 205.969C82.1096 138.956 105.403 128.35 101.876 109.548C98.3485 90.7457 79.0095 95.0842 69.8495 109.547C60.6895 124.011 50.9733 202.941 46.4334 232.485C42.7293 256.59 40.7273 327.46 40.5936 356.868C40.764 335.629 52.1746 326.726 65.8117 325.296Z" fill="#352F2F"/>
<path d="M62.3444 168.691C70.1596 170.317 77.9428 163.726 79.9089 154.28C81.875 144.833 77.3679 135.684 69.5527 134.057C61.7374 132.431 53.9542 139.022 51.9882 148.468C50.0221 157.915 54.5291 167.064 62.3444 168.691Z" fill="url(#paint0_radial)" stroke="#1D1D1D" stroke-width="1.09205"/>
<circle cx="68.35" cy="158.184" r="7.62543" transform="rotate(-8.10152 68.35 158.184)" fill="#636363"/>
<path d="M84.3358 101.186C85.8034 92.4087 86.3155 75.9204 79.0107 63.7458C106.491 22.7668 150.362 7.33944 199.055 3.00049L203.394 7.33944C202.338 7.75108 201.295 8.15745 200.265 8.55895C161.557 23.639 140.492 31.8456 124.717 54.3888C118.234 53.1979 110.791 56.9624 106.594 64.124C101.478 72.8532 103.122 83.3238 110.266 87.5107C117.41 91.6976 127.349 88.0153 132.465 79.2861C136.87 71.7702 136.263 62.9633 131.449 57.9879C150.532 32.5617 172.216 23.533 209.549 7.98836C210.066 7.77332 210.585 7.55703 211.108 7.33944L214 15.0531C187.516 25.9114 145.267 69.2407 150.362 114.367C149.7 114.137 148.986 113.884 148.225 113.614C136.649 109.516 114.097 101.533 95.0086 109.157C93.7441 109.662 92.3028 109.557 91.179 108.788L86.0002 105.244C84.6919 104.349 84.0744 102.749 84.3358 101.186Z" fill="#C6C6C6"/>
<path d="M135.723 52.6151L144.833 112.424C140.712 111.001 135.681 109.378 130.157 108.118L127.424 85.1905C129.355 83.626 131.085 81.6395 132.464 79.2861C136.869 71.7702 136.263 62.9633 131.449 57.9878C132.858 56.1106 134.281 54.3228 135.723 52.6151Z" fill="url(#paint1_linear)"/>
<path d="M130.725 19.7979L134.266 43.0453C130.841 46.4131 127.685 50.1472 124.717 54.3888C124.392 54.3291 124.065 54.2819 123.736 54.2469L120.277 25.2321C123.674 23.2748 127.159 21.4666 130.725 19.7979Z" fill="url(#paint2_linear)"/>
<path d="M121.4 88.4925L122.894 106.752C120.422 106.392 117.893 106.14 115.339 106.036L114.248 89.004C116.571 89.4481 119.019 89.2537 121.4 88.4925Z" fill="url(#paint3_linear)"/>
<path d="M116.412 27.5483L118.629 54.6397C116.415 55.2003 114.236 56.2536 112.246 57.7427L110.56 31.4198C112.477 30.0737 114.428 28.7839 116.412 27.5483Z" fill="url(#paint4_linear)"/>
<path d="M75.0393 282.488C70.8085 282.988 66.9732 279.965 66.4725 275.734C65.9718 271.503 68.9953 267.668 73.2261 267.167C77.4565 266.667 81.2922 269.69 81.793 273.921L106.219 324.432C115.22 334.856 131.627 361.913 125.245 386.748C124.762 388.628 124.238 390.304 123.681 391.789L128.137 402.115L128.258 402.12L128.299 402.493L128.337 402.578L128.31 402.589L129.249 411.038C129.379 412.215 128.429 413.23 127.246 413.178L122.853 412.982C121.76 412.933 120.927 411.986 121.017 410.896L121.633 403.445L120.07 399.822L119.48 408.939L119.586 408.999L119.454 409.349L119.448 409.443L119.419 409.441L116.414 417.393C115.995 418.5 114.687 418.973 113.658 418.388L109.834 416.216C108.883 415.676 108.571 414.454 109.147 413.524L113.084 407.167L113.438 401.695C112.897 401.643 112.358 401.524 111.826 401.346L109.568 405.985L109.643 406.08L109.389 406.353L109.347 406.439L109.321 406.426L103.529 412.647C102.722 413.513 101.332 413.455 100.601 412.524L97.884 409.066C97.2086 408.206 97.3826 406.957 98.2676 406.314L104.319 401.921L106.483 397.477C102.545 392.961 100.027 385.803 101.244 380.85C102.394 376.171 101.586 369.289 100.702 361.765L100.701 361.76C99.3179 349.986 97.7498 336.639 103.207 327.701C96.3711 312.328 81.1674 281.763 75.0393 282.488Z" fill="#D0D0D0"/>
<defs>
<radialGradient id="paint0_radial" cx="0" cy="0" r="1" gradientUnits="userSpaceOnUse" gradientTransform="translate(59.993 149.123) rotate(52.6071) scale(26.8617 21.4894)">
<stop stop-color="white"/>
<stop offset="1" stop-color="#E7E7E7"/>
</radialGradient>
<linearGradient id="paint1_linear" x1="127.697" y1="19.7979" x2="133.97" y2="111.956" gradientUnits="userSpaceOnUse">
<stop stop-color="white" stop-opacity="0.4"/>
<stop offset="1" stop-color="#EDEDED" stop-opacity="0"/>
</linearGradient>
<linearGradient id="paint2_linear" x1="127.697" y1="19.7979" x2="133.97" y2="111.956" gradientUnits="userSpaceOnUse">
<stop stop-color="white" stop-opacity="0.4"/>
<stop offset="1" stop-color="#EDEDED" stop-opacity="0"/>
</linearGradient>
<linearGradient id="paint3_linear" x1="127.697" y1="19.7979" x2="133.97" y2="111.956" gradientUnits="userSpaceOnUse">
<stop stop-color="white" stop-opacity="0.4"/>
<stop offset="1" stop-color="#EDEDED" stop-opacity="0"/>
</linearGradient>
<linearGradient id="paint4_linear" x1="127.697" y1="19.7979" x2="133.97" y2="111.956" gradientUnits="userSpaceOnUse">
<stop stop-color="white" stop-opacity="0.4"/>
<stop offset="1" stop-color="#EDEDED" stop-opacity="0"/>
</linearGradient>
</defs>
</svg>
