<svg width="239" height="361" viewBox="0 0 239 361" fill="none" xmlns="http://www.w3.org/2000/svg">
<path d="M168.901 185.424L168.906 185.424C172.781 185.633 176.228 183.886 179.21 181.068C182.184 178.257 184.775 174.313 186.993 169.919C191.408 161.168 194.463 150.383 196.09 142.439L199.833 131.434C201.467 126.63 198.268 121.541 193.232 120.929C188.731 120.383 184.678 123.687 184.306 128.206L184.065 131.133C183.765 134.785 185.325 138.217 188.016 140.409C188.03 140.556 188.026 140.789 187.955 141.134C187.834 141.716 187.539 142.532 186.942 143.613C185.747 145.775 183.414 148.869 179.169 153.075C171.105 161.063 167.415 169.493 166.162 174.316C160.709 168.293 155.099 164.005 149.921 161.011C150.91 148.436 151.368 135.421 150.985 122.661C156.728 120.079 159.787 112.762 158.376 105.291C157.194 99.0358 153.167 94.075 148.217 92.4041C146.156 79.8699 142.874 68.2106 137.991 58.2629L137.896 58.0699L137.735 57.9271L137.326 57.5639L137.324 57.5627L78.643 5.33688L78.6409 5.33505L78.6398 5.33401L76.94 3.80914L76.8211 6.09115L73.0014 79.4315L72.9885 79.6789L73.0705 79.8759C78.395 96.6103 82.5484 120.381 81.1243 149.801C77.7472 152.521 75.9044 156.909 76.5929 161.431C74.0964 163.101 71.9454 165.861 70.0962 169.144C68.0738 172.734 66.3497 177.063 64.9078 181.565C62.0237 190.57 60.2269 200.401 59.4528 206.715L59.4523 206.719C58.7707 212.464 62.4642 217.515 67.7448 221.694L58.1993 254.146C56.1178 261.223 58.9669 268.879 65.3085 272.562C65.5094 273.518 65.8138 274.467 66.2267 275.394C68.2743 279.99 72.4934 282.94 77.1333 283.576C78.1717 284.667 79.7282 285.513 81.5241 286.192C83.5322 286.95 85.9743 287.547 88.6468 288.018C93.5531 288.881 99.3467 289.336 104.891 289.536C104.265 291.479 103.645 293.958 103.195 296.389C102.632 299.427 102.295 302.59 102.643 304.565C102.782 305.354 102.761 306.79 102.581 308.734C102.404 310.641 102.084 312.932 101.679 315.366C100.936 319.833 99.9117 324.738 98.9769 328.57L98.43 328.46L98.1874 329.488L97.4704 332.527C96.5767 336.314 98.5586 340.191 102.152 341.685L117.102 347.899C120.471 349.299 124.292 347.346 125.13 343.795L125.429 342.527C125.803 340.939 125.173 339.282 123.838 338.344C119.321 335.172 114.366 332.699 109.141 330.997C132.759 307.148 133.351 289.551 129.61 282.009C131.174 281.894 132.741 281.756 134.288 281.601C133.932 283.611 133.654 286.151 133.539 288.621C133.394 291.707 133.49 294.886 134.103 296.796C134.301 297.415 134.458 298.492 134.555 299.969C134.65 301.42 134.682 303.175 134.664 305.099C134.631 308.604 134.432 312.63 134.153 316.328L134.133 316.327L134.029 317.377L133.724 320.484C133.691 320.822 133.679 321.158 133.689 321.491C133.609 322.243 133.527 322.95 133.445 323.601L133.279 324.909L134.534 324.832C135.526 326.8 137.324 328.334 139.585 328.935L155.231 333.1C158.756 334.038 162.282 331.592 162.639 327.962L162.767 326.665C162.926 325.041 162.081 323.483 160.632 322.732C156.375 320.524 151.86 318.883 147.204 317.842C165.155 291.87 161.919 275.371 156.874 269.644C156.392 267.641 154.604 265.934 151.483 264.551C145.796 262.032 137.685 260.274 130.47 259.137L139.119 229.733L139.126 229.71L139.131 229.688C142.05 217.913 145.311 201.291 147.694 182.572C155.571 184.231 163.517 185.113 168.901 185.424ZM70.714 204.695C71.5427 204.036 72.3422 203.373 73.1134 202.707C72.8952 203.578 72.672 204.451 72.444 205.328C71.8292 205.082 71.2505 204.872 70.714 204.695Z" fill="#1D1D1D" stroke="#1D1D1D" stroke-width="2.18411"/>
<path d="M123.161 169.989C129.232 168.266 132.757 161.949 131.034 155.878C129.312 149.807 122.994 146.282 116.923 148.005C110.852 149.727 107.327 156.045 109.05 162.116C110.773 168.187 117.091 171.712 123.161 169.989Z" fill="#2E53D2"/>
<path d="M123.161 169.989C129.232 168.266 132.757 161.949 131.034 155.878C137.062 155.889 152.672 160.066 166.891 176.687L169.061 184.334C156.461 183.606 129.64 179.718 123.161 169.989Z" fill="#2E53D2"/>
<path d="M169.061 184.334L166.891 176.687C167.375 172.935 170.682 163.114 180.034 153.85C189.386 144.587 189.817 140.402 188.863 139.468L195.618 139.616C192.884 154.852 183.745 185.124 169.061 184.334Z" fill="#2E53D2"/>
<path d="M192.84 121.97C189.149 121.523 185.826 124.232 185.521 127.937L185.03 133.897C184.768 137.087 186.848 140 189.95 140.786L195.148 142.104L199.033 130.679C200.373 126.74 197.75 122.566 193.619 122.065L192.84 121.97Z" fill="#2E53D2"/>
<path d="M95.0837 272.267C97.6045 276.33 102.012 278.507 106.471 278.369C108.664 278.301 110.87 277.673 112.869 276.432C118.931 272.671 120.796 264.708 117.034 258.646C113.273 252.585 105.31 250.72 99.2486 254.481C93.1871 258.243 91.3224 266.206 95.0837 272.267Z" fill="#D292C8"/>
<path d="M112.869 276.432C118.931 272.671 120.796 264.708 117.034 258.646C124.37 259.162 141.46 261.263 151.136 265.55C154.306 266.954 155.693 268.553 155.96 270.156C156.508 273.446 152.343 276.756 149.198 278.445C145.618 279.089 140.837 279.809 135.748 280.36C123.892 281.644 110.367 282.012 106.471 278.369C108.664 278.301 110.87 277.673 112.869 276.432Z" fill="#D292C8"/>
<path d="M149.198 278.445C152.343 276.756 156.508 273.446 155.96 270.156C160.93 275.453 165.085 293.494 141.944 323.288L134.623 323.738C135.614 315.913 136.489 300.363 135.238 296.462C134.145 293.056 134.792 284.461 135.748 280.36C140.837 279.809 145.618 279.089 149.198 278.445Z" fill="#D292C8"/>
<path d="M161.776 326.559C161.892 325.379 161.278 324.247 160.226 323.701C153.544 320.236 146.215 318.196 138.704 317.71L135.213 317.484L134.701 322.69C134.492 324.82 135.857 326.788 137.925 327.338L156.126 332.182C158.729 332.875 161.333 331.069 161.597 328.388L161.776 326.559Z" fill="#D292C8"/>
<path d="M131.438 252.303C107.071 249.793 92.989 246.773 65.667 232.957L58.079 258.754C56.7789 263.174 58.7178 267.927 62.8075 270.049C82.7822 280.412 95.8765 283.886 113.943 285.225C118.447 285.559 122.52 282.622 123.795 278.288L131.438 252.303Z" fill="#EBB9E3"/>
<path d="M137.105 58.7449C160.161 105.711 147.419 192.101 138.166 229.425C110.916 230.524 82.9644 216.986 72.3952 210.079C93.8608 152.596 83.5886 102.104 74.188 79.4889L78.0077 6.14856L137.105 58.7449Z" fill="#EEDAB3"/>
<path fill-rule="evenodd" clip-rule="evenodd" d="M137.106 58.7442C160.161 105.71 147.42 192.1 138.167 229.425C131.58 229.69 124.953 229.101 118.54 227.956C108.442 226.154 98.8752 222.977 90.8372 219.597C101.678 180.156 106.021 118.657 95.4013 85.9422L105.005 62.2478L121.883 79.5225L136.696 58.3789L137.106 58.7442Z" fill="#8199F0"/>
<path d="M79.1285 63.9572L95.4013 85.9422C106.021 118.657 101.678 180.156 90.8372 219.597C82.86 216.242 76.3882 212.687 72.3961 210.079C88.406 152.129 82.8434 106.65 74.1887 79.4882L79.1285 63.9572Z" fill="#8199F0"/>
<path d="M79.1285 63.9572L95.4013 85.9422C106.021 118.657 101.678 180.156 90.8372 219.597C82.86 216.242 76.3882 212.687 72.3961 210.079C88.406 152.129 82.8434 106.65 74.1887 79.4882L79.1285 63.9572Z" fill="#2E53D2"/>
<path fill-rule="evenodd" clip-rule="evenodd" d="M121.883 79.5225C135.934 113.628 131.284 186.992 118.54 227.956C108.442 226.154 98.8752 222.977 90.8372 219.597C101.678 180.156 106.021 118.657 95.4013 85.9422L105.005 62.2478L121.883 79.5225Z" fill="#5372E1"/>
<path d="M138.167 229.426C113.799 226.915 99.7175 223.895 72.3955 210.079L62.5822 243.442C89.6001 258.361 103.852 261.732 128.353 262.788L138.167 229.426Z" fill="#D9D9D9"/>
<path d="M132.507 249.154C115.596 253.236 91.503 244.082 79.3775 237.944C78.0411 237.267 76.4028 237.917 75.9292 239.338C75.5512 240.472 76.0714 241.716 77.1466 242.238C105.002 255.76 124.548 256.177 130.939 254.643L132.507 249.154Z" fill="#AEAEAE"/>
<path d="M135.643 238.962C118.738 243.042 96.0108 233.219 84.0725 226.985C82.7448 226.292 81.1069 226.94 80.6333 228.361C80.2553 229.495 80.7764 230.74 81.8516 231.262C109.64 244.75 127.684 244.416 134.075 242.882L135.643 238.962Z" fill="#AEAEAE"/>
<path d="M67.3209 274.949C69.2663 279.317 73.3376 282.073 77.773 282.542C79.9557 282.773 82.2266 282.45 84.3757 281.492C90.892 278.589 93.8214 270.954 90.9186 264.437C88.0158 257.921 80.3801 254.992 73.8638 257.895C67.3474 260.797 64.4181 268.433 67.3209 274.949Z" fill="#F6CAEF"/>
<path d="M84.3757 281.492C90.892 278.589 93.8214 270.954 90.9186 264.437C98.1162 265.945 114.762 270.349 123.766 275.91C126.716 277.732 127.873 279.505 127.92 281.13C128.016 284.464 123.439 287.177 120.094 288.423C116.459 288.574 111.625 288.638 106.508 288.493C94.588 288.154 81.1388 286.681 77.773 282.542C79.9557 282.773 82.2266 282.45 84.3757 281.492Z" fill="#F6CAEF"/>
<path d="M120.094 288.423C123.439 287.177 128.016 284.464 127.92 281.13C132.124 287.052 133.789 305.491 106.815 331.864L99.5 331.316C101.545 323.697 104.525 308.411 103.815 304.376C103.195 300.853 105.004 292.426 106.508 288.493C111.625 288.638 116.459 288.574 120.094 288.423Z" fill="#F6CAEF"/>
<path d="M124.462 342.277C124.734 341.123 124.276 339.92 123.306 339.238C117.146 334.912 110.156 331.913 102.777 330.429L99.3464 329.74L98.1451 334.831C97.6536 336.914 98.7437 339.046 100.72 339.867L118.112 347.096C120.599 348.13 123.421 346.688 124.04 344.066L124.462 342.277Z" fill="#F6CAEF"/>
<path d="M77.0918 23.7709L90.9471 17.6632L78.0096 6.14893L77.0918 23.7709Z" fill="#2E52D2"/>
<path d="M148.552 122.889C141.68 124.188 134.993 118.289 133.432 110.023C131.87 101.757 135.943 93.8254 142.816 92.527C149.688 91.2286 156.374 97.127 157.936 105.393C159.498 113.66 155.424 121.591 148.552 122.889Z" fill="url(#paint0_radial)" stroke="#1D1D1D" stroke-width="1.09205"/>
<path d="M119.506 128.27C112.633 129.568 105.947 123.67 104.385 115.403C102.823 107.137 106.897 99.2057 113.769 97.9074C120.642 96.609 127.328 102.507 128.89 110.774C130.452 119.04 126.378 126.971 119.506 128.27Z" fill="url(#paint1_radial)" stroke="#1D1D1D" stroke-width="1.09205"/>
<circle r="6.27248" transform="matrix(-0.987248 -0.159191 -0.159191 0.987248 115.392 119.919)" fill="#636363"/>
<circle r="6.27248" transform="matrix(-0.987248 -0.159191 -0.159191 0.987248 149.891 112.078)" fill="#636363"/>
<path d="M77.8973 161.964C79.2264 168.133 85.3048 172.057 91.4738 170.728C97.6428 169.399 101.566 163.32 100.237 157.151C98.908 150.982 92.8296 147.059 86.6607 148.388C80.4917 149.717 76.5682 155.796 77.8973 161.964Z" fill="#8199F0"/>
<path d="M77.8973 161.964C79.2264 168.133 85.3048 172.057 91.4738 170.728C91.0757 176.742 85.9043 192.052 68.4036 205.173L60.6333 206.848C62.1691 194.32 67.7722 167.805 77.8973 161.964Z" fill="#8199F0"/>
<path d="M60.6333 206.848L68.4036 205.173C72.1171 205.898 81.7049 209.829 90.3487 219.757C98.9925 229.684 103.141 230.383 104.134 229.491L103.552 236.223C88.5239 232.516 58.9008 221.45 60.6333 206.848Z" fill="#8199F0"/>
<path d="M121.339 234.584C122.024 230.93 119.533 227.439 115.855 226.897L109.939 226.024C106.773 225.557 103.732 227.446 102.748 230.491L101.099 235.593L112.251 240.205C116.095 241.795 120.43 239.445 121.195 235.356L121.339 234.584Z" fill="#8199F0"/>
<defs>
<radialGradient id="paint0_radial" cx="0" cy="0" r="1" gradientUnits="userSpaceOnUse" gradientTransform="translate(150.897 105.847) rotate(128.451) scale(23.3545 18.6836)">
<stop stop-color="white"/>
<stop offset="1" stop-color="#E7E7E7"/>
</radialGradient>
<radialGradient id="paint1_radial" cx="0" cy="0" r="1" gradientUnits="userSpaceOnUse" gradientTransform="translate(121.851 111.228) rotate(128.451) scale(23.3545 18.6836)">
<stop stop-color="white"/>
<stop offset="1" stop-color="#E7E7E7"/>
</radialGradient>
</defs>
</svg>
