<svg width="149" height="193" viewBox="0 0 149 193" fill="none" xmlns="http://www.w3.org/2000/svg">
<path d="M59.2054 97.6091C60.4385 92.635 61.8145 85.6285 62.8251 77.7351C66.1298 78.422 69.4464 78.7882 71.7051 78.9187L71.7074 78.9188C73.4022 79.0101 74.9004 78.2445 76.1834 77.0322C77.4625 75.8236 78.571 74.1335 79.516 72.2606C81.3964 68.5335 82.6963 63.9463 83.3889 60.5676L84.9754 55.903C85.6969 53.7816 84.2841 51.5337 82.0597 51.2637C80.072 51.0225 78.2821 52.4817 78.1178 54.4773L78.0155 55.7202C77.8858 57.2954 78.548 58.7765 79.6952 59.7364C79.6948 59.7852 79.6888 59.855 79.6692 59.9501C79.6217 60.1798 79.5026 60.5134 79.2534 60.9642C78.7548 61.8664 77.774 63.17 75.9765 64.9506C72.6662 68.2297 71.0785 71.6869 70.4835 73.7911C68.2372 71.3477 65.9335 69.5872 63.7969 68.3423C64.2099 63.0554 64.4018 57.5861 64.2448 52.2203C66.7022 51.0599 67.9785 47.9127 67.378 44.7339C66.8751 42.0721 65.1729 39.9382 63.0518 39.1853C62.1745 33.8851 60.7817 28.9495 58.7112 24.7316L58.6591 24.6256L58.5707 24.5471L58.397 24.3931L58.3962 24.3924L33.4816 2.21861L33.4807 2.21784L33.4797 2.21696L32.5461 1.37908L32.4808 2.63318L30.859 33.7725L30.8519 33.9084L30.8963 34.0152C33.1476 41.0931 34.9059 51.1465 34.3108 63.5902C32.8918 64.7599 32.1116 66.6131 32.373 68.5307C31.3176 69.2611 30.4149 70.4328 29.6429 71.8034C28.778 73.3387 28.0427 75.1862 27.4289 77.1027C26.2011 80.9362 25.4367 85.1187 25.1073 87.8058H25.1073L25.107 87.8081C24.8121 90.2935 26.3913 92.4593 28.6066 94.2318L24.5796 107.923C23.6848 110.965 24.8952 114.259 27.6082 115.867C27.6954 116.263 27.8234 116.655 27.9942 117.038L28.5422 116.794L27.9942 117.038C28.8766 119.019 30.6877 120.296 32.6841 120.585C33.1455 121.053 33.8148 121.411 34.5656 121.695C35.4291 122.021 36.4752 122.276 37.6143 122.477C39.6531 122.836 42.0482 123.028 44.351 123.117C44.1018 123.92 43.8597 124.906 43.6808 125.872C43.442 127.162 43.294 128.527 43.4463 129.392C43.5016 129.707 43.4949 130.3 43.4183 131.126C43.3435 131.931 43.2085 132.9 43.0367 133.932C42.7298 135.776 42.31 137.797 41.9224 139.401L41.6894 139.354L41.5561 139.919L41.2516 141.209C40.8569 142.882 41.7324 144.595 43.3197 145.255L49.6673 147.893L49.8807 147.38L49.6673 147.893C51.1753 148.52 52.8857 147.646 53.2607 146.056L53.3877 145.518C53.5597 144.789 53.2706 144.029 52.6579 143.599C50.7893 142.287 48.7451 141.254 46.5905 140.53C56.3004 130.653 56.7596 123.266 55.239 119.912C55.7783 119.871 56.3177 119.824 56.8519 119.771C56.7141 120.601 56.6082 121.611 56.5623 122.592C56.5009 123.902 56.5397 125.275 56.8081 126.111C56.8869 126.357 56.953 126.8 56.994 127.426C57.034 128.037 57.0477 128.779 57.0401 129.594C57.0266 131.036 56.9464 132.687 56.8334 134.218L56.8278 134.217L56.7711 134.795L56.6415 136.114C56.6271 136.26 56.622 136.406 56.6257 136.549C56.5921 136.864 56.5578 137.161 56.5233 137.434L56.4323 138.152L57.0411 138.115C57.4868 138.945 58.2627 139.59 59.2307 139.847L65.8736 141.615C67.4517 142.035 69.0302 140.941 69.1898 139.315L69.2439 138.765C69.3171 138.02 68.9292 137.305 68.2645 136.961C66.5065 136.049 64.6457 135.364 62.7267 134.917C70.2085 124.003 68.9117 116.989 66.7309 114.476C66.5002 113.58 65.6966 112.841 64.3725 112.254C61.9819 111.195 58.5979 110.454 55.57 109.97L59.1986 97.6341L59.2023 97.6217L59.2054 97.6091ZM30.8059 86.5016C30.7595 86.6842 30.7126 86.8672 30.6652 87.0504C30.5407 87.0022 30.4198 86.9574 30.3029 86.9161C30.4735 86.7783 30.6412 86.6401 30.8059 86.5016Z" fill="#1D1D1D" stroke="#1D1D1D" stroke-width="1.2"/>
<path d="M52.2925 72.2293C54.8701 71.4979 56.3667 68.8154 55.6352 66.2378C54.9038 63.6602 52.2213 62.1636 49.6437 62.8951C47.0661 63.6265 45.5695 66.309 46.301 68.8866C47.0324 71.4642 49.7149 72.9608 52.2925 72.2293Z" fill="#2E53D2"/>
<path d="M52.2925 72.2293C54.8701 71.4979 56.3667 68.8154 55.6352 66.2378C58.1946 66.2424 64.8225 68.0159 70.8595 75.0732L71.7808 78.3199C66.4309 78.0109 55.0434 76.3601 52.2925 72.2293Z" fill="#2E53D2"/>
<path d="M71.7808 78.3199L70.8595 75.0732C71.0652 73.48 72.4692 69.3103 76.4399 65.377C80.4106 61.4437 80.5934 59.667 80.1885 59.2703L83.0567 59.3334C81.8958 65.8021 78.0154 78.6556 71.7808 78.3199Z" fill="#2E53D2"/>
<path d="M82.0284 51.8596C80.3787 51.6594 78.8932 52.8705 78.7568 54.5267L78.6545 55.7696C78.489 57.7794 79.7998 59.6147 81.7546 60.1103L82.8567 60.3897L84.4484 55.71C85.0472 53.9493 83.8746 52.0836 82.0284 51.8596V51.8596Z" fill="#2E53D2"/>
<path d="M40.3714 115.655C41.4417 117.38 43.3133 118.305 45.2061 118.246C46.1376 118.217 47.0742 117.95 47.923 117.424C50.4966 115.827 51.2883 112.446 49.6913 109.872C48.0943 107.298 44.7134 106.507 42.1398 108.104C39.5662 109.701 38.7744 113.082 40.3714 115.655Z" fill="#D292C8"/>
<path d="M47.923 117.424C50.4966 115.827 51.2883 112.446 49.6913 109.872C52.8059 110.091 60.0622 110.983 64.1704 112.803C65.5165 113.399 66.1054 114.078 66.2188 114.759C66.4515 116.156 64.6829 117.561 63.3478 118.278C61.8276 118.552 59.7975 118.857 57.6368 119.091C52.6031 119.637 46.8607 119.793 45.2061 118.246C46.1376 118.217 47.0742 117.95 47.923 117.424Z" fill="#D292C8"/>
<path d="M63.3478 118.278C64.6829 117.561 66.4515 116.156 66.2188 114.759C68.3289 117.008 70.0929 124.668 60.2679 137.318L57.1594 137.509C57.58 134.187 57.9516 127.585 57.4203 125.928C56.9565 124.482 57.231 120.833 57.6368 119.091C59.7975 118.857 61.8276 118.552 63.3478 118.278Z" fill="#D292C8"/>
<path d="M68.6879 138.707C68.7371 138.206 68.4764 137.725 68.0295 137.493V137.493C65.1925 136.022 62.0809 135.156 58.8918 134.95L57.4094 134.854L57.4011 134.938C57.1918 137.068 58.5566 139.036 60.6248 139.587L66.069 141.036C67.2896 141.361 68.5104 140.514 68.6339 139.257L68.6879 138.707Z" fill="#D292C8"/>
<path d="M55.8068 107.178C45.4607 106.112 39.4818 104.83 27.8813 98.9643L25.94 105.564C24.6398 109.984 26.5489 114.799 30.7439 116.704C35.5587 118.891 39.5506 120.051 43.9808 120.689C48.4518 121.334 52.5353 118.3 53.8101 113.967L55.8068 107.178Z" fill="#EBB9E3"/>
<path d="M58.2131 24.9964C68.0021 44.9375 62.5921 81.6177 58.6636 97.4651C47.0933 97.9315 35.2256 92.1833 30.7381 89.251C39.8521 64.8442 35.4907 43.4063 31.4993 33.8041L33.1211 2.66474L58.2131 24.9964Z" fill="#EEDAB3"/>
<path fill-rule="evenodd" clip-rule="evenodd" d="M58.2134 24.9962C68.0023 44.9372 62.5924 81.6174 58.6638 97.4649C55.8672 97.5776 53.0532 97.3272 50.3303 96.8413C46.0428 96.0763 41.981 94.7272 38.5682 93.2919C43.1709 76.5459 45.0149 50.4345 40.506 36.5441L44.5838 26.4837L51.7499 33.8184L58.0391 24.8411L58.2134 24.9962Z" fill="#8199F0"/>
<path d="M33.5968 27.2096L40.506 36.5441C45.0149 50.4345 43.1709 76.5459 38.5682 93.2919C35.1811 91.8676 32.4333 90.3583 30.7383 89.2507C37.5359 64.6463 35.1741 45.3362 31.4994 33.8038L33.5968 27.2096Z" fill="#8199F0"/>
<path d="M33.5968 27.2096L40.506 36.5441C45.0149 50.4345 43.1709 76.5459 38.5682 93.2919C35.1811 91.8676 32.4333 90.3583 30.7383 89.2507C37.5359 64.6463 35.1741 45.3362 31.4994 33.8038L33.5968 27.2096Z" fill="#2E53D2"/>
<path fill-rule="evenodd" clip-rule="evenodd" d="M51.7499 33.8184C57.7155 48.2992 55.7414 79.4485 50.3303 96.8413C46.0428 96.0763 41.981 94.7272 38.5682 93.2919C43.1709 76.5459 45.0149 50.4345 40.506 36.5441L44.5838 26.4837L51.7499 33.8184Z" fill="#5372E1"/>
<path d="M58.6636 97.4651C48.3176 96.3991 42.3387 95.1169 30.7382 89.2509L26.5716 103.416C38.043 109.751 44.0942 111.182 54.497 111.63L58.6636 97.4651Z" fill="#D9D9D9"/>
<path d="M56.2604 105.842C49.0804 107.575 38.8507 103.688 33.7024 101.082C33.135 100.795 32.4394 101.07 32.2383 101.674C32.0778 102.155 32.2987 102.684 32.7552 102.905C44.5823 108.646 52.881 108.823 55.5946 108.172L56.2604 105.842Z" fill="#AEAEAE"/>
<path d="M57.592 101.514C50.4146 103.246 40.7648 99.0756 35.6959 96.429C35.1322 96.1346 34.4368 96.4098 34.2357 97.0131C34.0752 97.4945 34.2965 98.0232 34.753 98.2448C46.5516 103.971 54.2127 103.83 56.9262 103.179L57.592 101.514Z" fill="#AEAEAE"/>
<path d="M28.5832 116.794C29.4092 118.648 31.1378 119.818 33.021 120.018C33.9478 120.116 34.9119 119.978 35.8244 119.572C38.5912 118.34 39.8349 115.098 38.6025 112.331C37.37 109.564 34.128 108.32 31.3612 109.553C28.5945 110.785 27.3507 114.027 28.5832 116.794Z" fill="#F6CAEF"/>
<path d="M35.8244 119.572C38.5912 118.34 39.8349 115.098 38.6025 112.331C41.6585 112.971 48.7262 114.841 52.549 117.202C53.8016 117.976 54.2927 118.728 54.3126 119.418C54.3534 120.834 52.4103 121.985 50.99 122.515C49.4468 122.579 47.394 122.606 45.2216 122.544C40.1605 122.4 34.4501 121.775 33.021 120.018C33.9478 120.116 34.9119 119.978 35.8244 119.572Z" fill="#F6CAEF"/>
<path d="M50.99 122.515C52.4103 121.985 54.3534 120.834 54.3126 119.418C56.0976 121.933 56.8045 129.761 45.3517 140.959L42.246 140.726C43.1142 137.492 44.3794 131.001 44.0781 129.288C43.8151 127.793 44.5829 124.214 45.2216 122.544C47.394 122.606 49.4468 122.579 50.99 122.515Z" fill="#F6CAEF"/>
<path d="M52.8447 145.38C52.9603 144.89 52.766 144.379 52.354 144.09V144.09C49.7387 142.253 46.7705 140.98 43.6374 140.35L42.181 140.057L42.1614 140.14C41.6699 142.223 42.76 144.355 44.7363 145.177L49.9385 147.339C51.1048 147.824 52.4276 147.148 52.7177 145.918L52.8447 145.38Z" fill="#F6CAEF"/>
<path fill-rule="evenodd" clip-rule="evenodd" d="M32.7321 10.1469L38.615 7.55363L33.1218 2.66477L32.7321 10.1469Z" fill="#2E52D2"/>
<path d="M63.1044 52.3966C60.0627 52.9712 57.1615 50.3644 56.488 46.7996C55.8145 43.2349 57.5647 39.7492 60.6064 39.1746C63.648 38.5999 66.5493 41.2067 67.2228 44.7715C67.8962 48.3363 66.146 51.8219 63.1044 52.3966Z" fill="url(#paint0_radial)" stroke="#1D1D1D" stroke-width="0.8"/>
<path d="M50.7715 54.681C47.7298 55.2556 44.8286 52.6488 44.1551 49.084C43.4816 45.5193 45.2318 42.0337 48.2735 41.459C51.3151 40.8844 54.2164 43.4912 54.8899 47.0559C55.5634 50.6207 53.8131 54.1063 50.7715 54.681Z" fill="url(#paint1_radial)" stroke="#1D1D1D" stroke-width="0.8"/>
<circle r="2.66321" transform="matrix(-0.987248 -0.159191 -0.159191 0.987248 48.9937 50.9701)" fill="#636363"/>
<circle r="2.66321" transform="matrix(-0.987248 -0.159191 -0.159191 0.987248 63.6414 47.6412)" fill="#636363"/>
<path d="M33.0741 68.8222C33.6384 71.4415 36.2192 73.1073 38.8385 72.543C41.4577 71.9787 43.1236 69.3979 42.5593 66.7786C41.9949 64.1593 39.4141 62.4935 36.7949 63.0578C34.1756 63.6221 32.5098 66.2029 33.0741 68.8222Z" fill="#8199F0"/>
<path d="M33.0741 68.8222C33.6384 71.4415 36.2192 73.1073 38.8385 72.543C38.6694 75.0967 36.4737 81.597 29.0432 87.1681L25.744 87.8789C26.3961 82.5599 28.7751 71.302 33.0741 68.8222Z" fill="#8199F0"/>
<path d="M25.744 87.8789L29.0432 87.1681C30.6199 87.4757 34.6907 89.1448 38.3608 93.3599C42.0308 97.5751 43.7921 97.8717 44.214 97.4931L43.9667 100.351C37.586 98.7773 25.0084 94.079 25.744 87.8789Z" fill="#8199F0"/>
<path d="M51.4909 99.8055C51.7967 98.1721 50.6836 96.6118 49.0395 96.3693L47.8058 96.1873C45.8107 95.8931 43.895 97.0832 43.2749 99.0021L42.9252 100.084L47.493 101.973C49.2115 102.684 51.1487 101.634 51.4909 99.8055V99.8055Z" fill="#8199F0"/>
<path d="M39.7932 105.029C41.1263 105.393 43.9381 105.683 44.5196 103.938C45.2466 101.757 47.4276 93.3955 51.7902 97.031C56.1528 100.666 50.6996 116.663 53.2444 122.479C55.7892 128.296 51.0631 157.743 76.8749 164.287C97.5244 169.522 98.0818 169.377 95.7794 168.65M95.7794 168.65C94.9312 174.951 98.9789 188.136 121.955 190.463C150.675 193.371 150.675 182.465 141.95 179.193C133.225 175.921 124.136 173.739 121.955 171.194C120.21 169.159 103.778 168.65 95.7794 168.65Z" stroke="black" stroke-width="2.18411"/>
<circle cx="95.0527" cy="169.013" r="1.45419" fill="black"/>
<circle cx="93.5985" cy="168.286" r="1.45419" fill="black"/>
<circle cx="91.4173" cy="168.286" r="1.45419" fill="black"/>
<path d="M92.5079 168.65C92.0231 167.438 91.5626 164.723 93.5985 163.56" stroke="black" stroke-width="1.09205"/>
<path d="M91.8513 168.538C91.7914 167.139 90.8936 164.491 87.782 165.097" stroke="black" stroke-width="1.09205"/>
<g filter="url(#filter0_f)">
<ellipse cx="53" cy="143.074" rx="39" ry="7.5" fill="#434343" fill-opacity="0.2"/>
</g>
<defs>
<filter id="filter0_f" x="8" y="129.574" width="90" height="27" filterUnits="userSpaceOnUse" color-interpolation-filters="sRGB">
<feFlood flood-opacity="0" result="BackgroundImageFix"/>
<feBlend mode="normal" in="SourceGraphic" in2="BackgroundImageFix" result="shape"/>
<feGaussianBlur stdDeviation="3" result="effect1_foregroundBlur"/>
</filter>
<radialGradient id="paint0_radial" cx="0" cy="0" r="1" gradientUnits="userSpaceOnUse" gradientTransform="translate(64.0688 44.9954) rotate(128.451) scale(9.91601 7.9328)">
<stop stop-color="white"/>
<stop offset="1" stop-color="#E7E7E7"/>
</radialGradient>
<radialGradient id="paint1_radial" cx="0" cy="0" r="1" gradientUnits="userSpaceOnUse" gradientTransform="translate(51.7359 47.2798) rotate(128.451) scale(9.91601 7.9328)">
<stop stop-color="white"/>
<stop offset="1" stop-color="#E7E7E7"/>
</radialGradient>
</defs>
</svg>
