<svg width="174" height="359" viewBox="0 0 174 359" fill="none" xmlns="http://www.w3.org/2000/svg">
<mask id="path-1-outside-1" maskUnits="userSpaceOnUse" x="0.755859" y="0" width="173" height="359" fill="black">
<rect fill="white" x="0.755859" width="173" height="359"/>
<path fill-rule="evenodd" clip-rule="evenodd" d="M74.7189 129.248C85.6564 111.555 103.333 100.765 121.086 101.514C125.015 84.9523 127.287 70.1382 127.52 58.6002C127.748 47.3535 126.491 39.5467 124.881 34.41C123.886 31.2357 122.756 29.0811 121.759 27.7646C121.123 26.925 120.831 25.7706 121.291 24.823L131.29 4.21275C132.115 2.51132 134.541 2.61944 135.132 4.41569C136.628 8.96115 138.27 14.9516 139.443 21.9817C139.578 22.7914 139.707 23.6148 139.829 24.4514C141.794 37.9528 141.891 54.8842 136.167 72.643L136.094 72.8692C133.008 82.451 129.952 92.4026 126.982 102.195C128.175 102.422 129.365 102.704 130.55 103.042C156.669 110.493 170.436 142.46 161.3 174.443L161.296 174.459L161.301 174.443C160.868 175.957 160.392 177.443 159.875 178.901L159.882 178.879L159.874 178.901C157.752 185.47 155.042 193.586 152.008 202.269H129.141L149.349 209.789C142.216 229.711 133.846 251.073 127.182 262.981C130.439 265.344 134.817 268.49 136.816 269.83C137.815 270.499 139.381 270.912 140.965 271.33C144.514 272.267 148.154 273.228 145.716 277.143C143.929 280.012 141.202 283.528 138.454 287.072C136.62 289.436 134.776 291.814 133.195 294.02L139.68 297.868L137.251 291.333C142.771 287.778 147.304 281.529 146.706 271.133C145.625 252.337 162.289 231.255 170.756 223.063C167.604 228.104 162.381 243.587 166.703 265.192C166.934 266.349 167.136 267.496 167.31 268.632L160.758 272.483L168.035 275.362C169.109 292.316 164.319 305.819 161.301 311.101L161.299 311.102C156.212 319.524 143.336 333.469 126.637 334.474C123.832 337.631 120.493 342.366 120.493 346.208C120.493 350.289 124.809 350.639 128.46 350.936C130.365 351.091 132.09 351.231 132.924 351.879C135.356 353.77 130.221 356.47 123.466 355.93C122.565 355.858 121.693 355.8 120.864 355.746C115.48 355.39 111.936 355.156 114.278 351.879C116.98 348.098 118.331 344.318 118.331 342.157C118.331 340.727 119.634 336.811 121.142 334.328C118.821 334.065 116.44 333.538 114.008 332.705C110.905 331.642 107.521 330.834 103.995 329.992L103.994 329.992L103.991 329.991C96.8874 328.295 89.2081 326.461 82.0887 322.129C77.1166 323.664 73.5024 326.913 72.1231 328.654C74.285 328.654 77.2574 336.486 77.2574 338.646C77.2574 340.807 78.6085 344.588 81.3107 348.368C83.6526 351.645 80.1088 351.879 74.7247 352.235C73.8962 352.29 73.0241 352.347 72.1231 352.419C65.3674 352.959 60.2331 350.259 62.6652 348.368C63.4993 347.72 65.2237 347.58 67.1294 347.425C70.7797 347.129 75.0956 346.778 75.0956 342.697C75.0956 337.728 69.5109 331.265 66.7186 328.654L75.3121 316.984C68.0808 310.197 61.9583 299.519 58.4182 281.886C56.2589 284.886 53.806 288.329 52.6666 290.037C51.9994 291.037 51.5896 292.603 51.175 294.187C50.2464 297.736 49.2937 301.376 45.3704 298.949C39.409 295.26 31.1632 290.525 25.3493 288.106C25.5275 288.377 25.697 288.658 25.8573 288.95C28.4837 293.731 28.0352 300.228 24.0019 308.002C16.6769 322.12 17.9033 328.282 19.4634 331.595C20.8555 334.552 21.1974 338.109 21.0874 341.225C20.976 344.379 20.3861 347.482 19.5831 349.728C18.9808 351.414 17.1252 352.292 15.4387 351.69C13.7521 351.088 12.8732 349.234 13.4755 347.549C14.0237 346.015 14.5147 343.581 14.606 340.996C14.6986 338.374 14.365 335.99 13.5952 334.355C10.8317 328.486 10.4367 320.066 18.2444 305.018C21.7775 298.209 21.329 294.174 20.1723 292.069C19.0021 289.939 16.5099 288.686 13.5568 288.686L13.5377 288.686L13.507 288.687L12.0003 289.039C11.9886 289.042 11.9769 289.044 11.9651 289.047C11.9094 289.06 11.8536 289.071 11.7978 289.08C11.77 289.097 11.7436 289.113 11.7185 289.13C11.3747 289.355 11.0725 289.7 10.8213 290.213C10.2727 291.333 10.1584 292.879 10.2905 293.968C10.506 295.744 9.23943 297.359 7.46154 297.575C5.68365 297.79 4.06768 296.524 3.85217 294.748C3.62395 292.866 3.7259 289.956 4.99676 287.362C5.65531 286.019 6.66376 284.693 8.15977 283.711C8.27733 283.634 8.39675 283.56 8.51803 283.489C9.14401 282.715 10.1015 282.205 11.2107 282.205H21.5905L45.3704 292.197L56.8351 272.208C55.779 264.083 55.186 254.737 55.1533 243.967L64.5567 245.478L55.2021 237.316C55.5391 217.796 57.5914 193.944 61.8544 164.731C61.9573 160.797 63.3097 157.137 64.7143 153.336L64.7147 153.335C65.4191 151.429 66.1363 149.488 66.7158 147.458C67.7487 143.843 69.0304 140.381 70.5288 137.096L87.2557 141.777L74.7189 129.248ZM128.306 294.92L138.96 277.126L124.158 268.599C123.498 270.152 122.978 271.766 122.588 273.423L105.361 275.184L121.787 278.728C121.38 284.308 122.255 290.107 124.12 295.437C124.416 295.427 124.722 295.411 125.037 295.387C126.045 295.31 127.148 295.159 128.306 294.92Z"/>
</mask>
<path fill-rule="evenodd" clip-rule="evenodd" d="M74.7189 129.248C85.6564 111.555 103.333 100.765 121.086 101.514C125.015 84.9523 127.287 70.1382 127.52 58.6002C127.748 47.3535 126.491 39.5467 124.881 34.41C123.886 31.2357 122.756 29.0811 121.759 27.7646C121.123 26.925 120.831 25.7706 121.291 24.823L131.29 4.21275C132.115 2.51132 134.541 2.61944 135.132 4.41569C136.628 8.96115 138.27 14.9516 139.443 21.9817C139.578 22.7914 139.707 23.6148 139.829 24.4514C141.794 37.9528 141.891 54.8842 136.167 72.643L136.094 72.8692C133.008 82.451 129.952 92.4026 126.982 102.195C128.175 102.422 129.365 102.704 130.55 103.042C156.669 110.493 170.436 142.46 161.3 174.443L161.296 174.459L161.301 174.443C160.868 175.957 160.392 177.443 159.875 178.901L159.882 178.879L159.874 178.901C157.752 185.47 155.042 193.586 152.008 202.269H129.141L149.349 209.789C142.216 229.711 133.846 251.073 127.182 262.981C130.439 265.344 134.817 268.49 136.816 269.83C137.815 270.499 139.381 270.912 140.965 271.33C144.514 272.267 148.154 273.228 145.716 277.143C143.929 280.012 141.202 283.528 138.454 287.072C136.62 289.436 134.776 291.814 133.195 294.02L139.68 297.868L137.251 291.333C142.771 287.778 147.304 281.529 146.706 271.133C145.625 252.337 162.289 231.255 170.756 223.063C167.604 228.104 162.381 243.587 166.703 265.192C166.934 266.349 167.136 267.496 167.31 268.632L160.758 272.483L168.035 275.362C169.109 292.316 164.319 305.819 161.301 311.101L161.299 311.102C156.212 319.524 143.336 333.469 126.637 334.474C123.832 337.631 120.493 342.366 120.493 346.208C120.493 350.289 124.809 350.639 128.46 350.936C130.365 351.091 132.09 351.231 132.924 351.879C135.356 353.77 130.221 356.47 123.466 355.93C122.565 355.858 121.693 355.8 120.864 355.746C115.48 355.39 111.936 355.156 114.278 351.879C116.98 348.098 118.331 344.318 118.331 342.157C118.331 340.727 119.634 336.811 121.142 334.328C118.821 334.065 116.44 333.538 114.008 332.705C110.905 331.642 107.521 330.834 103.995 329.992L103.994 329.992L103.991 329.991C96.8874 328.295 89.2081 326.461 82.0887 322.129C77.1166 323.664 73.5024 326.913 72.1231 328.654C74.285 328.654 77.2574 336.486 77.2574 338.646C77.2574 340.807 78.6085 344.588 81.3107 348.368C83.6526 351.645 80.1088 351.879 74.7247 352.235C73.8962 352.29 73.0241 352.347 72.1231 352.419C65.3674 352.959 60.2331 350.259 62.6652 348.368C63.4993 347.72 65.2237 347.58 67.1294 347.425C70.7797 347.129 75.0956 346.778 75.0956 342.697C75.0956 337.728 69.5109 331.265 66.7186 328.654L75.3121 316.984C68.0808 310.197 61.9583 299.519 58.4182 281.886C56.2589 284.886 53.806 288.329 52.6666 290.037C51.9994 291.037 51.5896 292.603 51.175 294.187C50.2464 297.736 49.2937 301.376 45.3704 298.949C39.409 295.26 31.1632 290.525 25.3493 288.106C25.5275 288.377 25.697 288.658 25.8573 288.95C28.4837 293.731 28.0352 300.228 24.0019 308.002C16.6769 322.12 17.9033 328.282 19.4634 331.595C20.8555 334.552 21.1974 338.109 21.0874 341.225C20.976 344.379 20.3861 347.482 19.5831 349.728C18.9808 351.414 17.1252 352.292 15.4387 351.69C13.7521 351.088 12.8732 349.234 13.4755 347.549C14.0237 346.015 14.5147 343.581 14.606 340.996C14.6986 338.374 14.365 335.99 13.5952 334.355C10.8317 328.486 10.4367 320.066 18.2444 305.018C21.7775 298.209 21.329 294.174 20.1723 292.069C19.0021 289.939 16.5099 288.686 13.5568 288.686L13.5377 288.686L13.507 288.687L12.0003 289.039C11.9886 289.042 11.9769 289.044 11.9651 289.047C11.9094 289.06 11.8536 289.071 11.7978 289.08C11.77 289.097 11.7436 289.113 11.7185 289.13C11.3747 289.355 11.0725 289.7 10.8213 290.213C10.2727 291.333 10.1584 292.879 10.2905 293.968C10.506 295.744 9.23943 297.359 7.46154 297.575C5.68365 297.79 4.06768 296.524 3.85217 294.748C3.62395 292.866 3.7259 289.956 4.99676 287.362C5.65531 286.019 6.66376 284.693 8.15977 283.711C8.27733 283.634 8.39675 283.56 8.51803 283.489C9.14401 282.715 10.1015 282.205 11.2107 282.205H21.5905L45.3704 292.197L56.8351 272.208C55.779 264.083 55.186 254.737 55.1533 243.967L64.5567 245.478L55.2021 237.316C55.5391 217.796 57.5914 193.944 61.8544 164.731C61.9573 160.797 63.3097 157.137 64.7143 153.336L64.7147 153.335C65.4191 151.429 66.1363 149.488 66.7158 147.458C67.7487 143.843 69.0304 140.381 70.5288 137.096L87.2557 141.777L74.7189 129.248ZM128.306 294.92L138.96 277.126L124.158 268.599C123.498 270.152 122.978 271.766 122.588 273.423L105.361 275.184L121.787 278.728C121.38 284.308 122.255 290.107 124.12 295.437C124.416 295.427 124.722 295.411 125.037 295.387C126.045 295.31 127.148 295.159 128.306 294.92Z" fill="#1D1D1D"/>
<path d="M124.12 295.437L122.705 295.933H122.705L124.12 295.437ZM162.74 174.864L162.742 174.855L159.858 174.031L159.855 174.04L162.74 174.864ZM158.452 178.426L158.447 178.441L161.303 179.361L161.308 179.346L158.452 178.426ZM172.03 223.855L172.031 223.854L169.481 222.273L169.48 222.274L172.03 223.855ZM125.851 295.81C125.743 295.522 125.638 295.232 125.536 294.942L122.705 295.933C122.814 296.245 122.926 296.555 123.042 296.863L125.851 295.81ZM169.532 275.267C169.391 273.035 169.149 270.744 168.792 268.405L165.826 268.859C166.17 271.108 166.402 273.311 166.538 275.457L169.532 275.267ZM168.173 264.897C163.918 243.627 169.099 228.544 172.025 223.861L169.481 222.271C166.103 227.677 160.845 243.556 165.231 265.486L168.173 264.897ZM128.003 293.45C126.562 293.748 125.221 293.899 124.07 293.938L124.171 296.937C125.499 296.892 127.01 296.719 128.61 296.388L128.003 293.45ZM103.632 331.458C107.159 332.293 110.474 333.08 113.522 334.124L114.494 331.286C111.283 330.186 107.82 329.367 104.323 328.539L103.632 331.458ZM122.777 268.013C119.112 276.639 119.57 286.978 122.705 295.933L125.536 294.942C122.585 286.51 122.232 276.966 125.538 269.186L122.777 268.013ZM71.8944 137.719C71.7107 138.122 71.3688 138.225 71.3157 138.236C71.2907 138.242 71.3815 138.222 71.6572 138.26C72.193 138.333 72.9707 138.553 73.9443 138.883C75.7446 139.492 78.2431 140.5 79.965 140.93C80.4186 141.043 80.8806 141.134 81.3137 141.168C81.7158 141.2 82.2558 141.198 82.7693 140.988C83.3899 140.734 83.8978 140.199 84.0276 139.428C84.1329 138.803 83.9538 138.207 83.7608 137.751C83.3634 136.814 82.5283 135.619 81.2815 134.125C80.0078 132.599 78.2128 130.653 75.7872 128.195L73.6519 130.302C76.0493 132.732 77.7797 134.611 78.978 136.047C80.2032 137.516 80.7866 138.422 80.9985 138.922C81.1102 139.185 81.0334 139.143 81.0692 138.93C81.1295 138.572 81.3961 138.308 81.6341 138.211C81.765 138.157 81.7812 138.196 81.5487 138.178C81.3472 138.162 81.0638 138.112 80.6918 138.02C79.1111 137.625 77.0232 136.758 74.9062 136.041C73.9211 135.708 72.9074 135.402 72.0633 135.287C71.6491 135.231 71.1528 135.201 70.674 135.306C70.1672 135.417 69.5051 135.728 69.1649 136.474L71.8944 137.719ZM103.907 331.483C107.349 332.324 110.571 333.113 113.522 334.124L114.494 331.286C111.391 330.223 108.032 329.403 104.619 328.569L103.907 331.483ZM66.177 153.686C66.8435 151.895 67.5568 149.979 68.159 147.871L65.2744 147.047C64.709 149.026 64.0361 150.837 63.3653 152.64L66.177 153.686ZM122.778 268.013C119.113 276.64 119.571 286.978 122.705 295.933L125.537 294.942C122.586 286.511 122.233 276.967 125.539 269.186L122.778 268.013ZM121.086 101.514L120.959 104.512L123.433 104.616L124.004 102.207L121.086 101.514ZM74.7189 129.248L72.1672 127.671L70.9182 129.691L72.5983 131.37L74.7189 129.248ZM127.52 58.6002L130.52 58.6608L127.52 58.6002ZM124.881 34.41L127.744 33.5128L124.881 34.41ZM121.759 27.7646L119.368 29.5762V29.5762L121.759 27.7646ZM121.291 24.823L118.591 23.5135V23.5135L121.291 24.823ZM131.29 4.21275L133.989 5.52225V5.52225L131.29 4.21275ZM135.132 4.41569L137.982 3.478V3.478L135.132 4.41569ZM139.443 21.9817L142.402 21.4879V21.4879L139.443 21.9817ZM139.829 24.4514L136.86 24.8834V24.8834L139.829 24.4514ZM136.167 72.643L133.312 71.7225L133.311 71.7228L136.167 72.643ZM136.094 72.8692L133.239 71.9491L133.238 71.9495L136.094 72.8692ZM126.982 102.195L124.111 101.324L123.142 104.518L126.421 105.142L126.982 102.195ZM130.55 103.042L129.727 105.927L129.727 105.927L130.55 103.042ZM161.3 174.443L158.415 173.619L158.409 173.64L158.404 173.662L161.3 174.443ZM161.296 174.459L158.399 173.678L164.156 175.365L161.296 174.459ZM161.301 174.443L164.185 175.267L158.441 173.537L161.301 174.443ZM159.875 178.901L157.003 178.036L162.702 179.904L159.875 178.901ZM159.882 178.879L162.754 179.744L157.055 177.876L159.882 178.879ZM159.874 178.901L157.047 177.898L157.032 177.938L157.019 177.979L159.874 178.901ZM152.008 202.269V205.269H154.138L154.841 203.258L152.008 202.269ZM129.141 202.269V199.269L128.095 205.081L129.141 202.269ZM149.349 209.789L152.174 210.8L153.173 208.01L150.396 206.977L149.349 209.789ZM127.182 262.981L124.564 261.516L123.261 263.843L125.42 265.409L127.182 262.981ZM136.816 269.83L135.147 272.322L135.147 272.322L136.816 269.83ZM140.965 271.33L140.2 274.231L140.2 274.231L140.965 271.33ZM145.716 277.143L143.169 275.557L143.169 275.557L145.716 277.143ZM138.454 287.072L140.825 288.91L138.454 287.072ZM133.195 294.02L130.757 292.273L128.852 294.931L131.664 296.6L133.195 294.02ZM139.68 297.868L138.149 300.448L145.449 304.78L142.492 296.823L139.68 297.868ZM137.251 291.333L135.627 288.81L133.598 290.116L134.439 292.378L137.251 291.333ZM146.706 271.133L149.701 270.961L146.706 271.133ZM170.756 223.063L173.3 224.654L168.67 220.907L170.756 223.063ZM166.703 265.192L169.645 264.603V264.603L166.703 265.192ZM167.31 268.632L168.83 271.218L170.582 270.188L170.275 268.178L167.31 268.632ZM160.758 272.483L159.238 269.897L153.939 273.012L159.654 275.273L160.758 272.483ZM168.035 275.362L171.029 275.172L170.909 273.273L169.139 272.572L168.035 275.362ZM161.301 311.101L163.158 313.457L163.616 313.096L163.905 312.59L161.301 311.101ZM161.299 311.102L159.442 308.746L159.013 309.084L158.731 309.551L161.299 311.102ZM126.637 334.474L126.457 331.479L125.219 331.554L124.395 332.481L126.637 334.474ZM128.46 350.936L128.702 347.946H128.702L128.46 350.936ZM132.924 351.879L131.083 354.248H131.083L132.924 351.879ZM120.864 355.746L120.666 358.739H120.666L120.864 355.746ZM114.278 351.879L111.838 350.135L114.278 351.879ZM121.142 334.328L123.706 335.885L126.14 331.876L121.48 331.347L121.142 334.328ZM114.008 332.705L114.98 329.867L114.98 329.867L114.008 332.705ZM103.995 329.992L104.692 327.074L104.64 327.061L104.588 327.051L103.995 329.992ZM103.994 329.992L103.32 332.915L103.361 332.924L103.402 332.932L103.994 329.992ZM103.991 329.991L103.294 332.909L103.305 332.911L103.316 332.914L103.991 329.991ZM82.0887 322.129L83.6482 319.566L82.4943 318.864L81.2037 319.262L82.0887 322.129ZM72.1231 328.654L69.7716 326.792L65.9194 331.654H72.1231V328.654ZM81.3107 348.368L83.7514 346.624L81.3107 348.368ZM74.7247 352.235L74.9224 355.228H74.9225L74.7247 352.235ZM72.1231 352.419L71.884 349.429L72.1231 352.419ZM62.6652 348.368L64.5063 350.737H64.5063L62.6652 348.368ZM67.1294 347.425L66.8865 344.435L66.8865 344.435L67.1294 347.425ZM66.7186 328.654L64.3028 326.876L62.721 329.024L64.6698 330.846L66.7186 328.654ZM75.3121 316.984L77.7279 318.762L79.3067 316.618L77.3651 314.796L75.3121 316.984ZM58.4182 281.886L61.3595 281.296L60.0047 274.547L55.9834 280.134L58.4182 281.886ZM52.6666 290.037L50.171 288.372L50.1709 288.372L52.6666 290.037ZM51.175 294.187L48.2728 293.427L48.2728 293.428L51.175 294.187ZM45.3704 298.949L46.9488 296.397L46.9488 296.397L45.3704 298.949ZM25.3493 288.106L26.5018 285.336L17.4712 281.578L22.8421 289.753L25.3493 288.106ZM25.8573 288.95L23.2279 290.394L23.2279 290.394L25.8573 288.95ZM24.0019 308.002L21.339 306.62H21.339L24.0019 308.002ZM19.4634 331.595L22.1775 330.317H22.1775L19.4634 331.595ZM21.0874 341.225L18.0893 341.119L21.0874 341.225ZM19.5831 349.728L16.7581 348.719H16.7581L19.5831 349.728ZM13.4755 347.549L10.6505 346.539H10.6505L13.4755 347.549ZM14.606 340.996L11.6078 340.891L14.606 340.996ZM13.5952 334.355L10.8811 335.633H10.8811L13.5952 334.355ZM18.2444 305.018L20.9073 306.4L18.2444 305.018ZM20.1723 292.069L17.5429 293.513H17.5429L20.1723 292.069ZM13.5568 288.686V285.686H13.5516L13.5568 288.686ZM13.5377 288.686L13.5325 285.686L13.5216 285.687L13.5377 288.686ZM13.507 288.687L13.4909 285.687L13.1529 285.689L12.8238 285.765L13.507 288.687ZM12.0003 289.039L12.6829 291.96L12.6835 291.96L12.0003 289.039ZM11.9651 289.047L12.6192 291.975L12.6199 291.975L11.9651 289.047ZM11.7978 289.08L11.2875 286.124L10.7418 286.218L10.2656 286.501L11.7978 289.08ZM11.7185 289.13L13.364 291.638L13.3643 291.638L11.7185 289.13ZM10.8213 290.213L8.12738 288.893L8.12737 288.893L10.8213 290.213ZM10.2905 293.968L7.31233 294.329H7.31233L10.2905 293.968ZM3.85217 294.748L0.874 295.109L0.874001 295.109L3.85217 294.748ZM4.99676 287.362L7.69071 288.683L4.99676 287.362ZM8.15977 283.711L6.51447 281.203L6.51435 281.203L8.15977 283.711ZM8.51803 283.489L10.0391 286.074L10.508 285.799L10.8501 285.376L8.51803 283.489ZM21.5905 282.205L22.7526 279.439L22.1951 279.205H21.5905V282.205ZM45.3704 292.197L44.2083 294.963L46.6533 295.99L47.9728 293.69L45.3704 292.197ZM56.8351 272.208L59.4375 273.7L59.9404 272.823L59.8101 271.821L56.8351 272.208ZM55.1533 243.967L55.6291 241.005L52.1426 240.445L52.1533 243.976L55.1533 243.967ZM64.5567 245.478L64.0809 248.44L74.418 250.1L66.5289 243.217L64.5567 245.478ZM55.2021 237.316L52.2026 237.264L52.1785 238.659L53.2299 239.577L55.2021 237.316ZM61.8544 164.731L64.8229 165.165L64.8487 164.988L64.8534 164.81L61.8544 164.731ZM64.7143 153.336L61.9009 152.294L61.9002 152.296L64.7143 153.336ZM64.7147 153.335L67.5281 154.376L67.5287 154.375L64.7147 153.335ZM66.7158 147.458L63.8312 146.634L63.8312 146.635L66.7158 147.458ZM70.5288 137.096L71.3372 134.207L68.8649 133.515L67.7994 135.851L70.5288 137.096ZM87.2557 141.777L86.4473 144.666L97.4797 147.753L89.3764 139.655L87.2557 141.777ZM138.96 277.126L141.534 278.667L143.101 276.05L140.458 274.527L138.96 277.126ZM128.306 294.92L128.913 297.858L130.203 297.591L130.88 296.461L128.306 294.92ZM124.158 268.599L125.655 266L122.721 264.309L121.397 267.426L124.158 268.599ZM122.588 273.423L122.894 276.407L125.02 276.19L125.509 274.109L122.588 273.423ZM105.361 275.184L105.056 272.199L104.728 278.116L105.361 275.184ZM121.787 278.728L124.779 278.946L124.968 276.345L122.42 275.795L121.787 278.728ZM124.12 295.437L121.289 296.429L122.017 298.51L124.222 298.436L124.12 295.437ZM125.037 295.387L124.809 292.396L125.037 295.387ZM121.212 98.5169C102.137 97.7117 83.5372 109.278 72.1672 127.671L77.2707 130.825C87.7756 113.832 104.529 103.818 120.959 104.512L121.212 98.5169ZM124.521 58.5395C124.294 69.7818 122.071 84.3667 118.167 100.822L124.004 102.207C127.96 85.5379 130.281 70.4946 130.52 58.6608L124.521 58.5395ZM122.018 35.3073C123.508 40.0596 124.744 47.5289 124.521 58.5395L130.52 58.6608C130.752 47.1782 129.474 39.0338 127.744 33.5128L122.018 35.3073ZM119.368 29.5762C120.097 30.5395 121.093 32.3544 122.018 35.3073L127.744 33.5128C126.679 30.1169 125.415 27.6226 124.15 25.953L119.368 29.5762ZM118.591 23.5135C117.477 25.8109 118.308 28.1775 119.368 29.5762L124.15 25.953C124.123 25.9169 124.1 25.878 124.084 25.8421C124.067 25.806 124.063 25.7858 124.063 25.7867C124.064 25.788 124.07 25.822 124.063 25.8846C124.056 25.9501 124.036 26.0379 123.99 26.1325L118.591 23.5135ZM128.591 2.90326L118.591 23.5135L123.99 26.1325L133.989 5.52225L128.591 2.90326ZM137.982 3.478C136.491 -1.05352 130.512 -1.05682 128.591 2.90326L133.989 5.52225C133.842 5.825 133.487 6.01564 133.15 5.9989C132.988 5.99086 132.803 5.93642 132.629 5.80982C132.442 5.67317 132.329 5.49553 132.282 5.35338L137.982 3.478ZM142.402 21.4879C141.2 14.2847 139.517 8.1449 137.982 3.478L132.282 5.35338C133.738 9.7774 135.34 15.6185 136.484 22.4755L142.402 21.4879ZM142.798 24.0195C142.673 23.1618 142.541 22.3177 142.402 21.4879L136.484 22.4755C136.616 23.265 136.742 24.0678 136.86 24.8834L142.798 24.0195ZM139.022 73.5634C144.922 55.2621 144.81 37.8492 142.798 24.0195L136.86 24.8834C138.777 38.0564 138.861 54.5062 133.312 71.7225L139.022 73.5634ZM138.949 73.7894L139.022 73.5631L133.311 71.7228L133.239 71.9491L138.949 73.7894ZM129.853 103.066C132.821 93.2781 135.871 83.346 138.949 73.789L133.238 71.9495C130.144 81.556 127.083 91.5271 124.111 101.324L129.853 103.066ZM131.373 100.157C130.101 99.7942 128.824 99.4916 127.542 99.2479L126.421 105.142C127.526 105.352 128.629 105.613 129.727 105.927L131.373 100.157ZM164.185 175.267C173.611 142.265 159.605 108.211 131.373 100.157L129.727 105.927C153.733 112.775 167.26 142.656 158.415 173.619L164.185 175.267ZM164.192 175.24L164.197 175.224L158.404 173.662L158.399 173.678L164.192 175.24ZM158.441 173.537L158.436 173.553L164.156 175.365L164.161 175.348L158.441 173.537ZM162.702 179.904C163.241 178.387 163.736 176.841 164.185 175.267L158.416 173.619C158.001 175.072 157.544 176.499 157.048 177.898L162.702 179.904ZM157.01 178.013L157.003 178.036L162.748 179.767L162.754 179.744L157.01 178.013ZM162.701 179.904L162.709 179.881L157.055 177.876L157.047 177.898L162.701 179.904ZM154.841 203.258C157.882 194.552 160.6 186.414 162.729 179.823L157.019 177.979C154.905 184.526 152.202 192.619 149.176 201.279L154.841 203.258ZM129.141 205.269H152.008V199.269H129.141V205.269ZM150.396 206.977L130.187 199.457L128.095 205.081L148.303 212.6L150.396 206.977ZM129.8 264.446C136.603 252.29 145.048 230.702 152.174 210.8L146.525 208.777C139.384 228.721 131.089 249.856 124.564 261.516L129.8 264.446ZM138.486 267.337C136.543 266.036 132.216 262.926 128.943 260.552L125.42 265.409C128.663 267.761 133.091 270.945 135.147 272.322L138.486 267.337ZM141.731 268.43C139.954 267.961 138.971 267.662 138.486 267.337L135.147 272.322C136.659 273.335 138.808 273.863 140.2 274.231L141.731 268.43ZM148.262 278.729C149.047 277.47 149.619 276.022 149.491 274.469C149.354 272.796 148.459 271.584 147.47 270.785C146.551 270.043 145.461 269.577 144.546 269.254C143.607 268.923 142.592 268.657 141.731 268.43L140.2 274.231C141.114 274.472 141.884 274.677 142.55 274.912C143.239 275.155 143.572 275.35 143.701 275.454C143.761 275.502 143.541 275.322 143.511 274.96C143.492 274.718 143.604 274.858 143.169 275.557L148.262 278.729ZM140.825 288.91C143.538 285.411 146.375 281.758 148.262 278.729L143.169 275.557C141.482 278.266 138.866 281.644 136.083 285.233L140.825 288.91ZM135.634 295.768C137.176 293.616 138.982 291.286 140.825 288.91L136.083 285.233C134.258 287.587 132.377 290.011 130.757 292.273L135.634 295.768ZM141.21 295.288L134.726 291.44L131.664 296.6L138.149 300.448L141.21 295.288ZM134.439 292.378L136.867 298.913L142.492 296.823L140.063 290.288L134.439 292.378ZM143.711 271.305C144.242 280.55 140.3 285.801 135.627 288.81L138.875 293.855C145.242 289.755 150.365 282.509 149.701 270.961L143.711 271.305ZM168.67 220.907C164.264 225.169 157.806 232.697 152.565 241.599C147.358 250.444 143.12 261.035 143.711 271.305L149.701 270.961C149.21 262.435 152.764 253.087 157.735 244.644C162.673 236.258 168.78 229.149 172.842 225.219L168.67 220.907ZM169.645 264.603C165.455 243.658 170.6 228.971 173.3 224.654L168.212 221.473C164.608 227.237 159.308 243.516 163.761 265.78L169.645 264.603ZM170.275 268.178C170.095 266.998 169.885 265.806 169.645 264.603L163.761 265.78C163.984 266.892 164.177 267.994 164.344 269.085L170.275 268.178ZM162.278 275.069L168.83 271.218L165.789 266.046L159.238 269.897L162.278 275.069ZM169.139 272.572L161.862 269.694L159.654 275.273L166.931 278.152L169.139 272.572ZM163.905 312.59C167.211 306.805 172.14 292.72 171.029 275.172L165.041 275.552C166.077 291.912 161.428 304.833 158.696 309.612L163.905 312.59ZM163.156 313.459L163.158 313.457L159.444 308.745L159.442 308.746L163.156 313.459ZM126.817 337.468C135.958 336.918 143.92 332.839 150.175 327.929C156.427 323.021 161.153 317.147 163.867 312.653L158.731 309.551C156.359 313.479 152.102 318.788 146.47 323.21C140.84 327.629 134.015 331.024 126.457 331.479L126.817 337.468ZM123.493 346.208C123.493 345.068 124.023 343.474 125.113 341.581C126.166 339.753 127.565 337.947 128.88 336.466L124.395 332.481C122.905 334.158 121.231 336.298 119.913 338.587C118.633 340.812 117.493 343.506 117.493 346.208H123.493ZM128.702 347.946C126.74 347.786 125.266 347.637 124.254 347.219C123.813 347.036 123.664 346.878 123.619 346.819C123.601 346.796 123.493 346.666 123.493 346.208H117.493C117.493 347.791 117.925 349.235 118.831 350.434C119.709 351.598 120.867 352.311 121.961 352.763C124.019 353.614 126.529 353.789 128.217 353.926L128.702 347.946ZM134.765 349.511C133.734 348.709 132.468 348.417 131.611 348.267C130.673 348.103 129.616 348.02 128.702 347.946L128.217 353.926C129.209 354.007 129.967 354.071 130.576 354.177C130.869 354.229 131.055 354.278 131.162 354.315C131.277 354.355 131.216 354.351 131.083 354.248L134.765 349.511ZM123.227 358.92C126.991 359.221 130.503 358.648 132.9 357.539C133.991 357.034 135.419 356.16 136.127 354.683C136.533 353.836 136.69 352.794 136.357 351.724C136.042 350.715 135.389 349.995 134.765 349.511L131.083 354.248C131.067 354.236 130.785 354.013 130.629 353.512C130.453 352.95 130.555 352.425 130.717 352.088C130.936 351.633 131.113 351.754 130.38 352.093C129.129 352.672 126.697 353.179 123.705 352.94L123.227 358.92ZM120.666 358.739C121.498 358.794 122.35 358.85 123.227 358.92L123.705 352.94C122.78 352.866 121.888 352.807 121.062 352.752L120.666 358.739ZM111.838 350.135C111.15 351.096 110.298 352.599 110.609 354.342C110.966 356.346 112.551 357.285 113.548 357.688C114.575 358.104 115.787 358.303 116.886 358.432C118.029 358.566 119.343 358.652 120.666 358.739L121.062 352.752C119.693 352.662 118.545 352.585 117.583 352.472C116.576 352.355 116.039 352.224 115.8 352.127C115.531 352.018 116.332 352.261 116.516 353.289C116.652 354.055 116.235 354.3 116.719 353.624L111.838 350.135ZM115.331 342.157C115.331 343.429 114.367 346.596 111.838 350.135L116.719 353.624C119.594 349.601 121.331 345.206 121.331 342.157H115.331ZM118.578 332.771C117.684 334.243 116.9 336.048 116.34 337.646C115.822 339.125 115.331 340.886 115.331 342.157H121.331C121.331 342.158 121.346 341.92 121.476 341.38C121.593 340.89 121.772 340.288 122.003 339.629C122.471 338.291 123.092 336.896 123.706 335.885L118.578 332.771ZM113.035 335.543C115.67 336.446 118.264 337.021 120.804 337.309L121.48 331.347C119.377 331.109 117.209 330.631 114.98 329.867L113.035 335.543ZM103.299 332.91C106.855 333.759 110.093 334.535 113.035 335.543L114.98 329.867C111.716 328.749 108.187 327.908 104.692 327.074L103.299 332.91ZM103.402 332.932L103.403 332.933L104.588 327.051L104.587 327.051L103.402 332.932ZM103.316 332.914L103.32 332.915L104.669 327.068L104.665 327.067L103.316 332.914ZM80.5292 324.691C88.1111 329.305 96.2448 331.225 103.294 332.909L104.687 327.073C97.53 325.364 90.305 323.617 83.6482 319.566L80.5292 324.691ZM74.4747 330.517C75.5419 329.17 78.6721 326.323 82.9737 324.995L81.2037 319.262C75.5611 321.004 71.4629 324.657 69.7716 326.792L74.4747 330.517ZM80.2574 338.646C80.2574 337.635 79.954 336.379 79.6319 335.309C79.2807 334.142 78.7942 332.835 78.2318 331.598C77.6798 330.385 76.9989 329.115 76.2274 328.099C75.8437 327.593 75.3617 327.048 74.7763 326.604C74.2124 326.177 73.3003 325.654 72.1231 325.654V331.654C71.7999 331.654 71.5495 331.581 71.3944 331.517C71.2443 331.455 71.1639 331.395 71.1526 331.386C71.1436 331.379 71.2484 331.463 71.4475 331.725C71.8413 332.244 72.3089 333.068 72.7702 334.082C73.2211 335.074 73.6128 336.129 73.8865 337.038C74.0231 337.492 74.1226 337.884 74.1855 338.194C74.2544 338.533 74.2574 338.667 74.2574 338.646H80.2574ZM83.7514 346.624C81.2221 343.085 80.2574 339.918 80.2574 338.646H74.2574C74.2574 341.696 75.9948 346.09 78.8701 350.113L83.7514 346.624ZM74.9225 355.228C76.2458 355.141 77.5595 355.055 78.7032 354.921C79.8022 354.793 81.0138 354.593 82.0407 354.178C83.0381 353.774 84.623 352.836 84.9803 350.831C85.2909 349.089 84.4387 347.586 83.7514 346.624L78.8701 350.113C79.3537 350.79 78.9368 350.545 79.0733 349.778C79.2565 348.751 80.0581 348.507 79.7893 348.616C79.55 348.713 79.0124 348.844 78.0059 348.962C77.044 349.074 75.8957 349.151 74.5269 349.241L74.9225 355.228ZM72.3622 355.41C73.2393 355.34 74.0913 355.283 74.9224 355.228L74.527 349.241C73.7011 349.296 72.8088 349.355 71.884 349.429L72.3622 355.41ZM60.8241 346C60.2004 346.485 59.5473 347.205 59.2324 348.214C58.8987 349.283 59.0555 350.325 59.462 351.172C60.1702 352.649 61.5976 353.523 62.689 354.028C65.0857 355.137 68.5983 355.711 72.3622 355.41L71.884 349.429C68.8923 349.668 66.4599 349.162 65.2085 348.583C64.4759 348.244 64.6534 348.122 64.8719 348.577C65.0335 348.914 65.1354 349.439 64.96 350.001C64.8035 350.503 64.5219 350.725 64.5063 350.737L60.8241 346ZM66.8865 344.435C65.9734 344.509 64.9159 344.592 63.9781 344.757C63.1212 344.907 61.8552 345.198 60.8241 346L64.5063 350.737C64.3732 350.841 64.3121 350.844 64.4268 350.805C64.5341 350.768 64.7198 350.718 65.0128 350.667C65.6221 350.56 66.3796 350.496 67.3723 350.415L66.8865 344.435ZM72.0956 342.697C72.0956 343.155 71.9876 343.285 71.9701 343.308C71.9253 343.367 71.7764 343.526 71.3351 343.708C70.3227 344.127 68.849 344.276 66.8865 344.435L67.3722 350.415C69.0601 350.278 71.5696 350.104 73.6277 349.253C74.7217 348.8 75.8799 348.087 76.7583 346.924C77.6641 345.724 78.0956 344.28 78.0956 342.697H72.0956ZM64.6698 330.846C65.9309 332.025 67.8729 334.128 69.4744 336.48C71.1543 338.947 72.0956 341.165 72.0956 342.697H78.0956C78.0956 339.26 76.2446 335.762 74.434 333.103C72.5451 330.329 70.2986 327.895 68.7673 326.463L64.6698 330.846ZM72.8963 315.205L64.3028 326.876L69.1343 330.433L77.7279 318.762L72.8963 315.205ZM55.4769 282.477C59.103 300.538 65.4534 311.846 73.2591 319.171L77.3651 314.796C70.7082 308.549 64.8135 298.5 61.3595 281.296L55.4769 282.477ZM55.1622 291.702C56.2661 290.047 58.6854 286.65 60.853 283.639L55.9834 280.134C53.8324 283.122 51.3459 286.611 50.171 288.372L55.1622 291.702ZM54.0773 294.946C54.5423 293.17 54.8385 292.187 55.1622 291.702L50.1709 288.372C49.1604 289.887 48.6369 292.036 48.2728 293.427L54.0773 294.946ZM43.792 301.5C45.0539 302.28 46.5031 302.848 48.0544 302.717C49.7259 302.576 50.9368 301.68 51.7334 300.689C52.4742 299.768 52.9383 298.677 53.2592 297.762C53.5882 296.823 53.8522 295.807 54.0773 294.946L48.2728 293.428C48.0336 294.341 47.8303 295.111 47.5968 295.777C47.3554 296.466 47.1619 296.799 47.058 296.929C47.0101 296.988 47.1891 296.769 47.5495 296.738C47.7898 296.718 47.6487 296.83 46.9488 296.397L43.792 301.5ZM24.1969 290.875C29.7739 293.196 37.847 297.822 43.7921 301.5L46.9488 296.397C40.9709 292.699 32.5524 287.853 26.5018 285.336L24.1969 290.875ZM28.4866 287.505C28.2883 287.144 28.078 286.795 27.8566 286.458L22.8421 289.753C22.9769 289.958 23.1057 290.172 23.2279 290.394L28.4866 287.505ZM26.6648 309.383C30.9267 301.169 31.7958 293.529 28.4866 287.505L23.2279 290.394C25.1716 293.932 25.1437 299.287 21.339 306.62L26.6648 309.383ZM22.1775 330.317C21.1736 328.186 19.5651 323.067 26.6648 309.383L21.339 306.62C13.7887 321.172 14.633 328.379 16.7493 332.874L22.1775 330.317ZM24.0855 341.331C24.2036 337.987 23.8577 333.886 22.1775 330.317L16.7493 332.874C17.8532 335.218 18.1912 338.232 18.0893 341.119L24.0855 341.331ZM22.4081 350.738C23.329 348.161 23.9648 344.748 24.0855 341.331L18.0893 341.119C17.9872 344.009 17.4431 346.802 16.7581 348.719L22.4081 350.738ZM14.4302 354.516C17.6755 355.674 21.2479 353.985 22.4081 350.738L16.7581 348.719C16.7136 348.843 16.575 348.911 16.4471 348.865L14.4302 354.516ZM10.6505 346.539C9.48994 349.786 11.1841 353.357 14.4302 354.516L16.4471 348.865C16.3201 348.82 16.2564 348.682 16.3005 348.558L10.6505 346.539ZM11.6078 340.891C11.5258 343.212 11.0807 345.335 10.6505 346.539L16.3005 348.558C16.9667 346.694 17.5035 343.951 17.6041 341.102L11.6078 340.891ZM10.8811 335.633C11.3625 336.656 11.6924 338.496 11.6078 340.891L17.6041 341.102C17.7048 338.251 17.3674 335.324 16.3094 333.077L10.8811 335.633ZM15.5815 303.637C7.55174 319.113 7.55927 328.579 10.8811 335.633L16.3094 333.077C14.1041 328.394 13.3216 321.02 20.9073 306.4L15.5815 303.637ZM17.5429 293.513C18.0223 294.386 18.8785 297.282 15.5815 303.637L20.9073 306.4C24.6765 299.135 24.6357 293.963 22.8016 290.624L17.5429 293.513ZM13.5568 291.686C15.7259 291.686 17.0342 292.587 17.5429 293.513L22.8016 290.624C20.9701 287.291 17.2939 285.686 13.5568 285.686V291.686ZM13.5429 291.686L13.562 291.686L13.5516 285.686L13.5325 285.686L13.5429 291.686ZM13.5231 291.687L13.5538 291.686L13.5216 285.687L13.4909 285.687L13.5231 291.687ZM12.6835 291.96L14.1902 291.608L12.8238 285.765L11.3171 286.118L12.6835 291.96ZM12.6199 291.975C12.6364 291.971 12.6583 291.966 12.6829 291.96L11.3177 286.118C11.3189 286.117 11.3173 286.118 11.3104 286.119L12.6199 291.975ZM12.308 292.036C12.4122 292.018 12.516 291.998 12.6192 291.975L11.3111 286.119C11.3027 286.121 11.2949 286.123 11.2875 286.124L12.308 292.036ZM13.3643 291.638C13.3524 291.646 13.3409 291.653 13.3299 291.659L10.2656 286.501C10.1991 286.54 10.1348 286.581 10.0726 286.621L13.3643 291.638ZM13.5153 291.533C13.549 291.464 13.5597 291.461 13.5326 291.493C13.5029 291.528 13.447 291.584 13.364 291.638L10.073 286.621C9.19851 287.195 8.56864 287.992 8.12738 288.893L13.5153 291.533ZM13.2687 293.606C13.2328 293.31 13.2263 292.895 13.2787 292.464C13.3325 292.022 13.4312 291.705 13.5153 291.533L8.12737 288.893C7.24489 290.694 7.13549 292.871 7.31233 294.329L13.2687 293.606ZM7.82231 300.553C11.2434 300.138 13.6839 297.03 13.2687 293.606L7.31233 294.329C7.3281 294.459 7.23543 294.58 7.10077 294.596L7.82231 300.553ZM0.874001 295.109C1.28919 298.532 4.40154 300.967 7.82231 300.553L7.10077 294.596C6.96575 294.613 6.84616 294.517 6.83035 294.386L0.874001 295.109ZM2.3028 286.042C0.697217 289.319 0.60135 292.861 0.874 295.109L6.83035 294.386C6.64654 292.871 6.75459 290.593 7.69071 288.683L2.3028 286.042ZM6.51435 281.203C4.4847 282.534 3.14956 284.314 2.3028 286.042L7.69071 288.683C8.16106 287.723 8.84283 286.851 9.80519 286.22L6.51435 281.203ZM6.99699 280.903C6.83353 280.999 6.67269 281.099 6.51447 281.203L9.80506 286.22C9.88198 286.169 9.95998 286.121 10.0391 286.074L6.99699 280.903ZM11.2107 279.205C9.14589 279.205 7.34921 280.164 6.18592 281.602L10.8501 285.376C10.8962 285.319 10.9505 285.277 11.0061 285.249C11.0576 285.224 11.1225 285.205 11.2107 285.205V279.205ZM46.5326 289.431L22.7526 279.439L20.4283 284.971L44.2083 294.963L46.5326 289.431ZM54.2327 270.715L42.7681 290.705L47.9728 293.69L59.4375 273.7L54.2327 270.715ZM52.1533 243.976C52.1863 254.849 52.785 264.323 53.8601 272.594L59.8101 271.821C58.7731 263.843 58.1857 254.626 58.1533 243.958L52.1533 243.976ZM65.0324 242.516L55.6291 241.005L54.6776 246.929L64.0809 248.44L65.0324 242.516ZM53.2299 239.577L62.5844 247.738L66.5289 243.217L57.1744 235.056L53.2299 239.577ZM58.8858 164.298C54.61 193.599 52.5424 217.583 52.2026 237.264L58.2017 237.368C58.5359 218.009 60.5729 194.289 64.8229 165.165L58.8858 164.298ZM61.9002 152.296C60.5271 156.012 58.9735 160.139 58.8554 164.653L64.8534 164.81C64.9411 161.455 66.0924 158.262 67.5283 154.376L61.9002 152.296ZM61.9014 152.293L61.9009 152.294L67.5276 154.377L67.5281 154.376L61.9014 152.293ZM63.8312 146.635C63.2879 148.537 62.6108 150.373 61.9008 152.294L67.5287 154.375C68.2273 152.484 68.9847 150.438 69.6005 148.282L63.8312 146.635ZM67.7994 135.851C66.2388 139.272 64.9052 142.875 63.8312 146.634L69.6005 148.282C70.5922 144.811 71.8221 141.49 73.2583 138.341L67.7994 135.851ZM88.0642 138.888L71.3372 134.207L69.7204 139.985L86.4473 144.666L88.0642 138.888ZM72.5983 131.37L85.1351 143.899L89.3764 139.655L76.8396 127.126L72.5983 131.37ZM136.386 275.585L125.732 293.379L130.88 296.461L141.534 278.667L136.386 275.585ZM122.66 271.199L137.463 279.726L140.458 274.527L125.655 266L122.66 271.199ZM125.509 274.109C125.861 272.609 126.33 271.158 126.919 269.772L121.397 267.426C120.666 269.145 120.094 270.923 119.668 272.736L125.509 274.109ZM105.666 278.168L122.894 276.407L122.283 270.438L105.056 272.199L105.666 278.168ZM122.42 275.795L105.994 272.251L104.728 278.116L121.154 281.66L122.42 275.795ZM126.952 294.446C125.209 289.466 124.405 284.078 124.779 278.946L118.795 278.51C118.356 284.538 119.301 290.748 121.289 296.429L126.952 294.446ZM124.809 292.396C124.537 292.416 124.273 292.431 124.019 292.439L124.222 298.436C124.558 298.424 124.907 298.406 125.265 298.378L124.809 292.396ZM127.699 291.982C126.664 292.196 125.688 292.329 124.809 292.396L125.265 298.378C126.402 298.292 127.632 298.122 128.913 297.858L127.699 291.982ZM21.5905 279.205H11.2107V285.205H21.5905V279.205Z" fill="#1D1D1D" mask="url(#path-1-outside-1)"/>
<path fill-rule="evenodd" clip-rule="evenodd" d="M11.5028 290.568C11.0384 291.516 10.9228 292.903 11.0436 293.9C11.3095 296.094 9.7471 298.087 7.55401 298.353C5.36093 298.619 3.36758 297.056 3.10175 294.863C2.8623 292.888 2.96282 289.817 4.31799 287.049C5.0241 285.607 6.11502 284.166 7.74555 283.096C9.39417 282.014 11.362 281.464 13.5581 281.464C18.3652 281.464 23.7407 283.54 26.5222 288.606C29.3203 293.702 28.7671 300.492 24.6754 308.383C17.4068 322.401 18.7303 328.304 20.1498 331.321C21.6146 334.433 21.9575 338.13 21.8454 341.305C21.7317 344.527 21.1302 347.711 20.2975 350.042C19.5545 352.123 17.2657 353.207 15.1852 352.464C13.1048 351.721 12.0206 349.432 12.7636 347.351C13.282 345.9 13.7614 343.543 13.8504 341.023C13.941 338.456 13.6083 336.208 12.9113 334.727C10.0072 328.556 9.70932 319.867 17.5734 304.701C21.048 298 20.4947 294.25 19.5096 292.456C18.508 290.632 16.3172 289.464 13.5581 289.464C12.7276 289.464 12.3265 289.658 12.1353 289.784C11.9261 289.921 11.7064 290.152 11.5028 290.568Z" fill="#C7B883"/>
<path d="M58.0717 270.062L45.3712 292.22L21.5914 282.222H11.2118C8.86265 282.222 7.19433 284.51 7.91343 286.747C8.46549 288.465 10.2441 289.471 12.0014 289.06L21.5914 286.815C26.9959 288.167 37.9524 294.383 45.3712 298.976C49.2944 301.404 50.2471 297.762 51.1757 294.211C51.5903 292.626 52.0001 291.059 52.6672 290.058C54.3967 287.464 59.1526 280.87 61.3144 277.898L58.0717 270.062Z" fill="#7C7C7C"/>
<path d="M66.7193 328.7L77.258 314.378L85.9051 321.404C78.9873 322.053 73.8351 326.539 72.1237 328.7C74.2856 328.7 77.258 336.537 77.258 338.699C77.258 340.86 78.609 344.644 81.3113 348.427C84.0135 352.21 78.8793 351.94 72.1237 352.48C65.3681 353.02 60.2339 350.318 62.6659 348.427C65.0979 346.535 75.0962 348.967 75.0962 342.752C75.0962 337.78 69.5116 331.312 66.7193 328.7Z" fill="#7C7C7C"/>
<path d="M161.3 174.391C160.867 175.906 160.391 177.393 159.874 178.853C157.752 185.425 155.042 193.546 152.008 202.235H129.141L149.349 209.759C141.75 230.998 132.747 253.87 125.898 265.197C124.36 267.74 123.273 270.522 122.589 273.434L105.361 275.196L121.787 278.742C121.381 284.326 122.255 290.129 124.121 295.462C129.886 311.945 145.121 323.944 161.3 311.135C154.993 321.584 136.707 340.536 114.008 332.753C110.904 331.689 107.518 330.88 103.991 330.037C82.3577 324.868 55.3802 318.422 55.1543 243.96L64.5575 245.471L55.2031 237.304C55.5401 217.772 57.5924 193.905 61.8553 164.674C61.9582 160.737 63.3109 157.074 64.7156 153.27C65.4199 151.363 66.1372 149.421 66.7167 147.39C67.7495 143.772 69.0313 140.308 70.5296 137.021L87.2563 141.705L74.7197 129.168C87.6071 108.308 109.851 97.0366 130.55 102.946C156.669 110.402 170.435 142.389 161.3 174.391Z" fill="#EAEAEA"/>
<path fill-rule="evenodd" clip-rule="evenodd" d="M147.646 177.501C148.471 177.573 149.082 178.3 149.01 179.126C148.092 189.685 141.176 195.817 137.663 197.624C136.927 198.003 136.022 197.713 135.643 196.976C135.265 196.239 135.555 195.335 136.291 194.956C139.084 193.52 145.21 188.195 146.022 178.866C146.094 178.04 146.821 177.43 147.646 177.501Z" fill="#CFCFCF"/>
<path fill-rule="evenodd" clip-rule="evenodd" d="M122.96 196.867C122.641 197.632 121.763 197.994 120.998 197.675C116.064 195.621 113.479 192.725 112.093 189.774C111.008 187.462 110.687 185.118 110.463 183.487C110.412 183.114 110.366 182.778 110.317 182.488C110.179 181.671 110.73 180.897 111.547 180.759C112.364 180.621 113.138 181.172 113.275 181.989C113.345 182.399 113.404 182.823 113.465 183.257C113.691 184.874 113.939 186.645 114.809 188.499C115.862 190.741 117.87 193.123 122.151 194.906C122.916 195.224 123.278 196.102 122.96 196.867Z" fill="#CFCFCF"/>
<path fill-rule="evenodd" clip-rule="evenodd" d="M83.7514 186.169C83.9783 186.965 83.5164 187.795 82.7196 188.022C77.5793 189.486 73.7532 188.829 70.8319 187.382C68.543 186.248 66.8328 184.614 65.6424 183.477C65.37 183.216 65.1248 182.982 64.9061 182.786C64.2897 182.232 64.2386 181.284 64.7921 180.668C65.3455 180.051 66.2939 180 66.9103 180.554C67.2204 180.832 67.5303 181.126 67.8484 181.429C69.0319 182.553 70.3285 183.785 72.1635 184.694C74.3829 185.793 77.4381 186.407 81.8979 185.137C82.6947 184.91 83.5245 185.372 83.7514 186.169Z" fill="#CFCFCF"/>
<path d="M142.079 179.266C140.486 188.349 133.304 194.68 126.037 193.405C118.77 192.131 114.171 183.734 115.764 174.651C117.357 165.568 124.539 159.237 131.806 160.512C139.072 161.786 143.672 170.183 142.079 179.266Z" fill="url(#paint0_radial)"/>
<path fill-rule="evenodd" clip-rule="evenodd" d="M143.154 179.455C141.499 188.896 133.92 195.897 125.848 194.481C117.776 193.066 113.032 183.904 114.688 174.463C116.343 165.021 123.922 158.02 131.994 159.436C140.066 160.852 144.81 170.014 143.154 179.455ZM126.037 193.406C133.303 194.68 140.486 188.349 142.079 179.266C143.672 170.183 139.072 161.786 131.805 160.512C124.539 159.237 117.356 165.568 115.763 174.651C114.17 183.735 118.77 192.131 126.037 193.406Z" fill="#1D1D1D"/>
<path d="M140.985 176.886C141.691 180.927 138.988 184.775 134.947 185.482C130.905 186.188 127.057 183.484 126.351 179.443C125.645 175.402 128.348 171.554 132.389 170.847C136.43 170.141 140.279 172.845 140.985 176.886Z" fill="#636363"/>
<path d="M92.3576 167.917C90.7646 177 83.5824 183.331 76.3157 182.056C69.049 180.782 64.4495 172.385 66.0425 163.302C67.6354 154.219 74.8176 147.888 82.0843 149.162C89.351 150.437 93.9505 158.833 92.3576 167.917Z" fill="url(#paint1_radial)"/>
<path fill-rule="evenodd" clip-rule="evenodd" d="M93.433 168.106C91.7773 177.547 84.1992 184.548 76.1269 183.132C68.0545 181.716 63.3109 172.554 64.9666 163.113C66.6223 153.672 74.2004 146.671 82.2728 148.087C90.3451 149.503 95.0887 158.664 93.433 168.106ZM76.3155 182.056C83.5822 183.331 90.7644 177 92.3574 167.917C93.9503 158.834 89.3508 150.437 82.0841 149.163C74.8174 147.888 67.6352 154.219 66.0423 163.302C64.4493 172.385 69.0488 180.782 76.3155 182.056Z" fill="#1D1D1D"/>
<path d="M85.0636 172.802C85.7698 176.843 83.0663 180.691 79.0251 181.398C74.984 182.104 71.1356 179.4 70.4295 175.359C69.7233 171.318 72.4268 167.47 76.468 166.763C80.5091 166.057 84.3575 168.761 85.0636 172.802Z" fill="#636363"/>
<path fill-rule="evenodd" clip-rule="evenodd" d="M161.3 174.391C160.868 175.906 160.392 177.394 159.874 178.853C160.385 177.271 160.861 175.78 161.3 174.391ZM161.3 311.135C164.319 305.85 169.108 292.339 168.035 275.374L160.757 272.493L167.309 268.639C167.135 267.503 166.934 266.355 166.702 265.197C162.38 243.579 167.604 228.086 170.755 223.042C162.288 231.239 145.625 252.335 146.706 271.142C147.303 281.545 142.771 287.798 137.251 291.355L139.68 297.894L132.601 293.691C129.522 294.866 126.483 295.382 124.121 295.462C129.886 311.945 145.122 323.944 161.3 311.135Z" fill="#9F9F9F"/>
<path fill-rule="evenodd" clip-rule="evenodd" d="M161.3 174.391C160.868 175.906 160.392 177.394 159.875 178.853C160.385 177.271 160.862 175.78 161.3 174.391ZM161.3 311.135C164.319 305.85 169.109 292.339 168.035 275.374L160.758 272.493L167.309 268.64C167.136 267.503 166.934 266.355 166.703 265.197C162.381 243.579 167.604 228.086 170.756 223.042C162.289 231.239 145.625 252.335 146.706 271.142C147.304 281.545 142.772 287.798 137.251 291.354L139.68 297.894L132.601 293.691C129.522 294.866 126.484 295.382 124.121 295.462C129.887 311.945 145.122 323.944 161.3 311.135Z" fill="#CFCFCF"/>
<path d="M97.7952 172.511C86.7009 199.419 76.6379 241.379 86.1569 289.026C86.6334 291.411 89.4157 290.884 89.1858 288.462C85.2651 247.159 85.6852 205.131 102.929 173.862C110.759 159.664 123.196 112.791 136.167 72.5276C144.483 46.7125 140.511 22.6446 136.38 8.30871C135.411 4.94467 130.967 4.71972 129.44 7.86989L121.967 23.2815C121.117 25.036 121.629 27.2303 122.613 28.9135C125.072 33.1183 127.849 42.1953 127.52 58.4759C126.98 85.2281 115.495 129.581 97.7952 172.511Z" fill="#4F4F4F"/>
<path d="M124.881 34.2707C124.886 34.2716 124.891 34.2726 124.896 34.2736C125.969 34.4882 127.072 34.8964 128.171 35.3037C130.646 36.22 133.106 37.1312 135.19 35.8195C137.29 34.4983 137.528 31.8545 137.767 29.2044C137.87 28.0639 137.973 26.9223 138.224 25.8843C138.415 25.0987 138.667 24.3181 138.918 23.5403C139.101 22.9705 139.285 22.4022 139.443 21.8345C141.759 35.7191 142.246 53.6565 136.167 72.5276C131.952 85.611 127.794 99.3922 123.831 112.523C115.6 139.803 108.215 164.278 102.929 173.862C84.3001 207.642 85.3061 253.98 90.2081 298.395C90.3523 299.702 88.6832 300.034 88.3604 298.759C75.2826 247.119 85.9513 201.238 97.7952 172.511C115.495 129.581 126.98 85.2282 127.52 58.476C127.748 47.2223 126.491 39.4105 124.881 34.2707Z" fill="white"/>
<path d="M128.871 332.213L120.313 320.584C119.235 319.118 117.15 318.852 115.737 319.999C113.523 321.799 114.572 325.849 117.097 327.177C120.205 328.812 122.446 330.925 123.466 332.213C121.304 332.213 118.332 340.05 118.332 342.211C118.332 344.373 116.981 348.156 114.279 351.939C111.576 355.723 116.71 355.452 123.466 355.993C130.222 356.533 135.356 353.831 132.924 351.939C130.492 350.048 120.494 352.48 120.494 346.265C120.494 341.293 126.078 334.825 128.871 332.213Z" fill="#7C7C7C"/>
<path d="M122.985 261.857C120.476 262.888 120.245 266.352 122.596 267.707L138.96 277.14L124.285 301.665L126.979 306.542C126.974 308.891 129.258 310.565 131.496 309.851C133.216 309.303 134.227 307.527 133.819 305.769L128.879 301.676C130.243 296.275 141.105 284.564 145.716 277.156C148.154 273.239 144.514 272.277 140.965 271.34C139.381 270.922 137.815 270.508 136.816 269.838C134.598 268.351 129.449 264.636 126.153 262.238C125.234 261.569 124.036 261.425 122.985 261.857Z" fill="#7C7C7C"/>
<defs>
<radialGradient id="paint0_radial" cx="0" cy="0" r="1" gradientUnits="userSpaceOnUse" gradientTransform="translate(123.054 174.95) rotate(50.7968) scale(26.166 20.9328)">
<stop stop-color="white"/>
<stop offset="1" stop-color="#E7E7E7"/>
</radialGradient>
<radialGradient id="paint1_radial" cx="0" cy="0" r="1" gradientUnits="userSpaceOnUse" gradientTransform="translate(73.3323 163.601) rotate(50.7968) scale(26.166 20.9328)">
<stop stop-color="white"/>
<stop offset="1" stop-color="#E7E7E7"/>
</radialGradient>
</defs>
</svg>
