<svg width="97" height="183" viewBox="0 0 97 183" fill="none" xmlns="http://www.w3.org/2000/svg">
<g filter="url(#filter0_f)">
<ellipse rx="44.4602" ry="5.6186" transform="matrix(-1 0 0 1 48.7839 174.222)" fill="#434343" fill-opacity="0.2"/>
</g>
<mask id="path-2-outside-1" maskUnits="userSpaceOnUse" x="0.591919" y="-3.05176e-05" width="85" height="176" fill="black">
<rect fill="white" x="0.591919" y="-3.05176e-05" width="85" height="176"/>
<path fill-rule="evenodd" clip-rule="evenodd" d="M48.9212 63.6815C43.5774 55.0372 34.9409 49.7653 26.2677 50.1315C24.3476 42.0397 23.2377 34.802 23.1238 29.1648C23.0127 23.67 23.6268 19.8557 24.4134 17.3461C24.8995 15.7952 25.4514 14.7425 25.9387 14.0993C26.2495 13.6891 26.3921 13.1251 26.1675 12.6621L21.2822 2.59249C20.8789 1.76121 19.6937 1.81404 19.4049 2.69164C18.6742 4.91243 17.8717 7.83921 17.2985 11.2739C17.2325 11.6695 17.1695 12.0718 17.1101 12.4806C16.1503 19.077 16.1024 27.3492 18.8993 36.0257L18.935 36.1363C20.4429 40.8177 21.9358 45.6798 23.3869 50.4641C22.804 50.575 22.2225 50.7127 21.6435 50.8779C8.88263 54.5184 2.15653 70.1367 6.61988 85.7624L6.62206 85.7704L6.61954 85.7625C6.83082 86.5021 7.06337 87.2285 7.31608 87.9408L7.31274 87.9297L7.31663 87.9407C8.35324 91.1499 9.67737 95.1151 11.1596 99.3576H22.332L12.4587 103.031C15.9439 112.765 20.0332 123.202 23.2893 129.02C21.6976 130.174 19.5588 131.712 18.5821 132.366C18.094 132.693 17.3289 132.895 16.5549 133.099C14.821 133.557 13.0426 134.026 14.234 135.939C15.1071 137.341 16.4391 139.059 17.7819 140.79C18.6779 141.945 19.5787 143.107 20.3511 144.185L17.1831 146.065L18.3698 142.872C15.6727 141.135 13.4582 138.082 13.7504 133.003C14.2785 123.82 6.13686 113.519 2.00004 109.517C3.53996 111.98 6.09168 119.545 3.98019 130.1C3.86707 130.666 3.76859 131.226 3.68379 131.781L6.88474 133.662L3.32943 135.069C2.80474 143.352 5.1447 149.95 6.61955 152.53L6.62039 152.531C9.10558 156.645 15.3968 163.459 23.5553 163.949C24.9258 165.492 26.557 167.805 26.557 169.683C26.557 171.676 24.4484 171.848 22.6649 171.992C21.7338 172.068 20.8914 172.136 20.4838 172.453C19.2956 173.377 21.8041 174.696 25.1047 174.432C25.5449 174.397 25.971 174.369 26.3758 174.342C29.0064 174.169 30.7378 174.054 29.5936 172.453C28.2733 170.606 27.6132 168.759 27.6132 167.703C27.6132 167.005 26.9768 165.092 26.2401 163.878C27.3742 163.75 28.5376 163.492 29.7257 163.085C31.2417 162.566 32.8949 162.171 34.6175 161.76L34.618 161.76L34.6198 161.759C38.0903 160.93 41.8422 160.035 45.3205 157.918C47.7498 158.668 49.5156 160.256 50.1894 161.106C49.1332 161.106 47.6809 164.933 47.6809 165.988C47.6809 167.044 47.0209 168.891 45.7006 170.738C44.5564 172.339 46.2878 172.453 48.9184 172.627C49.3232 172.654 49.7493 172.682 50.1894 172.717C53.4901 172.981 55.9986 171.662 54.8104 170.738C54.4028 170.421 53.5603 170.353 52.6293 170.277C50.8458 170.132 48.7372 169.961 48.7372 167.967C48.7372 165.54 51.4657 162.382 52.83 161.106L48.6314 155.404C52.1644 152.089 55.1557 146.871 56.8853 138.257C57.9403 139.722 59.1387 141.404 59.6954 142.239C60.0213 142.727 60.2216 143.492 60.4241 144.266C60.8778 146 61.3433 147.779 63.2601 146.593C66.1727 144.791 70.2014 142.477 73.0419 141.295C72.9549 141.428 72.872 141.565 72.7937 141.708C71.5105 144.043 71.7297 147.218 73.7002 151.016C77.279 157.913 76.6798 160.925 75.9176 162.543C75.2375 163.988 75.0704 165.726 75.1242 167.248C75.1786 168.789 75.4668 170.305 75.8591 171.403C76.1534 172.226 77.06 172.655 77.884 172.361C78.708 172.067 79.1374 171.161 78.8432 170.337C78.5753 169.588 78.3354 168.399 78.2908 167.136C78.2456 165.855 78.4086 164.69 78.7847 163.892C80.1349 161.024 80.3278 156.91 76.5132 149.558C74.787 146.231 75.0061 144.26 75.5713 143.232C76.143 142.191 77.3606 141.579 78.8034 141.579L78.8128 141.579L78.8278 141.579L79.5639 141.751C79.5696 141.753 79.5754 141.754 79.5811 141.755C79.6083 141.761 79.6356 141.767 79.6628 141.771C79.6764 141.779 79.6893 141.787 79.7016 141.796C79.8696 141.906 80.0172 142.074 80.1399 142.325C80.408 142.872 80.4638 143.627 80.3993 144.159C80.294 145.027 80.9128 145.816 81.7814 145.922C82.6501 146.027 83.4396 145.408 83.5449 144.54C83.6564 143.621 83.6066 142.199 82.9856 140.932C82.6639 140.275 82.1712 139.628 81.4403 139.148C81.3828 139.111 81.3245 139.074 81.2652 139.039C80.9594 138.661 80.4916 138.412 79.9497 138.412H74.8784L63.2601 143.294L57.6588 133.528C58.1747 129.558 58.4645 124.992 58.4804 119.73L53.8862 120.468L58.4566 116.481C58.2919 106.944 57.2892 95.2904 55.2065 81.0177C55.1562 79.0955 54.4954 77.3073 53.8092 75.4501L53.809 75.4495C53.4649 74.5185 53.1144 73.57 52.8313 72.5786C52.3267 70.812 51.7004 69.1207 50.9684 67.5159L42.796 69.8027L48.9212 63.6815ZM22.74 144.624L17.5346 135.931L24.7667 131.765C25.089 132.523 25.3431 133.312 25.5334 134.121L33.9503 134.982L25.9251 136.713C26.1236 139.44 25.6965 142.273 24.7849 144.877C24.6406 144.872 24.491 144.864 24.337 144.853C23.8446 144.815 23.3057 144.741 22.74 144.624Z"/>
</mask>
<path fill-rule="evenodd" clip-rule="evenodd" d="M48.9212 63.6815C43.5774 55.0372 34.9409 49.7653 26.2677 50.1315C24.3476 42.0397 23.2377 34.802 23.1238 29.1648C23.0127 23.67 23.6268 19.8557 24.4134 17.3461C24.8995 15.7952 25.4514 14.7425 25.9387 14.0993C26.2495 13.6891 26.3921 13.1251 26.1675 12.6621L21.2822 2.59249C20.8789 1.76121 19.6937 1.81404 19.4049 2.69164C18.6742 4.91243 17.8717 7.83921 17.2985 11.2739C17.2325 11.6695 17.1695 12.0718 17.1101 12.4806C16.1503 19.077 16.1024 27.3492 18.8993 36.0257L18.935 36.1363C20.4429 40.8177 21.9358 45.6798 23.3869 50.4641C22.804 50.575 22.2225 50.7127 21.6435 50.8779C8.88263 54.5184 2.15653 70.1367 6.61988 85.7624L6.62206 85.7704L6.61954 85.7625C6.83082 86.5021 7.06337 87.2285 7.31608 87.9408L7.31274 87.9297L7.31663 87.9407C8.35324 91.1499 9.67737 95.1151 11.1596 99.3576H22.332L12.4587 103.031C15.9439 112.765 20.0332 123.202 23.2893 129.02C21.6976 130.174 19.5588 131.712 18.5821 132.366C18.094 132.693 17.3289 132.895 16.5549 133.099C14.821 133.557 13.0426 134.026 14.234 135.939C15.1071 137.341 16.4391 139.059 17.7819 140.79C18.6779 141.945 19.5787 143.107 20.3511 144.185L17.1831 146.065L18.3698 142.872C15.6727 141.135 13.4582 138.082 13.7504 133.003C14.2785 123.82 6.13686 113.519 2.00004 109.517C3.53996 111.98 6.09168 119.545 3.98019 130.1C3.86707 130.666 3.76859 131.226 3.68379 131.781L6.88474 133.662L3.32943 135.069C2.80474 143.352 5.1447 149.95 6.61955 152.53L6.62039 152.531C9.10558 156.645 15.3968 163.459 23.5553 163.949C24.9258 165.492 26.557 167.805 26.557 169.683C26.557 171.676 24.4484 171.848 22.6649 171.992C21.7338 172.068 20.8914 172.136 20.4838 172.453C19.2956 173.377 21.8041 174.696 25.1047 174.432C25.5449 174.397 25.971 174.369 26.3758 174.342C29.0064 174.169 30.7378 174.054 29.5936 172.453C28.2733 170.606 27.6132 168.759 27.6132 167.703C27.6132 167.005 26.9768 165.092 26.2401 163.878C27.3742 163.75 28.5376 163.492 29.7257 163.085C31.2417 162.566 32.8949 162.171 34.6175 161.76L34.618 161.76L34.6198 161.759C38.0903 160.93 41.8422 160.035 45.3205 157.918C47.7498 158.668 49.5156 160.256 50.1894 161.106C49.1332 161.106 47.6809 164.933 47.6809 165.988C47.6809 167.044 47.0209 168.891 45.7006 170.738C44.5564 172.339 46.2878 172.453 48.9184 172.627C49.3232 172.654 49.7493 172.682 50.1894 172.717C53.4901 172.981 55.9986 171.662 54.8104 170.738C54.4028 170.421 53.5603 170.353 52.6293 170.277C50.8458 170.132 48.7372 169.961 48.7372 167.967C48.7372 165.54 51.4657 162.382 52.83 161.106L48.6314 155.404C52.1644 152.089 55.1557 146.871 56.8853 138.257C57.9403 139.722 59.1387 141.404 59.6954 142.239C60.0213 142.727 60.2216 143.492 60.4241 144.266C60.8778 146 61.3433 147.779 63.2601 146.593C66.1727 144.791 70.2014 142.477 73.0419 141.295C72.9549 141.428 72.872 141.565 72.7937 141.708C71.5105 144.043 71.7297 147.218 73.7002 151.016C77.279 157.913 76.6798 160.925 75.9176 162.543C75.2375 163.988 75.0704 165.726 75.1242 167.248C75.1786 168.789 75.4668 170.305 75.8591 171.403C76.1534 172.226 77.06 172.655 77.884 172.361C78.708 172.067 79.1374 171.161 78.8432 170.337C78.5753 169.588 78.3354 168.399 78.2908 167.136C78.2456 165.855 78.4086 164.69 78.7847 163.892C80.1349 161.024 80.3278 156.91 76.5132 149.558C74.787 146.231 75.0061 144.26 75.5713 143.232C76.143 142.191 77.3606 141.579 78.8034 141.579L78.8128 141.579L78.8278 141.579L79.5639 141.751C79.5696 141.753 79.5754 141.754 79.5811 141.755C79.6083 141.761 79.6356 141.767 79.6628 141.771C79.6764 141.779 79.6893 141.787 79.7016 141.796C79.8696 141.906 80.0172 142.074 80.1399 142.325C80.408 142.872 80.4638 143.627 80.3993 144.159C80.294 145.027 80.9128 145.816 81.7814 145.922C82.6501 146.027 83.4396 145.408 83.5449 144.54C83.6564 143.621 83.6066 142.199 82.9856 140.932C82.6639 140.275 82.1712 139.628 81.4403 139.148C81.3828 139.111 81.3245 139.074 81.2652 139.039C80.9594 138.661 80.4916 138.412 79.9497 138.412H74.8784L63.2601 143.294L57.6588 133.528C58.1747 129.558 58.4645 124.992 58.4804 119.73L53.8862 120.468L58.4566 116.481C58.2919 106.944 57.2892 95.2904 55.2065 81.0177C55.1562 79.0955 54.4954 77.3073 53.8092 75.4501L53.809 75.4495C53.4649 74.5185 53.1144 73.57 52.8313 72.5786C52.3267 70.812 51.7004 69.1207 50.9684 67.5159L42.796 69.8027L48.9212 63.6815ZM22.74 144.624L17.5346 135.931L24.7667 131.765C25.089 132.523 25.3431 133.312 25.5334 134.121L33.9503 134.982L25.9251 136.713C26.1236 139.44 25.6965 142.273 24.7849 144.877C24.6406 144.872 24.491 144.864 24.337 144.853C23.8446 144.815 23.3057 144.741 22.74 144.624Z" fill="#1D1D1D"/>
<path d="M24.7849 144.877L25.4766 145.119L25.4766 145.119L24.7849 144.877ZM5.9165 85.9682L5.9152 85.9636L7.32456 85.5611L7.32586 85.5656L5.9165 85.9682ZM8.01114 87.7083L8.01361 87.716L6.61855 88.1656L6.61609 88.158L8.01114 87.7083ZM1.37757 109.904L1.37721 109.903L2.62287 109.131L2.62323 109.132L1.37757 109.904ZM23.9395 145.059C23.9922 144.919 24.0435 144.777 24.0932 144.635L25.4766 145.119C25.4233 145.272 25.3684 145.423 25.312 145.574L23.9395 145.059ZM2.59803 135.023C2.66711 133.932 2.78506 132.813 2.95974 131.67L4.40863 131.892C4.24066 132.99 4.12725 134.067 4.06082 135.115L2.59803 135.023ZM3.26203 129.956C5.34074 119.564 2.80939 112.195 1.37974 109.907L2.62274 109.13C4.27322 111.771 6.84243 119.529 4.69928 130.244L3.26203 129.956ZM22.8881 143.907C23.5919 144.052 24.2472 144.126 24.8097 144.145L24.7601 145.61C24.1112 145.588 23.3732 145.503 22.5915 145.342L22.8881 143.907ZM34.795 162.476C33.0717 162.884 31.4522 163.268 29.963 163.779L29.488 162.392C31.0571 161.855 32.7489 161.454 34.4572 161.05L34.795 162.476ZM25.4412 131.478C27.232 135.693 27.008 140.744 25.4766 145.119L24.0932 144.635C25.5351 140.516 25.7073 135.853 24.0922 132.052L25.4412 131.478ZM50.3012 67.8202C50.391 68.0169 50.558 68.0672 50.5839 68.0729C50.5961 68.0756 50.5518 68.0659 50.4171 68.0843C50.1553 68.12 49.7754 68.2278 49.2997 68.3888C48.4201 68.6865 47.1994 69.179 46.3581 69.3891C46.1365 69.4444 45.9108 69.4889 45.6992 69.5055C45.5027 69.521 45.2389 69.5199 44.988 69.4173C44.6848 69.2933 44.4366 69.0317 44.3732 68.6552C44.3218 68.3496 44.4093 68.0585 44.5036 67.8359C44.6977 67.3778 45.1058 66.7944 45.7149 66.0643C46.3372 65.3185 47.2142 64.3679 48.3992 63.167L49.4425 64.1965C48.2712 65.3835 47.4258 66.3017 46.8403 67.0034C46.2417 67.7208 45.9567 68.1635 45.8531 68.4078C45.7986 68.5366 45.8361 68.5157 45.8186 68.4118C45.7892 68.2369 45.6589 68.1081 45.5426 68.0606C45.4787 68.0344 45.4708 68.0532 45.5843 68.0443C45.6828 68.0366 45.8212 68.0124 46.003 67.967C46.7753 67.7742 47.7954 67.3505 48.8297 67.0004C49.311 66.8375 49.8063 66.6884 50.2187 66.6321C50.4211 66.6044 50.6635 66.5899 50.8974 66.6411C51.145 66.6953 51.4686 66.8476 51.6347 67.2118L50.3012 67.8202ZM34.6607 162.488C32.9792 162.899 31.4049 163.285 29.963 163.779L29.488 162.392C31.004 161.873 32.6454 161.472 34.3127 161.065L34.6607 162.488ZM53.0946 75.6213C52.7689 74.746 52.4204 73.8101 52.1262 72.7801L53.5356 72.3775C53.8118 73.3446 54.1405 74.2291 54.4683 75.1102L53.0946 75.6213ZM25.4408 131.479C27.2315 135.693 27.0076 140.744 25.4763 145.12L24.0928 144.635C25.5347 140.516 25.7069 135.853 24.0918 132.052L25.4408 131.479ZM26.2677 50.1315L26.3295 51.5959L25.1209 51.6469L24.8416 50.4699L26.2677 50.1315ZM48.9212 63.6815L50.1679 62.9108L50.7781 63.8979L49.9573 64.7182L48.9212 63.6815ZM23.1238 29.1648L21.6583 29.1944L21.6583 29.1944L23.1238 29.1648ZM24.4134 17.3461L23.0148 16.9078L23.0148 16.9077L24.4134 17.3461ZM25.9387 14.0993L27.107 14.9844L27.107 14.9844L25.9387 14.0993ZM26.1675 12.6621L27.4862 12.0223L27.4862 12.0223L26.1675 12.6621ZM21.2822 2.59249L19.9634 3.23228L19.9634 3.23228L21.2822 2.59249ZM19.4049 2.69164L18.0127 2.23351L18.0127 2.23351L19.4049 2.69164ZM17.2985 11.2739L15.8528 11.0327L15.8528 11.0327L17.2985 11.2739ZM17.1101 12.4806L18.5605 12.6916L18.5605 12.6916L17.1101 12.4806ZM18.8993 36.0257L20.2944 35.576L20.2944 35.5762L18.8993 36.0257ZM18.935 36.1363L20.33 35.6867L20.3301 35.6869L18.935 36.1363ZM23.3869 50.4641L24.7895 50.0387L25.2629 51.5993L23.6608 51.904L23.3869 50.4641ZM21.6435 50.8779L22.0456 52.2873L22.0456 52.2873L21.6435 50.8779ZM6.61988 85.7624L8.02924 85.3598L8.03223 85.3703L8.03506 85.3808L6.61988 85.7624ZM6.62206 85.7704L8.03724 85.3888L5.22471 86.2129L6.62206 85.7704ZM6.61954 85.7625L5.21019 86.1651L8.01689 85.32L6.61954 85.7625ZM7.31608 87.9408L8.71949 87.518L5.93471 88.4308L7.31608 87.9408ZM7.31274 87.9297L5.90933 88.3526L8.69417 87.4398L7.31274 87.9297ZM7.31663 87.9407L8.69805 87.4508L8.705 87.4704L8.71139 87.4902L7.31663 87.9407ZM11.1596 99.3576V100.823H10.119L9.77586 99.841L11.1596 99.3576ZM22.332 99.3576V97.8919L22.8432 100.731L22.332 99.3576ZM12.4587 103.031L11.0787 103.526L10.5907 102.163L11.9475 101.658L12.4587 103.031ZM23.2893 129.02L24.5683 128.304L25.2048 129.441L24.1498 130.206L23.2893 129.02ZM18.5821 132.366L19.3978 133.584L19.3978 133.584L18.5821 132.366ZM16.5549 133.099L16.929 134.516L16.929 134.516L16.5549 133.099ZM14.234 135.939L15.4781 135.164L15.4781 135.164L14.234 135.939ZM17.7819 140.79L16.6237 141.688L16.6237 141.688L17.7819 140.79ZM20.3511 144.185L21.5426 143.331L22.4732 144.63L21.0991 145.445L20.3511 144.185ZM17.1831 146.065L17.9311 147.325L14.3645 149.442L15.8092 145.554L17.1831 146.065ZM18.3698 142.872L19.1633 141.639L20.1543 142.278L19.7437 143.382L18.3698 142.872ZM13.7504 133.003L12.2871 132.919L12.2871 132.919L13.7504 133.003ZM2.00004 109.517L0.757248 110.294L3.01919 108.464L2.00004 109.517ZM3.98019 130.1L2.54294 129.813L2.54294 129.813L3.98019 130.1ZM3.68379 131.781L2.94099 133.044L2.08483 132.541L2.23489 131.559L3.68379 131.781ZM6.88474 133.662L7.62754 132.399L10.2163 133.921L7.42393 135.025L6.88474 133.662ZM3.32943 135.069L1.86663 134.976L1.92543 134.048L2.79023 133.706L3.32943 135.069ZM6.61955 152.53L5.7124 153.681L5.48847 153.505L5.34701 153.257L6.61955 152.53ZM6.62039 152.531L7.52754 151.379L7.73708 151.545L7.87501 151.773L6.62039 152.531ZM23.5553 163.949L23.6433 162.486L24.2483 162.523L24.651 162.976L23.5553 163.949ZM22.6649 171.992L22.5462 170.532L22.5463 170.532L22.6649 171.992ZM20.4838 172.453L21.3833 173.611L21.3833 173.611L20.4838 172.453ZM26.3758 174.342L26.4724 175.805L26.4724 175.805L26.3758 174.342ZM29.5936 172.453L30.786 171.601L29.5936 172.453ZM26.2401 163.878L24.9872 164.639L23.798 162.68L26.075 162.422L26.2401 163.878ZM29.7257 163.085L29.2506 161.699L29.2506 161.699L29.7257 163.085ZM34.6175 161.76L34.277 160.334L34.3023 160.328L34.3279 160.323L34.6175 161.76ZM34.618 161.76L34.9473 163.188L34.9275 163.192L34.9075 163.196L34.618 161.76ZM34.6198 161.759L34.9603 163.185L34.9492 163.187L34.6198 161.759ZM45.3205 157.918L44.5586 156.666L45.1223 156.323L45.7529 156.517L45.3205 157.918ZM50.1894 161.106L51.3384 160.196L53.2204 162.572H50.1894V161.106ZM45.7006 170.738L44.5082 169.886L44.5082 169.886L45.7006 170.738ZM48.9184 172.627L48.8218 174.09L48.8217 174.09L48.9184 172.627ZM50.1894 172.717L50.3063 171.256L50.3063 171.256L50.1894 172.717ZM54.8104 170.738L53.9108 171.895L53.9108 171.895L54.8104 170.738ZM52.6293 170.277L52.7479 168.816L52.7479 168.816L52.6293 170.277ZM52.83 161.106L54.0102 160.237L54.7831 161.287L53.8309 162.177L52.83 161.106ZM48.6314 155.404L47.4511 156.273L46.6797 155.226L47.6284 154.335L48.6314 155.404ZM56.8853 138.257L55.4482 137.968L56.1102 134.671L58.0749 137.4L56.8853 138.257ZM59.6954 142.239L60.9147 141.425L60.9147 141.425L59.6954 142.239ZM60.4241 144.266L61.8421 143.895L61.8421 143.895L60.4241 144.266ZM63.2601 146.593L62.4889 145.346L62.489 145.346L63.2601 146.593ZM73.0419 141.295L72.4788 139.942L76.891 138.106L74.2669 142.1L73.0419 141.295ZM72.7937 141.708L74.0784 142.413L74.0784 142.413L72.7937 141.708ZM73.7002 151.016L75.0012 150.341L75.0012 150.341L73.7002 151.016ZM75.9176 162.543L74.5916 161.919L74.5916 161.919L75.9176 162.543ZM75.1242 167.248L76.589 167.196L76.589 167.196L75.1242 167.248ZM75.8591 171.403L77.2394 170.909L77.2394 170.909L75.8591 171.403ZM78.8432 170.337L80.2234 169.844L80.2234 169.844L78.8432 170.337ZM78.2908 167.136L79.7556 167.085L79.7556 167.085L78.2908 167.136ZM78.7847 163.892L80.1107 164.516L80.1107 164.516L78.7847 163.892ZM76.5132 149.558L75.2122 150.233L75.2122 150.233L76.5132 149.558ZM75.5713 143.232L76.8559 143.937L76.8559 143.937L75.5713 143.232ZM78.8034 141.579L78.8034 140.113L78.806 140.113L78.8034 141.579ZM78.8128 141.579L78.8153 140.113L78.8206 140.113L78.8128 141.579ZM78.8278 141.579L78.8356 140.113L79.0008 140.114L79.1616 140.152L78.8278 141.579ZM79.5639 141.751L79.2304 143.179L79.2301 143.178L79.5639 141.751ZM79.5811 141.755L79.2615 143.186L79.2612 143.186L79.5811 141.755ZM79.6628 141.771L79.9121 140.327L80.1788 140.373L80.4114 140.511L79.6628 141.771ZM79.7016 141.796L78.8977 143.021L78.8975 143.021L79.7016 141.796ZM80.1399 142.325L81.4561 141.68L81.4561 141.68L80.1399 142.325ZM80.3993 144.159L81.8543 144.336L81.8543 144.336L80.3993 144.159ZM83.5449 144.54L84.9999 144.717L84.9999 144.717L83.5449 144.54ZM82.9856 140.932L81.6695 141.577L82.9856 140.932ZM81.4403 139.148L82.2441 137.923L82.2442 137.923L81.4403 139.148ZM81.2652 139.039L80.5221 140.303L80.293 140.168L80.1258 139.961L81.2652 139.039ZM74.8784 138.412L74.3106 137.061L74.583 136.947H74.8784V138.412ZM63.2601 143.294L63.8279 144.645L62.6333 145.147L61.9887 144.023L63.2601 143.294ZM57.6588 133.528L56.3873 134.257L56.1416 133.829L56.2053 133.339L57.6588 133.528ZM58.4804 119.73L58.248 118.283L59.9514 118.01L59.9462 119.735L58.4804 119.73ZM53.8862 120.468L54.1187 121.915L49.0682 122.727L52.9226 119.364L53.8862 120.468ZM58.4566 116.481L59.9221 116.455L59.9339 117.137L59.4202 117.585L58.4566 116.481ZM55.2065 81.0177L53.7561 81.2294L53.7435 81.1432L53.7413 81.0561L55.2065 81.0177ZM53.8092 75.4501L55.1838 74.9412L55.1841 74.9421L53.8092 75.4501ZM53.809 75.4495L52.4345 75.9584L52.4342 75.9576L53.809 75.4495ZM52.8313 72.5786L54.2407 72.1761L54.2407 72.1761L52.8313 72.5786ZM50.9684 67.5159L50.5734 66.1044L51.7813 65.7664L52.3019 66.9076L50.9684 67.5159ZM42.796 69.8027L43.191 71.2142L37.8009 72.7225L41.7599 68.7659L42.796 69.8027ZM17.5346 135.931L16.2771 136.684L15.5113 135.405L16.803 134.661L17.5346 135.931ZM22.74 144.624L22.4434 146.06L21.8131 145.93L21.4824 145.377L22.74 144.624ZM24.7667 131.765L24.0351 130.495L25.4687 129.669L26.1157 131.192L24.7667 131.765ZM25.5334 134.121L25.3843 135.58L24.3455 135.473L24.1065 134.457L25.5334 134.121ZM33.9503 134.982L34.0993 133.524L34.2594 136.415L33.9503 134.982ZM25.9251 136.713L24.4632 136.82L24.3707 135.549L25.6159 135.281L25.9251 136.713ZM24.7849 144.877L26.1684 145.362L25.8123 146.379L24.7354 146.342L24.7849 144.877ZM24.337 144.853L24.4485 143.391L24.4485 143.391L24.337 144.853ZM26.2059 48.6671C35.5252 48.2736 44.6128 53.9246 50.1679 62.9108L47.6745 64.4522C42.5421 56.1498 34.3565 51.257 26.3295 51.5959L26.2059 48.6671ZM24.5892 29.1351C24.7002 34.6278 25.7861 41.7536 27.6938 49.7931L24.8416 50.4699C22.9091 42.3258 21.7752 34.9761 21.6583 29.1944L24.5892 29.1351ZM25.812 17.7845C25.0843 20.1063 24.4804 23.7556 24.5892 29.1351L21.6583 29.1944C21.5449 23.5843 22.1693 19.6052 23.0148 16.9078L25.812 17.7845ZM27.107 14.9844C26.7504 15.4551 26.2642 16.3418 25.812 17.7845L23.0148 16.9077C23.5348 15.2486 24.1524 14.0299 24.7704 13.2142L27.107 14.9844ZM27.4862 12.0223C28.0308 13.1448 27.6247 14.301 27.107 14.9844L24.7704 13.2142C24.7837 13.1966 24.7949 13.1776 24.8029 13.16C24.8109 13.1424 24.8129 13.1325 24.8128 13.133C24.8127 13.1336 24.8096 13.1502 24.8129 13.1808C24.8163 13.2128 24.8264 13.2557 24.8488 13.3019L27.4862 12.0223ZM22.6009 1.9527L27.4862 12.0223L24.8488 13.3019L19.9634 3.23228L22.6009 1.9527ZM18.0127 2.23351C18.7412 0.0195221 21.6622 0.0179136 22.6009 1.9527L19.9634 3.23228C20.0352 3.38019 20.2085 3.47333 20.3733 3.46516C20.4525 3.46123 20.543 3.43463 20.6277 3.37277C20.7191 3.30601 20.7744 3.21922 20.7972 3.14977L18.0127 2.23351ZM15.8528 11.0327C16.4401 7.51337 17.2624 4.51363 18.0127 2.23351L20.7972 3.14977C20.086 5.31123 19.3033 8.16506 18.7442 11.5152L15.8528 11.0327ZM15.6596 12.2696C15.7206 11.8505 15.7851 11.4381 15.8528 11.0327L18.7442 11.5152C18.6799 11.9009 18.6185 12.2931 18.5605 12.6916L15.6596 12.2696ZM17.5043 36.4754C14.622 27.5339 14.6765 19.0264 15.6596 12.2696L18.5605 12.6916C17.6241 19.1276 17.5829 27.1646 20.2944 35.576L17.5043 36.4754ZM17.5399 36.5858L17.5043 36.4753L20.2944 35.5762L20.33 35.6867L17.5399 36.5858ZM21.9843 50.8895C20.5339 46.1075 19.0438 41.2549 17.5398 36.5857L20.3301 35.6869C21.8419 40.3804 23.3377 45.252 24.7895 50.0387L21.9843 50.8895ZM21.2414 49.4684C21.8627 49.2911 22.487 49.1433 23.113 49.0242L23.6608 51.904C23.1209 52.0067 22.5823 52.1342 22.0456 52.2873L21.2414 49.4684ZM5.21053 86.1649C0.604932 70.0413 7.44821 53.4034 21.2414 49.4684L22.0456 52.2873C10.3171 55.6333 3.70812 70.2321 8.02924 85.3598L5.21053 86.1649ZM5.20688 86.152L5.2047 86.1439L8.03506 85.3808L8.03724 85.3888L5.20688 86.152ZM8.01689 85.32L8.01941 85.328L5.22471 86.2129L5.22219 86.2049L8.01689 85.32ZM5.93471 88.4308C5.67177 87.6897 5.42988 86.9341 5.21019 86.1651L8.02889 85.3599C8.23176 86.0701 8.45498 86.7673 8.69745 87.4508L5.93471 88.4308ZM8.71615 87.5069L8.71949 87.518L5.91267 88.3636L5.90933 88.3526L8.71615 87.5069ZM5.9352 88.4306L5.93132 88.4196L8.69417 87.4398L8.69805 87.4508L5.9352 88.4306ZM9.77586 99.841C8.28972 95.5873 6.96191 91.6111 5.92186 88.3912L8.71139 87.4902C9.74457 90.6888 11.065 94.643 12.5433 98.8742L9.77586 99.841ZM22.332 100.823H11.1596V97.8919H22.332V100.823ZM11.9475 101.658L21.8209 97.9839L22.8432 100.731L12.9698 104.405L11.9475 101.658ZM22.0102 129.736C18.6862 123.796 14.5603 113.249 11.0787 103.526L13.8386 102.537C17.3275 112.281 21.3802 122.608 24.5683 128.304L22.0102 129.736ZM17.7664 131.148C18.7155 130.512 20.8298 128.993 22.4287 127.833L24.1498 130.206C22.5654 131.356 20.4021 132.911 19.3978 133.584L17.7664 131.148ZM16.1808 131.682C17.0489 131.453 17.5294 131.307 17.7665 131.148L19.3978 133.584C18.6587 134.079 17.6089 134.337 16.929 134.516L16.1808 131.682ZM12.9899 136.714C12.6067 136.099 12.3271 135.391 12.3894 134.633C12.4565 133.816 12.8937 133.223 13.3768 132.833C13.826 132.47 14.3585 132.242 14.8057 132.085C15.2641 131.923 15.7604 131.793 16.1809 131.682L16.929 134.516C16.4825 134.634 16.1063 134.734 15.7808 134.849C15.4441 134.968 15.2813 135.063 15.2182 135.114C15.1889 135.138 15.2965 135.05 15.311 134.873C15.3207 134.754 15.2656 134.823 15.4781 135.164L12.9899 136.714ZM16.6237 141.688C15.2978 139.979 13.9117 138.194 12.9898 136.714L15.4781 135.164C16.3025 136.488 17.5804 138.138 18.9402 139.892L16.6237 141.688ZM19.1597 145.039C18.4065 143.987 17.5238 142.849 16.6237 141.688L18.9402 139.892C19.832 141.042 20.7509 142.226 21.5426 143.331L19.1597 145.039ZM16.4351 144.804L19.6032 142.924L21.0991 145.445L17.9311 147.325L16.4351 144.804ZM19.7437 143.382L18.557 146.575L15.8092 145.554L16.9959 142.361L19.7437 143.382ZM15.2137 133.087C14.9539 137.604 16.8799 140.169 19.1633 141.639L17.5763 144.104C14.4654 142.101 11.9626 138.561 12.2871 132.919L15.2137 133.087ZM3.01919 108.464C5.17167 110.546 8.32691 114.224 10.8876 118.573C13.4317 122.895 15.5022 128.069 15.2137 133.087L12.2871 132.919C12.5266 128.753 10.7903 124.186 8.36148 120.061C5.9492 115.964 2.96523 112.49 0.980899 110.571L3.01919 108.464ZM2.54294 129.813C4.58999 119.579 2.0761 112.404 0.757248 110.294L3.24284 108.74C5.00382 111.557 7.59337 119.51 5.41744 130.388L2.54294 129.813ZM2.23489 131.559C2.32303 130.983 2.42538 130.4 2.54294 129.813L5.41744 130.388C5.30876 130.931 5.21415 131.469 5.13268 132.002L2.23489 131.559ZM6.14194 134.926L2.94099 133.044L4.42658 130.517L7.62754 132.399L6.14194 134.926ZM2.79023 133.706L6.34555 132.3L7.42393 135.025L3.86862 136.432L2.79023 133.706ZM5.34701 153.257C3.73186 150.431 1.32359 143.55 1.86663 134.976L4.79222 135.162C4.28589 143.155 6.55754 149.468 7.89209 151.803L5.34701 153.257ZM5.71324 153.682L5.7124 153.681L7.5267 151.379L7.52754 151.379L5.71324 153.682ZM23.4673 165.412C19.0012 165.144 15.1112 163.151 12.0553 160.752C9.00056 158.354 6.69178 155.484 5.36577 153.289L7.87501 151.773C9.03419 153.692 11.1136 156.286 13.8654 158.446C16.6161 160.605 19.9509 162.264 23.6433 162.486L23.4673 165.412ZM25.0913 169.683C25.0913 169.125 24.8323 168.347 24.2999 167.422C23.7856 166.529 23.1022 165.646 22.4596 164.923L24.651 162.976C25.3789 163.795 26.1964 164.841 26.8403 165.959C27.4661 167.046 28.0227 168.362 28.0227 169.683H25.0913ZM22.5463 170.532C23.5051 170.454 24.2251 170.381 24.7197 170.176C24.9353 170.087 25.0081 170.01 25.03 169.981C25.0385 169.97 25.0913 169.906 25.0913 169.683H28.0227C28.0227 170.456 27.8119 171.161 27.3694 171.747C26.9402 172.316 26.3743 172.664 25.8398 172.885C24.8343 173.301 23.6082 173.386 22.7836 173.453L22.5463 170.532ZM19.5843 171.296C20.0881 170.904 20.7066 170.762 21.1253 170.689C21.5835 170.608 22.1001 170.568 22.5462 170.532L22.7836 173.453C22.2986 173.493 21.9285 173.524 21.6308 173.576C21.4877 173.601 21.3969 173.625 21.3445 173.644C21.2885 173.663 21.3183 173.661 21.3833 173.611L19.5843 171.296ZM25.2215 175.893C23.3826 176.04 21.6664 175.76 20.4955 175.218C19.9622 174.972 19.2649 174.545 18.9188 173.823C18.7202 173.409 18.6436 172.9 18.8067 172.378C18.9605 171.885 19.2796 171.533 19.5843 171.296L21.3833 173.611C21.391 173.605 21.5285 173.496 21.605 173.251C21.6907 172.976 21.6409 172.72 21.562 172.555C21.4552 172.333 21.3685 172.392 21.7264 172.558C22.3378 172.841 23.5262 173.088 24.9879 172.971L25.2215 175.893ZM26.4724 175.805C26.0663 175.832 25.6501 175.859 25.2215 175.893L24.9879 172.971C25.4397 172.935 25.8757 172.906 26.2792 172.88L26.4724 175.805ZM30.786 171.601C31.1218 172.071 31.5382 172.805 31.3864 173.657C31.2119 174.636 30.4375 175.094 29.9502 175.292C29.4485 175.495 28.8565 175.592 28.3196 175.655C27.7608 175.72 27.119 175.762 26.4724 175.805L26.2792 172.88C26.9479 172.836 27.5089 172.798 27.9789 172.743C28.4707 172.686 28.7333 172.622 28.8502 172.574C28.9816 172.521 28.5899 172.64 28.5004 173.142C28.4337 173.517 28.6374 173.636 28.4011 173.306L30.786 171.601ZM29.079 167.703C29.079 168.325 29.5503 169.872 30.786 171.601L28.4011 173.306C26.9963 171.34 26.1475 169.193 26.1475 167.703H29.079ZM27.493 163.118C27.9298 163.837 28.3128 164.719 28.5863 165.499C28.8394 166.222 29.079 167.082 29.079 167.703H26.1475C26.1475 167.704 26.1404 167.588 26.077 167.324C26.0196 167.084 25.9323 166.79 25.8196 166.468C25.5906 165.814 25.2872 165.133 24.9872 164.639L27.493 163.118ZM30.2008 164.472C28.9135 164.913 27.6462 165.194 26.4053 165.335L26.075 162.422C27.1022 162.305 28.1617 162.072 29.2506 161.699L30.2008 164.472ZM34.9579 163.185C33.2202 163.6 31.6381 163.979 30.2008 164.472L29.2506 161.699C30.8452 161.152 32.5696 160.742 34.277 160.334L34.9579 163.185ZM34.9075 163.196L34.9071 163.196L34.3279 160.323L34.3284 160.323L34.9075 163.196ZM34.9492 163.187L34.9473 163.188L34.2886 160.331L34.2905 160.331L34.9492 163.187ZM46.0825 159.17C42.3781 161.424 38.4042 162.362 34.9603 163.185L34.2794 160.333C37.7763 159.499 41.3062 158.645 44.5586 156.666L46.0825 159.17ZM49.0405 162.016C48.5191 161.358 46.9898 159.967 44.8882 159.318L45.7529 156.517C48.5097 157.369 50.512 159.153 51.3384 160.196L49.0405 162.016ZM46.2152 165.988C46.2152 165.494 46.3635 164.88 46.5208 164.358C46.6924 163.788 46.9301 163.149 47.2049 162.545C47.4746 161.952 47.8073 161.332 48.1842 160.835C48.3717 160.588 48.6072 160.321 48.8932 160.105C49.1687 159.896 49.6143 159.641 50.1894 159.641V162.572C50.3474 162.572 50.4697 162.536 50.5455 162.505C50.6188 162.475 50.6581 162.445 50.6636 162.441C50.668 162.438 50.6168 162.478 50.5195 162.607C50.3271 162.86 50.0987 163.263 49.8733 163.758C49.653 164.243 49.4616 164.758 49.3279 165.203C49.2611 165.424 49.2126 165.616 49.1818 165.767C49.1482 165.933 49.1467 165.998 49.1467 165.988H46.2152ZM44.5082 169.886C45.7439 168.157 46.2152 166.609 46.2152 165.988H49.1467C49.1467 167.478 48.2978 169.625 46.8931 171.59L44.5082 169.886ZM48.8217 174.09C48.1752 174.047 47.5334 174.005 46.9746 173.94C46.4376 173.877 45.8457 173.779 45.344 173.576C44.8567 173.379 44.0823 172.921 43.9078 171.941C43.756 171.09 44.1724 170.356 44.5082 169.886L46.8931 171.59C46.6568 171.921 46.8605 171.801 46.7937 171.427C46.7042 170.925 46.3126 170.806 46.4439 170.859C46.5609 170.906 46.8235 170.97 47.3153 171.028C47.7852 171.083 48.3463 171.12 49.015 171.165L48.8217 174.09ZM50.0726 174.178C49.6441 174.144 49.2278 174.116 48.8218 174.09L49.015 171.165C49.4185 171.191 49.8544 171.22 50.3063 171.256L50.0726 174.178ZM55.7099 169.581C56.0146 169.818 56.3337 170.169 56.4875 170.662C56.6506 171.185 56.5739 171.694 56.3753 172.108C56.0293 172.829 55.3319 173.256 54.7987 173.503C53.6277 174.045 51.9116 174.325 50.0726 174.178L50.3063 171.256C51.768 171.373 52.9564 171.126 53.5678 170.843C53.9257 170.677 53.8389 170.618 53.7322 170.84C53.6533 171.005 53.6034 171.261 53.6891 171.536C53.7656 171.781 53.9032 171.889 53.9108 171.895L55.7099 169.581ZM52.7479 168.816C53.194 168.853 53.7107 168.893 54.1689 168.973C54.5875 169.047 55.2061 169.189 55.7099 169.581L53.9108 171.895C53.9759 171.946 54.0057 171.948 53.9497 171.928C53.8972 171.91 53.8065 171.886 53.6634 171.861C53.3657 171.809 52.9956 171.777 52.5106 171.738L52.7479 168.816ZM50.2029 167.967C50.2029 168.191 50.2556 168.254 50.2642 168.266C50.2861 168.295 50.3589 168.372 50.5745 168.461C51.0691 168.666 51.7891 168.738 52.7479 168.816L52.5106 171.738C51.686 171.671 50.4599 171.586 49.4543 171.17C48.9199 170.949 48.354 170.601 47.9248 170.032C47.4823 169.446 47.2714 168.741 47.2714 167.967H50.2029ZM53.8309 162.177C53.2148 162.753 52.266 163.78 51.4835 164.93C50.6628 166.135 50.2029 167.219 50.2029 167.967H47.2714C47.2714 166.288 48.1758 164.579 49.0604 163.28C49.9833 161.924 51.0809 160.735 51.829 160.036L53.8309 162.177ZM49.8117 154.535L54.0102 160.237L51.6497 161.975L47.4511 156.273L49.8117 154.535ZM58.3223 138.545C56.5507 147.369 53.4481 152.894 49.6344 156.473L47.6284 154.335C50.8807 151.283 53.7607 146.373 55.4482 137.968L58.3223 138.545ZM58.4761 143.052C57.9368 142.244 56.7548 140.584 55.6957 139.113L58.0749 137.4C59.1258 138.86 60.3407 140.565 60.9147 141.425L58.4761 143.052ZM59.0062 144.637C58.779 143.769 58.6342 143.289 58.4761 143.052L60.9147 141.425C61.4085 142.165 61.6642 143.215 61.8421 143.895L59.0062 144.637ZM64.0313 147.839C63.4148 148.221 62.7067 148.498 61.9488 148.434C61.1321 148.365 60.5406 147.927 60.1513 147.443C59.7894 146.993 59.5627 146.46 59.4059 146.013C59.2451 145.554 59.1162 145.058 59.0061 144.637L61.8421 143.895C61.959 144.342 62.0583 144.718 62.1723 145.043C62.2903 145.38 62.3848 145.543 62.4356 145.606C62.459 145.635 62.3716 145.528 62.1955 145.513C62.0781 145.503 62.147 145.558 62.4889 145.346L64.0313 147.839ZM73.605 142.648C70.8802 143.782 66.9358 146.042 64.0312 147.839L62.489 145.346C65.4096 143.539 69.5227 141.172 72.4788 139.942L73.605 142.648ZM71.5091 141.002C71.606 140.825 71.7087 140.655 71.8169 140.49L74.2669 142.1C74.201 142.2 74.1381 142.305 74.0784 142.413L71.5091 141.002ZM72.3992 151.691C70.3169 147.678 69.8923 143.945 71.5091 141.002L74.0784 142.413C73.1287 144.142 73.1424 146.758 75.0012 150.341L72.3992 151.691ZM74.5916 161.919C75.082 160.877 75.8679 158.376 72.3992 151.691L75.0012 150.341C78.6901 157.451 78.2776 160.972 77.2437 163.168L74.5916 161.919ZM73.6594 167.3C73.6017 165.666 73.7707 163.662 74.5916 161.919L77.2437 163.168C76.7043 164.313 76.5392 165.786 76.589 167.196L73.6594 167.3ZM74.4789 171.896C74.029 170.637 73.7183 168.969 73.6594 167.3L76.589 167.196C76.6389 168.608 76.9047 169.973 77.2394 170.909L74.4789 171.896ZM78.3767 173.741C76.7912 174.307 75.0458 173.482 74.4789 171.896L77.2394 170.909C77.2611 170.97 77.3288 171.003 77.3913 170.981L78.3767 173.741ZM80.2234 169.844C80.7904 171.431 79.9627 173.175 78.3767 173.741L77.3913 170.981C77.4534 170.958 77.4845 170.891 77.4629 170.831L80.2234 169.844ZM79.7556 167.085C79.7957 168.219 80.0132 169.256 80.2234 169.844L77.4629 170.831C77.1375 169.92 76.8752 168.58 76.826 167.188L79.7556 167.085ZM80.1107 164.516C79.8755 165.016 79.7143 165.914 79.7556 167.085L76.826 167.188C76.7768 165.795 76.9417 164.365 77.4586 163.267L80.1107 164.516ZM77.8142 148.883C81.7374 156.444 81.7337 161.069 80.1107 164.516L77.4586 163.267C78.536 160.979 78.9183 157.376 75.2122 150.233L77.8142 148.883ZM76.8559 143.937C76.6217 144.364 76.2034 145.779 77.8142 148.883L75.2122 150.233C73.3706 146.684 73.3906 144.157 74.2867 142.526L76.8559 143.937ZM78.8034 143.045C77.7437 143.045 77.1045 143.485 76.8559 143.937L74.2867 142.526C75.1815 140.897 76.9776 140.113 78.8034 140.113V143.045ZM78.8102 143.045L78.8009 143.045L78.806 140.113L78.8153 140.113L78.8102 143.045ZM78.8199 143.045L78.8049 143.045L78.8206 140.113L78.8356 140.113L78.8199 143.045ZM79.2301 143.178L78.494 143.006L79.1616 140.152L79.8977 140.324L79.2301 143.178ZM79.2612 143.186C79.2531 143.184 79.2424 143.181 79.2304 143.179L79.8974 140.324C79.8968 140.324 79.8976 140.324 79.901 140.325L79.2612 143.186ZM79.4136 143.216C79.3626 143.207 79.3119 143.197 79.2615 143.186L79.9006 140.325C79.9047 140.326 79.9086 140.326 79.9121 140.327L79.4136 143.216ZM78.8975 143.021C78.9033 143.025 78.9089 143.028 78.9143 143.031L80.4114 140.511C80.4439 140.53 80.4753 140.55 80.5057 140.57L78.8975 143.021ZM78.8237 142.97C78.8073 142.936 78.802 142.934 78.8152 142.95C78.8297 142.967 78.8571 142.994 78.8977 143.021L80.5055 140.57C80.9328 140.85 81.2405 141.24 81.4561 141.68L78.8237 142.97ZM78.9442 143.983C78.9617 143.838 78.9649 143.635 78.9393 143.425C78.913 143.209 78.8648 143.054 78.8237 142.97L81.4561 141.68C81.8873 142.56 81.9407 143.623 81.8543 144.336L78.9442 143.983ZM81.6052 147.377C79.9337 147.174 78.7413 145.655 78.9442 143.983L81.8543 144.336C81.8466 144.399 81.8919 144.458 81.9577 144.466L81.6052 147.377ZM84.9999 144.717C84.7971 146.389 83.2765 147.579 81.6052 147.377L81.9577 144.466C82.0236 144.474 82.0821 144.427 82.0898 144.364L84.9999 144.717ZM84.3018 140.287C85.0863 141.888 85.1331 143.618 84.9999 144.717L82.0898 144.364C82.1796 143.623 82.1268 142.51 81.6695 141.577L84.3018 140.287ZM82.2442 137.923C83.2358 138.573 83.8881 139.443 84.3018 140.287L81.6695 141.577C81.4397 141.108 81.1066 140.682 80.6364 140.374L82.2442 137.923ZM82.0084 137.776C82.0882 137.823 82.1668 137.872 82.2441 137.923L80.6364 140.374C80.5989 140.349 80.5607 140.326 80.5221 140.303L82.0084 137.776ZM79.9497 136.947C80.9585 136.947 81.8363 137.415 82.4047 138.117L80.1258 139.961C80.1033 139.934 80.0768 139.913 80.0497 139.9C80.0245 139.887 79.9928 139.878 79.9497 139.878V136.947ZM62.6923 141.943L74.3106 137.061L75.4462 139.764L63.8279 144.645L62.6923 141.943ZM58.9302 132.799L64.5316 142.565L61.9887 144.023L56.3873 134.257L58.9302 132.799ZM59.9462 119.735C59.93 125.047 59.6376 129.676 59.1123 133.717L56.2053 133.339C56.7119 129.441 56.9989 124.938 57.0147 119.726L59.9462 119.735ZM53.6538 119.021L58.248 118.283L58.7129 121.178L54.1187 121.915L53.6538 119.021ZM59.4202 117.585L54.8498 121.573L52.9226 119.364L57.493 115.376L59.4202 117.585ZM56.6568 80.8061C58.7459 95.1219 59.7561 106.84 59.9221 116.455L56.9911 116.506C56.8278 107.048 55.8326 95.4588 53.7561 81.2294L56.6568 80.8061ZM55.1841 74.9421C55.855 76.7578 56.614 78.774 56.6717 80.9794L53.7413 81.0561C53.6984 79.417 53.1359 77.8568 52.4344 75.9581L55.1841 74.9421ZM55.1835 74.9406L55.1838 74.9412L52.4347 75.959L52.4345 75.9584L55.1835 74.9406ZM54.2407 72.1761C54.5061 73.1055 54.8369 74.0027 55.1838 74.9414L52.4342 75.9576C52.0929 75.0342 51.7228 74.0345 51.4219 72.9811L54.2407 72.1761ZM52.3019 66.9076C53.0644 68.579 53.7159 70.339 54.2407 72.1761L51.422 72.9812C50.9374 71.2849 50.3365 69.6624 49.6348 68.1242L52.3019 66.9076ZM42.4011 68.3912L50.5734 66.1044L51.3633 68.9274L43.191 71.2142L42.4011 68.3912ZM49.9573 64.7182L43.8321 70.8395L41.7599 68.7659L47.8851 62.6447L49.9573 64.7182ZM18.7922 135.178L23.9975 143.871L21.4824 145.377L16.2771 136.684L18.7922 135.178ZM25.4983 133.035L18.2662 137.201L16.803 134.661L24.0351 130.495L25.4983 133.035ZM24.1065 134.457C23.9343 133.724 23.7054 133.015 23.4177 132.338L26.1157 131.192C26.4725 132.032 26.752 132.9 26.9602 133.786L24.1065 134.457ZM33.8013 136.44L25.3843 135.58L25.6824 132.663L34.0993 133.524L33.8013 136.44ZM25.6159 135.281L33.6412 133.549L34.2594 136.415L26.2342 138.146L25.6159 135.281ZM23.4015 144.393C24.2532 141.96 24.6458 139.327 24.4632 136.82L27.3869 136.607C27.6014 139.552 27.1398 142.586 26.1684 145.362L23.4015 144.393ZM24.4485 143.391C24.5813 143.401 24.7102 143.408 24.8345 143.412L24.7354 146.342C24.5711 146.337 24.4008 146.327 24.2255 146.314L24.4485 143.391ZM23.0365 143.189C23.5421 143.294 24.0192 143.358 24.4485 143.391L24.2255 146.314C23.67 146.272 23.0692 146.189 22.4434 146.06L23.0365 143.189ZM74.8784 136.947H79.9497V139.878H74.8784V136.947Z" fill="#1D1D1D" mask="url(#path-2-outside-1)"/>
<path fill-rule="evenodd" clip-rule="evenodd" d="M79.807 142.498C80.0339 142.961 80.0904 143.639 80.0313 144.126C79.9015 145.198 80.6648 146.172 81.7363 146.302C82.8078 146.431 83.7817 145.668 83.9115 144.597C84.0285 143.631 83.9794 142.131 83.3173 140.779C82.9723 140.075 82.4393 139.37 81.6427 138.847C80.8372 138.319 79.8758 138.05 78.8028 138.05C76.4542 138.05 73.8279 139.064 72.4689 141.54C71.1018 144.03 71.3721 147.347 73.3712 151.202C76.9224 158.051 76.2758 160.935 75.5823 162.409C74.8666 163.93 74.6991 165.736 74.7539 167.287C74.8094 168.861 75.1033 170.417 75.5101 171.556C75.8731 172.572 76.9914 173.102 78.0079 172.739C79.0243 172.376 79.554 171.258 79.191 170.241C78.9377 169.532 78.7035 168.381 78.66 167.149C78.6158 165.895 78.7783 164.797 79.1188 164.073C80.5377 161.058 80.6832 156.813 76.8411 149.403C75.1435 146.129 75.4138 144.297 75.8951 143.421C76.3844 142.529 77.4548 141.959 78.8028 141.959C79.2086 141.959 79.4046 142.054 79.498 142.115C79.6002 142.182 79.7075 142.295 79.807 142.498Z" fill="#C7B883"/>
<path d="M57.0545 132.479L63.2597 143.305L74.8779 138.42H79.9491C81.0968 138.42 81.9119 139.538 81.5606 140.631C81.2908 141.471 80.4219 141.962 79.5633 141.761L74.8779 140.665C72.2374 141.325 66.8843 144.362 63.2597 146.606C61.3429 147.793 60.8774 146.013 60.4237 144.278C60.2212 143.504 60.021 142.738 59.695 142.249C58.85 140.982 56.5264 137.76 55.4702 136.308L57.0545 132.479Z" fill="#7C7C7C"/>
<path d="M52.8297 161.129L47.6807 154.131L43.456 157.564C46.8358 157.881 49.3531 160.072 50.1892 161.129C49.1329 161.129 47.6807 164.957 47.6807 166.014C47.6807 167.07 47.0207 168.918 45.7004 170.766C44.3802 172.615 46.8886 172.483 50.1892 172.747C53.4898 173.011 55.9983 171.691 54.81 170.766C53.6218 169.842 48.7369 171.03 48.7369 167.994C48.7369 165.565 51.4654 162.405 52.8297 161.129Z" fill="#7C7C7C"/>
<path d="M6.62008 85.7373C6.83153 86.4773 7.06412 87.2041 7.31682 87.917C8.35342 91.1282 9.67753 95.0959 11.1597 99.3411H22.332L12.4588 103.017C16.1718 113.394 20.5703 124.568 23.9166 130.103C24.6677 131.345 25.1992 132.704 25.5334 134.127L33.9502 134.988L25.9251 136.72C26.1236 139.448 25.6965 142.284 24.7849 144.889C21.9681 152.943 14.5245 158.805 6.62008 152.547C9.70126 157.652 18.6356 166.911 29.7257 163.109C31.2423 162.589 32.8963 162.194 34.6197 161.782C45.1892 159.257 58.3697 156.107 58.4801 119.727L53.8859 120.465L58.4562 116.475C58.2916 106.932 57.2889 95.2713 55.2061 80.9897C55.1559 79.066 54.495 77.2765 53.8087 75.418C53.4646 74.4863 53.1141 73.5372 52.831 72.5453C52.3264 70.7775 51.7001 69.0852 50.9681 67.4793L42.7958 69.7676L48.9209 63.6425C42.6245 53.4506 31.7564 47.9438 21.6435 50.8308C8.88281 54.4736 2.15678 70.1018 6.62008 85.7373Z" fill="#EAEAEA"/>
<path fill-rule="evenodd" clip-rule="evenodd" d="M13.2909 87.2569C12.8876 87.292 12.5892 87.6473 12.6242 88.0505C13.0728 93.2094 16.4519 96.2057 18.1681 97.0883C18.5281 97.2734 18.9699 97.1317 19.155 96.7718C19.3401 96.4118 19.1984 95.97 18.8385 95.7849C17.4741 95.0832 14.4808 92.4817 14.0845 87.9235C14.0494 87.5203 13.6941 87.2219 13.2909 87.2569Z" fill="#CFCFCF"/>
<path fill-rule="evenodd" clip-rule="evenodd" d="M25.3522 96.7183C25.5077 97.0919 25.9368 97.2687 26.3104 97.1131C28.721 96.1094 29.9842 94.6945 30.661 93.2527C31.1914 92.1231 31.3482 90.9781 31.4574 90.181C31.4824 89.9987 31.5049 89.8345 31.5288 89.6929C31.5962 89.2938 31.3272 88.9157 30.9281 88.8483C30.529 88.781 30.1509 89.0499 30.0835 89.449C30.0497 89.6497 30.0207 89.8566 29.991 90.0689C29.8805 90.8588 29.7594 91.7242 29.3343 92.6298C28.82 93.7252 27.8385 94.8892 25.747 95.76C25.3734 95.9156 25.1966 96.3446 25.3522 96.7183Z" fill="#CFCFCF"/>
<path fill-rule="evenodd" clip-rule="evenodd" d="M44.5081 91.4915C44.3973 91.8807 44.623 92.2862 45.0122 92.397C47.5236 93.1122 49.393 92.7912 50.8203 92.0843C51.9385 91.5304 52.7741 90.732 53.3557 90.1762C53.4888 90.049 53.6086 89.9346 53.7154 89.8386C54.0166 89.5682 54.0416 89.1049 53.7712 88.8037C53.5008 88.5025 53.0374 88.4776 52.7362 88.748C52.5848 88.884 52.4333 89.0279 52.2779 89.1756C51.6997 89.7249 51.0662 90.3268 50.1697 90.7708C49.0853 91.308 47.5926 91.6079 45.4137 90.9873C45.0244 90.8765 44.619 91.1022 44.5081 91.4915Z" fill="#CFCFCF"/>
<path d="M16.0109 88.1191C16.7892 92.557 20.2982 95.6499 23.8485 95.0273C27.3989 94.4046 29.6461 90.3023 28.8678 85.8644C28.0895 81.4264 24.5805 78.3335 21.0301 78.9562C17.4798 79.5788 15.2326 83.6812 16.0109 88.1191Z" fill="url(#paint0_radial)"/>
<path fill-rule="evenodd" clip-rule="evenodd" d="M15.4853 88.2112C16.2943 92.8239 19.9967 96.2444 23.9407 95.5528C27.8846 94.8611 30.2022 90.3849 29.3933 85.7722C28.5844 81.1595 24.8819 77.739 20.938 78.4306C16.994 79.1223 14.6764 83.5986 15.4853 88.2112ZM23.8485 95.0273C20.2982 95.6499 16.7892 92.557 16.0109 88.1191C15.2326 83.6812 17.4798 79.5788 21.0301 78.9562C24.5805 78.3335 28.0895 81.4264 28.8678 85.8644C29.646 90.3023 27.3988 94.4046 23.8485 95.0273Z" fill="#1D1D1D"/>
<path d="M16.5454 86.9561C16.2004 88.9304 17.5212 90.8107 19.4956 91.1557C21.47 91.5007 23.3502 90.1798 23.6952 88.2054C24.0402 86.2311 22.7194 84.3508 20.745 84.0058C18.7706 83.6608 16.8904 84.9817 16.5454 86.9561Z" fill="#636363"/>
<path d="M40.3034 82.574C41.0817 87.0119 44.5907 90.1048 48.141 89.4822C51.6914 88.8596 53.9386 84.7572 53.1603 80.3193C52.382 75.8814 48.873 72.7885 45.3227 73.4111C41.7723 74.0337 39.5251 78.1361 40.3034 82.574Z" fill="url(#paint1_radial)"/>
<path fill-rule="evenodd" clip-rule="evenodd" d="M39.7778 82.6662C40.5868 87.2788 44.2892 90.6994 48.2332 90.0078C52.1771 89.3161 54.4947 84.8398 53.6858 80.2271C52.8769 75.6145 49.1744 72.1939 45.2304 72.8856C41.2865 73.5772 38.9689 78.0535 39.7778 82.6662ZM48.141 89.4822C44.5907 90.1048 41.0816 87.0119 40.3034 82.574C39.5251 78.1361 41.7723 74.0337 45.3226 73.4111C48.8729 72.7885 52.382 75.8814 53.1602 80.3193C53.9385 84.7572 51.6913 88.8596 48.141 89.4822Z" fill="#1D1D1D"/>
<path d="M43.8669 84.9607C43.5219 86.9351 44.8428 88.8154 46.8171 89.1604C48.7915 89.5054 50.6718 88.1845 51.0168 86.2101C51.3618 84.2357 50.0409 82.3555 48.0665 82.0105C46.0921 81.6655 44.2119 82.9864 43.8669 84.9607Z" fill="#636363"/>
<path fill-rule="evenodd" clip-rule="evenodd" d="M6.62001 85.7374C6.83128 86.4775 7.06384 87.2043 7.31654 87.9171C7.06713 87.1445 6.83435 86.4158 6.62001 85.7374ZM6.62001 152.547C5.14517 149.965 2.805 143.363 3.32968 135.075L6.88522 133.668L3.68429 131.785C3.76909 131.229 3.86756 130.669 3.98068 130.103C6.09214 119.541 3.54021 111.971 2.00031 109.507C6.13708 113.512 14.2786 123.818 13.7505 133.007C13.4584 138.09 15.6728 141.145 18.3699 142.883L17.1831 146.078L20.6417 144.024C22.146 144.598 23.6305 144.851 24.7848 144.89C21.9679 152.943 14.5244 158.805 6.62001 152.547Z" fill="#9F9F9F"/>
<path fill-rule="evenodd" clip-rule="evenodd" d="M6.61975 85.7374C6.83102 86.4775 7.06358 87.2043 7.31628 87.9171C7.06687 87.1445 6.8341 86.4157 6.61975 85.7374ZM6.61976 152.547C5.14492 149.965 2.80475 143.363 3.32943 135.075L6.88485 133.668L3.68402 131.785C3.76882 131.23 3.8673 130.669 3.98043 130.103C6.09189 119.541 3.53996 111.971 2.00006 109.507C6.13683 113.512 14.2783 123.818 13.7502 133.007C13.4581 138.09 15.6725 141.145 18.3696 142.883L17.1828 146.078L20.6414 144.024C22.1457 144.598 23.6302 144.851 24.7846 144.89C21.9677 152.943 14.5241 158.805 6.61976 152.547Z" fill="#CFCFCF"/>
<path d="M37.6467 84.8184C43.0671 97.9654 47.9836 118.466 43.3329 141.745C43.1 142.91 41.7407 142.653 41.853 141.469C43.7686 121.29 43.5633 100.756 35.1383 85.4786C31.3129 78.542 25.2365 55.641 18.8994 35.9694C14.8362 23.3568 16.7768 11.5979 18.795 4.59368C19.2686 2.9501 21.4398 2.8402 22.186 4.37929L25.8368 11.909C26.2524 12.7662 26.0021 13.8383 25.5213 14.6607C24.3202 16.715 22.963 21.1498 23.1237 29.1041C23.3878 42.1745 28.9991 63.8441 37.6467 84.8184Z" fill="#4F4F4F"/>
<path d="M24.4134 17.278C24.4109 17.2784 24.4085 17.2789 24.4061 17.2794C23.8817 17.3842 23.343 17.5837 22.8057 17.7827C21.5968 18.2304 20.3945 18.6756 19.3763 18.0347C18.3507 17.3892 18.2342 16.0975 18.1175 14.8027C18.0672 14.2455 18.0169 13.6877 17.8941 13.1806C17.8011 12.7968 17.678 12.4154 17.5554 12.0354C17.4655 11.757 17.3759 11.4793 17.2986 11.202C16.1672 17.9856 15.9292 26.7494 18.8994 35.9693C20.9586 42.3615 22.9903 49.0947 24.9261 55.5103C28.9478 68.8384 32.5559 80.7959 35.1383 85.4785C44.24 101.983 43.7485 124.622 41.3535 146.322C41.2831 146.961 42.0986 147.123 42.2563 146.5C48.6457 121.27 43.4333 98.8537 37.6467 84.8184C28.9991 63.844 23.3878 42.1745 23.1237 29.1041C23.0127 23.6058 23.6268 19.7892 24.4134 17.278Z" fill="white"/>
<path d="M22.4643 162.845L26.6452 157.163C27.1721 156.447 28.1908 156.317 28.8809 156.878C29.9629 157.757 29.4503 159.736 28.2164 160.385C26.6978 161.183 25.6029 162.216 25.1048 162.845C26.161 162.845 27.6132 166.674 27.6132 167.73C27.6132 168.786 28.2733 170.634 29.5935 172.483C30.9138 174.331 28.4054 174.199 25.1048 174.463C21.8041 174.727 19.2957 173.407 20.4839 172.483C21.6721 171.559 26.557 172.747 26.557 169.71C26.557 167.281 23.8285 164.121 22.4643 162.845Z" fill="#7C7C7C"/>
<path d="M25.3396 128.471C26.5656 128.974 26.6783 130.667 25.53 131.329L17.5347 135.937L24.7047 147.92L23.3882 150.303C23.391 151.45 22.2749 152.268 21.1814 151.919C20.3413 151.652 19.8474 150.784 20.0463 149.925L22.4603 147.925C21.7937 145.286 16.4867 139.565 14.2341 135.945C13.0428 134.032 14.8211 133.562 16.555 133.104C17.329 132.899 18.0941 132.697 18.5822 132.37C19.6662 131.644 22.1816 129.829 23.7918 128.657C24.2407 128.33 24.8261 128.26 25.3396 128.471V128.471Z" fill="#7C7C7C"/>
<defs>
<filter id="filter0_f" x="1.39222" y="165.672" width="94.7834" height="17.1001" filterUnits="userSpaceOnUse" color-interpolation-filters="sRGB">
<feFlood flood-opacity="0" result="BackgroundImageFix"/>
<feBlend mode="normal" in="SourceGraphic" in2="BackgroundImageFix" result="shape"/>
<feGaussianBlur stdDeviation="1.46572" result="effect1_foregroundBlur"/>
</filter>
<radialGradient id="paint0_radial" cx="0" cy="0" r="1" gradientUnits="userSpaceOnUse" gradientTransform="translate(25.3061 86.0105) rotate(129.203) scale(12.784 10.2272)">
<stop stop-color="white"/>
<stop offset="1" stop-color="#E7E7E7"/>
</radialGradient>
<radialGradient id="paint1_radial" cx="0" cy="0" r="1" gradientUnits="userSpaceOnUse" gradientTransform="translate(49.5986 80.4655) rotate(129.203) scale(12.784 10.2272)">
<stop stop-color="white"/>
<stop offset="1" stop-color="#E7E7E7"/>
</radialGradient>
</defs>
</svg>
