<svg width="82" height="139" viewBox="0 0 82 139" fill="none" xmlns="http://www.w3.org/2000/svg">
<g filter="url(#filter0_f)">
<ellipse cx="40.9734" cy="128.732" rx="37.3381" ry="6.26844" fill="#434343" fill-opacity="0.2"/>
</g>
<mask id="path-2-outside-1" maskUnits="userSpaceOnUse" x="0" y="0" width="67" height="130" fill="black">
<rect fill="white" width="67" height="130"/>
<path fill-rule="evenodd" clip-rule="evenodd" d="M14.5669 53.0476C16.4115 32.883 7.12028 13.9147 2 6.67439C8.34548 5.06287 10.7712 3.23312 11.1908 2.51964C17.0327 1.00882 49.0452 3.14914 64.3212 4.40816C64.9534 17.3299 65.8239 44.4057 64.5781 55.0078L64.8248 54.8946V70.8841L61.8032 73.1503L54.5009 72.6507C52.4162 72.5081 50.4973 72.846 48.8353 73.5449C47.4867 74.5119 46.5533 75.7413 45.9521 77.1312C46.5652 77.4781 47.3492 77.729 48.345 77.8189C52.1271 78.1603 53.8625 77.5292 54.31 77.1365C52.8132 78.5482 49.5177 80.2682 45.2291 79.6693C44.8622 81.965 45.127 84.4873 45.7494 86.8999C46.3177 86.4885 47.0289 86.2441 47.8007 86.2441C49.663 86.2441 51.1728 87.6676 51.1728 89.4237C52.5776 90.0513 53.9779 91.7445 54.8615 93.0456C55.8384 93.0976 56.6304 93.8455 56.7511 94.8026C57.6741 95.4184 58.6324 99.8032 59.1 102.492L59.1162 102.482C59.4659 102.275 59.9171 102.391 60.124 102.741L61.0323 104.276C61.643 105.308 61.3013 106.64 60.2693 107.25C59.2371 107.861 57.9053 107.519 57.2946 106.487L56.7701 105.601C56.4172 105.004 56.528 104.262 56.9951 103.793C56.717 103.451 56.2788 103.11 55.8904 102.808L55.8893 102.807C55.5925 102.576 55.325 102.368 55.1808 102.201C53.683 100.131 53.0496 98.4179 52.8524 97.1534C50.828 96.1033 49.2962 94.5832 48.4094 93.4625C48.4255 93.4906 48.4415 93.5185 48.4576 93.5464C51.0727 98.074 49.8028 104.738 48.8384 107.513L53.2419 116.964C52.5745 118.264 51.2426 121.216 50.4718 124.034C50.9674 124.071 51.4576 124.166 51.9331 124.315L55.9889 125.587C56.7272 125.819 57.0829 126.656 56.7368 127.349C56.5239 127.774 56.0887 128.043 55.6126 128.043C52.1807 128.659 50.3187 128.8 47.3155 128.043C46.6252 128.043 46.0655 127.484 46.0655 126.793C46.0655 126.541 46.1416 126.295 46.2839 126.087L47.7022 124.015H47.7371C48.2677 121.222 49.1839 117.461 50.0944 116.964C49.1926 116.308 46.9539 114.219 45.0671 111.026C43.2498 113.593 40.6469 115.201 37.756 115.201C35.0442 115.201 32.5859 113.787 30.7917 111.492C28.9691 114.423 26.9043 116.341 26.0472 116.964C26.9576 117.461 27.8739 121.222 28.4044 124.015H28.4393L29.8577 126.087C29.9999 126.295 30.076 126.541 30.076 126.793C30.076 127.484 29.5164 128.043 28.826 128.043C25.4053 128.542 23.6105 128.477 20.5289 128.043C20.0528 128.043 19.6176 127.774 19.4048 127.349C19.0587 126.656 19.4144 125.819 20.1527 125.587L24.2084 124.315C24.6839 124.166 25.1741 124.071 25.6697 124.034C24.8989 121.216 23.567 118.264 22.8996 116.964L28.0616 105.885L28.2962 106.251C27.9805 104.986 27.8098 103.636 27.8098 102.234C27.8098 98.901 28.774 95.862 30.3584 93.5651L30.3278 93.5464C30.7058 93.0425 31.1949 92.249 31.6916 91.2189C31.4951 91.2591 31.2916 91.2802 31.0832 91.2802C31.0609 91.2802 31.0386 91.2799 31.0163 91.2794C30.9894 91.2788 30.9626 91.2778 30.9359 91.2766L30.8938 91.2743L30.8448 91.2709C30.791 91.2668 30.7375 91.2611 30.6844 91.2541C30.6291 91.2468 30.5741 91.238 30.5196 91.2277C30.455 91.2155 30.391 91.2012 30.3278 91.185C27.4516 91.644 22.9339 92.1773 20.7593 91.9041C19.9199 92.0738 18.1406 91.7083 17.7377 88.888C17.3391 86.0969 22.662 81.5958 25.4569 79.6319L25.4343 79.5962C25.344 79.4529 25.2873 79.2982 25.2624 79.141C22.3417 78.6385 20.2194 77.1596 19.1605 75.9635C19.5709 76.3948 21.2425 77.1792 25.04 77.1792C28.4495 77.1792 29.5762 75.0924 29.7868 73.6358C27.5547 71.9676 24.9144 70.9414 23.1514 70.5058L13.9606 69.8769V53.0061L14.5669 53.0476ZM23.781 85.6146C24.3998 83.4932 25.8393 81.7339 26.7214 80.8811C27.5413 81.2828 28.5441 81.2626 29.3729 80.74L29.8649 80.4296C30.439 80.0677 30.7821 79.4776 30.8509 78.8517C31.6627 78.6386 32.5054 78.346 33.3761 77.9608C33.744 78.8377 33.962 79.7935 33.979 80.8303C34.0114 82.8101 33.7745 84.66 33.3964 86.3144C32.8422 85.6555 32.0116 85.2369 31.0832 85.2369C29.8638 85.2369 28.8131 85.9593 28.3357 86.9995C26.8196 87.268 23.7368 88.0893 21.4294 89.4891C21.9581 89.1524 23.0967 87.9606 23.781 85.6146ZM39.3845 106.873C39.8093 106.915 40.225 106.895 40.6217 106.822C41.0409 106.281 41.3153 105.629 41.3867 104.911C41.5998 102.766 39.9217 100.843 37.6382 100.616C37.2134 100.574 36.7977 100.593 36.401 100.667C35.9818 101.208 35.7074 101.86 35.636 102.578C35.4229 104.723 37.1011 106.646 39.3845 106.873Z"/>
</mask>
<path fill-rule="evenodd" clip-rule="evenodd" d="M14.5669 53.0476C16.4115 32.883 7.12028 13.9147 2 6.67439C8.34548 5.06287 10.7712 3.23312 11.1908 2.51964C17.0327 1.00882 49.0452 3.14914 64.3212 4.40816C64.9534 17.3299 65.8239 44.4057 64.5781 55.0078L64.8248 54.8946V70.8841L61.8032 73.1503L54.5009 72.6507C52.4162 72.5081 50.4973 72.846 48.8353 73.5449C47.4867 74.5119 46.5533 75.7413 45.9521 77.1312C46.5652 77.4781 47.3492 77.729 48.345 77.8189C52.1271 78.1603 53.8625 77.5292 54.31 77.1365C52.8132 78.5482 49.5177 80.2682 45.2291 79.6693C44.8622 81.965 45.127 84.4873 45.7494 86.8999C46.3177 86.4885 47.0289 86.2441 47.8007 86.2441C49.663 86.2441 51.1728 87.6676 51.1728 89.4237C52.5776 90.0513 53.9779 91.7445 54.8615 93.0456C55.8384 93.0976 56.6304 93.8455 56.7511 94.8026C57.6741 95.4184 58.6324 99.8032 59.1 102.492L59.1162 102.482C59.4659 102.275 59.9171 102.391 60.124 102.741L61.0323 104.276C61.643 105.308 61.3013 106.64 60.2693 107.25C59.2371 107.861 57.9053 107.519 57.2946 106.487L56.7701 105.601C56.4172 105.004 56.528 104.262 56.9951 103.793C56.717 103.451 56.2788 103.11 55.8904 102.808L55.8893 102.807C55.5925 102.576 55.325 102.368 55.1808 102.201C53.683 100.131 53.0496 98.4179 52.8524 97.1534C50.828 96.1033 49.2962 94.5832 48.4094 93.4625C48.4255 93.4906 48.4415 93.5185 48.4576 93.5464C51.0727 98.074 49.8028 104.738 48.8384 107.513L53.2419 116.964C52.5745 118.264 51.2426 121.216 50.4718 124.034C50.9674 124.071 51.4576 124.166 51.9331 124.315L55.9889 125.587C56.7272 125.819 57.0829 126.656 56.7368 127.349C56.5239 127.774 56.0887 128.043 55.6126 128.043C52.1807 128.659 50.3187 128.8 47.3155 128.043C46.6252 128.043 46.0655 127.484 46.0655 126.793C46.0655 126.541 46.1416 126.295 46.2839 126.087L47.7022 124.015H47.7371C48.2677 121.222 49.1839 117.461 50.0944 116.964C49.1926 116.308 46.9539 114.219 45.0671 111.026C43.2498 113.593 40.6469 115.201 37.756 115.201C35.0442 115.201 32.5859 113.787 30.7917 111.492C28.9691 114.423 26.9043 116.341 26.0472 116.964C26.9576 117.461 27.8739 121.222 28.4044 124.015H28.4393L29.8577 126.087C29.9999 126.295 30.076 126.541 30.076 126.793C30.076 127.484 29.5164 128.043 28.826 128.043C25.4053 128.542 23.6105 128.477 20.5289 128.043C20.0528 128.043 19.6176 127.774 19.4048 127.349C19.0587 126.656 19.4144 125.819 20.1527 125.587L24.2084 124.315C24.6839 124.166 25.1741 124.071 25.6697 124.034C24.8989 121.216 23.567 118.264 22.8996 116.964L28.0616 105.885L28.2962 106.251C27.9805 104.986 27.8098 103.636 27.8098 102.234C27.8098 98.901 28.774 95.862 30.3584 93.5651L30.3278 93.5464C30.7058 93.0425 31.1949 92.249 31.6916 91.2189C31.4951 91.2591 31.2916 91.2802 31.0832 91.2802C31.0609 91.2802 31.0386 91.2799 31.0163 91.2794C30.9894 91.2788 30.9626 91.2778 30.9359 91.2766L30.8938 91.2743L30.8448 91.2709C30.791 91.2668 30.7375 91.2611 30.6844 91.2541C30.6291 91.2468 30.5741 91.238 30.5196 91.2277C30.455 91.2155 30.391 91.2012 30.3278 91.185C27.4516 91.644 22.9339 92.1773 20.7593 91.9041C19.9199 92.0738 18.1406 91.7083 17.7377 88.888C17.3391 86.0969 22.662 81.5958 25.4569 79.6319L25.4343 79.5962C25.344 79.4529 25.2873 79.2982 25.2624 79.141C22.3417 78.6385 20.2194 77.1596 19.1605 75.9635C19.5709 76.3948 21.2425 77.1792 25.04 77.1792C28.4495 77.1792 29.5762 75.0924 29.7868 73.6358C27.5547 71.9676 24.9144 70.9414 23.1514 70.5058L13.9606 69.8769V53.0061L14.5669 53.0476ZM23.781 85.6146C24.3998 83.4932 25.8393 81.7339 26.7214 80.8811C27.5413 81.2828 28.5441 81.2626 29.3729 80.74L29.8649 80.4296C30.439 80.0677 30.7821 79.4776 30.8509 78.8517C31.6627 78.6386 32.5054 78.346 33.3761 77.9608C33.744 78.8377 33.962 79.7935 33.979 80.8303C34.0114 82.8101 33.7745 84.66 33.3964 86.3144C32.8422 85.6555 32.0116 85.2369 31.0832 85.2369C29.8638 85.2369 28.8131 85.9593 28.3357 86.9995C26.8196 87.268 23.7368 88.0893 21.4294 89.4891C21.9581 89.1524 23.0967 87.9606 23.781 85.6146ZM39.3845 106.873C39.8093 106.915 40.225 106.895 40.6217 106.822C41.0409 106.281 41.3153 105.629 41.3867 104.911C41.5998 102.766 39.9217 100.843 37.6382 100.616C37.2134 100.574 36.7977 100.593 36.401 100.667C35.9818 101.208 35.7074 101.86 35.636 102.578C35.4229 104.723 37.1011 106.646 39.3845 106.873Z" fill="#1D1D1D"/>
<path d="M18.7124 76.2791L18.7502 76.3224L19.5707 75.6045L19.5328 75.5612L18.7124 76.2791ZM53.9762 76.7017L53.9346 76.7413L54.6854 77.5317L54.727 77.4922L53.9762 76.7017ZM2 6.67439L1.73166 5.61776L0.19375 6.00833L1.10992 7.30384L2 6.67439ZM14.5669 53.0476L14.4926 54.1352L15.5555 54.2078L15.6525 53.1469L14.5669 53.0476ZM11.1908 2.51964L10.9178 1.4642L10.4803 1.57737L10.2511 1.96697L11.1908 2.51964ZM64.3212 4.40816L65.4101 4.35489L65.3634 3.40019L64.4108 3.32168L64.3212 4.40816ZM64.5781 55.0078L63.4953 54.8805L63.269 56.8071L65.0323 55.9988L64.5781 55.0078ZM64.8248 54.8946H65.915V53.1957L64.3705 53.9036L64.8248 54.8946ZM64.8248 70.8841L65.4789 71.7563L65.915 71.4292V70.8841H64.8248ZM61.8032 73.1503L61.7288 74.238L62.1331 74.2656L62.4573 74.0225L61.8032 73.1503ZM54.5009 72.6507L54.5753 71.5631L54.5753 71.5631L54.5009 72.6507ZM48.8353 73.5449L48.4128 72.54L48.2997 72.5875L48.2001 72.6589L48.8353 73.5449ZM45.9521 77.1312L44.9515 76.6985L44.5627 77.5977L45.4153 78.0801L45.9521 77.1312ZM48.345 77.8189L48.443 76.7332L48.443 76.7332L48.345 77.8189ZM54.31 77.1365L55.058 77.9296L53.5908 76.3172L54.31 77.1365ZM45.2291 79.6693L45.3798 78.5896L44.3212 78.4418L44.1526 79.4973L45.2291 79.6693ZM45.7494 86.8999L44.6938 87.1722L45.0933 88.7208L46.3887 87.783L45.7494 86.8999ZM51.1728 89.4237H50.0826V90.1307L50.7281 90.4191L51.1728 89.4237ZM54.8615 93.0456L53.9597 93.6581L54.2635 94.1055L54.8036 94.1342L54.8615 93.0456ZM56.7511 94.8026L55.6696 94.939L55.7319 95.433L56.1461 95.7094L56.7511 94.8026ZM59.1 102.492L58.026 102.679L58.2963 104.233L59.6546 103.43L59.1 102.492ZM59.1162 102.482L59.6708 103.421L59.6714 103.421L59.1162 102.482ZM60.124 102.741L59.1858 103.296L59.1858 103.296L60.124 102.741ZM61.0323 104.276L60.0941 104.831L60.0941 104.831L61.0323 104.276ZM60.2693 107.25L60.8244 108.189L60.8244 108.189L60.2693 107.25ZM57.2946 106.487L56.3563 107.042L56.3563 107.042L57.2946 106.487ZM56.7701 105.601L57.7083 105.046L57.7083 105.046L56.7701 105.601ZM56.9951 103.793L57.7679 104.562L58.4607 103.865L57.8401 103.104L56.9951 103.793ZM55.8904 102.808L55.1195 103.579L55.1676 103.627L55.2212 103.669L55.8904 102.808ZM55.8893 102.807L56.6601 102.036L56.6122 101.988L56.5587 101.947L55.8893 102.807ZM55.1808 102.201L54.2976 102.84L54.3243 102.876L54.354 102.911L55.1808 102.201ZM52.8524 97.1534L53.9295 96.9854L53.8445 96.4399L53.3544 96.1857L52.8524 97.1534ZM48.4094 93.4625L49.2644 92.7861L47.4642 94.0056L48.4094 93.4625ZM48.4576 93.5464L47.5134 94.0913L47.5136 94.0916L48.4576 93.5464ZM48.8384 107.513L47.8087 107.155L47.6635 107.572L47.8502 107.973L48.8384 107.513ZM53.2419 116.964L54.2117 117.462L54.4554 116.987L54.2301 116.504L53.2419 116.964ZM50.4718 124.034L49.4203 123.746L49.0718 125.02L50.3888 125.121L50.4718 124.034ZM51.9331 124.315L52.2594 123.275L52.2594 123.275L51.9331 124.315ZM55.9889 125.587L56.3152 124.547L56.3152 124.547L55.9889 125.587ZM56.7368 127.349L55.7617 126.861L55.7616 126.861L56.7368 127.349ZM55.6126 128.043V126.953H55.5157L55.4203 126.97L55.6126 128.043ZM47.3155 128.043L47.5818 126.986L47.4507 126.953H47.3155V128.043ZM46.2839 126.087L45.3842 125.472L45.3841 125.472L46.2839 126.087ZM47.7022 124.015V122.924H47.1272L46.8025 123.399L47.7022 124.015ZM47.7371 124.015V125.105H48.6397L48.8081 124.218L47.7371 124.015ZM50.0944 116.964L50.6164 117.921L52.1293 117.096L50.7355 116.082L50.0944 116.964ZM45.0671 111.026L46.0057 110.471L45.1497 109.022L44.1773 110.396L45.0671 111.026ZM30.7917 111.492L31.6505 110.821L30.6897 109.592L29.866 110.916L30.7917 111.492ZM26.0472 116.964L25.406 116.082L24.0122 117.096L25.5252 117.921L26.0472 116.964ZM28.4044 124.015L27.3334 124.218L27.5018 125.105H28.4044V124.015ZM28.4393 124.015L29.339 123.399L29.0143 122.924H28.4393V124.015ZM29.8577 126.087L30.7574 125.472L30.7574 125.472L29.8577 126.087ZM28.826 128.043V126.953H28.7469L28.6687 126.965L28.826 128.043ZM20.5289 128.043L20.6807 126.964L20.6052 126.953H20.5289V128.043ZM19.4048 127.349L20.3799 126.861L20.3798 126.861L19.4048 127.349ZM20.1527 125.587L19.8263 124.547L19.8263 124.547L20.1527 125.587ZM24.2084 124.315L23.8822 123.275L23.8821 123.275L24.2084 124.315ZM25.6697 124.034L25.7528 125.121L27.0697 125.02L26.7213 123.746L25.6697 124.034ZM22.8996 116.964L21.9115 116.504L21.6861 116.987L21.9299 117.462L22.8996 116.964ZM28.0616 105.885L28.9794 105.296L27.9102 103.628L27.0734 105.424L28.0616 105.885ZM28.2962 106.251L27.3784 106.839L29.3539 105.987L28.2962 106.251ZM30.3584 93.5651L31.2558 94.1841L31.9104 93.2352L30.9265 92.6346L30.3584 93.5651ZM30.3278 93.5464L29.4557 92.8922L28.7359 93.8518L29.7598 94.4769L30.3278 93.5464ZM31.6916 91.2189L32.6736 91.6924L33.6297 89.7096L31.473 90.1509L31.6916 91.2189ZM31.0163 91.2794L30.9915 92.3693L30.9923 92.3693L31.0163 91.2794ZM30.9359 91.2766L30.8756 92.3651L30.8858 92.3656L30.9359 91.2766ZM30.8938 91.2743L30.82 92.362L30.8335 92.3627L30.8938 91.2743ZM30.8448 91.2709L30.7605 92.3579L30.771 92.3586L30.8448 91.2709ZM30.6844 91.2541L30.827 90.1733L30.8261 90.1732L30.6844 91.2541ZM30.5196 91.2277L30.7227 90.1566L30.7213 90.1563L30.5196 91.2277ZM30.3278 91.185L30.599 90.1291L30.3797 90.0728L30.156 90.1084L30.3278 91.185ZM20.7593 91.9041L20.8952 90.8225L20.7182 90.8002L20.5433 90.8356L20.7593 91.9041ZM17.7377 88.888L16.6585 89.0422L16.6585 89.0422L17.7377 88.888ZM25.4569 79.6319L26.0837 80.5239L26.9332 79.9269L26.3783 79.0493L25.4569 79.6319ZM25.4343 79.5962L24.5119 80.1773L24.5128 80.1788L25.4343 79.5962ZM25.2624 79.141L26.3391 78.9701L26.2167 78.199L25.4472 78.0666L25.2624 79.141ZM19.1605 75.9635L19.9502 75.212L18.3442 76.6861L19.1605 75.9635ZM29.7868 73.6358L30.8658 73.7918L30.9585 73.1504L30.4395 72.7625L29.7868 73.6358ZM23.1514 70.5058L23.4129 69.4475L23.3207 69.4247L23.2259 69.4182L23.1514 70.5058ZM13.9606 69.8769H12.8705V70.895L13.8862 70.9645L13.9606 69.8769ZM13.9606 53.0061L14.035 51.9185L12.8705 51.8389V53.0061H13.9606ZM26.7214 80.8811L27.2011 79.9021L26.5139 79.5655L25.9637 80.0973L26.7214 80.8811ZM23.781 85.6146L22.7344 85.3093L22.7344 85.3094L23.781 85.6146ZM29.3729 80.74L29.9544 81.6621L29.9544 81.6621L29.3729 80.74ZM29.8649 80.4296L29.2835 79.5075L29.2834 79.5075L29.8649 80.4296ZM30.8509 78.8517L30.5741 77.7972L29.849 77.9875L29.7672 78.7327L30.8509 78.8517ZM33.3761 77.9608L34.3814 77.5391L33.9515 76.5142L32.9351 76.9638L33.3761 77.9608ZM33.979 80.8303L32.8889 80.8482L32.8889 80.8482L33.979 80.8303ZM33.3964 86.3144L32.5622 87.0162L33.9715 88.6915L34.4592 86.5573L33.3964 86.3144ZM28.3357 86.9995L28.5258 88.073L29.0882 87.9734L29.3264 87.4543L28.3357 86.9995ZM21.4294 89.4891L20.8437 88.5697L21.9948 90.4212L21.4294 89.4891ZM40.6217 106.822L40.8201 107.894L41.229 107.818L41.4837 107.49L40.6217 106.822ZM39.3845 106.873L39.2767 107.958L39.2768 107.958L39.3845 106.873ZM41.3867 104.911L42.4716 105.018L42.4716 105.018L41.3867 104.911ZM37.6382 100.616L37.7461 99.5311L37.7459 99.5311L37.6382 100.616ZM36.401 100.667L36.2027 99.5946L35.7937 99.6703L35.539 99.9991L36.401 100.667ZM35.636 102.578L34.5512 102.47L34.5511 102.47L35.636 102.578ZM1.10992 7.30384C6.13904 14.4153 15.2944 33.128 13.4813 52.9482L15.6525 53.1469C17.5287 32.638 8.10152 13.4141 2.89008 6.04493L1.10992 7.30384ZM10.2511 1.96697C10.2579 1.95539 10.2373 1.99185 10.1566 2.07437C10.08 2.15256 9.96583 2.25548 9.80471 2.37961C9.48217 2.6281 8.99969 2.94012 8.31833 3.29113C6.95636 3.99278 4.84485 4.82713 1.73166 5.61776L2.26834 7.73101C5.50063 6.91013 7.77471 6.02384 9.31686 5.22937C10.0876 4.83232 10.6868 4.4524 11.1354 4.10679C11.5628 3.77748 11.9213 3.42802 12.1305 3.07231L10.2511 1.96697ZM64.4108 3.32168C56.7643 2.69148 44.9289 1.84064 34.2697 1.33627C28.9412 1.08413 23.896 0.918047 19.8109 0.910132C15.7839 0.90233 12.5393 1.04485 10.9178 1.4642L11.4638 3.57508C12.7632 3.23901 15.7109 3.08252 19.8067 3.09046C23.8443 3.09828 28.8523 3.26269 34.1667 3.51416C44.7932 4.01699 56.6021 4.86583 64.2317 5.49464L64.4108 3.32168ZM65.6608 55.135C66.9195 44.4233 66.0408 17.2455 65.4101 4.35489L63.2324 4.46143C63.8661 17.4143 64.7283 44.3882 63.4953 54.8805L65.6608 55.135ZM64.3705 53.9036L64.1238 54.0167L65.0323 55.9988L65.2791 55.8856L64.3705 53.9036ZM65.915 70.8841V54.8946H63.7347V70.8841H65.915ZM62.4573 74.0225L65.4789 71.7563L64.1707 70.012L61.1491 72.2782L62.4573 74.0225ZM54.4265 73.7383L61.7288 74.238L61.8776 72.0627L54.5753 71.5631L54.4265 73.7383ZM49.2579 74.5498C50.7577 73.9192 52.5059 73.6069 54.4265 73.7383L54.5753 71.5631C52.3264 71.4092 50.2368 71.7729 48.4128 72.54L49.2579 74.5498ZM46.9527 77.564C47.4804 76.3438 48.2926 75.2755 49.4706 74.4309L48.2001 72.6589C46.6808 73.7483 45.6261 75.1388 44.9515 76.6985L46.9527 77.564ZM48.443 76.7332C47.5783 76.6551 46.9482 76.4422 46.489 76.1824L45.4153 78.0801C46.1822 78.5139 47.1202 78.8029 48.247 78.9047L48.443 76.7332ZM53.5908 76.3172C53.5956 76.313 53.2921 76.5253 52.3947 76.6784C51.5452 76.8233 50.2631 76.8975 48.443 76.7332L48.247 78.9047C50.209 79.0818 51.6856 79.0111 52.7613 78.8277C53.789 78.6524 54.5769 78.3528 55.0291 77.9559L53.5908 76.3172ZM45.0783 80.749C49.7292 81.3985 53.3473 79.543 55.058 77.9296L53.562 76.3435C52.279 77.5535 49.3062 79.1379 45.3798 78.5896L45.0783 80.749ZM46.805 86.6276C46.2067 84.3083 45.9695 81.9441 46.3056 79.8413L44.1526 79.4973C43.7549 81.9859 44.0473 84.6662 44.6938 87.1722L46.805 86.6276ZM47.8007 85.1539C46.7967 85.1539 45.8622 85.4724 45.1101 86.0169L46.3887 87.783C46.7731 87.5047 47.2611 87.3343 47.8007 87.3343V85.1539ZM52.2629 89.4237C52.2629 87.0061 50.2039 85.1539 47.8007 85.1539V87.3343C49.1222 87.3343 50.0826 88.3292 50.0826 89.4237H52.2629ZM55.7633 92.4331C55.2978 91.7477 54.6893 90.9481 54 90.2282C53.3227 89.5207 52.5065 88.8255 51.6174 88.4284L50.7281 90.4191C51.2438 90.6495 51.8302 91.1147 52.4252 91.736C53.0081 92.3449 53.5416 93.0425 53.9597 93.6581L55.7633 92.4331ZM57.8327 94.6661C57.6465 93.1898 56.4268 92.0372 54.9195 91.957L54.8036 94.1342C55.2499 94.158 55.6143 94.5013 55.6696 94.939L57.8327 94.6661ZM60.174 102.305C59.9371 100.943 59.5738 99.1372 59.1478 97.5819C58.9356 96.8072 58.7001 96.0658 58.4467 95.4632C58.3202 95.1623 58.1793 94.8719 58.0215 94.6203C57.8744 94.3858 57.6601 94.0985 57.3562 93.8957L56.1461 95.7094C56.073 95.6606 56.0905 95.6451 56.1743 95.7787C56.2474 95.8953 56.3364 96.0695 56.4369 96.3083C56.6373 96.7851 56.8437 97.4234 57.0449 98.1579C57.4457 99.6212 57.7953 101.352 58.026 102.679L60.174 102.305ZM58.5616 101.544L58.5454 101.553L59.6546 103.43L59.6708 103.421L58.5616 101.544ZM61.0623 102.186C60.5488 101.318 59.4288 101.031 58.561 101.544L59.6714 103.421C59.5029 103.52 59.2855 103.464 59.1858 103.296L61.0623 102.186ZM61.9705 103.721L61.0623 102.186L59.1858 103.296L60.0941 104.831L61.9705 103.721ZM60.8244 108.189C62.3746 107.271 62.8878 105.271 61.9705 103.721L60.0941 104.831C60.3981 105.345 60.228 106.008 59.7141 106.312L60.8244 108.189ZM56.3563 107.042C57.2737 108.593 59.2741 109.106 60.8244 108.189L59.7141 106.312C59.2001 106.616 58.5369 106.446 58.2328 105.932L56.3563 107.042ZM55.8318 106.156L56.3563 107.042L58.2329 105.932L57.7083 105.046L55.8318 106.156ZM56.2223 103.024C55.4134 103.837 55.2199 105.122 55.8319 106.156L57.7083 105.046C57.6146 104.887 57.6425 104.687 57.7679 104.562L56.2223 103.024ZM55.2212 103.669C55.6398 103.994 55.9664 104.256 56.1501 104.481L57.8401 103.104C57.4675 102.647 56.9178 102.226 56.5595 101.948L55.2212 103.669ZM55.1184 103.578L55.1195 103.579L56.6612 102.038L56.6601 102.036L55.1184 103.578ZM54.354 102.911C54.5875 103.183 54.9656 103.47 55.2199 103.668L56.5587 101.947C56.2194 101.683 56.0626 101.554 56.0076 101.49L54.354 102.911ZM51.7752 97.3214C52.0039 98.7876 52.7194 100.659 54.2976 102.84L56.064 101.561C54.6466 99.6028 54.0953 98.0483 53.9295 96.9854L51.7752 97.3214ZM47.5545 94.139C48.5102 95.3469 50.1554 96.9825 52.3504 98.1211L53.3544 96.1857C51.5006 95.224 50.0821 93.8196 49.2644 92.7861L47.5545 94.139ZM49.4018 93.0015C49.3864 92.9747 49.3718 92.9493 49.3547 92.9194L47.4642 94.0056C47.4793 94.0319 47.4966 94.0622 47.5134 94.0913L49.4018 93.0015ZM49.8682 107.871C50.3824 106.391 50.9634 103.927 51.0795 101.234C51.195 98.5536 50.8555 95.5183 49.4017 93.0011L47.5136 94.0916C48.6748 96.1021 49.0079 98.6624 48.9012 101.14C48.795 103.604 48.2588 105.859 47.8087 107.155L49.8682 107.871ZM54.2301 116.504L49.8266 107.052L47.8502 107.973L52.2537 117.424L54.2301 116.504ZM51.5233 124.321C52.2679 121.599 53.5658 118.72 54.2117 117.462L52.2721 116.466C51.5832 117.808 50.2172 120.832 49.4203 123.746L51.5233 124.321ZM52.2594 123.275C51.7049 123.101 51.1331 122.991 50.5549 122.947L50.3888 125.121C50.8017 125.152 51.2103 125.231 51.6068 125.355L52.2594 123.275ZM56.3152 124.547L52.2594 123.275L51.6067 125.355L55.6625 126.627L56.3152 124.547ZM57.7118 127.836C58.3582 126.544 57.6939 124.98 56.3152 124.547L55.6625 126.627C55.7605 126.658 55.8075 126.769 55.7617 126.861L57.7118 127.836ZM55.6126 129.134C56.5016 129.134 57.3144 128.631 57.7119 127.836L55.7616 126.861C55.7335 126.917 55.6758 126.953 55.6126 126.953V129.134ZM47.0493 129.101C50.2646 129.91 52.2999 129.745 55.805 129.116L55.4203 126.97C52.0615 127.572 50.3729 127.689 47.5818 126.986L47.0493 129.101ZM44.9753 126.793C44.9753 128.086 46.0231 129.134 47.3155 129.134V126.953C47.2273 126.953 47.1557 126.882 47.1557 126.793H44.9753ZM45.3841 125.472C45.1178 125.861 44.9753 126.322 44.9753 126.793H47.1557C47.1557 126.761 47.1654 126.73 47.1836 126.703L45.3841 125.472ZM46.8025 123.399L45.3842 125.472L47.1836 126.703L48.6019 124.63L46.8025 123.399ZM47.7371 122.924H47.7022V125.105H47.7371V122.924ZM49.5723 116.007C49.2559 116.18 49.0284 116.438 48.8715 116.654C48.7057 116.882 48.5605 117.145 48.4325 117.413C48.1764 117.951 47.9415 118.614 47.7299 119.312C47.3047 120.717 46.9347 122.398 46.6661 123.811L48.8081 124.218C49.0701 122.839 49.4235 121.243 49.8167 119.944C50.0142 119.292 50.2123 118.747 50.4006 118.352C50.4948 118.154 50.5748 118.019 50.6354 117.936C50.7049 117.84 50.7052 117.873 50.6164 117.921L49.5723 116.007ZM44.1286 111.58C46.0895 114.899 48.4284 117.101 49.4532 117.846L50.7355 116.082C49.9568 115.516 47.8184 113.539 46.0057 110.471L44.1286 111.58ZM37.756 116.292C41.0795 116.292 43.9855 114.441 45.957 111.656L44.1773 110.396C42.5141 112.746 40.2144 114.111 37.756 114.111V116.292ZM29.9329 112.164C31.8874 114.663 34.6401 116.292 37.756 116.292V114.111C35.4483 114.111 33.2844 112.91 31.6505 110.821L29.9329 112.164ZM26.6883 117.846C27.6647 117.136 29.8243 115.112 31.7175 112.068L29.866 110.916C28.1139 113.734 26.1439 115.546 25.406 116.082L26.6883 117.846ZM29.4754 123.811C29.2068 122.398 28.8368 120.717 28.4116 119.312C28.2 118.614 27.9651 117.951 27.709 117.413C27.581 117.145 27.4359 116.882 27.2701 116.654C27.1132 116.438 26.8856 116.18 26.5692 116.007L25.5252 117.921C25.4363 117.873 25.4366 117.84 25.5061 117.936C25.5668 118.019 25.6467 118.154 25.7409 118.352C25.9293 118.747 26.1273 119.292 26.3249 119.944C26.7181 121.243 27.0714 122.839 27.3334 124.218L29.4754 123.811ZM28.4393 122.924H28.4044V125.105H28.4393V122.924ZM30.7574 125.472L29.339 123.399L27.5396 124.63L28.9579 126.703L30.7574 125.472ZM31.1662 126.793C31.1662 126.322 31.0237 125.861 30.7574 125.472L28.9579 126.703C28.9761 126.73 28.9859 126.761 28.9859 126.793H31.1662ZM28.826 129.134C30.1184 129.134 31.1662 128.086 31.1662 126.793H28.9859C28.9859 126.882 28.9143 126.953 28.826 126.953V129.134ZM20.3771 129.123C23.5477 129.569 25.4474 129.638 28.9833 129.122L28.6687 126.965C25.3632 127.447 23.6734 127.385 20.6807 126.964L20.3771 129.123ZM18.4296 127.836C18.8271 128.631 19.6399 129.134 20.5289 129.134V126.953C20.4658 126.953 20.4081 126.917 20.3799 126.861L18.4296 127.836ZM19.8263 124.547C18.4476 124.98 17.7833 126.544 18.4297 127.836L20.3798 126.861C20.334 126.769 20.3811 126.658 20.479 126.627L19.8263 124.547ZM23.8821 123.275L19.8263 124.547L20.479 126.627L24.5348 125.355L23.8821 123.275ZM25.5867 122.947C25.0084 122.991 24.4366 123.101 23.8822 123.275L24.5347 125.355C24.9312 125.231 25.3398 125.152 25.7528 125.121L25.5867 122.947ZM21.9299 117.462C22.5757 118.72 23.8736 121.599 24.6182 124.321L26.7213 123.746C25.9243 120.832 24.5583 117.808 23.8694 116.466L21.9299 117.462ZM27.0734 105.424L21.9115 116.504L23.8878 117.424L29.0498 106.345L27.0734 105.424ZM29.214 105.662L28.9794 105.296L27.1438 106.473L27.3784 106.839L29.214 105.662ZM26.7196 102.234C26.7196 103.724 26.901 105.163 27.2385 106.515L29.3539 105.987C29.0599 104.809 28.9 103.547 28.9 102.234H26.7196ZM29.4611 92.9461C27.7422 95.4379 26.7196 98.696 26.7196 102.234H28.9C28.9 99.106 29.8058 96.2862 31.2558 94.1841L29.4611 92.9461ZM29.7598 94.4769L29.7904 94.4956L30.9265 92.6346L30.8958 92.6159L29.7598 94.4769ZM30.7096 90.7454C30.2364 91.7267 29.7824 92.4567 29.4557 92.8922L31.1999 94.2005C31.6291 93.6284 32.1533 92.7713 32.6736 91.6924L30.7096 90.7454ZM31.0832 92.3703C31.3651 92.3703 31.6418 92.3419 31.9101 92.287L31.473 90.1509C31.3484 90.1764 31.2182 90.19 31.0832 90.19V92.3703ZM30.9923 92.3693C31.0226 92.37 31.0528 92.3703 31.0832 92.3703V90.19C31.0689 90.19 31.0546 90.1898 31.0404 90.1895L30.9923 92.3693ZM30.8858 92.3656C30.9192 92.3671 30.9546 92.3685 30.9915 92.3693L31.0412 90.1895C31.0243 90.1891 31.006 90.1885 30.9861 90.1876L30.8858 92.3656ZM30.8335 92.3627L30.8756 92.3651L30.9962 90.1881L30.9541 90.1858L30.8335 92.3627ZM30.771 92.3586L30.82 92.3619L30.9676 90.1866L30.9186 90.1833L30.771 92.3586ZM30.5418 92.3349C30.6136 92.3444 30.6865 92.3521 30.7605 92.3578L30.9292 90.184C30.8955 90.1814 30.8614 90.1778 30.827 90.1733L30.5418 92.3349ZM30.3165 92.2987C30.3908 92.3128 30.4663 92.325 30.5427 92.335L30.8261 90.1732C30.7918 90.1687 30.7574 90.1631 30.7227 90.1566L30.3165 92.2987ZM30.0567 92.2409C30.1424 92.2629 30.2295 92.2824 30.318 92.299L30.7213 90.1563C30.6804 90.1486 30.6396 90.1395 30.599 90.1291L30.0567 92.2409ZM20.6234 92.9858C21.8371 93.1383 23.6127 93.0619 25.377 92.905C27.1682 92.7457 29.0423 92.4941 30.4996 92.2615L30.156 90.1084C28.7372 90.3349 26.9144 90.5794 25.1839 90.7332C23.4267 90.8895 21.8561 90.9432 20.8952 90.8225L20.6234 92.9858ZM16.6585 89.0422C16.8919 90.676 17.5564 91.7742 18.457 92.4086C19.33 93.0234 20.2972 93.1098 20.9753 92.9727L20.5433 90.8356C20.3821 90.8682 20.0399 90.8566 19.7126 90.626C19.413 90.415 18.9864 89.9203 18.8169 88.7338L16.6585 89.0422ZM24.8301 78.74C23.3928 79.7499 21.3029 81.4126 19.6086 83.1998C18.7628 84.0919 17.9841 85.0479 17.4379 85.9965C16.9063 86.9196 16.5076 87.9857 16.6585 89.0422L18.8169 88.7339C18.7685 88.3948 18.8856 87.8516 19.3274 87.0844C19.7544 86.3427 20.4063 85.5273 21.1909 84.6998C22.7571 83.0477 24.7261 81.4778 26.0837 80.5239L24.8301 78.74ZM24.5128 80.1788L24.5355 80.2146L26.3783 79.0493L26.3557 79.0135L24.5128 80.1788ZM24.1857 79.3119C24.2335 79.6131 24.342 79.9076 24.5119 80.1773L26.3566 79.015C26.346 78.9982 26.3412 78.9834 26.3391 78.9701L24.1857 79.3119ZM18.3442 76.6861C19.5604 78.0599 21.9021 79.669 25.0775 80.2154L25.4472 78.0666C22.7813 77.6079 20.8785 76.2594 19.9767 75.2408L18.3442 76.6861ZM25.04 76.089C23.2125 76.089 21.9422 75.8999 21.1092 75.6792C20.2292 75.4461 19.9459 75.2074 19.9502 75.212L18.3707 76.7149C18.7854 77.1508 19.5432 77.5199 20.5509 77.7869C21.6057 78.0663 23.07 78.2694 25.04 78.2694V76.089ZM28.7079 73.4797C28.6293 74.0235 28.3803 74.6666 27.8586 75.1667C27.3566 75.648 26.5068 76.089 25.04 76.089V78.2694C26.9827 78.2694 28.401 77.667 29.3674 76.7407C30.3141 75.8332 30.7338 74.7046 30.8658 73.7918L28.7079 73.4797ZM22.8899 71.5641C24.5429 71.9726 27.0422 72.9455 29.1342 74.509L30.4395 72.7625C28.0672 70.9896 25.2859 69.9103 23.4129 69.4475L22.8899 71.5641ZM13.8862 70.9645L23.077 71.5934L23.2259 69.4182L14.0351 68.7893L13.8862 70.9645ZM12.8705 53.0061V69.8769H15.0508V53.0061H12.8705ZM14.6412 51.9599L14.035 51.9185L13.8863 54.0937L14.4926 54.1352L14.6412 51.9599ZM25.9637 80.0973C25.005 81.0241 23.4255 82.9402 22.7344 85.3093L24.8275 85.9199C25.3741 84.0462 26.6736 82.4437 27.4791 81.6649L25.9637 80.0973ZM28.7914 79.8178C28.2956 80.1305 27.6955 80.1444 27.2011 79.9021L26.2418 81.8601C27.3871 82.4212 28.7925 82.3948 29.9544 81.6621L28.7914 79.8178ZM29.2834 79.5075L28.7913 79.8179L29.9544 81.6621L30.4465 81.3517L29.2834 79.5075ZM29.7672 78.7327C29.7332 79.0427 29.5645 79.3303 29.2835 79.5075L30.4464 81.3518C31.3134 80.8051 31.8311 79.9126 31.9345 78.9707L29.7672 78.7327ZM32.9351 76.9638C32.1157 77.3263 31.3279 77.5994 30.5741 77.7972L31.1276 79.9061C31.9975 79.6778 32.8951 79.3657 33.8172 78.9578L32.9351 76.9638ZM35.069 80.8125C35.0496 79.6302 34.8003 78.5376 34.3814 77.5391L32.3709 78.3825C32.6877 79.1377 32.8744 79.9568 32.8889 80.8482L35.069 80.8125ZM34.4592 86.5573C34.8544 84.8279 35.103 82.89 35.069 80.8125L32.8889 80.8482C32.9198 82.7301 32.6946 84.4921 32.3337 86.0716L34.4592 86.5573ZM31.0832 86.327C31.6764 86.327 32.2062 86.593 32.5622 87.0162L34.2307 85.6127C33.4781 84.718 32.3469 84.1467 31.0832 84.1467V86.327ZM29.3264 87.4543C29.6327 86.7869 30.3055 86.327 31.0832 86.327V84.1467C29.4221 84.1467 27.9934 85.1318 27.3449 86.5448L29.3264 87.4543ZM21.9948 90.4212C24.1416 89.1189 27.0776 88.3295 28.5258 88.073L28.1455 85.926C26.5615 86.2066 23.332 87.0598 20.864 88.5571L21.9948 90.4212ZM22.7344 85.3094C22.1057 87.4651 21.0992 88.4069 20.8437 88.5697L22.0151 90.4086C22.8169 89.8978 24.0878 88.4562 24.8275 85.9198L22.7344 85.3094ZM40.4234 105.75C40.127 105.805 39.8143 105.82 39.4922 105.788L39.2768 107.958C39.8042 108.01 40.323 107.986 40.8201 107.894L40.4234 105.75ZM40.3019 104.803C40.2517 105.308 40.0594 105.768 39.7598 106.155L41.4837 107.49C42.0224 106.794 42.3789 105.95 42.4716 105.018L40.3019 104.803ZM37.5304 101.701C39.2796 101.875 40.4492 103.32 40.3019 104.803L42.4716 105.018C42.7504 102.211 40.5637 99.8112 37.7461 99.5311L37.5304 101.701ZM36.5993 101.739C36.8957 101.684 37.2084 101.669 37.5305 101.701L37.7459 99.5311C37.2185 99.4787 36.6998 99.5026 36.2027 99.5946L36.5993 101.739ZM36.7208 102.686C36.771 102.181 36.9634 101.721 37.2629 101.334L35.539 99.9991C35.0003 100.695 34.6438 101.539 34.5512 102.47L36.7208 102.686ZM39.4923 105.788C37.7431 105.614 36.5735 104.169 36.7208 102.686L34.5511 102.47C34.2723 105.277 36.459 107.678 39.2767 107.958L39.4923 105.788Z" fill="#1D1D1D" mask="url(#path-2-outside-1)"/>
<path d="M34.1049 88.2585C34.1049 89.9273 32.7521 91.2801 31.0833 91.2801C30.8224 91.2801 30.5693 91.2471 30.3279 91.1849C29.0246 90.8495 28.0616 89.6664 28.0616 88.2585C28.0616 87.8091 28.1597 87.3827 28.3356 86.9995C28.8131 85.9592 29.8638 85.2368 31.0833 85.2368C32.7521 85.2368 34.1049 86.5897 34.1049 88.2585Z" fill="#45D7B0"/>
<path d="M28.0616 88.2585C28.0616 87.8091 28.1597 87.3827 28.3356 86.9995C26.8195 87.2679 23.7368 88.0892 21.4294 89.4891C21.4134 89.4994 21.3978 89.5088 21.3829 89.5175C20.823 89.8607 20.31 90.2382 19.8781 90.6506C19.1085 91.3851 19.6023 91.7588 20.7593 91.9041C22.934 92.1772 27.4516 91.6439 30.3279 91.1849C29.0246 90.8495 28.0616 89.6664 28.0616 88.2585Z" fill="#45D7B0"/>
<path d="M19.8781 90.6506C20.31 90.2382 20.823 89.8607 21.3829 89.5175C21.3984 89.508 21.4139 89.4986 21.4294 89.4891C21.9582 89.1523 23.0968 87.9605 23.781 85.6145C24.4861 83.1972 26.2571 81.25 27.0545 80.5785L25.5436 79.5713C22.7738 81.5018 17.3349 86.0678 17.7378 88.888C18.1406 91.7082 19.92 92.0738 20.7593 91.9041C19.6023 91.7588 19.1085 91.3851 19.8781 90.6506Z" fill="#45D7B0"/>
<path d="M27.5822 76.8097C28.5819 76.1793 29.9032 76.4787 30.5336 77.4783V77.4783C31.1639 78.4779 30.8646 79.7993 29.865 80.4296L29.3729 80.7399C28.1016 81.5416 26.421 81.1609 25.6193 79.8895L25.4343 79.5961C25.0775 79.0303 25.2469 78.2823 25.8127 77.9255L27.5822 76.8097Z" fill="#45D7B0"/>
<path d="M28.0616 105.885L22.8996 116.964C23.567 118.264 24.8989 121.216 25.6697 124.034C25.1741 124.071 24.6839 124.166 24.2084 124.315L20.1526 125.587C19.4143 125.819 19.0586 126.656 19.4047 127.349C19.6176 127.774 20.0528 128.043 20.5289 128.043C23.6106 128.477 25.4053 128.542 28.826 128.043C29.5163 128.043 30.076 127.484 30.076 126.793C30.076 126.541 29.9999 126.295 29.8576 126.087L28.4393 124.014H28.4044C27.8738 121.222 26.9576 117.461 26.0471 116.964C26.9704 116.293 29.2954 114.119 31.2091 110.795L28.0616 105.885Z" fill="#45D7B0"/>
<path d="M48.0799 105.885L53.2419 116.964C52.5745 118.264 51.2426 121.216 50.4718 124.034C50.9674 124.071 51.4576 124.166 51.9331 124.315L55.9888 125.587C56.7271 125.819 57.0828 126.656 56.7367 127.349C56.5239 127.774 56.0887 128.043 55.6126 128.043C52.1806 128.659 50.3187 128.8 47.3155 128.043C46.6252 128.043 46.0655 127.484 46.0655 126.793C46.0655 126.541 46.1416 126.295 46.2838 126.087L47.7022 124.014H47.7371C48.2677 121.222 49.1839 117.461 50.0943 116.964C49.1711 116.293 46.8461 114.119 44.9324 110.795L48.0799 105.885Z" fill="#45D7B0"/>
<path d="M61.6773 59.3012L14.2124 56.0278C17.3348 34.7756 7.3718 14.2704 2 6.67439C8.34543 5.06285 10.7711 3.23308 11.1908 2.51964C17.0326 1.00882 49.0452 3.14914 64.3212 4.40816C64.9927 18.1314 65.9328 47.819 64.3212 56.7832L61.6773 59.3012Z" fill="#D5C797"/>
<path fill-rule="evenodd" clip-rule="evenodd" d="M14.2124 56.0278L61.6773 59.3012L64.3212 56.7832C65.9328 47.819 64.9927 18.1314 64.3212 4.40816C61.4003 5.71753 58.4878 8.98258 57.3966 10.4514L30.076 8.68881V10.4514L28.1875 8.68881L2 6.67439C7.3718 14.2704 17.3348 34.7756 14.2124 56.0278Z" fill="#C7B883"/>
<path d="M30.076 8.68881L57.3966 10.4514C58.4878 8.98258 61.4003 5.71753 64.3212 4.40816C49.0452 3.14914 17.0326 1.00882 11.1908 2.51964C10.7711 3.23308 8.34543 5.06285 2 6.67439L28.1875 8.68881L30.076 10.4514V8.68881Z" fill="#DECF9B"/>
<path fill-rule="evenodd" clip-rule="evenodd" d="M61.6773 59.3012L14.2124 56.0278C17.3348 34.7756 7.3718 14.2704 2 6.67439L28.1875 8.68881L30.076 10.4514V8.68881L57.3966 10.4514C61.8284 18.1062 62.097 46.2074 61.6773 59.3012Z" fill="#DECF9B"/>
<path fill-rule="evenodd" clip-rule="evenodd" d="M11.1908 2.51964C17.0326 1.00882 49.0452 3.14914 64.3212 4.40816C61.4003 5.71753 58.4878 8.98258 57.3966 10.4514L30.076 8.68881V10.4514L28.1875 8.68881L2 6.67439C8.34543 5.06285 10.7711 3.23308 11.1908 2.51964Z" fill="#F2DF9A"/>
<path d="M48.3318 26.5669C47.8282 19.4157 44.3449 11.6686 42.6663 8.68889H46.5692C49.6916 13.7249 49.0453 22.7059 48.3318 26.5669Z" fill="#F2DF9A"/>
<path d="M18.8709 21.9085C18.2666 14.8581 13.667 8.56298 11.4427 6.29675H14.8421C19.3745 13.1458 19.4165 19.5584 18.8709 21.9085Z" fill="#F2DF9A"/>
<path fill-rule="evenodd" clip-rule="evenodd" d="M61.8032 56.2795L13.9607 53.0061V69.8769L23.1515 70.5058C26.7187 71.3872 33.8783 74.6863 33.979 80.8303C34.0797 86.9743 31.5869 91.8677 30.3279 93.5463L30.3585 93.565C28.774 95.862 27.8099 98.901 27.8099 102.234C27.8099 109.396 32.2629 115.201 37.7561 115.201C40.7104 115.201 43.3638 113.522 45.1856 110.856L48.8354 107.521C49.8002 104.752 51.0754 98.0788 48.4577 93.5463C45.1856 87.8808 42.6662 77.9682 48.8354 73.5449C50.4973 72.846 52.4162 72.508 54.501 72.6506L61.8032 73.1503L64.8249 70.8841V54.8946L61.8032 56.2795ZM39.3845 106.873C41.6679 107.1 43.6916 105.545 43.9048 103.4C44.1179 101.255 42.4397 99.332 40.1563 99.1051C37.873 98.8782 35.8492 100.433 35.636 102.578C35.423 104.723 37.1011 106.646 39.3845 106.873Z" fill="#45D7B0"/>
<path fill-rule="evenodd" clip-rule="evenodd" d="M13.9607 53.0061L61.8032 56.2795V73.1503L54.501 72.6506C48.2059 72.2199 43.4216 76.1719 42.6662 81.208C42.0795 85.1195 44.3727 91.4837 45.6973 94.4242C46.956 96.5964 47.7023 99.3014 47.7023 102.234C47.7023 109.396 43.2493 115.201 37.7561 115.201C32.2629 115.201 27.8099 109.396 27.8099 102.234C27.8099 98.901 28.774 95.862 30.3585 93.565L30.3279 93.5463C31.5869 91.8677 34.0797 86.9743 33.979 80.8303C33.8783 74.6863 26.7187 71.3872 23.1515 70.5058L13.9607 69.8769V53.0061ZM36.8665 108.384C39.1498 108.61 41.1736 107.056 41.3868 104.911C41.5999 102.766 39.9217 100.843 37.6383 100.616C35.355 100.389 33.3312 101.944 33.118 104.089C32.9049 106.234 34.5831 108.157 36.8665 108.384Z" fill="#2AAC89"/>
<path d="M52.9246 70.6197C56.1825 71.2607 59.3269 69.0295 59.9837 65.6909C60.6406 62.3524 58.5758 59.0963 55.3179 58.4553C52.06 57.8143 48.9156 60.0455 48.2587 63.3841C47.6019 66.7226 49.6667 69.9787 52.9246 70.6197Z" fill="url(#paint0_radial)" stroke="#1D1D1D" stroke-width="1.09016"/>
<path d="M21.1975 67.9501C24.4555 68.5911 27.5998 66.3599 28.2567 63.0213C28.9135 59.6828 26.8488 56.4267 23.5909 55.7857C20.3329 55.1447 17.1885 57.3759 16.5317 60.7145C15.8749 64.053 17.9396 67.3091 21.1975 67.9501Z" fill="url(#paint1_radial)" stroke="#1D1D1D" stroke-width="1.09016"/>
<circle cx="52.3683" cy="65.9817" r="2.98829" transform="rotate(-8.72807 52.3683 65.9817)" fill="#636363"/>
<circle cx="23.6629" cy="62.7082" r="2.98829" transform="rotate(-8.72807 23.6629 62.7082)" fill="#636363"/>
<path d="M38.1337 73.0244C38.1337 74.8334 36.9775 76.3724 35.3638 76.9427C34.9307 77.0958 34.4645 77.1792 33.9789 77.1792C31.7201 77.1792 29.8823 75.3765 29.8255 73.1314C29.8246 73.0958 29.8242 73.0602 29.8242 73.0244C29.8242 70.7298 31.6843 68.8697 33.9789 68.8697C36.2735 68.8697 38.1337 70.7298 38.1337 73.0244Z" fill="#614B32"/>
<path d="M33.9789 77.1792C31.7201 77.1792 29.8823 75.3765 29.8255 73.1314C29.8191 74.5468 28.8693 77.1792 25.0399 77.1792C21.2425 77.1792 19.5708 76.3947 19.1605 75.9634C21.2123 78.281 27.256 81.6595 35.3638 76.9427C34.9307 77.0958 34.4645 77.1792 33.9789 77.1792Z" fill="#614B32"/>
<path d="M35.6777 72.504C35.5151 74.3057 36.5283 75.9423 38.0841 76.6554C38.5018 76.8469 38.9586 76.9717 39.4422 77.0154C41.6919 77.2184 43.6843 75.5883 43.9426 73.3573C43.9467 73.322 43.9504 73.2865 43.9536 73.2509C44.1598 70.9656 42.4744 68.9458 40.1891 68.7395C37.9038 68.5333 35.884 70.2187 35.6777 72.504Z" fill="#7C654A"/>
<path d="M39.4422 77.0154C41.6919 77.2184 43.6843 75.5883 43.9426 73.3573C43.8218 74.7676 44.5311 77.4747 48.345 77.8189C52.1271 78.1602 53.8625 77.5292 54.31 77.1365C52.0581 79.2604 45.7352 82.0819 38.0841 76.6554C38.5018 76.8469 38.9586 76.9717 39.4422 77.0154Z" fill="#7C654A"/>
<path d="M19.8781 90.6506C20.31 90.2382 20.823 89.8607 21.3829 89.5175C21.3984 89.508 21.4139 89.4986 21.4294 89.4891C21.9582 89.1523 23.0968 87.9605 23.781 85.6145C24.4861 83.1972 26.2571 81.25 27.0545 80.5785L25.5436 79.5713C22.7738 81.5018 17.3349 86.0678 17.7378 88.888C18.1406 91.7082 19.92 92.0738 20.7593 91.9041C19.6023 91.7588 19.1085 91.3851 19.8781 90.6506Z" fill="#45D7B0"/>
<path d="M27.5822 76.8097C28.5819 76.1793 29.9032 76.4787 30.5336 77.4783V77.4783C31.1639 78.4779 30.8646 79.7993 29.865 80.4296L29.3729 80.7399C28.1016 81.5416 26.421 81.1609 25.6193 79.8895L25.4343 79.5961C25.0775 79.0303 25.2469 78.2823 25.8127 77.9255L27.5822 76.8097Z" fill="#45D7B0"/>
<path d="M51.1727 89.4237C51.1727 87.6676 49.663 86.244 47.8006 86.244C45.9384 86.244 44.4287 87.6676 44.4287 89.4237C44.4287 91.1798 45.9384 92.6033 47.8006 92.6033C48.4421 93.6537 50.2357 95.796 52.8523 97.1533C53.0495 98.4179 53.683 100.131 55.1807 102.2C55.325 102.368 55.5924 102.576 55.8892 102.807C56.2777 103.11 56.7166 103.451 56.995 103.793C56.5279 104.262 56.4171 105.004 56.77 105.601L57.2945 106.487C57.9052 107.519 59.237 107.861 60.2692 107.25C61.3012 106.64 61.6429 105.308 61.0322 104.276L60.124 102.741C59.917 102.391 59.4658 102.275 59.1161 102.482L59.0999 102.492C58.6323 99.8032 57.6741 95.4184 56.7511 94.8025C56.6303 93.8455 55.8383 93.0976 54.8614 93.0456C53.9778 91.7445 52.5775 90.0512 51.1727 89.4237Z" fill="#2AAC89"/>
<defs>
<filter id="filter0_f" x="0.364762" y="119.193" width="81.2172" height="19.0779" filterUnits="userSpaceOnUse" color-interpolation-filters="sRGB">
<feFlood flood-opacity="0" result="BackgroundImageFix"/>
<feBlend mode="normal" in="SourceGraphic" in2="BackgroundImageFix" result="shape"/>
<feGaussianBlur stdDeviation="1.63525" result="effect1_foregroundBlur"/>
</filter>
<radialGradient id="paint0_radial" cx="0" cy="0" r="1" gradientUnits="userSpaceOnUse" gradientTransform="translate(51.7409 63.7364) rotate(46.8954) scale(9.91489 7.60295)">
<stop stop-color="white"/>
<stop offset="1" stop-color="#E7E7E7"/>
</radialGradient>
<radialGradient id="paint1_radial" cx="0" cy="0" r="1" gradientUnits="userSpaceOnUse" gradientTransform="translate(20.0139 61.0667) rotate(46.8954) scale(9.91489 7.60295)">
<stop stop-color="white"/>
<stop offset="1" stop-color="#E7E7E7"/>
</radialGradient>
</defs>
</svg>
