<svg width="122" height="237" viewBox="0 0 122 237" fill="none" xmlns="http://www.w3.org/2000/svg">
<mask id="path-1-outside-1" maskUnits="userSpaceOnUse" x="0" y="0.0996094" width="122" height="237" fill="black">
<rect fill="white" y="0.0996094" width="122" height="237"/>
<path fill-rule="evenodd" clip-rule="evenodd" d="M27.0551 95.7508C30.4392 58.7572 13.3936 23.9582 4 10.6752C15.6413 7.71871 20.0915 4.36187 20.8613 3.05293C31.5788 0.281204 90.3085 4.20781 118.334 6.51759C119.494 30.2236 121.09 79.8966 118.805 99.3469L119.258 99.1394V128.473L113.714 132.631L100.317 131.714C96.4928 131.453 92.9724 132.073 89.9235 133.355C87.4493 135.129 85.7368 137.384 84.634 139.934C85.7587 140.571 87.1971 141.031 89.0239 141.196C95.9625 141.822 99.1463 140.665 99.9671 139.944C97.2211 142.534 91.1754 145.689 83.3075 144.591C82.6344 148.802 83.1203 153.43 84.2621 157.856C85.3046 157.101 86.6095 156.653 88.0254 156.653C91.442 156.653 94.2117 159.264 94.2117 162.486C96.789 163.637 99.3579 166.744 100.979 169.131C102.771 169.226 104.224 170.598 104.446 172.354C106.139 173.484 107.897 181.528 108.755 186.461L108.785 186.443C109.426 186.063 110.254 186.276 110.634 186.917L112.3 189.733C113.42 191.627 112.793 194.07 110.9 195.19C109.006 196.311 106.563 195.684 105.443 193.791L104.48 192.164C103.833 191.07 104.036 189.708 104.893 188.847C104.383 188.221 103.579 187.595 102.867 187.041L102.865 187.039C102.32 186.616 101.829 186.234 101.565 185.926C98.817 182.129 97.6549 178.987 97.2931 176.667C93.5792 174.74 90.7689 171.952 89.1421 169.896C89.1717 169.947 89.201 169.998 89.2305 170.049C94.0281 178.356 91.6984 190.581 89.9291 195.672L98.0077 213.011C96.7833 215.396 94.3398 220.811 92.9257 225.981C93.835 226.05 94.7343 226.223 95.6066 226.497L103.047 228.831C104.402 229.256 105.054 230.793 104.419 232.062C104.029 232.844 103.23 233.337 102.357 233.337C96.0608 234.466 92.6449 234.725 87.1353 233.337C85.8687 233.337 84.842 232.31 84.842 231.044C84.842 230.582 84.9816 230.13 85.2426 229.749L87.8447 225.946H87.9087C88.882 220.823 90.563 213.922 92.2332 213.011C90.579 211.808 86.4719 207.976 83.0104 202.117C79.6764 206.827 74.9012 209.777 69.5975 209.777C64.6225 209.777 60.1125 207.182 56.8209 202.972C53.4771 208.349 49.689 211.868 48.1166 213.011C49.7869 213.922 51.4678 220.823 52.4411 225.946H52.5052L55.1073 229.749C55.3683 230.13 55.5079 230.582 55.5079 231.044C55.5079 232.31 54.4811 233.337 53.2146 233.337C46.939 234.252 43.6464 234.132 37.9929 233.337C37.1195 233.337 36.321 232.844 35.9306 232.062C35.2956 230.793 35.9481 229.256 37.3027 228.831L44.7433 226.497C45.6156 226.223 46.5149 226.05 47.4241 225.981C46.0101 220.811 43.5666 215.396 42.3422 213.011L51.8123 192.685L52.2426 193.357C51.6634 191.036 51.3503 188.559 51.3503 185.987C51.3503 179.873 53.1192 174.298 56.026 170.084L55.9698 170.049C56.6632 169.125 57.5605 167.669 58.4718 165.779C58.1113 165.853 57.738 165.892 57.3557 165.892C57.3147 165.892 57.2738 165.891 57.233 165.89C57.1836 165.889 57.1344 165.887 57.0855 165.885L57.0081 165.881L56.9183 165.875C56.8195 165.867 56.7214 165.857 56.624 165.844C56.5225 165.831 56.4216 165.814 56.3217 165.795C56.2031 165.773 56.0858 165.747 55.9698 165.717C50.6932 166.559 42.4051 167.538 38.4156 167.037C36.8757 167.348 33.6113 166.677 32.8721 161.503C32.1409 156.383 41.9062 148.125 47.0337 144.522L46.9922 144.456C46.8266 144.194 46.7226 143.91 46.6769 143.621C41.3186 142.7 37.4251 139.986 35.4824 137.792C36.2353 138.583 39.3021 140.022 46.2688 140.022C52.5239 140.022 54.591 136.194 54.9774 133.522C50.8823 130.461 46.0385 128.579 42.8041 127.779L25.9428 126.626V95.6747L27.0551 95.7508ZM43.959 155.498C45.0943 151.606 47.7352 148.378 49.3536 146.814C50.8577 147.551 52.6974 147.514 54.2179 146.555L55.1206 145.986C56.1738 145.322 56.8033 144.239 56.9294 143.091C58.4188 142.7 59.9648 142.163 61.5622 141.456C62.2371 143.065 62.6371 144.818 62.6682 146.721C62.7277 150.353 62.2931 153.747 61.5995 156.782C60.5826 155.573 59.0589 154.805 57.3557 154.805C55.1186 154.805 53.1909 156.13 52.315 158.039C49.5336 158.531 43.8781 160.038 39.6449 162.606C40.6148 161.988 42.7038 159.802 43.959 155.498ZM72.5851 194.498C73.3644 194.575 74.127 194.539 74.8549 194.405C75.6239 193.412 76.1273 192.216 76.2584 190.898C76.6493 186.963 73.5706 183.435 69.3814 183.019C68.6021 182.942 67.8395 182.977 67.1116 183.112C66.3426 184.105 65.8392 185.301 65.7081 186.619C65.3172 190.554 68.3959 194.082 72.5851 194.498Z"/>
</mask>
<path fill-rule="evenodd" clip-rule="evenodd" d="M27.0551 95.7508C30.4392 58.7572 13.3936 23.9582 4 10.6752C15.6413 7.71871 20.0915 4.36187 20.8613 3.05293C31.5788 0.281204 90.3085 4.20781 118.334 6.51759C119.494 30.2236 121.09 79.8966 118.805 99.3469L119.258 99.1394V128.473L113.714 132.631L100.317 131.714C96.4928 131.453 92.9724 132.073 89.9235 133.355C87.4493 135.129 85.7368 137.384 84.634 139.934C85.7587 140.571 87.1971 141.031 89.0239 141.196C95.9625 141.822 99.1463 140.665 99.9671 139.944C97.2211 142.534 91.1754 145.689 83.3075 144.591C82.6344 148.802 83.1203 153.43 84.2621 157.856C85.3046 157.101 86.6095 156.653 88.0254 156.653C91.442 156.653 94.2117 159.264 94.2117 162.486C96.789 163.637 99.3579 166.744 100.979 169.131C102.771 169.226 104.224 170.598 104.446 172.354C106.139 173.484 107.897 181.528 108.755 186.461L108.785 186.443C109.426 186.063 110.254 186.276 110.634 186.917L112.3 189.733C113.42 191.627 112.793 194.07 110.9 195.19C109.006 196.311 106.563 195.684 105.443 193.791L104.48 192.164C103.833 191.07 104.036 189.708 104.893 188.847C104.383 188.221 103.579 187.595 102.867 187.041L102.865 187.039C102.32 186.616 101.829 186.234 101.565 185.926C98.817 182.129 97.6549 178.987 97.2931 176.667C93.5792 174.74 90.7689 171.952 89.1421 169.896C89.1717 169.947 89.201 169.998 89.2305 170.049C94.0281 178.356 91.6984 190.581 89.9291 195.672L98.0077 213.011C96.7833 215.396 94.3398 220.811 92.9257 225.981C93.835 226.05 94.7343 226.223 95.6066 226.497L103.047 228.831C104.402 229.256 105.054 230.793 104.419 232.062C104.029 232.844 103.23 233.337 102.357 233.337C96.0608 234.466 92.6449 234.725 87.1353 233.337C85.8687 233.337 84.842 232.31 84.842 231.044C84.842 230.582 84.9816 230.13 85.2426 229.749L87.8447 225.946H87.9087C88.882 220.823 90.563 213.922 92.2332 213.011C90.579 211.808 86.4719 207.976 83.0104 202.117C79.6764 206.827 74.9012 209.777 69.5975 209.777C64.6225 209.777 60.1125 207.182 56.8209 202.972C53.4771 208.349 49.689 211.868 48.1166 213.011C49.7869 213.922 51.4678 220.823 52.4411 225.946H52.5052L55.1073 229.749C55.3683 230.13 55.5079 230.582 55.5079 231.044C55.5079 232.31 54.4811 233.337 53.2146 233.337C46.939 234.252 43.6464 234.132 37.9929 233.337C37.1195 233.337 36.321 232.844 35.9306 232.062C35.2956 230.793 35.9481 229.256 37.3027 228.831L44.7433 226.497C45.6156 226.223 46.5149 226.05 47.4241 225.981C46.0101 220.811 43.5666 215.396 42.3422 213.011L51.8123 192.685L52.2426 193.357C51.6634 191.036 51.3503 188.559 51.3503 185.987C51.3503 179.873 53.1192 174.298 56.026 170.084L55.9698 170.049C56.6632 169.125 57.5605 167.669 58.4718 165.779C58.1113 165.853 57.738 165.892 57.3557 165.892C57.3147 165.892 57.2738 165.891 57.233 165.89C57.1836 165.889 57.1344 165.887 57.0855 165.885L57.0081 165.881L56.9183 165.875C56.8195 165.867 56.7214 165.857 56.624 165.844C56.5225 165.831 56.4216 165.814 56.3217 165.795C56.2031 165.773 56.0858 165.747 55.9698 165.717C50.6932 166.559 42.4051 167.538 38.4156 167.037C36.8757 167.348 33.6113 166.677 32.8721 161.503C32.1409 156.383 41.9062 148.125 47.0337 144.522L46.9922 144.456C46.8266 144.194 46.7226 143.91 46.6769 143.621C41.3186 142.7 37.4251 139.986 35.4824 137.792C36.2353 138.583 39.3021 140.022 46.2688 140.022C52.5239 140.022 54.591 136.194 54.9774 133.522C50.8823 130.461 46.0385 128.579 42.8041 127.779L25.9428 126.626V95.6747L27.0551 95.7508ZM43.959 155.498C45.0943 151.606 47.7352 148.378 49.3536 146.814C50.8577 147.551 52.6974 147.514 54.2179 146.555L55.1206 145.986C56.1738 145.322 56.8033 144.239 56.9294 143.091C58.4188 142.7 59.9648 142.163 61.5622 141.456C62.2371 143.065 62.6371 144.818 62.6682 146.721C62.7277 150.353 62.2931 153.747 61.5995 156.782C60.5826 155.573 59.0589 154.805 57.3557 154.805C55.1186 154.805 53.1909 156.13 52.315 158.039C49.5336 158.531 43.8781 160.038 39.6449 162.606C40.6148 161.988 42.7038 159.802 43.959 155.498ZM72.5851 194.498C73.3644 194.575 74.127 194.539 74.8549 194.405C75.6239 193.412 76.1273 192.216 76.2584 190.898C76.6493 186.963 73.5706 183.435 69.3814 183.019C68.6021 182.942 67.8395 182.977 67.1116 183.112C66.3426 184.105 65.8392 185.301 65.7081 186.619C65.3172 190.554 68.3959 194.082 72.5851 194.498Z" fill="#1D1D1D"/>
<path d="M34.6603 138.371L34.7298 138.45L36.2349 137.133L36.1655 137.054L34.6603 138.371ZM99.3549 139.146L99.2785 139.219L100.656 140.669L100.732 140.596L99.3549 139.146ZM4 10.6752L3.5077 8.73671L0.686279 9.45324L2.36707 11.83L4 10.6752ZM27.0551 95.7508L26.9187 97.7461L28.8687 97.8794L29.0468 95.933L27.0551 95.7508ZM20.8613 3.05293L20.3606 1.11663L19.5578 1.32425L19.1374 2.03901L20.8613 3.05293ZM118.334 6.51759L120.331 6.41985L120.246 4.66838L118.498 4.52434L118.334 6.51759ZM118.805 99.3469L116.819 99.1135L116.403 102.648L119.638 101.165L118.805 99.3469ZM119.258 99.1394H121.258V96.0225L118.424 97.3213L119.258 99.1394ZM119.258 128.473L120.458 130.073L121.258 129.473V128.473H119.258ZM113.714 132.631L113.578 134.626L114.319 134.677L114.914 134.231L113.714 132.631ZM100.317 131.714L100.454 129.719H100.454L100.317 131.714ZM89.9235 133.355L89.1482 131.511L88.9409 131.598L88.7581 131.73L89.9235 133.355ZM84.634 139.934L82.7983 139.141L82.0849 140.79L83.6491 141.675L84.634 139.934ZM89.0239 141.196L89.2038 139.204H89.2037L89.0239 141.196ZM99.9671 139.944L101.339 141.399L98.6478 138.441L99.9671 139.944ZM83.3075 144.591L83.5841 142.61L81.642 142.339L81.3325 144.275L83.3075 144.591ZM84.2621 157.856L82.3255 158.355L83.0583 161.196L85.4349 159.476L84.2621 157.856ZM94.2117 162.486H92.2117V163.783L93.396 164.312L94.2117 162.486ZM100.979 169.131L99.3245 170.254L99.882 171.075L100.873 171.128L100.979 169.131ZM104.446 172.354L102.461 172.604L102.576 173.511L103.336 174.018L104.446 172.354ZM108.755 186.461L106.784 186.803L107.28 189.655L109.772 188.183L108.755 186.461ZM108.785 186.443L109.802 188.165L109.803 188.164L108.785 186.443ZM110.634 186.917L108.912 187.936L108.912 187.936L110.634 186.917ZM112.3 189.733L110.579 190.752L110.579 190.752L112.3 189.733ZM110.9 195.19L111.918 196.912L111.918 196.912L110.9 195.19ZM105.443 193.791L103.721 194.809L103.721 194.809L105.443 193.791ZM104.48 192.164L106.202 191.146L106.202 191.146L104.48 192.164ZM104.893 188.847L106.311 190.258L107.582 188.98L106.443 187.583L104.893 188.847ZM102.867 187.041L101.452 188.456L101.541 188.544L101.639 188.62L102.867 187.041ZM102.865 187.039L104.279 185.625L104.191 185.537L104.093 185.461L102.865 187.039ZM101.565 185.926L99.9446 187.099L99.9935 187.166L100.048 187.23L101.565 185.926ZM97.2931 176.667L99.2692 176.359L99.1131 175.358L98.214 174.891L97.2931 176.667ZM89.1421 169.896L90.7106 168.655L87.408 170.892L89.1421 169.896ZM89.2305 170.049L87.4983 171.049L87.4987 171.05L89.2305 170.049ZM89.9291 195.672L88.0399 195.015L87.7737 195.781L88.1162 196.516L89.9291 195.672ZM98.0077 213.011L99.7868 213.925L100.234 213.054L99.8206 212.166L98.0077 213.011ZM92.9257 225.981L90.9966 225.453L90.3573 227.79L92.7734 227.975L92.9257 225.981ZM95.6066 226.497L96.2052 224.589L96.2052 224.589L95.6066 226.497ZM103.047 228.831L103.646 226.923L103.646 226.923L103.047 228.831ZM104.419 232.062L102.631 231.168L102.63 231.168L104.419 232.062ZM102.357 233.337V231.337H102.179L102.004 231.368L102.357 233.337ZM87.1353 233.337L87.6238 231.398L87.3833 231.337H87.1353V233.337ZM85.2426 229.749L83.592 228.619L83.592 228.619L85.2426 229.749ZM87.8447 225.946V223.946H86.7898L86.1941 224.816L87.8447 225.946ZM87.9087 225.946V227.946H89.5645L89.8736 226.319L87.9087 225.946ZM92.2332 213.011L93.1909 214.767L95.9666 213.253L93.4095 211.394L92.2332 213.011ZM83.0104 202.117L84.7323 201.1L83.1618 198.441L81.378 200.962L83.0104 202.117ZM56.8209 202.972L58.3964 201.74L56.6337 199.486L55.1226 201.916L56.8209 202.972ZM48.1166 213.011L46.9404 211.394L44.3833 213.253L47.1589 214.767L48.1166 213.011ZM52.4411 225.946L50.4763 226.319L50.7853 227.946H52.4411V225.946ZM52.5052 225.946L54.1558 224.816L53.5601 223.946H52.5052V225.946ZM55.1073 229.749L56.7579 228.619L56.7579 228.619L55.1073 229.749ZM53.2146 233.337V231.337H53.0695L52.926 231.358L53.2146 233.337ZM37.9929 233.337L38.2713 231.357L38.1328 231.337H37.9929V233.337ZM35.9306 232.062L37.7195 231.168L37.7193 231.168L35.9306 232.062ZM37.3027 228.831L36.704 226.923L36.704 226.923L37.3027 228.831ZM44.7433 226.497L44.1447 224.589L44.1446 224.589L44.7433 226.497ZM47.4241 225.981L47.5765 227.975L49.9926 227.79L49.3533 225.453L47.4241 225.981ZM42.3422 213.011L40.5293 212.166L40.1159 213.054L40.563 213.925L42.3422 213.011ZM51.8123 192.685L53.4961 191.606L51.5346 188.545L49.9994 191.84L51.8123 192.685ZM52.2426 193.357L50.5588 194.436L54.1831 192.872L52.2426 193.357ZM56.026 170.084L57.6723 171.219L58.8731 169.478L57.0681 168.377L56.026 170.084ZM55.9698 170.049L54.3699 168.849L53.0493 170.61L54.9278 171.756L55.9698 170.049ZM58.4718 165.779L60.2733 166.648L62.0275 163.01L58.0708 163.82L58.4718 165.779ZM57.233 165.89L57.1874 167.89L57.1888 167.89L57.233 165.89ZM57.0855 165.885L56.9749 167.882L56.9841 167.883L56.9934 167.883L57.0855 165.885ZM57.0081 165.881L56.8727 167.876L56.8851 167.877L56.8975 167.878L57.0081 165.881ZM56.9183 165.875L56.7636 167.869L56.7733 167.87L56.783 167.87L56.9183 165.875ZM56.624 165.844L56.8856 163.861L56.884 163.861L56.624 165.844ZM56.3217 165.795L56.6943 163.83L56.6917 163.83L56.3217 165.795ZM55.9698 165.717L56.4673 163.78L56.0649 163.677L55.6547 163.742L55.9698 165.717ZM38.4156 167.037L38.6649 165.052L38.3401 165.011L38.0193 165.076L38.4156 167.037ZM32.8721 161.503L30.8922 161.786L30.8922 161.786L32.8721 161.503ZM47.0337 144.522L48.1835 146.159L49.7422 145.063L48.7241 143.453L47.0337 144.522ZM46.9922 144.456L45.3 145.523L45.3018 145.525L46.9922 144.456ZM46.6769 143.621L48.6521 143.308L48.4276 141.893L47.016 141.65L46.6769 143.621ZM35.4824 137.792L36.9312 136.413L33.9849 139.118L35.4824 137.792ZM54.9774 133.522L56.9568 133.808L57.1269 132.631L56.1746 131.92L54.9774 133.522ZM42.8041 127.779L43.2839 125.838L43.1146 125.796L42.9407 125.784L42.8041 127.779ZM25.9428 126.626H23.9428V128.493L25.8063 128.621L25.9428 126.626ZM25.9428 95.6747L26.0792 93.6794L23.9428 93.5334V95.6747H25.9428ZM49.3536 146.814L50.2336 145.018L48.9729 144.4L47.9636 145.376L49.3536 146.814ZM43.959 155.498L42.0391 154.938L42.039 154.938L43.959 155.498ZM54.2179 146.555L55.2847 148.247L55.2848 148.247L54.2179 146.555ZM55.1206 145.986L54.0539 144.294L54.0537 144.294L55.1206 145.986ZM56.9294 143.091L56.4217 141.156L55.0914 141.505L54.9413 142.872L56.9294 143.091ZM61.5622 141.456L63.4065 140.683L62.6177 138.802L60.7531 139.627L61.5622 141.456ZM62.6682 146.721L60.6684 146.753V146.753L62.6682 146.721ZM61.5995 156.782L60.069 158.069L62.6544 161.143L63.5492 157.227L61.5995 156.782ZM52.315 158.039L52.6638 160.008L53.6956 159.825L54.1327 158.873L52.315 158.039ZM39.6449 162.606L38.5704 160.919L40.6822 164.316L39.6449 162.606ZM74.8549 194.405L75.2188 196.371L75.969 196.233L76.4362 195.629L74.8549 194.405ZM72.5851 194.498L72.3874 196.488L72.3875 196.488L72.5851 194.498ZM76.2584 190.898L78.2486 191.096L78.2486 191.096L76.2584 190.898ZM69.3814 183.019L69.5792 181.029L69.579 181.029L69.3814 183.019ZM67.1116 183.112L66.7477 181.145L65.9975 181.284L65.5303 181.887L67.1116 183.112ZM65.7081 186.619L63.7179 186.421L63.7179 186.421L65.7081 186.619ZM2.36707 11.83C11.5934 24.8765 28.3897 59.2067 25.0634 95.5686L29.0468 95.933C32.4887 58.3078 15.1938 23.0399 5.63293 9.52038L2.36707 11.83ZM19.1374 2.03901C19.1499 2.01777 19.1121 2.08466 18.9639 2.23605C18.8235 2.3795 18.614 2.56831 18.3184 2.79603C17.7267 3.25192 16.8415 3.82433 15.5915 4.4683C13.0929 5.75554 9.21913 7.28622 3.5077 8.73671L4.4923 12.6136C10.4222 11.1077 14.5942 9.4817 17.4234 8.02417C18.8373 7.29575 19.9367 6.59874 20.7596 5.96469C21.5438 5.36055 22.2014 4.71944 22.5853 4.06685L19.1374 2.03901ZM118.498 4.52434C104.47 3.36818 82.7568 1.80726 63.2016 0.881932C53.426 0.419365 44.1702 0.114673 36.6756 0.100152C29.2878 0.0858386 23.3353 0.347308 20.3606 1.11663L21.3621 4.98922C23.746 4.37269 29.1538 4.08559 36.6679 4.10014C44.0752 4.1145 53.2629 4.41612 63.0126 4.87746C82.5079 5.79995 104.172 7.35722 118.169 8.51083L118.498 4.52434ZM120.791 99.5803C123.1 79.9288 121.488 30.0688 120.331 6.41985L116.336 6.61532C117.499 30.3785 119.081 79.8643 116.819 99.1135L120.791 99.5803ZM118.424 97.3213L117.971 97.5288L119.638 101.165L120.091 100.957L118.424 97.3213ZM121.258 128.473V99.1394H117.258V128.473H121.258ZM114.914 134.231L120.458 130.073L118.058 126.873L112.514 131.031L114.914 134.231ZM100.181 133.71L113.578 134.626L113.851 130.636L100.454 129.719L100.181 133.71ZM90.6987 135.199C93.4502 134.042 96.6574 133.469 100.181 133.71L100.454 129.719C96.3282 129.437 92.4946 130.104 89.1482 131.511L90.6987 135.199ZM86.4697 140.728C87.4378 138.49 88.9277 136.53 91.0889 134.98L88.7581 131.73C85.9708 133.728 84.0358 136.279 82.7983 139.141L86.4697 140.728ZM89.2037 139.204C87.6174 139.061 86.4613 138.67 85.6189 138.194L83.6491 141.675C85.056 142.471 86.7768 143.001 88.8441 143.188L89.2037 139.204ZM98.6478 138.441C98.6567 138.433 98.0998 138.823 96.4534 139.104C94.895 139.369 92.5428 139.505 89.2038 139.204L88.8441 143.188C92.4436 143.513 95.1526 143.383 97.126 143.047C99.0113 142.725 100.457 142.175 101.286 141.447L98.6478 138.441ZM83.0309 146.571C91.5634 147.763 98.201 144.359 101.339 141.399L98.5949 138.489C96.2412 140.709 90.7873 143.616 83.5841 142.61L83.0309 146.571ZM86.1987 157.356C85.101 153.101 84.6659 148.764 85.2824 144.906L81.3325 144.275C80.6029 148.841 81.1395 153.758 82.3255 158.355L86.1987 157.356ZM88.0254 154.653C86.1835 154.653 84.4691 155.237 83.0893 156.236L85.4349 159.476C86.1401 158.965 87.0355 158.653 88.0254 158.653V154.653ZM96.2117 162.486C96.2117 158.051 92.4342 154.653 88.0254 154.653V158.653C90.4498 158.653 92.2117 160.478 92.2117 162.486H96.2117ZM102.634 168.007C101.779 166.749 100.663 165.283 99.3985 163.962C98.1559 162.664 96.6585 161.389 95.0274 160.66L93.396 164.312C94.3421 164.735 95.4179 165.588 96.5093 166.728C97.5788 167.845 98.5574 169.125 99.3245 170.254L102.634 168.007ZM106.43 172.104C106.088 169.395 103.851 167.281 101.085 167.133L100.873 171.128C101.692 171.171 102.36 171.801 102.461 172.604L106.43 172.104ZM110.725 186.118C110.291 183.618 109.624 180.306 108.843 177.453C108.453 176.032 108.021 174.671 107.556 173.566C107.324 173.014 107.066 172.481 106.776 172.02C106.506 171.589 106.113 171.062 105.556 170.69L103.336 174.018C103.202 173.928 103.234 173.9 103.387 174.145C103.522 174.359 103.685 174.678 103.869 175.116C104.237 175.991 104.616 177.162 104.985 178.51C105.72 181.194 106.361 184.37 106.784 186.803L110.725 186.118ZM107.767 184.721L107.737 184.739L109.772 188.183L109.802 188.165L107.767 184.721ZM112.355 185.899C111.413 184.307 109.358 183.78 107.766 184.722L109.803 188.164C109.494 188.347 109.095 188.245 108.912 187.936L112.355 185.899ZM114.021 188.715L112.355 185.899L108.912 187.936L110.579 190.752L114.021 188.715ZM111.918 196.912C114.762 195.229 115.704 191.559 114.021 188.715L110.579 190.752C111.136 191.695 110.824 192.911 109.881 193.469L111.918 196.912ZM103.721 194.809C105.404 197.653 109.074 198.594 111.918 196.912L109.882 193.469C108.938 194.027 107.722 193.715 107.164 192.772L103.721 194.809ZM102.759 193.182L103.721 194.809L107.164 192.772L106.202 191.146L102.759 193.182ZM103.475 187.436C101.992 188.928 101.636 191.285 102.759 193.183L106.202 191.146C106.03 190.855 106.081 190.489 106.311 190.258L103.475 187.436ZM101.639 188.62C102.407 189.217 103.006 189.697 103.343 190.111L106.443 187.583C105.76 186.745 104.751 185.973 104.094 185.462L101.639 188.62ZM101.45 188.453L101.452 188.456L104.281 185.627L104.279 185.625L101.45 188.453ZM100.048 187.23C100.476 187.728 101.17 188.255 101.636 188.618L104.093 185.461C103.47 184.976 103.183 184.74 103.082 184.623L100.048 187.23ZM95.317 176.975C95.7365 179.665 97.0492 183.098 99.9446 187.099L103.185 184.754C100.585 181.16 99.5733 178.308 99.2692 176.359L95.317 176.975ZM87.5737 171.137C89.327 173.353 92.3453 176.353 96.3721 178.442L98.214 174.891C94.8131 173.127 92.2107 170.551 90.7106 168.655L87.5737 171.137ZM90.9628 169.05C90.9345 169.001 90.9077 168.954 90.8763 168.899L87.408 170.892C87.4356 170.94 87.4675 170.996 87.4983 171.049L90.9628 169.05ZM91.8183 196.328C92.7617 193.614 93.8276 189.093 94.0405 184.152C94.2524 179.236 93.6296 173.667 90.9624 169.049L87.4987 171.05C89.629 174.738 90.2401 179.435 90.0443 183.98C89.8494 188.502 88.8658 192.639 88.0399 195.015L91.8183 196.328ZM99.8206 212.166L91.742 194.827L88.1162 196.516L96.1948 213.856L99.8206 212.166ZM94.8549 226.508C96.2209 221.515 98.602 216.232 99.7868 213.925L96.2285 212.098C94.9646 214.559 92.4587 220.108 90.9966 225.453L94.8549 226.508ZM96.2052 224.589C95.188 224.269 94.139 224.068 93.0781 223.987L92.7734 227.975C93.531 228.033 94.2806 228.177 95.0079 228.405L96.2052 224.589ZM103.646 226.923L96.2052 224.589L95.0079 228.405L102.449 230.74L103.646 226.923ZM106.208 232.957C107.394 230.586 106.175 227.716 103.646 226.923L102.449 230.74C102.628 230.796 102.715 231 102.631 231.168L106.208 232.957ZM102.357 235.337C103.988 235.337 105.479 234.416 106.208 232.957L102.63 231.168C102.579 231.272 102.473 231.337 102.357 231.337V235.337ZM86.6468 235.277C92.5456 236.762 96.2794 236.458 102.71 235.306L102.004 231.368C95.8422 232.473 92.7442 232.687 87.6238 231.398L86.6468 235.277ZM82.842 231.044C82.842 233.415 84.7642 235.337 87.1353 235.337V231.337C86.9733 231.337 86.842 231.206 86.842 231.044H82.842ZM83.592 228.619C83.1034 229.334 82.842 230.179 82.842 231.044H86.842C86.842 230.985 86.8598 230.927 86.8932 230.878L83.592 228.619ZM86.1941 224.816L83.592 228.619L86.8932 230.878L89.4953 227.075L86.1941 224.816ZM87.9087 223.946H87.8447V227.946H87.9087V223.946ZM91.2756 211.255C90.695 211.572 90.2776 212.047 89.9898 212.443C89.6856 212.861 89.4193 213.343 89.1844 213.835C88.7146 214.821 88.2837 216.037 87.8954 217.32C87.1155 219.896 86.4366 222.979 85.9439 225.572L89.8736 226.319C90.3542 223.789 91.0024 220.861 91.7238 218.479C92.0863 217.281 92.4496 216.282 92.7951 215.557C92.9679 215.194 93.1146 214.947 93.2258 214.794C93.3534 214.618 93.3539 214.678 93.1909 214.767L91.2756 211.255ZM81.2885 203.134C84.8859 209.223 89.1769 213.262 91.057 214.629L93.4095 211.394C91.981 210.355 88.0579 206.728 84.7323 201.1L81.2885 203.134ZM69.5975 211.777C75.6948 211.777 81.0261 208.382 84.6428 203.273L81.378 200.962C78.3266 205.272 74.1076 207.777 69.5975 207.777V211.777ZM55.2454 204.204C58.8311 208.79 63.8812 211.777 69.5975 211.777V207.777C65.3638 207.777 61.394 205.574 58.3964 201.74L55.2454 204.204ZM49.2928 214.629C51.084 213.326 55.0461 209.613 58.5192 204.029L55.1226 201.916C51.9082 207.085 48.294 210.409 46.9404 211.394L49.2928 214.629ZM54.406 225.572C53.9133 222.979 53.2344 219.896 52.4544 217.32C52.0662 216.037 51.6353 214.821 51.1654 213.835C50.9306 213.343 50.6643 212.861 50.3601 212.443C50.0723 212.047 49.6549 211.572 49.0743 211.255L47.1589 214.767C46.996 214.678 46.9964 214.618 47.1241 214.794C47.2353 214.947 47.3819 215.194 47.5548 215.557C47.9003 216.282 48.2636 217.281 48.6261 218.479C49.3474 220.861 49.9956 223.789 50.4763 226.319L54.406 225.572ZM52.5052 223.946H52.4411V227.946H52.5052V223.946ZM56.7579 228.619L54.1558 224.816L50.8546 227.075L53.4567 230.878L56.7579 228.619ZM57.5079 231.044C57.5079 230.179 57.2465 229.334 56.7579 228.619L53.4567 230.878C53.49 230.927 53.5079 230.985 53.5079 231.044H57.5079ZM53.2146 235.337C55.5857 235.337 57.5079 233.415 57.5079 231.044H53.5079C53.5079 231.206 53.3766 231.337 53.2146 231.337V235.337ZM37.7144 235.318C43.5312 236.135 47.0162 236.262 53.5032 235.316L52.926 231.358C46.8617 232.242 43.7616 232.128 38.2713 231.357L37.7144 235.318ZM34.1416 232.957C34.8708 234.416 36.362 235.337 37.9929 235.337V231.337C37.877 231.337 37.7712 231.272 37.7195 231.168L34.1416 232.957ZM36.704 226.923C34.1746 227.716 32.9559 230.586 34.1418 232.957L37.7193 231.168C37.6353 231 37.7217 230.796 37.9014 230.74L36.704 226.923ZM44.1446 224.589L36.704 226.923L37.9013 230.74L45.342 228.405L44.1446 224.589ZM47.2718 223.987C46.2109 224.068 45.1619 224.269 44.1447 224.589L45.3419 228.405C46.0693 228.177 46.8189 228.033 47.5765 227.975L47.2718 223.987ZM40.563 213.925C41.7479 216.232 44.129 221.515 45.495 226.508L49.3533 225.453C47.8912 220.108 45.3852 214.559 44.1214 212.098L40.563 213.925ZM49.9994 191.84L40.5293 212.166L44.1551 213.856L53.6251 193.53L49.9994 191.84ZM53.9265 192.277L53.4961 191.606L50.1284 193.764L50.5588 194.436L53.9265 192.277ZM49.3503 185.987C49.3503 188.721 49.6831 191.361 50.3022 193.841L54.1831 192.872C53.6437 190.712 53.3503 188.397 53.3503 185.987H49.3503ZM54.3797 168.948C51.2263 173.519 49.3503 179.497 49.3503 185.987H53.3503C53.3503 180.249 55.0121 175.076 57.6723 171.219L54.3797 168.948ZM54.9278 171.756L54.9839 171.791L57.0681 168.377L57.0119 168.342L54.9278 171.756ZM56.6703 164.911C55.8022 166.711 54.9693 168.05 54.3699 168.849L57.5698 171.249C58.3571 170.2 59.3188 168.627 60.2733 166.648L56.6703 164.911ZM57.3557 167.892C57.8729 167.892 58.3805 167.84 58.8727 167.739L58.0708 163.82C57.8422 163.867 57.6032 163.892 57.3557 163.892V167.892ZM57.1888 167.89C57.2444 167.891 57.3 167.892 57.3557 167.892V163.892C57.3293 163.892 57.3033 163.891 57.2772 163.891L57.1888 167.89ZM56.9934 167.883C57.0548 167.886 57.1197 167.888 57.1874 167.89L57.2787 163.891C57.2475 163.89 57.2141 163.889 57.1776 163.887L56.9934 167.883ZM56.8975 167.878L56.9749 167.882L57.1961 163.888L57.1187 163.884L56.8975 167.878ZM56.783 167.87L56.8727 167.876L57.1435 163.886L57.0537 163.879L56.783 167.87ZM56.3624 167.827C56.4941 167.844 56.6278 167.858 56.7636 167.869L57.0731 163.881C57.0112 163.876 56.9488 163.869 56.8856 163.861L56.3624 167.827ZM55.9491 167.76C56.0854 167.786 56.2238 167.809 56.364 167.827L56.884 163.861C56.8211 163.853 56.7579 163.843 56.6943 163.83L55.9491 167.76ZM55.4724 167.654C55.6297 167.695 55.7895 167.73 55.9518 167.761L56.6917 163.83C56.6167 163.816 56.5419 163.799 56.4673 163.78L55.4724 167.654ZM38.1663 169.021C40.393 169.301 43.6504 169.161 46.8872 168.873C50.1732 168.581 53.6114 168.119 56.285 167.692L55.6547 163.742C53.0517 164.158 49.7075 164.606 46.5329 164.888C43.3092 165.175 40.4278 165.274 38.6649 165.052L38.1663 169.021ZM30.8922 161.786C31.3204 164.783 32.5395 166.798 34.1919 167.962C35.7934 169.09 37.5677 169.248 38.8118 168.997L38.0193 165.076C37.7235 165.136 37.0957 165.115 36.4953 164.692C35.9457 164.305 35.163 163.397 34.852 161.22L30.8922 161.786ZM45.8838 142.886C43.247 144.739 39.4128 147.789 36.3044 151.068C34.7528 152.704 33.3242 154.458 32.3221 156.198C31.347 157.892 30.6154 159.848 30.8922 161.786L34.852 161.22C34.7632 160.598 34.9781 159.602 35.7885 158.194C36.572 156.834 37.768 155.338 39.2073 153.82C42.0807 150.789 45.6929 147.909 48.1835 146.159L45.8838 142.886ZM45.3018 145.525L45.3433 145.591L48.7241 143.453L48.6826 143.388L45.3018 145.525ZM44.7016 143.935C44.7893 144.488 44.9884 145.028 45.3 145.523L48.6843 143.39C48.6649 143.359 48.656 143.332 48.6521 143.308L44.7016 143.935ZM33.9849 139.118C36.2161 141.638 40.5121 144.59 46.3377 145.592L47.016 141.65C42.125 140.809 38.6342 138.335 36.9798 136.466L33.9849 139.118ZM46.2688 138.022C42.9162 138.022 40.5857 137.675 39.0575 137.271C37.443 136.843 36.9233 136.405 36.9312 136.413L34.0335 139.171C34.7944 139.97 36.1844 140.647 38.0333 141.137C39.9684 141.65 42.6547 142.022 46.2688 142.022V138.022ZM52.998 133.235C52.8537 134.233 52.397 135.413 51.4399 136.33C50.5188 137.213 48.9599 138.022 46.2688 138.022V142.022C49.8329 142.022 52.435 140.917 54.2078 139.218C55.9446 137.553 56.7146 135.482 56.9568 133.808L52.998 133.235ZM42.3244 129.721C45.357 130.47 49.942 132.255 53.7801 135.124L56.1746 131.92C51.8225 128.667 46.72 126.687 43.2839 125.838L42.3244 129.721ZM25.8063 128.621L42.6676 129.775L42.9407 125.784L26.0794 124.63L25.8063 128.621ZM23.9428 95.6747V126.626H27.9428V95.6747H23.9428ZM27.1914 93.7554L26.0792 93.6794L25.8065 97.6701L26.9187 97.7461L27.1914 93.7554ZM47.9636 145.376C46.2046 147.076 43.3069 150.591 42.0391 154.938L45.879 156.058C46.8817 152.62 49.2658 149.68 50.7437 148.252L47.9636 145.376ZM53.1511 144.863C52.2416 145.437 51.1406 145.462 50.2336 145.018L48.4737 148.61C50.5748 149.639 53.1532 149.591 55.2847 148.247L53.1511 144.863ZM54.0537 144.294L53.151 144.863L55.2848 148.247L56.1875 147.677L54.0537 144.294ZM54.9413 142.872C54.8789 143.441 54.5695 143.969 54.0539 144.294L56.1873 147.677C57.778 146.674 58.7277 145.037 58.9174 143.309L54.9413 142.872ZM60.7531 139.627C59.2499 140.292 57.8045 140.793 56.4217 141.156L57.4371 145.025C59.0331 144.606 60.6797 144.034 62.3714 143.285L60.7531 139.627ZM64.6679 146.688C64.6324 144.519 64.1751 142.514 63.4065 140.683L59.718 142.23C60.2992 143.615 60.6417 145.118 60.6684 146.753L64.6679 146.688ZM63.5492 157.227C64.2743 154.054 64.7304 150.499 64.6679 146.688L60.6684 146.753C60.7251 150.206 60.3119 153.439 59.6497 156.336L63.5492 157.227ZM57.3557 156.805C58.4439 156.805 59.4159 157.293 60.069 158.069L63.13 155.494C61.7493 153.853 59.674 152.805 57.3557 152.805V156.805ZM54.1327 158.873C54.6947 157.649 55.9289 156.805 57.3557 156.805V152.805C54.3083 152.805 51.6871 154.612 50.4974 157.204L54.1327 158.873ZM40.6822 164.316C44.6206 161.927 50.007 160.478 52.6638 160.008L51.9662 156.069C49.0602 156.584 43.1355 158.149 38.6076 160.896L40.6822 164.316ZM42.039 154.938C40.8856 158.893 39.0392 160.621 38.5704 160.919L40.7194 164.293C42.1905 163.356 44.522 160.711 45.879 156.058L42.039 154.938ZM74.4911 192.438C73.9473 192.539 73.3736 192.566 72.7827 192.508L72.3875 196.488C73.3552 196.584 74.3068 196.54 75.2188 196.371L74.4911 192.438ZM74.2682 190.7C74.176 191.627 73.8232 192.471 73.2737 193.18L76.4362 195.629C77.4246 194.353 78.0787 192.804 78.2486 191.096L74.2682 190.7ZM69.1836 185.009C72.3927 185.328 74.5384 187.98 74.2682 190.7L78.2486 191.096C78.7601 185.946 74.7485 181.543 69.5792 181.029L69.1836 185.009ZM67.4754 185.079C68.0192 184.978 68.5928 184.951 69.1838 185.009L69.579 181.029C68.6113 180.933 67.6597 180.977 66.7477 181.145L67.4754 185.079ZM67.6983 186.817C67.7905 185.89 68.1433 185.046 68.6928 184.337L65.5303 181.887C64.5419 183.164 63.8878 184.712 63.7179 186.421L67.6983 186.817ZM72.7828 192.508C69.5739 192.189 67.428 189.537 67.6983 186.817L63.7179 186.421C63.2064 191.571 67.218 195.974 72.3874 196.488L72.7828 192.508Z" fill="#1D1D1D" mask="url(#path-1-outside-1)"/>
<path d="M62.8994 160.348C62.8994 163.41 60.4175 165.892 57.3559 165.892C56.8774 165.892 56.413 165.831 55.9701 165.717C53.5791 165.101 51.8125 162.931 51.8125 160.348C51.8125 159.524 51.9924 158.741 52.3151 158.038C53.191 156.13 55.1187 154.805 57.3559 154.805C60.4175 154.805 62.8994 157.287 62.8994 160.348Z" fill="#45D7B0"/>
<path d="M51.8125 160.348C51.8125 159.524 51.9924 158.741 52.3151 158.038C49.5337 158.531 43.8782 160.038 39.6451 162.606C39.6156 162.625 39.5871 162.642 39.5598 162.658C38.5325 163.287 37.5915 163.98 36.799 164.737C35.3872 166.084 36.2931 166.77 38.4157 167.036C42.4053 167.537 50.6933 166.559 55.9701 165.717C53.5791 165.101 51.8125 162.931 51.8125 160.348Z" fill="#45D7B0"/>
<path d="M36.799 164.737C37.5915 163.98 38.5325 163.287 39.5598 162.658C39.5882 162.64 39.6166 162.623 39.6451 162.606C40.6151 161.988 42.704 159.801 43.9593 155.498C45.2528 151.063 48.5018 147.49 49.9647 146.258L47.193 144.411C42.1115 147.952 32.1333 156.329 32.8724 161.503C33.6115 166.677 36.8759 167.348 38.4157 167.036C36.2931 166.77 35.3872 166.084 36.799 164.737Z" fill="#45D7B0"/>
<path d="M50.9329 139.344C52.7668 138.188 55.1909 138.737 56.3473 140.571C57.5038 142.405 56.9546 144.829 55.1207 145.985L54.2181 146.555C51.8857 148.026 48.8025 147.327 47.3317 144.995L46.9923 144.456C46.3377 143.418 46.6485 142.046 47.6866 141.392L50.9329 139.344Z" fill="#45D7B0"/>
<path d="M51.8122 192.685L42.3421 213.011C43.5665 215.395 46.01 220.811 47.4241 225.981C46.5149 226.05 45.6155 226.223 44.7433 226.497L37.3026 228.831C35.9481 229.256 35.2955 230.793 35.9305 232.062C36.321 232.843 37.1195 233.337 37.9928 233.337C43.6465 234.132 46.939 234.252 53.2145 233.337C54.4811 233.337 55.5078 232.31 55.5078 231.044C55.5078 230.582 55.3682 230.13 55.1072 229.749L52.5051 225.946H52.4411C51.4678 220.823 49.7869 213.922 48.1166 213.011C49.8103 211.779 54.0757 207.791 57.5866 201.693L51.8122 192.685Z" fill="#45D7B0"/>
<path d="M88.5379 192.685L98.0079 213.011C96.7836 215.395 94.3401 220.811 92.926 225.981C93.8352 226.05 94.7346 226.223 95.6068 226.497L103.047 228.831C104.402 229.256 105.055 230.793 104.42 232.062C104.029 232.843 103.231 233.337 102.357 233.337C96.061 234.466 92.6452 234.725 87.1356 233.337C85.869 233.337 84.8423 232.31 84.8423 231.044C84.8423 230.582 84.9819 230.13 85.2429 229.749L87.845 225.946H87.909C88.8823 220.823 90.5632 213.922 92.2335 213.011C90.5398 211.779 86.2744 207.791 82.7635 201.693L88.5379 192.685Z" fill="#45D7B0"/>
<path d="M113.483 107.224L26.4048 101.218C32.133 62.2293 13.855 24.6108 4 10.6752C15.6412 7.71867 20.0914 4.3618 20.8613 3.05293C31.5787 0.281204 90.3084 4.20781 118.334 6.51759C119.566 31.6941 121.29 86.1585 118.334 102.604L113.483 107.224Z" fill="#D5C797"/>
<path fill-rule="evenodd" clip-rule="evenodd" d="M26.4048 101.218L113.483 107.224L118.334 102.604C121.29 86.1585 119.566 31.6941 118.334 6.51759C112.975 8.91975 107.632 14.9098 105.63 17.6045L55.5079 14.3708V17.6045L52.0432 14.3708L4 10.6752C13.855 24.6108 32.133 62.2293 26.4048 101.218Z" fill="#C7B883"/>
<path d="M55.5079 14.3708L105.63 17.6045C107.632 14.9098 112.975 8.91975 118.334 6.51759C90.3084 4.20781 31.5787 0.281204 20.8613 3.05293C20.0914 4.3618 15.6412 7.71867 4 10.6752L52.0432 14.3708L55.5079 17.6045V14.3708Z" fill="#DECF9B"/>
<path fill-rule="evenodd" clip-rule="evenodd" d="M113.483 107.224L26.4048 101.218C32.133 62.2293 13.855 24.6108 4 10.6752L52.0432 14.3708L55.5079 17.6045V14.3708L105.63 17.6045C113.76 31.6479 114.253 83.202 113.483 107.224Z" fill="#DECF9B"/>
<path fill-rule="evenodd" clip-rule="evenodd" d="M20.8613 3.05293C31.5787 0.281204 90.3084 4.20781 118.334 6.51759C112.975 8.91975 107.632 14.9098 105.63 17.6045L55.5079 14.3708V17.6045L52.0432 14.3708L4 10.6752C15.6412 7.71867 20.0914 4.3618 20.8613 3.05293Z" fill="#F2DF9A"/>
<path d="M88.9999 47.1698C88.076 34.0503 81.6857 19.8376 78.606 14.3711H85.7662C91.4945 23.6102 90.3088 40.0865 88.9999 47.1698Z" fill="#F2DF9A"/>
<path d="M34.9509 38.6236C33.8422 25.6889 25.4038 14.14 21.3232 9.98242H27.5596C35.8748 22.5476 35.9518 34.312 34.9509 38.6236Z" fill="#F2DF9A"/>
<path fill-rule="evenodd" clip-rule="evenodd" d="M113.714 101.68L25.9429 95.6748V126.626L42.8042 127.779C49.3485 129.397 62.4835 135.449 62.6682 146.721C62.853 157.992 58.2797 166.97 55.9699 170.049L56.0261 170.084C53.1192 174.298 51.3504 179.873 51.3504 185.987C51.3504 199.126 59.5198 209.777 69.5975 209.777C75.0176 209.777 79.8855 206.697 83.2277 201.805L89.9235 195.688C91.6935 190.606 94.0331 178.365 89.2306 170.049C83.2277 159.655 78.6056 141.47 89.9235 133.355C92.9725 132.073 96.4928 131.453 100.317 131.714L113.714 132.631L119.258 128.474V99.1395L113.714 101.68ZM72.5851 194.498C76.7741 194.914 80.4868 192.062 80.878 188.126C81.2689 184.191 78.1902 180.664 74.001 180.247C69.812 179.831 66.0993 182.684 65.7081 186.619C65.3172 190.554 68.396 194.082 72.5851 194.498Z" fill="#45D7B0"/>
<path fill-rule="evenodd" clip-rule="evenodd" d="M25.9429 95.6748L113.714 101.68V132.631L100.317 131.714C88.7686 130.924 79.9915 138.175 78.6056 147.414C77.5293 154.59 81.7362 166.265 84.1665 171.66C86.4756 175.645 87.8447 180.608 87.8447 185.987C87.8447 199.126 79.6753 209.777 69.5975 209.777C59.5198 209.777 51.3504 199.126 51.3504 185.987C51.3504 179.873 53.1192 174.298 56.0261 170.084L55.9699 170.049C58.2797 166.97 62.853 157.992 62.6682 146.721C62.4835 135.449 49.3485 129.397 42.8042 127.779L25.9429 126.626V95.6748ZM67.9656 197.27C72.1545 197.686 75.8673 194.833 76.2584 190.898C76.6493 186.963 73.5706 183.435 69.3815 183.019C65.1925 182.603 61.4797 185.456 61.0886 189.391C60.6977 193.326 63.7764 196.853 67.9656 197.27Z" fill="#2AAC89"/>
<path d="M97.4255 127.989C103.402 129.164 109.171 125.071 110.376 118.946C111.581 112.821 107.793 106.848 101.816 105.672C95.8393 104.496 90.0706 108.589 88.8656 114.714C87.6606 120.839 91.4485 126.813 97.4255 127.989Z" fill="url(#paint0_radial)" stroke="#1D1D1D" stroke-width="2"/>
<path d="M39.2194 123.091C45.1964 124.267 50.965 120.173 52.1701 114.048C53.3751 107.923 49.5871 101.95 43.6102 100.774C37.6332 99.5979 31.8646 103.691 30.6596 109.816C29.4545 115.941 33.2425 121.915 39.2194 123.091Z" fill="url(#paint1_radial)" stroke="#1D1D1D" stroke-width="2"/>
<circle cx="96.405" cy="119.479" r="5.48227" transform="rotate(-8.72807 96.405 119.479)" fill="#636363"/>
<circle cx="43.7424" cy="113.474" r="5.48227" transform="rotate(-8.72807 43.7424 113.474)" fill="#636363"/>
<path d="M70.2906 132.4C70.2906 135.719 68.1696 138.542 65.2091 139.589C64.4144 139.869 63.5593 140.022 62.6684 140.022C58.5243 140.022 55.1527 136.715 55.0486 132.596C55.047 132.531 55.0461 132.466 55.0461 132.4C55.0461 128.19 58.4587 124.778 62.6684 124.778C66.878 124.778 70.2906 128.19 70.2906 132.4Z" fill="#614B32"/>
<path d="M62.6684 140.022C58.5243 140.022 55.1527 136.715 55.0486 132.596C55.0368 135.193 53.2944 140.022 46.269 140.022C39.3022 140.022 36.2354 138.583 35.4826 137.792C39.2468 142.044 50.3346 148.242 65.2091 139.589C64.4144 139.869 63.5593 140.022 62.6684 140.022Z" fill="#614B32"/>
<path d="M65.7846 131.445C65.4862 134.75 67.3449 137.753 70.1993 139.061C70.9656 139.412 71.8035 139.642 72.6908 139.722C76.8181 140.094 80.4733 137.104 80.9472 133.011C80.9547 132.946 80.9614 132.881 80.9673 132.815C81.3457 128.623 78.2537 124.917 74.0611 124.539C69.8685 124.16 66.163 127.253 65.7846 131.445Z" fill="#7C654A"/>
<path d="M72.6908 139.722C76.8181 140.094 80.4733 137.104 80.9472 133.011C80.7256 135.598 82.0268 140.564 89.0238 141.196C95.9624 141.822 99.1461 140.664 99.967 139.944C95.8358 143.84 84.2359 149.017 70.1993 139.061C70.9656 139.412 71.8035 139.642 72.6908 139.722Z" fill="#7C654A"/>
<path d="M36.799 164.737C37.5915 163.98 38.5325 163.287 39.5598 162.658C39.5882 162.64 39.6166 162.623 39.6451 162.606C40.6151 161.988 42.704 159.801 43.9593 155.498C45.2528 151.063 48.5018 147.49 49.9647 146.258L47.193 144.411C42.1115 147.952 32.1333 156.329 32.8724 161.503C33.6115 166.677 36.8759 167.348 38.4157 167.036C36.2931 166.77 35.3872 166.084 36.799 164.737Z" fill="#45D7B0"/>
<path d="M50.9329 139.344C52.7668 138.188 55.1909 138.737 56.3473 140.571C57.5038 142.405 56.9546 144.829 55.1207 145.985L54.2181 146.555C51.8857 148.026 48.8025 147.327 47.3317 144.995L46.9923 144.456C46.3377 143.418 46.6485 142.046 47.6866 141.392L50.9329 139.344Z" fill="#45D7B0"/>
<path d="M94.2117 162.486C94.2117 159.264 91.442 156.653 88.0254 156.653C84.6091 156.653 81.8394 159.264 81.8394 162.486C81.8394 165.708 84.6091 168.319 88.0254 168.319C89.2022 170.246 92.4927 174.177 97.2932 176.667C97.655 178.987 98.8171 182.129 101.565 185.926C101.829 186.234 102.32 186.616 102.865 187.039C103.577 187.594 104.383 188.22 104.893 188.847C104.036 189.708 103.833 191.07 104.481 192.164L105.443 193.791C106.563 195.684 109.006 196.311 110.9 195.191C112.793 194.07 113.42 191.627 112.3 189.734L110.634 186.918C110.254 186.276 109.426 186.064 108.785 186.443L108.755 186.461C107.897 181.528 106.139 173.484 104.446 172.354C104.224 170.598 102.771 169.226 100.979 169.131C99.358 166.744 96.789 163.637 94.2117 162.486Z" fill="#2AAC89"/>
<defs>
<radialGradient id="paint0_radial" cx="0" cy="0" r="1" gradientUnits="userSpaceOnUse" gradientTransform="translate(95.254 115.36) rotate(46.8954) scale(18.1897 13.9483)">
<stop stop-color="white"/>
<stop offset="1" stop-color="#E7E7E7"/>
</radialGradient>
<radialGradient id="paint1_radial" cx="0" cy="0" r="1" gradientUnits="userSpaceOnUse" gradientTransform="translate(37.0479 110.462) rotate(46.8954) scale(18.1897 13.9483)">
<stop stop-color="white"/>
<stop offset="1" stop-color="#E7E7E7"/>
</radialGradient>
</defs>
</svg>
