<svg width="255" height="290" viewBox="0 0 255 290" fill="none" xmlns="http://www.w3.org/2000/svg">
<path d="M182.962 60.3225L135.561 69.9782L135.257 70.0401L135.042 70.2627C132.107 73.2954 129.193 76.7282 126.32 80.4822C122.655 84.331 119.309 88.5787 116.201 93.1564C112.303 93.5417 108.359 95.985 105.761 99.9074C102.722 104.495 102.253 110.018 104.389 114.01C102.076 118.78 99.8597 123.74 97.685 128.845C97.3364 129.054 97.0082 129.276 96.7042 129.511C91.5481 128.262 86.9431 127.486 82.9522 128.336C80.0592 128.952 77.5573 130.402 75.4063 132.971C75.4464 131.272 75.1796 129.714 74.6605 128.195C73.7034 125.396 71.8978 122.782 69.8086 119.758L69.7503 119.673C68.3411 117.633 66.7766 115.368 65.1637 112.652C66.1863 111.521 66.9151 110.106 67.2148 108.518L68.6243 101.049C69.5211 96.2976 66.2888 91.7526 61.506 91.04L59.9934 90.8146C54.641 90.0171 49.9104 94.3456 50.2304 99.7477L50.9921 112.602C50.9073 116.798 50.4956 120.694 50.1128 124.311L50.109 124.346C49.7585 127.658 49.4298 130.764 49.4225 133.592C49.4151 136.436 49.7304 139.075 50.7166 141.441C52.7294 146.268 57.3676 149.588 66.478 151.539C70.6043 152.423 74.3216 153.741 77.8243 154.985L77.8756 155.003C80.8038 156.043 83.6124 157.04 86.3296 157.635L75.1821 189.396C74.3038 191.898 74.2731 194.546 74.9953 196.953C73.3794 197.385 72.2239 198.126 71.5465 199.171C65.5611 202.572 57.9375 216.1 67.1119 244.807C62.5272 244.1 57.853 244.072 53.2406 244.731C51.8382 244.932 50.6991 245.966 50.3644 247.342L50.1029 248.418C49.3598 251.474 51.5332 254.467 54.6691 254.707L69.0733 255.809C72.0117 256.033 74.6801 254.096 75.3763 251.233L76.1654 247.988L76.3939 247.048L75.9366 246.92C76.7031 243.67 77.8087 239.591 78.9571 235.948C79.5875 233.948 80.2269 232.091 80.8265 230.58C81.4384 229.038 81.973 227.95 82.3752 227.415C83.4078 226.04 84.3736 223.502 85.1172 220.984C85.7022 219.004 86.1811 216.924 86.4583 215.223C89.1896 216.488 92.0328 217.71 94.7811 218.748C96.8543 225.166 99.8252 232.902 103.159 237.886C104.772 240.297 106.474 241.567 108.247 241.688C113.825 245.089 128.109 245.349 147.189 226.612C148.738 230.329 150.759 233.841 153.211 237.059C154.07 238.186 155.528 238.677 156.893 238.299L157.96 238.003C160.99 237.162 162.545 233.806 161.227 230.951L155.169 217.836C154.396 216.162 152.936 214.993 151.256 214.545L151.162 213.702L150.008 214.057C149.642 214.169 149.253 214.286 148.845 214.405C148.597 214.441 148.349 214.493 148.102 214.562L148.369 215.525L148.102 214.562L144.884 215.454L143.951 215.712L143.955 215.728C140.92 216.495 137.608 217.242 134.702 217.776C133.095 218.072 131.623 218.301 130.396 218.433C129.146 218.567 128.229 218.592 127.691 218.517C126.161 218.305 123.835 218.596 121.519 219.072C122.248 218.436 122.883 217.729 123.421 216.97C127.38 216.079 130.717 213.153 132.125 209.142L142.471 179.662L143.67 177.126L144.443 175.491L143.913 175.554L145.607 170.727C145.749 170.439 145.889 170.153 146.029 169.869C149.955 170.005 153.729 168.993 156.057 167.333C161.162 168.774 165.735 169.723 169.755 169.025C172.669 168.518 175.224 167.163 177.47 164.678C177.366 166.374 177.574 167.941 178.035 169.478C178.886 172.311 180.592 174.991 182.566 178.092L182.621 178.179C183.952 180.27 185.43 182.593 186.939 185.368C185.875 186.46 185.093 187.846 184.734 189.422L183.044 196.832C181.969 201.547 185.027 206.21 189.78 207.102L191.283 207.385C196.602 208.383 201.492 204.236 201.376 198.826L201.099 185.952C201.342 181.762 201.9 177.885 202.419 174.284L202.424 174.249C202.899 170.953 203.345 167.862 203.459 165.036C203.573 162.194 203.358 159.545 202.461 157.144C200.632 152.245 196.122 148.752 187.092 146.459C183.002 145.42 179.336 143.963 175.883 142.588L175.729 142.527C171.044 140.662 166.642 138.909 162.265 138.864C164.997 134.114 166.988 130.975 168.608 128.421L168.608 128.42L168.62 128.401C170.191 125.923 171.434 123.964 172.658 121.616L172.723 121.577L172.846 121.277L172.9 121.147C172.97 121.01 173.039 120.873 173.108 120.733L173.141 120.668L173.164 120.598L173.305 120.166L191.683 75.6508L191.707 75.6785L192.351 74.2361L199.53 58.1642L200.348 56.3332L198.393 56.7817L182.962 60.3225Z" fill="#1D1D1D" stroke="#1D1D1D" stroke-width="2"/>
<path d="M101.339 153.119C94.9285 149.231 93.0642 137.011 96.9522 130.6C100.376 127.591 109.008 126.016 115.419 129.904C121.829 133.792 123.875 142.14 119.987 148.551C116.099 154.962 107.75 157.007 101.339 153.119Z" fill="#D16262"/>
<path d="M101.339 153.119C94.9285 149.231 93.0642 137.011 96.9522 130.6C84.7767 127.605 76.7249 127.335 71.5842 142.486L66.687 150.561C81.3499 153.701 90.8494 162.22 101.339 153.119Z" fill="#D16262"/>
<path d="M66.687 150.561L71.5842 142.486C78.4889 128.417 71.5219 125.743 63.731 112.182C55.9401 98.6209 56.0097 102.985 57.3968 102.216L51.7685 105.3C53.8243 129.347 41.2078 145.104 66.687 150.561Z" fill="#D16262"/>
<path d="M62.3549 92.1771C66.0323 92.725 68.5175 96.2195 67.828 99.873L66.0794 109.139C65.4858 112.284 62.7071 114.54 59.5072 114.474L52.0953 114.323L51.1575 98.4955C50.9114 94.342 54.5486 91.014 58.6639 91.6271L62.3549 92.1771Z" fill="#D16262"/>
<path d="M101.435 189.417C105.205 190.935 107.671 194.308 108.206 198.061C108.469 199.908 108.265 201.847 107.518 203.702C105.253 209.326 98.8582 212.049 93.2339 209.784C87.6097 207.52 84.8864 201.124 87.1511 195.5C89.4158 189.876 95.8111 187.153 101.435 189.417Z" fill="#D292C8"/>
<path d="M107.518 203.702C105.253 209.326 98.8582 212.049 93.2339 209.784C94.7358 215.851 98.9898 229.854 103.991 237.33C105.629 239.78 107.171 240.708 108.552 240.697C111.387 240.676 113.55 236.706 114.505 233.826C114.522 230.734 114.427 226.626 114.146 222.284C113.491 212.17 111.825 200.792 108.206 198.061C108.469 199.908 108.265 201.847 107.518 203.702Z" fill="#D292C8"/>
<path d="M114.505 233.826C113.55 236.706 111.387 240.676 108.552 240.697C113.712 244.086 129.424 244.932 150.994 221.208L150.303 215.012C143.895 216.984 131.003 219.986 127.554 219.508C124.543 219.09 117.44 220.886 114.146 222.284C114.427 226.626 114.522 230.734 114.505 233.826Z" fill="#D292C8"/>
<path d="M156.626 237.335C155.655 237.604 154.618 237.255 154.007 236.453C150.13 231.364 147.353 225.526 145.85 219.308L145.151 216.417L148.898 215.378C150.961 214.806 153.134 215.813 154.031 217.756L160.319 231.37C161.379 233.665 160.129 236.363 157.693 237.039L156.626 237.335Z" fill="#D292C8"/>
<path d="M82.9902 170.167C101.048 180.53 112.263 185.435 137.971 189.464L130.794 209.912C129.268 214.259 124.915 216.991 120.359 216.3C102.625 213.608 92.1234 209.649 79.7046 202.163C75.8359 199.831 74.2526 195.063 75.7486 190.801L82.9902 170.167Z" fill="#EBB9E3"/>
<path d="M135.759 70.9582C120.835 90.4741 101.843 120.7 89.7017 151.044C107.958 165.328 133.962 169.86 144.682 170.341C158.403 120.026 154.21 131.833 171.921 120.896L197.751 58.3304L135.759 70.9582Z" fill="#EEDAB3"/>
<path fill-rule="evenodd" clip-rule="evenodd" d="M132.315 76.1237C112.799 93.0966 101.844 120.699 89.7021 151.043C94.1148 154.496 98.9801 157.378 103.973 159.772C111.834 163.541 119.438 166.097 126.662 167.754C138.758 135.161 130.809 131.512 154.374 114.211L160.082 93.0966L139.863 96.6381L132.779 76.0754L132.315 76.1237Z" fill="#F08181"/>
<path d="M176.513 107.12L154.374 114.211C130.809 131.512 138.758 135.161 126.662 167.754C133.83 169.399 140.06 170.158 144.109 170.34C161.825 122.412 152.76 134.731 172.213 120.287L176.513 107.12Z" fill="#F08181"/>
<path fill-rule="evenodd" clip-rule="evenodd" d="M135.759 70.9581C118.54 88.7518 101.844 120.699 89.7025 151.043C94.1152 154.495 98.9805 157.378 103.973 159.772C111.835 163.54 120.012 166.096 127.236 167.754C139.332 135.161 130.809 131.512 154.374 114.211L159.508 93.0967L139.289 96.6382L136.224 70.9097L135.759 70.9581Z" fill="#F08181"/>
<path d="M176.513 107.12L154.374 114.211C130.809 131.512 139.332 135.161 127.236 167.754C134.405 169.398 140.634 170.158 144.683 170.34C162.399 122.412 152.76 134.731 172.212 120.287L176.513 107.12Z" fill="#F08181"/>
<path d="M176.513 107.12L154.374 114.212C139.289 131.228 139.332 135.162 127.235 167.754C134.404 169.399 140.634 170.159 144.683 170.34C163.885 131.228 167.903 128.932 172.213 120.287L176.513 107.12Z" fill="#D05D5D"/>
<path fill-rule="evenodd" clip-rule="evenodd" d="M139.778 96.2143C127.236 110.564 115.512 125.184 103.973 159.772C111.835 163.541 120.012 166.097 127.236 167.754C139.332 135.162 141.5 130.08 154.863 113.787L159.997 92.6728L139.778 96.2143Z" fill="#E47272"/>
<path d="M89.7021 151.044C107.76 161.406 118.975 166.312 144.683 170.341L134.895 198.229C108.849 195.113 97.3425 190.365 79.914 178.933L89.7021 151.044Z" fill="#D9D9D9"/>
<path d="M138.629 187.48C125.929 189 100.916 176.3 91.5805 170.284C90.6588 169.69 89.4101 170.024 88.9436 171.017C88.5713 171.809 88.8373 172.755 89.575 173.225C109.056 185.651 132.127 192.063 136.907 191.497L138.629 187.48Z" fill="#AEAEAE"/>
<path d="M142.765 176.699C130.065 178.219 104.293 166.549 94.8578 160.67C93.9271 160.09 92.6771 160.425 92.2107 161.418C91.8384 162.209 92.1044 163.156 92.8443 163.623C112.368 175.948 136.432 180.03 140.925 180.591L142.765 176.699Z" fill="#AEAEAE"/>
<path d="M152.314 143.566C158.573 147.693 159.976 159.975 155.849 166.234C152.314 169.112 143.629 170.361 137.369 166.234C131.11 162.108 129.381 153.688 133.507 147.428C137.634 141.168 146.054 139.439 152.314 143.566Z" fill="#F08181"/>
<path d="M152.314 143.566C158.573 147.693 159.976 159.975 155.849 166.234C167.903 169.686 175.939 170.26 181.647 155.313L186.845 147.429C172.311 143.738 163.139 134.867 152.314 143.566Z" fill="#F08181"/>
<path d="M186.845 147.429L181.647 155.313C174.217 169.112 181.078 172.047 188.352 185.892C195.627 199.737 195.722 195.373 194.306 196.089L200.047 193.219C198.899 169.112 212.1 153.841 186.845 147.429Z" fill="#F08181"/>
<path d="M188.974 205.934C185.32 205.248 182.968 201.662 183.795 198.037L185.891 188.844C186.603 185.724 189.465 183.574 192.66 183.76L200.061 184.19L200.402 200.042C200.491 204.202 196.731 207.39 192.642 206.623L188.974 205.934Z" fill="#F08181"/>
<path d="M120.558 218.573C117.402 221.132 113.256 221.653 109.715 220.3C107.972 219.634 106.376 218.515 105.116 216.962C101.297 212.253 102.018 205.34 106.727 201.52C111.436 197.701 118.349 198.422 122.169 203.131C125.988 207.84 125.267 214.753 120.558 218.573Z" fill="#F6CAEF"/>
<path d="M105.116 216.962C101.297 212.253 102.018 205.34 106.727 201.52C100.693 199.89 86.3846 196.817 77.4212 197.563C74.4841 197.808 72.9251 198.705 72.2638 199.918C70.9071 202.407 73.3299 206.225 75.3843 208.458C78.0799 209.972 81.7186 211.882 85.6512 213.743C94.8132 218.076 105.571 222.14 109.715 220.3C107.972 219.634 106.376 218.515 105.116 216.962Z" fill="#F6CAEF"/>
<path d="M75.3843 208.458C73.3299 206.225 70.9071 202.407 72.2638 199.918C66.7977 202.786 58.4356 216.116 68.7161 246.486L74.4694 248.887C75.854 242.328 79.4832 229.598 81.5747 226.814C83.4008 224.384 85.2762 217.302 85.6512 213.743C81.7186 211.882 78.0799 209.972 75.3843 208.458Z" fill="#F6CAEF"/>
<path d="M51.3357 247.579C51.5738 246.599 52.3841 245.864 53.3817 245.721C59.7146 244.816 66.1665 245.235 72.3288 246.953L75.1933 247.752L74.2745 251.53C73.7688 253.61 71.8308 255.017 69.6968 254.854L54.745 253.71C52.224 253.517 50.4768 251.111 51.0742 248.654L51.3357 247.579Z" fill="#F6CAEF"/>
<path d="M191.437 73.8282L181.105 61.7743L198.617 57.7563L191.437 73.8282Z" fill="#636363"/>
<path d="M107.745 117.072C112.751 120.389 119.981 117.938 123.945 111.955C127.909 105.972 127.346 98.3585 122.34 95.0416C117.333 91.7246 110.103 94.1748 106.139 100.158C102.175 106.142 102.738 113.755 107.745 117.072Z" fill="url(#paint0_radial)" stroke="#1D1D1D" stroke-width="1.09205"/>
<path d="M136.444 136.587C141.451 139.904 148.681 137.454 152.645 131.471C156.609 125.487 156.046 117.874 151.039 114.557C146.033 111.24 138.803 113.69 134.839 119.674C130.875 125.657 131.438 133.27 136.444 136.587Z" fill="url(#paint1_radial)" stroke="#1D1D1D" stroke-width="1.09205"/>
<circle cx="111.31" cy="106.649" r="5.63485" transform="rotate(13.6664 111.31 106.649)" fill="#636363"/>
<circle cx="145.434" cy="129.721" r="5.63485" transform="rotate(13.6664 145.434 129.721)" fill="#636363"/>
<g filter="url(#filter0_f)">
<ellipse cx="110.504" cy="254.637" rx="88.9693" ry="13.2019" fill="#434343" fill-opacity="0.2"/>
</g>
<path d="M101.34 153.119C94.929 149.231 93.0647 137.011 96.9526 130.6C100.377 127.591 109.008 126.016 115.419 129.904C121.83 133.792 123.875 142.14 119.987 148.551C116.099 154.962 107.75 157.007 101.34 153.119Z" fill="#D16262"/>
<path d="M101.34 153.119C94.929 149.231 93.0647 137.011 96.9526 130.6C84.7772 127.605 76.7254 127.335 71.5846 142.486L66.6874 150.561C81.3504 153.701 90.8499 162.22 101.34 153.119Z" fill="#D16262"/>
<path d="M66.6874 150.561L71.5846 142.486C78.4894 128.417 71.5224 125.743 63.7315 112.182C55.9406 98.6209 56.0102 102.985 57.3973 102.216L51.769 105.3C53.8248 129.347 41.2083 145.104 66.6874 150.561Z" fill="#D16262"/>
<path d="M62.3554 92.1771C66.0328 92.725 68.518 96.2195 67.8285 99.873L66.0799 109.139C65.4863 112.284 62.7076 114.54 59.5077 114.474L52.0958 114.323L51.1579 98.4955C50.9118 94.342 54.5491 91.014 58.6644 91.6271L62.3554 92.1771Z" fill="#D16262"/>
<path d="M101.435 189.417C105.205 190.935 107.671 194.308 108.206 198.061C108.469 199.908 108.265 201.847 107.518 203.702C105.253 209.326 98.8582 212.049 93.2339 209.784C87.6097 207.52 84.8864 201.124 87.1511 195.5C89.4158 189.876 95.8111 187.153 101.435 189.417Z" fill="#D292C8"/>
<path d="M107.518 203.702C105.253 209.326 98.8582 212.049 93.2339 209.784C94.7358 215.851 98.9898 229.854 103.991 237.33C105.629 239.78 107.171 240.708 108.552 240.697C111.387 240.676 113.55 236.706 114.505 233.826C114.522 230.734 114.427 226.626 114.146 222.284C113.491 212.17 111.825 200.792 108.206 198.061C108.469 199.908 108.265 201.847 107.518 203.702Z" fill="#D292C8"/>
<path d="M114.505 233.826C113.55 236.706 111.387 240.676 108.552 240.697C113.712 244.086 129.424 244.932 150.994 221.208L150.303 215.012C143.895 216.984 131.003 219.986 127.554 219.508C124.543 219.09 117.44 220.886 114.146 222.284C114.427 226.626 114.522 230.734 114.505 233.826Z" fill="#D292C8"/>
<path d="M156.626 237.335C155.655 237.604 154.618 237.255 154.007 236.453C150.13 231.364 147.353 225.526 145.85 219.308L145.151 216.417L148.898 215.378C150.961 214.806 153.134 215.813 154.031 217.756L160.319 231.37C161.379 233.665 160.129 236.363 157.693 237.039L156.626 237.335Z" fill="#D292C8"/>
<path d="M82.9907 170.167C101.049 180.53 112.263 185.435 137.971 189.464L130.795 209.912C129.269 214.259 124.915 216.991 120.36 216.3C102.625 213.608 92.1239 209.649 79.7051 202.163C75.8364 199.831 74.2531 195.063 75.7491 190.801L82.9907 170.167Z" fill="#EBB9E3"/>
<path d="M135.76 70.9582C120.836 90.4741 101.844 120.7 89.7027 151.044C107.959 165.328 133.963 169.86 144.683 170.341C158.404 120.026 154.211 131.833 171.922 120.896L197.752 58.3304L135.76 70.9582Z" fill="#EEDAB3"/>
<path fill-rule="evenodd" clip-rule="evenodd" d="M132.316 76.1242C112.8 93.0971 101.845 120.7 89.7031 151.044C94.1158 154.496 98.9811 157.379 103.974 159.772C111.835 163.541 119.439 166.097 126.663 167.754C138.759 135.162 130.81 131.513 154.375 114.212L160.083 93.097L139.864 96.6386L132.78 76.0759L132.316 76.1242Z" fill="#F08181"/>
<path d="M176.514 107.12L154.375 114.212C130.81 131.513 138.759 135.162 126.663 167.754C133.831 169.399 140.061 170.159 144.11 170.341C161.826 122.413 152.761 134.732 172.214 120.287L176.514 107.12Z" fill="#F08181"/>
<path fill-rule="evenodd" clip-rule="evenodd" d="M135.76 70.9581C118.54 88.7518 101.845 120.699 89.703 151.043C94.1157 154.495 98.981 157.378 103.974 159.772C111.835 163.54 120.013 166.096 127.236 167.754C139.333 135.161 130.81 131.512 154.374 114.211L159.508 93.0967L139.289 96.6382L136.224 70.9097L135.76 70.9581Z" fill="#F08181"/>
<path d="M176.513 107.12L154.374 114.211C130.81 131.512 139.333 135.161 127.236 167.754C134.405 169.398 140.635 170.158 144.684 170.34C162.4 122.412 152.761 134.731 172.213 120.287L176.513 107.12Z" fill="#F08181"/>
<path d="M176.514 107.12L154.375 114.212C139.29 131.228 139.333 135.162 127.236 167.754C134.405 169.399 140.635 170.159 144.684 170.34C163.886 131.228 167.904 128.932 172.214 120.287L176.514 107.12Z" fill="#D05D5D"/>
<path fill-rule="evenodd" clip-rule="evenodd" d="M139.778 96.2143C127.236 110.564 115.512 125.184 103.973 159.772C111.835 163.541 120.012 166.097 127.236 167.754C139.332 135.162 141.5 130.08 154.863 113.787L159.997 92.6728L139.778 96.2143Z" fill="#E47272"/>
<path d="M89.7026 151.044C107.761 161.406 118.975 166.312 144.683 170.341L134.895 198.229C108.849 195.113 97.343 190.365 79.9145 178.933L89.7026 151.044Z" fill="#D9D9D9"/>
<path d="M138.63 187.48C125.93 189 100.917 176.3 91.5815 170.284C90.6598 169.69 89.411 170.024 88.9446 171.017C88.5723 171.809 88.8383 172.755 89.576 173.225C109.057 185.651 132.128 192.063 136.908 191.497L138.63 187.48Z" fill="#AEAEAE"/>
<path d="M142.766 176.699C130.065 178.22 104.294 166.549 94.8583 160.67C93.9276 160.09 92.6776 160.426 92.2112 161.418C91.8389 162.21 92.1049 163.157 92.8448 163.624C112.368 175.948 136.433 180.03 140.926 180.592L142.766 176.699Z" fill="#AEAEAE"/>
<path d="M152.314 143.566C158.573 147.692 159.976 159.974 155.849 166.234C152.314 169.111 143.629 170.361 137.369 166.234C131.11 162.107 129.381 153.687 133.507 147.428C137.634 141.168 146.054 139.439 152.314 143.566Z" fill="#F08181"/>
<path d="M152.314 143.566C158.573 147.692 159.976 159.974 155.849 166.234C167.903 169.685 175.939 170.259 181.647 155.313L186.845 147.428C172.311 143.738 163.139 134.866 152.314 143.566Z" fill="#F08181"/>
<path d="M186.845 147.428L181.647 155.313C174.217 169.111 181.078 172.046 188.352 185.891C195.627 199.736 195.722 195.372 194.306 196.089L200.047 193.219C198.899 169.111 212.1 153.841 186.845 147.428Z" fill="#F08181"/>
<path d="M188.974 205.933C185.32 205.247 182.968 201.662 183.795 198.037L185.891 188.844C186.603 185.723 189.465 183.573 192.66 183.759L200.061 184.189L200.402 200.042C200.491 204.201 196.731 207.39 192.642 206.622L188.974 205.933Z" fill="#F08181"/>
<path d="M120.558 218.573C117.403 221.132 113.256 221.653 109.715 220.3C107.973 219.634 106.376 218.515 105.117 216.962C101.297 212.253 102.018 205.34 106.727 201.52C111.436 197.701 118.35 198.422 122.169 203.131C125.988 207.84 125.267 214.753 120.558 218.573Z" fill="#F6CAEF"/>
<path d="M105.117 216.962C101.297 212.253 102.018 205.34 106.727 201.52C100.694 199.89 86.3851 196.817 77.4217 197.563C74.4846 197.808 72.9256 198.705 72.2643 199.918C70.9076 202.407 73.3304 206.225 75.3848 208.458C78.0804 209.972 81.7191 211.882 85.6517 213.743C94.8137 218.076 105.571 222.14 109.715 220.3C107.973 219.634 106.376 218.515 105.117 216.962Z" fill="#F6CAEF"/>
<path d="M75.3848 208.458C73.3304 206.225 70.9076 202.407 72.2643 199.918C66.7982 202.786 58.436 216.116 68.7166 246.486L74.4699 248.887C75.8545 242.328 79.4837 229.598 81.5752 226.814C83.4013 224.384 85.2767 217.302 85.6517 213.743C81.7191 211.882 78.0804 209.972 75.3848 208.458Z" fill="#F6CAEF"/>
<path d="M51.3362 247.579C51.5743 246.599 52.3846 245.864 53.3822 245.721C59.7151 244.816 66.167 245.235 72.3293 246.953L75.1937 247.752L74.275 251.53C73.7693 253.61 71.8313 255.017 69.6973 254.854L54.7455 253.71C52.2245 253.517 50.4773 251.111 51.0747 248.654L51.3362 247.579Z" fill="#F6CAEF"/>
<path d="M191.438 73.8282L181.106 61.7743L198.618 57.7563L191.438 73.8282Z" fill="#D05D5D"/>
<path d="M107.745 117.071C112.751 120.388 119.981 117.938 123.945 111.955C127.909 105.971 127.346 98.358 122.34 95.0411C117.333 91.7241 110.103 94.1743 106.139 100.158C102.175 106.141 102.738 113.754 107.745 117.071Z" fill="url(#paint2_radial)" stroke="#1D1D1D" stroke-width="1.09205"/>
<path d="M136.445 136.587C141.451 139.904 148.681 137.454 152.645 131.471C156.609 125.487 156.047 117.874 151.04 114.557C146.033 111.24 138.803 113.69 134.839 119.674C130.875 125.657 131.438 133.27 136.445 136.587Z" fill="url(#paint3_radial)" stroke="#1D1D1D" stroke-width="1.09205"/>
<circle cx="111.31" cy="106.65" r="5.63485" transform="rotate(13.6664 111.31 106.65)" fill="#636363"/>
<circle cx="145.434" cy="129.721" r="5.63485" transform="rotate(13.6664 145.434 129.721)" fill="#636363"/>
<defs>
<filter id="filter0_f" x="15.5347" y="235.435" width="189.939" height="38.4038" filterUnits="userSpaceOnUse" color-interpolation-filters="sRGB">
<feFlood flood-opacity="0" result="BackgroundImageFix"/>
<feBlend mode="normal" in="SourceGraphic" in2="BackgroundImageFix" result="shape"/>
<feGaussianBlur stdDeviation="3" result="effect1_foregroundBlur"/>
</filter>
<radialGradient id="paint0_radial" cx="0" cy="0" r="1" gradientUnits="userSpaceOnUse" gradientTransform="translate(111.572 102.88) rotate(74.3751) scale(19.8496 15.8797)">
<stop stop-color="white"/>
<stop offset="1" stop-color="#E7E7E7"/>
</radialGradient>
<radialGradient id="paint1_radial" cx="0" cy="0" r="1" gradientUnits="userSpaceOnUse" gradientTransform="translate(140.272 122.395) rotate(74.3751) scale(19.8496 15.8797)">
<stop stop-color="white"/>
<stop offset="1" stop-color="#E7E7E7"/>
</radialGradient>
<radialGradient id="paint2_radial" cx="0" cy="0" r="1" gradientUnits="userSpaceOnUse" gradientTransform="translate(111.572 102.879) rotate(74.3751) scale(19.8496 15.8797)">
<stop stop-color="white"/>
<stop offset="1" stop-color="#E7E7E7"/>
</radialGradient>
<radialGradient id="paint3_radial" cx="0" cy="0" r="1" gradientUnits="userSpaceOnUse" gradientTransform="translate(140.272 122.395) rotate(74.3751) scale(19.8496 15.8797)">
<stop stop-color="white"/>
<stop offset="1" stop-color="#E7E7E7"/>
</radialGradient>
</defs>
</svg>
