<svg width="149" height="168" viewBox="0 0 149 168" fill="none" xmlns="http://www.w3.org/2000/svg">
<path d="M101.479 70.3827L101.632 70.2689L101.691 70.0873L102.46 67.7325L112.135 44.2969L112.149 44.3122L112.535 43.4468L116.699 34.1256L117.19 33.027L116.017 33.2961L107.067 35.3496L79.5761 40.9496L79.394 40.9867L79.2647 41.1203C77.5622 42.8795 75.872 44.8708 74.2055 47.0482C73.6375 47.6446 73.0828 48.2575 72.5403 48.8862C70.0705 50.8358 68.0284 52.8443 66.3081 54.9144C64.7675 55.5542 63.3336 56.7264 62.2803 58.3162C61.122 60.0646 60.6058 62.0478 60.7384 63.8613C59.0446 67.5422 57.8259 71.3855 56.6004 75.3699C53.7906 74.71 51.2673 74.3266 49.0645 74.7955C47.398 75.1502 45.9552 75.9813 44.7134 77.447C44.7296 76.4815 44.5748 75.5931 44.2787 74.7271C43.7227 73.1008 42.6741 71.5829 41.4633 69.8302L41.4284 69.7797C40.6133 68.5997 39.709 67.2903 38.7766 65.7211C39.3669 65.0645 39.7875 64.2447 39.9611 63.3251L40.7786 58.9933C41.3008 56.2263 39.4186 53.5796 36.6334 53.1646L35.7562 53.0339C32.6393 52.5695 29.8846 55.0901 30.071 58.2358L30.5127 65.6903C30.4635 68.1225 30.2248 70.3808 30.0028 72.4786L30.0005 72.4998C29.7973 74.42 29.6066 76.2221 29.6023 77.8636C29.5981 79.5141 29.781 81.048 30.3545 82.4232C31.5255 85.2317 34.2233 87.1598 39.5099 88.2919C41.9016 88.8041 44.0564 89.5683 46.0879 90.2896L46.2887 89.7241L46.0879 90.2896L46.1187 90.3005C47.8083 90.9003 49.4308 91.4763 51.0011 91.8223L44.5433 110.221L45.1095 110.42L44.5433 110.221C44.0349 111.67 44.0148 113.203 44.4288 114.597C43.5008 114.848 42.8334 115.277 42.4396 115.882C38.9581 117.865 34.5485 125.716 39.8528 142.34C37.2021 141.935 34.5002 141.92 31.834 142.301C31.0125 142.419 30.3453 143.024 30.1492 143.831L29.9975 144.454C29.5636 146.239 30.8327 147.987 32.6637 148.127L41.0178 148.766C42.7317 148.897 44.2882 147.767 44.6943 146.096L45.152 144.215L45.2891 143.651L45.0237 143.577C45.468 141.695 46.107 139.339 46.7707 137.233C47.1362 136.073 47.5069 134.997 47.8544 134.121C48.2094 133.227 48.5186 132.598 48.75 132.29C49.3513 131.49 49.9122 130.015 50.3435 128.554C50.68 127.415 50.9561 126.219 51.1176 125.237C52.6917 125.965 54.3293 126.668 55.913 127.267C57.1154 130.988 58.8379 135.472 60.7716 138.362C61.7068 139.76 62.6968 140.503 63.733 140.576C66.9808 142.552 75.2645 142.691 86.3171 131.848C87.2145 133.994 88.384 136.024 89.8011 137.884C90.3039 138.544 91.158 138.831 91.9577 138.61L92.5763 138.438C94.3459 137.947 95.2538 135.987 94.4838 134.32L90.9707 126.714C90.5217 125.742 89.6755 125.062 88.7017 124.798L88.6459 124.299L87.9535 124.512C87.7415 124.577 87.5166 124.644 87.2806 124.713C87.1361 124.734 86.9917 124.764 86.8482 124.804L84.9818 125.322L84.4225 125.477L84.4246 125.485C82.6698 125.928 80.7573 126.359 79.0785 126.668C78.1465 126.84 77.2934 126.972 76.5828 127.049C75.858 127.127 75.3281 127.141 75.0189 127.098C74.144 126.976 72.825 127.137 71.5058 127.405C71.9043 127.05 72.2532 126.658 72.5514 126.238C74.8511 125.718 76.7883 124.017 77.6062 121.687L83.6068 104.59L84.3014 103.121L84.7652 102.14L84.4539 102.177L85.4254 99.4087C85.5054 99.2459 85.5849 99.0841 85.6639 98.9235C87.935 98.9995 90.1187 98.4153 91.4711 97.4539C94.4284 98.2886 97.0812 98.8388 99.4152 98.4332C101.094 98.1416 102.567 97.3654 103.863 95.9475C103.811 96.9117 103.932 97.8054 104.195 98.6819C104.689 100.328 105.68 101.884 106.824 103.681L106.857 103.733C107.627 104.943 108.481 106.286 109.354 107.889C108.739 108.523 108.288 109.326 108.08 110.239L107.1 114.536C106.474 117.282 108.255 119.998 111.022 120.517L111.894 120.681C114.991 121.262 117.839 118.847 117.771 115.697L117.611 108.231C117.751 105.803 118.075 103.555 118.376 101.467L118.379 101.446C118.655 99.5345 118.913 97.7409 118.979 96.1008C119.046 94.4516 118.921 92.9119 118.399 91.516C117.335 88.6654 114.712 86.637 109.472 85.3064C107.101 84.7045 104.976 83.8596 102.973 83.0623L102.882 83.0257C100.178 81.9496 97.6333 80.9364 95.1025 80.9017C96.6778 78.1637 97.8272 76.3511 98.7634 74.8748L98.7707 74.8633C99.6808 73.4281 100.401 72.2922 101.111 70.9321L101.149 70.9084L101.223 70.7289L101.254 70.6539C101.282 70.5984 101.311 70.5426 101.339 70.4863C101.385 70.452 101.432 70.4175 101.479 70.3827ZM61.4787 66.5071C60.651 68.2143 59.8446 69.9637 59.0521 71.7488C59.7142 69.763 60.4132 67.8283 61.2134 65.9397C61.2923 66.1339 61.3808 66.3233 61.4787 66.5071Z" fill="#1D1D1D" stroke="#1D1D1D" stroke-width="1.2"/>
<path d="M59.7327 89.1889C56.0147 86.934 54.9334 79.8466 57.1883 76.1286C59.1743 74.3836 64.1804 73.4697 67.8984 75.7246C71.6165 77.9795 72.8026 82.8216 70.5477 86.5396C68.2928 90.2577 63.4508 91.4438 59.7327 89.1889Z" fill="#D16262"/>
<path d="M59.7327 89.1889C56.0147 86.934 54.9334 79.8466 57.1883 76.1286C50.1269 74.3917 45.4571 74.2346 42.4756 83.022L39.6354 87.7052C48.1395 89.5264 53.6489 94.4673 59.7327 89.1889Z" fill="#D16262"/>
<path d="M39.6354 87.7052L42.4756 83.022C46.4802 74.8623 42.4395 73.3114 37.921 65.4465C33.4025 57.5815 33.4429 60.1127 34.2473 59.6664L30.9831 61.4552C32.1754 75.4021 24.8582 84.5406 39.6354 87.7052Z" fill="#D16262"/>
<path d="M36.1434 53.6983C38.811 54.0957 40.6137 56.6306 40.1136 59.2809L39.715 61.3928C39.1215 64.5378 36.3428 66.7939 33.1429 66.7287L31.1727 66.6885L30.6982 58.6806C30.5197 55.6676 33.1582 53.2535 36.1434 53.6983V53.6983Z" fill="#D16262"/>
<path d="M59.7881 110.241C61.9742 111.121 63.4046 113.077 63.715 115.254C63.8677 116.325 63.7492 117.449 63.316 118.525C62.0025 121.787 58.2934 123.366 55.0315 122.053C51.7697 120.739 50.1902 117.03 51.5037 113.768C52.8171 110.507 56.5262 108.927 59.7881 110.241Z" fill="#D292C8"/>
<path d="M63.316 118.525C62.0025 121.787 58.2934 123.366 55.0315 122.053C55.9026 125.572 58.3698 133.693 61.2701 138.029C62.2205 139.45 63.1144 139.988 63.9157 139.982C65.5597 139.969 66.8142 137.667 67.3684 135.996C67.378 134.203 67.323 131.82 67.1599 129.303C66.78 123.437 65.814 116.838 63.715 115.254C63.8677 116.325 63.7492 117.449 63.316 118.525Z" fill="#D292C8"/>
<path d="M67.3684 135.996C66.8142 137.667 65.5597 139.969 63.9157 139.982C66.9082 141.947 76.0209 142.437 88.5307 128.678L88.1298 125.085C84.4134 126.228 76.9365 127.97 74.9362 127.692C73.1898 127.45 69.0705 128.491 67.1599 129.303C67.323 131.82 67.378 134.203 67.3684 135.996Z" fill="#D292C8"/>
<path d="M91.7972 138.031C91.234 138.188 90.6324 137.985 90.2782 137.52V137.52C88.0299 134.569 86.4189 131.183 85.5472 127.576L85.142 125.9L85.8131 125.714C87.8755 125.142 90.0485 126.149 90.9459 128.092L93.939 134.572C94.5538 135.903 93.8288 137.468 92.4158 137.86L91.7972 138.031Z" fill="#D292C8"/>
<path d="M49.0907 99.0762C59.564 105.086 66.068 107.931 80.9779 110.268L77.9126 119.002C76.3868 123.349 72.0311 126.122 67.5003 125.286C60.3591 123.967 55.2904 122.144 49.9842 119.244C46.0202 117.078 44.4644 112.258 45.9603 107.995L49.0907 99.0762Z" fill="#EBB9E3"/>
<path d="M79.6957 41.5375C71.0403 52.8562 60.0254 70.3864 52.9836 87.9852C63.5717 96.2691 78.6534 98.8979 84.8708 99.1768C92.8287 69.9957 90.3967 76.8435 100.668 70.4999L115.649 34.2137L79.6957 41.5375Z" fill="#EEDAB3"/>
<path fill-rule="evenodd" clip-rule="evenodd" d="M77.698 44.5335C66.3794 54.3774 60.0255 70.386 52.9837 87.9849C55.5429 89.9871 58.3646 91.659 61.2603 93.0472C65.8197 95.233 70.2296 96.7154 74.4191 97.6766C81.4348 78.7738 76.8247 76.6572 90.4914 66.6233L93.8018 54.3773L82.0754 56.4313L77.9673 44.5055L77.698 44.5335Z" fill="#F08181"/>
<path d="M103.332 62.5103L90.4914 66.6233C76.8247 76.6572 81.4348 78.7738 74.4191 97.6766C78.5769 98.6305 82.1898 99.0711 84.5382 99.1764C94.8132 71.3795 89.5556 78.5243 100.837 70.147L103.332 62.5103Z" fill="#F08181"/>
<path fill-rule="evenodd" clip-rule="evenodd" d="M79.6955 41.5376C69.7085 51.8575 60.0256 70.3859 52.9838 87.9847C55.543 89.987 58.3648 91.6589 61.2604 93.047C65.8199 95.2328 70.5625 96.7152 74.752 97.6764C81.7676 78.7736 76.8245 76.6573 90.4913 66.6233L93.4689 54.3774L81.7425 56.4314L79.9649 41.5096L79.6955 41.5376Z" fill="#F08181"/>
<path d="M103.331 62.5104L90.4913 66.6233C76.8245 76.6573 81.7676 78.7736 74.752 97.6764C78.9097 98.6303 82.5227 99.0709 84.871 99.1762C95.146 71.3793 89.5554 78.5244 100.837 70.1471L103.331 62.5104Z" fill="#F08181"/>
<path d="M103.332 62.5103L90.4916 66.6233C81.7428 76.4921 81.7675 78.7738 74.7519 97.6765C78.9097 98.6305 82.5226 99.071 84.8709 99.1764C96.0077 76.4921 98.338 75.1605 100.838 70.147L103.332 62.5103Z" fill="#D05D5D"/>
<path fill-rule="evenodd" clip-rule="evenodd" d="M82.0259 56.1853C74.7519 64.5077 67.9526 72.9867 61.2603 93.0472C65.8197 95.233 70.5624 96.7153 74.7519 97.6765C81.7675 78.7738 83.0246 75.8264 90.7747 66.3773L93.7524 54.1313L82.0259 56.1853Z" fill="#E47272"/>
<path d="M52.9836 87.9851C63.4568 93.9949 69.9609 96.84 84.8708 99.1766L79.1939 115.351C64.0881 113.544 57.4148 110.79 47.3067 104.16L52.9836 87.9851Z" fill="#D9D9D9"/>
<path d="M81.36 109.117C73.9941 109.999 59.4877 102.633 54.0733 99.1438C53.5387 98.7993 52.8144 98.9932 52.5439 99.5687C52.328 100.028 52.4823 100.577 52.9101 100.85C64.2083 108.056 77.5892 111.775 80.3613 111.447L81.36 109.117Z" fill="#AEAEAE"/>
<path d="M83.7588 102.864C76.3927 103.746 61.4462 96.9775 55.9738 93.5677C55.434 93.2314 54.7091 93.4261 54.4385 94.0016C54.2226 94.4608 54.3769 95.01 54.806 95.2809C66.129 102.429 80.0859 104.796 82.6918 105.122L83.7588 102.864Z" fill="#AEAEAE"/>
<path d="M89.2967 83.6479C92.9271 86.0413 93.7404 93.1645 91.347 96.7949C89.2967 98.4638 84.2598 99.1883 80.6293 96.7949C76.9989 94.4015 75.9961 89.5182 78.3895 85.8877C80.7829 82.2573 85.6662 81.2545 89.2967 83.6479Z" fill="#F08181"/>
<path d="M89.2967 83.6479C92.9271 86.0413 93.7404 93.1645 91.347 96.7949C98.338 98.7967 102.999 99.1296 106.309 90.4609L109.324 85.888C100.894 83.7476 95.5751 78.6026 89.2967 83.6479Z" fill="#F08181"/>
<path d="M109.324 85.888L106.309 90.4609C102 98.4638 105.979 100.166 110.198 108.196C114.417 116.225 114.472 113.694 113.651 114.11L116.981 112.445C116.315 98.4635 123.971 89.6072 109.324 85.888Z" fill="#F08181"/>
<path d="M111.532 120.002C108.881 119.505 107.175 116.904 107.775 114.274L108.253 112.179C108.964 109.058 111.826 106.909 115.021 107.094L116.988 107.209L117.161 115.229C117.226 118.246 114.498 120.559 111.532 120.002V120.002Z" fill="#F08181"/>
<path d="M70.8794 127.15C69.0491 128.634 66.6445 128.936 64.5906 128.151C63.5799 127.765 62.6542 127.116 61.9237 126.216C59.7085 123.485 60.1268 119.475 62.8578 117.26C65.5888 115.045 69.5984 115.463 71.8135 118.194C74.0286 120.925 73.6104 124.935 70.8794 127.15Z" fill="#F6CAEF"/>
<path d="M61.9237 126.216C59.7085 123.485 60.1268 119.475 62.8578 117.26C59.3583 116.314 51.0598 114.532 45.8613 114.965C44.1579 115.107 43.2537 115.627 42.8702 116.331C42.0833 117.774 43.4885 119.988 44.68 121.283C46.2433 122.162 48.3537 123.269 50.6345 124.348C55.9482 126.862 62.1872 129.218 64.5906 128.151C63.5799 127.765 62.6542 127.116 61.9237 126.216Z" fill="#F6CAEF"/>
<path d="M44.68 121.283C43.4885 119.988 42.0833 117.774 42.8702 116.331C39.7 117.994 34.8502 125.725 40.8126 143.339L44.1493 144.731C44.9524 140.927 47.0572 133.544 48.2702 131.93C49.3293 130.52 50.417 126.413 50.6345 124.348C48.3537 123.269 46.2433 122.162 44.68 121.283Z" fill="#F6CAEF"/>
<path d="M30.7321 143.972C30.8702 143.405 31.3401 142.978 31.9187 142.895V142.895C35.5916 142.37 39.3335 142.613 42.9075 143.61L44.5688 144.073L44.4043 144.749C43.8986 146.829 41.9606 148.236 39.8266 148.073L32.7094 147.529C31.2473 147.417 30.2339 146.021 30.5804 144.596L30.7321 143.972Z" fill="#F6CAEF"/>
<path d="M111.987 43.2021L105.995 36.2112L116.151 33.8808L111.987 43.2021Z" fill="#636363"/>
<path d="M63.3208 68.4732C66.3677 70.4918 70.6934 68.975 73.0346 65.4412C75.3758 61.9074 75.0859 57.3326 72.039 55.314C68.9921 53.2954 64.6664 54.8122 62.3252 58.346C59.984 61.8798 60.2739 66.4546 63.3208 68.4732Z" fill="url(#paint0_radial)" stroke="#1D1D1D" stroke-width="1.09205"/>
<path d="M79.9659 79.7919C83.0128 81.8105 87.3385 80.2936 89.6797 76.7598C92.0209 73.2261 91.7309 68.6512 88.6841 66.6326C85.6372 64.6141 81.3114 66.1309 78.9703 69.6647C76.6291 73.1984 76.919 77.7733 79.9659 79.7919Z" fill="url(#paint1_radial)" stroke="#1D1D1D" stroke-width="1.09205"/>
<circle cx="65.5153" cy="62.2378" r="3.26806" transform="rotate(13.6664 65.5153 62.2378)" fill="#636363"/>
<circle cx="85.3061" cy="75.6182" r="3.26806" transform="rotate(13.6664 85.3061 75.6182)" fill="#636363"/>
<g filter="url(#filter0_f)">
<ellipse cx="65.048" cy="148.066" rx="51.5998" ry="7.65674" fill="#434343" fill-opacity="0.2"/>
</g>
<path d="M59.733 89.1889C56.0149 86.934 54.9337 79.8466 57.1886 76.1285C59.1746 74.3836 64.1806 73.4697 67.8987 75.7246C71.6167 77.9795 72.8028 82.8215 70.548 86.5396C68.2931 90.2577 63.451 91.4438 59.733 89.1889Z" fill="#D16262"/>
<path d="M59.733 89.1889C56.0149 86.934 54.9337 79.8466 57.1886 76.1285C50.1272 74.3916 45.4573 74.2346 42.4758 83.022L39.6356 87.7052C48.1397 89.5264 53.6492 94.4673 59.733 89.1889Z" fill="#D16262"/>
<path d="M39.6356 87.7052L42.4758 83.022C46.4804 74.8623 42.4397 73.3114 37.9212 65.4464C33.4028 57.5815 33.4431 60.1127 34.2476 59.6664L30.9833 61.4552C32.1756 75.4021 24.8584 84.5406 39.6356 87.7052Z" fill="#D16262"/>
<path d="M36.1436 53.6983C38.8112 54.0957 40.6139 56.6306 40.1138 59.2809L39.7152 61.3928C39.1217 64.5378 36.3429 66.7938 33.1431 66.7287L31.1729 66.6885L30.6984 58.6805C30.5199 55.6676 33.1583 53.2535 36.1436 53.6983V53.6983Z" fill="#D16262"/>
<path d="M59.7883 110.241C61.9744 111.121 63.4048 113.077 63.7152 115.254C63.8679 116.325 63.7494 117.449 63.3162 118.525C62.0027 121.787 58.2936 123.366 55.0317 122.053C51.7698 120.739 50.1904 117.03 51.5038 113.768C52.8173 110.507 56.5264 108.927 59.7883 110.241Z" fill="#D292C8"/>
<path d="M63.3162 118.525C62.0027 121.787 58.2936 123.366 55.0317 122.053C55.9028 125.572 58.37 133.693 61.2703 138.029C62.2207 139.449 63.1145 139.988 63.9158 139.982C65.5599 139.969 66.8144 137.667 67.3685 135.996C67.3782 134.203 67.3231 131.82 67.1601 129.303C66.7802 123.437 65.8142 116.838 63.7152 115.254C63.8679 116.325 63.7494 117.449 63.3162 118.525Z" fill="#D292C8"/>
<path d="M67.3685 135.996C66.8144 137.667 65.5599 139.969 63.9158 139.982C66.9084 141.947 76.0211 142.437 88.5309 128.678L88.1299 125.085C84.4136 126.228 76.9366 127.97 74.9364 127.692C73.19 127.45 69.0707 128.491 67.1601 129.303C67.3231 131.82 67.3782 134.203 67.3685 135.996Z" fill="#D292C8"/>
<path d="M91.7974 138.031C91.2341 138.188 90.6326 137.985 90.2784 137.52V137.52C88.0301 134.569 86.4191 131.183 85.5474 127.576L85.1422 125.9L85.8132 125.714C87.8757 125.142 90.0487 126.149 90.9461 128.092L93.9392 134.572C94.554 135.903 93.829 137.468 92.416 137.86L91.7974 138.031Z" fill="#D292C8"/>
<path d="M49.0909 99.0762C59.5642 105.086 66.0683 107.931 80.9782 110.268L77.9128 119.002C76.387 123.349 72.0314 126.122 67.5005 125.285C60.3594 123.967 55.2906 122.144 49.9845 119.244C46.0204 117.078 44.4646 112.258 45.9606 107.995L49.0909 99.0762Z" fill="#EBB9E3"/>
<path d="M79.6959 41.5375C71.0405 52.8561 60.0256 70.3864 52.9838 87.9852C63.572 96.2691 78.6537 98.8978 84.871 99.1767C92.8289 69.9957 90.3969 76.8434 100.669 70.4999L115.649 34.2137L79.6959 41.5375Z" fill="#EEDAB3"/>
<path fill-rule="evenodd" clip-rule="evenodd" d="M77.6982 44.5335C66.3795 54.3773 60.0256 70.386 52.9838 87.9848C55.5431 89.9871 58.3648 91.659 61.2604 93.0472C65.8199 95.233 70.2298 96.7153 74.4193 97.6765C81.4349 78.7738 76.8249 76.6572 90.4916 66.6232L93.802 54.3773L82.0756 56.4313L77.9675 44.5055L77.6982 44.5335Z" fill="#F08181"/>
<path d="M103.332 62.5103L90.4916 66.6232C76.8249 76.6572 81.4349 78.7738 74.4193 97.6765C78.5771 98.6305 82.19 99.071 84.5383 99.1764C94.8133 71.3795 89.5558 78.5243 100.838 70.147L103.332 62.5103Z" fill="#F08181"/>
<path fill-rule="evenodd" clip-rule="evenodd" d="M79.6957 41.5376C69.7087 51.8575 60.0258 70.3859 52.984 87.9847C55.5432 89.987 58.365 91.6588 61.2606 93.047C65.82 95.2328 70.5627 96.7152 74.7522 97.6764C81.7678 78.7736 76.8247 76.6573 90.4915 66.6233L93.4691 54.3774L81.7427 56.4314L79.9651 41.5096L79.6957 41.5376Z" fill="#F08181"/>
<path d="M103.332 62.5104L90.4915 66.6233C76.8247 76.6573 81.7678 78.7736 74.7522 97.6764C78.9099 98.6303 82.5229 99.0709 84.8712 99.1762C95.1462 71.3793 89.5556 78.5244 100.838 70.1471L103.332 62.5104Z" fill="#F08181"/>
<path d="M103.332 62.5103L90.4918 66.6233C81.7431 76.4921 81.7678 78.7738 74.7521 97.6765C78.9099 98.6305 82.5229 99.071 84.8712 99.1764C96.0079 76.4921 98.3382 75.1605 100.838 70.147L103.332 62.5103Z" fill="#D05D5D"/>
<path fill-rule="evenodd" clip-rule="evenodd" d="M82.0261 56.1853C74.752 64.5077 67.9528 72.9867 61.2605 93.0472C65.8199 95.2329 70.5626 96.7153 74.752 97.6765C81.7677 78.7738 83.0248 75.8263 90.7749 66.3772L93.7525 54.1313L82.0261 56.1853Z" fill="#E47272"/>
<path d="M52.9838 87.9851C63.4571 93.9949 69.9612 96.84 84.871 99.1766L79.1942 115.351C64.0883 113.544 57.415 110.79 47.307 104.16L52.9838 87.9851Z" fill="#D9D9D9"/>
<path d="M81.3602 109.117C73.9943 109.998 59.4879 102.633 54.0734 99.1438C53.5389 98.7993 52.8146 98.9932 52.5441 99.5687C52.3282 100.028 52.4824 100.577 52.9103 100.85C64.2085 108.056 77.5893 111.775 80.3615 111.447L81.3602 109.117Z" fill="#AEAEAE"/>
<path d="M83.7591 102.864C76.393 103.746 61.4464 96.9774 55.974 93.5677C55.4343 93.2314 54.7093 93.4261 54.4388 94.0016C54.2229 94.4608 54.3771 95.01 54.8062 95.2809C66.1293 102.429 80.0862 104.796 82.692 105.122L83.7591 102.864Z" fill="#AEAEAE"/>
<path d="M89.2968 83.6479C92.9273 86.0413 93.7406 93.1644 91.3472 96.7949C89.2968 98.4638 84.2599 99.1883 80.6295 96.7949C76.9991 94.4014 75.9963 89.5181 78.3897 85.8877C80.7831 82.2573 85.6664 81.2545 89.2968 83.6479Z" fill="#F08181"/>
<path d="M89.2968 83.6479C92.9273 86.0413 93.7406 93.1644 91.3472 96.7949C98.3381 98.7967 102.999 99.1296 106.309 90.4608L109.324 85.888C100.895 83.7476 95.5752 78.6025 89.2968 83.6479Z" fill="#F08181"/>
<path d="M109.324 85.888L106.309 90.4608C102 98.4638 105.979 100.166 110.198 108.196C114.417 116.225 114.472 113.694 113.651 114.11L116.981 112.445C116.315 98.4635 123.971 89.6072 109.324 85.888Z" fill="#F08181"/>
<path d="M111.532 120.002C108.881 119.505 107.175 116.904 107.775 114.274L108.253 112.179C108.964 109.058 111.826 106.909 115.021 107.094L116.989 107.209L117.161 115.229C117.226 118.246 114.498 120.559 111.532 120.002V120.002Z" fill="#F08181"/>
<path d="M70.8796 127.15C69.0493 128.634 66.6446 128.936 64.5908 128.151C63.5801 127.765 62.6544 127.116 61.9238 126.216C59.7087 123.485 60.127 119.475 62.858 117.26C65.589 115.045 69.5986 115.463 71.8137 118.194C74.0288 120.925 73.6106 124.935 70.8796 127.15Z" fill="#F6CAEF"/>
<path d="M61.9238 126.216C59.7087 123.485 60.127 119.475 62.858 117.26C59.3585 116.314 51.06 114.532 45.8615 114.965C44.1581 115.106 43.2539 115.627 42.8704 116.331C42.0835 117.774 43.4886 119.988 44.6802 121.283C46.2435 122.162 48.3539 123.269 50.6347 124.348C55.9484 126.862 62.1873 129.218 64.5908 128.151C63.5801 127.765 62.6544 127.116 61.9238 126.216Z" fill="#F6CAEF"/>
<path d="M44.6802 121.283C43.4886 119.988 42.0835 117.774 42.8704 116.331C39.7001 117.994 34.8503 125.725 40.8128 143.339L44.1495 144.731C44.9526 140.927 47.0574 133.544 48.2704 131.93C49.3295 130.52 50.4172 126.413 50.6347 124.348C48.3539 123.269 46.2435 122.162 44.6802 121.283Z" fill="#F6CAEF"/>
<path d="M30.7323 143.972C30.8704 143.405 31.3403 142.978 31.9189 142.895V142.895C35.5918 142.37 39.3337 142.613 42.9077 143.61L44.569 144.073L44.4044 144.749C43.8988 146.829 41.9608 148.236 39.8268 148.073L32.7095 147.529C31.2475 147.417 30.2341 146.021 30.5806 144.596L30.7323 143.972Z" fill="#F6CAEF"/>
<path d="M111.987 43.2021L105.995 36.2112L116.151 33.8808L111.987 43.2021Z" fill="#D05D5D"/>
<path d="M63.3211 68.4732C66.3679 70.4918 70.6937 68.975 73.0349 65.4412C75.3761 61.9074 75.0861 57.3326 72.0392 55.314C68.9924 53.2954 64.6666 54.8122 62.3254 58.346C59.9842 61.8798 60.2742 66.4546 63.3211 68.4732Z" fill="url(#paint2_radial)" stroke="#1D1D1D" stroke-width="1.09205"/>
<path d="M79.9661 79.7918C83.013 81.8104 87.3388 80.2936 89.6799 76.7598C92.0211 73.226 91.7312 68.6512 88.6843 66.6326C85.6374 64.614 81.3117 66.1309 78.9705 69.6647C76.6293 73.1984 76.9193 77.7732 79.9661 79.7918Z" fill="url(#paint3_radial)" stroke="#1D1D1D" stroke-width="1.09205"/>
<circle cx="65.5156" cy="62.2378" r="3.26806" transform="rotate(13.6664 65.5156 62.2378)" fill="#636363"/>
<circle cx="85.3063" cy="75.6182" r="3.26806" transform="rotate(13.6664 85.3063 75.6182)" fill="#636363"/>
<defs>
<filter id="filter0_f" x="7.4483" y="134.409" width="115.2" height="27.3135" filterUnits="userSpaceOnUse" color-interpolation-filters="sRGB">
<feFlood flood-opacity="0" result="BackgroundImageFix"/>
<feBlend mode="normal" in="SourceGraphic" in2="BackgroundImageFix" result="shape"/>
<feGaussianBlur stdDeviation="3" result="effect1_foregroundBlur"/>
</filter>
<radialGradient id="paint0_radial" cx="0" cy="0" r="1" gradientUnits="userSpaceOnUse" gradientTransform="translate(65.6673 60.0512) rotate(74.3751) scale(11.5122 9.20977)">
<stop stop-color="white"/>
<stop offset="1" stop-color="#E7E7E7"/>
</radialGradient>
<radialGradient id="paint1_radial" cx="0" cy="0" r="1" gradientUnits="userSpaceOnUse" gradientTransform="translate(82.3123 71.3698) rotate(74.3751) scale(11.5122 9.20977)">
<stop stop-color="white"/>
<stop offset="1" stop-color="#E7E7E7"/>
</radialGradient>
<radialGradient id="paint2_radial" cx="0" cy="0" r="1" gradientUnits="userSpaceOnUse" gradientTransform="translate(65.6675 60.0512) rotate(74.3751) scale(11.5122 9.20977)">
<stop stop-color="white"/>
<stop offset="1" stop-color="#E7E7E7"/>
</radialGradient>
<radialGradient id="paint3_radial" cx="0" cy="0" r="1" gradientUnits="userSpaceOnUse" gradientTransform="translate(82.3126 71.3698) rotate(74.3751) scale(11.5122 9.20977)">
<stop stop-color="white"/>
<stop offset="1" stop-color="#E7E7E7"/>
</radialGradient>
</defs>
</svg>
