<svg width="75" height="122" viewBox="0 0 75 122" fill="none" xmlns="http://www.w3.org/2000/svg">
<g filter="url(#filter0_f)">
<ellipse rx="33.672" ry="6.56318" transform="matrix(-1 0 0 1 37.6721 111.427)" fill="#434343" fill-opacity="0.2"/>
</g>
<path d="M71.0944 80.8902C71.1338 80.9179 71.1725 80.9471 71.2103 80.9781C71.5545 81.26 71.6267 81.6739 71.6085 81.9715C71.576 82.4991 71.2597 82.8918 70.894 83.1233C70.7844 83.1927 70.6662 83.2506 70.5427 83.2962C70.5994 83.4257 70.6443 83.5623 70.6735 83.7057C70.7624 84.1417 70.5571 84.5082 70.355 84.7274C69.9967 85.1161 69.5034 85.2209 69.0737 85.1695C68.6489 85.1186 68.2307 84.9129 67.9292 84.5972C67.846 84.5101 67.7601 84.4339 67.6723 84.3699C67.6788 84.3932 67.6859 84.4166 67.6934 84.4401C67.826 84.856 67.8061 85.3216 67.6471 85.7189C67.4863 86.1207 67.1579 86.5034 66.6451 86.6316C66.3558 86.7039 65.9358 86.7084 65.5957 86.4215C65.1487 86.0443 64.9159 85.4982 64.7928 85.0104C64.7182 84.7149 64.6774 84.4152 64.659 84.1396C62.2382 83.7952 59.2885 82.8126 56.9989 81.6844V97.5341V97.9431L56.6116 98.0745C53.4308 99.1537 49.8162 100.036 46.0309 100.607L45.0162 102.567C46.1959 101.293 47.8825 100.496 49.7554 100.496C53.3223 100.496 56.2139 103.388 56.2139 106.955C56.2139 110.514 53.3346 113.401 49.7782 113.413C47.4148 113.596 41.9935 113.44 37.8593 111.479C37.5927 111.352 37.37 111.174 37.1947 110.962C37.0194 111.174 36.7967 111.352 36.5301 111.479C32.396 113.44 26.9747 113.596 24.6113 113.413C21.0548 113.401 18.1756 110.514 18.1756 106.955C18.1756 103.388 21.0671 100.496 24.6341 100.496C26.5069 100.496 28.1936 101.293 29.3733 102.567L28.3702 100.63C24.7894 99.9995 21.4051 98.9098 18.4651 97.2457L18.1756 97.0818V96.749V81.7672C15.9124 82.8598 13.0475 83.8035 10.6851 84.1396C10.6667 84.4152 10.6259 84.7149 10.5513 85.0104C10.4282 85.4982 10.1954 86.0443 9.7484 86.4215C9.40835 86.7084 8.98827 86.7039 8.69904 86.6316C8.18622 86.5034 7.85778 86.1207 7.697 85.7189C7.53803 85.3216 7.51815 84.856 7.65073 84.4401C7.65822 84.4166 7.66526 84.3932 7.67185 84.3699C7.58396 84.4339 7.49809 84.5101 7.41493 84.5972C7.11344 84.9129 6.69523 85.1186 6.27037 85.1695C5.84068 85.2209 5.34737 85.1161 4.98909 84.7274C4.787 84.5082 4.58172 84.1417 4.67059 83.7057C4.69981 83.5623 4.74474 83.4257 4.80138 83.2962C4.67787 83.2506 4.55971 83.1927 4.45007 83.1233C4.08439 82.8918 3.76807 82.4991 3.73565 81.9715C3.71736 81.6739 3.78962 81.26 4.13381 80.9781C4.17162 80.9471 4.21029 80.9179 4.24968 80.8902C4.18269 80.7436 4.13916 80.5803 4.12817 80.4014C4.10988 80.1038 4.18214 79.6899 4.52633 79.408C4.99744 79.0221 5.60682 78.8974 6.12659 78.8725C6.48832 78.8552 6.84521 78.8844 7.15424 78.933C9.94734 74.8107 14.1272 72.519 16.0509 71.8384C16.7442 71.544 17.4688 71.4219 18.1756 71.4533V34.7308V34.1601H18.7301C19.211 33.6945 19.9746 33.3114 20.8788 32.9865C21.8576 32.6346 23.0882 32.3215 24.5113 32.0541L29.9546 2.47339C29.9571 2.45818 29.96 2.44314 29.9632 2.42828L29.9642 2.42363L29.9654 2.41832L29.9666 2.41339C30.039 2.10585 30.2534 1.90608 30.4536 1.78438C30.6534 1.66296 30.893 1.5842 31.1375 1.53018C31.6296 1.42142 32.2733 1.38517 32.9995 1.40378C34.4612 1.44124 36.3786 1.70495 38.362 2.17119C40.3509 2.63871 42.1471 3.27855 43.4336 3.9191C44.0729 4.23743 44.6126 4.56878 44.9887 4.89598C45.1759 5.0588 45.346 5.24062 45.4627 5.44078C45.5598 5.60731 45.639 5.82134 45.623 6.05926L50.6421 32.0501C52.0713 32.3179 53.3071 32.6317 54.2898 32.9843C55.1967 33.3098 55.9625 33.6935 56.4443 34.1601H56.9989V34.7308V56.3081C58.3703 57.5697 59.2942 59.5076 59.4409 61.7017C59.6153 64.309 58.652 66.7145 56.9989 68.1239V71.4639C57.7589 71.4034 58.5442 71.5203 59.2932 71.8384C61.2169 72.519 65.3968 74.8107 68.1899 78.933C68.4989 78.8844 68.8558 78.8552 69.2175 78.8725C69.7373 78.8974 70.3467 79.0221 70.8178 79.408C71.162 79.6899 71.2342 80.1038 71.2159 80.4014C71.2049 80.5803 71.1614 80.7436 71.0944 80.8902ZM31.5294 106.73L30.9546 105.62C31.0229 105.945 31.0667 106.279 31.0841 106.62C31.2781 106.712 31.426 106.733 31.5294 106.73ZM43.3054 106.62C43.3227 106.279 43.3666 105.945 43.4348 105.62L42.8601 106.73C42.9635 106.733 43.1114 106.712 43.3054 106.62Z" fill="#1D1D1D" stroke="#1D1D1D" stroke-width="1.14142"/>
<path d="M61.3503 78.0417C60.4096 80.2329 57.8707 81.2466 55.6795 80.3059C53.4883 79.3652 52.4745 76.8263 53.4152 74.6351C54.3559 72.4439 56.8949 71.4301 59.0861 72.3708C61.2773 73.3115 62.291 75.8505 61.3503 78.0417Z" fill="#D3D3D3"/>
<path d="M61.3503 78.0417C60.4096 80.2329 57.8707 81.2466 55.6795 80.3059C60.4528 83.2923 71.7098 86.1514 68.3734 80.3059C65.7042 75.6296 61.0697 73.0674 59.0861 72.3708C61.2773 73.3115 62.291 75.8505 61.3503 78.0417Z" fill="#D3D3D3"/>
<path d="M65.9639 85.9858C65.2539 85.3867 65.1742 84.0537 65.2333 83.4038L67.1959 83.2076C66.969 83.6614 67.0063 84.1638 67.1497 84.6139C67.3335 85.1905 67.0939 85.9316 66.5068 86.0784C66.3182 86.1255 66.1124 86.1111 65.9639 85.9858Z" fill="#D3D3D3"/>
<path d="M70.1143 83.8201C69.9287 82.9098 68.797 82.2011 68.1982 81.9415L67.0854 83.57C67.5925 83.5883 68.0156 83.8618 68.3419 84.2034C68.7598 84.6411 69.5252 84.7859 69.9354 84.341C70.0671 84.1981 70.1531 84.0105 70.1143 83.8201Z" fill="#D3D3D3"/>
<path d="M70.8488 81.42C70.1301 80.8313 68.805 80.9964 68.1768 81.1731L68.3422 83.1386C68.7469 82.8326 69.2477 82.7775 69.7164 82.8364C70.3169 82.9118 71.0018 82.5409 71.0389 81.9369C71.0509 81.7429 70.9991 81.5431 70.8488 81.42Z" fill="#D3D3D3"/>
<path d="M70.4561 79.8498C69.7375 79.2611 68.4124 79.4261 67.7841 79.6029L67.9495 81.5684C68.3543 81.2624 68.8551 81.2073 69.3238 81.2662C69.9243 81.3416 70.6092 80.9707 70.6463 80.3666C70.6582 80.1727 70.6065 79.9729 70.4561 79.8498Z" fill="#D3D3D3"/>
<path d="M47.7925 95.9642H37.587V106.955C39.3498 107.485 40.338 107.576 42.101 106.955L47.7925 95.9642Z" fill="#E1DD76"/>
<path d="M26.5967 95.9642H36.8022V106.955C35.0394 107.485 34.0512 107.576 32.2882 106.955L26.5967 95.9642Z" fill="#E1DD76"/>
<rect width="37.6819" height="21.1961" transform="matrix(-1 0 0 1 56.4279 34.7311)" fill="#F3F0A7"/>
<path d="M56.4279 76.3382H18.746V96.7493C29.1478 102.637 45.4374 101.263 56.4279 97.5343V76.3382Z" fill="#F3F0A7"/>
<ellipse rx="18.841" ry="3.72894" transform="matrix(-1 0 0 1 37.587 35.3196)" fill="#E9E588"/>
<path d="M24.634 34.5347C24.634 35.727 30.4333 36.6936 37.5872 36.6936C44.741 36.6936 50.5403 35.727 50.5403 34.5347C50.5403 34.4876 50.5313 34.4409 50.5135 34.3946C50.0802 33.2676 44.4585 32.3758 37.5872 32.3758C30.7158 32.3758 25.0941 33.2676 24.6609 34.3946C24.6431 34.4409 24.634 34.4876 24.634 34.5347Z" fill="#F3F0A7"/>
<path d="M50.5135 34.3946C50.0802 33.2676 44.4585 32.3758 37.5872 32.3758C30.7158 32.3758 25.0941 33.2676 24.6609 34.3946L30.5218 2.5443L45.0451 6.07698L50.5135 34.3946Z" fill="#F3F0A7"/>
<path d="M30.5218 2.54449C30.3233 3.38861 33.6019 4.86445 37.5126 5.78371C41.4232 6.70297 44.8464 6.9211 45.0448 6.07698C45.2432 5.23285 42.1418 3.64612 38.2311 2.72687C34.3205 1.80761 30.7202 1.70037 30.5218 2.54449Z" fill="#E9E588"/>
<path d="M56.4279 42.1889C47.2037 46.8991 27.774 46.3104 18.746 42.1889V90.6995C33.0962 95.2805 41.3754 94.9203 56.4279 90.6995V42.1889Z" fill="white"/>
<path d="M56.4279 50.0394C47.2037 54.7496 27.774 54.1608 18.746 50.0394V52.2326C33.0962 56.8135 41.3754 56.4534 56.4279 52.2326V50.0394Z" fill="#D3D3D3"/>
<path d="M56.4279 84.1883C47.2037 88.8986 27.774 88.3098 18.746 84.1883V86.3816C33.0962 90.9625 41.3754 90.6024 56.4279 86.3816V84.1883Z" fill="#D3D3D3"/>
<path d="M26.8864 70.6937C23.6873 70.9076 20.9898 67.8603 20.735 64.0491C20.4802 60.2379 22.748 56.8586 25.9471 56.6447C29.1462 56.4308 31.8437 59.4781 32.0985 63.2893C32.3533 67.1005 30.0855 70.4798 26.8864 70.6937Z" fill="url(#paint0_radial)" stroke="#1D1D1D" stroke-width="0.623248"/>
<circle r="2.99314" transform="matrix(-0.961101 -0.276199 -0.276199 0.961101 28.3885 65.9108)" fill="#636363"/>
<path d="M53.9703 69.1233C50.7712 69.3372 48.0737 66.2899 47.8189 62.4787C47.5641 58.6675 49.8319 55.2882 53.031 55.0743C56.2301 54.8604 58.9276 57.9077 59.1824 61.7189C59.4372 65.5301 57.1694 68.9094 53.9703 69.1233Z" fill="url(#paint1_radial)" stroke="#1D1D1D" stroke-width="0.623248"/>
<circle r="2.99314" transform="matrix(-0.961101 -0.276199 -0.276199 0.961101 51.5469 62.3779)" fill="#636363"/>
<path d="M43.8674 106.955C43.8674 110.206 46.5035 112.842 49.7552 112.842C53.0069 112.842 55.643 110.206 55.643 106.955C55.643 103.703 53.0069 101.067 49.7552 101.067C46.5035 101.067 43.8674 103.703 43.8674 106.955Z" fill="#E1DD76"/>
<path d="M43.8674 106.955C43.8674 110.206 46.5035 112.842 49.7552 112.842C47.5285 113.018 42.4886 112.879 38.5281 111.156C37.6966 110.794 37.2593 109.905 37.3594 109.004L37.5871 106.955H42.1011C42.2973 107.216 42.9254 107.583 43.8674 106.955Z" fill="#E1DD76"/>
<path d="M30.5218 106.955C30.5218 110.206 27.8858 112.842 24.634 112.842C21.3823 112.842 18.7462 110.206 18.7462 106.955C18.7462 103.703 21.3823 101.067 24.634 101.067C27.8858 101.067 30.5218 103.703 30.5218 106.955Z" fill="#E1DD76"/>
<path d="M30.5218 106.955C30.5218 110.206 27.8858 112.842 24.634 112.842C26.8607 113.018 31.9006 112.879 35.8612 111.156C36.6927 110.794 37.13 109.905 37.0298 109.004L36.8021 106.955H32.2882C32.0919 107.216 31.4639 107.583 30.5218 106.955Z" fill="#E1DD76"/>
<path d="M13.9937 78.0417C14.9344 80.2329 17.4733 81.2466 19.6646 80.3059C21.8558 79.3652 22.8695 76.8263 21.9288 74.6351C20.9881 72.4439 18.4492 71.4301 16.258 72.3708C14.0668 73.3115 13.053 75.8505 13.9937 78.0417Z" fill="#D3D3D3"/>
<path d="M13.9937 78.0417C14.9344 80.2329 17.4733 81.2466 19.6646 80.3059C14.8912 83.2923 3.63427 86.1514 6.97069 80.3059C9.63983 75.6296 14.2744 73.0674 16.258 72.3708C14.0668 73.3115 13.053 75.8505 13.9937 78.0417Z" fill="#D3D3D3"/>
<path d="M9.3802 85.9858C10.0902 85.3867 10.1698 84.0537 10.1108 83.4038L8.14815 83.2076C8.37507 83.6614 8.3378 84.1638 8.19433 84.6139C8.01052 85.1905 8.25017 85.9316 8.83729 86.0784C9.02583 86.1255 9.23167 86.1111 9.3802 85.9858Z" fill="#D3D3D3"/>
<path d="M5.22982 83.8201C5.41536 82.9098 6.54711 82.2011 7.14585 81.9415L8.25868 83.57C7.7516 83.5883 7.32849 83.8618 7.00223 84.2034C6.58424 84.6411 5.81892 84.7859 5.40872 84.341C5.277 84.1981 5.191 84.0105 5.22982 83.8201Z" fill="#D3D3D3"/>
<path d="M4.4953 81.42C5.21394 80.8313 6.53905 80.9964 7.16727 81.1731L7.0019 83.1386C6.59712 82.8326 6.09632 82.7775 5.62762 82.8364C5.02715 82.9118 4.34224 82.5409 4.30512 81.9369C4.2932 81.7429 4.34496 81.5431 4.4953 81.42Z" fill="#D3D3D3"/>
<path d="M4.88794 79.8498C5.60658 79.2611 6.93169 79.4261 7.55991 79.6029L7.39454 81.5684C6.98976 81.2624 6.48896 81.2073 6.02026 81.2662C5.41979 81.3416 4.73488 80.9707 4.69776 80.3666C4.68584 80.1727 4.7376 79.9729 4.88794 79.8498Z" fill="#D3D3D3"/>
<defs>
<filter id="filter0_f" x="0.575855" y="101.44" width="74.1925" height="19.9749" filterUnits="userSpaceOnUse" color-interpolation-filters="sRGB">
<feFlood flood-opacity="0" result="BackgroundImageFix"/>
<feBlend mode="normal" in="SourceGraphic" in2="BackgroundImageFix" result="shape"/>
<feGaussianBlur stdDeviation="1.71213" result="effect1_foregroundBlur"/>
</filter>
<radialGradient id="paint0_radial" cx="0" cy="0" r="1" gradientUnits="userSpaceOnUse" gradientTransform="translate(28.854 63.1167) rotate(135.325) scale(10.5438 8.43501)">
<stop stop-color="white"/>
<stop offset="1" stop-color="#E7E7E7"/>
</radialGradient>
<radialGradient id="paint1_radial" cx="0" cy="0" r="1" gradientUnits="userSpaceOnUse" gradientTransform="translate(55.9379 61.5463) rotate(135.325) scale(10.5438 8.43501)">
<stop stop-color="white"/>
<stop offset="1" stop-color="#E7E7E7"/>
</radialGradient>
</defs>
</svg>
