<svg width="122" height="200" viewBox="0 0 122 200" fill="none" xmlns="http://www.w3.org/2000/svg">
<path d="M31.8828 57.0428C30.2937 57.6131 28.9518 58.2854 28.1076 59.103H27.1358V60.103V97.9107C24.733 100.121 23.114 103.517 22.8569 107.361C22.5515 111.93 24.2393 116.145 27.1358 118.614V124.467C25.8042 124.361 24.4282 124.565 23.1157 125.123C19.745 126.315 12.4211 130.331 7.52706 137.554C6.98556 137.469 6.36022 137.418 5.7264 137.448C4.81567 137.492 3.74792 137.71 2.92243 138.386C2.31935 138.88 2.19272 139.605 2.22477 140.127C2.24403 140.44 2.3203 140.726 2.43768 140.983C2.36867 141.032 2.30092 141.083 2.23467 141.137C1.63157 141.631 1.50495 142.357 1.53699 142.878C1.5938 143.802 2.14805 144.491 2.7888 144.896C2.98091 145.018 3.18795 145.119 3.40435 145.199C3.30512 145.426 3.2264 145.666 3.17519 145.917C3.01948 146.681 3.37918 147.323 3.73326 147.707C4.36105 148.388 5.22542 148.572 5.97834 148.482C6.72277 148.392 7.45556 148.032 7.98383 147.479C8.12953 147.326 8.28 147.193 8.434 147.081C8.42247 147.121 8.41012 147.162 8.397 147.204C8.1647 147.932 8.19953 148.748 8.47808 149.444C8.7598 150.148 9.33528 150.819 10.2338 151.044L10.4764 150.073L10.2338 151.044C10.7407 151.17 11.4767 151.178 12.0725 150.675C12.8558 150.014 13.2637 149.058 13.4794 148.203C13.6101 147.685 13.6816 147.16 13.7138 146.677C17.9555 146.073 23.124 144.352 27.1358 142.375V170.147V170.863L27.8145 171.094C33.3878 172.985 39.7215 174.531 46.3539 175.532L48.1319 178.965C46.0649 176.734 43.1096 175.337 39.828 175.337C33.578 175.337 28.5114 180.403 28.5114 186.653C28.5114 192.89 33.5563 197.948 39.788 197.97C43.929 198.29 53.4284 198.016 60.6722 194.58C61.1394 194.359 61.5295 194.046 61.8367 193.675C62.1439 194.046 62.5341 194.359 63.0012 194.58C70.2451 198.016 79.7443 198.29 83.8854 197.97C90.117 197.948 95.1621 192.89 95.1621 186.653C95.1621 180.403 90.0955 175.337 83.8455 175.337C80.5639 175.337 77.6085 176.734 75.5415 178.965L77.299 175.571C83.5733 174.467 89.5033 172.557 94.6547 169.641L95.1621 169.354V168.771V142.52C99.1276 144.435 104.148 146.088 108.287 146.677C108.319 147.16 108.391 147.685 108.521 148.203C108.737 149.058 109.145 150.014 109.928 150.675C110.524 151.178 111.26 151.17 111.767 151.044L111.524 150.073L111.767 151.044C112.665 150.819 113.241 150.148 113.523 149.444C113.801 148.748 113.836 147.932 113.604 147.204C113.591 147.162 113.578 147.121 113.567 147.081C113.721 147.193 113.871 147.326 114.017 147.479C114.545 148.032 115.278 148.392 116.022 148.482C116.775 148.572 117.64 148.388 118.267 147.707C118.622 147.323 118.981 146.681 118.826 145.917C118.774 145.666 118.696 145.426 118.596 145.199C118.813 145.119 119.02 145.018 119.212 144.896C119.853 144.491 120.407 143.802 120.464 142.878C120.496 142.357 120.369 141.631 119.766 141.137C119.7 141.083 119.632 141.032 119.563 140.983C119.68 140.726 119.757 140.44 119.776 140.127C119.808 139.605 119.681 138.88 119.078 138.386C118.253 137.71 117.185 137.492 116.274 137.448C115.64 137.418 115.015 137.469 114.474 137.554C109.58 130.331 102.256 126.315 98.885 125.123C97.6702 124.607 96.4006 124.393 95.1621 124.448V60.103V59.103H94.1903C93.3478 58.2871 92.0097 57.6159 90.4255 57.0465C88.7104 56.4301 86.5541 55.8813 84.0606 55.4128L74.5228 3.58126C74.5184 3.55469 74.5134 3.52849 74.5079 3.50268L74.5059 3.49419L74.5039 3.48488L74.5019 3.47639C74.3749 2.93752 73.9993 2.58748 73.6485 2.37424C73.2985 2.16148 72.8786 2.02349 72.4502 1.92882C71.5879 1.73827 70.46 1.67475 69.1876 1.70735C66.6264 1.77298 63.2667 2.23507 59.7914 3.052C56.3064 3.8712 53.1592 4.99232 50.905 6.11469C49.7848 6.67247 48.8392 7.25306 48.1801 7.82639C47.8522 8.11167 47.554 8.43027 47.3495 8.78098C47.1794 9.07278 47.0407 9.4478 47.0687 9.86467L38.2742 55.4058C35.77 55.875 33.6046 56.4248 31.8828 57.0428ZM51.1297 186.068C51.0992 185.47 51.0224 184.885 50.9029 184.316L51.9099 186.26C51.7287 186.266 51.4696 186.229 51.1297 186.068ZM71.7636 186.26L72.7706 184.316C72.651 184.885 72.5742 185.47 72.5438 186.068C72.2039 186.229 71.9448 186.266 71.7636 186.26Z" fill="#1D1D1D" stroke="#1D1D1D" stroke-width="2"/>
<path d="M19.511 135.992C21.1593 139.832 25.608 141.608 29.4474 139.96C33.2869 138.312 35.0632 133.863 33.4149 130.023C31.7666 126.184 27.3179 124.408 23.4784 126.056C19.639 127.704 17.8627 132.153 19.511 135.992Z" fill="#D3D3D3"/>
<path d="M19.511 135.992C21.1593 139.832 25.608 141.608 29.4474 139.96C21.0836 145.193 1.35916 150.202 7.20524 139.96C11.8821 131.766 20.0027 127.277 23.4784 126.056C19.639 127.704 17.8627 132.153 19.511 135.992Z" fill="#D3D3D3"/>
<path d="M11.4273 149.912C12.6713 148.862 12.8109 146.527 12.7073 145.388L9.26846 145.044C9.66607 145.839 9.60076 146.72 9.34937 147.508C9.02731 148.518 9.44722 149.817 10.476 150.074C10.8063 150.157 11.167 150.132 11.4273 149.912Z" fill="#D3D3D3"/>
<path d="M4.15488 146.117C4.47999 144.522 6.46303 143.281 7.51215 142.826L9.46205 145.679C8.57354 145.711 7.83217 146.19 7.26049 146.789C6.52809 147.556 5.18711 147.81 4.46835 147.03C4.23754 146.78 4.08686 146.451 4.15488 146.117Z" fill="#D3D3D3"/>
<path d="M2.86811 141.912C4.12732 140.881 6.44917 141.17 7.54993 141.479L7.26018 144.923C6.55092 144.387 5.67343 144.291 4.85216 144.394C3.80002 144.526 2.59992 143.876 2.53488 142.818C2.51399 142.478 2.60469 142.128 2.86811 141.912Z" fill="#D3D3D3"/>
<path d="M3.5561 139.161C4.8153 138.129 7.13716 138.418 8.23792 138.728L7.94817 142.172C7.23891 141.636 6.36141 141.539 5.54015 141.642C4.48801 141.775 3.28791 141.125 3.22287 140.066C3.20198 139.726 3.29268 139.376 3.5561 139.161Z" fill="#D3D3D3"/>
<path d="M43.2671 167.396H61.1492V186.654C58.0604 187.582 56.329 187.743 53.2398 186.654L43.2671 167.396Z" fill="#E1DD76"/>
<path d="M80.4062 167.396H62.5241V186.654C65.6129 187.582 67.3444 187.743 70.4335 186.654L80.4062 167.396Z" fill="#E1DD76"/>
<rect x="28.1362" y="60.1035" width="66.0263" height="37.1398" fill="#F3F0A7"/>
<path d="M28.1362 133.008H94.1625V168.772C75.9365 179.089 47.3939 176.681 28.1362 170.148V133.008Z" fill="#F3F0A7"/>
<ellipse cx="61.1494" cy="61.1349" rx="33.0131" ry="6.53385" fill="#E9E588"/>
<path d="M83.8452 59.7596C83.8452 61.8488 73.6836 63.5424 61.1487 63.5424C48.6137 63.5424 38.4521 61.8488 38.4521 59.7596C38.4521 59.6771 38.468 59.5952 38.4992 59.5141C39.2583 57.5393 49.1087 55.9768 61.1487 55.9768C73.1887 55.9768 83.039 57.5393 83.7982 59.5141C83.8294 59.5952 83.8452 59.6771 83.8452 59.7596Z" fill="#F3F0A7"/>
<path d="M38.4992 59.5141C39.2583 57.5393 49.1087 55.9768 61.1487 55.9768C73.1887 55.9768 83.039 57.5393 83.7982 59.5141L73.5286 3.70605L48.081 9.89602L38.4992 59.5141Z" fill="#F3F0A7"/>
<path d="M73.5286 3.70628C73.8763 5.18535 68.1316 7.77131 61.2793 9.38203C54.4271 10.9928 48.429 11.375 48.0813 9.8959C47.7336 8.41683 53.168 5.63656 60.0203 4.02584C66.8725 2.41511 73.1809 2.22721 73.5286 3.70628Z" fill="#E9E588"/>
<path d="M28.1362 73.1714C44.2989 81.4247 78.3437 80.393 94.1625 73.1714V158.172C69.0181 166.198 54.5113 165.567 28.1362 158.172V73.1714Z" fill="white"/>
<path d="M28.1362 86.9268C44.2989 95.18 78.3437 94.1484 94.1625 86.9268V90.7698C69.0181 98.7965 54.5113 98.1655 28.1362 90.7698V86.9268Z" fill="#D3D3D3"/>
<path d="M28.1362 146.763C44.2989 155.016 78.3437 153.984 94.1625 146.763V150.606C69.0181 158.632 54.5113 158.001 28.1362 150.606V146.763Z" fill="#D3D3D3"/>
<path d="M79.899 123.117C85.5044 123.492 90.231 118.152 90.6775 111.474C91.124 104.796 87.1503 98.8752 81.5449 98.5004C75.9394 98.1256 71.2128 103.465 70.7663 110.143C70.3198 116.821 74.2935 122.742 79.899 123.117Z" fill="url(#paint0_radial)" stroke="#1D1D1D" stroke-width="1.09205"/>
<circle cx="77.2669" cy="114.737" r="5.24457" transform="rotate(-16.0335 77.2669 114.737)" fill="#636363"/>
<path d="M32.4424 120.366C38.0479 120.74 42.7745 115.401 43.221 108.723C43.6675 102.045 39.6938 96.1238 34.0883 95.749C28.4828 95.3742 23.7563 100.714 23.3098 107.392C22.8633 114.07 26.8369 119.991 32.4424 120.366Z" fill="url(#paint1_radial)" stroke="#1D1D1D" stroke-width="1.09205"/>
<circle cx="36.6883" cy="108.546" r="5.24457" transform="rotate(-16.0335 36.6883 108.546)" fill="#636363"/>
<path d="M50.1444 186.654C50.1444 192.351 45.5255 196.97 39.8278 196.97C34.1301 196.97 29.5112 192.351 29.5112 186.654C29.5112 180.956 34.1301 176.337 39.8278 176.337C45.5255 176.337 50.1444 180.956 50.1444 186.654Z" fill="#E1DD76"/>
<path d="M50.1444 186.654C50.1444 192.351 45.5255 196.97 39.8278 196.97C43.7294 197.278 52.5603 197.034 59.5 194.015C60.957 193.381 61.7232 191.823 61.5478 190.244L61.1488 186.654H53.2394C52.8955 187.112 51.7951 187.754 50.1444 186.654Z" fill="#E1DD76"/>
<path d="M73.5289 186.654C73.5289 192.351 78.1478 196.97 83.8455 196.97C89.5432 196.97 94.1621 192.351 94.1621 186.654C94.1621 180.956 89.5432 176.337 83.8455 176.337C78.1478 176.337 73.5289 180.956 73.5289 186.654Z" fill="#E1DD76"/>
<path d="M73.5289 186.654C73.5289 192.351 78.1478 196.97 83.8455 196.97C79.9439 197.278 71.113 197.034 64.1733 194.015C62.7164 193.381 61.9501 191.823 62.1256 190.244L62.5245 186.654H70.4339C70.7778 187.112 71.8782 187.754 73.5289 186.654Z" fill="#E1DD76"/>
<path d="M102.489 135.992C100.841 139.832 96.392 141.608 92.5526 139.96C88.7131 138.312 86.9368 133.863 88.5851 130.023C90.2334 126.184 94.6821 124.408 98.5216 126.056C102.361 127.704 104.137 132.153 102.489 135.992Z" fill="#D3D3D3"/>
<path d="M102.489 135.992C100.841 139.832 96.392 141.608 92.5526 139.96C100.916 145.193 120.641 150.202 114.795 139.96C110.118 131.766 101.997 127.277 98.5216 126.056C102.361 127.704 104.137 132.153 102.489 135.992Z" fill="#D3D3D3"/>
<path d="M110.573 149.912C109.329 148.862 109.189 146.527 109.293 145.388L112.732 145.044C112.334 145.839 112.399 146.72 112.651 147.508C112.973 148.518 112.553 149.817 111.524 150.074C111.194 150.157 110.833 150.132 110.573 149.912Z" fill="#D3D3D3"/>
<path d="M117.845 146.117C117.52 144.522 115.537 143.281 114.488 142.826L112.538 145.679C113.426 145.711 114.168 146.19 114.74 146.789C115.472 147.556 116.813 147.81 117.532 147.03C117.762 146.78 117.913 146.451 117.845 146.117Z" fill="#D3D3D3"/>
<path d="M119.132 141.912C117.873 140.881 115.551 141.17 114.45 141.479L114.74 144.923C115.449 144.387 116.327 144.291 117.148 144.394C118.2 144.526 119.4 143.876 119.465 142.818C119.486 142.478 119.395 142.128 119.132 141.912Z" fill="#D3D3D3"/>
<path d="M118.444 139.161C117.185 138.129 114.863 138.418 113.762 138.728L114.052 142.172C114.761 141.636 115.639 141.539 116.46 141.642C117.512 141.775 118.712 141.125 118.777 140.066C118.798 139.726 118.707 139.376 118.444 139.161Z" fill="#D3D3D3"/>
<defs>
<radialGradient id="paint0_radial" cx="0" cy="0" r="1" gradientUnits="userSpaceOnUse" gradientTransform="translate(76.4514 109.841) rotate(44.6752) scale(18.4748 14.7798)">
<stop stop-color="white"/>
<stop offset="1" stop-color="#E7E7E7"/>
</radialGradient>
<radialGradient id="paint1_radial" cx="0" cy="0" r="1" gradientUnits="userSpaceOnUse" gradientTransform="translate(28.9949 107.089) rotate(44.6752) scale(18.4748 14.7798)">
<stop stop-color="white"/>
<stop offset="1" stop-color="#E7E7E7"/>
</radialGradient>
</defs>
</svg>
