<svg width="379" height="195" viewBox="0 0 379 195" fill="none" xmlns="http://www.w3.org/2000/svg">
<g clip-path="url(#clip0)">
<path d="M234.874 157.659C233.362 161.066 234.115 168.84 244.638 178.031C242.572 177.918 240.495 177.994 238.432 178.263C237.462 178.39 236.666 179.094 236.423 180.043L236.145 181.127C235.641 183.091 237.018 185.039 239.039 185.219L250.465 186.236C252.07 186.379 253.542 185.338 253.942 183.777L254.508 181.569L255.187 181.403L254.873 180.713C254.842 180.646 254.811 180.578 254.78 180.508L254.884 180.103L254.558 180.008C253.732 178.122 252.718 175.546 251.9 173.175C251.471 171.933 251.098 170.755 250.834 169.766C250.565 168.756 250.428 168.006 250.431 167.591C250.441 166.54 249.995 164.944 249.449 163.441C249.023 162.268 248.51 161.084 248.034 160.152C250.825 159.58 253.715 158.86 256.127 158.008C257.453 157.539 258.653 157.025 259.619 156.464C260.473 155.967 261.2 155.403 261.646 154.753C263.285 154.238 264.717 153.153 265.651 151.669C266.603 150.792 267.301 149.624 267.605 148.289L271.99 129.045L272.541 127.427L272.815 126.622C275.009 127.52 277.343 127.743 279.009 127.303C282.166 129.573 287.01 131.685 291.9 132.369C296.859 133.062 302.017 132.301 305.45 128.541C306.965 128.052 308.715 127.461 310.47 125.977C312.286 124.44 314.061 121.99 315.673 117.822C317.704 112.572 319.012 110.401 319.833 109.213C321.303 108.963 322.611 108.008 323.264 106.576L325.649 101.352C326.737 98.9675 325.626 96.1566 323.201 95.1613L321.099 94.2981C318.386 93.1842 315.335 94.8484 314.803 97.7326L313.555 104.493C306.635 107.083 300.48 109.951 296.747 116.692C295.402 115.731 294.333 114.884 293.418 114.159L293.325 114.086C291.546 112.677 290.249 111.649 288.592 111.301C286.98 110.962 285.11 111.276 282.212 112.2C281.197 110.941 279.9 110.026 278.478 109.482C281.271 102.42 283.003 98.8509 284.271 96.2372L284.272 96.2343L284.278 96.2218C285.057 94.6157 285.674 93.3449 286.253 91.8412L286.29 91.812L286.346 91.6165L286.369 91.5338C286.402 91.447 286.434 91.3592 286.466 91.2704L286.482 91.227L286.491 91.1818L286.547 90.9119L294.59 62.7352L294.605 62.7497L294.905 61.8042L298.141 51.5831L298.521 50.3827L297.333 50.8014L288.238 54.009L260.251 63.111L260.055 63.1541L259.916 63.3352C258.348 65.374 256.821 67.6533 255.341 70.1243C253.382 72.7151 251.645 75.5266 250.076 78.5221C249.941 78.5804 249.759 78.6669 249.547 78.7758C249.097 79.007 248.481 79.3544 247.822 79.7871C246.534 80.633 244.962 81.8815 244.24 83.2971C242.716 86.2843 242.811 89.6622 244.378 91.9379C243.921 93.2372 243.478 94.5561 243.044 95.8929C240.433 97.1944 238.402 99.4166 237.711 101.372C234.666 102.442 232.055 103.572 230.296 105.331C229.029 106.596 228.233 108.155 227.977 110.158C227.439 109.296 226.794 108.6 226.037 108.005C224.618 106.89 222.827 106.152 220.759 105.299L220.699 105.275C219.35 104.719 217.858 104.104 216.204 103.293C216.318 102.501 216.228 101.672 215.906 100.887L213.729 95.573C212.736 93.1478 209.926 92.0342 207.541 93.1206L205.472 94.0627C202.803 95.2785 201.928 98.6418 203.667 101.004L208.748 107.907C210.094 110.078 211.174 112.204 212.177 114.179L212.187 114.198C213.105 116.007 213.967 117.703 214.901 119.152C215.84 120.609 216.878 121.855 218.168 122.739C220.804 124.544 224.282 124.702 229.587 122.679C231.866 121.809 234.087 121.262 236.191 120.76L233.702 131.679C229.797 130.032 224.671 128.184 220.824 127.744C219.068 127.544 217.802 127.832 217.041 128.612C213.503 129.788 208.261 135.576 208.546 149.545C207.239 147.941 205.784 146.457 204.197 145.112C203.45 144.479 202.394 144.365 201.529 144.823L200.54 145.348C198.748 146.297 198.234 148.627 199.461 150.242L206.399 159.377C207.374 160.66 209.135 161.048 210.558 160.294L212.572 159.227L213.152 159.617L213.451 158.92C213.48 158.852 213.51 158.783 213.54 158.713L213.91 158.517L213.761 158.212C214.6 156.333 215.822 153.849 217.024 151.648C217.654 150.494 218.275 149.425 218.829 148.565C219.395 147.686 219.857 147.08 220.166 146.803C220.95 146.103 221.83 144.699 222.574 143.284C223.155 142.179 223.686 141.003 224.054 140.023C226.912 142.108 230.052 144.16 232.699 145.37C233.326 146.295 234.201 147.062 235.28 147.555C237.748 148.684 240.091 149.628 242.47 150.406C240.337 151.619 238.302 152.945 236.778 154.277C235.449 155.44 234.81 156.571 234.874 157.659ZM249.934 79.2833C249.825 79.0325 249.93 78.8036 249.956 78.7534L250.499 79.0358C250.444 79.0437 250.238 79.1305 249.934 79.2833Z" fill="#1D1D1D" stroke="#1D1D1D" stroke-width="1.2557"/>
<path d="M212.215 97.8303L314.554 105.365" stroke="#5372E1" stroke-width="1.2557"/>
<path d="M251.77 177.567L314.555 105.365" stroke="#5372E1" stroke-width="1.2557"/>
<path d="M251.77 181.334H436.985" stroke="url(#paint0_linear)" stroke-width="1.2557"/>
<mask id="path-5-outside-1" maskUnits="userSpaceOnUse" x="24" y="23" width="80" height="155" fill="black">
<rect fill="white" x="24" y="23" width="80" height="155"/>
<path fill-rule="evenodd" clip-rule="evenodd" d="M41.9853 85.8711C44.1849 61.8261 33.1055 39.2075 27 30.5739C34.5666 28.6523 37.4591 26.4704 37.9595 25.6196C44.9255 23.8181 83.0986 26.3703 101.314 27.8716C102.068 43.28 103.106 75.566 101.621 88.2085L101.915 88.0736V107.14L98.3117 109.842L89.6042 109.247C87.1182 109.077 84.8301 109.48 82.8483 110.313C81.2401 111.466 80.127 112.932 79.4103 114.589C80.1412 115.003 81.0763 115.302 82.2636 115.41C86.7736 115.817 88.8429 115.064 89.3765 114.596C87.5917 116.279 83.662 118.33 78.5481 117.616C78.1106 120.354 78.4264 123.361 79.1685 126.238C79.8462 125.748 80.6943 125.456 81.6147 125.456C83.8354 125.456 85.6356 127.154 85.6356 129.248C87.3108 129.996 88.9806 132.015 90.0342 133.566C91.1991 133.628 92.1435 134.52 92.2875 135.662C93.3881 136.396 94.5308 141.624 95.0884 144.831L95.1077 144.819C95.5247 144.572 96.0628 144.71 96.3095 145.127L97.3925 146.958C98.1207 148.188 97.7133 149.777 96.4827 150.505C95.2519 151.233 93.6638 150.826 92.9355 149.595L92.3101 148.538C91.8893 147.827 92.0214 146.941 92.5784 146.382C92.2468 145.975 91.7242 145.568 91.2612 145.208L91.2598 145.207C90.9059 144.931 90.5869 144.683 90.415 144.483C88.629 142.015 87.8736 139.973 87.6385 138.465C85.2243 137.212 83.3977 135.4 82.3404 134.063C82.3596 134.097 82.3787 134.13 82.3979 134.164C85.5161 139.562 84.002 147.508 82.852 150.817L88.1029 162.088C87.3071 163.638 85.7189 167.158 84.7997 170.518C85.3907 170.563 85.9753 170.675 86.5422 170.853L91.3785 172.37C92.2589 172.647 92.683 173.645 92.2703 174.471C92.0165 174.978 91.4975 175.299 90.9299 175.299C86.8374 176.033 84.6172 176.201 81.0361 175.299C80.2129 175.299 79.5455 174.632 79.5455 173.809C79.5455 173.508 79.6362 173.215 79.8059 172.967L81.4972 170.495H81.5388C82.1714 167.165 83.264 162.68 84.3496 162.088C83.2745 161.306 80.6049 158.815 78.355 155.007C76.3233 157.877 73.4685 159.742 70.2791 159.964C70.0665 159.978 69.8523 159.986 69.6369 159.986C66.4033 159.986 63.4719 158.299 61.3324 155.563C59.1591 159.057 56.6967 161.344 55.6748 162.088C56.7604 162.68 57.853 167.165 58.4856 170.495H58.5272L60.2185 172.967C60.3882 173.215 60.4789 173.508 60.4789 173.809C60.4789 174.632 59.8115 175.299 58.9883 175.299C54.9094 175.894 52.7693 175.816 49.0946 175.299C48.5269 175.299 48.0079 174.978 47.7541 174.471C47.3414 173.645 47.7655 172.647 48.6459 172.37L53.4822 170.853C54.0491 170.675 54.6337 170.563 55.2247 170.518C54.3056 167.158 52.7173 163.638 51.9215 162.088L58.0768 148.876L58.3567 149.313C57.9802 147.805 57.7766 146.195 57.7766 144.523C57.7766 140.549 58.9263 136.925 60.8157 134.186L60.7792 134.164C61.2916 133.48 61.9754 132.351 62.6491 130.867C62.2208 130.863 61.786 130.782 61.3638 130.615C61.1618 130.535 60.971 130.439 60.7923 130.329C61.1078 133.005 60.1489 135.44 58.1347 136.441C58.0985 136.459 58.0621 136.476 58.0253 136.494C53.0028 138.881 41.9342 141.079 36.948 131.106L29.4137 116.038C27.3455 111.018 26.5919 99.5967 40.124 94.0679C40.489 93.8864 40.8706 93.761 41.2623 93.6883V85.8217L41.9853 85.8711ZM65.1364 119.349C65.1418 121.088 64.9748 122.74 64.6977 124.273C64.4865 124.131 64.2569 124.009 64.0107 123.912C62.6582 123.378 61.1764 123.719 60.1913 124.664C59.5566 124.535 58.6754 124.396 57.6614 124.295C56.0165 122.831 54.008 122.177 52.2475 122.64C51.4092 122.168 50.1864 121.691 48.5458 121.447C46.9249 121.207 45.4179 120.569 44.2332 119.903C43.8045 118.677 42.6578 117.778 41.281 117.73L40.5878 117.706C40.2401 117.694 39.9062 117.752 39.5998 117.868C38.4125 115.683 37.4075 113.644 36.948 112.271C36.064 109.63 39.9484 108.358 43.541 107.844C44.6745 108.136 45.8182 108.065 46.8334 107.56C47.3934 107.282 47.8718 106.893 48.2639 106.418L52.2218 106.689C54.324 107.208 57.4725 108.432 60.1342 110.421C59.8831 112.158 58.5395 114.647 54.4738 114.647C49.9455 114.647 47.9522 113.711 47.4629 113.197C49.7051 115.73 55.9453 119.325 64.4141 115.579C64.8527 116.624 65.1127 117.764 65.133 119C65.1349 119.117 65.136 119.233 65.1364 119.349ZM45.11 127.179C44.4131 126.084 43.4698 124.561 42.4662 122.878L42.9042 122.893C43.1346 122.901 43.3542 122.854 43.5508 122.765C45.1284 124.221 47.0122 125.757 48.8106 126.815C48.7944 126.912 48.7801 127.009 48.7678 127.108C47.1973 128.434 45.8013 127.891 45.11 127.179ZM71.5788 150.054C72.0852 150.105 72.581 150.082 73.0541 149.994C73.554 149.349 73.8812 148.571 73.9663 147.715C74.2204 145.157 72.2193 142.864 69.4964 142.594C68.99 142.543 68.4942 142.566 68.0211 142.654C67.5212 143.299 67.194 144.077 67.1089 144.933C66.8548 147.491 68.8559 149.784 71.5788 150.054Z"/>
</mask>
<path fill-rule="evenodd" clip-rule="evenodd" d="M41.9853 85.8711C44.1849 61.8261 33.1055 39.2075 27 30.5739C34.5666 28.6523 37.4591 26.4704 37.9595 25.6196C44.9255 23.8181 83.0986 26.3703 101.314 27.8716C102.068 43.28 103.106 75.566 101.621 88.2085L101.915 88.0736V107.14L98.3117 109.842L89.6042 109.247C87.1182 109.077 84.8301 109.48 82.8483 110.313C81.2401 111.466 80.127 112.932 79.4103 114.589C80.1412 115.003 81.0763 115.302 82.2636 115.41C86.7736 115.817 88.8429 115.064 89.3765 114.596C87.5917 116.279 83.662 118.33 78.5481 117.616C78.1106 120.354 78.4264 123.361 79.1685 126.238C79.8462 125.748 80.6943 125.456 81.6147 125.456C83.8354 125.456 85.6356 127.154 85.6356 129.248C87.3108 129.996 88.9806 132.015 90.0342 133.566C91.1991 133.628 92.1435 134.52 92.2875 135.662C93.3881 136.396 94.5308 141.624 95.0884 144.831L95.1077 144.819C95.5247 144.572 96.0628 144.71 96.3095 145.127L97.3925 146.958C98.1207 148.188 97.7133 149.777 96.4827 150.505C95.2519 151.233 93.6638 150.826 92.9355 149.595L92.3101 148.538C91.8893 147.827 92.0214 146.941 92.5784 146.382C92.2468 145.975 91.7242 145.568 91.2612 145.208L91.2598 145.207C90.9059 144.931 90.5869 144.683 90.415 144.483C88.629 142.015 87.8736 139.973 87.6385 138.465C85.2243 137.212 83.3977 135.4 82.3404 134.063C82.3596 134.097 82.3787 134.13 82.3979 134.164C85.5161 139.562 84.002 147.508 82.852 150.817L88.1029 162.088C87.3071 163.638 85.7189 167.158 84.7997 170.518C85.3907 170.563 85.9753 170.675 86.5422 170.853L91.3785 172.37C92.2589 172.647 92.683 173.645 92.2703 174.471C92.0165 174.978 91.4975 175.299 90.9299 175.299C86.8374 176.033 84.6172 176.201 81.0361 175.299C80.2129 175.299 79.5455 174.632 79.5455 173.809C79.5455 173.508 79.6362 173.215 79.8059 172.967L81.4972 170.495H81.5388C82.1714 167.165 83.264 162.68 84.3496 162.088C83.2745 161.306 80.6049 158.815 78.355 155.007C76.3233 157.877 73.4685 159.742 70.2791 159.964C70.0665 159.978 69.8523 159.986 69.6369 159.986C66.4033 159.986 63.4719 158.299 61.3324 155.563C59.1591 159.057 56.6967 161.344 55.6748 162.088C56.7604 162.68 57.853 167.165 58.4856 170.495H58.5272L60.2185 172.967C60.3882 173.215 60.4789 173.508 60.4789 173.809C60.4789 174.632 59.8115 175.299 58.9883 175.299C54.9094 175.894 52.7693 175.816 49.0946 175.299C48.5269 175.299 48.0079 174.978 47.7541 174.471C47.3414 173.645 47.7655 172.647 48.6459 172.37L53.4822 170.853C54.0491 170.675 54.6337 170.563 55.2247 170.518C54.3056 167.158 52.7173 163.638 51.9215 162.088L58.0768 148.876L58.3567 149.313C57.9802 147.805 57.7766 146.195 57.7766 144.523C57.7766 140.549 58.9263 136.925 60.8157 134.186L60.7792 134.164C61.2916 133.48 61.9754 132.351 62.6491 130.867C62.2208 130.863 61.786 130.782 61.3638 130.615C61.1618 130.535 60.971 130.439 60.7923 130.329C61.1078 133.005 60.1489 135.44 58.1347 136.441C58.0985 136.459 58.0621 136.476 58.0253 136.494C53.0028 138.881 41.9342 141.079 36.948 131.106L29.4137 116.038C27.3455 111.018 26.5919 99.5967 40.124 94.0679C40.489 93.8864 40.8706 93.761 41.2623 93.6883V85.8217L41.9853 85.8711ZM65.1364 119.349C65.1418 121.088 64.9748 122.74 64.6977 124.273C64.4865 124.131 64.2569 124.009 64.0107 123.912C62.6582 123.378 61.1764 123.719 60.1913 124.664C59.5566 124.535 58.6754 124.396 57.6614 124.295C56.0165 122.831 54.008 122.177 52.2475 122.64C51.4092 122.168 50.1864 121.691 48.5458 121.447C46.9249 121.207 45.4179 120.569 44.2332 119.903C43.8045 118.677 42.6578 117.778 41.281 117.73L40.5878 117.706C40.2401 117.694 39.9062 117.752 39.5998 117.868C38.4125 115.683 37.4075 113.644 36.948 112.271C36.064 109.63 39.9484 108.358 43.541 107.844C44.6745 108.136 45.8182 108.065 46.8334 107.56C47.3934 107.282 47.8718 106.893 48.2639 106.418L52.2218 106.689C54.324 107.208 57.4725 108.432 60.1342 110.421C59.8831 112.158 58.5395 114.647 54.4738 114.647C49.9455 114.647 47.9522 113.711 47.4629 113.197C49.7051 115.73 55.9453 119.325 64.4141 115.579C64.8527 116.624 65.1127 117.764 65.133 119C65.1349 119.117 65.136 119.233 65.1364 119.349ZM45.11 127.179C44.4131 126.084 43.4698 124.561 42.4662 122.878L42.9042 122.893C43.1346 122.901 43.3542 122.854 43.5508 122.765C45.1284 124.221 47.0122 125.757 48.8106 126.815C48.7944 126.912 48.7801 127.009 48.7678 127.108C47.1973 128.434 45.8013 127.891 45.11 127.179ZM71.5788 150.054C72.0852 150.105 72.581 150.082 73.0541 149.994C73.554 149.349 73.8812 148.571 73.9663 147.715C74.2204 145.157 72.2193 142.864 69.4964 142.594C68.99 142.543 68.4942 142.566 68.0211 142.654C67.5212 143.299 67.194 144.077 67.1089 144.933C66.8548 147.491 68.8559 149.784 71.5788 150.054Z" fill="#1D1D1D"/>
<path d="M89.3765 114.596L88.9436 114.141L89.7907 115.068L89.3765 114.596ZM47.4629 113.197L47.0079 113.63L47.9349 112.783L47.4629 113.197ZM47.4177 113.145L47.8897 112.731L46.9275 113.538L47.4177 113.145ZM89.4261 114.549L89.8722 114.99L88.9933 114.094L89.4261 114.549ZM89.3987 114.576L89.8287 115.033L89.8332 115.029L89.3987 114.576ZM89.4104 114.564L89.8449 115.018L89.8507 115.012L89.8564 115.006L89.4104 114.564ZM46.9457 113.559L46.9909 113.611L47.9349 112.783L47.8897 112.731L46.9457 113.559ZM47.9179 112.764C47.912 112.758 47.9089 112.754 47.9079 112.753L46.9275 113.538C46.9531 113.57 46.9801 113.6 47.0079 113.63L47.9179 112.764ZM88.9933 114.094L88.9436 114.141L89.8094 115.051L89.859 115.003L88.9933 114.094ZM89.7907 115.068C89.8035 115.056 89.8162 115.045 89.8287 115.033L88.9687 114.118C88.9671 114.12 88.965 114.122 88.9622 114.124L89.7907 115.068ZM89.8332 115.029L89.8449 115.018L88.9759 114.111L88.9643 114.122L89.8332 115.029ZM89.8564 115.006L89.8722 114.99L88.9801 114.107L88.9644 114.123L89.8564 115.006ZM27 30.5739L26.6909 29.3569L24.9195 29.8067L25.9748 31.299L27 30.5739ZM41.9853 85.8711L41.8996 87.1239L43.1239 87.2077L43.2357 85.9855L41.9853 85.8711ZM37.9595 25.6196L37.6451 24.4039L37.1411 24.5343L36.8772 24.983L37.9595 25.6196ZM101.314 27.8716L102.569 27.8102L102.515 26.7106L101.417 26.6201L101.314 27.8716ZM101.621 88.2085L100.373 88.0619L100.113 90.2809L102.144 89.35L101.621 88.2085ZM101.915 88.0736H103.171V86.1168L101.392 86.9321L101.915 88.0736ZM101.915 107.14L102.668 108.145L103.171 107.768V107.14H101.915ZM98.3117 109.842L98.226 111.095L98.6917 111.127L99.0651 110.847L98.3117 109.842ZM89.6042 109.247L89.6899 107.994L89.6899 107.994L89.6042 109.247ZM82.8483 110.313L82.3616 109.155L82.2314 109.21L82.1166 109.292L82.8483 110.313ZM79.4103 114.589L78.2577 114.091L77.8099 115.127L78.7919 115.682L79.4103 114.589ZM82.2636 115.41L82.3765 114.159H82.3765L82.2636 115.41ZM89.3765 114.596L90.2381 115.509L88.5482 113.652L89.3765 114.596ZM78.5481 117.616L78.7217 116.372L77.5024 116.202L77.3081 117.418L78.5481 117.616ZM79.1685 126.238L77.9526 126.552L78.4128 128.335L79.9048 127.255L79.1685 126.238ZM85.6356 129.248H84.3799V130.062L85.1235 130.394L85.6356 129.248ZM90.0342 133.566L88.9955 134.272L89.3455 134.787L89.9675 134.82L90.0342 133.566ZM92.2875 135.662L91.0417 135.819L91.1135 136.388L91.5906 136.706L92.2875 135.662ZM95.0884 144.831L93.8512 145.046L94.1627 146.836L95.7273 145.912L95.0884 144.831ZM95.1077 144.819L95.7467 145.9L95.7472 145.9L95.1077 144.819ZM96.3095 145.127L95.2288 145.767L95.2288 145.767L96.3095 145.127ZM97.3925 146.958L96.3118 147.597L96.3119 147.597L97.3925 146.958ZM96.4827 150.505L97.1221 151.585L97.1221 151.585L96.4827 150.505ZM92.9355 149.595L91.8548 150.234L91.8548 150.234L92.9355 149.595ZM92.3101 148.538L93.3908 147.898L93.3908 147.898L92.3101 148.538ZM92.5784 146.382L93.4685 147.267L94.2665 146.465L93.5518 145.588L92.5784 146.382ZM91.2612 145.208L92.0324 144.217L92.0287 144.214L91.2612 145.208ZM91.2598 145.207L90.4887 146.198L90.4923 146.2L91.2598 145.207ZM90.415 144.483L89.3977 145.219L89.4285 145.262L89.4626 145.302L90.415 144.483ZM87.6385 138.465L88.8792 138.271L88.7812 137.643L88.2167 137.35L87.6385 138.465ZM82.3404 134.063L83.3251 133.284L81.2504 134.687L82.3404 134.063ZM82.3979 134.164L81.3106 134.792L81.3106 134.792L82.3979 134.164ZM82.852 150.817L81.6659 150.405L81.4987 150.886L81.7138 151.348L82.852 150.817ZM88.1029 162.088L89.2199 162.661L89.5007 162.115L89.2411 161.557L88.1029 162.088ZM84.7997 170.518L83.5885 170.186L83.1871 171.654L84.7041 171.77L84.7997 170.518ZM86.5422 170.853L86.9181 169.655L86.918 169.655L86.5422 170.853ZM91.3785 172.37L91.7544 171.172H91.7544L91.3785 172.37ZM92.2703 174.471L91.1472 173.909L91.1471 173.909L92.2703 174.471ZM90.9299 175.299V174.043H90.8182L90.7083 174.063L90.9299 175.299ZM81.0361 175.299L81.3428 174.081L81.1918 174.043H81.0361V175.299ZM79.8059 172.967L78.7695 172.258L78.7695 172.258L79.8059 172.967ZM81.4972 170.495V169.239H80.8349L80.4608 169.786L81.4972 170.495ZM81.5388 170.495V171.751H82.5784L82.7724 170.729L81.5388 170.495ZM84.3496 162.088L84.9509 163.19L86.6935 162.24L85.0882 161.072L84.3496 162.088ZM78.355 155.007L79.4361 154.368L78.45 152.699L77.3301 154.281L78.355 155.007ZM70.2791 159.964L70.1919 158.711L70.2791 159.964ZM61.3324 155.563L62.3216 154.789L61.2149 153.374L60.2661 154.9L61.3324 155.563ZM55.6748 162.088L54.9362 161.072L53.3309 162.24L55.0735 163.19L55.6748 162.088ZM58.4856 170.495L57.252 170.729L57.446 171.751H58.4856V170.495ZM58.5272 170.495L59.5636 169.786L59.1896 169.239H58.5272V170.495ZM60.2185 172.967L61.2549 172.258L61.2549 172.258L60.2185 172.967ZM58.9883 175.299V174.043H58.8973L58.8071 174.057L58.9883 175.299ZM49.0946 175.299L49.2694 174.056L49.1824 174.043H49.0946V175.299ZM47.7541 174.471L48.8773 173.909L48.8772 173.909L47.7541 174.471ZM48.6459 172.37L49.0218 173.569L48.6459 172.37ZM53.4822 170.853L53.1064 169.655L53.1063 169.655L53.4822 170.853ZM55.2247 170.518L55.3203 171.77L56.8373 171.654L56.4359 170.186L55.2247 170.518ZM51.9215 162.088L50.7833 161.557L50.5237 162.115L50.8045 162.661L51.9215 162.088ZM58.0768 148.876L59.134 148.199L57.9024 146.277L56.9386 148.346L58.0768 148.876ZM58.3567 149.313L57.2995 149.991L59.575 149.009L58.3567 149.313ZM60.8157 134.186L61.8494 134.899L62.6033 133.806L61.47 133.114L60.8157 134.186ZM60.7792 134.164L59.7747 133.41L58.9456 134.515L60.125 135.235L60.7792 134.164ZM62.6491 130.867L63.7924 131.387L64.5896 129.632L62.6622 129.612L62.6491 130.867ZM61.3638 130.615L61.8251 129.447L61.825 129.447L61.3638 130.615ZM60.7923 130.329L61.4514 129.26L59.2413 127.897L59.5453 130.476L60.7923 130.329ZM58.1347 136.441L58.6823 137.571L58.6938 137.566L58.1347 136.441ZM58.0253 136.494L58.5644 137.628L58.5645 137.628L58.0253 136.494ZM36.948 131.106L35.8248 131.668L36.948 131.106ZM29.4137 116.038L28.2527 116.516L28.2702 116.559L28.2906 116.6L29.4137 116.038ZM40.124 94.0679L40.5989 95.2304L40.6417 95.2129L40.6831 95.1923L40.124 94.0679ZM41.2623 93.6883L41.4914 94.9229L42.518 94.7324V93.6883H41.2623ZM41.2623 85.8217L41.348 84.5689L40.0066 84.4771V85.8217H41.2623ZM64.6977 124.273L63.9982 125.315L65.5919 126.384L65.9334 124.496L64.6977 124.273ZM65.1364 119.349L63.8807 119.353V119.353L65.1364 119.349ZM64.0107 123.912L64.4719 122.744L64.4719 122.744L64.0107 123.912ZM60.1913 124.664L59.9408 125.894L60.5855 126.025L61.0604 125.57L60.1913 124.664ZM57.6614 124.295L56.8265 125.233L57.1311 125.504L57.5368 125.545L57.6614 124.295ZM52.2475 122.64L51.6317 123.734L52.0751 123.984L52.5671 123.854L52.2475 122.64ZM48.5458 121.447L48.73 120.205H48.73L48.5458 121.447ZM44.2332 119.903L43.0478 120.318L43.2044 120.766L43.6182 120.998L44.2332 119.903ZM41.281 117.73L41.3244 116.475H41.3244L41.281 117.73ZM40.5878 117.706L40.5443 118.961H40.5443L40.5878 117.706ZM39.5998 117.868L38.4965 118.467L39.019 119.429L40.0429 119.043L39.5998 117.868ZM36.948 112.271L35.7572 112.67L36.948 112.271ZM43.541 107.844L43.8545 106.628L43.6115 106.565L43.363 106.601L43.541 107.844ZM46.8334 107.56L47.3925 108.684H47.3925L46.8334 107.56ZM48.2639 106.418L48.3496 105.165L47.7067 105.121L47.2961 105.618L48.2639 106.418ZM52.2218 106.689L52.523 105.47L52.4168 105.444L52.3075 105.436L52.2218 106.689ZM60.1342 110.421L61.377 110.601L61.4838 109.862L60.8859 109.415L60.1342 110.421ZM47.4629 113.197L48.3727 112.331L46.5227 114.029L47.4629 113.197ZM64.4141 115.579L65.572 115.093L65.0768 113.912L63.9061 114.43L64.4141 115.579ZM65.133 119L63.8775 119.021V119.021L65.133 119ZM42.4662 122.878L42.5096 121.623L40.2088 121.543L41.3876 123.52L42.4662 122.878ZM45.11 127.179L44.0506 127.853L44.1196 127.962L44.2091 128.054L45.11 127.179ZM42.9042 122.893L42.9477 121.638H42.9477L42.9042 122.893ZM43.5508 122.765L44.4023 121.842L43.7899 121.277L43.0313 121.622L43.5508 122.765ZM48.8106 126.815L50.049 127.023L50.1916 126.171L49.4476 125.733L48.8106 126.815ZM48.7678 127.108L49.578 128.067L49.9526 127.751L50.0137 127.264L48.7678 127.108ZM73.0541 149.994L73.2826 151.229L73.7536 151.142L74.0469 150.763L73.0541 149.994ZM71.5788 150.054L71.703 148.805L71.7029 148.805L71.5788 150.054ZM73.9663 147.715L75.2159 147.839L75.2159 147.839L73.9663 147.715ZM69.4964 142.594L69.6206 141.344L69.6206 141.344L69.4964 142.594ZM68.0211 142.654L67.7925 141.419L67.3216 141.506L67.0283 141.885L68.0211 142.654ZM67.1089 144.933L65.8593 144.809L65.8593 144.809L67.1089 144.933ZM25.9748 31.299C31.9753 39.7841 42.8981 62.1083 40.7348 85.7568L43.2357 85.9855C45.4716 61.5439 34.2357 38.6309 28.0252 29.8489L25.9748 31.299ZM36.8772 24.983C36.8829 24.9733 36.8557 25.0196 36.7579 25.1196C36.6649 25.2146 36.5271 25.3387 36.3336 25.4877C35.9465 25.786 35.3688 26.1594 34.5545 26.5789C32.9267 27.4175 30.4056 28.4135 26.6909 29.3569L27.3091 31.791C31.161 30.8127 33.8694 29.7569 35.7046 28.8115C36.6218 28.3389 37.334 27.8873 37.8663 27.4771C38.3743 27.0858 38.7966 26.6732 39.0418 26.2563L36.8772 24.983ZM101.417 26.6201C92.2999 25.8687 78.1874 24.8542 65.4776 24.2527C59.124 23.9521 53.1086 23.7541 48.2383 23.7447C43.435 23.7353 39.5721 23.9056 37.6451 24.4039L38.2739 26.8353C39.8299 26.4329 43.3509 26.2466 48.2335 26.256C53.049 26.2654 59.0215 26.4615 65.3589 26.7613C78.0311 27.361 92.113 28.3732 101.211 29.123L101.417 26.6201ZM102.868 88.355C104.368 75.5863 103.321 43.1828 102.569 27.8102L100.06 27.933C100.816 43.3772 101.844 75.5458 100.373 88.0619L102.868 88.355ZM101.392 86.9321L101.097 87.067L102.144 89.35L102.438 89.2151L101.392 86.9321ZM103.171 107.14V88.0736H100.659V107.14H103.171ZM99.0651 110.847L102.668 108.145L101.161 106.136L97.5583 108.838L99.0651 110.847ZM89.5184 110.499L98.226 111.095L98.3974 108.59L89.6899 107.994L89.5184 110.499ZM83.3351 111.47C85.13 110.716 87.2215 110.342 89.5185 110.499L89.6899 107.994C87.0149 107.811 84.5301 108.244 82.3616 109.155L83.3351 111.47ZM80.5628 115.088C81.195 113.626 82.1683 112.346 83.58 111.333L82.1166 109.292C80.3119 110.587 79.0591 112.238 78.2577 114.091L80.5628 115.088ZM82.3765 114.159C81.3401 114.065 80.5824 113.81 80.0287 113.497L78.7919 115.682C79.7001 116.196 80.8124 116.539 82.1508 116.66L82.3765 114.159ZM88.5482 113.652C88.5686 113.634 88.4897 113.704 88.2251 113.805C87.9765 113.9 87.6089 114.006 87.1001 114.093C86.0826 114.267 84.5497 114.355 82.3765 114.159L82.1508 116.66C84.4875 116.871 86.2443 116.787 87.5223 116.569C88.7451 116.36 89.6748 116.005 90.2048 115.54L88.5482 113.652ZM78.3744 118.86C83.9056 119.632 88.2069 117.425 90.2381 115.509L88.5149 113.682C86.9764 115.133 83.4184 117.028 78.7217 116.372L78.3744 118.86ZM80.3844 125.924C79.67 123.155 79.3861 120.329 79.788 117.814L77.3081 117.418C76.8351 120.378 77.1827 123.567 77.9526 126.552L80.3844 125.924ZM81.6147 124.2C80.4268 124.2 79.3216 124.577 78.4323 125.221L79.9048 127.255C80.3709 126.918 80.9619 126.712 81.6147 126.712V124.2ZM86.8913 129.248C86.8913 126.392 84.4583 124.2 81.6147 124.2V126.712C83.2124 126.712 84.3799 127.916 84.3799 129.248H86.8913ZM91.073 132.861C90.5189 132.045 89.7947 131.094 88.975 130.237C88.169 129.396 87.2004 128.571 86.1478 128.101L85.1235 130.394C85.746 130.672 86.4499 131.232 87.161 131.974C87.8583 132.703 88.4959 133.536 88.9955 134.272L91.073 132.861ZM93.5333 135.504C93.3139 133.765 91.8769 132.407 90.101 132.313L89.9675 134.82C90.5212 134.85 90.9732 135.276 91.0417 135.819L93.5333 135.504ZM96.3255 144.615C96.0431 142.992 95.6101 140.84 95.1027 138.987C94.8499 138.064 94.5697 137.182 94.2686 136.466C94.1183 136.109 93.9513 135.765 93.7648 135.468C93.5907 135.19 93.3391 134.854 92.9845 134.617L91.5906 136.706C91.511 136.653 91.536 136.641 91.6372 136.802C91.7261 136.944 91.8333 137.154 91.9535 137.44C92.1937 138.011 92.4404 138.774 92.6805 139.651C93.1589 141.398 93.5761 143.464 93.8512 145.046L96.3255 144.615ZM94.4688 143.738L94.4494 143.75L95.7273 145.912L95.7467 145.9L94.4688 143.738ZM97.3903 144.488C96.7903 143.474 95.482 143.139 94.4682 143.738L95.7472 145.9C95.5674 146.006 95.3352 145.947 95.2288 145.767L97.3903 144.488ZM98.4732 146.318L97.3902 144.488L95.2288 145.767L96.3118 147.597L98.4732 146.318ZM97.1221 151.585C98.9495 150.504 99.5546 148.146 98.4732 146.318L96.3119 147.597C96.6869 148.231 96.4771 149.049 95.8432 149.424L97.1221 151.585ZM91.8548 150.234C92.9362 152.062 95.2945 152.667 97.1221 151.585L95.8432 149.424C95.2092 149.799 94.3913 149.589 94.0163 148.955L91.8548 150.234ZM91.2294 149.177L91.8548 150.234L94.0163 148.956L93.3908 147.898L91.2294 149.177ZM91.6883 145.496C90.7376 146.451 90.5102 147.962 91.2294 149.177L93.3908 147.898C93.2685 147.692 93.3052 147.431 93.4685 147.267L91.6883 145.496ZM90.4901 146.199C90.9883 146.586 91.3822 146.901 91.605 147.175L93.5518 145.588C93.1114 145.048 92.4601 144.55 92.0324 144.217L90.4901 146.199ZM90.4923 146.2L90.4937 146.202L92.0287 144.214L92.0273 144.213L90.4923 146.2ZM89.4626 145.302C89.7374 145.621 90.1838 145.961 90.4887 146.198L92.0308 144.216C91.628 143.902 91.4365 143.745 91.3673 143.665L89.4626 145.302ZM86.3978 138.658C86.6692 140.398 87.5191 142.623 89.3977 145.219L91.4323 143.747C89.7389 141.407 89.0781 139.547 88.8792 138.271L86.3978 138.658ZM81.3557 134.843C82.4925 136.279 84.4496 138.225 87.0603 139.579L88.2167 137.35C85.9991 136.2 84.303 134.52 83.3251 133.284L81.3557 134.843ZM83.4853 133.536C83.467 133.504 83.4487 133.472 83.4304 133.44L81.2504 134.687C81.2704 134.722 81.2905 134.757 81.3106 134.792L83.4853 133.536ZM84.0381 151.23C84.65 149.469 85.3419 146.535 85.4801 143.328C85.6176 140.137 85.2129 136.527 83.4853 133.536L81.3106 134.792C82.7011 137.199 83.0985 140.262 82.971 143.22C82.8442 146.164 82.204 148.857 81.6659 150.405L84.0381 151.23ZM89.2411 161.557L83.9902 150.287L81.7138 151.348L86.9647 162.618L89.2411 161.557ZM86.0109 170.849C86.8999 167.599 88.4489 164.163 89.2199 162.661L86.9859 161.514C86.1652 163.112 84.5378 166.716 83.5885 170.186L86.0109 170.849ZM86.918 169.655C86.2601 169.449 85.5816 169.318 84.8954 169.266L84.7041 171.77C85.1999 171.808 85.6904 171.902 86.1664 172.051L86.918 169.655ZM91.7544 171.172L86.9181 169.655L86.1663 172.051L91.0026 173.569L91.7544 171.172ZM93.3934 175.032C94.152 173.515 93.3724 171.68 91.7544 171.172L91.0026 173.569C91.1454 173.613 91.2141 173.775 91.1472 173.909L93.3934 175.032ZM90.9299 176.555C91.9732 176.555 92.927 175.965 93.3935 175.032L91.1471 173.909C91.1061 173.991 91.0219 174.043 90.9299 174.043V176.555ZM80.7294 176.517C84.5549 177.48 86.9747 177.284 91.1514 176.535L90.7083 174.063C86.7001 174.782 84.6796 174.922 81.3428 174.081L80.7294 176.517ZM78.2898 173.809C78.2898 175.325 79.5194 176.555 81.0361 176.555V174.043C80.9064 174.043 80.8012 173.938 80.8012 173.809H78.2898ZM78.7695 172.258C78.457 172.715 78.2898 173.255 78.2898 173.809H80.8012C80.8012 173.761 80.8155 173.715 80.8422 173.676L78.7695 172.258ZM80.4608 169.786L78.7695 172.258L80.8422 173.676L82.5335 171.204L80.4608 169.786ZM81.5388 169.239H81.4972V171.751H81.5388V169.239ZM83.7484 160.985C83.3792 161.187 83.1125 161.489 82.9272 161.744C82.7317 162.014 82.5599 162.324 82.4079 162.643C82.1039 163.28 81.8246 164.068 81.5725 164.901C81.0662 166.573 80.6253 168.576 80.3052 170.261L82.7724 170.729C83.085 169.084 83.5066 167.18 83.9762 165.629C84.212 164.85 84.4489 164.197 84.6749 163.723C84.7879 163.486 84.8846 163.323 84.959 163.221C85.0437 163.104 85.0486 163.137 84.9509 163.19L83.7484 160.985ZM77.2739 155.646C79.6092 159.598 82.3942 162.218 83.6111 163.103L85.0882 161.072C84.1547 160.393 81.6006 158.032 79.4361 154.368L77.2739 155.646ZM70.3662 161.216C74.012 160.963 77.1819 158.837 79.3799 155.732L77.3301 154.281C75.4647 156.917 72.925 158.521 70.1919 158.711L70.3662 161.216ZM69.6369 161.242C69.8815 161.242 70.1246 161.233 70.3662 161.216L70.1919 158.711C70.0083 158.724 69.8232 158.73 69.6369 158.73V161.242ZM60.3432 156.336C62.6673 159.308 65.9378 161.242 69.6369 161.242V158.73C66.8687 158.73 64.2765 157.289 62.3216 154.789L60.3432 156.336ZM56.4133 163.103C57.5726 162.26 60.1441 159.851 62.3987 156.226L60.2661 154.9C58.174 158.264 55.8209 160.429 54.9362 161.072L56.4133 163.103ZM59.7192 170.261C59.3991 168.576 58.9582 166.573 58.4519 164.901C58.1998 164.068 57.9205 163.28 57.6165 162.643C57.4645 162.324 57.2928 162.014 57.0972 161.744C56.9119 161.489 56.6452 161.187 56.276 160.985L55.0735 163.19C54.9758 163.137 54.9807 163.104 55.0654 163.221C55.1398 163.323 55.2365 163.486 55.3495 163.723C55.5755 164.197 55.8124 164.85 56.0482 165.629C56.5178 167.18 56.9394 169.084 57.252 170.729L59.7192 170.261ZM58.5272 169.239H58.4856V171.751H58.5272V169.239ZM61.2549 172.258L59.5636 169.786L57.4909 171.204L59.1822 173.676L61.2549 172.258ZM61.7346 173.809C61.7346 173.255 61.5674 172.715 61.2549 172.258L59.1822 173.676C59.2089 173.715 59.2232 173.761 59.2232 173.809H61.7346ZM58.9883 176.555C60.5051 176.555 61.7346 175.325 61.7346 173.809H59.2232C59.2232 173.938 59.118 174.043 58.9883 174.043V176.555ZM48.9197 176.543C52.6969 177.074 54.9578 177.156 59.1695 176.542L58.8071 174.057C54.8609 174.632 52.8416 174.558 49.2694 174.056L48.9197 176.543ZM46.6309 175.032C47.0974 175.965 48.0512 176.555 49.0946 176.555V174.043C49.0025 174.043 48.9184 173.991 48.8773 173.909L46.6309 175.032ZM48.27 171.172C46.652 171.68 45.8724 173.515 46.631 175.032L48.8772 173.909C48.8103 173.775 48.879 173.613 49.0218 173.569L48.27 171.172ZM53.1063 169.655L48.27 171.172L49.0218 173.569L53.8581 172.051L53.1063 169.655ZM55.129 169.266C54.4428 169.318 53.7643 169.449 53.1064 169.655L53.858 172.051C54.334 171.902 54.8246 171.808 55.3203 171.77L55.129 169.266ZM50.8045 162.661C51.5755 164.163 53.1245 167.599 54.0135 170.849L56.4359 170.186C55.4866 166.716 53.8592 163.112 53.0386 161.514L50.8045 162.661ZM56.9386 148.346L50.7833 161.557L53.0597 162.618L59.2151 149.407L56.9386 148.346ZM59.4138 148.635L59.134 148.199L57.0197 149.554L57.2995 149.991L59.4138 148.635ZM56.5209 144.523C56.5209 146.296 56.7368 148.008 57.1384 149.617L59.575 149.009C59.2235 147.601 59.0323 146.093 59.0323 144.523H56.5209ZM59.7821 133.473C57.7379 136.436 56.5209 140.313 56.5209 144.523H59.0323C59.0323 140.785 60.1148 137.413 61.8494 134.899L59.7821 133.473ZM60.125 135.235L60.1615 135.258L61.47 133.114L61.4335 133.092L60.125 135.235ZM61.5059 130.348C60.8612 131.767 60.2214 132.815 59.7747 133.41L61.7838 134.917C62.3619 134.146 63.0896 132.934 63.7924 131.387L61.5059 130.348ZM60.9026 131.783C61.4698 132.007 62.0567 132.117 62.6361 132.123L62.6622 129.612C62.3849 129.609 62.1022 129.556 61.8251 129.447L60.9026 131.783ZM60.1333 131.398C60.3745 131.546 60.6315 131.676 60.9026 131.783L61.825 129.447C61.6921 129.394 61.5674 129.332 61.4514 129.26L60.1333 131.398ZM58.6938 137.566C61.3459 136.247 62.3925 133.177 62.0394 130.182L59.5453 130.476C59.8231 132.833 58.9518 134.632 57.5756 135.317L58.6938 137.566ZM58.5645 137.628C58.6039 137.609 58.6432 137.59 58.6823 137.571L57.5871 135.311C57.5539 135.327 57.5203 135.343 57.4861 135.36L58.5645 137.628ZM35.8248 131.668C38.54 137.098 42.971 139.25 47.3491 139.685C51.6534 140.112 55.9075 138.891 58.5644 137.628L57.4861 135.36C55.1206 136.484 51.3291 137.556 47.597 137.186C43.9386 136.823 40.3422 135.087 38.0711 130.545L35.8248 131.668ZM28.2906 116.6L35.8248 131.668L38.0711 130.545L30.5369 115.476L28.2906 116.6ZM39.6491 92.9055C32.5574 95.8029 29.0765 100.32 27.7154 104.885C26.3741 109.383 27.1301 113.792 28.2527 116.516L30.5748 115.56C29.6292 113.265 28.9742 109.452 30.1221 105.603C31.2502 101.819 34.1585 97.8617 40.5989 95.2304L39.6491 92.9055ZM41.0332 92.4536C40.5295 92.5471 40.0366 92.709 39.5649 92.9436L40.6831 95.1923C40.9413 95.0639 41.2116 94.9748 41.4914 94.9229L41.0332 92.4536ZM40.0066 85.8217V93.6883H42.518V85.8217H40.0066ZM42.071 84.6184L41.348 84.5689L41.1766 87.0745L41.8996 87.1239L42.071 84.6184ZM65.9334 124.496C66.2229 122.895 66.3978 121.167 66.3921 119.345L63.8807 119.353C63.8859 121.009 63.7268 122.585 63.4621 124.049L65.9334 124.496ZM63.5495 125.08C63.7115 125.144 63.8612 125.223 63.9982 125.315L65.3972 123.23C65.1118 123.038 64.8024 122.875 64.4719 122.744L63.5495 125.08ZM61.0604 125.57C61.7044 124.953 62.6701 124.733 63.5495 125.08L64.4719 122.744C62.6462 122.023 60.6484 122.486 59.3222 123.757L61.0604 125.57ZM57.5368 125.545C58.5129 125.642 59.3518 125.774 59.9408 125.894L60.4418 123.433C59.7613 123.295 58.8379 123.15 57.786 123.046L57.5368 125.545ZM52.5671 123.854C53.806 123.528 55.3954 123.959 56.8265 125.233L58.4963 123.357C56.6375 121.702 54.2099 120.825 51.9278 121.426L52.5671 123.854ZM48.3616 122.689C49.8552 122.911 50.9311 123.34 51.6317 123.734L52.8632 121.546C51.8872 120.997 50.5175 120.47 48.73 120.205L48.3616 122.689ZM43.6182 120.998C44.8895 121.712 46.5441 122.42 48.3616 122.689L48.73 120.205C47.3058 119.994 45.9463 119.425 44.8482 118.808L43.6182 120.998ZM41.2375 118.985C42.0796 119.014 42.7842 119.563 43.0478 120.318L45.4186 119.489C44.8247 117.79 43.2359 116.542 41.3244 116.475L41.2375 118.985ZM40.5443 118.961L41.2375 118.985L41.3244 116.475L40.6312 116.451L40.5443 118.961ZM40.0429 119.043C40.1968 118.985 40.3654 118.955 40.5443 118.961L40.6312 116.451C40.1147 116.433 39.6156 116.52 39.1567 116.693L40.0429 119.043ZM35.7572 112.67C36.2553 114.158 37.3093 116.283 38.4965 118.467L40.7031 117.268C39.5158 115.083 38.5597 113.13 38.1387 111.872L35.7572 112.67ZM43.363 106.601C41.5244 106.864 39.4757 107.336 37.9658 108.157C37.2089 108.569 36.4771 109.127 36.0202 109.897C35.531 110.721 35.4247 111.676 35.7572 112.67L38.1387 111.872C38.0292 111.545 38.0771 111.352 38.1798 111.179C38.3149 110.951 38.613 110.664 39.1658 110.363C40.2752 109.76 41.9649 109.338 43.7189 109.087L43.363 106.601ZM46.2743 106.436C45.5675 106.787 44.7396 106.856 43.8545 106.628L43.2274 109.06C44.6095 109.416 46.0688 109.343 47.3925 108.684L46.2743 106.436ZM47.2961 105.618C47.0101 105.964 46.6688 106.24 46.2743 106.436L47.3925 108.684C48.1179 108.324 48.7334 107.821 49.2317 107.218L47.2961 105.618ZM52.3075 105.436L48.3496 105.165L48.1782 107.671L52.1361 107.942L52.3075 105.436ZM60.8859 109.415C58.0629 107.306 54.7519 106.021 52.523 105.47L51.9206 107.908C53.8961 108.396 56.8822 109.559 59.3825 111.427L60.8859 109.415ZM54.4738 115.902C56.7807 115.902 58.4605 115.187 59.6034 114.092C60.7236 113.018 61.2207 111.682 61.377 110.601L58.8914 110.242C58.7966 110.898 58.4963 111.674 57.8655 112.279C57.2574 112.862 56.2326 113.391 54.4738 113.391V115.902ZM46.5531 114.062C47.0391 114.573 47.9331 115.011 49.1322 115.329C50.3855 115.66 52.1276 115.902 54.4738 115.902V113.391C52.2917 113.391 50.7731 113.165 49.7753 112.901C49.2763 112.769 48.9197 112.63 48.6807 112.513C48.4262 112.388 48.3539 112.312 48.3727 112.331L46.5531 114.062ZM63.9061 114.43C56.0065 117.925 50.3356 114.547 48.4031 112.365L46.5227 114.029C49.0746 116.912 55.8842 120.725 64.9221 116.727L63.9061 114.43ZM66.3885 118.98C66.3655 117.576 66.0695 116.279 65.572 115.093L63.2562 116.064C63.636 116.97 63.8599 117.952 63.8775 119.021L66.3885 118.98ZM66.3921 119.345C66.3917 119.224 66.3905 119.102 66.3885 118.98L63.8775 119.021C63.8793 119.132 63.8804 119.243 63.8807 119.353L66.3921 119.345ZM41.3876 123.52C42.3973 125.214 43.3471 126.748 44.0506 127.853L46.1693 126.505C45.4792 125.42 44.5423 123.908 43.5448 122.235L41.3876 123.52ZM42.9477 121.638L42.5096 121.623L42.4227 124.132L42.8608 124.148L42.9477 121.638ZM43.0313 121.622C43.0073 121.633 42.98 121.639 42.9477 121.638L42.8608 124.148C43.2892 124.162 43.7011 124.076 44.0702 123.908L43.0313 121.622ZM49.4476 125.733C47.7583 124.739 45.9489 123.269 44.4023 121.842L42.6993 123.688C44.3078 125.172 46.2661 126.775 48.1735 127.898L49.4476 125.733ZM50.0137 127.264C50.024 127.183 50.0357 127.102 50.049 127.023L47.5721 126.608C47.5531 126.722 47.5364 126.836 47.5219 126.951L50.0137 127.264ZM44.2091 128.054C44.7248 128.585 45.5124 129.067 46.4924 129.158C47.5063 129.253 48.5734 128.916 49.578 128.067L47.9576 126.148C47.3917 126.626 46.9756 126.681 46.726 126.658C46.4425 126.631 46.1865 126.485 46.0108 126.304L44.2091 128.054ZM72.8257 148.759C72.4681 148.825 72.091 148.843 71.703 148.805L71.4545 151.304C72.0794 151.366 72.6939 151.338 73.2826 151.229L72.8257 148.759ZM72.7168 147.59C72.656 148.202 72.4234 148.758 72.0614 149.225L74.0469 150.763C74.6846 149.94 75.1064 148.941 75.2159 147.839L72.7168 147.59ZM69.3722 143.843C71.4798 144.053 72.8951 145.795 72.7168 147.591L75.2159 147.839C75.5457 144.519 72.9588 141.676 69.6206 141.344L69.3722 143.843ZM68.2496 143.889C68.6072 143.823 68.9842 143.805 69.3723 143.843L69.6206 141.344C68.9957 141.282 68.3812 141.31 67.7925 141.419L68.2496 143.889ZM68.3584 145.058C68.4192 144.446 68.6518 143.89 69.0138 143.423L67.0283 141.885C66.3906 142.708 65.9688 143.707 65.8593 144.809L68.3584 145.058ZM71.7029 148.805C69.5955 148.596 68.1801 146.853 68.3584 145.057L65.8593 144.809C65.5295 148.129 68.1163 150.972 71.4546 151.304L71.7029 148.805Z" fill="#1D1D1D" mask="url(#path-5-outside-1)"/>
<path d="M66.0385 128.587C65.3076 130.438 63.2146 131.346 61.3638 130.615C61.0745 130.501 60.8082 130.353 60.5676 130.178C59.2691 129.236 58.7193 127.502 59.3359 125.94C59.5327 125.442 59.8283 125.012 60.1912 124.664C61.1763 123.719 62.6581 123.378 64.0106 123.912C65.8615 124.643 66.7694 126.736 66.0385 128.587Z" fill="#45D7B0"/>
<path d="M59.3359 125.94C59.5327 125.442 59.8283 125.012 60.1912 124.664C58.3921 124.298 54.6134 123.858 51.4412 124.4C51.4189 124.405 51.3975 124.408 51.3772 124.411C50.6058 124.547 49.8716 124.741 49.2118 125.009C48.0367 125.487 48.4207 126.117 49.6403 126.785C51.9325 128.041 57.1766 129.428 60.5676 130.178C59.2691 129.236 58.7193 127.502 59.3359 125.94Z" fill="#45D7B0"/>
<path d="M40.4111 122.807C39.0028 122.758 37.9006 121.577 37.9494 120.168C37.9981 118.76 39.1794 117.658 40.5877 117.706L41.2809 117.73C43.0721 117.793 44.4739 119.295 44.4119 121.086L44.3976 121.499C44.37 122.297 43.7013 122.92 42.9042 122.893L40.4111 122.807Z" fill="#45D7B0"/>
<path d="M55.1289 125.24C54.5716 124.797 54.0423 124.252 53.546 123.647C53.5323 123.63 53.5186 123.613 53.5049 123.596C53.0212 123.026 51.4285 121.875 48.546 121.447C45.5759 121.007 42.9879 119.231 42.0653 118.398L41.1207 120.346C43.8509 123.305 50.1279 128.989 53.3941 128.055C56.6603 127.121 57.9917 127.839 57.655 126.876C57.6711 128.266 56.1215 126.03 55.1289 125.24Z" fill="#45D7B0"/>
<path d="M46.8333 107.56C49.6276 106.171 50.3909 102.024 48.5382 98.298C46.6854 94.5722 42.9182 92.6784 40.1239 94.0679C37.3296 95.4575 36.5663 99.6043 38.419 103.33C39.5987 105.702 41.5543 107.332 43.5409 107.844C44.6745 108.136 45.8181 108.065 46.8333 107.56Z" fill="#2E53D2"/>
<path d="M58.1346 136.441C60.9289 135.052 61.6922 130.905 59.8395 127.179C57.9867 123.453 54.2195 121.559 51.4252 122.949C49.9173 123.699 49.0008 125.252 48.7677 127.108C48.5689 128.691 48.8674 130.496 49.7203 132.211C51.549 135.888 55.2427 137.781 58.0252 136.494C58.062 136.476 58.0985 136.459 58.1346 136.441Z" fill="#2E53D2"/>
<path d="M38.419 103.33C36.5663 99.6043 37.3296 95.4575 40.1239 94.0679C26.5918 99.5967 27.3454 111.018 29.4137 116.038L36.9479 131.106C41.9342 141.079 53.0027 138.881 58.0252 136.494C55.2427 137.781 51.549 135.888 49.7203 132.211C48.8674 130.496 48.5689 128.691 48.7677 127.108C47.1972 128.434 45.8012 127.891 45.1099 127.179C42.8796 123.675 38.1248 115.787 36.9479 112.271C36.064 109.63 39.9483 108.358 43.5409 107.844C41.5543 107.332 39.5987 105.702 38.419 103.33Z" fill="#2E53D2"/>
<ellipse cx="43.4787" cy="100.814" rx="5.65064" ry="7.53418" transform="rotate(-26.4403 43.4787 100.814)" fill="#8199F0"/>
<ellipse cx="54.78" cy="129.695" rx="5.65064" ry="7.53418" transform="rotate(-26.4403 54.78 129.695)" fill="#8199F0"/>
<circle cx="53.2721" cy="124.828" r="0.627849" fill="#1D1D1D"/>
<circle cx="41.9709" cy="95.9467" r="0.627849" fill="#1D1D1D"/>
<circle cx="57.0392" cy="133.618" r="0.627849" fill="#1D1D1D"/>
<circle cx="45.738" cy="104.737" r="0.627849" fill="#1D1D1D"/>
<circle cx="55.7834" cy="129.851" r="0.627849" fill="#1D1D1D"/>
<circle cx="44.4821" cy="100.97" r="0.627849" fill="#1D1D1D"/>
<circle cx="53.2721" cy="132.362" r="0.627849" fill="#1D1D1D"/>
<circle cx="41.9709" cy="103.481" r="0.627849" fill="#1D1D1D"/>
<circle cx="52.0163" cy="128.595" r="0.627849" fill="#1D1D1D"/>
<circle cx="40.715" cy="99.7138" r="0.627849" fill="#1D1D1D"/>
<circle cx="57.0392" cy="126.083" r="0.627849" fill="#1D1D1D"/>
<circle cx="45.738" cy="97.2026" r="0.627849" fill="#1D1D1D"/>
<circle cx="58.2948" cy="129.851" r="0.627849" fill="#1D1D1D"/>
<circle cx="46.9936" cy="100.97" r="0.627849" fill="#1D1D1D"/>
<path d="M58.0766 148.876L51.9213 162.088C52.7171 163.637 54.3053 167.158 55.2245 170.518C54.6335 170.563 54.0489 170.675 53.482 170.853L48.6457 172.37C47.7653 172.647 47.3412 173.645 47.7539 174.471C48.0077 174.978 48.5267 175.299 49.0943 175.299C52.7691 175.816 54.9092 175.894 58.9881 175.299C59.8113 175.299 60.4787 174.632 60.4787 173.809C60.4787 173.508 60.388 173.215 60.2183 172.967L58.527 170.495H58.4854C57.8528 167.165 56.7602 162.68 55.6745 162.088C56.7755 161.287 59.5479 158.695 61.8299 154.731L58.0766 148.876Z" fill="#45D7B0"/>
<path d="M81.9475 148.876L88.1029 162.088C87.3071 163.637 85.7188 167.158 84.7997 170.518C85.3907 170.563 85.9752 170.675 86.5422 170.853L91.3785 172.37C92.2589 172.647 92.683 173.645 92.2703 174.471C92.0165 174.978 91.4975 175.299 90.9298 175.299C86.8374 176.033 84.6172 176.201 81.0361 175.299C80.2128 175.299 79.5455 174.632 79.5455 173.809C79.5455 173.508 79.6362 173.215 79.8058 172.967L81.4972 170.495H81.5388C82.1714 167.165 83.264 162.68 84.3496 162.088C83.2487 161.287 80.4763 158.695 78.1943 154.731L81.9475 148.876Z" fill="#45D7B0"/>
<path d="M98.1616 93.3283L41.5626 89.4249C45.2858 64.0829 33.4055 39.6318 27 30.5739C34.5666 28.6523 37.4591 26.4704 37.9595 25.6196C44.9255 23.8181 83.0986 26.3703 101.314 27.8716C102.115 44.2358 103.236 79.6364 101.314 90.3257L98.1616 93.3283Z" fill="#D5C797"/>
<path fill-rule="evenodd" clip-rule="evenodd" d="M41.5626 89.4249L98.1616 93.3283L101.314 90.3257C103.236 79.6364 102.115 44.2358 101.314 27.8716C97.8313 29.4329 94.3583 33.3263 93.0572 35.0778L60.479 32.976V35.0778L58.227 32.976L27 30.5739C33.4055 39.6318 45.2858 64.0829 41.5626 89.4249Z" fill="#C7B883"/>
<path d="M60.479 32.976L93.0572 35.0778C94.3583 33.3263 97.8313 29.4329 101.314 27.8716C83.0986 26.3703 44.9255 23.8181 37.9595 25.6196C37.4591 26.4704 34.5666 28.6523 27 30.5739L58.227 32.976L60.479 35.0778V32.976Z" fill="#DECF9B"/>
<path fill-rule="evenodd" clip-rule="evenodd" d="M98.1616 93.3283L41.5626 89.4249C45.2858 64.0829 33.4055 39.6318 27 30.5739L58.227 32.976L60.479 35.0778V32.976L93.0572 35.0778C98.3418 44.2057 98.662 77.7147 98.1616 93.3283Z" fill="#DECF9B"/>
<path fill-rule="evenodd" clip-rule="evenodd" d="M37.9595 25.6196C44.9255 23.8181 83.0986 26.3703 101.314 27.8716C97.8313 29.4329 94.3583 33.3263 93.0572 35.0778L60.479 32.976V35.0778L58.227 32.976L27 30.5739C34.5666 28.6523 37.4591 26.4704 37.9595 25.6196Z" fill="#F2DF9A"/>
<path d="M82.2478 54.2948C81.6473 45.7674 77.4937 36.5294 75.4919 32.9763H80.146C83.8692 38.9815 83.0985 49.6908 82.2478 54.2948Z" fill="#F2DF9A"/>
<path d="M47.1174 48.7397C46.3968 40.3324 40.9121 32.8259 38.2598 30.1235H42.3133C47.718 38.2906 47.768 45.9372 47.1174 48.7397Z" fill="#F2DF9A"/>
<path fill-rule="evenodd" clip-rule="evenodd" d="M98.3116 89.7249L41.2622 85.8215V105.939L52.2217 106.689C56.4753 107.74 65.0128 111.674 65.1329 119C65.2529 126.327 62.2804 132.162 60.7791 134.163L60.8156 134.186C58.9262 136.925 57.7765 140.548 57.7765 144.522C57.7765 153.063 63.0865 159.986 69.6368 159.986C73.1597 159.986 76.3237 157.983 78.4961 154.804L82.8482 150.828C83.9987 147.525 85.5193 139.568 82.3978 134.163C78.4961 127.408 75.4918 115.587 82.8482 110.313C84.83 109.479 87.1181 109.076 89.6041 109.247L98.3116 109.842L101.915 107.14V88.0735L98.3116 89.7249ZM71.5786 150.054C74.3014 150.325 76.7146 148.471 76.9688 145.913C77.2229 143.355 75.2218 141.062 72.4989 140.792C69.7762 140.521 67.363 142.376 67.1088 144.933C66.8547 147.491 68.8558 149.784 71.5786 150.054Z" fill="#45D7B0"/>
<path fill-rule="evenodd" clip-rule="evenodd" d="M41.2622 85.8215L98.3116 89.7249V109.842L89.6041 109.247C82.0976 108.733 76.3926 113.445 75.4918 119.451C74.7922 124.115 77.5267 131.704 79.1063 135.21C80.6071 137.8 81.497 141.026 81.497 144.522C81.497 153.063 76.1871 159.986 69.6368 159.986C63.0865 159.986 57.7765 153.063 57.7765 144.522C57.7765 140.548 58.9262 136.925 60.8156 134.186L60.7791 134.163C62.2804 132.162 65.2529 126.327 65.1329 119C65.0128 111.674 56.4753 107.74 52.2217 106.689L41.2622 105.939V85.8215ZM68.576 151.856C71.2988 152.126 73.712 150.272 73.9662 147.715C74.2203 145.157 72.2192 142.864 69.4963 142.593C66.7736 142.323 64.3604 144.177 64.1062 146.735C63.8521 149.292 65.8532 151.585 68.576 151.856Z" fill="#2AAC89"/>
<path d="M87.7058 106.919C91.6465 107.695 95.4438 104.996 96.2366 100.966C97.0294 96.9365 94.5376 93.0001 90.5969 92.2248C86.6562 91.4495 82.8588 94.1485 82.066 98.1781C81.2732 102.208 83.765 106.144 87.7058 106.919Z" fill="url(#paint1_radial)" stroke="#1D1D1D" stroke-width="1.49284"/>
<path d="M49.8732 103.736C53.814 104.511 57.6113 101.812 58.4041 97.7828C59.1969 93.7532 56.7051 89.8168 52.7644 89.0415C48.8236 88.2661 45.0263 90.9651 44.2335 94.9948C43.4407 99.0244 45.9325 102.961 49.8732 103.736Z" fill="url(#paint2_radial)" stroke="#1D1D1D" stroke-width="1.49284"/>
<circle cx="87.0611" cy="101.294" r="3.56335" transform="rotate(-8.72807 87.0611 101.294)" fill="#636363"/>
<circle cx="52.8314" cy="97.3908" r="3.56335" transform="rotate(-8.72807 52.8314 97.3908)" fill="#636363"/>
<path d="M70.0871 109.692C70.0871 111.849 68.7085 113.685 66.7842 114.365C66.2677 114.547 65.7119 114.647 65.1328 114.647C62.4393 114.647 60.2478 112.497 60.1801 109.82C60.1791 109.777 60.1785 109.735 60.1785 109.692C60.1785 106.956 62.3966 104.738 65.1328 104.738C67.869 104.738 70.0871 106.956 70.0871 109.692Z" fill="#614B32"/>
<path d="M65.1328 114.647C62.4393 114.647 60.2478 112.497 60.1801 109.82C60.1725 111.508 59.0399 114.647 54.4736 114.647C49.9453 114.647 47.952 113.711 47.4627 113.197C49.9093 115.961 57.1161 119.989 66.7842 114.365C66.2677 114.547 65.7119 114.647 65.1328 114.647Z" fill="#614B32"/>
<path d="M67.1585 109.072C66.9646 111.22 68.1727 113.172 70.028 114.022C70.526 114.25 71.0707 114.399 71.6474 114.451C74.33 114.694 76.7058 112.75 77.0139 110.089C77.0187 110.047 77.0231 110.005 77.0269 109.962C77.2729 107.237 75.2631 104.829 72.538 104.583C69.8129 104.337 67.4044 106.347 67.1585 109.072Z" fill="#7C654A"/>
<path d="M71.6474 114.451C74.33 114.694 76.7058 112.75 77.0139 110.089C76.8698 111.771 77.7156 114.999 82.2634 115.41C86.7734 115.817 88.8427 115.064 89.3763 114.596C86.6911 117.128 79.1514 120.493 70.028 114.022C70.526 114.25 71.0707 114.399 71.6474 114.451Z" fill="#7C654A"/>
<path d="M85.6355 129.248C85.6355 127.154 83.8353 125.456 81.6146 125.456C79.394 125.456 77.5938 127.154 77.5938 129.248C77.5938 131.342 79.394 133.039 81.6146 133.039C82.3794 134.292 84.5182 136.846 87.6384 138.465C87.8735 139.973 88.6289 142.015 90.4149 144.483C90.5869 144.683 90.9058 144.931 91.2597 145.207C91.723 145.567 92.2464 145.974 92.5783 146.382C92.0213 146.941 91.8892 147.827 92.31 148.538L92.9355 149.595C93.6637 150.826 95.2518 151.233 96.4826 150.505C97.7132 149.777 98.1207 148.188 97.3924 146.958L96.3094 145.127C96.0627 144.71 95.5246 144.572 95.1076 144.819L95.0883 144.831C94.5307 141.624 93.388 136.396 92.2874 135.662C92.1435 134.52 91.199 133.628 90.0342 133.566C88.9805 132.015 87.3107 129.996 85.6355 129.248Z" fill="#2AAC89"/>
<path d="M244.015 146.057C241.825 147.21 239.287 147.027 237.333 145.797C236.371 145.192 235.551 144.333 234.984 143.255C233.263 139.987 234.518 135.944 237.785 134.224C241.053 132.503 245.097 133.758 246.817 137.025C248.537 140.293 247.283 144.337 244.015 146.057Z" fill="#F6CAEF"/>
<path d="M234.984 143.255C233.263 139.987 234.518 135.944 237.785 134.224C234.376 132.531 226.195 128.99 220.752 128.368C218.969 128.164 217.931 128.515 217.391 129.16C216.284 130.485 217.277 133.054 218.238 134.633C219.667 135.859 221.613 137.433 223.741 139.013C228.697 142.693 234.638 146.402 237.333 145.797C236.371 145.192 235.551 144.333 234.984 143.255Z" fill="#F6CAEF"/>
<path d="M218.238 134.633C217.277 133.054 216.284 130.485 217.391 129.16C213.785 130.222 207.202 137.187 209.724 156.553L212.874 158.673C214.483 154.92 218.167 147.748 219.748 146.335C221.128 145.101 223.092 141.094 223.741 139.013C221.613 137.433 219.667 135.859 218.238 134.633Z" fill="#F6CAEF"/>
<path d="M201.823 145.378C202.461 145.04 203.241 145.124 203.792 145.591C207.289 148.554 210.134 152.212 212.144 156.332L213.079 158.247L210.264 159.739C209.112 160.349 207.688 160.035 206.899 158.997L199.961 149.862C198.968 148.555 199.384 146.671 200.834 145.902L201.823 145.378Z" fill="#F6CAEF"/>
<path d="M247.919 111.916C243.354 112.053 238.352 106.426 238.214 101.862C238.967 99.1894 242.856 95.5237 247.42 95.386C251.985 95.2483 255.797 98.837 255.934 103.402C256.072 107.966 252.484 111.778 247.919 111.916Z" fill="#D16262"/>
<path d="M247.919 111.916C243.354 112.053 238.352 106.426 238.214 101.862C231 104.366 226.795 106.896 229.19 116.343L229.363 122.092C237.897 118.837 245.575 120.043 247.919 111.916Z" fill="#D16262"/>
<path d="M229.363 122.092L229.19 116.343C228.056 106.865 223.609 107.807 215.134 103.459C206.658 99.1109 208.14 101.318 208.594 100.465L206.74 103.907C215.76 115.514 214.534 127.748 229.363 122.092Z" fill="#D16262"/>
<path d="M207.801 93.6921C209.861 92.7534 212.29 93.7156 213.148 95.8111L215.325 101.126C216.064 102.929 215.392 105.003 213.735 106.03L209.897 108.41L204.172 100.632C202.67 98.5908 203.426 95.6847 205.732 94.6342L207.801 93.6921Z" fill="#D16262"/>
<path d="M235.323 127.395C246.965 132.42 254.09 134.615 269.926 135.28L266.993 148.15C266.369 150.886 263.923 152.839 261.119 152.735C250.201 152.329 243.573 150.658 235.541 146.984C233.039 145.839 231.752 143.063 232.363 140.381L235.323 127.395Z" fill="#EBB9E3"/>
<path d="M260.414 63.7179C252.729 76.5574 243.32 96.1588 238.066 115.359C250.099 122.744 266.148 123.693 272.669 123.245C277.502 91.8502 275.779 99.2846 285.742 91.4441L297.058 51.8006L260.414 63.7179Z" fill="#EEDAB3"/>
<path fill-rule="evenodd" clip-rule="evenodd" d="M258.686 67.0816C248.047 78.6989 243.321 96.1584 238.066 115.359C240.974 117.144 244.117 118.553 247.304 119.657C252.321 121.395 257.099 122.418 261.585 122.922C266.657 102.364 261.595 100.704 274.662 88.6092L276.66 75.4378L264.669 78.9755L258.964 67.0203L258.686 67.0816Z" fill="#F08181"/>
<path d="M287.571 82.7908L274.662 88.6092C261.595 100.704 266.657 102.364 261.585 122.922C266.036 123.423 269.859 123.453 272.321 123.284C279.737 93.0581 275.101 101.138 285.877 91.0557L287.571 82.7908Z" fill="#F08181"/>
<path fill-rule="evenodd" clip-rule="evenodd" d="M260.414 63.7181C251.22 75.6737 243.32 96.1582 238.065 115.359C240.974 117.144 244.117 118.553 247.303 119.657C252.321 121.395 257.446 122.378 261.931 122.883C267.004 102.325 261.594 100.704 274.661 88.6094L276.312 75.4776L264.321 79.0152L260.691 63.6568L260.414 63.7181Z" fill="#F08181"/>
<path d="M287.57 82.7909L274.661 88.6094C261.594 100.704 267.004 102.325 261.931 122.883C266.383 123.384 270.205 123.414 272.668 123.244C280.084 93.0184 275.1 101.139 285.876 91.0558L287.57 82.7909Z" fill="#F08181"/>
<path d="M287.571 82.7907L274.662 88.6092C266.707 99.947 267.004 102.325 261.932 122.883C266.383 123.384 270.206 123.414 272.668 123.244C281.591 98.2506 283.864 96.5841 285.876 91.0556L287.571 82.7907Z" fill="#D05D5D"/>
<path fill-rule="evenodd" clip-rule="evenodd" d="M264.587 78.725C257.987 88.2738 251.901 97.9295 247.304 119.657C252.321 121.396 257.446 122.378 261.932 122.883C267.004 102.325 267.965 99.1002 274.928 88.3191L276.579 75.1873L264.587 78.725Z" fill="#E47272"/>
<path d="M238.066 115.359C249.708 120.385 256.833 122.58 272.668 123.245L268.668 140.797C252.692 140.708 245.401 138.628 234.066 132.912L238.066 115.359Z" fill="#D9D9D9"/>
<path d="M270.187 134.034C262.606 135.83 246.594 129.87 240.529 126.873C239.931 126.577 239.198 126.866 238.984 127.498C238.813 128.003 239.04 128.557 239.519 128.791C252.164 134.967 266.569 137.257 269.422 136.584L270.187 134.034Z" fill="#AEAEAE"/>
<path d="M271.947 127.225C264.366 129.021 247.965 123.736 241.85 120.829C241.246 120.542 240.513 120.831 240.299 121.464C240.129 121.969 240.355 122.524 240.835 122.755C253.5 128.867 268.344 129.677 271.102 129.707L271.947 127.225Z" fill="#AEAEAE"/>
<path d="M281.983 112.933C284.664 116.63 282.825 123.931 279.128 126.612C276.495 127.493 271.277 126.339 268.596 122.643C265.915 118.946 266.738 113.776 270.435 111.095C274.131 108.414 279.302 109.237 281.983 112.933Z" fill="#F08181"/>
<path d="M281.983 112.933C284.664 116.63 282.825 123.931 279.128 126.612C285.257 131.169 298.632 135.288 305.096 127.995L296.966 117.615C289.475 112.39 290.021 110.301 281.983 112.933Z" fill="#F08181"/>
<path d="M296.966 117.615L305.096 127.995C308.195 126.997 311.914 125.8 315.087 117.596C318.26 109.391 319.71 108.582 320.34 107.353L315.015 104.622C307.367 107.426 300.748 110.241 296.966 117.615Z" fill="#F08181"/>
<path d="M322.963 95.7418C325.058 96.6019 326.018 99.0307 325.078 101.091L322.693 106.315C321.884 108.089 319.912 109.018 318.029 108.513L313.667 107.343L315.42 97.8463C315.88 95.3541 318.516 93.9161 320.86 94.8786L322.963 95.7418Z" fill="#F08181"/>
<path d="M294.306 61.6148L287.223 55.0328L297.542 51.3936L294.306 61.6148Z" fill="#D05D5D"/>
<path d="M246.641 93.5559C249.899 95.2178 254.106 93.2365 256.092 89.3421C258.078 85.4478 257.213 80.8795 253.954 79.2175C250.695 77.5556 246.489 79.537 244.503 83.4313C242.517 87.3256 243.382 91.8939 246.641 93.5559Z" fill="url(#paint3_radial)" stroke="#1D1D1D" stroke-width="0.665145"/>
<path d="M265.355 103.387C268.613 105.049 272.82 103.068 274.806 99.1732C276.792 95.2789 275.926 90.7106 272.668 89.0486C269.409 87.3866 265.203 89.368 263.217 93.2623C261.23 97.1566 262.096 101.725 265.355 103.387Z" fill="url(#paint4_radial)" stroke="#1D1D1D" stroke-width="0.665145"/>
<circle cx="250.58" cy="89.1067" r="3.43205" transform="rotate(7.16457 250.58 89.1067)" fill="#636363"/>
<circle cx="270.671" cy="92.8738" r="3.43205" transform="rotate(7.16457 270.671 92.8738)" fill="#636363"/>
<path d="M265.932 149.451C265.31 151.846 263.466 153.601 261.241 154.218C260.146 154.522 258.959 154.55 257.78 154.244C254.206 153.317 252.06 149.668 252.987 146.093C253.914 142.519 257.563 140.373 261.138 141.3C264.713 142.227 266.859 145.876 265.932 149.451Z" fill="#F6CAEF"/>
<path d="M257.78 154.244C254.206 153.317 252.06 149.668 252.987 146.093C249.44 147.476 241.315 151.143 237.192 154.749C235.841 155.931 235.401 156.935 235.515 157.769C235.75 159.479 238.318 160.474 240.132 160.826C242.001 160.594 244.475 160.214 247.076 159.704C253.133 158.516 259.875 156.618 261.241 154.218C260.146 154.522 258.959 154.55 257.78 154.244Z" fill="#F6CAEF"/>
<path d="M240.132 160.826C238.318 160.474 235.75 159.479 235.515 157.769C233.873 161.151 234.594 170.707 250.614 181.876L254.302 180.973C252.609 177.257 249.785 169.706 249.804 167.585C249.82 165.734 248.179 161.584 247.076 159.704C244.475 160.214 242.001 160.594 240.132 160.826Z" fill="#F6CAEF"/>
<path d="M237.031 180.198C237.21 179.499 237.798 178.979 238.514 178.886C243.06 178.294 247.679 178.652 252.08 179.938L254.125 180.535L253.334 183.621C253.01 184.884 251.819 185.726 250.521 185.611L239.094 184.594C237.46 184.448 236.346 182.872 236.753 181.283L237.031 180.198Z" fill="#F6CAEF"/>
<path d="M52.7417 137.385C54.2067 139.896 65.9265 144.793 101.086 144.291C145.035 143.663 218.494 129.223 235.446 127.967" stroke="#5372E1" stroke-width="1.2557"/>
<path d="M271.233 131.106C262.443 125.037 243.984 111.015 240.469 103.481" stroke="#5372E1" stroke-width="1.2557" stroke-linecap="round"/>
<path d="M279.395 107.248C268.867 109.056 246.994 112.224 239.213 109.296" stroke="#5372E1" stroke-width="1.2557" stroke-linecap="round"/>
<path d="M236.073 123.572C228.539 119.387 212.09 110.387 209.076 107.876" stroke="#5372E1" stroke-width="1.2557" stroke-linecap="round"/>
<path d="M313.299 104.109L319.577 109.76" stroke="#5372E1" stroke-width="1.2557" stroke-linecap="round"/>
<path d="M312.671 104.737L318.322 111.643" stroke="#5372E1" stroke-width="1.2557" stroke-linecap="round"/>
<path d="M308.276 107.248L317.066 113.527" stroke="#5372E1" stroke-width="1.2557" stroke-linecap="round"/>
<path d="M244.863 178.195L254.909 180.706" stroke="#5372E1" stroke-width="1.2557" stroke-linecap="round"/>
<path d="M242.352 175.056L249.886 166.266" stroke="#5372E1" stroke-width="1.2557" stroke-linecap="round"/>
<circle cx="134.864" cy="51.3072" r="4.14383" fill="#1D1D1D"/>
<circle cx="147.296" cy="49.2349" r="4.14383" fill="#1D1D1D"/>
<circle cx="159.727" cy="49.2349" r="4.14383" fill="#1D1D1D"/>
<path d="M122.433 91.0379C126.958 90.2775 136.796 86.2394 139.94 76.1701" stroke="#1D1D1D" stroke-width="1.0991" stroke-linecap="round"/>
</g>
<defs>
<linearGradient id="paint0_linear" x1="251.77" y1="181.834" x2="423.172" y2="181.834" gradientUnits="userSpaceOnUse">
<stop stop-color="#5372E1"/>
<stop offset="0.737569" stop-color="#5372E1" stop-opacity="0"/>
</linearGradient>
<radialGradient id="paint1_radial" cx="0" cy="0" r="1" gradientUnits="userSpaceOnUse" gradientTransform="translate(86.3129 98.6168) rotate(46.8954) scale(11.8229 9.06607)">
<stop stop-color="white"/>
<stop offset="1" stop-color="#E7E7E7"/>
</radialGradient>
<radialGradient id="paint2_radial" cx="0" cy="0" r="1" gradientUnits="userSpaceOnUse" gradientTransform="translate(48.4804 95.4335) rotate(46.8954) scale(11.8229 9.06607)">
<stop stop-color="white"/>
<stop offset="1" stop-color="#E7E7E7"/>
</radialGradient>
<radialGradient id="paint3_radial" cx="0" cy="0" r="1" gradientUnits="userSpaceOnUse" gradientTransform="translate(247.978 84.7036) rotate(67.8732) scale(12.0899 9.67193)">
<stop stop-color="white"/>
<stop offset="1" stop-color="#E7E7E7"/>
</radialGradient>
<radialGradient id="paint4_radial" cx="0" cy="0" r="1" gradientUnits="userSpaceOnUse" gradientTransform="translate(266.692 94.5346) rotate(67.8732) scale(12.0899 9.67193)">
<stop stop-color="white"/>
<stop offset="1" stop-color="#E7E7E7"/>
</radialGradient>
<clipPath id="clip0">
<rect width="379" height="195" fill="white"/>
</clipPath>
</defs>
</svg>
