<svg width="160" height="160" viewBox="0 0 160 160" fill="none" xmlns="http://www.w3.org/2000/svg">
<path opacity="0.5" fill-rule="evenodd" clip-rule="evenodd" d="M73.2263 22.6003C89.9972 19.1804 107.142 4.05329 122.217 12.1551C136.972 20.0852 134.532 42.0347 139.268 58.094C143.836 73.5845 154.664 89.0022 149.379 104.263C144.11 119.476 126.72 125.825 112.928 134.144C100.399 141.701 87.8588 150.423 73.2263 150.196C58.7094 149.971 45.09 142.754 34.4094 132.926C24.5263 123.832 20.6396 110.728 16.4645 97.9671C12.2809 85.1806 6.4024 71.9808 10.2507 59.0895C14.137 46.0711 25.1259 36.3698 36.8868 29.5554C47.824 23.2182 60.8389 25.1263 73.2263 22.6003Z" fill="#9DF1DB"/>
<rect x="62" y="65" width="36" height="30" rx="3" stroke="#8199F0" stroke-width="2"/>
<path d="M66 90L75.6552 80.4L79.0345 83.76L84.8276 78L94 87.12" stroke="#8199F0" stroke-width="2" stroke-linecap="round"/>
<circle cx="70.5" cy="72.5" r="3.5" fill="#8199F0"/>
</svg>
