<svg width="160" height="160" viewBox="0 0 160 160" fill="none" xmlns="http://www.w3.org/2000/svg">
<path opacity="0.5" fill-rule="evenodd" clip-rule="evenodd" d="M73.2263 22.6003C89.9972 19.1804 107.142 4.05329 122.217 12.1551C136.972 20.0852 134.532 42.0347 139.268 58.094C143.836 73.5845 154.664 89.0022 149.379 104.263C144.11 119.476 126.72 125.825 112.928 134.144C100.399 141.701 87.8588 150.423 73.2263 150.196C58.7094 149.971 45.09 142.754 34.4094 132.926C24.5263 123.832 20.6396 110.728 16.4645 97.9671C12.2809 85.1806 6.4024 71.9808 10.2507 59.0895C14.137 46.0711 25.1259 36.3698 36.8868 29.5554C47.824 23.2182 60.8389 25.1263 73.2263 22.6003Z" fill="#9DF1DB"/>
<path d="M145.913 138.611L145.881 138.6H145.847H89.8364H89.6364V138.8V139.333H88H87.8V139.533V140.357V140.499L87.9347 140.546L90.5546 141.451V141.456V141.598L90.6893 141.645L91.4181 141.897H90.7546H90.5546V142.097V142.629H89.6069H89.4069V142.829V143.653V143.796L89.5415 143.842L96.4281 146.223L96.4599 146.234H96.4935H152.504H152.704V146.034V145.501H153.652H153.852V145.301V144.769H154.8H155V144.569V143.745V143.602L154.865 143.556L153.852 143.205V143.012V142.87L153.718 142.823L151.929 142.205H152.734H152.934V142.005V141.181V141.038L152.799 140.992L145.913 138.611Z" fill="#1D1D1D" stroke="#1D1D1D" stroke-width="0.4"/>
<path d="M89.6069 142.829H145.618L152.505 145.21H96.4935L89.6069 142.829Z" fill="#F0F0F0"/>
<path d="M96.4934 146.034H152.504V145.21H96.4934V146.034Z" fill="#7B7B7B"/>
<path d="M89.6069 142.829V143.653L96.4935 146.034V145.21L89.6069 142.829Z" fill="#999999"/>
<path d="M90.7546 142.097H146.766L153.652 144.477H97.6412L90.7546 142.097Z" fill="#F0F0F0"/>
<path d="M97.6414 145.302H153.652V144.477H97.6414V145.302Z" fill="#7B7B7B"/>
<path d="M90.7546 142.097V142.921L97.6412 145.302V144.477L90.7546 142.097Z" fill="#999999"/>
<path d="M91.9023 141.364H147.913L154.8 143.745H98.7889L91.9023 141.364Z" fill="#F0F0F0"/>
<path d="M98.7891 144.569H154.8V143.745H98.7891V144.569Z" fill="#7B7B7B"/>
<path d="M91.9023 141.364V142.188L98.7889 144.569V143.745L91.9023 141.364Z" fill="#999999"/>
<path d="M90.7546 140.631H146.766L153.652 143.012H97.6412L90.7546 140.631Z" fill="#F0F0F0"/>
<path d="M97.6414 143.836H153.652V143.012H97.6414V143.836Z" fill="#7B7B7B"/>
<path d="M90.7546 140.631V141.455L97.6412 143.836V143.012L90.7546 140.631Z" fill="#999999"/>
<path d="M88 139.533H144.011L150.898 141.913H94.8866L88 139.533Z" fill="#F0F0F0"/>
<path d="M94.8865 142.737H150.897V141.913H94.8865V142.737Z" fill="#7B7B7B"/>
<path d="M88 139.533V140.357L94.8866 142.738V141.913L88 139.533Z" fill="#999999"/>
<path d="M89.8367 138.8H145.848L152.734 141.181H96.7233L89.8367 138.8Z" fill="white"/>
<path d="M96.7229 142.005H152.734V141.181H96.7229V142.005Z" fill="#7B7B7B"/>
<path d="M89.8367 138.8V139.624L96.7233 142.005V141.181L89.8367 138.8Z" fill="#999999"/>
<mask id="path-21-outside-1" maskUnits="userSpaceOnUse" x="30.5642" y="8.60001" width="70" height="142" fill="black">
<rect fill="white" x="30.5642" y="8.60001" width="70" height="142"/>
<path d="M63.3741 43.1007C63.4429 43.3379 63.5025 43.5891 63.5523 43.8546C64.0196 46.3456 63.0227 48.3892 61.5349 51.4387C59.4124 55.7893 56.2909 62.1875 54.9974 74.8537C54.269 81.9854 54.7087 88.6289 55.5894 94.7028C56.3872 95.037 56.987 95.7796 57.0959 96.7L64.9487 112.939C67.8426 116.29 73.1174 124.989 71.0656 132.973C70.9102 133.578 70.7419 134.117 70.5629 134.594L71.9953 137.914L72.0343 137.916L72.0476 138.035L72.0595 138.063L72.0511 138.066L72.3528 140.783C72.3947 141.161 72.0891 141.487 71.709 141.47L70.2965 141.408C69.9453 141.392 69.6773 141.088 69.7063 140.737L69.9044 138.341L69.402 137.177L69.2123 140.108L69.2463 140.127L69.2037 140.24L69.2018 140.27L69.1926 140.269L68.2265 142.826C68.0919 143.182 67.6713 143.334 67.3404 143.146L66.111 142.447C65.8053 142.274 65.705 141.881 65.8901 141.582L67.1558 139.538L67.2697 137.779C67.0958 137.762 66.9225 137.724 66.7515 137.667L66.0256 139.158L66.0497 139.189L65.9679 139.276L65.9545 139.304L65.9461 139.3L64.0838 141.3C63.8245 141.578 63.3776 141.56 63.1426 141.26L62.2691 140.149C62.052 139.872 62.108 139.47 62.3925 139.264L64.3379 137.852L65.0336 136.423C63.7677 134.971 62.9582 132.67 63.3495 131.077C63.7192 129.573 63.4593 127.36 63.1752 124.942L63.1749 124.94C62.7302 121.155 62.226 116.864 63.9806 113.99C62.2678 110.138 58.9212 103.32 56.595 100.609C57.102 103.242 57.6515 105.746 58.171 108.115C58.8649 111.278 59.5056 114.199 59.9208 116.857C60.1327 118.214 60.3902 119.581 60.649 120.954L60.6492 120.955C61.0703 123.189 61.4949 125.442 61.7317 127.699C62.3373 133.473 60.7762 138.677 58.005 141.322L57.6487 143.603C57.6257 143.75 57.6295 143.901 57.6599 144.047L58.2597 146.926H59.0088C59.6936 146.926 60.2488 147.481 60.2488 148.166V148.195C60.2488 148.732 59.9052 149.218 59.3819 149.339C58.1603 149.621 57.196 149.558 55.9174 149.302C55.3658 149.191 54.979 148.698 54.979 148.135C54.979 147.681 55.229 147.286 55.5989 147.079V142.837C55.1838 142.983 54.7538 143.081 54.3107 143.127C53.1966 143.244 52.0526 143.233 50.9491 143.008V147.079C51.319 147.286 51.5691 147.681 51.5691 148.135C51.5691 148.698 51.1822 149.191 50.6306 149.302C49.352 149.558 48.3877 149.621 47.1661 149.339C46.6428 149.218 46.2992 148.732 46.2992 148.195V148.166C46.2992 147.481 46.8544 146.926 47.5392 146.926H48.2719L48.6985 144.58C48.7517 144.286 48.7517 143.986 48.6985 143.692L48.3897 141.994C45.7859 140.342 43.8505 136.727 43.8503 129.575C43.7734 128.842 43.8176 125.737 43.84 124.156C43.8451 123.802 43.849 123.525 43.8503 123.367C43.8737 118.225 44.0747 109.139 44.4449 100.673C42.3333 103.757 39.6313 110.287 38.2357 114.046C40.1676 116.803 39.9342 121.117 39.7284 124.923L39.7283 124.925C39.5968 127.357 39.4766 129.581 39.94 131.059C40.4307 132.624 39.7676 134.972 38.5955 136.5L39.3797 137.883L41.41 139.17C41.707 139.358 41.7881 139.755 41.5887 140.045L40.787 141.209C40.5712 141.523 40.1264 141.57 39.85 141.308L37.8657 139.429L37.8575 139.434L37.8425 139.407L37.7553 139.324L37.7774 139.292L36.9592 137.85C36.7921 137.917 36.6216 137.967 36.449 137.994L36.6733 139.743L38.065 141.703C38.2686 141.99 38.1932 142.388 37.899 142.581L36.7159 143.355C36.3975 143.563 35.9683 143.438 35.8115 143.091L34.6866 140.601L34.6774 140.602L34.6736 140.572L34.624 140.462L34.6567 140.441L34.2831 137.527L33.855 138.721L34.2033 141.1C34.2542 141.448 34.0059 141.768 33.6564 141.806L32.2507 141.958C31.8724 141.999 31.5469 141.692 31.5649 141.312L31.6952 138.582L31.6865 138.579L31.6967 138.551L31.7024 138.43L31.7413 138.426L32.9621 135.023C32.7535 134.558 32.5515 134.031 32.3584 133.437C29.8086 125.598 34.526 116.584 37.2034 113.058L44.0195 96.3569C44.0544 95.7225 44.3247 95.157 44.741 94.7405C45.0108 90.0129 45.3403 85.8999 45.7278 83.3785C45.9867 81.6937 46.2979 79.5093 46.6513 77.0296C47.301 72.4696 48.0931 66.9109 48.9635 61.6243C47.8037 60.4313 47.2584 58.4557 47.6855 56.4033C48.0897 54.4615 49.2646 52.93 50.6938 52.236C51.5329 48.2943 52.402 45.2029 53.256 43.8545C54.4902 41.9057 56.2992 40.5287 58.068 40.0314C58.3878 37.0734 58.2635 32.5667 56.2012 29.1294C65.0359 15.9548 79.1405 10.995 94.795 9.60001L96.19 10.995C95.851 11.1271 95.516 11.2576 95.1851 11.3866L95.1839 11.387C85.0811 15.323 78.7167 17.8025 73.9656 22.4742C72.8645 23.557 71.85 24.7575 70.8958 26.1212C70.7981 26.1032 70.6996 26.0888 70.6007 26.0778L70.5803 26.0756C70.0412 26.0183 69.4864 26.0631 68.9384 26.2018C68.2265 26.3821 67.526 26.7207 66.8864 27.1995C66.1862 27.7235 65.5589 28.4152 65.0691 29.251C63.4243 32.0574 63.9529 35.4237 66.2497 36.7697C66.6532 37.0062 67.0844 37.1646 67.5301 37.2499C67.7979 37.3011 68.0709 37.3259 68.3463 37.3253C70.2211 37.3216 72.2043 36.1427 73.3864 34.1256C74.8026 31.7092 74.6076 28.8778 73.0599 27.2783C79.1951 19.1038 86.1665 16.2011 98.1689 11.2036L98.6699 10.995L99.5999 13.4749C91.0851 16.9658 77.5023 30.896 79.1405 45.4039C78.928 45.33 78.6989 45.2489 78.4547 45.1625L78.4532 45.1619L78.4518 45.1614C78.1164 45.0427 77.7524 44.9138 77.3631 44.7794C76.0677 44.3321 74.4926 43.8233 72.7632 43.422C72.7238 43.4129 72.6843 43.4038 72.6448 43.3948C71.8915 43.2229 71.1097 43.0719 70.3096 42.9556C69.5235 42.8414 68.7197 42.7607 67.908 42.7266L67.8808 42.7255C66.3852 42.6647 64.8627 42.7625 63.3741 43.1007Z"/>
</mask>
<path d="M63.3741 43.1007C63.4429 43.3379 63.5025 43.5891 63.5523 43.8546C64.0196 46.3456 63.0227 48.3892 61.5349 51.4387C59.4124 55.7893 56.2909 62.1875 54.9974 74.8537C54.269 81.9854 54.7087 88.6289 55.5894 94.7028C56.3872 95.037 56.987 95.7796 57.0959 96.7L64.9487 112.939C67.8426 116.29 73.1174 124.989 71.0656 132.973C70.9102 133.578 70.7419 134.117 70.5629 134.594L71.9953 137.914L72.0343 137.916L72.0476 138.035L72.0595 138.063L72.0511 138.066L72.3528 140.783C72.3947 141.161 72.0891 141.487 71.709 141.47L70.2965 141.408C69.9453 141.392 69.6773 141.088 69.7063 140.737L69.9044 138.341L69.402 137.177L69.2123 140.108L69.2463 140.127L69.2037 140.24L69.2018 140.27L69.1926 140.269L68.2265 142.826C68.0919 143.182 67.6713 143.334 67.3404 143.146L66.111 142.447C65.8053 142.274 65.705 141.881 65.8901 141.582L67.1558 139.538L67.2697 137.779C67.0958 137.762 66.9225 137.724 66.7515 137.667L66.0256 139.158L66.0497 139.189L65.9679 139.276L65.9545 139.304L65.9461 139.3L64.0838 141.3C63.8245 141.578 63.3776 141.56 63.1426 141.26L62.2691 140.149C62.052 139.872 62.108 139.47 62.3925 139.264L64.3379 137.852L65.0336 136.423C63.7677 134.971 62.9582 132.67 63.3495 131.077C63.7192 129.573 63.4593 127.36 63.1752 124.942L63.1749 124.94C62.7302 121.155 62.226 116.864 63.9806 113.99C62.2678 110.138 58.9212 103.32 56.595 100.609C57.102 103.242 57.6515 105.746 58.171 108.115C58.8649 111.278 59.5056 114.199 59.9208 116.857C60.1327 118.214 60.3902 119.581 60.649 120.954L60.6492 120.955C61.0703 123.189 61.4949 125.442 61.7317 127.699C62.3373 133.473 60.7762 138.677 58.005 141.322L57.6487 143.603C57.6257 143.75 57.6295 143.901 57.6599 144.047L58.2597 146.926H59.0088C59.6936 146.926 60.2488 147.481 60.2488 148.166V148.195C60.2488 148.732 59.9052 149.218 59.3819 149.339C58.1603 149.621 57.196 149.558 55.9174 149.302C55.3658 149.191 54.979 148.698 54.979 148.135C54.979 147.681 55.229 147.286 55.5989 147.079V142.837C55.1838 142.983 54.7538 143.081 54.3107 143.127C53.1966 143.244 52.0526 143.233 50.9491 143.008V147.079C51.319 147.286 51.5691 147.681 51.5691 148.135C51.5691 148.698 51.1822 149.191 50.6306 149.302C49.352 149.558 48.3877 149.621 47.1661 149.339C46.6428 149.218 46.2992 148.732 46.2992 148.195V148.166C46.2992 147.481 46.8544 146.926 47.5392 146.926H48.2719L48.6985 144.58C48.7517 144.286 48.7517 143.986 48.6985 143.692L48.3897 141.994C45.7859 140.342 43.8505 136.727 43.8503 129.575C43.7734 128.842 43.8176 125.737 43.84 124.156C43.8451 123.802 43.849 123.525 43.8503 123.367C43.8737 118.225 44.0747 109.139 44.4449 100.673C42.3333 103.757 39.6313 110.287 38.2357 114.046C40.1676 116.803 39.9342 121.117 39.7284 124.923L39.7283 124.925C39.5968 127.357 39.4766 129.581 39.94 131.059C40.4307 132.624 39.7676 134.972 38.5955 136.5L39.3797 137.883L41.41 139.17C41.707 139.358 41.7881 139.755 41.5887 140.045L40.787 141.209C40.5712 141.523 40.1264 141.57 39.85 141.308L37.8657 139.429L37.8575 139.434L37.8425 139.407L37.7553 139.324L37.7774 139.292L36.9592 137.85C36.7921 137.917 36.6216 137.967 36.449 137.994L36.6733 139.743L38.065 141.703C38.2686 141.99 38.1932 142.388 37.899 142.581L36.7159 143.355C36.3975 143.563 35.9683 143.438 35.8115 143.091L34.6866 140.601L34.6774 140.602L34.6736 140.572L34.624 140.462L34.6567 140.441L34.2831 137.527L33.855 138.721L34.2033 141.1C34.2542 141.448 34.0059 141.768 33.6564 141.806L32.2507 141.958C31.8724 141.999 31.5469 141.692 31.5649 141.312L31.6952 138.582L31.6865 138.579L31.6967 138.551L31.7024 138.43L31.7413 138.426L32.9621 135.023C32.7535 134.558 32.5515 134.031 32.3584 133.437C29.8086 125.598 34.526 116.584 37.2034 113.058L44.0195 96.3569C44.0544 95.7225 44.3247 95.157 44.741 94.7405C45.0108 90.0129 45.3403 85.8999 45.7278 83.3785C45.9867 81.6937 46.2979 79.5093 46.6513 77.0296C47.301 72.4696 48.0931 66.9109 48.9635 61.6243C47.8037 60.4313 47.2584 58.4557 47.6855 56.4033C48.0897 54.4615 49.2646 52.93 50.6938 52.236C51.5329 48.2943 52.402 45.2029 53.256 43.8545C54.4902 41.9057 56.2992 40.5287 58.068 40.0314C58.3878 37.0734 58.2635 32.5667 56.2012 29.1294C65.0359 15.9548 79.1405 10.995 94.795 9.60001L96.19 10.995C95.851 11.1271 95.516 11.2576 95.1851 11.3866L95.1839 11.387C85.0811 15.323 78.7167 17.8025 73.9656 22.4742C72.8645 23.557 71.85 24.7575 70.8958 26.1212C70.7981 26.1032 70.6996 26.0888 70.6007 26.0778L70.5803 26.0756C70.0412 26.0183 69.4864 26.0631 68.9384 26.2018C68.2265 26.3821 67.526 26.7207 66.8864 27.1995C66.1862 27.7235 65.5589 28.4152 65.0691 29.251C63.4243 32.0574 63.9529 35.4237 66.2497 36.7697C66.6532 37.0062 67.0844 37.1646 67.5301 37.2499C67.7979 37.3011 68.0709 37.3259 68.3463 37.3253C70.2211 37.3216 72.2043 36.1427 73.3864 34.1256C74.8026 31.7092 74.6076 28.8778 73.0599 27.2783C79.1951 19.1038 86.1665 16.2011 98.1689 11.2036L98.6699 10.995L99.5999 13.4749C91.0851 16.9658 77.5023 30.896 79.1405 45.4039C78.928 45.33 78.6989 45.2489 78.4547 45.1625L78.4532 45.1619L78.4518 45.1614C78.1164 45.0427 77.7524 44.9138 77.3631 44.7794C76.0677 44.3321 74.4926 43.8233 72.7632 43.422C72.7238 43.4129 72.6843 43.4038 72.6448 43.3948C71.8915 43.2229 71.1097 43.0719 70.3096 42.9556C69.5235 42.8414 68.7197 42.7607 67.908 42.7266L67.8808 42.7255C66.3852 42.6647 64.8627 42.7625 63.3741 43.1007Z" fill="#1D1D1D"/>
<path d="M63.3741 43.1007C63.4429 43.3379 63.5025 43.5891 63.5523 43.8546C64.0196 46.3456 63.0227 48.3892 61.5349 51.4387C59.4124 55.7893 56.2909 62.1875 54.9974 74.8537C54.269 81.9854 54.7087 88.6289 55.5894 94.7028C56.3872 95.037 56.987 95.7796 57.0959 96.7L64.9487 112.939C67.8426 116.29 73.1174 124.989 71.0656 132.973C70.9102 133.578 70.7419 134.117 70.5629 134.594L71.9953 137.914L72.0343 137.916L72.0476 138.035L72.0595 138.063L72.0511 138.066L72.3528 140.783C72.3947 141.161 72.0891 141.487 71.709 141.47L70.2965 141.408C69.9453 141.392 69.6773 141.088 69.7063 140.737L69.9044 138.341L69.402 137.177L69.2123 140.108L69.2463 140.127L69.2037 140.24L69.2018 140.27L69.1926 140.269L68.2265 142.826C68.0919 143.182 67.6713 143.334 67.3404 143.146L66.111 142.447C65.8053 142.274 65.705 141.881 65.8901 141.582L67.1558 139.538L67.2697 137.779C67.0958 137.762 66.9225 137.724 66.7515 137.667L66.0256 139.158L66.0497 139.189L65.9679 139.276L65.9545 139.304L65.9461 139.3L64.0838 141.3C63.8245 141.578 63.3776 141.56 63.1426 141.26L62.2691 140.149C62.052 139.872 62.108 139.47 62.3925 139.264L64.3379 137.852L65.0336 136.423C63.7677 134.971 62.9582 132.67 63.3495 131.077C63.7192 129.573 63.4593 127.36 63.1752 124.942L63.1749 124.94C62.7302 121.155 62.226 116.864 63.9806 113.99C62.2678 110.138 58.9212 103.32 56.595 100.609C57.102 103.242 57.6515 105.746 58.171 108.115C58.8649 111.278 59.5056 114.199 59.9208 116.857C60.1327 118.214 60.3902 119.581 60.649 120.954L60.6492 120.955C61.0703 123.189 61.4949 125.442 61.7317 127.699C62.3373 133.473 60.7762 138.677 58.005 141.322L57.6487 143.603C57.6257 143.75 57.6295 143.901 57.6599 144.047L58.2597 146.926H59.0088C59.6936 146.926 60.2488 147.481 60.2488 148.166V148.195C60.2488 148.732 59.9052 149.218 59.3819 149.339C58.1603 149.621 57.196 149.558 55.9174 149.302C55.3658 149.191 54.979 148.698 54.979 148.135C54.979 147.681 55.229 147.286 55.5989 147.079V142.837C55.1838 142.983 54.7538 143.081 54.3107 143.127C53.1966 143.244 52.0526 143.233 50.9491 143.008V147.079C51.319 147.286 51.5691 147.681 51.5691 148.135C51.5691 148.698 51.1822 149.191 50.6306 149.302C49.352 149.558 48.3877 149.621 47.1661 149.339C46.6428 149.218 46.2992 148.732 46.2992 148.195V148.166C46.2992 147.481 46.8544 146.926 47.5392 146.926H48.2719L48.6985 144.58C48.7517 144.286 48.7517 143.986 48.6985 143.692L48.3897 141.994C45.7859 140.342 43.8505 136.727 43.8503 129.575C43.7734 128.842 43.8176 125.737 43.84 124.156C43.8451 123.802 43.849 123.525 43.8503 123.367C43.8737 118.225 44.0747 109.139 44.4449 100.673C42.3333 103.757 39.6313 110.287 38.2357 114.046C40.1676 116.803 39.9342 121.117 39.7284 124.923L39.7283 124.925C39.5968 127.357 39.4766 129.581 39.94 131.059C40.4307 132.624 39.7676 134.972 38.5955 136.5L39.3797 137.883L41.41 139.17C41.707 139.358 41.7881 139.755 41.5887 140.045L40.787 141.209C40.5712 141.523 40.1264 141.57 39.85 141.308L37.8657 139.429L37.8575 139.434L37.8425 139.407L37.7553 139.324L37.7774 139.292L36.9592 137.85C36.7921 137.917 36.6216 137.967 36.449 137.994L36.6733 139.743L38.065 141.703C38.2686 141.99 38.1932 142.388 37.899 142.581L36.7159 143.355C36.3975 143.563 35.9683 143.438 35.8115 143.091L34.6866 140.601L34.6774 140.602L34.6736 140.572L34.624 140.462L34.6567 140.441L34.2831 137.527L33.855 138.721L34.2033 141.1C34.2542 141.448 34.0059 141.768 33.6564 141.806L32.2507 141.958C31.8724 141.999 31.5469 141.692 31.5649 141.312L31.6952 138.582L31.6865 138.579L31.6967 138.551L31.7024 138.43L31.7413 138.426L32.9621 135.023C32.7535 134.558 32.5515 134.031 32.3584 133.437C29.8086 125.598 34.526 116.584 37.2034 113.058L44.0195 96.3569C44.0544 95.7225 44.3247 95.157 44.741 94.7405C45.0108 90.0129 45.3403 85.8999 45.7278 83.3785C45.9867 81.6937 46.2979 79.5093 46.6513 77.0296C47.301 72.4696 48.0931 66.9109 48.9635 61.6243C47.8037 60.4313 47.2584 58.4557 47.6855 56.4033C48.0897 54.4615 49.2646 52.93 50.6938 52.236C51.5329 48.2943 52.402 45.2029 53.256 43.8545C54.4902 41.9057 56.2992 40.5287 58.068 40.0314C58.3878 37.0734 58.2635 32.5667 56.2012 29.1294C65.0359 15.9548 79.1405 10.995 94.795 9.60001L96.19 10.995C95.851 11.1271 95.516 11.2576 95.1851 11.3866L95.1839 11.387C85.0811 15.323 78.7167 17.8025 73.9656 22.4742C72.8645 23.557 71.85 24.7575 70.8958 26.1212C70.7981 26.1032 70.6996 26.0888 70.6007 26.0778L70.5803 26.0756C70.0412 26.0183 69.4864 26.0631 68.9384 26.2018C68.2265 26.3821 67.526 26.7207 66.8864 27.1995C66.1862 27.7235 65.5589 28.4152 65.0691 29.251C63.4243 32.0574 63.9529 35.4237 66.2497 36.7697C66.6532 37.0062 67.0844 37.1646 67.5301 37.2499C67.7979 37.3011 68.0709 37.3259 68.3463 37.3253C70.2211 37.3216 72.2043 36.1427 73.3864 34.1256C74.8026 31.7092 74.6076 28.8778 73.0599 27.2783C79.1951 19.1038 86.1665 16.2011 98.1689 11.2036L98.6699 10.995L99.5999 13.4749C91.0851 16.9658 77.5023 30.896 79.1405 45.4039C78.928 45.33 78.6989 45.2489 78.4547 45.1625L78.4532 45.1619L78.4518 45.1614C78.1164 45.0427 77.7524 44.9138 77.3631 44.7794C76.0677 44.3321 74.4926 43.8233 72.7632 43.422C72.7238 43.4129 72.6843 43.4038 72.6448 43.3948C71.8915 43.2229 71.1097 43.0719 70.3096 42.9556C69.5235 42.8414 68.7197 42.7607 67.908 42.7266L67.8808 42.7255C66.3852 42.6647 64.8627 42.7625 63.3741 43.1007Z" stroke="#1D1D1D" stroke-width="0.882057" mask="url(#path-21-outside-1)"/>
<path d="M50.9494 140.726H48.1595L48.6988 143.692C48.7521 143.986 48.7521 144.286 48.6988 144.58L48.2723 146.926H47.5395C46.8548 146.926 46.2996 147.481 46.2996 148.166V148.195C46.2996 148.732 46.6432 149.219 47.1664 149.339C48.3881 149.621 49.3524 149.558 50.631 149.302C51.1825 149.191 51.5694 148.698 51.5694 148.135C51.5694 147.681 51.3194 147.286 50.9494 147.079V140.726Z" fill="#2C2424"/>
<path d="M58.3889 138.866H55.599V147.079C55.2291 147.286 54.979 147.681 54.979 148.135C54.979 148.698 55.3659 149.191 55.9175 149.302C57.196 149.558 58.1603 149.621 59.382 149.339C59.9053 149.219 60.2488 148.732 60.2488 148.195V148.166C60.2488 147.481 59.6936 146.926 59.0089 146.926H58.2598L57.6599 144.047C57.6295 143.901 57.6257 143.75 57.6487 143.603L58.3889 138.866Z" fill="#2C2424"/>
<path d="M46.36 98.9692C47.7276 99.0444 48.8971 97.9967 48.9722 96.6291C49.0473 95.2615 47.9997 94.092 46.632 94.0169C45.2646 93.9417 44.0949 94.9894 44.0198 96.357L37.2037 113.058C34.5263 116.585 29.8089 125.598 32.3587 133.437C32.5518 134.031 32.7538 134.558 32.9624 135.023L31.7416 138.426L31.7027 138.43L31.697 138.551L31.6868 138.579L31.6955 138.582L31.5652 141.312C31.5472 141.692 31.8727 141.999 32.251 141.958L33.6567 141.806C34.0062 141.769 34.2545 141.448 34.2036 141.1L33.8553 138.721L34.2834 137.528L34.657 140.441L34.6243 140.462L34.6739 140.572L34.6777 140.602L34.6869 140.601L35.8118 143.091C35.9685 143.438 36.3978 143.563 36.7162 143.355L37.8993 142.581C38.1935 142.388 38.2689 141.99 38.0653 141.703L36.6736 139.743L36.4493 137.994C36.6219 137.967 36.7924 137.918 36.9595 137.85L37.7777 139.293L37.7556 139.325L37.8428 139.407L37.8578 139.434L37.866 139.429L39.8503 141.308C40.1267 141.57 40.5715 141.523 40.7873 141.21L41.589 140.045C41.7884 139.755 41.7073 139.358 41.4103 139.17L39.38 137.883L38.5958 136.5C39.7679 134.972 40.431 132.624 39.9403 131.059C39.4769 129.581 39.5971 127.357 39.7285 124.925L39.7286 124.923C39.9345 121.118 40.1679 116.803 38.236 114.046C40.1187 108.975 44.3791 98.8604 46.36 98.9692Z" fill="#C6C6C6"/>
<path d="M61.7321 127.699C62.5715 135.702 59.249 142.609 54.3112 143.127C49.3734 143.645 43.8511 141.656 43.8507 129.575C43.7566 128.678 43.8438 124.229 43.8507 123.367C43.9055 116.539 47.574 113.677 51.9583 113.217C54.6468 112.935 59.2608 113.217 59.9212 116.857C60.478 120.422 61.3498 124.054 61.7321 127.699Z" fill="#352F2F"/>
<path d="M51.9583 113.217C54.6468 112.935 59.2608 113.217 59.9212 116.857C58.2993 106.473 53.2377 92.0892 54.9978 74.8537C57.198 53.3093 64.6868 49.8995 63.5528 43.8546C62.4187 37.8098 56.2013 39.2046 53.2564 43.8545C50.3115 48.5044 47.1878 73.8803 45.7282 83.3785C44.5374 91.1283 43.8937 113.913 43.8507 123.367C43.9055 116.539 47.574 113.677 51.9583 113.217Z" fill="#352F2F"/>
<path d="M50.8545 62.815C53.3266 63.3295 55.8079 61.2436 56.4362 58.2246C57.0646 55.2056 55.6216 52.3029 53.1495 51.7884C50.6773 51.2738 48.1961 53.3598 47.5678 56.3788C46.9394 59.3978 48.3824 62.3005 50.8545 62.815Z" fill="url(#paint0_radial)" stroke="#1D1D1D" stroke-width="0.240814"/>
<circle cx="51.3727" cy="60.1725" r="2.45155" transform="rotate(-8.10152 51.3727 60.1725)" fill="#636363"/>
<path d="M57.9132 41.1663C58.385 38.3446 58.5496 33.0436 56.2012 29.1295C65.0359 15.9549 79.1405 10.9951 94.795 9.60013L96.19 10.9951C95.8505 11.1274 95.5152 11.2581 95.1839 11.3872C82.7396 16.2353 75.9673 18.8737 70.8957 26.1213C68.8114 25.7384 66.4184 26.9487 65.069 29.2511C63.4243 32.0575 63.9529 35.4238 66.2496 36.7699C68.5464 38.1159 71.7417 36.9321 73.3864 34.1257C74.8026 31.7094 74.6075 28.878 73.0599 27.2784C79.1951 19.1039 86.1664 16.2012 98.1689 11.2037C98.3349 11.1346 98.5019 11.065 98.6699 10.9951L99.5999 13.475C91.0851 16.9659 77.5023 30.8961 79.1405 45.4041C78.9275 45.33 78.698 45.2487 78.4532 45.1621C74.7317 43.8446 67.4813 41.278 61.3444 43.7292C60.9379 43.8915 60.4745 43.8575 60.1132 43.6103L58.4483 42.4711C58.0277 42.1834 57.8291 41.669 57.9132 41.1663Z" fill="#C6C6C6"/>
<path d="M74.4344 25.551L77.3633 44.7795C76.0383 44.322 74.4209 43.8002 72.645 43.3949L71.7663 36.0239C72.3871 35.5209 72.9433 34.8823 73.3867 34.1257C74.8028 31.7093 74.6078 28.8779 73.0602 27.2783C73.5131 26.6748 73.9706 26.1 74.4344 25.551Z" fill="url(#paint1_linear)"/>
<path d="M72.8274 15.0004L73.9658 22.4744C72.8647 23.5571 71.8502 24.7576 70.8959 26.1213C70.7915 26.1021 70.6863 26.0869 70.5804 26.0756L69.4685 16.7475C70.5605 16.1182 71.6809 15.5369 72.8274 15.0004Z" fill="url(#paint2_linear)"/>
<path d="M69.8293 37.0855L70.3098 42.9557C69.5149 42.8402 68.702 42.759 67.881 42.7256L67.5303 37.2499C68.2769 37.3927 69.064 37.3302 69.8293 37.0855Z" fill="url(#paint3_linear)"/>
<path d="M68.2258 17.4921L68.9386 26.2019C68.2267 26.3822 67.5262 26.7208 66.8865 27.1995L66.3445 18.7368C66.9608 18.3041 67.5881 17.8894 68.2258 17.4921Z" fill="url(#paint4_linear)"/>
<path d="M54.9246 99.4542C53.5644 99.6152 52.3314 98.6431 52.1704 97.2829C52.0094 95.9227 52.9815 94.6897 54.3417 94.5287C55.7017 94.3678 56.9349 95.3398 57.0959 96.7L64.9487 112.939C67.8426 116.29 73.1174 124.989 71.0656 132.973C70.9102 133.578 70.7418 134.117 70.5629 134.594L71.9952 137.914L72.0343 137.916L72.0476 138.035L72.0595 138.063L72.0511 138.066L72.3527 140.783C72.3946 141.161 72.0891 141.487 71.7089 141.471L70.2965 141.408C69.9453 141.392 69.6773 141.088 69.7062 140.737L69.9043 138.341L69.4019 137.177L69.2123 140.108L69.2463 140.127L69.2037 140.24L69.2018 140.27L69.1925 140.269L68.2265 142.826C68.0918 143.182 67.6713 143.334 67.3404 143.146L66.111 142.447C65.8053 142.274 65.7049 141.881 65.8901 141.582L67.1558 139.538L67.2697 137.779C67.0957 137.762 66.9225 137.724 66.7514 137.667L66.0256 139.158L66.0496 139.189L65.9678 139.276L65.9545 139.304L65.9461 139.3L64.0838 141.3C63.8244 141.578 63.3776 141.56 63.1425 141.26L62.2691 140.149C62.052 139.872 62.1079 139.47 62.3924 139.264L64.3378 137.852L65.0335 136.423C63.7676 134.971 62.9582 132.67 63.3495 131.077C63.7191 129.573 63.4592 127.36 63.1751 124.942L63.1749 124.94C62.7301 121.155 62.226 116.864 63.9806 113.99C61.7827 109.048 56.8948 99.221 54.9246 99.4542Z" fill="#D0D0D0"/>
<mask id="path-31-outside-2" maskUnits="userSpaceOnUse" x="63.1155" y="76.9229" width="48" height="75" fill="black">
<rect fill="white" x="63.1155" y="76.9229" width="48" height="75"/>
<path fill-rule="evenodd" clip-rule="evenodd" d="M108.414 83.234L108.435 83.2514L109.777 77.9229L105.221 79.8442L91.1627 85.3697L91.1615 85.3701C91.0697 85.5055 90.9784 85.6428 90.8875 85.782C90.4887 86.3928 90.098 87.0399 89.7156 87.7193C89.4879 88.1238 89.2631 88.5398 89.0414 88.9664C88.1024 90.3746 87.288 91.8965 86.5676 93.5148C85.7576 93.7016 84.9733 94.225 84.3812 94.9974C84.3743 95.0064 84.3675 95.0153 84.3607 95.0243C84.3567 95.0296 84.3528 95.0348 84.3488 95.0401C84.3468 95.0428 84.3448 95.0455 84.3428 95.0481C84.1271 95.3376 83.9381 95.6607 83.7842 96.0132C83.1578 97.4483 83.2838 98.9798 83.9954 99.9893C83.0038 100.761 82.3186 101.802 82.1109 102.652C82.093 102.725 82.0787 102.797 82.068 102.867C82.0658 102.881 82.0638 102.895 82.062 102.909C79.8053 104.074 78.1923 105.152 77.8574 107.028C77.7376 107.698 77.7813 108.47 78.0173 109.385C77.0459 107.166 75.62 106.804 73.3453 106.227C72.5589 106.027 71.671 105.802 70.6654 105.465C70.7135 105.038 70.6277 104.594 70.3964 104.2L68.9053 101.663C68.3174 100.662 67.0156 100.351 66.0384 100.977L65.0576 101.605C64.5529 101.928 64.2445 102.428 64.1482 102.964C64.0356 103.589 64.212 104.263 64.7025 104.761L67.791 107.903C68.6456 108.922 69.358 109.936 70.0119 110.867C72.4212 114.297 74.0357 116.596 79.0431 113.816C79.7961 113.398 80.5454 113.059 81.2706 112.757L81.0019 114.381C80.2197 113.676 79.0086 113.677 78.2263 114.42L77.3819 115.222C76.4404 116.117 76.5605 117.651 77.6297 118.389L80.0612 120.066L79.1698 125.453C79.0873 125.951 79.1298 126.448 79.2788 126.904C78.8893 127.901 78.598 128.948 78.447 129.893C78.2824 130.923 78.4677 131.692 78.5935 132.214C78.6529 132.46 78.699 132.652 78.6888 132.79C78.6737 132.916 78.6576 133.044 78.6413 133.172C78.3714 135.304 78.0594 137.768 81.8004 143.009C80.327 143.062 78.8673 143.34 77.4728 143.837C77.1765 143.943 76.9744 144.218 76.9624 144.533L76.9493 144.878C76.9193 145.667 77.6033 146.294 78.3865 146.196L83.0314 145.617C83.6943 145.534 84.1997 144.983 84.2251 144.315L84.2623 143.338L84.3157 143.339C84.2991 143.264 84.2842 143.191 84.2707 143.118L84.2713 143.102L84.2676 143.102C84.0077 141.695 84.3049 140.805 84.5668 140.02C84.6558 139.753 84.7408 139.499 84.7984 139.24C85.0049 138.314 84.6267 136.058 84.2753 134.998C85.6592 133.354 86.2381 131.721 86.3554 130.333C87.0885 130.477 87.8378 130.593 88.6202 130.682C87.9596 132.001 87.4616 133.55 87.247 134.893C87.0824 135.923 87.2677 136.692 87.3935 137.214C87.4529 137.46 87.499 137.652 87.4888 137.79C87.4737 137.916 87.4576 138.044 87.4413 138.172C87.1714 140.304 86.8594 142.768 90.6004 148.009C89.127 148.062 87.6673 148.34 86.2728 148.837C85.9765 148.943 85.7744 149.218 85.7624 149.533L85.7493 149.878C85.7193 150.667 86.4033 151.294 87.1865 151.196L91.8314 150.617C92.4943 150.534 92.9997 149.983 93.0251 149.315L93.0623 148.338L93.1157 148.339C93.0991 148.264 93.0842 148.191 93.0706 148.118L93.0713 148.102L93.0676 148.102C92.8077 146.695 93.1049 145.805 93.3668 145.02C93.4558 144.753 93.5408 144.499 93.5984 144.24C93.8049 143.314 93.4267 141.058 93.0753 139.998C95.5371 137.073 95.4515 134.186 94.7517 132.64C95.9329 132.569 97.045 131.887 97.613 130.753C98.2071 129.567 98.0484 128.201 97.3176 127.198L98.3113 121.191C99.8151 120.066 100.826 118.795 100.71 116.536C102.898 115.706 103.998 113.259 103.168 111.071C102.799 110.097 102.109 109.338 101.264 108.869C102.619 104.663 103.463 102.619 104.07 101.148C104.434 100.267 104.713 99.592 104.965 98.781L104.972 98.7751L104.984 98.7198C104.999 98.6712 105.014 98.622 105.029 98.5723L105.051 98.4204L108.414 83.234Z"/>
</mask>
<path fill-rule="evenodd" clip-rule="evenodd" d="M108.414 83.234L108.435 83.2514L109.777 77.9229L105.221 79.8442L91.1627 85.3697L91.1615 85.3701C91.0697 85.5055 90.9784 85.6428 90.8875 85.782C90.4887 86.3928 90.098 87.0399 89.7156 87.7193C89.4879 88.1238 89.2631 88.5398 89.0414 88.9664C88.1024 90.3746 87.288 91.8965 86.5676 93.5148C85.7576 93.7016 84.9733 94.225 84.3812 94.9974C84.3743 95.0064 84.3675 95.0153 84.3607 95.0243C84.3567 95.0296 84.3528 95.0348 84.3488 95.0401C84.3468 95.0428 84.3448 95.0455 84.3428 95.0481C84.1271 95.3376 83.9381 95.6607 83.7842 96.0132C83.1578 97.4483 83.2838 98.9798 83.9954 99.9893C83.0038 100.761 82.3186 101.802 82.1109 102.652C82.093 102.725 82.0787 102.797 82.068 102.867C82.0658 102.881 82.0638 102.895 82.062 102.909C79.8053 104.074 78.1923 105.152 77.8574 107.028C77.7376 107.698 77.7813 108.47 78.0173 109.385C77.0459 107.166 75.62 106.804 73.3453 106.227C72.5589 106.027 71.671 105.802 70.6654 105.465C70.7135 105.038 70.6277 104.594 70.3964 104.2L68.9053 101.663C68.3174 100.662 67.0156 100.351 66.0384 100.977L65.0576 101.605C64.5529 101.928 64.2445 102.428 64.1482 102.964C64.0356 103.589 64.212 104.263 64.7025 104.761L67.791 107.903C68.6456 108.922 69.358 109.936 70.0119 110.867C72.4212 114.297 74.0357 116.596 79.0431 113.816C79.7961 113.398 80.5454 113.059 81.2706 112.757L81.0019 114.381C80.2197 113.676 79.0086 113.677 78.2263 114.42L77.3819 115.222C76.4404 116.117 76.5605 117.651 77.6297 118.389L80.0612 120.066L79.1698 125.453C79.0873 125.951 79.1298 126.448 79.2788 126.904C78.8893 127.901 78.598 128.948 78.447 129.893C78.2824 130.923 78.4677 131.692 78.5935 132.214C78.6529 132.46 78.699 132.652 78.6888 132.79C78.6737 132.916 78.6576 133.044 78.6413 133.172C78.3714 135.304 78.0594 137.768 81.8004 143.009C80.327 143.062 78.8673 143.34 77.4728 143.837C77.1765 143.943 76.9744 144.218 76.9624 144.533L76.9493 144.878C76.9193 145.667 77.6033 146.294 78.3865 146.196L83.0314 145.617C83.6943 145.534 84.1997 144.983 84.2251 144.315L84.2623 143.338L84.3157 143.339C84.2991 143.264 84.2842 143.191 84.2707 143.118L84.2713 143.102L84.2676 143.102C84.0077 141.695 84.3049 140.805 84.5668 140.02C84.6558 139.753 84.7408 139.499 84.7984 139.24C85.0049 138.314 84.6267 136.058 84.2753 134.998C85.6592 133.354 86.2381 131.721 86.3554 130.333C87.0885 130.477 87.8378 130.593 88.6202 130.682C87.9596 132.001 87.4616 133.55 87.247 134.893C87.0824 135.923 87.2677 136.692 87.3935 137.214C87.4529 137.46 87.499 137.652 87.4888 137.79C87.4737 137.916 87.4576 138.044 87.4413 138.172C87.1714 140.304 86.8594 142.768 90.6004 148.009C89.127 148.062 87.6673 148.34 86.2728 148.837C85.9765 148.943 85.7744 149.218 85.7624 149.533L85.7493 149.878C85.7193 150.667 86.4033 151.294 87.1865 151.196L91.8314 150.617C92.4943 150.534 92.9997 149.983 93.0251 149.315L93.0623 148.338L93.1157 148.339C93.0991 148.264 93.0842 148.191 93.0706 148.118L93.0713 148.102L93.0676 148.102C92.8077 146.695 93.1049 145.805 93.3668 145.02C93.4558 144.753 93.5408 144.499 93.5984 144.24C93.8049 143.314 93.4267 141.058 93.0753 139.998C95.5371 137.073 95.4515 134.186 94.7517 132.64C95.9329 132.569 97.045 131.887 97.613 130.753C98.2071 129.567 98.0484 128.201 97.3176 127.198L98.3113 121.191C99.8151 120.066 100.826 118.795 100.71 116.536C102.898 115.706 103.998 113.259 103.168 111.071C102.799 110.097 102.109 109.338 101.264 108.869C102.619 104.663 103.463 102.619 104.07 101.148C104.434 100.267 104.713 99.592 104.965 98.781L104.972 98.7751L104.984 98.7198C104.999 98.6712 105.014 98.622 105.029 98.5723L105.051 98.4204L108.414 83.234Z" fill="#1D1D1D"/>
<path d="M105.156 98.4157L105.301 98.5533L105.345 98.5071L105.354 98.4441L105.156 98.4157ZM105.077 98.4988L105.222 98.6367L105.222 98.6366L105.077 98.4988ZM105.4 94.5741L108.607 83.2887L108.222 83.1794L105.016 94.4648L105.4 94.5741ZM105.354 98.4441L105.544 97.1134L105.148 97.0568L104.958 98.3874L105.354 98.4441ZM105.178 98.6833L105.222 98.6367L104.932 98.3609L104.888 98.4076L105.178 98.6833ZM105.222 98.6366C105.248 98.6091 105.275 98.5813 105.301 98.5533L105.011 98.2782C104.984 98.306 104.958 98.3336 104.932 98.361L105.222 98.6366ZM83.3272 98.9154C83.1577 99.55 83.0129 100.188 82.8856 100.831L83.278 100.909C83.4039 100.273 83.5468 99.6435 83.7137 99.0186L83.3272 98.9154ZM83.3488 98.9908C83.1917 99.5818 83.0551 100.176 82.9335 100.774L83.3255 100.854C83.4458 100.262 83.5806 99.6759 83.7353 99.0936L83.3488 98.9908ZM105.354 98.444L105.544 97.1156L105.148 97.059L104.958 98.3874L105.354 98.444ZM105.178 98.6831C105.218 98.6408 105.259 98.5973 105.301 98.5533L105.011 98.2782C104.97 98.3217 104.929 98.3644 104.888 98.4072L105.178 98.6831ZM108.435 83.2514L108.181 83.5603L108.669 83.9619L108.823 83.3491L108.435 83.2514ZM108.414 83.234L108.668 82.9252L108.165 82.5106L108.024 83.1475L108.414 83.234ZM109.777 77.9229L110.164 78.0206L110.36 77.2427L109.621 77.5544L109.777 77.9229ZM105.221 79.8442L105.367 80.2166L105.376 80.2127L105.221 79.8442ZM91.1627 85.3697L91.2722 85.7545L91.2909 85.7491L91.3091 85.742L91.1627 85.3697ZM91.1615 85.3701L91.052 84.9854L90.912 85.0252L90.8303 85.1458L91.1615 85.3701ZM90.8875 85.782L90.5526 85.5633V85.5633L90.8875 85.782ZM89.7156 87.7193L90.0642 87.9155V87.9155L89.7156 87.7193ZM89.0414 88.9664L89.3742 89.1883L89.3863 89.1702L89.3963 89.1508L89.0414 88.9664ZM86.5676 93.5148L86.6575 93.9046L86.8519 93.8598L86.933 93.6775L86.5676 93.5148ZM84.3812 94.9974L84.6986 95.2408L84.6986 95.2408L84.3812 94.9974ZM84.3607 95.0243L84.6799 95.2654L84.6799 95.2654L84.3607 95.0243ZM84.3488 95.0401L84.669 95.2799L84.669 95.2798L84.3488 95.0401ZM84.3428 95.0481L84.6635 95.2872L84.6635 95.2872L84.3428 95.0481ZM83.7842 96.0132L83.4176 95.8532L83.7842 96.0132ZM83.9954 99.9893L84.2411 100.305L84.5422 100.071L84.3224 99.7589L83.9954 99.9893ZM82.1109 102.652L82.4995 102.747L82.4995 102.747L82.1109 102.652ZM82.068 102.867L81.6725 102.807L81.6725 102.807L82.068 102.867ZM82.062 102.909L82.2455 103.264L82.431 103.169L82.4585 102.962L82.062 102.909ZM77.8574 107.028L78.2512 107.098L78.2512 107.098L77.8574 107.028ZM78.0173 109.385L77.6509 109.546L78.4046 109.285L78.0173 109.385ZM73.3453 106.227L73.2469 106.614L73.3453 106.227ZM70.6654 105.465L70.2679 105.42L70.2318 105.742L70.5384 105.844L70.6654 105.465ZM70.3964 104.2L70.0515 104.403L70.0515 104.403L70.3964 104.2ZM68.9053 101.663L69.2502 101.46L68.9053 101.663ZM66.0384 100.977L66.2542 101.313L66.0384 100.977ZM65.0576 101.605L65.2734 101.942L65.0576 101.605ZM64.1482 102.964L64.5418 103.035L64.5418 103.035L64.1482 102.964ZM64.7025 104.761L64.9877 104.481H64.9877L64.7025 104.761ZM67.791 107.903L68.0975 107.646L68.0873 107.634L68.0762 107.622L67.791 107.903ZM70.0119 110.867L69.6846 111.097L70.0119 110.867ZM79.0431 113.816L78.849 113.467H78.849L79.0431 113.816ZM81.2706 112.757L81.6653 112.822L81.7831 112.11L81.1168 112.388L81.2706 112.757ZM81.0019 114.381L80.7343 114.678L81.2773 115.167L81.3966 114.446L81.0019 114.381ZM78.2263 114.42L77.9507 114.13L78.2263 114.42ZM77.3819 115.222L77.6574 115.512L77.6574 115.512L77.3819 115.222ZM77.6297 118.389L77.8568 118.06H77.8568L77.6297 118.389ZM80.0612 120.066L80.4558 120.131L80.4973 119.881L80.2883 119.736L80.0612 120.066ZM79.1698 125.453L79.5644 125.518L79.1698 125.453ZM79.2788 126.904L79.6514 127.05L79.7035 126.916L79.659 126.78L79.2788 126.904ZM78.447 129.893L78.842 129.956L78.447 129.893ZM78.5935 132.214L78.2046 132.308L78.2046 132.308L78.5935 132.214ZM78.6888 132.79L79.086 132.837L79.087 132.828L79.0877 132.819L78.6888 132.79ZM78.6413 133.172L78.2445 133.122L78.6413 133.172ZM81.8004 143.009L81.8148 143.409L82.5583 143.382L82.126 142.776L81.8004 143.009ZM77.4728 143.837L77.3385 143.46H77.3385L77.4728 143.837ZM76.9624 144.533L76.5627 144.517L76.9624 144.533ZM76.9493 144.878L77.349 144.893V144.893L76.9493 144.878ZM78.3865 146.196L78.436 146.593L78.436 146.593L78.3865 146.196ZM83.0314 145.617L82.9819 145.22H82.9819L83.0314 145.617ZM84.2251 144.315L83.8254 144.3L84.2251 144.315ZM84.2623 143.338L84.2724 142.938L83.8776 142.928L83.8626 143.323L84.2623 143.338ZM84.3157 143.339L84.3056 143.739L84.8162 143.752L84.7063 143.253L84.3157 143.339ZM84.2707 143.118L83.8709 143.103L83.8692 143.148L83.8775 143.192L84.2707 143.118ZM84.2713 143.102L84.671 143.118L84.6857 142.731L84.3 142.703L84.2713 143.102ZM84.2676 143.102L83.8743 143.175L83.9304 143.479L84.2388 143.501L84.2676 143.102ZM84.5668 140.02L84.9462 140.147L84.5668 140.02ZM84.7984 139.24L85.1888 139.327L84.7984 139.24ZM84.2753 134.998L83.9693 134.74L83.8252 134.912L83.8956 135.124L84.2753 134.998ZM86.3554 130.333L86.4328 129.94L85.9944 129.854L85.9568 130.299L86.3554 130.333ZM88.6202 130.682L88.9778 130.861L89.2343 130.35L88.6653 130.285L88.6202 130.682ZM87.247 134.893L87.642 134.956L87.247 134.893ZM87.3935 137.214L87.0046 137.308V137.308L87.3935 137.214ZM87.4888 137.79L87.886 137.837L87.887 137.828L87.8877 137.819L87.4888 137.79ZM87.4413 138.172L87.0445 138.122V138.122L87.4413 138.172ZM90.6004 148.009L90.6148 148.409L91.3583 148.382L90.926 147.776L90.6004 148.009ZM86.2728 148.837L86.1385 148.46H86.1385L86.2728 148.837ZM85.7624 149.533L86.1621 149.548L85.7624 149.533ZM85.7493 149.878L85.3495 149.863L85.7493 149.878ZM87.1865 151.196L87.236 151.593L87.236 151.593L87.1865 151.196ZM91.8314 150.617L91.8809 151.014H91.8809L91.8314 150.617ZM93.0251 149.315L93.4248 149.331L93.0251 149.315ZM93.0623 148.338L93.0724 147.938L92.6776 147.928L92.6626 148.323L93.0623 148.338ZM93.1157 148.339L93.1056 148.739L93.6162 148.752L93.5063 148.253L93.1157 148.339ZM93.0706 148.118L92.6709 148.103L92.6692 148.148L92.6775 148.192L93.0706 148.118ZM93.0713 148.102L93.471 148.118L93.4857 147.731L93.1 147.703L93.0713 148.102ZM93.0676 148.102L92.6743 148.175L92.7304 148.479L93.0388 148.501L93.0676 148.102ZM93.3668 145.02L93.7462 145.147L93.7462 145.147L93.3668 145.02ZM93.5984 144.24L93.208 144.153L93.5984 144.24ZM93.0753 139.998L92.7693 139.74L92.6252 139.912L92.6956 140.124L93.0753 139.998ZM94.7517 132.64L94.7277 132.24L94.1477 132.275L94.3873 132.805L94.7517 132.64ZM97.613 130.753L97.2554 130.574L97.613 130.753ZM97.3176 127.198L96.9229 127.132L96.8956 127.298L96.9943 127.433L97.3176 127.198ZM98.3113 121.191L98.0716 120.871L97.9429 120.968L97.9167 121.126L98.3113 121.191ZM100.71 116.536L100.568 116.162L100.295 116.266L100.31 116.557L100.71 116.536ZM103.168 111.071L102.794 111.212L103.168 111.071ZM101.264 108.869L100.883 108.747L100.783 109.06L101.07 109.219L101.264 108.869ZM104.07 101.148L103.7 100.996V100.996L104.07 101.148ZM104.965 98.781L104.699 98.4828L104.616 98.5565L104.583 98.6621L104.965 98.781ZM104.972 98.7751L105.239 99.0733L105.334 98.9876L105.362 98.862L104.972 98.7751ZM104.984 98.7198L104.602 98.6023L104.597 98.6175L104.594 98.6329L104.984 98.7198ZM105.029 98.5723L105.412 98.6863L105.421 98.6581L105.425 98.629L105.029 98.5723ZM105.051 98.4204L104.66 98.3339L104.657 98.3487L104.655 98.3637L105.051 98.4204ZM108.69 82.9426L108.668 82.9252L108.16 83.5429L108.181 83.5603L108.69 82.9426ZM109.389 77.8253L108.048 83.1538L108.823 83.3491L110.164 78.0206L109.389 77.8253ZM105.376 80.2127L109.932 78.2915L109.621 77.5544L105.065 79.4756L105.376 80.2127ZM91.3091 85.742L105.367 80.2165L105.074 79.4719L91.0164 84.9975L91.3091 85.742ZM91.2709 85.7548L91.2722 85.7545L91.0533 84.985L91.052 84.9854L91.2709 85.7548ZM91.2225 86.0007C91.3122 85.8633 91.4022 85.7279 91.4926 85.5945L90.8303 85.1458C90.7373 85.2831 90.6447 85.4223 90.5526 85.5633L91.2225 86.0007ZM90.0642 87.9155C90.4427 87.2429 90.829 86.6034 91.2225 86.0007L90.5526 85.5633C90.1485 86.1822 89.7533 86.8369 89.367 87.5231L90.0642 87.9155ZM89.3963 89.1508C89.6161 88.728 89.8388 88.316 90.0642 87.9155L89.367 87.5231C89.137 87.9317 88.9102 88.3516 88.6865 88.7819L89.3963 89.1508ZM86.933 93.6775C87.6459 92.0762 88.4497 90.5747 89.3742 89.1883L88.7086 88.7444C87.7551 90.1745 86.9302 91.7167 86.2022 93.3522L86.933 93.6775ZM84.6986 95.2408C85.2421 94.5318 85.95 94.0677 86.6575 93.9046L86.4777 93.1251C85.5653 93.3354 84.7045 93.9182 84.0637 94.7541L84.6986 95.2408ZM84.6799 95.2654C84.6861 95.2572 84.6923 95.249 84.6986 95.2408L84.0637 94.7541C84.0563 94.7637 84.0489 94.7735 84.0415 94.7832L84.6799 95.2654ZM84.669 95.2798C84.6726 95.275 84.6762 95.2702 84.6799 95.2654L84.0415 94.7832C84.0372 94.7889 84.0329 94.7946 84.0286 94.8004L84.669 95.2798ZM84.6635 95.2872C84.6653 95.2847 84.6672 95.2823 84.669 95.2799L84.0287 94.8003C84.0265 94.8032 84.0243 94.8062 84.0221 94.8091L84.6635 95.2872ZM84.1508 96.1733C84.2925 95.8486 84.4661 95.552 84.6635 95.2872L84.0221 94.8091C83.788 95.1231 83.5837 95.4728 83.4176 95.8532L84.1508 96.1733ZM84.3224 99.7589C83.7049 98.883 83.5702 97.5035 84.1508 96.1733L83.4176 95.8532C82.7454 97.3931 82.8626 99.0767 83.6685 100.22L84.3224 99.7589ZM82.4995 102.747C82.6817 102.001 83.3057 101.033 84.2411 100.305L83.7498 99.6737C82.7019 100.489 81.9555 101.603 81.7223 102.557L82.4995 102.747ZM82.4634 102.928C82.4722 102.87 82.4842 102.81 82.4995 102.747L81.7224 102.557C81.7019 102.641 81.6851 102.724 81.6725 102.807L82.4634 102.928ZM82.4585 102.962C82.46 102.95 82.4616 102.939 82.4634 102.928L81.6725 102.807C81.67 102.823 81.6677 102.84 81.6655 102.856L82.4585 102.962ZM78.2512 107.098C78.5473 105.44 79.9685 104.44 82.2455 103.264L81.8785 102.554C79.642 103.708 77.8374 104.865 77.4636 106.957L78.2512 107.098ZM78.4046 109.285C78.179 108.411 78.1439 107.698 78.2512 107.098L77.4637 106.957C77.3313 107.698 77.3835 108.53 77.63 109.485L78.4046 109.285ZM73.2469 106.614C74.3998 106.907 75.2655 107.13 75.97 107.537C76.6495 107.929 77.195 108.504 77.6509 109.546L78.3837 109.225C77.8682 108.047 77.2151 107.332 76.37 106.844C75.5502 106.37 74.5655 106.124 73.4437 105.839L73.2469 106.614ZM70.5384 105.844C71.5598 106.186 72.4609 106.415 73.2469 106.614L73.4437 105.839C72.6569 105.639 71.7823 105.417 70.7924 105.086L70.5384 105.844ZM70.0515 104.403C70.2376 104.72 70.3066 105.076 70.2679 105.42L71.0629 105.51C71.1204 104.999 71.0177 104.468 70.7412 103.998L70.0515 104.403ZM68.5604 101.865L70.0515 104.403L70.7412 103.998L69.2502 101.46L68.5604 101.865ZM66.2542 101.313C67.0403 100.81 68.0875 101.06 68.5604 101.865L69.2502 101.46C68.5473 100.264 66.9909 99.8913 65.8226 100.64L66.2542 101.313ZM65.2734 101.942L66.2542 101.313L65.8226 100.64L64.8418 101.268L65.2734 101.942ZM64.5418 103.035C64.6195 102.603 64.867 102.202 65.2734 101.942L64.8418 101.268C64.2389 101.655 63.8696 102.253 63.7545 102.893L64.5418 103.035ZM64.9877 104.481C64.5932 104.08 64.451 103.539 64.5418 103.035L63.7545 102.893C63.6203 103.639 63.8308 104.445 64.4172 105.042L64.9877 104.481ZM68.0762 107.622L64.9877 104.481L64.4172 105.042L67.5058 108.183L68.0762 107.622ZM70.3392 110.637C69.6863 109.707 68.9647 108.68 68.0975 107.646L67.4846 108.16C68.3266 109.164 69.0298 110.165 69.6846 111.097L70.3392 110.637ZM78.849 113.467C76.3954 114.829 74.8896 114.883 73.7301 114.312C73.1315 114.017 72.5882 113.538 72.0373 112.904C71.485 112.268 70.9447 111.499 70.3392 110.637L69.6846 111.097C70.2837 111.95 70.8487 112.755 71.4333 113.428C72.0191 114.103 72.6441 114.668 73.3763 115.029C74.8782 115.77 76.6834 115.584 79.2372 114.166L78.849 113.467ZM81.1168 112.388C80.3841 112.693 79.6199 113.039 78.849 113.467L79.2372 114.166C79.9724 113.758 80.7068 113.425 81.4245 113.126L81.1168 112.388ZM81.3966 114.446L81.6653 112.822L80.876 112.691L80.6073 114.315L81.3966 114.446ZM78.5018 114.71C79.1309 114.112 80.1054 114.112 80.7343 114.678L81.2696 114.083C80.334 113.241 78.8862 113.241 77.9507 114.13L78.5018 114.71ZM77.6574 115.512L78.5018 114.71L77.9507 114.13L77.1063 114.933L77.6574 115.512ZM77.8568 118.06C76.9967 117.466 76.9001 116.232 77.6574 115.512L77.1063 114.933C75.9807 116.002 76.1243 117.837 77.4026 118.718L77.8568 118.06ZM80.2883 119.736L77.8568 118.06L77.4026 118.718L79.8341 120.395L80.2883 119.736ZM79.659 126.78C79.5297 126.384 79.4926 125.952 79.5644 125.518L78.7751 125.388C78.682 125.95 78.7299 126.512 78.8986 127.028L79.659 126.78ZM78.842 129.956C78.988 129.042 79.271 128.023 79.6514 127.05L78.9062 126.758C78.5075 127.779 78.208 128.853 78.052 129.829L78.842 129.956ZM78.9824 132.12C78.8588 131.608 78.6906 130.904 78.842 129.956L78.052 129.829C77.8742 130.943 78.0766 131.776 78.2046 132.308L78.9824 132.12ZM79.0877 132.819C79.0966 132.699 79.0802 132.576 79.0606 132.47C79.0406 132.361 79.0113 132.24 78.9824 132.12L78.2046 132.308C78.2351 132.434 78.2586 132.532 78.2739 132.615C78.2896 132.7 78.2912 132.743 78.2899 132.76L79.0877 132.819ZM79.0381 133.222C79.0544 133.094 79.0707 132.965 79.086 132.837L78.2916 132.742C78.2767 132.867 78.2608 132.993 78.2445 133.122L79.0381 133.222ZM82.126 142.776C80.2745 140.183 79.4467 138.305 79.1064 136.835C78.7677 135.371 78.9039 134.283 79.0381 133.222L78.2445 133.122C78.1088 134.193 77.954 135.403 78.3271 137.015C78.6985 138.62 79.5853 140.594 81.4749 143.241L82.126 142.776ZM77.6071 144.214C78.9629 143.731 80.3822 143.46 81.8148 143.409L81.7861 142.609C80.2718 142.663 78.7716 142.95 77.3385 143.46L77.6071 144.214ZM77.3621 144.548C77.3678 144.397 77.4649 144.265 77.6071 144.214L77.3385 143.46C76.8881 143.621 76.5809 144.04 76.5627 144.517L77.3621 144.548ZM77.349 144.893L77.3621 144.548L76.5627 144.517L76.5495 144.863L77.349 144.893ZM78.337 145.799C77.7986 145.867 77.3283 145.435 77.349 144.893L76.5495 144.863C76.5102 145.898 77.4081 146.722 78.436 146.593L78.337 145.799ZM82.9819 145.22L78.337 145.799L78.436 146.593L83.0809 146.014L82.9819 145.22ZM83.8254 144.3C83.8074 144.772 83.4503 145.161 82.9819 145.22L83.0809 146.014C83.9384 145.907 84.592 145.194 84.6248 144.331L83.8254 144.3ZM83.8626 143.323L83.8254 144.3L84.6248 144.331L84.662 143.353L83.8626 143.323ZM84.3257 142.939L84.2724 142.938L84.2522 143.738L84.3056 143.739L84.3257 142.939ZM83.8775 143.192C83.8918 143.268 83.9076 143.346 83.925 143.425L84.7063 143.253C84.6907 143.182 84.6765 143.113 84.6638 143.045L83.8775 143.192ZM83.8715 143.087L83.8709 143.103L84.6704 143.134L84.671 143.118L83.8715 143.087ZM84.2388 143.501L84.2425 143.501L84.3 142.703L84.2964 142.703L84.2388 143.501ZM84.1874 139.893C83.92 140.694 83.5954 141.665 83.8743 143.175L84.661 143.029C84.4201 141.725 84.6898 140.915 84.9462 140.147L84.1874 139.893ZM84.408 139.153C84.3556 139.388 84.2776 139.623 84.1874 139.893L84.9462 140.147C85.034 139.883 85.1259 139.609 85.1888 139.327L84.408 139.153ZM83.8956 135.124C84.0614 135.624 84.2394 136.428 84.3499 137.224C84.4626 138.037 84.4939 138.768 84.408 139.153L85.1888 139.327C85.3094 138.786 85.2549 137.926 85.1423 137.114C85.0274 136.287 84.8406 135.432 84.655 134.872L83.8956 135.124ZM85.9568 130.299C85.8468 131.601 85.3027 133.156 83.9693 134.74L84.5813 135.256C86.0157 133.551 86.6293 131.842 86.754 130.366L85.9568 130.299ZM88.6653 130.285C87.8935 130.197 87.1549 130.083 86.4328 129.94L86.2779 130.725C87.022 130.872 87.7822 130.99 88.575 131.08L88.6653 130.285ZM87.642 134.956C87.8499 133.654 88.3349 132.145 88.9778 130.861L88.2626 130.503C87.5843 131.857 87.0732 133.445 86.852 134.829L87.642 134.956ZM87.7824 137.12C87.6588 136.608 87.4906 135.904 87.642 134.956L86.852 134.829C86.6742 135.943 86.8766 136.776 87.0046 137.308L87.7824 137.12ZM87.8877 137.819C87.8966 137.699 87.8802 137.576 87.8606 137.47C87.8406 137.361 87.8113 137.24 87.7824 137.12L87.0046 137.308C87.0351 137.434 87.0586 137.532 87.0739 137.615C87.0896 137.7 87.0912 137.743 87.0899 137.76L87.8877 137.819ZM87.8382 138.222C87.8544 138.094 87.8707 137.965 87.886 137.837L87.0916 137.742C87.0767 137.867 87.0608 137.993 87.0445 138.122L87.8382 138.222ZM90.926 147.776C89.0745 145.183 88.2467 143.305 87.9065 141.834C87.5677 140.371 87.7039 139.283 87.8382 138.222L87.0445 138.122C86.9088 139.193 86.754 140.403 87.1271 142.015C87.4985 143.62 88.3853 145.594 90.2749 148.241L90.926 147.776ZM86.4071 149.214C87.7629 148.731 89.1822 148.46 90.6148 148.409L90.5861 147.609C89.0718 147.663 87.5716 147.95 86.1385 148.46L86.4071 149.214ZM86.1621 149.548C86.1678 149.397 86.2649 149.265 86.4071 149.214L86.1385 148.46C85.6881 148.621 85.3809 149.04 85.3627 149.517L86.1621 149.548ZM86.149 149.893L86.1621 149.548L85.3627 149.517L85.3495 149.863L86.149 149.893ZM87.137 150.799C86.5986 150.867 86.1283 150.435 86.149 149.893L85.3495 149.863C85.3102 150.898 86.2081 151.722 87.236 151.593L87.137 150.799ZM91.7819 150.22L87.1369 150.799L87.236 151.593L91.8809 151.014L91.7819 150.22ZM92.6254 149.3C92.6074 149.772 92.2503 150.161 91.7819 150.22L91.8809 151.014C92.7384 150.907 93.392 150.194 93.4248 149.331L92.6254 149.3ZM92.6626 148.323L92.6254 149.3L93.4248 149.331L93.462 148.353L92.6626 148.323ZM93.1257 147.939L93.0724 147.938L93.0522 148.738L93.1056 148.739L93.1257 147.939ZM92.6775 148.192C92.6918 148.268 92.7076 148.346 92.725 148.425L93.5063 148.253C93.4907 148.182 93.4765 148.113 93.4638 148.045L92.6775 148.192ZM92.6715 148.087L92.6709 148.103L93.4704 148.134L93.471 148.118L92.6715 148.087ZM93.0388 148.501L93.0425 148.501L93.1 147.703L93.0964 147.703L93.0388 148.501ZM92.9874 144.893C92.72 145.695 92.3954 146.665 92.6743 148.175L93.461 148.029C93.2201 146.725 93.4898 145.915 93.7462 145.147L92.9874 144.893ZM93.208 144.153C93.1556 144.388 93.0776 144.623 92.9874 144.893L93.7462 145.147C93.834 144.883 93.9259 144.609 93.9888 144.327L93.208 144.153ZM92.6956 140.124C92.8614 140.624 93.0394 141.428 93.1499 142.224C93.2626 143.037 93.2939 143.768 93.208 144.153L93.9888 144.327C94.1094 143.786 94.0549 142.926 93.9423 142.114C93.8274 141.287 93.6406 140.432 93.455 139.872L92.6956 140.124ZM94.3873 132.805C95.0192 134.201 95.1388 136.925 92.7693 139.74L93.3813 140.256C95.9354 137.221 95.8837 134.171 95.1161 132.475L94.3873 132.805ZM97.2554 130.574C96.7539 131.575 95.7722 132.178 94.7277 132.24L94.7757 133.039C96.0936 132.96 97.3361 132.199 97.9707 130.932L97.2554 130.574ZM96.9943 127.433C97.6405 128.32 97.7799 129.527 97.2554 130.574L97.9707 130.932C98.6344 129.607 98.4563 128.081 97.6409 126.962L96.9943 127.433ZM100.31 116.557C100.365 117.617 100.155 118.422 99.7715 119.089C99.3837 119.763 98.8027 120.324 98.0716 120.871L98.551 121.512C99.3237 120.933 100 120.296 100.465 119.488C100.934 118.674 101.171 117.713 101.109 116.515L100.31 116.557ZM102.794 111.212C103.546 113.194 102.549 115.41 100.568 116.162L100.852 116.91C103.246 116.001 104.451 113.323 103.542 110.929L102.794 111.212ZM101.07 109.219C101.835 109.644 102.459 110.33 102.794 111.212L103.542 110.929C103.138 109.863 102.382 109.033 101.458 108.52L101.07 109.219ZM103.7 100.996C103.09 102.473 102.242 104.527 100.883 108.747L101.645 108.992C102.995 104.798 103.835 102.765 104.44 101.301L103.7 100.996ZM104.583 98.6621C104.337 99.4533 104.065 100.112 103.7 100.996L104.44 101.301C104.803 100.422 105.088 99.7307 105.347 98.9L104.583 98.6621ZM104.705 98.4768L104.699 98.4828L105.232 99.0793L105.239 99.0733L104.705 98.4768ZM104.594 98.6329L104.582 98.6882L105.362 98.862L105.375 98.8067L104.594 98.6329ZM104.645 98.4583C104.631 98.5069 104.617 98.5549 104.602 98.6023L105.367 98.8373C105.382 98.7875 105.397 98.7372 105.412 98.6863L104.645 98.4583ZM104.655 98.3637L104.633 98.5157L105.425 98.629L105.447 98.4771L104.655 98.3637ZM108.024 83.1475L104.66 98.3339L105.441 98.5069L108.805 83.3205L108.024 83.1475ZM79.5644 125.518L80.4558 120.131L79.6666 120L78.7751 125.388L79.5644 125.518ZM97.9167 121.126L96.9229 127.132L97.7122 127.263L98.7059 121.257L97.9167 121.126Z" fill="#1D1D1D" mask="url(#path-31-outside-2)"/>
<path d="M87.7169 107.304C85.4112 107.706 82.464 105.215 82.0621 102.909C82.2497 101.499 83.9559 99.3561 86.2615 98.9543C88.5672 98.5524 90.7621 100.096 91.1639 102.401C91.5658 104.707 90.0225 106.902 87.7169 107.304Z" fill="#D16262"/>
<path d="M87.7169 107.304C85.4112 107.706 82.464 105.215 82.0621 102.909C78.5843 104.705 76.6353 106.294 78.5371 110.912L79.0433 113.816C83.1359 111.544 87.1187 111.597 87.7169 107.304Z" fill="#D16262"/>
<path d="M79.0433 113.816L78.5371 110.912C77.2723 106.186 75.0851 106.988 70.469 105.398C65.853 103.809 66.7654 104.821 66.9336 104.355L66.2433 106.236C71.6636 111.469 71.9317 117.764 79.0433 113.816Z" fill="#D16262"/>
<path d="M66.0387 100.977C67.0159 100.351 68.3177 100.662 68.9056 101.663L70.3966 104.201C70.9027 105.062 70.7125 106.163 69.9466 106.805L68.1727 108.291L64.7028 104.761C63.7922 103.835 63.9642 102.306 65.0578 101.605L66.0387 100.977Z" fill="#D16262"/>
<path d="M80.2847 118.718C86.3955 120.931 90.108 121.835 98.2296 121.688L97.1252 128.362C96.8904 129.781 95.699 130.855 94.2611 130.888C88.6633 131.017 85.221 130.365 80.9991 128.733C79.6839 128.225 78.9401 126.844 79.1703 125.453L80.2847 118.718Z" fill="#EBB9E3"/>
<path d="M91.1619 85.3702C87.6253 92.1751 83.4152 102.492 81.3177 112.477C87.7008 115.884 95.9406 115.876 99.2626 115.446C100.769 99.2364 100.116 103.093 104.972 98.7751L109.542 78.146L91.1619 85.3702Z" fill="#EEDAB3"/>
<path fill-rule="evenodd" clip-rule="evenodd" d="M90.3812 87.1441C85.2956 93.4147 83.415 102.492 81.3175 112.476C82.8604 113.3 84.5117 113.924 86.1758 114.391C88.7961 115.126 91.2718 115.502 93.5821 115.622C95.5445 104.949 92.9038 104.255 99.2166 97.6658L99.8334 90.866L93.8076 93.0448L90.5214 87.1042L90.3812 87.1441Z" fill="#F08181"/>
<path d="M105.641 94.2919L99.2166 97.6658C92.9038 104.255 95.5445 104.949 93.5821 115.622C95.875 115.741 97.8313 115.639 99.086 115.477C101.95 99.7856 99.8265 104.062 105.029 98.5723L105.641 94.2919Z" fill="#F08181"/>
<path fill-rule="evenodd" clip-rule="evenodd" d="M91.1618 85.3701C86.8264 91.7693 83.4152 102.492 81.3177 112.476C82.8605 113.3 84.5118 113.924 86.176 114.391C88.7963 115.126 91.4483 115.471 93.7586 115.591C95.7211 104.918 92.9038 104.255 99.2166 97.6657L99.657 90.8969L93.6312 93.0757L91.302 85.3302L91.1618 85.3701Z" fill="#F08181"/>
<path d="M105.641 94.2919L99.2166 97.6657C92.9038 104.255 95.7211 104.918 93.7586 115.591C96.0515 115.71 98.0078 115.608 99.2626 115.446C102.126 99.7544 99.8265 104.062 105.029 98.5722L105.641 94.2919Z" fill="#F08181"/>
<path d="M105.641 94.292L99.2165 97.6658C95.4956 103.711 95.7208 104.918 93.7584 115.591C96.0512 115.711 98.0076 115.608 99.2623 115.446C103.058 102.385 104.17 101.463 105.029 98.5723L105.641 94.292Z" fill="#D05D5D"/>
<path fill-rule="evenodd" clip-rule="evenodd" d="M93.7583 92.9192C90.6755 98.0073 87.859 103.134 86.1756 114.391C88.7959 115.126 91.448 115.471 93.7583 115.591C95.7207 104.918 96.1132 103.239 99.3437 97.5092L99.7841 90.7404L93.7583 92.9192Z" fill="#E47272"/>
<path d="M81.3174 112.477C87.4282 114.689 91.1408 115.593 99.2623 115.446L97.756 124.549C89.5798 124.994 85.7861 124.155 79.8112 121.579L81.3174 112.477Z" fill="#D9D9D9"/>
<path d="M98.325 121.042C94.502 122.194 86.1269 119.638 82.9322 118.291C82.6168 118.158 82.2509 118.328 82.1609 118.659C82.0892 118.922 82.222 119.199 82.4741 119.304C89.1336 122.074 96.573 122.802 98.0121 122.37L98.325 121.042Z" fill="#AEAEAE"/>
<path d="M99.0154 117.505C95.1922 118.657 86.6394 116.457 83.4213 115.158C83.1039 115.03 82.7377 115.201 82.6478 115.531C82.576 115.795 82.7088 116.071 82.9615 116.175C89.6286 118.912 97.2477 118.87 98.6595 118.8L99.0154 117.505Z" fill="#AEAEAE"/>
<path d="M108.436 83.2515L104.609 80.1022L109.777 77.9229L108.436 83.2515Z" fill="#636363"/>
<path d="M85.0335 101.059C86.7516 101.809 88.8425 100.666 89.7388 98.6124C90.6351 96.559 90.0517 94.2485 88.3335 93.4986C86.6154 92.7486 84.5245 93.8917 83.6282 95.945C82.7319 97.9984 83.3153 100.309 85.0335 101.059Z" fill="url(#paint5_radial)" stroke="#1D1D1D" stroke-width="0.340892"/>
<path d="M94.9099 105.512C96.6281 106.262 98.719 105.119 99.6153 103.066C100.512 101.012 99.9281 98.7019 98.21 97.9519C96.4918 97.2019 94.4009 98.345 93.5046 100.398C92.6083 102.452 93.1918 104.762 94.9099 105.512Z" fill="url(#paint6_radial)" stroke="#1D1D1D" stroke-width="0.340892"/>
<circle cx="85.5683" cy="97.6621" r="1.75895" transform="rotate(3.72262 85.5683 97.6621)" fill="#636363"/>
<circle cx="97.3034" cy="102.917" r="1.75895" transform="rotate(3.72262 97.3034 102.917)" fill="#636363"/>
<path d="M88.8131 125.753C88.2451 126.887 87.133 127.569 85.9518 127.64C85.3705 127.675 84.7725 127.562 84.2144 127.282C82.5222 126.435 81.8374 124.376 82.685 122.684C83.5326 120.991 85.5915 120.307 87.2837 121.154C88.9759 122.002 89.6607 124.061 88.8131 125.753Z" fill="#D291C8"/>
<path d="M84.2144 127.282C82.5222 126.435 81.8374 124.376 82.685 122.684C80.7593 122.997 78.9186 126.941 78.4471 129.893C78.2047 131.41 78.7208 132.359 78.6889 132.79C78.6234 133.672 79.8038 134.446 80.6754 134.816C81.6369 134.9 82.9175 134.975 84.2754 134.998C86.7372 132.073 86.6515 129.186 85.9518 127.64C85.3705 127.675 84.7725 127.562 84.2144 127.282Z" fill="#D291C8"/>
<path d="M80.6754 134.816C79.8038 134.446 78.6234 133.672 78.6889 132.79C78.4195 135.053 77.8147 137.531 81.9964 143.281L84.3157 143.339C83.8652 141.295 84.562 140.301 84.7985 139.24C85.005 138.314 84.6268 136.058 84.2754 134.998C82.9175 134.975 81.6369 134.9 80.6754 134.816Z" fill="#D291C8"/>
<path d="M76.9626 144.533C76.9745 144.218 77.1767 143.943 77.473 143.837C79.3539 143.167 81.3537 142.894 83.3455 143.036L84.2714 143.102L84.2253 144.315C84.1999 144.983 83.6945 145.534 83.0316 145.617L78.3866 146.196C77.6035 146.294 76.9194 145.667 76.9494 144.878L76.9626 144.533Z" fill="#D291C8"/>
<path d="M87.7169 107.304C85.4112 107.705 82.464 105.215 82.0621 102.909C82.2497 101.498 83.9559 99.3559 86.2615 98.954C88.5672 98.5522 90.7621 100.095 91.1639 102.401C91.5658 104.707 90.0225 106.902 87.7169 107.304Z" fill="#D16262"/>
<path d="M87.7169 107.304C85.4112 107.705 82.464 105.215 82.0621 102.909C78.5843 104.704 76.6353 106.294 78.5371 110.912L79.0433 113.816C83.1359 111.544 87.1187 111.597 87.7169 107.304Z" fill="#D16262"/>
<path d="M79.0433 113.816L78.5371 110.912C77.2723 106.186 75.0851 106.988 70.469 105.398C65.853 103.809 66.7654 104.821 66.9336 104.355L66.2433 106.236C71.6636 111.468 71.9317 117.764 79.0433 113.816Z" fill="#D16262"/>
<path d="M66.0387 100.977C67.0159 100.351 68.3177 100.662 68.9056 101.663L70.3966 104.2C70.9027 105.062 70.7125 106.163 69.9466 106.804L68.1727 108.291L64.7028 104.761C63.7922 103.835 63.9642 102.306 65.0578 101.605L66.0387 100.977Z" fill="#D16262"/>
<path fill-rule="evenodd" clip-rule="evenodd" d="M32.1778 123.764C32.8491 120.487 34.1895 117.445 35.5042 115.135L39.3755 115.508C40.1712 118.092 39.9974 121.305 39.8397 124.221L39.8396 124.223C39.8219 124.55 39.8044 124.873 39.7885 125.192L32.1115 124.453L32.1778 123.764ZM61.8744 127.317L43.9252 125.59C43.9322 124.801 43.9432 124.027 43.9514 123.453L43.9514 123.452C43.9564 123.099 43.9604 122.822 43.9616 122.665C43.9699 120.852 44.0002 118.55 44.0522 115.958L60.2579 117.517C60.4161 118.425 60.588 119.337 60.7604 120.251L60.7604 120.251L60.7605 120.252L60.7605 120.252C61.1817 122.487 61.6062 124.739 61.843 126.997C61.8542 127.104 61.8647 127.21 61.8744 127.317ZM71.6374 128.256L63.6096 127.484C63.5502 126.484 63.4211 125.385 63.2865 124.239L63.2863 124.237C63.0384 122.128 62.772 119.861 62.8886 117.77L69.0164 118.36C70.4416 121.264 71.5864 124.732 71.6374 128.256Z" fill="#1D1D1D" fill-opacity="0.2"/>
<path d="M80.2842 118.718C86.395 120.931 90.1076 121.835 98.2291 121.688L97.1247 128.362C96.8899 129.781 95.6985 130.855 94.2607 130.888C88.6628 131.017 85.2206 130.366 80.9986 128.733C79.6835 128.225 78.9396 126.844 79.1698 125.453L80.2842 118.718Z" fill="#EBB9E3"/>
<path d="M91.1617 85.3701C87.6251 92.1751 83.4149 102.492 81.3174 112.477C87.7006 115.884 95.9403 115.876 99.2623 115.446C100.769 99.2364 100.116 103.093 104.972 98.7751L109.541 78.1459L91.1617 85.3701Z" fill="#EEDAB3"/>
<path fill-rule="evenodd" clip-rule="evenodd" d="M90.3812 87.1442C85.2956 93.4148 83.415 102.492 81.3175 112.477C82.8604 113.3 84.5117 113.924 86.1758 114.391C88.7961 115.126 91.2718 115.502 93.5821 115.622C95.5445 104.949 92.9038 104.255 99.2166 97.6658L99.8334 90.8661L93.8076 93.0449L90.5214 87.1043L90.3812 87.1442Z" fill="#F08181"/>
<path d="M105.641 94.292L99.2166 97.6658C92.9038 104.255 95.5445 104.949 93.5821 115.622C95.875 115.742 97.8313 115.639 99.086 115.477C101.95 99.7856 99.8265 104.062 105.029 98.5723L105.641 94.292Z" fill="#F08181"/>
<path fill-rule="evenodd" clip-rule="evenodd" d="M91.1615 85.3703C86.8262 91.7695 83.4149 102.492 81.3174 112.476C82.8603 113.3 84.5116 113.924 86.1757 114.391C88.796 115.126 91.4481 115.471 93.7584 115.591C95.7208 104.918 92.9036 104.255 99.2163 97.6659L99.6567 90.897L93.631 93.0758L91.3017 85.3304L91.1615 85.3703Z" fill="#F08181"/>
<path d="M105.641 94.292L99.2163 97.6659C92.9036 104.255 95.7208 104.918 93.7584 115.591C96.0513 115.71 98.0076 115.608 99.2623 115.446C102.126 99.7546 99.8263 104.062 105.029 98.5724L105.641 94.292Z" fill="#F08181"/>
<path d="M105.642 94.292L99.2167 97.6658C95.4959 103.711 95.721 104.918 93.7586 115.591C96.0515 115.711 98.0078 115.608 99.2625 115.446C103.058 102.385 104.17 101.462 105.029 98.5723L105.642 94.292Z" fill="#D05D5D"/>
<path fill-rule="evenodd" clip-rule="evenodd" d="M93.7583 92.9191C90.6755 98.0072 87.859 103.134 86.1756 114.391C88.7959 115.126 91.448 115.471 93.7583 115.591C95.7207 104.918 96.1132 103.239 99.3437 97.5092L99.7841 90.7403L93.7583 92.9191Z" fill="#E47272"/>
<path d="M81.3171 112.477C87.428 114.689 91.1405 115.593 99.262 115.446L97.7558 124.549C89.5796 124.994 85.7858 124.155 79.8109 121.579L81.3171 112.477Z" fill="#D9D9D9"/>
<path d="M98.325 121.042C94.502 122.194 86.1269 119.638 82.9322 118.291C82.6168 118.158 82.2509 118.328 82.1609 118.659C82.0892 118.922 82.222 119.199 82.4741 119.304C89.1336 122.074 96.573 122.802 98.0121 122.37L98.325 121.042Z" fill="#AEAEAE"/>
<g clip-path="url(#clip0)">
<rect x="20.7938" y="77.6433" width="61.8" height="41" transform="rotate(7.0211 20.7938 77.6433)" fill="white" stroke="#1D1D1D" stroke-width="0.6"/>
<path d="M43.6731 83.1001C44.1286 82.3548 44.3313 81.5368 44.8176 80.8001L54.4176 82.0001C54.5841 82.9622 54.9091 84.0449 55.5954 84.7779C56.3681 85.6034 57.3091 86.0712 58.262 86.6668C59.784 87.618 61.5841 88.117 63.2176 88.8446C64.0038 89.1947 64.797 89.6494 65.562 90.0501C66.0878 90.3255 66.862 90.5778 67.1398 91.1446C67.4656 91.8092 67.5236 92.718 67.3954 93.4446C67.3043 93.9608 67.0439 94.391 66.8731 94.8723C66.6603 95.4722 66.7176 96.1524 66.7176 96.7779C66.7176 98.029 67.188 99.3954 68.162 100.222C68.7121 100.689 69.395 100.998 69.9898 101.406C70.7898 101.954 71.4083 102.486 71.9731 103.3C72.6281 104.244 73.0176 104.938 73.0176 106.078C73.0176 107.815 71.2422 108.701 70.3398 109.956C69.4952 111.13 69.1619 112.309 69.2176 113.756C69.24 114.339 69.846 114.999 70.062 115.545C70.3133 116.179 70.6041 116.934 70.7398 117.6C70.8743 118.26 71.0448 119.562 70.4731 120.022C69.7958 120.568 69.1978 120.876 68.3176 120.9C67.6496 120.918 67.0546 121.276 66.3954 121.3C65.8702 121.32 66.8336 120.756 67.012 120.6C68.1444 119.609 67.7027 118.235 67.0676 117.106C66.6319 116.331 65.8533 115.849 65.4787 115.017L65.4515 114.956C65.1104 114.199 64.8176 113.549 64.8176 112.7C64.8176 112.3 64.7777 111.876 64.8176 111.478C64.856 111.093 65.3451 110.809 65.5731 110.533C65.9273 110.105 66.1915 109.623 66.662 109.3C67.0509 109.034 67.4153 108.859 67.7231 108.5C68.4893 107.606 68.8541 105.597 67.6676 104.806C67.46 104.667 67.294 104.477 67.1176 104.3C66.7922 103.975 66.3903 103.857 66.0231 103.6C65.4834 103.222 64.8845 102.944 64.3676 102.495C63.6751 101.892 62.9044 100.999 62.462 100.195C62.2666 99.8392 62.1956 99.5982 62.0954 99.2223C61.9954 98.8475 61.6716 98.5189 61.6231 98.1557C61.5326 97.4765 61.3043 96.8189 60.9731 96.2168C60.6545 95.6374 60.2466 95.4657 59.7176 95.1446C59.043 94.735 57.8787 94.1051 57.1738 94.6944C57.1725 95.1054 57.1176 95.5364 57.1176 95.8779C57.1176 97.1262 57.3003 98.3169 57.4398 99.5446C57.5972 100.93 57.8941 102.316 57.9954 103.7C58.1339 105.593 58.563 107.426 58.7398 109.322C58.825 110.236 59.0333 111.156 59.1676 112.067C59.3152 113.067 59.7464 113.926 59.8398 114.933C59.9615 116.246 60.3176 117.53 60.3176 118.856C60.3176 120.299 60.4948 121.88 60.2176 123.3L37.9176 120.9C38.1423 120.563 38.1176 120.24 38.1176 119.845C38.1176 119.37 38.2176 118.904 38.2176 118.439C38.2176 117.025 38.4843 115.699 38.6954 114.3C39.1211 111.48 39.619 108.682 39.7176 105.822C39.7352 105.312 40.0176 104.78 40.0176 104.3C40.0176 103.797 40.1355 103.259 40.212 102.761C40.3196 102.062 40.468 101.441 40.6176 100.756C40.807 99.8882 41.0962 99.0359 41.1954 98.1557C41.4127 96.2267 41.3176 94.2456 41.3176 92.3006L41.3176 94.1001C40.447 93.6648 39.6836 93.4001 38.6731 93.4001C37.6892 93.4001 36.8552 93.6435 35.9176 93.8779C35.3308 94.0246 34.7858 94.4083 34.3731 94.8446C34.0072 95.2315 34.1176 95.759 34.1176 96.2557C34.1176 97.0139 34.3176 97.7463 34.3176 98.5112C34.3176 99.2736 34.4923 100.564 33.8565 101.145C33.28 101.671 32.4579 102.027 31.9731 102.65C31.7911 102.884 31.2617 102.9 30.9731 102.9C30.5771 102.9 30.3305 103.076 29.9787 103.245C29.7203 103.368 28.8282 103.748 28.8176 104.022C28.7978 104.538 29.0297 104.944 29.1954 105.422C29.2827 105.675 29.467 105.855 29.5954 106.1C29.6782 106.258 29.812 106.363 29.9065 106.511C30.0222 106.693 29.986 106.932 30.1176 107.1C30.5984 107.715 30.4176 108.604 30.4176 109.356C30.4176 110.031 30.4908 110.833 30.2009 111.461C29.6745 112.602 28.2073 113.44 26.9676 113.295C26.6377 113.256 26.4281 113.1 26.0787 113.1C25.8395 113.1 25.4614 113.048 25.712 112.756C26.1239 112.275 26.8189 112.341 27.2398 111.8C27.838 111.031 27.6289 109.903 27.6176 108.978C27.6071 108.119 27.4127 107.419 26.9287 106.7C26.6568 106.296 26.286 105.97 26.0287 105.556C25.8889 105.33 25.7998 105.098 25.6176 104.9C24.2492 103.418 25.4439 101.371 26.4176 100.05C26.7252 99.6326 27.7407 98.8867 28.2676 98.8057C28.8776 98.7118 29.8176 97.9916 29.8176 97.3334C29.8176 96.9016 29.8674 96.4322 29.8065 96.0057C29.7364 95.5153 29.6761 94.7758 29.412 94.3557C28.8176 93.4099 28.8176 92.5653 28.8176 91.494V91.4779C28.8176 90.3696 28.924 89.2956 29.8176 88.5223C30.6428 87.8082 31.775 87.4202 32.8398 87.3223C34.7697 87.1449 36.8048 87.4916 38.6676 87.0057C39.3839 86.8188 40.0196 86.6228 40.7065 86.3557C41.3391 86.1096 41.7893 85.6284 42.262 85.1557C42.8495 84.5682 43.2442 83.8019 43.6731 83.1001Z" fill="#6DF4D0"/>
<path fill-rule="evenodd" clip-rule="evenodd" d="M40.6502 100.611C40.7079 100.361 40.7725 100.112 40.8371 99.8628C40.9837 99.2977 41.1304 98.7327 41.1954 98.1557C41.3621 96.676 41.345 95.1656 41.328 93.6643C41.3228 93.2085 41.3176 92.7536 41.3176 92.3006L41.3176 94.1001C40.447 93.6648 39.6837 93.4001 38.6732 93.4001C37.7989 93.4001 37.0431 93.5923 36.2277 93.7995C36.1254 93.8255 36.0222 93.8518 35.9176 93.8779C35.3309 94.0246 34.7859 94.4083 34.3732 94.8446C34.0761 95.1586 34.0929 95.5653 34.1098 95.973C34.1137 96.0676 34.1176 96.1622 34.1176 96.2557C34.1176 96.634 34.1674 97.0059 34.2173 97.3785C34.2674 97.7529 34.3176 98.128 34.3176 98.5112C34.3176 98.6379 34.3225 98.7792 34.3276 98.9293C34.3533 99.6829 34.3867 100.66 33.8565 101.145C33.6234 101.357 33.35 101.542 33.0751 101.729C32.6702 102.003 32.2619 102.279 31.9732 102.65C31.7912 102.884 31.2618 102.9 30.9732 102.9C30.655 102.9 30.4333 103.014 30.176 103.146C30.1131 103.178 30.0479 103.211 29.9787 103.245C29.9505 103.258 29.9146 103.275 29.8731 103.294C29.5356 103.45 28.827 103.778 28.8176 104.022C28.8026 104.412 28.9317 104.74 29.0672 105.083C29.1108 105.194 29.1551 105.306 29.1954 105.422C29.2472 105.572 29.3331 105.696 29.4213 105.824C29.4817 105.911 29.5432 106 29.5954 106.1C29.6416 106.188 29.7036 106.26 29.7658 106.331C29.8152 106.388 29.8647 106.446 29.9065 106.511C29.9613 106.597 29.982 106.696 30.0026 106.794C30.0256 106.903 30.0483 107.012 30.1176 107.1C30.4967 107.584 30.4645 108.24 30.434 108.864C30.4257 109.031 30.4176 109.197 30.4176 109.356C30.4176 109.467 30.4196 109.582 30.4216 109.698C30.4319 110.29 30.4431 110.937 30.201 111.461C29.7184 112.507 28.445 113.299 27.2812 113.311C27.2951 113.298 27.3087 113.286 27.3221 113.272C27.3364 113.258 27.3502 113.244 27.3638 113.23C27.4813 113.112 27.5778 113.015 27.7277 112.925C27.9704 112.779 28.2428 112.674 28.5117 112.569C28.6336 112.522 28.7548 112.475 28.8721 112.425C29.114 112.321 29.5228 111.878 29.5471 111.622C29.5728 111.353 29.565 111.074 29.5572 110.799C29.5535 110.668 29.5499 110.537 29.5499 110.408C29.5499 110.284 29.5551 110.155 29.5604 110.024C29.5757 109.646 29.5918 109.249 29.486 108.906C29.4018 108.632 29.2886 108.372 29.1754 108.111C29.0446 107.811 28.9138 107.51 28.8277 107.189C28.8249 107.179 28.8221 107.168 28.8194 107.158C28.7733 106.985 28.7241 106.801 28.6221 106.653C28.5524 106.551 28.4813 106.451 28.4104 106.352C28.2322 106.101 28.0546 105.851 27.8999 105.581C27.8333 105.464 27.7475 105.352 27.6611 105.239C27.4198 104.923 27.1741 104.601 27.3304 104.167C27.3669 104.065 27.3922 103.915 27.4195 103.754C27.4718 103.444 27.531 103.094 27.6888 102.972C28.0129 102.723 28.3881 102.567 28.7635 102.411C28.8648 102.369 28.9662 102.327 29.0665 102.283C29.2172 102.217 29.3539 102.197 29.4965 102.177C29.5676 102.166 29.6401 102.155 29.7165 102.139C29.8684 102.106 30.0532 102.013 30.2088 101.934C30.2405 101.918 30.2711 101.903 30.2999 101.889C30.5794 101.752 30.7922 101.632 30.9999 101.4C31.0839 101.306 31.1318 101.11 31.1527 100.992C31.1844 100.812 31.2606 100.649 31.3368 100.487C31.3993 100.354 31.4618 100.221 31.4999 100.078C31.6035 99.6892 31.7112 99.4309 31.9165 99.0778C32.2464 98.5105 32.3251 97.9014 32.4048 97.2853C32.439 97.0211 32.4733 96.7556 32.5277 96.4917C32.5498 96.3841 32.5715 96.2756 32.5932 96.1667C32.7277 95.493 32.8661 94.8001 33.1499 94.1722C33.2092 94.0409 33.2367 93.9231 33.2633 93.8085C33.3 93.6511 33.3352 93.4997 33.4499 93.3278C33.6395 93.0433 33.8646 92.7483 34.0999 92.5C34.164 92.4323 34.2294 92.3524 34.2968 92.2703C34.4349 92.1018 34.5808 91.9238 34.7388 91.8222C35.059 91.6163 35.4601 91.6304 35.8378 91.6436C35.9288 91.6468 36.0186 91.65 36.1054 91.65C36.405 91.65 36.7007 91.6751 36.9958 91.7002C37.2745 91.7239 37.5527 91.7476 37.8332 91.75C38.4479 91.7553 39.0255 91.7673 39.6332 91.8778C39.9728 91.9395 40.3322 91.9823 40.6777 92C41.3185 92.0329 42.0291 92.5694 42.3999 93.05L43.4499 96.05C43.4499 96.666 43.3348 97.2034 43.1971 97.8C43.1523 97.9943 43.0254 98.1505 42.9002 98.3047C42.8478 98.3692 42.7956 98.4334 42.7499 98.5C42.6333 98.6695 42.4878 98.7789 42.3258 98.9006C42.3163 98.9078 42.3067 98.915 42.2971 98.9222C41.8855 99.2322 41.493 99.5636 41.1471 99.9472C40.9551 100.16 40.8017 100.387 40.6502 100.611Z" fill="#8199F0"/>
<path d="M44.8173 80.8C44.3311 81.5368 44.1283 82.3548 43.6729 83.1C43.244 83.8019 42.8493 84.5681 42.2618 85.1556C41.7891 85.6283 41.3389 86.1096 40.7062 86.3556C40.0193 86.6227 39.3837 86.8187 38.6673 87.0056C36.8046 87.4915 34.7694 87.1448 32.8396 87.3223C31.7747 87.4202 30.6426 87.8081 29.8173 88.5223C28.9237 89.2956 28.8173 90.3696 28.8173 91.4778C28.8173 92.5568 28.8143 93.4051 29.4118 94.3556C29.6759 94.7757 29.7362 95.5153 29.8062 96.0056C29.8672 96.4321 29.8173 96.9015 29.8173 97.3334C29.8173 97.9915 28.8774 98.7118 28.2673 98.8056C27.7404 98.8867 26.725 99.6325 26.4173 100.05C25.4437 101.371 24.2489 103.418 25.6173 104.9C25.7996 105.097 25.8887 105.33 26.0285 105.556C26.2858 105.97 26.6565 106.296 26.9285 106.7C27.4124 107.419 27.6069 108.119 27.6173 108.978C27.6286 109.903 27.8377 111.031 27.2396 111.8C26.8187 112.341 26.1236 112.275 25.7118 112.756C25.4611 113.048 25.8392 113.1 26.0785 113.1C26.4278 113.1 26.6375 113.256 26.9673 113.294C28.207 113.44 29.6743 112.602 30.2007 111.461C30.4906 110.833 30.4173 110.031 30.4173 109.356C30.4173 108.604 30.5982 107.714 30.1173 107.1C29.9858 106.932 30.022 106.693 29.9062 106.511C29.8118 106.363 29.678 106.258 29.5951 106.1C29.4668 105.855 29.2825 105.675 29.1951 105.422C29.0295 104.944 28.7975 104.538 28.8173 104.022C28.8279 103.747 29.7201 103.368 29.9785 103.244C30.3303 103.076 30.5769 102.9 30.9729 102.9C31.2615 102.9 31.7909 102.884 31.9729 102.65C32.4577 102.027 33.2798 101.671 33.8562 101.144C34.4921 100.564 34.3173 99.2735 34.3173 98.5112C34.3173 97.7463 34.1173 97.0139 34.1173 96.2556C34.1173 95.7589 34.0069 95.2314 34.3729 94.8445C34.7856 94.4082 35.3306 94.0245 35.9173 93.8778C36.855 93.6434 37.6889 93.4 38.6729 93.4C39.6834 93.4 40.4467 93.6647 41.3173 94.1" stroke="#1D1D1D" stroke-width="0.4" stroke-linecap="round" stroke-linejoin="round"/>
<path d="M41.3175 92.3C41.3175 94.2452 41.4126 96.2265 41.1953 98.1556C41.0961 99.0358 40.8069 99.8881 40.6175 100.756C40.4679 101.441 40.3195 102.062 40.2119 102.761C40.1354 103.259 40.0175 103.797 40.0175 104.3C40.0175 104.78 39.7351 105.312 39.7175 105.822C39.6189 108.682 39.121 111.48 38.6953 114.3C38.4842 115.699 38.2175 117.025 38.2175 118.439C38.2175 118.904 38.1175 119.37 38.1175 119.844C38.1175 120.24 38.1422 120.563 37.9175 120.9" stroke="#1D1D1D" stroke-width="0.4" stroke-linecap="round" stroke-linejoin="round"/>
<path fill-rule="evenodd" clip-rule="evenodd" d="M68.2494 120.903C67.9363 120.922 67.6384 121.012 67.3413 121.101C67.0307 121.195 66.7209 121.288 66.3954 121.3C65.9932 121.315 66.4642 120.988 66.7869 120.764C66.8855 120.696 66.9703 120.637 67.0121 120.6C68.1445 119.609 67.7028 118.235 67.0676 117.106C66.8684 116.752 66.5975 116.459 66.3263 116.165C66.0043 115.817 65.682 115.469 65.4787 115.017L65.4515 114.956C65.1105 114.199 64.8176 113.549 64.8176 112.7C64.8176 112.567 64.8132 112.432 64.8088 112.296C64.8 112.022 64.791 111.744 64.8176 111.478C64.8442 111.213 65.0854 110.995 65.3073 110.795C65.4069 110.705 65.5026 110.619 65.5732 110.533C65.6742 110.411 65.7679 110.285 65.8612 110.158C66.0949 109.843 66.3257 109.531 66.6621 109.3C66.7622 109.232 66.8607 109.169 66.9571 109.108C67.2348 108.932 67.4946 108.767 67.7232 108.5C68.4893 107.606 68.8542 105.597 67.6676 104.806C67.5033 104.696 67.3651 104.554 67.2271 104.412C67.1907 104.374 67.1544 104.337 67.1176 104.3C66.9187 104.101 66.6911 103.98 66.4603 103.857C66.3137 103.779 66.1658 103.7 66.0232 103.6C65.8181 103.457 65.6045 103.327 65.39 103.198C65.0401 102.986 64.6881 102.773 64.3676 102.495C63.6752 101.892 62.9045 100.999 62.4621 100.195C62.2666 99.8392 62.1956 99.5982 62.0954 99.2224C62.0495 99.0504 61.9565 98.8881 61.8646 98.7277C61.7562 98.5386 61.6494 98.3522 61.6232 98.1557C61.5326 97.4766 61.3044 96.819 60.9732 96.2168C60.701 95.722 60.3638 95.5246 59.9416 95.2774C59.8695 95.2351 59.7948 95.1915 59.7176 95.1446C59.0431 94.735 57.8788 94.1052 57.1738 94.6944C57.1737 94.7514 57.1724 94.8088 57.1705 94.8663L56.6498 93.7C56.8262 93.6725 57.0009 93.6296 57.1756 93.5866C57.3948 93.5328 57.614 93.479 57.836 93.4556C58.0676 93.4312 58.3066 93.4377 58.5434 93.4442C58.6509 93.4471 58.758 93.45 58.8637 93.45C58.9044 93.45 58.9453 93.4495 58.9863 93.4489C59.1151 93.4471 59.245 93.4453 59.3721 93.4611C59.5989 93.4895 59.7787 93.5736 59.9605 93.6586C60.0793 93.7141 60.199 93.7701 60.3332 93.8111C60.7358 93.9344 61.2016 94.2814 61.4026 94.6584C61.5522 94.9388 61.7181 95.1797 61.9165 95.4278C62.0244 95.5626 62.1068 95.7411 62.187 95.9145C62.2332 96.0145 62.2786 96.1127 62.3276 96.2C62.4109 96.3481 62.4839 96.5019 62.5568 96.6555C62.5966 96.7392 62.6363 96.8229 62.6776 96.9056C62.7404 97.0312 62.7761 97.1637 62.8117 97.296C62.8432 97.4132 62.8746 97.5301 62.9248 97.6417C62.9692 97.7402 63.011 97.8429 63.0534 97.9468C63.1609 98.2105 63.2715 98.4818 63.4332 98.7111C63.5283 98.846 63.6214 98.9848 63.715 99.1242C63.9187 99.4277 64.1243 99.7339 64.3554 100.008C64.4635 100.137 64.5703 100.27 64.6779 100.404C65.0227 100.833 65.3756 101.272 65.8054 101.603C66.0336 101.778 66.2493 101.967 66.4652 102.156C66.657 102.323 66.8489 102.491 67.0498 102.65C67.3006 102.848 67.5661 103.029 67.8318 103.209C68.1002 103.392 68.3687 103.574 68.6221 103.775C68.6726 103.815 68.7244 103.855 68.7765 103.895C69.0345 104.092 69.3007 104.296 69.461 104.583C69.7515 105.104 69.8998 105.642 69.8998 106.233C69.8998 106.682 69.8952 107.098 69.7471 107.528C69.6272 107.875 69.3927 108.163 69.1597 108.449C69.0418 108.593 68.9242 108.738 68.8221 108.889C68.6825 109.096 68.5117 109.262 68.3395 109.429C68.1975 109.567 68.0546 109.706 67.9276 109.869C67.8763 109.935 67.8423 110.006 67.8084 110.077C67.7768 110.142 67.7453 110.208 67.6998 110.269C67.6621 110.321 67.6218 110.368 67.5818 110.415C67.5069 110.503 67.4329 110.59 67.3776 110.7C67.3345 110.786 67.2921 110.868 67.2512 110.946C67.0781 111.279 66.93 111.563 66.8499 111.978C66.8327 112.066 66.815 112.153 66.7974 112.239C66.7218 112.609 66.6498 112.961 66.6498 113.353C66.6498 113.392 66.6496 113.432 66.6494 113.471C66.648 113.716 66.6466 113.959 66.6998 114.2C66.767 114.504 66.9769 114.804 67.1616 115.067C67.188 115.105 67.2139 115.142 67.2387 115.178C67.6931 115.837 68.0984 116.494 68.5137 117.181C68.777 117.616 68.7998 118.11 68.7998 118.606L68.7998 119.619C68.7998 119.671 68.8018 119.723 68.8039 119.775C68.812 119.987 68.8203 120.203 68.6971 120.381C68.5527 120.588 68.4086 120.757 68.2494 120.903Z" fill="#8199F0"/>
<path d="M60.2173 123.3C60.4945 121.879 60.3173 120.299 60.3173 118.856C60.3173 117.53 59.9613 116.245 59.8396 114.933C59.7461 113.926 59.3149 113.067 59.1673 112.067C59.033 111.156 58.8248 110.236 58.7396 109.322C58.5628 107.426 58.1336 105.593 57.9951 103.7C57.8939 102.316 57.597 100.93 57.4396 99.5445C57.3 98.3168 57.1173 97.1261 57.1173 95.8778C57.1173 95.2625 57.2956 94.3566 57.0173 93.8" stroke="#1D1D1D" stroke-width="0.4" stroke-linecap="round" stroke-linejoin="round"/>
<path d="M54.4175 82C54.584 82.9621 54.909 84.0448 55.5953 84.7778C56.368 85.6033 57.309 86.0711 58.2619 86.6667C59.7839 87.618 61.584 88.1169 63.2175 88.8445C64.0037 89.1946 64.7969 89.6493 65.5619 90.05C66.0877 90.3254 66.8619 90.5777 67.1397 91.1445C67.4655 91.8091 67.5235 92.7179 67.3953 93.4445C67.3042 93.9607 67.0438 94.3909 66.873 94.8723C66.6602 95.4722 66.7175 96.1523 66.7175 96.7778C66.7175 98.0289 67.1879 99.3953 68.1619 100.222C68.712 100.689 69.3949 100.998 69.9897 101.406C70.7897 101.954 71.4082 102.486 71.973 103.3C72.628 104.244 73.0175 104.938 73.0175 106.078C73.0175 107.815 71.2421 108.701 70.3397 109.956C69.4951 111.13 69.1618 112.308 69.2175 113.756C69.2399 114.339 69.8459 114.999 70.0619 115.544C70.3132 116.179 70.604 116.934 70.7397 117.6C70.8742 118.26 71.0447 119.562 70.473 120.022C69.7957 120.568 69.1977 120.876 68.3175 120.9C67.6495 120.918 67.0545 121.276 66.3953 121.3C65.8701 121.319 66.8335 120.756 67.0119 120.6C68.1443 119.609 67.7026 118.235 67.0675 117.106C66.6318 116.331 65.8532 115.849 65.4786 115.017C65.1261 114.233 64.8175 113.571 64.8175 112.7C64.8175 112.3 64.7776 111.876 64.8175 111.478C64.8559 111.093 65.345 110.809 65.573 110.533C65.9272 110.105 66.1914 109.622 66.6619 109.3C67.0508 109.034 67.4152 108.859 67.723 108.5C68.4892 107.606 68.854 105.597 67.6675 104.806C67.4599 104.667 67.2939 104.476 67.1175 104.3C66.7921 103.975 66.3902 103.857 66.023 103.6C65.4833 103.222 64.8844 102.944 64.3675 102.494C63.675 101.892 62.9044 100.999 62.4619 100.194C62.2665 99.8391 62.1955 99.5981 62.0953 99.2223C61.9953 98.8474 61.6715 98.5188 61.623 98.1556C61.5325 97.4764 61.3042 96.8189 60.973 96.2167C60.6544 95.6374 60.2465 95.4657 59.7175 95.1445C58.9526 94.6801 57.5581 93.9324 56.9175 95" stroke="#1D1D1D" stroke-width="0.4" stroke-linecap="round" stroke-linejoin="round"/>
<path d="M52.1854 102.997L52.1999 103L52.6999 103.25C52.7933 103.437 53.0953 103.635 53.1611 103.872C53.3013 104.377 53.1999 105.022 53.1999 105.539C53.1999 106.026 53.1296 106.453 53.0027 106.922C52.8904 107.338 52.6866 107.714 52.5722 108.128C52.4324 108.633 52.14 109.081 52.0305 109.592C51.9598 109.922 51.9962 110.292 51.9999 110.628C52.0076 111.314 52.4211 111.878 52.7083 112.478C53.0321 113.154 53.4406 113.755 53.7888 114.417C54.3969 115.573 54.9134 116.88 54.8999 118.194C54.8897 119.198 54.0674 119.729 53.2499 120.144C52.8172 120.364 52.3012 120.35 51.8277 120.35L51.7888 120.35C51.162 120.35 50.5394 120.35 49.9166 120.261C48.7337 120.092 47.5527 119.5 46.5888 118.817C46.2194 118.555 45.9489 118.242 45.6833 117.883C45.3778 117.471 45.0525 117.136 44.9111 116.633C44.7466 116.049 44.5732 115.467 44.4027 114.883C44.2705 114.431 44.0499 113.98 44.0499 113.506C44.0499 112.499 44.2859 111.48 44.7722 110.589C44.9529 110.257 45.1435 109.931 45.3249 109.6C45.5831 109.129 45.5999 108.691 45.5999 108.161C45.5999 106.797 45.4728 105.369 45.7222 104.022C45.8994 103.065 46.9956 102.737 47.8222 102.65C48.4142 102.588 49.0084 102.6 49.6027 102.6C50.5158 102.6 51.3091 102.788 52.1854 102.997Z" fill="#8199F0"/>
<path d="M50.0498 113.9C49.8543 113.9 49.6373 113.875 49.4471 113.933C49.253 113.993 49.1841 114.146 49.061 114.289C48.8729 114.507 48.6688 114.983 48.611 115.267C48.5445 115.593 48.585 116.005 48.5998 116.339C48.6139 116.656 48.9762 116.743 49.2276 116.75C49.7956 116.765 49.8777 115.678 49.7498 115.294C49.694 115.127 49.4071 114.894 49.261 114.8C49.1323 114.717 48.9473 114.75 48.7998 114.75" stroke="#1D1D1D" stroke-width="0.4" stroke-linecap="round" stroke-linejoin="round"/>
</g>
<path d="M99.0156 117.505C95.1925 118.657 86.6396 116.458 83.4216 115.159C83.1042 115.03 82.7379 115.201 82.648 115.531C82.5762 115.795 82.709 116.072 82.9617 116.175C89.6288 118.912 97.248 118.87 98.6597 118.801L99.0156 117.505Z" fill="#AEAEAE"/>
<path d="M100.71 116.536C98.5217 117.366 95.1569 115.477 94.3265 113.289C94.2441 111.869 95.5146 109.442 97.7028 108.612C99.8909 107.782 102.338 108.882 103.168 111.071C103.999 113.259 102.898 115.706 100.71 116.536Z" fill="#F08181"/>
<path d="M100.71 116.536C98.5217 117.366 95.1569 115.477 94.3265 113.289C91.2506 115.71 89.6371 117.639 92.3774 121.814L93.4233 124.57C97.0128 121.566 100.934 120.865 100.71 116.536Z" fill="#F08181"/>
<path d="M93.4233 124.57L92.3774 121.814C90.2423 117.413 88.2459 118.613 83.4127 117.925C78.5795 117.236 79.6667 118.058 79.7438 117.568L79.4214 119.546C85.7329 123.66 87.186 129.791 93.4233 124.57Z" fill="#F08181"/>
<path d="M78.2264 114.42C79.0677 113.62 80.4049 113.68 81.1713 114.552L83.1151 116.762C83.7749 117.512 83.7961 118.629 83.1653 119.404L81.7043 121.199L77.6298 118.389C76.5606 117.651 76.4405 116.117 77.382 115.222L78.2264 114.42Z" fill="#F08181"/>
<path d="M97.6132 130.753C97.0451 131.887 95.933 132.569 94.7518 132.64C94.1706 132.675 93.5726 132.562 93.0145 132.282C91.3222 131.435 90.6375 129.376 91.485 127.684C92.3326 125.991 94.3915 125.307 96.0838 126.154C97.776 127.002 98.4607 129.061 97.6132 130.753Z" fill="#F6CAEF"/>
<path d="M93.0145 132.282C91.3222 131.435 90.6375 129.376 91.485 127.684C89.5593 127.997 87.7186 131.941 87.2471 134.893C87.0048 136.41 87.5208 137.359 87.4889 137.79C87.4234 138.672 88.6038 139.446 89.4754 139.816C90.4369 139.9 91.7176 139.975 93.0754 139.998C95.5372 137.073 95.4516 134.186 94.7518 132.64C94.1706 132.675 93.5726 132.562 93.0145 132.282Z" fill="#F6CAEF"/>
<path d="M89.4754 139.816C88.6038 139.446 87.4234 138.672 87.4889 137.79C87.2196 140.053 86.6147 142.531 90.7965 148.281L93.1158 148.339C92.6653 146.295 93.362 145.301 93.5985 144.24C93.805 143.314 93.4269 141.058 93.0754 139.998C91.7176 139.975 90.4369 139.9 89.4754 139.816Z" fill="#F6CAEF"/>
<path d="M85.7626 149.533C85.7746 149.218 85.9767 148.943 86.273 148.837C88.154 148.167 90.1537 147.894 92.1456 148.036L93.0715 148.102L93.0253 149.315C92.9999 149.983 92.4946 150.534 91.8316 150.617L87.1867 151.196C86.4035 151.294 85.7195 150.667 85.7495 149.878L85.7626 149.533Z" fill="#F6CAEF"/>
<path d="M108.436 83.2514L104.609 80.1022L109.777 77.9228L108.436 83.2514Z" fill="#D05D5D"/>
<path d="M85.0337 101.059C86.7519 101.809 88.8428 100.665 89.7391 98.6121C90.6354 96.5587 90.0519 94.2483 88.3338 93.4983C86.6156 92.7484 84.5247 93.8914 83.6284 95.9448C82.7321 97.9982 83.3156 100.309 85.0337 101.059Z" fill="url(#paint7_radial)" stroke="#1D1D1D" stroke-width="0.340892"/>
<path d="M94.9099 105.512C96.6281 106.262 98.719 105.119 99.6153 103.066C100.512 101.012 99.9281 98.7018 98.21 97.9519C96.4918 97.2019 94.4009 98.3449 93.5046 100.398C92.6083 102.452 93.1918 104.762 94.9099 105.512Z" fill="url(#paint8_radial)" stroke="#1D1D1D" stroke-width="0.340892"/>
<circle cx="86.4118" cy="95.7841" r="1.75895" transform="rotate(3.72262 86.4118 95.7841)" fill="#636363"/>
<circle cx="95.4118" cy="102.184" r="1.75895" transform="rotate(3.72262 95.4118 102.184)" fill="#636363"/>
<path d="M95.1496 61.2913C94.562 59.981 93.0237 59.3952 91.7134 59.9827C90.4031 60.5702 89.8172 62.1087 90.4048 63.4189L93.1578 69.5583L99.2973 66.8053C100.608 66.2178 101.193 64.6794 100.606 63.3691C100.018 62.0588 98.4799 61.473 97.1696 62.0605L95.7751 62.6859L95.1496 61.2913Z" fill="#E47272"/>
<path d="M89.7692 80.7C88.7359 78.9667 87.2892 74.52 89.7692 70.6" stroke="#1D1D1D" stroke-width="0.4" stroke-linecap="round"/>
<defs>
<radialGradient id="paint0_radial" cx="0" cy="0" r="1" gradientUnits="userSpaceOnUse" gradientTransform="translate(50.0873 56.578) rotate(52.6071) scale(8.63595 6.90876)">
<stop stop-color="white"/>
<stop offset="1" stop-color="#E7E7E7"/>
</radialGradient>
<linearGradient id="paint1_linear" x1="71.8539" y1="15.0004" x2="73.8708" y2="44.629" gradientUnits="userSpaceOnUse">
<stop stop-color="white" stop-opacity="0.4"/>
<stop offset="1" stop-color="#EDEDED" stop-opacity="0"/>
</linearGradient>
<linearGradient id="paint2_linear" x1="71.8539" y1="15.0004" x2="73.8708" y2="44.629" gradientUnits="userSpaceOnUse">
<stop stop-color="white" stop-opacity="0.4"/>
<stop offset="1" stop-color="#EDEDED" stop-opacity="0"/>
</linearGradient>
<linearGradient id="paint3_linear" x1="71.8539" y1="15.0004" x2="73.8708" y2="44.629" gradientUnits="userSpaceOnUse">
<stop stop-color="white" stop-opacity="0.4"/>
<stop offset="1" stop-color="#EDEDED" stop-opacity="0"/>
</linearGradient>
<linearGradient id="paint4_linear" x1="71.8539" y1="15.0004" x2="73.8708" y2="44.629" gradientUnits="userSpaceOnUse">
<stop stop-color="white" stop-opacity="0.4"/>
<stop offset="1" stop-color="#EDEDED" stop-opacity="0"/>
</linearGradient>
<radialGradient id="paint5_radial" cx="0" cy="0" r="1" gradientUnits="userSpaceOnUse" gradientTransform="translate(85.4453 96.489) rotate(64.4313) scale(6.19617 4.95694)">
<stop stop-color="white"/>
<stop offset="1" stop-color="#E7E7E7"/>
</radialGradient>
<radialGradient id="paint6_radial" cx="0" cy="0" r="1" gradientUnits="userSpaceOnUse" gradientTransform="translate(95.3217 100.942) rotate(64.4313) scale(6.19617 4.95694)">
<stop stop-color="white"/>
<stop offset="1" stop-color="#E7E7E7"/>
</radialGradient>
<radialGradient id="paint7_radial" cx="0" cy="0" r="1" gradientUnits="userSpaceOnUse" gradientTransform="translate(85.4455 96.4888) rotate(64.4313) scale(6.19617 4.95694)">
<stop stop-color="white"/>
<stop offset="1" stop-color="#E7E7E7"/>
</radialGradient>
<radialGradient id="paint8_radial" cx="0" cy="0" r="1" gradientUnits="userSpaceOnUse" gradientTransform="translate(95.3217 100.942) rotate(64.4313) scale(6.19617 4.95694)">
<stop stop-color="white"/>
<stop offset="1" stop-color="#E7E7E7"/>
</radialGradient>
<clipPath id="clip0">
<rect width="66.7948" height="48.5416" fill="white" transform="translate(22.239 70.2922) rotate(13.6664)"/>
</clipPath>
</defs>
</svg>
